<svg viewBox="0 0 117.78 119.44" xmlns="http://www.w3.org/2000/svg"><g transform="translate(-751.3 -153.27)"><path d="m823.69 161.27c-.53.26-2 13-2.27 13.92a54.21 54.21 0 0 1 -20.35 29.71c-1.34 1-12.94 8.43-14 8.43h-.07c2.78 3.16 27.78 5.16 34.13 36.35.23 1.14 2.9 15.05 3 15.05.6-.17 1.76-10.24 1.79-11.71.76-32.38 35.34-38.79 35.16-40.45-10.6-5.83-20.2-10.3-27.74-22a55.06 55.06 0 0 1 -7.34-17.38c-.29-1.19-1.75-11.92-2.31-11.92z" fill="#fff" stroke="#fff" stroke-linecap="round" stroke-linejoin="round" stroke-width="16"/><path d="m823.77 172.45c-.4.19-1.53 9.85-1.71 10.52a41 41 0 0 1 -15.38 22.46c-1 .76-9.79 6.38-10.6 6.38 2.1 2.4 21 3.9 25.8 27.49.18.86 2.2 11.38 2.3 11.38.45-.13 1.32-7.74 1.35-8.86.57-24.48 26.72-29.33 26.58-30.58-8-4.41-15.27-7.79-21-16.62a42 42 0 0 1 -5.56-13.15c-.25-.92-1.36-9.02-1.78-9.02z" fill="#e7b9d6"/><path d="m823.69 196c.49.88 1 1.74 1.56 2.59a44.16 44.16 0 0 0 12.86 13 41 41 0 0 0 -15 14.42 37.87 37.87 0 0 0 -13.85-14l.53-.37a50.12 50.12 0 0 0 10.76-10.81 48.13 48.13 0 0 0 3.11-4.85m-.21-24.19c-.41.2-1.59 10.24-1.78 10.94a42.56 42.56 0 0 1 -16 23.34c-1.05.79-10.17 6.63-11 6.63 2.18 2.49 21.82 4.06 26.81 28.57.19.9 2.28 11.83 2.39 11.83.47-.14 1.38-8 1.41-9.2.59-25.45 27.77-30.49 27.63-31.79-8.34-4.59-15.88-8.09-21.81-17.28a43.62 43.62 0 0 1 -5.77-13.66c-.26-.98-1.41-9.4-1.85-9.4z" fill="#474747" stroke="#474747" stroke-miterlimit="10" stroke-width=".75"/></g></svg>