<svg viewBox="0 0 131.01 139.86" xmlns="http://www.w3.org/2000/svg"><g transform="translate(-727.44 -211.61)"><path d="m813.05 240c-.53.27-2 13-2.27 13.93a54.16 54.16 0 0 1 -20.34 29.7c-1.34 1-12.94 8.43-14 8.43h-.07c2.78 3.17 27.77 5.16 34.12 36.36.24 1.14 2.9 15 3 15 .6-.17 1.75-10.24 1.79-11.71.76-32.38 35.34-38.79 35.16-40.45-10.61-5.83-20.21-10.29-27.75-22a55.37 55.37 0 0 1 -7.34-17.38c-.28-1.15-1.74-11.88-2.3-11.88z" fill="#fff" stroke="#fff" stroke-linecap="round" stroke-linejoin="round" stroke-width="16"/><path d="m813.14 251.2c-.4.2-1.53 9.86-1.72 10.53a40.91 40.91 0 0 1 -15.42 22.46c-1 .75-9.78 6.37-10.59 6.37 2.1 2.39 21 3.9 25.8 27.49.17.86 2.19 11.37 2.29 11.37.46-.13 1.33-7.74 1.35-8.85.58-24.48 26.73-29.33 26.59-30.59-8-4.41-15.28-7.78-21-16.62a41.66 41.66 0 0 1 -5.55-13.14c-.23-.92-1.33-9.02-1.75-9.02z" fill="#e7b9d6"/><path d="m813.05 274.7c.5.88 1 1.75 1.56 2.59a44.15 44.15 0 0 0 12.86 13 41 41 0 0 0 -15 14.43 37.78 37.78 0 0 0 -13.84-14l.52-.37a50.16 50.16 0 0 0 10.85-10.79 49.33 49.33 0 0 0 3.1-4.86m-.2-24.18c-.42.21-1.59 10.24-1.78 10.94a43.73 43.73 0 0 1 -6.7 14 43.17 43.17 0 0 1 -9.29 9.31c-1.06.78-10.17 6.63-11 6.63h-.06c2.19 2.49 21.83 4.05 26.82 28.57.18.9 2.28 11.82 2.39 11.82.47-.13 1.37-8 1.4-9.2.6-25.45 27.78-30.48 27.63-31.79-8.33-4.58-15.88-8.09-21.8-17.28a43.29 43.29 0 0 1 -5.77-13.66c-.31-.92-1.45-9.34-1.89-9.34z" fill="#474747" stroke="#474747" stroke-miterlimit="10" stroke-width=".75"/><path d="m753.92 220.61c-.25.13-1 6.21-1.08 6.63a26.48 26.48 0 0 1 -4.06 8.51 26.18 26.18 0 0 1 -5.63 5.64c-.64.47-6.16 4-6.67 4 1.32 1.5 13.22 2.45 16.25 17.31.11.54 1.38 7.17 1.44 7.17.29-.09.84-4.88.85-5.58.37-15.42 16.84-18.47 16.75-19.27-5.05-2.77-9.62-4.9-13.21-10.47a26.18 26.18 0 0 1 -3.5-8.28c-.18-.56-.87-5.66-1.14-5.66z" fill="#fff" stroke="#fff" stroke-linecap="round" stroke-linejoin="round" stroke-width="18"/><path d="m753.92 220.16c-.25.13-1 6.21-1.08 6.64a25.78 25.78 0 0 1 -9.69 14.14c-.64.48-6.16 4-6.67 4 1.32 1.51 13.22 2.45 16.25 17.31.11.55 1.38 7.17 1.44 7.17.29-.08.84-4.88.85-5.58.37-15.42 16.84-18.47 16.75-19.26-5.05-2.78-9.62-4.91-13.21-10.47a26.37 26.37 0 0 1 -3.5-8.28c-.18-.57-.87-5.67-1.14-5.67z" fill="#e7b9d6"/><path d="m754.05 235.27c.3.53.61 1 .94 1.57a26.65 26.65 0 0 0 7.8 7.86 24.88 24.88 0 0 0 -9.08 8.74 23 23 0 0 0 -8.39-8.46l.32-.22a30.71 30.71 0 0 0 6.53-6.55 32.5 32.5 0 0 0 1.88-2.94m-.13-14.66c-.25.13-1 6.21-1.08 6.63a26.48 26.48 0 0 1 -4.06 8.51 26.18 26.18 0 0 1 -5.63 5.64c-.64.47-6.16 4-6.67 4 1.32 1.5 13.22 2.45 16.25 17.31.11.54 1.38 7.17 1.44 7.17.29-.09.84-4.88.85-5.58.37-15.42 16.84-18.47 16.75-19.27-5.05-2.77-9.62-4.9-13.21-10.47a26.18 26.18 0 0 1 -3.5-8.28c-.18-.56-.87-5.66-1.14-5.66z" fill="#474747" stroke="#474747" stroke-miterlimit="10" stroke-width=".75"/></g></svg>