<?xml version="1.0" encoding="UTF-8"?>
<svg width="68px" height="20px" viewBox="0 0 68 20" version="1.1" xmlns="http://www.w3.org/2000/svg" xmlns:xlink="http://www.w3.org/1999/xlink">
    <!-- Generator: Sketch 50.2 (55047) - http://www.bohemiancoding.com/sketch -->
    <title>Shape</title>
    <desc>Created with Sketch.</desc>
    <defs></defs>
    <g id="Page-1" stroke="none" stroke-width="1" fill="none" fill-rule="evenodd">
        <path d="M1.056,11.043 L64.401,11.043 L57.223,18.202 C56.801,18.623 56.801,19.255 57.223,19.676 C57.434,19.887 57.751,19.992 57.962,19.992 C58.173,19.992 58.49,19.887 58.701,19.676 L67.674,10.727 C68.096,10.306 68.096,9.674 67.674,9.253 L58.701,0.304 C58.279,-0.117 57.646,-0.117 57.223,0.304 C56.801,0.725 56.801,1.357 57.223,1.778 L64.401,8.937 L1.056,8.937 C0.422,8.937 0,9.358 0,9.99 C0,10.622 0.422,11.043 1.056,11.043 Z" id="Shape" fill="#ED3FA8"></path>
    </g>
</svg>