<?xml version="1.0" encoding="UTF-8"?>
<svg width="23px" height="27px" viewBox="0 0 23 27" version="1.1" xmlns="http://www.w3.org/2000/svg" xmlns:xlink="http://www.w3.org/1999/xlink">
    <!-- Generator: Sketch 50.2 (55047) - http://www.bohemiancoding.com/sketch -->
    <title>Shape</title>
    <desc>Created with Sketch.</desc>
    <defs></defs>
    <g id="Page-1" stroke="none" stroke-width="1" fill="none" fill-rule="evenodd">
        <path d="M18.506,27.0020009 L4.491,27.0020009 C1.679,27.0020009 0,25.5300009 0,23.0620009 L0.012,14.0880009 C0.012,10.3150009 2.379,7.02400087 5.872,5.28600087 C6.125,4.09400087 6.623,3.01500087 7.319,2.14200087 C8.341,0.856000874 9.826,-0.000999125789 11.499,8.74210792e-07 C13.17,-0.000999125789 14.655,0.856000874 15.678,2.14200087 C16.372,3.01200087 16.869,4.08500087 17.123,5.27300087 C20.623,7.00800087 22.997,10.3070009 22.997,14.0880009 L22.997,23.0640009 C22.997,25.5300009 21.317,27.0020009 18.506,27.0020009 Z M5.92,25.2550009 L17.077,25.2550009 L17.077,19.8640009 L5.92,19.8640009 L5.92,25.2550009 Z M5.91999241,18.1170009 L17.0770076,18.1170009 L17.077,15.4410009 C17.078,15.1410009 16.98,14.8860009 16.87,14.7440009 C16.753,14.5980009 16.679,14.5850009 16.644,14.5850009 L6.353,14.5850009 C6.318,14.5850009 6.243,14.5980009 6.127,14.7440009 C6.017,14.8860009 5.919,15.1410009 5.92,15.4410009 L5.91999241,18.1170009 Z M14.306,3.23000087 C13.54,2.27700087 12.555,1.74900087 11.499,1.74700087 C10.441,1.74900087 9.456,2.27700087 8.69,3.23000087 C8.406,3.58500087 8.175,4.01000087 7.981,4.46900087 C9.096,4.15200087 10.282,3.97600087 11.515,3.97600087 C12.734,3.97600087 13.908,4.14800087 15.012,4.46000087 C14.819,4.00400087 14.589,3.58300087 14.306,3.23000087 Z M21.244,14.0880009 C21.244,9.46900087 16.9,5.72400087 11.515,5.72400087 C6.13,5.72400087 1.765,9.46900087 1.765,14.0880009 L1.753,23.0640009 C1.753,24.2040009 2.27,25.1360009 4.167,25.2360009 L4.167,15.4410009 C4.169,14.7850009 4.363,14.1760009 4.727,13.6920009 C5.084,13.2130009 5.665,12.8380009 6.353,12.8380009 L16.644,12.8380009 C17.332,12.8380009 17.912,13.2130009 18.269,13.6920009 C18.633,14.1760009 18.828,14.7850009 18.83,15.4410009 L18.83,25.2360009 C20.726,25.1360009 21.244,24.2040009 21.244,23.0640009 L21.244,14.0880009 Z" id="Shape" fill="#FFFFFF" fill-rule="nonzero"></path>
    </g>
</svg>