<svg xmlns="http://www.w3.org/2000/svg" viewBox="0 0 391.37 353.4"><title>Asset 1</title><g style="isolation:isolate"><g id="Layer_2" data-name="Layer 2"><g id="Layer_1-2" data-name="Layer 1"><g style="opacity:0.12;mix-blend-mode:multiply"><path d="M11.41,115.9,56.9,41.51A36.8,36.8,0,0,1,85.15,24L293.89,6.13A36.79,36.79,0,0,1,324.7,18.54l57.54,65.6a36.8,36.8,0,0,1,3.07,44.5L248.24,336.83A36.8,36.8,0,0,1,191,342.11L16.29,160.62A36.79,36.79,0,0,1,11.41,115.9Z" style="fill:#68374f"/></g><path d="M5.41,109.9,50.9,35.51A36.8,36.8,0,0,1,79.15,18L287.89.13A36.79,36.79,0,0,1,318.7,12.54l57.54,65.6a36.8,36.8,0,0,1,3.07,44.5L242.24,330.83A36.8,36.8,0,0,1,185,336.11L10.29,154.62A36.79,36.79,0,0,1,5.41,109.9Z" style="fill:#fff"/><polygon points="73.75 48.82 292.88 26.7 358.11 98.86 214.47 324.33 24.25 132.56 73.75 48.82" style="fill:#97caeb"/><path d="M215,326.88l-192.58-196L73.89,44.72l1.26-.12L295.36,23.44l66.91,74.73ZM28.7,130.1,214.19,318.91,356,98.67l-62.68-70L76.89,49.45Z" style="fill:#65b2e8"/><path d="M136.85,73.37a1.09,1.09,0,0,1-.26,0,1,1,0,0,1-.75-1.2l6.92-30a1,1,0,0,1,1.2-.74,1,1,0,0,1,.75,1.19l-6.93,30A1,1,0,0,1,136.85,73.37Z" style="fill:#65b2e8"/><path d="M250.82,61.53a1,1,0,0,1-.93-.55L235.66,33.12a1,1,0,0,1,.44-1.35,1,1,0,0,1,1.34.44l14.23,27.86a1,1,0,0,1-.43,1.35A1.09,1.09,0,0,1,250.82,61.53Z" style="fill:#65b2e8"/><path d="M308.22,103.66a1,1,0,0,1-.12-2l48.4-4.42a1,1,0,1,1,.18,2l-48.4,4.42Z" style="fill:#65b2e8"/><path d="M25.33,131.63a1,1,0,0,1-1-.91,1,1,0,0,1,.9-1.09l45.9-4.33a1,1,0,0,1,.19,2l-45.9,4.33Z" style="fill:#65b2e8"/><path d="M213.22,323.2a1,1,0,0,1-.92-.6l-22.22-50.8-18-41.7a1,1,0,1,1,1.83-.8l18,41.7,21.13,48.32,15.3-50.56L241,224.32a1,1,0,1,1,1.92.55l-12.61,44.45-16.09,53.17a1,1,0,0,1-.9.71Z" style="fill:#65b2e8"/><path d="M134,181.24l7-.53,5.52,28.19L163.05,179l7.39-.56-22.51,39.42-5.79.44Z" style="fill:#fff"/><path d="M166.25,209.11a9.4,9.4,0,0,1,2.15-7c2.06-2.35,5.37-3.84,9.36-4.14a30.23,30.23,0,0,1,8.83.72l.12-.49a10,10,0,0,0,.14-2.37c-.2-2.6-2.13-4.11-6.54-3.78a20.48,20.48,0,0,0-7.54,2.13l-1.46-5.13a27.32,27.32,0,0,1,9.85-2.63c7.34-.56,11.46,2.34,11.88,7.82a18.14,18.14,0,0,1-.27,4.14l-3,16-6.22.48.68-3.8a12.17,12.17,0,0,1-8.93,5C170.51,216.49,166.61,213.74,166.25,209.11Zm19.4-5.17.27-1.3a22.91,22.91,0,0,0-6.88-.55,7.72,7.72,0,0,0-5.29,2.28,4.73,4.73,0,0,0-1.12,3.51c.17,2.23,2,3.64,4.86,3.42A9.4,9.4,0,0,0,185.65,203.94Z" style="fill:#fff"/><path d="M205.26,174.21l6.43-.49-7.46,39.61-6.43.49Z" style="fill:#fff"/><path d="M214.32,204.7a21.7,21.7,0,0,1,.48-5l2.93-15.63,6.43-.49-3,15.9a13.23,13.23,0,0,0-.16,2.85c.21,2.82,2.14,4.28,5.17,4,3.62-.27,6.38-3.37,7.18-7.6l3-16.12,6.43-.49-5.35,28.65-6.44.49.68-3.69c-2.06,2.4-4.62,4.58-8.18,4.85C218.31,212.85,214.72,209.86,214.32,204.7Z" style="fill:#fff"/><path d="M252.79,197.76c.32,4.25,3,7,7.83,6.62a11.25,11.25,0,0,0,7-3.26L271,205a16.39,16.39,0,0,1-10.61,4.71c-7.81.6-13.12-3.76-13.69-11.31a17.63,17.63,0,0,1,4.22-12.62,16,16,0,0,1,11-5.65c7.23-.55,11.58,3.93,12.05,10a15.77,15.77,0,0,1-.77,6Zm.37-4.31,14.57-1.11a6.68,6.68,0,0,0,.11-2c-.22-2.92-2.11-5.24-6-4.94a9.07,9.07,0,0,0-6.28,3.26A11.69,11.69,0,0,0,253.16,193.45Z" style="fill:#fff"/><path d="M133.71,86.1l-1,4.75a21.7,21.7,0,0,1,11,5.19l-5.11,5.87A19.32,19.32,0,0,0,130.94,98l-2.65,12.71c7.11,2,11.48,4.81,12,11.33.64,8.38-6.77,14.77-17.14,15.56l-.4,0-1.43,6.67-5.79.44,1.52-7.21a21.88,21.88,0,0,1-14.24-6.88l5.61-5.51a18.34,18.34,0,0,0,10.43,5.23l2.8-13.26c-7.11-2-11.72-4.53-12.23-11.25-.61-8,6.52-14.55,16.37-15.3.39,0,.86,0,1.26,0l.9-4Zm-10.35,23.13,2.4-11.55c-5.65.43-8.3,3.44-8.05,6.7C117.88,106.71,119.31,107.87,123.36,109.23Zm3.19,9.33L124,130.46c5.18-.6,8.12-3.3,7.84-7C131.7,121.24,130.26,119.88,126.55,118.56Z" style="fill:#ed3fa8;stroke:#ed3fa8;stroke-linecap:round;stroke-linejoin:round;stroke-width:3px"/><path d="M149.78,141.55c-.88-11.64,7.55-19,18.88-22.35a16.5,16.5,0,0,1-11-14.22c-.78-10.34,8.64-21.67,26.31-23,15.4-1.17,26.8,6.3,27.69,17.93.74,9.81-5.72,17.34-15.89,20.39,6.87,2.08,12.69,7.27,13.31,15.45.89,11.74-10.37,23.11-29.11,24.54C164.08,161.47,150.72,153.82,149.78,141.55ZM196,136.08c-.48-6.25-7.21-10.72-17-10-10.23.78-16.61,6.68-16.1,13.36.38,6.36,7.2,10.61,16.89,9.87C189.64,148.58,196.38,143.19,196,136.08Zm3.17-33.72c-.34-5.82-6-10-14.91-9.37-8.5.65-14.38,6-14,12.44.35,5.93,6.3,10.14,14.7,9.5C194.07,114.23,199.59,108.5,199.12,102.36Z" style="fill:#ed3fa8;stroke:#ed3fa8;stroke-linecap:round;stroke-linejoin:round;stroke-width:3px"/><path d="M232.62,149.53c-5.34-4.57-8.53-10.94-9.26-20.52-1.14-15,3.24-29.93,11.9-40a37.12,37.12,0,0,1,25.54-13.1,31.79,31.79,0,0,1,23.64,7.4l-7.25,10a22.66,22.66,0,0,0-16.55-5.34,21.3,21.3,0,0,0-15.53,8,35.91,35.91,0,0,0-8,18.6c3.22-4.58,10.24-9.13,18.54-9.76,13.35-1,23.9,6.63,24.89,19.55a27.1,27.1,0,0,1-6.84,19.81A30.83,30.83,0,0,1,252.2,155C244.45,155.56,237.37,153.61,232.62,149.53Zm30.95-11.78a14.93,14.93,0,0,0,3.61-10.89c-.51-6.68-5.87-11.58-14.38-10.93a18.9,18.9,0,0,0-12.65,5.95,14.61,14.61,0,0,0-3.54,10.45,11.44,11.44,0,0,0,4.1,8.24c2.78,2.39,6.43,3.41,10.74,3.09A17.73,17.73,0,0,0,263.57,137.75Z" style="fill:#ed3fa8;stroke:#ed3fa8;stroke-linecap:round;stroke-linejoin:round;stroke-width:3px"/><path d="M129.08,84.43l-1,4.76a21.7,21.7,0,0,1,11,5.18l-5.1,5.88a19.38,19.38,0,0,0-7.73-3.9l-2.64,12.72c7.11,2,11.47,4.81,12,11.33.64,8.38-6.77,14.76-17.15,15.55l-.4,0-1.43,6.67-5.79.44,1.53-7.21A21.82,21.82,0,0,1,98.16,129l5.6-5.51a18.36,18.36,0,0,0,10.43,5.22L117,115.46c-7.11-2-11.72-4.52-12.23-11.24-.61-8,6.51-14.55,16.36-15.3.4,0,.87,0,1.27,0l.9-4Zm-10.34,23.14L121.13,96c-5.65.43-8.3,3.44-8,6.7C113.26,105,114.69,106.2,118.74,107.57Zm3.18,9.32-2.5,11.9c5.17-.59,8.11-3.29,7.83-6.95C127.08,119.58,125.64,118.22,121.92,116.89Z" style="fill:#fff;stroke:#fff;stroke-linecap:round;stroke-linejoin:round;stroke-width:2px"/><path d="M145.16,139.88c-.89-11.63,7.54-19,18.88-22.35a16.47,16.47,0,0,1-11-14.21c-.79-10.34,8.64-21.68,26.3-23,15.4-1.18,26.81,6.3,27.69,17.93.75,9.8-5.72,17.33-15.89,20.38,6.88,2.08,12.69,7.27,13.31,15.46.9,11.74-10.37,23.1-29.11,24.53C159.46,159.81,146.09,152.16,145.16,139.88Zm46.16-5.47c-.47-6.24-7.21-10.71-17-10-10.23.78-16.6,6.68-16.1,13.36.38,6.37,7.2,10.61,16.9,9.87C185,146.92,191.76,141.53,191.32,134.41Zm3.17-33.71c-.33-5.83-6-10.06-14.9-9.37-8.51.64-14.39,6-14,12.44.34,5.93,6.3,10.13,14.7,9.49C189.44,112.57,195,106.84,194.49,100.7Z" style="fill:#fff;stroke:#fff;stroke-linecap:round;stroke-linejoin:round;stroke-width:2px"/><path d="M228,147.87c-5.33-4.58-8.53-10.94-9.26-20.53-1.14-15,3.25-29.93,11.9-40a37.17,37.17,0,0,1,25.55-13.11,31.83,31.83,0,0,1,23.64,7.41l-7.26,10A22.61,22.61,0,0,0,256,86.26a21.3,21.3,0,0,0-15.53,8,35.91,35.91,0,0,0-8,18.59c3.23-4.58,10.25-9.12,18.54-9.75,13.36-1,23.91,6.63,24.89,19.55a27.09,27.09,0,0,1-6.83,19.8,30.86,30.86,0,0,1-21.49,10.85C239.82,153.9,232.74,152,228,147.87Zm30.95-11.78a14.87,14.87,0,0,0,3.61-10.9c-.51-6.67-5.86-11.57-14.37-10.92a18.94,18.94,0,0,0-12.66,5.94A14.65,14.65,0,0,0,232,130.66a11.44,11.44,0,0,0,4.09,8.25c2.78,2.39,6.44,3.41,10.75,3.08A17.68,17.68,0,0,0,258.94,136.09Z" style="fill:#fff;stroke:#fff;stroke-linecap:round;stroke-linejoin:round;stroke-width:2px"/><path d="M130.84,85l-1,4.76a21.62,21.62,0,0,1,11,5.18l-5.1,5.87a19.32,19.32,0,0,0-7.72-3.89l-2.65,12.71c7.11,2,11.47,4.81,12,11.33.64,8.38-6.77,14.77-17.15,15.56l-.39,0-1.44,6.67-5.78.44,1.52-7.21a21.81,21.81,0,0,1-14.24-6.88l5.6-5.51A18.37,18.37,0,0,0,116,129.24l2.8-13.26c-7.11-2-11.72-4.53-12.23-11.25-.61-8,6.52-14.54,16.36-15.29.4,0,.87,0,1.27,0l.9-4Zm-10.35,23.13,2.4-11.55c-5.66.43-8.3,3.44-8,6.7C115,105.56,116.44,106.72,120.49,108.08Zm3.19,9.33-2.51,11.9c5.17-.6,8.11-3.3,7.83-7C128.83,120.09,127.39,118.73,123.68,117.41Z" style="fill:#ffcbf9;stroke:#ffcbf9;stroke-linecap:round;stroke-linejoin:round"/><path d="M146.91,140.4c-.89-11.64,7.54-19,18.88-22.35a16.5,16.5,0,0,1-11-14.21c-.79-10.35,8.64-21.68,26.3-23,15.41-1.17,26.81,6.3,27.69,17.93.75,9.81-5.72,17.34-15.88,20.39,6.87,2.08,12.68,7.27,13.31,15.45.89,11.74-10.38,23.11-29.12,24.54C161.21,160.32,147.85,152.67,146.91,140.4Zm46.17-5.47c-.48-6.25-7.21-10.72-17-10-10.24.78-16.61,6.68-16.1,13.36.38,6.36,7.2,10.61,16.89,9.87C186.77,147.44,193.51,142.05,193.08,134.93Zm3.17-33.72c-.34-5.82-6-10-14.91-9.37-8.51.65-14.38,6-14,12.44.34,5.93,6.3,10.14,14.7,9.5C191.19,113.08,196.72,107.35,196.25,101.21Z" style="fill:#ffcbf9;stroke:#ffcbf9;stroke-linecap:round;stroke-linejoin:round"/><path d="M229.74,148.38c-5.33-4.57-8.52-10.94-9.25-20.52-1.14-15,3.24-29.93,11.9-40a37.1,37.1,0,0,1,25.54-13.1,31.81,31.81,0,0,1,23.64,7.4l-7.26,10a22.63,22.63,0,0,0-16.55-5.34,21.32,21.32,0,0,0-15.53,8,35.85,35.85,0,0,0-8,18.6c3.22-4.58,10.24-9.13,18.53-9.76,13.36-1,23.91,6.63,24.89,19.56a27.08,27.08,0,0,1-6.83,19.8,30.83,30.83,0,0,1-21.49,10.84C241.58,154.42,234.5,152.46,229.74,148.38Zm30.95-11.78a14.9,14.9,0,0,0,3.62-10.89c-.51-6.68-5.87-11.58-14.38-10.93a18.94,18.94,0,0,0-12.65,6,14.61,14.61,0,0,0-3.54,10.45,11.49,11.49,0,0,0,4.1,8.25c2.78,2.38,6.43,3.41,10.74,3.08A17.68,17.68,0,0,0,260.69,136.6Z" style="fill:#ffcbf9;stroke:#ffcbf9;stroke-linecap:round;stroke-linejoin:round"/></g></g></g></svg>