<svg id="Layer_1" data-name="Layer 1" xmlns="http://www.w3.org/2000/svg" viewBox="0 0 120 126.51"><title>flag-spooky</title><g id="Layer_2" data-name="Layer 2"><g id="Layer_1-2" data-name="Layer 1-2"><path d="M55.32,111.69c8,0,14.22,5.93,18.06,11,.4-4.78,1.88-8.27,4.48-10.59A13.26,13.26,0,0,1,87,109c6.23,0,13.16,3,17.58,5.27q-5.82-8.66-2.55-14.67c2.57-4.69,8.76-7,14.18-8.19-8.75-3.45-13.75-7.81-14.87-13C100.15,73,103.48,68.07,107,64.36a54.37,54.37,0,0,1-11.83,1.71c-5.86,0-10.21-1.67-12.92-4.68a13.07,13.07,0,0,1-3-9.17C74.34,56.78,69.64,59,65,59c-6.48,0-11-4.53-13.82-9-.8,4.17-2.39,7.21-4.76,9.21a12.06,12.06,0,0,1-8,2.7c-6.31,0-13.57-3.67-19.33-7.41,3.56,7.58,3.72,13.67.46,18.17s-9.47,6.73-15.76,7.64c6.78,2.42,10.83,5.63,12.06,9.63,1.78,5.74-2.74,11.73-7.4,16.1,10.07-2.17,17.61-1,22.52,3.33,3.94,3.47,5.5,8.45,5.91,13.31C42.82,115.37,49,111.69,55.32,111.69Z" style="fill:#fff"/><path d="M55.32,111.69v3.78a13,13,0,0,1,4.4.78,16.64,16.64,0,0,1,3.06,1.49,23.84,23.84,0,0,1,4.16,3.33A33.68,33.68,0,0,1,70.36,125a3.77,3.77,0,0,0,6.78-2A16.63,16.63,0,0,1,78.28,118a9,9,0,0,1,.94-1.72A7.21,7.21,0,0,1,80.38,115h0a7.87,7.87,0,0,1,2.74-1.56,12.13,12.13,0,0,1,3.88-.58,20.88,20.88,0,0,1,4,.44,37.4,37.4,0,0,1,6.32,1.9q2.82,1.13,5.51,2.52a3.77,3.77,0,0,0,4.87-5.46,22,22,0,0,1-2.39-4.49,13.3,13.3,0,0,1-.53-1.84,8.36,8.36,0,0,1-.16-1.57,6.28,6.28,0,0,1,.18-1.5,6,6,0,0,1,.53-1.35h0a6.44,6.44,0,0,1,.73-1.06,9.73,9.73,0,0,1,1.9-1.72,18.93,18.93,0,0,1,4.15-2.13,35.52,35.52,0,0,1,4.89-1.4,3.78,3.78,0,0,0,.59-7.21,41.2,41.2,0,0,1-5.38-2.53,24,24,0,0,1-3-2,13.61,13.61,0,0,1-2.91-3,7.92,7.92,0,0,1-.81-1.41,6.84,6.84,0,0,1-.46-1.41h0a6.29,6.29,0,0,1-.16-1.44,7.76,7.76,0,0,1,.35-2.24A13.05,13.05,0,0,1,107,70.41a25.74,25.74,0,0,1,2.8-3.45,3.78,3.78,0,0,0-3.6-6.28c-2.17.51-4.19.92-6,1.19a32.73,32.73,0,0,1-4.94.43,18.39,18.39,0,0,1-6.34-1,10.5,10.5,0,0,1-2.17-1.09,7.79,7.79,0,0,1-1.61-1.37h0a6.24,6.24,0,0,1-.92-1.3,8.38,8.38,0,0,1-.84-2.32,12.79,12.79,0,0,1-.26-2.62v-.31a3.78,3.78,0,0,0-6.34-2.86,30.64,30.64,0,0,1-3.25,2.66A18.81,18.81,0,0,1,69,54.47a11.66,11.66,0,0,1-4,.71,9.26,9.26,0,0,1-3.21-.55,10.33,10.33,0,0,1-2.13-1.06,14.58,14.58,0,0,1-2.89-2.48,23.25,23.25,0,0,1-2.4-3.18,3.78,3.78,0,0,0-6.9,1.31,16,16,0,0,1-1.43,4.39,9.09,9.09,0,0,1-1,1.5A7.29,7.29,0,0,1,44,56.25h0a7,7,0,0,1-2.39,1.33,10.16,10.16,0,0,1-3.24.5h0a17.25,17.25,0,0,1-4-.53A34.09,34.09,0,0,1,27.72,55a63.84,63.84,0,0,1-6.58-3.76,3.77,3.77,0,0,0-5.47,4.77,29.65,29.65,0,0,1,1.86,5,16.43,16.43,0,0,1,.57,4.06A9.84,9.84,0,0,1,17.69,68a8.51,8.51,0,0,1-1.2,2.39h0a10.82,10.82,0,0,1-2.19,2.19,17.53,17.53,0,0,1-4.87,2.49,33.93,33.93,0,0,1-6.19,1.45,3.78,3.78,0,0,0-.73,7.3,31.57,31.57,0,0,1,4.1,1.75,15.27,15.27,0,0,1,4,2.79,7.77,7.77,0,0,1,1.07,1.34,5.65,5.65,0,0,1,.59,1.3h0a5.22,5.22,0,0,1,.22,1.52A7.55,7.55,0,0,1,12,94.92a12.92,12.92,0,0,1-.93,2,21.94,21.94,0,0,1-2.28,3.21,38.37,38.37,0,0,1-2.93,3,3.78,3.78,0,0,0,3.38,6.45,40.54,40.54,0,0,1,8.28-1,20.61,20.61,0,0,1,6.43.92,13.17,13.17,0,0,1,2.46,1.09,11.7,11.7,0,0,1,2.05,1.45h0a11.26,11.26,0,0,1,1.91,2.17,14.44,14.44,0,0,1,1.88,4,22.88,22.88,0,0,1,.87,4.64A3.78,3.78,0,0,0,39.8,125a39.59,39.59,0,0,1,4.13-4.36,22.54,22.54,0,0,1,5.9-4,14.25,14.25,0,0,1,2.79-.92,12.48,12.48,0,0,1,2.73-.3v-7.57a20.56,20.56,0,0,0-5.78.84,23.5,23.5,0,0,0-4.17,1.69,30.13,30.13,0,0,0-5.9,4A46.23,46.23,0,0,0,34,120.22l2.92,2.39,3.76-.32a28.09,28.09,0,0,0-1.9-8.28,21.53,21.53,0,0,0-2.13-4,19.35,19.35,0,0,0-3.15-3.55h0a19.44,19.44,0,0,0-3.34-2.37,21.74,21.74,0,0,0-5.88-2.25,30.24,30.24,0,0,0-6.71-.72,46.94,46.94,0,0,0-9.88,1.15l.8,3.69L11,108.72a43.87,43.87,0,0,0,3.15-3.25,28.75,28.75,0,0,0,4-5.84,18,18,0,0,0,1.31-3.4A13.81,13.81,0,0,0,20,92.5a12.79,12.79,0,0,0-.56-3.74h0a13.16,13.16,0,0,0-2-4,16.67,16.67,0,0,0-2.3-2.52,23,23,0,0,0-4.48-3.11A38,38,0,0,0,5,76.69L3.78,80.24,4.32,84A43.91,43.91,0,0,0,9.4,83a30.06,30.06,0,0,0,7.25-2.88,21.3,21.3,0,0,0,3.22-2.28,17.53,17.53,0,0,0,2.74-3h0a15.67,15.67,0,0,0,2.29-4.59,17.2,17.2,0,0,0,.76-5.14,23.7,23.7,0,0,0-.83-6,36.27,36.27,0,0,0-2.33-6.29l-3.42,1.61L17,57.6a64.79,64.79,0,0,0,10,5.43,38.6,38.6,0,0,0,5.56,1.86,25,25,0,0,0,5.77.74h0A17.39,17.39,0,0,0,44,64.76,14.71,14.71,0,0,0,48.89,62h0a15.4,15.4,0,0,0,2.17-2.25,17.89,17.89,0,0,0,2.41-4.17,25.18,25.18,0,0,0,1.45-5l-3.7-.72L48,52a31.11,31.11,0,0,0,2.79,3.77,23.78,23.78,0,0,0,2.68,2.63,19,19,0,0,0,5.11,3.13A17,17,0,0,0,65,62.75a19.22,19.22,0,0,0,4.34-.52,22.75,22.75,0,0,0,6.35-2.61A35.61,35.61,0,0,0,81.83,55l-2.57-2.78-3.77-.07v.47a19.57,19.57,0,0,0,.8,5.64,14.82,14.82,0,0,0,1.22,2.91,14.28,14.28,0,0,0,1.95,2.75h0a16,16,0,0,0,3.06,2.62,19.16,19.16,0,0,0,5.78,2.5,28,28,0,0,0,6.89.8,39.87,39.87,0,0,0,6.07-.5c2.11-.32,4.31-.77,6.62-1.31L107,64.37l-2.74-2.61a37.09,37.09,0,0,0-2.46,2.86,24.11,24.11,0,0,0-3.11,5.21,17.55,17.55,0,0,0-1,3,15.07,15.07,0,0,0-.38,3.34,14.81,14.81,0,0,0,.32,3h0a15.22,15.22,0,0,0,2.08,5,18.75,18.75,0,0,0,2.65,3.24,28.24,28.24,0,0,0,5.42,4.11,49.19,49.19,0,0,0,7,3.4l1.38-3.52-.79-3.69a44.79,44.79,0,0,0-4.55,1.2,32.71,32.71,0,0,0-3.44,1.35,22.63,22.63,0,0,0-4.87,3,17.09,17.09,0,0,0-2.12,2,14.82,14.82,0,0,0-1.74,2.49h0a13.21,13.21,0,0,0-1.63,6.47,15.51,15.51,0,0,0,.3,3,20.73,20.73,0,0,0,1.49,4.53,31.93,31.93,0,0,0,2.57,4.56l3.14-2.11,1.73-3.35a61.25,61.25,0,0,0-8.65-3.72,40,40,0,0,0-5.18-1.4,29,29,0,0,0-5.49-.58,19.44,19.44,0,0,0-6.33,1,15.38,15.38,0,0,0-5.32,3.09,15,15,0,0,0-2.31,2.6,17.75,17.75,0,0,0-2.35,4.81,26,26,0,0,0-1.09,5.66l3.77.32,3-2.27a44.61,44.61,0,0,0-3.63-4.26,30.59,30.59,0,0,0-7.44-5.71,22,22,0,0,0-4.7-1.87,19.82,19.82,0,0,0-5.31-.72Z" style="fill:#fff"/><path d="M55.32,111.69c8,0,14.22,5.93,18.06,11,.4-4.78,1.88-8.27,4.48-10.59A13.26,13.26,0,0,1,87,109c6.23,0,13.16,3,17.58,5.27q-5.82-8.66-2.55-14.67c2.57-4.69,8.76-7,14.18-8.19-8.75-3.45-13.75-7.81-14.87-13C100.15,73,103.48,68.07,107,64.36a54.37,54.37,0,0,1-11.83,1.71c-5.86,0-10.21-1.67-12.92-4.68a13.07,13.07,0,0,1-3-9.17C74.34,56.78,69.64,59,65,59c-6.48,0-11-4.53-13.82-9-.8,4.17-2.39,7.21-4.76,9.21a12.06,12.06,0,0,1-8,2.7c-6.31,0-13.57-3.67-19.33-7.41,3.56,7.58,3.72,13.67.46,18.17s-9.47,6.73-15.76,7.64c6.78,2.42,10.83,5.63,12.06,9.63,1.78,5.74-2.74,11.73-7.4,16.1,10.07-2.17,17.61-1,22.52,3.33,3.94,3.47,5.5,8.45,5.91,13.31C42.82,115.37,49,111.69,55.32,111.69Z" style="fill:#46ff83"/><path d="M54.25,54.86a20.84,20.84,0,0,0,4,4,14.4,14.4,0,0,0,8.71,3c4.17,0,8.28-1.67,12.53-5.08a12.7,12.7,0,0,0,3.06,7,13.81,13.81,0,0,0,5.57,3.67,22.46,22.46,0,0,0,7.79,1.24,42.33,42.33,0,0,0,8-.89c-3,4.07-4.12,8-3.3,11.77a14.14,14.14,0,0,0,4.8,7.57,30.8,30.8,0,0,0,6.83,4.34,26.76,26.76,0,0,0-4.51,1.82,14.52,14.52,0,0,0-6.33,5.73c-1.84,3.37-1.7,7.32.41,11.75-4.13-1.8-9.1-3.4-13.71-3.4a14,14,0,0,0-9.63,3.31,14.17,14.17,0,0,0-4.3,8c-3.86-4.42-9.44-8.79-16.48-8.79-5.78,0-11.42,3-16.83,8.79a18.36,18.36,0,0,0-5.72-10.75c-3.42-3-8-4.54-13.75-4.54a36.65,36.65,0,0,0-5,.35A26,26,0,0,0,19.62,99c1.77-3.27,2.22-6.37,1.34-9.21A12.06,12.06,0,0,0,16.74,84a22.94,22.94,0,0,0-4.19-2.61c5.44-1.37,9.39-3.72,11.78-7,2.85-3.94,3.25-9,1.17-15.07,6.08,3.5,11.41,5.26,15.9,5.26A12.82,12.82,0,0,0,50,61.65a14.2,14.2,0,0,0,4.3-6.79m-.56-3c-.77,4-2.29,6.92-4.57,8.84a11.57,11.57,0,0,1-7.72,2.6h0c-6.06,0-13-3.52-18.55-7.11,3.41,7.28,3.57,13.13.44,17.45s-9.1,6.45-15.14,7.33c6.51,2.32,10.4,5.41,11.59,9.24,1.7,5.52-2.64,11.27-7.11,15.46a41.2,41.2,0,0,1,8.71-1c5.43,0,9.74,1.42,12.91,4.22,3.78,3.34,5.28,8.11,5.68,12.78,5.71-7,11.65-10.5,17.72-10.5,7.71,0,13.64,5.69,17.33,10.61.39-4.58,1.81-7.94,4.31-10.17a12.7,12.7,0,0,1,8.76-3c6,0,12.64,2.87,16.89,5.07-3.72-5.54-4.54-10.25-2.45-14.08,2.47-4.51,8.41-6.75,13.61-7.87-8.4-3.31-13.2-7.49-14.28-12.48-1.13-5.19,2.07-10,5.45-13.54a51.53,51.53,0,0,1-11.36,1.65c-5.64,0-9.8-1.6-12.4-4.49A12.51,12.51,0,0,1,80.64,54C75.91,58.39,71.39,60.5,67,60.5c-6.23,0-10.53-4.35-13.27-8.66Z" style="fill:#424242"/><path d="M23.42,86.28l1.86-1.76a4.25,4.25,0,0,0,3.38,1.36c1-.06,1.77-.6,1.72-1.33,0-.57-.47-.89-2.08-1.43s-3-1.28-3.08-3a3.58,3.58,0,0,1,.89-2.6A5.13,5.13,0,0,1,29.66,76a5.76,5.76,0,0,1,4.51,1.49l-1.68,1.89a3.85,3.85,0,0,0-2.9-1.1c-1.08.06-1.67.71-1.64,1.3s.52.87,2.16,1.43,2.9,1.3,3,3a3.58,3.58,0,0,1-.9,2.63,5.1,5.1,0,0,1-3.54,1.55A6.17,6.17,0,0,1,23.42,86.28Z" style="fill:#424242"/><path d="M23.42,86.28l.06.06,1.85-1.76,0-.06-.06.06A4.35,4.35,0,0,0,28.38,86h.28A2.55,2.55,0,0,0,30,85.56a1.15,1.15,0,0,0,.52-.94v-.07h0a.94.94,0,0,0-.13-.43,1.46,1.46,0,0,0-.65-.53A9.56,9.56,0,0,0,28.32,83a6.25,6.25,0,0,1-2.06-1,2.54,2.54,0,0,1-1-1.89v-.22a3.42,3.42,0,0,1,.88-2.32,5,5,0,0,1,3.49-1.52l.48,0a5.47,5.47,0,0,1,4,1.49l.06-.06-.06,0-1.68,1.88.06,0,0-.06a4,4,0,0,0-2.7-1.12h-.25a2.13,2.13,0,0,0-1.26.45,1.15,1.15,0,0,0-.46.87v0h0A.84.84,0,0,0,28,80a1.49,1.49,0,0,0,.67.52c.46.2.92.38,1.4.54a6.05,6.05,0,0,1,2.06,1.06A2.55,2.55,0,0,1,33,84v.23a3.44,3.44,0,0,1-.89,2.34,5,5,0,0,1-3.48,1.52l-.56,0a5.88,5.88,0,0,1-4.62-1.86l-.06.05.06.06-.06-.06-.06,0a6,6,0,0,0,4.74,1.92,5.52,5.52,0,0,0,.57,0,5.14,5.14,0,0,0,3.59-1.58,3.59,3.59,0,0,0,.94-2.43V84a2.71,2.71,0,0,0-.94-2,6.23,6.23,0,0,0-2.12-1.09,9.19,9.19,0,0,1-1.66-.68,1,1,0,0,1-.33-.3.83.83,0,0,1-.11-.37h0v0a1,1,0,0,1,.4-.76,2.07,2.07,0,0,1,1.17-.41h.24a3.91,3.91,0,0,1,2.61,1.09l.06,0,1.78-2-.06-.06a5.65,5.65,0,0,0-4.07-1.51h-.49a5.18,5.18,0,0,0-3.61,1.58,3.62,3.62,0,0,0-.92,2.43v.23a2.72,2.72,0,0,0,1,2,6.45,6.45,0,0,0,2.11,1.06,7.28,7.28,0,0,1,1.62.7,1.14,1.14,0,0,1,.31.31.64.64,0,0,1,.1.35h0v.06a1,1,0,0,1-.45.81,2.24,2.24,0,0,1-1.2.38h-.27a4.17,4.17,0,0,1-3-1.34l-.06-.06-1.95,1.87.05.06Z" style="fill:#424242"/><path d="M37.06,75.7l3.73-.22a4.87,4.87,0,0,1,3.77,1,3.25,3.25,0,0,1,1,2.36,4.12,4.12,0,0,1-1,3.06,6.33,6.33,0,0,1-4.43,1.86l-2.23.13-.75,3.62-2.59.15Zm3.77,2.12-1.68.1-.74,3.65,1.76-.11a3.19,3.19,0,0,0,2.29-.9,1.79,1.79,0,0,0,.47-1.36,1.36,1.36,0,0,0-.45-1,2.14,2.14,0,0,0-1.65-.43Z" style="fill:#424242"/><path d="M37.06,75.7v.08l3.73-.22.63,0a4.33,4.33,0,0,1,3.08,1,3.17,3.17,0,0,1,1,2.31v.28a4,4,0,0,1-1,2.72,6.25,6.25,0,0,1-4.37,1.83l-2.29.13-.74,3.62-2.42.14,2.45-11.84h-.08v0l-.08,0-2.49,12,2.75-.16L38,84l2.17-.13a6.42,6.42,0,0,0,4.48-1.88,4.16,4.16,0,0,0,1-2.83v-.29a3.31,3.31,0,0,0-1.08-2.42,4.52,4.52,0,0,0-3.19-1c-.21,0-.42,0-.64,0L37,75.62v0Zm3.77,2.12v-.08l-1.74.1-.78,3.81,1.87-.11a3.26,3.26,0,0,0,2.34-.93A1.9,1.9,0,0,0,43,79.33v-.14a1.44,1.44,0,0,0-.48-1,2,2,0,0,0-1.42-.46h-.28v.16h.27a1.84,1.84,0,0,1,1.32.42,1.26,1.26,0,0,1,.41.89v.13a1.68,1.68,0,0,1-.43,1.17,3.13,3.13,0,0,1-2.23.89l-1.66.09L39.22,78l1.62-.09Z" style="fill:#424242"/><path d="M59.06,79.44a7,7,0,0,1-6.67,7.36,5.09,5.09,0,0,1-5.68-4.89,7,7,0,0,1,6.68-7.36A5.09,5.09,0,0,1,59.06,79.44Zm-3.85,3.65a4.87,4.87,0,0,0,1.17-3.33,2.8,2.8,0,0,0-3.17-2.82,3.85,3.85,0,0,0-2.65,1.33,4.83,4.83,0,0,0-1.17,3.32,2.8,2.8,0,0,0,3.17,2.82A3.9,3.9,0,0,0,55.21,83.09Z" style="fill:#424242"/><path d="M59.06,79.44H59c0,.12,0,.25,0,.37a7,7,0,0,1-1.77,4.61,6.93,6.93,0,0,1-4.84,2.31H52a5.17,5.17,0,0,1-3.66-1.37,5.11,5.11,0,0,1-1.54-3.47c0-.12,0-.25,0-.37a6.93,6.93,0,0,1,1.77-4.59,6.85,6.85,0,0,1,4.84-2.31l.39,0A5.26,5.26,0,0,1,57.44,76,5.12,5.12,0,0,1,59,79.44h.16a5.24,5.24,0,0,0-1.59-3.57,5.41,5.41,0,0,0-3.77-1.41h-.41a7.08,7.08,0,0,0-4.94,2.37,7.17,7.17,0,0,0-1.81,4.7c0,.13,0,.26,0,.38a5.13,5.13,0,0,0,5.36,5h.41a7.06,7.06,0,0,0,4.94-2.36,7.17,7.17,0,0,0,1.81-4.71c0-.12,0-.25,0-.38Zm-3.85,3.65.06,0A4.87,4.87,0,0,0,56.46,80v-.23a3.12,3.12,0,0,0-.84-2.09,3,3,0,0,0-2.15-.81h-.25a3.92,3.92,0,0,0-2.71,1.34,4.88,4.88,0,0,0-1.2,3.15v.23a3.13,3.13,0,0,0,.85,2.09,2.93,2.93,0,0,0,2.14.81h.26a4,4,0,0,0,2.71-1.34l-.06-.06-.06,0a3.76,3.76,0,0,1-2.61,1.29H52.3a2.79,2.79,0,0,1-2-.76,3,3,0,0,1-.8-2v-.21a4.77,4.77,0,0,1,1.16-3A3.75,3.75,0,0,1,53.22,77h.25a2.77,2.77,0,0,1,2,.76,3,3,0,0,1,.8,2V80a4.7,4.7,0,0,1-1.15,3Z" style="fill:#424242"/><path d="M73,78.63A7,7,0,0,1,66.36,86a5.08,5.08,0,0,1-5.67-4.89,7,7,0,0,1,6.66-7.37A5.09,5.09,0,0,1,73,78.63Zm-3.85,3.64A4.75,4.75,0,0,0,70.35,79a2.78,2.78,0,0,0-3.16-2.82,3.82,3.82,0,0,0-2.65,1.32,4.79,4.79,0,0,0-1.18,3.32,2.8,2.8,0,0,0,3.17,2.82A3.84,3.84,0,0,0,69.18,82.27Z" style="fill:#424242"/><path d="M73,78.63H73c0,.12,0,.25,0,.37a7,7,0,0,1-1.78,4.6,6.89,6.89,0,0,1-4.83,2.31H66a5.17,5.17,0,0,1-3.66-1.37,5.08,5.08,0,0,1-1.54-3.46c0-.12,0-.24,0-.37a7,7,0,0,1,6.6-6.91h.39a5.26,5.26,0,0,1,3.66,1.37,5.08,5.08,0,0,1,1.54,3.46h.16a5.24,5.24,0,0,0-1.59-3.57,5.41,5.41,0,0,0-3.77-1.41h-.4A7,7,0,0,0,62.4,76a7.12,7.12,0,0,0-1.81,4.71v.38a5.35,5.35,0,0,0,1.59,3.57A5.41,5.41,0,0,0,66,86.08h.4A7.13,7.13,0,0,0,73.12,79c0-.12,0-.25,0-.38Zm-3.85,3.64.06.06a4.94,4.94,0,0,0,1.2-3.15V79a3.18,3.18,0,0,0-.85-2.09,2.9,2.9,0,0,0-2.14-.81h-.26a3.9,3.9,0,0,0-2.71,1.34,4.94,4.94,0,0,0-1.2,3.15v.23a3.18,3.18,0,0,0,.85,2.09,3,3,0,0,0,2.15.81h.25a3.9,3.9,0,0,0,2.71-1.34l-.06-.06-.06,0a3.75,3.75,0,0,1-2.6,1.29h-.25a2.79,2.79,0,0,1-2-.76,3,3,0,0,1-.8-2v-.21a4.66,4.66,0,0,1,1.16-3,3.69,3.69,0,0,1,2.6-1.3h.25a2.71,2.71,0,0,1,2,.76,3,3,0,0,1,.81,2v.22a4.79,4.79,0,0,1-1.16,3Z" style="fill:#424242"/><polygon points="76.5 73.4 79.09 73.25 78 78.54 83.5 73 87 72.79 81.56 78.05 84.72 84.72 81.89 84.89 79.6 79.71 77.28 81.94 76.61 85.19 74.03 85.34 76.5 73.4" style="fill:#424242"/><polygon points="76.5 73.4 76.5 73.48 78.99 73.34 77.86 78.79 83.54 73.07 86.79 72.88 81.46 78.03 84.6 84.65 81.94 84.8 79.62 79.57 77.21 81.89 76.55 85.12 74.13 85.26 76.58 73.42 76.5 73.4 76.5 73.48 76.5 73.4 76.42 73.39 73.93 85.43 76.68 85.27 77.36 81.98 79.57 79.85 81.84 84.97 84.85 84.8 81.65 78.06 87.21 72.7 83.47 72.92 78.13 78.29 79.19 73.17 76.43 73.33 76.42 73.39 76.5 73.4" style="fill:#424242"/><polygon points="89.51 79.79 86.66 72.81 89.53 72.64 91.19 77.44 94.94 72.33 98.07 72.15 92.06 79.88 91.13 84.35 88.54 84.5 89.51 79.79" style="fill:#424242"/><polygon points="89.51 79.79 89.59 79.76 86.78 72.89 89.48 72.73 91.17 77.61 94.98 72.41 97.89 72.24 91.99 79.84 91.06 84.27 88.64 84.41 89.59 79.78 89.59 79.76 89.51 79.79 89.43 79.78 88.44 84.58 91.19 84.43 92.14 79.91 98.24 72.06 94.9 72.25 91.22 77.27 89.59 72.56 86.54 72.74 89.44 79.82 89.51 79.79 89.43 79.78 89.51 79.79" style="fill:#424242"/><polygon points="26.42 91.77 32.96 91.39 32.59 93.13 27.97 93.4 27.6 95.22 31.66 94.98 31.3 96.69 27.23 96.93 26.84 98.81 31.54 98.54 31.18 100.27 24.58 100.66 26.42 91.77" style="fill:#424242"/><polygon points="26.42 91.77 26.42 91.85 32.86 91.48 32.53 93.06 27.9 93.32 27.5 95.3 31.56 95.07 31.23 96.62 27.17 96.85 26.74 98.9 31.44 98.62 31.11 100.2 24.68 100.57 26.5 91.79 26.42 91.77 26.42 91.85 26.42 91.77 26.34 91.76 24.48 100.75 31.24 100.35 31.64 98.45 26.94 98.72 27.3 97.01 31.36 96.77 31.76 94.89 27.7 95.13 28.04 93.48 32.66 93.21 33.06 91.31 26.35 91.7 26.34 91.76 26.42 91.77" style="fill:#424242"/><polygon points="36.06 95.44 33.94 91.33 36.1 91.21 37.37 93.96 39.66 91 42.12 90.86 38.26 95.52 40.45 99.74 38.29 99.86 36.95 96.99 34.56 100.08 32.1 100.22 36.06 95.44" style="fill:#424242"/><polygon points="36.06 95.44 36.13 95.4 34.07 91.41 36.05 91.29 37.35 94.11 39.7 91.08 41.94 90.95 38.17 95.51 40.32 99.66 38.34 99.78 36.96 96.84 34.52 100 32.28 100.13 36.16 95.45 36.13 95.4 36.06 95.44 36 95.39 31.92 100.31 34.61 100.16 36.93 97.14 38.24 99.94 40.58 99.81 38.36 95.53 42.3 90.77 39.61 90.92 37.39 93.8 36.16 91.13 33.82 91.26 35.99 95.47 36.06 95.44 36 95.39 36.06 95.44" style="fill:#424242"/><path d="M41.68,96A5.23,5.23,0,0,1,43,92.23a5.37,5.37,0,0,1,3.69-1.8,3.84,3.84,0,0,1,3.61,1.66L48.79,93.3a2.45,2.45,0,0,0-2.22-1.09,2.91,2.91,0,0,0-2,1,3.52,3.52,0,0,0-.9,2.55,2,2,0,0,0,2.26,2,3.06,3.06,0,0,0,2-1L49.27,98A4.63,4.63,0,0,1,46,99.54C43.64,99.7,41.81,98.33,41.68,96Z" style="fill:#424242"/><path d="M41.68,96h.08v-.28a5.16,5.16,0,0,1,1.32-3.41,5.25,5.25,0,0,1,3.63-1.77H47a3.68,3.68,0,0,1,3.22,1.63l.06,0-.05-.07-1.51,1.21,0,.06.06,0a3.39,3.39,0,0,0-.9-.83,2.44,2.44,0,0,0-1.21-.3h-.19a3,3,0,0,0-2.06,1,3.69,3.69,0,0,0-.92,2.4v.21a2.1,2.1,0,0,0,2.12,2.08h.24a2.61,2.61,0,0,0,1.12-.31,4.77,4.77,0,0,0,.93-.69l-.06-.06,0,.06L49.2,98.1l.06-.06L49.2,98A4.57,4.57,0,0,1,46,99.49h-.33A4.1,4.1,0,0,1,43,98.55,3.58,3.58,0,0,1,41.76,96H41.6a3.71,3.71,0,0,0,1.25,2.68,4.27,4.27,0,0,0,2.84,1H46a4.76,4.76,0,0,0,3.29-1.55l0-.06L47.93,96.7l0,0a4.58,4.58,0,0,1-.9.67,2.53,2.53,0,0,1-1,.29h-.15a2,2,0,0,1-2-1.85v-.27a3.46,3.46,0,0,1,.87-2.29,2.81,2.81,0,0,1,2-1h.19a2.26,2.26,0,0,1,1.13.28,3.08,3.08,0,0,1,.84.77l.05.06,1.64-1.3,0-.06A3.83,3.83,0,0,0,47,90.36H46.7A5.39,5.39,0,0,0,43,92.18a5.32,5.32,0,0,0-1.37,3.52V96Z" style="fill:#424242"/><polygon points="52.12 90.28 54.04 90.17 52.58 97.28 56.94 97.02 56.56 98.8 50.28 99.16 52.12 90.28" style="fill:#424242"/><polygon points="52.12 90.28 52.12 90.36 53.94 90.25 52.48 97.36 56.84 97.11 56.5 98.72 50.38 99.08 52.2 90.29 52.12 90.28 52.12 90.36 52.12 90.28 52.04 90.26 50.18 99.25 56.63 98.88 57.04 96.94 52.68 97.19 54.14 90.08 52.05 90.2 52.04 90.26 52.12 90.28" style="fill:#424242"/><path d="M58.17,95.88a5.16,5.16,0,0,1,.14-1.41l.95-4.61,1.92-.11-1,4.79a3.36,3.36,0,0,0-.08.95,1.38,1.38,0,0,0,1.61,1.37,2,2,0,0,0,1.39-.64,3.49,3.49,0,0,0,.76-1.67l1-5,1.93-.11-1.1,5.29a5.6,5.6,0,0,1-1.19,2.68,4,4,0,0,1-2.92,1.25C59.6,98.76,58.28,97.74,58.17,95.88Z" style="fill:#424242"/><path d="M58.17,95.88h.08v-.23a5.66,5.66,0,0,1,.14-1.16h0l.94-4.56,1.76-.1-1,4.69.08,0-.08,0a3.29,3.29,0,0,0-.09.76v.22a1.58,1.58,0,0,0,.44,1,1.55,1.55,0,0,0,1.11.39h.14a2.06,2.06,0,0,0,1.45-.65h0a3.6,3.6,0,0,0,.77-1.71l1-5,1.76-.1-1.08,5.19h0a5.44,5.44,0,0,1-1.18,2.64,3.9,3.9,0,0,1-2.86,1.23h-.3a3.2,3.2,0,0,1-2.17-.71,2.74,2.74,0,0,1-.89-2h-.16A2.93,2.93,0,0,0,59,98a3.43,3.43,0,0,0,2.28.74h.31a4.11,4.11,0,0,0,3-1.28,5.72,5.72,0,0,0,1.22-2.71l1.12-5.4-2.09.12-1,5.08h0A3.52,3.52,0,0,1,63,96.17l.06.06L63,96.17a1.87,1.87,0,0,1-1.34.61h-.13a1.4,1.4,0,0,1-1-.35,1.33,1.33,0,0,1-.39-.94v-.2a3.55,3.55,0,0,1,.08-.73h0l1-4.89-2.09.12-1,4.67h.08l-.08,0a6.14,6.14,0,0,0-.14,1.2v.24Z" style="fill:#424242"/><path d="M66.66,96.72,68,95.42a3.16,3.16,0,0,0,2.52,1c.77,0,1.32-.43,1.28-1s-.35-.65-1.55-1.06-2.21-1-2.29-2.24a2.59,2.59,0,0,1,.67-1.93A3.86,3.86,0,0,1,71.31,89a4.29,4.29,0,0,1,3.35,1.11l-1.25,1.4a2.86,2.86,0,0,0-2.15-.81c-.82.05-1.25.52-1.23,1s.39.65,1.61,1.06,2.17,1,2.24,2.24a2.63,2.63,0,0,1-.68,2,3.74,3.74,0,0,1-2.63,1.16A4.6,4.6,0,0,1,66.66,96.72Z" style="fill:#424242"/><path d="M66.66,96.72l.06.06,1.38-1.31-.06,0-.05,0a3.27,3.27,0,0,0,2.36,1h.22a1.89,1.89,0,0,0,1-.31.85.85,0,0,0,.39-.71v0a.74.74,0,0,0-.09-.33,1.18,1.18,0,0,0-.49-.4,7.62,7.62,0,0,0-1-.41,4.64,4.64,0,0,1-1.52-.77,1.89,1.89,0,0,1-.7-1.4V92a2.57,2.57,0,0,1,.65-1.71,3.76,3.76,0,0,1,2.59-1.13h.35a4.07,4.07,0,0,1,2.94,1.1l.05-.06-.06,0-1.27,1.38.06.06,0-.06a3,3,0,0,0-2-.84h-.19a1.56,1.56,0,0,0-1,.33.89.89,0,0,0-.35.67v0a.68.68,0,0,0,.11.34,1.1,1.1,0,0,0,.51.39,9.31,9.31,0,0,0,1,.4h0a4.42,4.42,0,0,1,1.52.79A1.89,1.89,0,0,1,73.78,95v.17a2.55,2.55,0,0,1-.66,1.74A3.74,3.74,0,0,1,70.54,98h-.42a4.33,4.33,0,0,1-3.42-1.38l-.06.06.06,0-.06,0-.06,0a4.49,4.49,0,0,0,3.54,1.43h.44A3.87,3.87,0,0,0,73.24,97a2.64,2.64,0,0,0,.7-1.83V95a2,2,0,0,0-.71-1.5,4.48,4.48,0,0,0-1.58-.81h0a7.26,7.26,0,0,1-1.23-.51.83.83,0,0,1-.24-.22.57.57,0,0,1-.08-.26v0a.72.72,0,0,1,.29-.54,1.43,1.43,0,0,1,.87-.3h.18a2.87,2.87,0,0,1,1.92.8l.06,0,1.35-1.52-.06-.05a4.27,4.27,0,0,0-3-1.15h-.36a3.92,3.92,0,0,0-2.7,1.19A2.72,2.72,0,0,0,67.92,92v.17a2,2,0,0,0,.76,1.52,5,5,0,0,0,1.58.8,5.28,5.28,0,0,1,1.2.51.8.8,0,0,1,.23.22.52.52,0,0,1,.07.25v0a.71.71,0,0,1-.33.59,1.7,1.7,0,0,1-.88.28h-.2a3.08,3.08,0,0,1-2.26-1l0,0-1.49,1.42,0,.06Z" style="fill:#424242"/><polygon points="76.91 88.84 78.83 88.72 76.99 97.61 75.06 97.72 76.91 88.84" style="fill:#424242"/><polygon points="76.91 88.84 76.91 88.92 78.73 88.81 76.92 97.53 75.16 97.64 76.98 88.85 76.91 88.84 76.91 88.92 76.91 88.84 76.82 88.82 74.96 97.81 77.05 97.69 78.93 88.64 76.84 88.76 76.82 88.82 76.91 88.84" style="fill:#424242"/><polygon points="80.08 88.65 82.14 88.53 83.1 94.59 86.62 88.27 88.78 88.15 83.43 97.3 81.73 97.4 80.08 88.65" style="fill:#424242"/><polygon points="80.08 88.65 80.08 88.73 82.07 88.62 83.05 94.84 86.67 88.35 88.63 88.23 83.38 97.22 81.79 97.31 80.16 88.64 80.08 88.65 80.08 88.73 80.08 88.65 80 88.67 81.66 97.48 83.47 97.38 88.92 88.06 86.57 88.19 83.14 94.36 82.21 88.45 79.98 88.58 80 88.67 80.08 88.65" style="fill:#424242"/><polygon points="90.07 88.07 96.6 87.69 96.24 89.43 91.61 89.7 91.24 91.51 95.31 91.28 94.94 92.99 90.88 93.23 90.49 95.11 95.19 94.83 94.83 96.57 88.23 96.96 90.07 88.07" style="fill:#424242"/><polygon points="90.07 88.07 90.07 88.15 96.5 87.78 96.17 89.35 91.55 89.62 91.14 91.6 95.21 91.36 94.88 92.92 90.81 93.15 90.39 95.19 95.09 94.92 94.76 96.5 88.33 96.87 90.14 88.09 90.07 88.07 90.07 88.15 90.07 88.07 89.99 88.06 88.12 97.04 94.89 96.65 95.29 94.75 90.59 95.02 90.94 93.3 95.01 93.07 95.41 91.19 91.34 91.43 91.68 89.78 96.31 89.51 96.7 87.6 90 87.99 89.99 88.06 90.07 88.07" style="fill:#424242"/><path d="M96.65,29.07l0-.07a6.42,6.42,0,0,0-2.19,2.85h0s0,0,0,0l.08,0-.08,0v0h0a1.46,1.46,0,0,0-.07.19l.07,0,0-.06a15.15,15.15,0,0,1-6.06-9.79V22.2l-.09,0A20.69,20.69,0,0,0,75.17,34.33h0v0l-.12.32.25-.24a4.73,4.73,0,0,1,6.68.22,4.66,4.66,0,0,1,1.27,3v.08h.4a4.72,4.72,0,0,1,4.72,4.71v.27l0,0,0,0a5.15,5.15,0,0,1,3.13,6,6.18,6.18,0,0,1-.23.73l.15.06a5.18,5.18,0,0,1,4.82-3.25h.1a4.93,4.93,0,0,1,1.82.37h0l0,0,0,0,0,0a4.72,4.72,0,0,1,7-.1l.06.06.06-.06a4.72,4.72,0,0,1,7.94,3.19l0,.34.14-.34h0a20.67,20.67,0,0,0-1.18-17.81l0-.08-.07.06a15.07,15.07,0,0,1-11.14,2.92v.08l.07,0,.09-.19h0v0h0v0l-.07,0,.07,0a7.06,7.06,0,0,0,.49-2.48,5.68,5.68,0,0,0-.11-1.09l0-.1-1.2.56,0,.08.06-.06A4.28,4.28,0,0,0,99,30.44a4.34,4.34,0,0,0-1.63-.32h-.3v.08l.08,0-.48-1.24-.09.06,0,.07-.08,0,.47,1.19h.34a4.35,4.35,0,0,1,3.13,1.37l0,.05,1.16-.55,0-.07-.08,0a5.27,5.27,0,0,1,.11,1,7,7,0,0,1-.47,2.43h0l0,0,.08,0-.08,0v0h0a1.42,1.42,0,0,1-.08.18l0,.1.1,0a15.25,15.25,0,0,0,11.26-3l0-.06-.07,0a20.53,20.53,0,0,1,1.17,17.67l.07,0-.07,0v0l.07,0h.08a4.87,4.87,0,0,0-3.07-4.26,4.62,4.62,0,0,0-1.8-.35,5,5,0,0,0-3.35,1.31l.06.06.06,0a4.87,4.87,0,0,0-6.9-.28,4.44,4.44,0,0,0-.37.38l.06,0,0-.08-.06,0h0a5.3,5.3,0,0,0-1.88-.38h-.11a5.35,5.35,0,0,0-5,3.34l.08,0,.07,0c.09-.25.17-.5.24-.76a5.38,5.38,0,0,0-3.24-6.17h0l0,.07h.08V42.4a4.87,4.87,0,0,0-4.86-4.89h-.35v.08h.08a4.89,4.89,0,0,0-3.07-4.25,4.81,4.81,0,0,0-1.8-.35,4.89,4.89,0,0,0-3.35,1.32l0,.06.08,0v0l-.08,0,.08,0a20.5,20.5,0,0,1,13-12l0-.08-.08,0a15.24,15.24,0,0,0,6.12,9.89l.09.06,0-.1c0-.07.05-.13.07-.19l-.07,0,.07,0h0l0,0h0a6.28,6.28,0,0,1,2.13-2.78l-.05-.06-.07,0Z" style="fill:#424242"/><path d="M96.65,29.07a6.3,6.3,0,0,0-2.15,2.81s0,0,0,0v0a1.46,1.46,0,0,0-.07.19,15.12,15.12,0,0,1-6.1-9.83A20.55,20.55,0,0,0,75.25,34.35v0a4.8,4.8,0,0,1,8.08,3.22,4.79,4.79,0,0,1,5.11,4.46,3.25,3.25,0,0,1,0,.54h0a5.28,5.28,0,0,1,3.18,6.08,6.34,6.34,0,0,1-.23.74,5.27,5.27,0,0,1,6.84-2.92l0,0a4.8,4.8,0,0,1,6.77-.43l.36.35a4.81,4.81,0,0,1,8.08,3.24v0a20.57,20.57,0,0,0-1.17-17.75,15.16,15.16,0,0,1-11.19,2.94c0-.06,0-.12.08-.19V34.6a6.27,6.27,0,0,0,.37-3.53l-1.1.52a4.35,4.35,0,0,0-3.47-1.38Z" style="fill:#424242"/><path d="M65.66,5.51a5.26,5.26,0,0,1,1.76,2.3.1.1,0,0,0,0,0h0l.06.16a12.35,12.35,0,0,0,5-8A16.81,16.81,0,0,1,83.09,9.82h0a3.91,3.91,0,0,0-5.52.18,3.87,3.87,0,0,0-1,2.45,3.9,3.9,0,0,0-4.16,3.63c0,.14,0,.29,0,.43l0,0a4.29,4.29,0,0,0-2.6,4.95,6.17,6.17,0,0,0,.19.61,4.28,4.28,0,0,0-5.56-2.39h0l0,0a3.89,3.89,0,0,0-4.39-1.05,3.81,3.81,0,0,0-1.43,1,3.91,3.91,0,0,0-6.58,2.64v0a16.82,16.82,0,0,1,1-14.45A12.36,12.36,0,0,0,62,10.22c0-.05-.05-.1-.07-.16V10a5.12,5.12,0,0,1-.3-2.87l.9.44a3.51,3.51,0,0,1,2.83-1.13Z" style="fill:#ed40a9"/></g></g></svg>