<svg xmlns="http://www.w3.org/2000/svg" viewBox="0 0 391.37 353.4"><title>Asset 1</title><g style="isolation:isolate"><g id="Layer_2" data-name="Layer 2"><g id="Layer_1-2" data-name="Layer 1"><g style="opacity:0.12;mix-blend-mode:multiply"><path d="M11.41,115.9,56.9,41.51A36.8,36.8,0,0,1,85.15,24L293.89,6.13A36.79,36.79,0,0,1,324.7,18.54l57.54,65.6a36.8,36.8,0,0,1,3.07,44.5L248.24,336.83A36.8,36.8,0,0,1,191,342.11L16.29,160.62A36.79,36.79,0,0,1,11.41,115.9Z" style="fill:#68374f"/></g><path d="M5.41,109.9,50.9,35.51A36.8,36.8,0,0,1,79.15,18L287.89.13A36.79,36.79,0,0,1,318.7,12.54l57.54,65.6a36.8,36.8,0,0,1,3.07,44.5L242.24,330.83A36.8,36.8,0,0,1,185,336.11L10.29,154.62A36.79,36.79,0,0,1,5.41,109.9Z" style="fill:#fff"/><polygon points="74.1 48.82 293.24 26.7 358.46 98.86 214.82 324.33 24.61 132.56 74.1 48.82" style="fill:#97caeb"/><path d="M215.36,326.88l-192.58-196L74.25,44.72l1.26-.12,220.2-21.16,66.91,74.73ZM29.06,130.1,214.55,318.91,356.35,98.67l-62.68-70L77.24,49.45Z" style="fill:#65b2e8"/><path d="M135.2,73.37a1.15,1.15,0,0,1-.26,0,1,1,0,0,1-.75-1.2l6.93-30a1,1,0,0,1,1.94.45l-6.92,30A1,1,0,0,1,135.2,73.37Z" style="fill:#65b2e8"/><path d="M246.67,61.53a1,1,0,0,1-.92-.55L231.51,33.12a1,1,0,0,1,.44-1.35,1,1,0,0,1,1.34.44l14.24,27.86a1,1,0,0,1-.44,1.35A1,1,0,0,1,246.67,61.53Z" style="fill:#65b2e8"/><path d="M308.57,103.66a1,1,0,0,1-.12-2l48.4-4.42a1,1,0,1,1,.18,2l-48.4,4.42Z" style="fill:#65b2e8"/><path d="M25.68,131.63a1,1,0,0,1-.13-2l45.91-4.33a1,1,0,1,1,.18,2l-45.9,4.33Z" style="fill:#65b2e8"/><path d="M215,323.16a1,1,0,0,1-.92-.6l-22.61-50.63-18.32-41.56a1,1,0,0,1,1.83-.81l18.32,41.56,21.5,48.15,14.91-50.67L242,224.07a1,1,0,0,1,1.93.53l-12.27,44.55L216,322.44a1,1,0,0,1-.89.71Z" style="fill:#65b2e8"/><path d="M133,181.3l7-.54,5.52,28.2L162,179.09l7.39-.57-22.51,39.42-5.8.45Z" style="fill:#fff"/><path d="M165.19,209.17a9.44,9.44,0,0,1,2.15-7c2.06-2.35,5.37-3.83,9.36-4.13a30.25,30.25,0,0,1,8.83.71l.12-.49a9.9,9.9,0,0,0,.14-2.36c-.2-2.61-2.13-4.12-6.54-3.78a20.47,20.47,0,0,0-7.54,2.12l-1.46-5.13a27.32,27.32,0,0,1,9.85-2.62c7.34-.56,11.46,2.34,11.88,7.81a18.06,18.06,0,0,1-.27,4.14l-3,16-6.22.47.67-3.79a12.18,12.18,0,0,1-8.92,5C169.44,216.55,165.54,213.79,165.19,209.17Zm19.4-5.17.27-1.31a23.3,23.3,0,0,0-6.89-.54,7.73,7.73,0,0,0-5.28,2.27,4.75,4.75,0,0,0-1.12,3.51c.17,2.24,2,3.64,4.86,3.43A9.41,9.41,0,0,0,184.59,204Z" style="fill:#fff"/><path d="M204.2,174.27l6.43-.5-7.46,39.62-6.44.49Z" style="fill:#fff"/><path d="M213.26,204.76a21.7,21.7,0,0,1,.48-5l2.92-15.63,6.44-.49-3,15.9a13.23,13.23,0,0,0-.16,2.85c.21,2.81,2.14,4.27,5.17,4,3.62-.27,6.38-3.37,7.18-7.61l3.05-16.11,6.43-.49-5.36,28.64-6.43.5.68-3.69c-2.06,2.4-4.62,4.57-8.19,4.85C217.25,212.9,213.66,209.91,213.26,204.76Z" style="fill:#fff"/><path d="M251.73,197.81c.32,4.26,3,7,7.83,6.63a11.25,11.25,0,0,0,7-3.26l3.4,3.86a16.39,16.39,0,0,1-10.61,4.71c-7.81.6-13.12-3.76-13.7-11.31a17.67,17.67,0,0,1,4.23-12.63,16,16,0,0,1,11-5.65c7.24-.55,11.59,3.93,12.06,10.05a15.79,15.79,0,0,1-.77,6Zm.36-4.3,14.57-1.11a6.32,6.32,0,0,0,.12-2c-.22-2.93-2.11-5.24-6-4.95a9.15,9.15,0,0,0-6.28,3.26A11.94,11.94,0,0,0,252.09,193.51Z" style="fill:#fff"/><path d="M131.65,86.15l-1,4.76a21.77,21.77,0,0,1,11,5.18L136.6,102a19.48,19.48,0,0,0-7.72-3.9l-2.65,12.72c7.11,2,11.48,4.81,12,11.33.64,8.38-6.77,14.76-17.14,15.56l-.4,0-1.44,6.66-5.78.44L115,137.6a21.8,21.8,0,0,1-14.24-6.87l5.6-5.51a18.35,18.35,0,0,0,10.44,5.22l2.8-13.26c-7.11-2-11.72-4.52-12.23-11.24-.61-8,6.52-14.55,16.36-15.3.4,0,.87,0,1.27,0l.9-4ZM121.3,109.29l2.4-11.56c-5.65.43-8.3,3.45-8,6.71C115.82,106.76,117.25,107.93,121.3,109.29Zm3.19,9.32L122,130.51c5.17-.59,8.11-3.29,7.83-6.95C129.64,121.3,128.2,119.94,124.49,118.61Z" style="fill:#ed3fa8;stroke:#ed3fa8;stroke-linecap:round;stroke-linejoin:round;stroke-width:3px"/><path d="M184.45,141.73l-36.61,2.79-2.16-9.8,49.89-53.2,12.82-1-9.26,49.13,10.78-.82L207.83,140l-10.77.82L193.82,158l-12.6,1Zm2.08-11.1L192.32,100l-29.8,32.5Z" style="fill:#ed3fa8;stroke:#ed3fa8;stroke-linecap:round;stroke-linejoin:round;stroke-width:3px"/><path d="M218.27,136.23c-.89-11.64,7.54-19,18.88-22.35A16.5,16.5,0,0,1,226.1,99.66c-.79-10.34,8.64-21.67,26.3-23,15.41-1.17,26.81,6.3,27.69,17.93.75,9.81-5.72,17.34-15.88,20.39,6.87,2.08,12.68,7.27,13.31,15.45.89,11.74-10.38,23.11-29.12,24.54C232.57,156.15,219.21,148.5,218.27,136.23Zm46.17-5.47c-.48-6.25-7.21-10.72-17-10-10.24.78-16.61,6.68-16.1,13.36.37,6.36,7.2,10.61,16.89,9.87C258.13,143.26,264.87,137.88,264.44,130.76ZM267.61,97c-.34-5.82-6-10.05-14.91-9.37-8.51.65-14.38,6-14,12.44.34,5.93,6.3,10.14,14.7,9.5C262.55,108.91,268.08,103.18,267.61,97Z" style="fill:#ed3fa8;stroke:#ed3fa8;stroke-linecap:round;stroke-linejoin:round;stroke-width:3px"/><path d="M127,84.49l-1,4.76a21.62,21.62,0,0,1,11,5.18L132,100.3a19.26,19.26,0,0,0-7.72-3.89l-2.64,12.71c7.11,2,11.47,4.82,12,11.33.64,8.39-6.77,14.77-17.15,15.56l-.4,0-1.43,6.67-5.79.44,1.53-7.21a21.78,21.78,0,0,1-14.24-6.88l5.6-5.51a18.37,18.37,0,0,0,10.43,5.23l2.81-13.26c-7.12-2-11.72-4.53-12.24-11.25-.6-8,6.52-14.54,16.37-15.29.4,0,.87,0,1.27,0l.9-4Zm-10.34,23.13,2.39-11.55c-5.65.43-8.3,3.44-8,6.7C111.2,105.1,112.62,106.26,116.68,107.62Zm3.18,9.33-2.5,11.9c5.17-.6,8.11-3.3,7.83-7C125,119.63,123.58,118.27,119.86,117Z" style="fill:#fff;stroke:#fff;stroke-linecap:round;stroke-linejoin:round;stroke-width:2px"/><path d="M179.83,140.06l-36.62,2.79-2.16-9.8L191,79.85l12.82-1L194.51,128l10.77-.82-2.08,11.1-10.77.82-3.23,17.26-12.61,1Zm2.08-11.1L187.7,98.3l-29.81,32.49Z" style="fill:#fff;stroke:#fff;stroke-linecap:round;stroke-linejoin:round;stroke-width:2px"/><path d="M213.64,134.56c-.88-11.63,7.55-19,18.88-22.34A16.53,16.53,0,0,1,221.47,98c-.78-10.34,8.64-21.68,26.31-23,15.4-1.17,26.8,6.3,27.69,17.93.75,9.8-5.72,17.34-15.89,20.39,6.88,2.07,12.69,7.26,13.31,15.45.9,11.74-10.37,23.1-29.11,24.53C228,154.49,214.58,146.84,213.64,134.56Zm46.17-5.47c-.48-6.24-7.21-10.71-17-10-10.23.78-16.61,6.69-16.1,13.36.38,6.37,7.2,10.61,16.9,9.87C253.51,141.6,260.24,136.21,259.81,129.09ZM263,95.38c-.33-5.83-6-10-14.9-9.37-8.51.65-14.39,6-14,12.44.34,5.93,6.29,10.13,14.69,9.49C257.93,107.25,263.45,101.52,263,95.38Z" style="fill:#fff;stroke:#fff;stroke-linecap:round;stroke-linejoin:round;stroke-width:2px"/><path d="M128.78,85l-1,4.75a21.7,21.7,0,0,1,11,5.18l-5.1,5.88A19.36,19.36,0,0,0,126,96.93l-2.64,12.71c7.11,2,11.47,4.81,12,11.33.64,8.38-6.77,14.77-17.15,15.56l-.4,0-1.43,6.66-5.78.44,1.52-7.2c-5.74-.64-10.73-2.93-14.24-6.88l5.6-5.51a18.35,18.35,0,0,0,10.44,5.22l2.8-13.26c-7.11-2-11.72-4.52-12.23-11.24-.61-8,6.52-14.55,16.36-15.3.4,0,.87,0,1.27,0l.9-4Zm-10.35,23.13,2.4-11.56c-5.66.43-8.3,3.45-8.06,6.71C113,105.61,114.38,106.78,118.43,108.14Zm3.19,9.33-2.51,11.89c5.17-.59,8.11-3.29,7.83-7C126.77,120.15,125.33,118.79,121.62,117.47Z" style="fill:#ffcbf9;stroke:#ffcbf9;stroke-linecap:round;stroke-linejoin:round"/><path d="M181.58,140.58,145,143.37l-2.15-9.8,49.89-53.2,12.82-1-9.26,49.13L207,127.7,205,138.8l-10.77.82L191,156.87l-12.6,1Zm2.08-11.1,5.79-30.67-29.81,32.5Z" style="fill:#ffcbf9;stroke:#ffcbf9;stroke-linecap:round;stroke-linejoin:round"/><path d="M215.4,135.08c-.89-11.64,7.54-19,18.88-22.35a16.47,16.47,0,0,1-11.05-14.21c-.79-10.34,8.64-21.68,26.3-23,15.4-1.17,26.81,6.3,27.69,17.94.75,9.8-5.72,17.33-15.89,20.38,6.88,2.08,12.69,7.27,13.32,15.45.89,11.74-10.38,23.11-29.12,24.54C229.7,155,216.33,147.35,215.4,135.08Zm46.16-5.47c-.47-6.25-7.2-10.72-17-10-10.23.78-16.6,6.68-16.09,13.36.37,6.36,7.2,10.61,16.89,9.87C255.26,142.12,262,136.73,261.56,129.61Zm3.18-33.72c-.34-5.82-6-10-14.91-9.37-8.51.65-14.39,6-14,12.44.34,5.93,6.3,10.14,14.7,9.5C259.68,107.76,265.2,102,264.74,95.89Z" style="fill:#ffcbf9;stroke:#ffcbf9;stroke-linecap:round;stroke-linejoin:round"/></g></g></g></svg>