<svg xmlns="http://www.w3.org/2000/svg" viewBox="0 0 392.04 350.86"><title>Asset 2</title><g style="isolation:isolate"><g id="Layer_2" data-name="Layer 2"><g id="Layer_1-2" data-name="Layer 1"><polygon points="79.13 40.09 299.02 27.53 361.05 102.46 207.72 321.46 26.04 121.59 79.13 40.09" style="fill:#97caeb"/><g style="opacity:0.12;mix-blend-mode:multiply"><path d="M12,107.23l47.72-73A36.79,36.79,0,0,1,88.49,17.64L297.67,6.06A36.81,36.81,0,0,1,328.1,19.38L383.63,86.7a36.8,36.8,0,0,1,1.72,44.57L242,335.22a36.8,36.8,0,0,1-57.39,3.55L15.53,152.08A36.81,36.81,0,0,1,12,107.23Z" style="fill:#68374f"/></g><path d="M6,101.23l47.72-73A36.79,36.79,0,0,1,82.49,11.64L291.67.06A36.81,36.81,0,0,1,322.1,13.38L377.63,80.7a36.8,36.8,0,0,1,1.72,44.57L236,329.22a36.8,36.8,0,0,1-57.39,3.55L9.53,146.08A36.81,36.81,0,0,1,6,101.23Z" style="fill:#fff"/><polygon points="78.38 38.83 298.27 26.11 360.35 101 207.19 320.12 25.35 120.38 78.38 38.83" style="fill:#97caeb"/><polygon points="78.27 40.05 297.83 26.87 359.99 101.52 207.51 320.67 25.49 121.59 78.27 40.05" style="fill:none;stroke:#65b2e8;stroke-miterlimit:10;stroke-width:5px"/><path d="M208.54,324.67,23.11,121.86,77.63,37.63l1.26-.08L299.71,24.3l64.19,77.08ZM29.4,121.33,208,316.68l149.61-215L297.49,29.44l-217,13Z" style="fill:#65b2e8"/><path d="M138.09,60.32a1.13,1.13,0,0,1-.32,0,1,1,0,0,1-.63-1.27l4.17-12.41L144,36.74a1,1,0,0,1,1.94.52l-2.67,9.91L139,59.64A1,1,0,0,1,138.09,60.32Z" style="fill:#65b2e8"/><path d="M207.14,320.19a1,1,0,0,1-.91-.6l-22.39-50.73L174.77,248a1,1,0,1,1,1.84-.8l9.06,20.82L207,316.3l15.14-50.6,6.22-22.23a1,1,0,1,1,1.93.53L224,266.25,208.1,319.47a1,1,0,0,1-.89.72Z" style="fill:#65b2e8"/><path d="M249.34,50.65a1,1,0,0,1-.91-.57l-8.82-18.91a1,1,0,1,1,1.82-.84l8.81,18.9a1,1,0,0,1-.48,1.33A1.06,1.06,0,0,1,249.34,50.65Z" style="fill:#65b2e8"/><path d="M314.6,104.43a1,1,0,0,1-.06-2l44-2.69a1,1,0,0,1,.12,2l-44,2.68Z" style="fill:#65b2e8"/><path d="M26.38,123.24a1,1,0,0,1-.06-2l46.54-2.69a1,1,0,0,1,.11,2l-46.53,2.69Z" style="fill:#65b2e8"/><path d="M106.93,79.39l6.28-.48-5.74,30.38,18.64-1.42L125,113.66l-24.86,1.9Z" style="fill:#ed3fa8;stroke:#ed3fa8;stroke-linecap:round;stroke-linejoin:round;stroke-width:3px"/><path d="M138.58,77l6.28-.48L138,112.66l-6.28.48Z" style="fill:#ed3fa8;stroke:#ed3fa8;stroke-linecap:round;stroke-linejoin:round;stroke-width:3px"/><path d="M154.28,75.78l6.33-.48,7.45,16.28L182,73.67l7.14-.55-6.82,36.17-6.32.49,4.89-25.95-14.32,17.9-.2,0-7.8-16.11-4.85,25.83-6.23.48Z" style="fill:#ed3fa8;stroke:#ed3fa8;stroke-linecap:round;stroke-linejoin:round;stroke-width:3px"/><path d="M198.59,72.4l6.28-.48-6.82,36.17-6.28.48Z" style="fill:#ed3fa8;stroke:#ed3fa8;stroke-linecap:round;stroke-linejoin:round;stroke-width:3px"/><path d="M221.06,76.49l-11.3.87,1.13-5.9,28.76-2.19-1.13,5.89L227.28,76l-5.74,30.28-6.22.48Z" style="fill:#ed3fa8;stroke:#ed3fa8;stroke-linecap:round;stroke-linejoin:round;stroke-width:3px"/><path d="M245.63,68.82l26-2-1.1,5.69L250.77,74,249,83.48l17.57-1.34-1.1,5.64-17.52,1.33-1.85,9.72,20.1-1.53-1.1,5.68-26.28,2Z" style="fill:#ed3fa8;stroke:#ed3fa8;stroke-linecap:round;stroke-linejoin:round;stroke-width:3px"/><path d="M279.06,66.27l9.62-.73c6.48-.5,11.17.93,14.22,3.55,2.78,2.38,4.3,5.68,4.64,10a19.42,19.42,0,0,1-4.67,14.31c-3.93,4.58-10,7.43-17.92,8l-12.71,1Zm9.59,5-4.4.34-4.7,24.6,5.72-.44c5.22-.4,9.7-2.42,12.6-5.8a13.55,13.55,0,0,0,3.2-10.07,8.93,8.93,0,0,0-3-6.34C296.08,71.8,293,70.91,288.65,71.24Z" style="fill:#ed3fa8;stroke:#ed3fa8;stroke-linecap:round;stroke-linejoin:round;stroke-width:3px"/><path d="M99.87,132.51l26-2-1.1,5.68L105,137.72l-1.77,9.46,17.57-1.34-1.1,5.63-17.52,1.34-1.85,9.71,20.1-1.53-1.1,5.69-26.28,2Z" style="fill:#ed3fa8;stroke:#ed3fa8;stroke-linecap:round;stroke-linejoin:round;stroke-width:3px"/><path d="M133.29,130l9.63-.73c6.48-.49,11.17.93,14.22,3.55,2.78,2.39,4.3,5.68,4.64,10a19.43,19.43,0,0,1-4.67,14.31c-3.93,4.57-10,7.43-17.92,8l-12.71,1Zm9.6,5-4.4.33-4.7,24.6,5.72-.43c5.22-.4,9.7-2.42,12.6-5.8a13.58,13.58,0,0,0,3.2-10.07,8.92,8.92,0,0,0-3-6.35C150.32,135.49,147.2,134.61,142.89,134.94Z" style="fill:#ed3fa8;stroke:#ed3fa8;stroke-linecap:round;stroke-linejoin:round;stroke-width:3px"/><path d="M172.9,127l6.27-.48-6.81,36.17-6.28.47Z" style="fill:#ed3fa8;stroke:#ed3fa8;stroke-linecap:round;stroke-linejoin:round;stroke-width:3px"/><path d="M195.36,131l-11.29.86L185.2,126,214,123.82l-1.13,5.89-11.24.86-5.74,30.28-6.23.47Z" style="fill:#ed3fa8;stroke:#ed3fa8;stroke-linecap:round;stroke-linejoin:round;stroke-width:3px"/><path d="M220.3,123.33l6.27-.47L219.76,159l-6.28.47Z" style="fill:#ed3fa8;stroke:#ed3fa8;stroke-linecap:round;stroke-linejoin:round;stroke-width:3px"/><path d="M267.46,134.76a21.5,21.5,0,0,1-5.19,15.47A20.5,20.5,0,0,1,248,157.48c-9.52.73-16.42-5.52-17.09-14.33a21.41,21.41,0,0,1,5.19-15.47,20.43,20.43,0,0,1,14.22-7.25C259.9,119.7,266.79,126,267.46,134.76ZM257.24,147A16.12,16.12,0,0,0,261,135.61c-.45-5.82-4.52-9.89-10.85-9.41a13.22,13.22,0,0,0-9,4.71,16.18,16.18,0,0,0-3.76,11.39c.45,5.88,4.52,9.89,10.85,9.41A13.19,13.19,0,0,0,257.24,147Z" style="fill:#ed3fa8;stroke:#ed3fa8;stroke-linecap:round;stroke-linejoin:round;stroke-width:3px"/><path d="M278.33,118.91l5.77-.44L298,142.62,302.89,117l6.12-.47-6.81,36.17-5.22.4-14.37-24.83-4.92,26.3-6.18.47Z" style="fill:#ed3fa8;stroke:#ed3fa8;stroke-linecap:round;stroke-linejoin:round;stroke-width:3px"/><path d="M103.93,78.39l6.28-.48-5.73,30.38,18.63-1.42L122,112.66l-24.86,1.9Z" style="fill:#fff;stroke:#fff;stroke-linecap:round;stroke-linejoin:round;stroke-width:2px"/><path d="M135.58,76l6.28-.48L135,111.66l-6.28.48Z" style="fill:#fff;stroke:#fff;stroke-linecap:round;stroke-linejoin:round;stroke-width:2px"/><path d="M151.28,74.78l6.33-.48,7.45,16.28L179,72.67l7.14-.55-6.82,36.17-6.33.49,4.9-25.95-14.32,17.9-.21,0-7.79-16.11-4.86,25.83-6.23.48Z" style="fill:#fff;stroke:#fff;stroke-linecap:round;stroke-linejoin:round;stroke-width:2px"/><path d="M195.59,71.4l6.28-.48-6.82,36.17-6.28.48Z" style="fill:#fff;stroke:#fff;stroke-linecap:round;stroke-linejoin:round;stroke-width:2px"/><path d="M218.06,75.49l-11.29.87,1.13-5.9,28.76-2.19-1.13,5.89L224.29,75l-5.74,30.28-6.23.48Z" style="fill:#fff;stroke:#fff;stroke-linecap:round;stroke-linejoin:round;stroke-width:2px"/><path d="M242.64,67.82l26-2-1.09,5.69L247.77,73,246,82.48l17.57-1.34-1.09,5.64L245,88.11l-1.86,9.72,20.1-1.53L262.1,102l-26.28,2Z" style="fill:#fff;stroke:#fff;stroke-linecap:round;stroke-linejoin:round;stroke-width:2px"/><path d="M276.06,65.27l9.62-.73c6.48-.5,11.17.93,14.22,3.55,2.78,2.38,4.31,5.68,4.64,10a19.45,19.45,0,0,1-4.66,14.31c-3.93,4.58-10,7.43-17.93,8l-12.71,1Zm9.6,5-4.41.34-4.69,24.6,5.72-.44c5.21-.4,9.69-2.42,12.59-5.8a13.6,13.6,0,0,0,3.21-10.07,8.89,8.89,0,0,0-3-6.34C293.08,70.8,290,69.91,285.66,70.24Z" style="fill:#fff;stroke:#fff;stroke-linecap:round;stroke-linejoin:round;stroke-width:2px"/><path d="M96.87,131.51l26-2-1.09,5.68L102,136.72l-1.78,9.46,17.57-1.34-1.09,5.63-17.52,1.34-1.86,9.71,20.1-1.53-1.09,5.69-26.28,2Z" style="fill:#fff;stroke:#fff;stroke-linecap:round;stroke-linejoin:round;stroke-width:2px"/><path d="M130.3,129l9.62-.73c6.48-.49,11.17.93,14.22,3.55,2.78,2.39,4.31,5.68,4.64,10a19.43,19.43,0,0,1-4.67,14.31c-3.92,4.57-10,7.43-17.92,8l-12.71,1Zm9.59,5-4.4.33-4.7,24.6,5.73-.43c5.21-.4,9.69-2.42,12.59-5.8a13.63,13.63,0,0,0,3.21-10.07,9,9,0,0,0-3-6.35C147.32,134.49,144.2,133.61,139.89,133.94Z" style="fill:#fff;stroke:#fff;stroke-linecap:round;stroke-linejoin:round;stroke-width:2px"/><path d="M169.9,126l6.28-.48-6.82,36.17-6.28.47Z" style="fill:#fff;stroke:#fff;stroke-linecap:round;stroke-linejoin:round;stroke-width:2px"/><path d="M192.37,130l-11.29.86,1.13-5.89L211,122.82l-1.13,5.89-11.24.86-5.74,30.28-6.23.47Z" style="fill:#fff;stroke:#fff;stroke-linecap:round;stroke-linejoin:round;stroke-width:2px"/><path d="M217.3,122.33l6.28-.47L216.76,158l-6.28.47Z" style="fill:#fff;stroke:#fff;stroke-linecap:round;stroke-linejoin:round;stroke-width:2px"/><path d="M264.47,133.76a21.55,21.55,0,0,1-5.19,15.47A20.53,20.53,0,0,1,245,156.48c-9.52.73-16.41-5.52-17.08-14.33a21.41,21.41,0,0,1,5.18-15.47,20.45,20.45,0,0,1,14.22-7.25C256.9,118.7,263.79,125,264.47,133.76ZM254.24,146A16.12,16.12,0,0,0,258,134.61c-.44-5.82-4.52-9.89-10.85-9.41a13.19,13.19,0,0,0-9,4.71,16.14,16.14,0,0,0-3.77,11.39c.45,5.88,4.52,9.89,10.85,9.41A13.17,13.17,0,0,0,254.24,146Z" style="fill:#fff;stroke:#fff;stroke-linecap:round;stroke-linejoin:round;stroke-width:2px"/><path d="M275.33,117.91l5.78-.44L295,141.62,299.89,116l6.13-.47-6.82,36.17-5.22.4-14.37-24.83-4.92,26.3-6.18.47Z" style="fill:#fff;stroke:#fff;stroke-linecap:round;stroke-linejoin:round;stroke-width:2px"/><path d="M105.93,78.39l6.28-.48-5.74,30.38,18.64-1.42L124,112.66l-24.86,1.9Z" style="fill:#ffcbf9;stroke:#ffcbf9;stroke-linecap:round;stroke-linejoin:round"/><path d="M137.58,76l6.28-.48L137,111.66l-6.28.48Z" style="fill:#ffcbf9;stroke:#ffcbf9;stroke-linecap:round;stroke-linejoin:round"/><path d="M153.28,74.78l6.33-.48,7.45,16.28L181,72.67l7.14-.55-6.82,36.17-6.32.49,4.89-25.95-14.32,17.9-.2,0-7.8-16.11-4.85,25.83-6.23.48Z" style="fill:#ffcbf9;stroke:#ffcbf9;stroke-linecap:round;stroke-linejoin:round"/><path d="M197.59,71.4l6.28-.48-6.82,36.17-6.28.48Z" style="fill:#ffcbf9;stroke:#ffcbf9;stroke-linecap:round;stroke-linejoin:round"/><path d="M220.06,75.49l-11.3.87,1.13-5.9,28.76-2.19-1.13,5.89L226.28,75l-5.74,30.28-6.22.48Z" style="fill:#ffcbf9;stroke:#ffcbf9;stroke-linecap:round;stroke-linejoin:round"/><path d="M244.63,67.82l26-2-1.1,5.69L249.77,73,248,82.48l17.57-1.34-1.1,5.64-17.52,1.33-1.85,9.72,20.1-1.53-1.1,5.68-26.28,2Z" style="fill:#ffcbf9;stroke:#ffcbf9;stroke-linecap:round;stroke-linejoin:round"/><path d="M278.06,65.27l9.62-.73c6.48-.5,11.17.93,14.22,3.55,2.78,2.38,4.3,5.68,4.64,10a19.42,19.42,0,0,1-4.67,14.31c-3.93,4.58-10,7.43-17.92,8l-12.71,1Zm9.59,5-4.4.34-4.7,24.6,5.72-.44c5.22-.4,9.7-2.42,12.6-5.8a13.55,13.55,0,0,0,3.2-10.07,8.93,8.93,0,0,0-3-6.34C295.08,70.8,292,69.91,287.65,70.24Z" style="fill:#ffcbf9;stroke:#ffcbf9;stroke-linecap:round;stroke-linejoin:round"/><path d="M98.87,131.51l26-2-1.1,5.68L104,136.72l-1.77,9.46,17.57-1.34-1.1,5.63-17.52,1.34-1.85,9.71,20.1-1.53-1.1,5.69-26.28,2Z" style="fill:#ffcbf9;stroke:#ffcbf9;stroke-linecap:round;stroke-linejoin:round"/><path d="M132.29,129l9.63-.73c6.48-.49,11.17.93,14.22,3.55,2.78,2.39,4.3,5.68,4.64,10a19.43,19.43,0,0,1-4.67,14.31c-3.93,4.57-10,7.43-17.92,8l-12.71,1Zm9.6,5-4.4.33-4.7,24.6,5.72-.43c5.22-.4,9.7-2.42,12.6-5.8a13.58,13.58,0,0,0,3.2-10.07,8.92,8.92,0,0,0-3-6.35C149.32,134.49,146.2,133.61,141.89,133.94Z" style="fill:#ffcbf9;stroke:#ffcbf9;stroke-linecap:round;stroke-linejoin:round"/><path d="M171.9,126l6.27-.48-6.81,36.17-6.28.47Z" style="fill:#ffcbf9;stroke:#ffcbf9;stroke-linecap:round;stroke-linejoin:round"/><path d="M194.36,130l-11.29.86L184.2,125,213,122.82l-1.13,5.89-11.24.86-5.74,30.28-6.23.47Z" style="fill:#ffcbf9;stroke:#ffcbf9;stroke-linecap:round;stroke-linejoin:round"/><path d="M219.3,122.33l6.27-.47L218.76,158l-6.28.47Z" style="fill:#ffcbf9;stroke:#ffcbf9;stroke-linecap:round;stroke-linejoin:round"/><path d="M266.46,133.76a21.5,21.5,0,0,1-5.19,15.47A20.5,20.5,0,0,1,247,156.48c-9.52.73-16.42-5.52-17.09-14.33a21.41,21.41,0,0,1,5.19-15.47,20.43,20.43,0,0,1,14.22-7.25C258.9,118.7,265.79,125,266.46,133.76ZM256.24,146A16.12,16.12,0,0,0,260,134.61c-.45-5.82-4.52-9.89-10.85-9.41a13.22,13.22,0,0,0-9,4.71,16.18,16.18,0,0,0-3.76,11.39c.45,5.88,4.52,9.89,10.85,9.41A13.19,13.19,0,0,0,256.24,146Z" style="fill:#ffcbf9;stroke:#ffcbf9;stroke-linecap:round;stroke-linejoin:round"/><path d="M277.33,117.91l5.77-.44L297,141.62,301.89,116l6.12-.47-6.81,36.17-5.22.4-14.37-24.83-4.92,26.3-6.18.47Z" style="fill:#ffcbf9;stroke:#ffcbf9;stroke-linecap:round;stroke-linejoin:round"/><path d="M201,186.13h0c-.32.16-1.08,8-1.22,8.56a33.81,33.81,0,0,1-5,11.05,33.39,33.39,0,0,1-7.09,7.41c-.81.63-7.83,5.33-8.49,5.35h0c1.75,1.9,17.09,2.81,21.38,21.85.15.7,2,9.19,2.05,9.18.36-.11.94-6.29.94-7.2.06-19.85,21.18-24.22,21.05-25.23C218,213.66,212.06,211,207.29,204a34,34,0,0,1-4.72-10.56C202.38,192.67,201.35,186.13,201,186.13Z" style="fill:#fff"/><path d="M202.55,250c-.43,0-.49-.28-2.18-8.07-.16-.77-.29-1.34-.32-1.5-3.32-14.74-13.47-18.45-18.35-20.23a8.24,8.24,0,0,1-2.91-1.4.5.5,0,0,1-.06-.59.5.5,0,0,1,.49-.24,96.38,96.38,0,0,0,8.16-5.23,33,33,0,0,0,7-7.3,33.43,33.43,0,0,0,4.93-10.89c0-.17.16-1.28.29-2.36.73-6.29.83-6.35,1.18-6.53l.11,0,.19,0c.5,0,.64.24,1.65,5.87.15.85.29,1.59.34,1.78a33.42,33.42,0,0,0,4.65,10.41c4.27,6.33,9.4,9,15.34,12.05l1.76.91a.52.52,0,0,1,.26.38c.08.57-.45.79-2.21,1.54-5.13,2.18-18.78,8-18.83,23.77,0,.07-.35,7.38-1.3,7.67A.58.58,0,0,1,202.55,250Zm-22.32-31.45c.47.22,1.11.45,1.81.71,5.05,1.84,15.55,5.68,19,21,0,.16.16.73.33,1.51.29,1.34.82,3.79,1.21,5.55.24-1.8.47-4.27.47-5,.05-16.44,14.14-22.43,19.44-24.68l1.14-.49-1-.53c-5.81-3-11.3-5.84-15.71-12.38a34.27,34.27,0,0,1-4.79-10.72c-.06-.22-.17-.81-.35-1.85s-.42-2.32-.65-3.47c-.18,1.3-.38,3-.51,4.12-.18,1.54-.26,2.29-.31,2.49A33.73,33.73,0,0,1,188,213.56C187.74,213.76,182.56,217.33,180.23,218.58ZM201,186.14h0Z" style="fill:#fff"/><path d="M203.84,185.66h0c-.32.17-1.08,8-1.22,8.57a33.23,33.23,0,0,1-12.09,18.46c-.81.63-7.83,5.33-8.49,5.34h0c1.75,1.91,17.09,2.81,21.38,21.86.15.69,2,9.18,2,9.18.36-.11.94-6.3.94-7.2.06-19.86,21.18-24.22,21-25.24-6.58-3.44-12.52-6.05-17.29-13.12a34,34,0,0,1-4.72-10.57C205.21,192.2,204.18,185.65,203.84,185.66Z" style="fill:#ffcbf9"/><path d="M205.38,249.56c-.43,0-.49-.28-2.19-8.15-.16-.74-.28-1.27-.31-1.42-3.32-14.74-13.47-18.45-18.35-20.24a8.17,8.17,0,0,1-2.91-1.39.5.5,0,0,1-.05-.6.46.46,0,0,1,.48-.23,94.13,94.13,0,0,0,8.16-5.24,32.74,32.74,0,0,0,11.92-18.19c0-.16.16-1.28.29-2.35.73-6.3.83-6.35,1.18-6.53l.11,0a.62.62,0,0,1,.19,0c.5,0,.65.25,1.65,5.87.15.85.29,1.58.34,1.78a33.42,33.42,0,0,0,4.65,10.41c4.27,6.33,9.4,9,15.34,12.05l1.76.91a.52.52,0,0,1,.26.38c.08.57-.45.79-2.21,1.54-5.13,2.18-18.78,8-18.83,23.76,0,.07-.35,7.39-1.3,7.68A.55.55,0,0,1,205.38,249.56Zm-22.32-31.45c.47.21,1.11.45,1.81.7,5,1.85,15.55,5.69,19,21,0,.15.15.69.31,1.43.3,1.35.84,3.84,1.23,5.62.24-1.8.47-4.27.47-5,0-16.44,14.14-22.43,19.44-24.68l1.14-.5-1-.52c-5.82-3-11.31-5.84-15.72-12.38a34.38,34.38,0,0,1-4.79-10.72c-.06-.22-.17-.82-.35-1.86-.16-.88-.42-2.32-.65-3.46-.18,1.29-.38,3-.51,4.12-.18,1.54-.26,2.28-.31,2.49A34.36,34.36,0,0,1,198,205.56a33.9,33.9,0,0,1-7.2,7.52C190.57,213.28,185.39,216.86,183.06,218.11Zm20.77-32.45h0Z" style="fill:#ffcbf9"/><path d="M153,181.75h0c-.2.1-.68,5-.76,5.39a21.43,21.43,0,0,1-3.15,7,21.17,21.17,0,0,1-4.47,4.67,48.07,48.07,0,0,1-5.34,3.37h0c1.1,1.2,10.76,1.77,13.46,13.77.1.43,1.24,5.78,1.29,5.78h0c.23-.07.6-4,.6-4.53,0-12.51,13.34-15.26,13.26-15.9-4.14-2.17-7.89-3.82-10.89-8.27a21.2,21.2,0,0,1-3-6.65C153.85,185.87,153.2,181.75,153,181.75Z" style="fill:#fff"/><path d="M153.92,222.19c-.39,0-.45-.27-1.53-5.28l-.19-.89c-2.07-9.19-8.4-11.5-11.44-12.62a5.39,5.39,0,0,1-1.91-.92.51.51,0,0,1-.06-.6.5.5,0,0,1,.46-.24c.54-.21,4.47-2.82,5-3.26A20.28,20.28,0,0,0,151.72,187c0-.11.11-.8.18-1.47.47-4.05.53-4.08.84-4.25l.11,0,.17,0c.49,0,.57.23,1.22,3.86.1.54.18,1,.21,1.1a21.09,21.09,0,0,0,2.9,6.5c2.67,3.95,5.88,5.61,9.6,7.53l1.11.58a.48.48,0,0,1,.26.37c.07.5-.33.67-1.5,1.17-3.2,1.36-11.72,5-11.75,14.8,0,0-.14,4.76-.95,5l-.13,0Zm-13.61-20c.24.1.52.2.79.29,3.21,1.18,9.88,3.62,12.07,13.34l.2.9c.13.61.34,1.57.53,2.47.1-.87.17-1.72.17-2,0-10.48,9-14.28,12.36-15.71l.36-.16-.3-.15c-3.68-1.9-7.16-3.7-10-7.86a22,22,0,0,1-3-6.81c0-.14-.12-.6-.22-1.18l-.19-1.05c-.07.52-.13,1.05-.17,1.45-.13,1.07-.17,1.46-.21,1.59a21.41,21.41,0,0,1-7.79,11.91S142,201.22,140.31,202.17ZM153,181.76h0Z" style="fill:#fff"/><path d="M155.82,181.73h0c-.2.1-.68,5.05-.76,5.39a21.43,21.43,0,0,1-3.15,7,21.17,21.17,0,0,1-4.47,4.67,47.25,47.25,0,0,1-5.35,3.37h0c1.1,1.2,10.76,1.77,13.46,13.77.1.44,1.24,5.78,1.29,5.78h0c.23-.07.6-4,.6-4.53,0-12.51,13.34-15.26,13.26-15.9-4.14-2.17-7.89-3.81-10.89-8.27a21.35,21.35,0,0,1-3-6.65C156.69,185.85,156,181.72,155.82,181.73Z" style="fill:#ffcbf9"/><path d="M156.77,222.16c-.4,0-.44-.19-1.55-5.34L155,216c-2.06-9.19-8.39-11.5-11.44-12.61a5.39,5.39,0,0,1-1.9-.93.5.5,0,0,1-.05-.6.48.48,0,0,1,.45-.24c.55-.21,4.47-2.82,5-3.25A20.36,20.36,0,0,0,154.56,187c0-.11.11-.8.18-1.46.47-4.06.53-4.09.84-4.26l.11,0h.17c.49,0,.57.2,1.22,3.85.1.54.17,1,.21,1.1a20.86,20.86,0,0,0,2.9,6.5c2.67,3.95,5.88,5.61,9.6,7.53l1.11.58a.48.48,0,0,1,.26.38c.07.49-.33.66-1.5,1.16-3.21,1.36-11.72,5-11.75,14.8,0,.05-.14,4.76-.95,5A.41.41,0,0,1,156.77,222.16Zm-13.62-20,.79.3c3.21,1.17,9.88,3.61,12.07,13.33l.18.84c.13.58.35,1.58.55,2.54.1-.88.17-1.73.17-2,0-10.48,9-14.29,12.36-15.72l.36-.16-.3-.15c-3.68-1.9-7.16-3.7-10-7.86a22,22,0,0,1-3-6.81c0-.14-.12-.6-.22-1.18l-.19-1.05c-.07.53-.13,1.05-.17,1.45-.13,1.07-.17,1.46-.21,1.59a21.36,21.36,0,0,1-7.8,11.91S144.81,201.2,143.15,202.14Zm12.66-20.41h0Z" style="fill:#ffcbf9"/><path d="M247,176.19h0c-.2.1-.68,5.05-.76,5.39a21.43,21.43,0,0,1-3.15,7,21.17,21.17,0,0,1-4.47,4.67,47.25,47.25,0,0,1-5.35,3.37h0c1.1,1.2,10.76,1.77,13.46,13.77.1.44,1.24,5.78,1.29,5.78h0c.23-.07.6-4,.6-4.53,0-12.51,13.34-15.26,13.25-15.9-4.14-2.17-7.88-3.82-10.88-8.27a21.35,21.35,0,0,1-3-6.65C247.85,180.31,247.21,176.18,247,176.19Z" style="fill:#fff"/><path d="M247.94,216.62c-.4,0-.44-.19-1.54-5.25l-.2-.92c-2.06-9.19-8.39-11.5-11.44-12.62a5.32,5.32,0,0,1-1.9-.92.5.5,0,0,1-.06-.6.51.51,0,0,1,.46-.24c.54-.21,4.47-2.82,5-3.25a20.36,20.36,0,0,0,7.44-11.36c0-.11.1-.8.18-1.46.47-4.06.53-4.09.84-4.26l.11,0,.17,0c.49,0,.57.23,1.22,3.85.1.55.17,1,.21,1.11a20.86,20.86,0,0,0,2.9,6.5c2.67,4,5.88,5.61,9.6,7.53l1.11.58a.48.48,0,0,1,.26.37c.06.5-.33.67-1.5,1.17-3.21,1.36-11.72,5-11.75,14.8,0,0-.16,4.76-1,5A.62.62,0,0,1,247.94,216.62Zm-13.62-20,.79.3c3.21,1.17,9.88,3.61,12.07,13.33l.2.93c.13.6.34,1.55.53,2.45.1-.88.17-1.73.17-2,0-10.48,9-14.29,12.36-15.72l.36-.16-.3-.15c-3.68-1.9-7.16-3.7-10-7.86a22,22,0,0,1-3-6.81c0-.14-.12-.6-.22-1.18l-.19-1.05c-.07.52-.13,1.05-.17,1.45-.13,1.07-.18,1.46-.21,1.59a21.36,21.36,0,0,1-7.8,11.91S236,195.65,234.32,196.6ZM247,176.19h0Z" style="fill:#fff"/><path d="M249.83,176.16h0c-.2.11-.68,5.05-.77,5.39a20.86,20.86,0,0,1-7.61,11.63,47.25,47.25,0,0,1-5.35,3.37h0c1.1,1.2,10.76,1.77,13.46,13.77.1.44,1.24,5.79,1.29,5.78h0c.23-.07.6-4,.6-4.53,0-12.51,13.34-15.26,13.25-15.9-4.14-2.17-7.88-3.81-10.88-8.27a21.35,21.35,0,0,1-3-6.65C250.69,180.28,250.05,176.15,249.83,176.16Z" style="fill:#ffcbf9"/><path d="M250.78,216.6c-.4,0-.44-.2-1.55-5.34l-.19-.84c-2.06-9.18-8.39-11.5-11.44-12.61a5.14,5.14,0,0,1-1.9-.93.5.5,0,0,1-.06-.6.51.51,0,0,1,.46-.24c.55-.21,4.47-2.82,5-3.25a20.36,20.36,0,0,0,7.44-11.36c0-.11.1-.8.18-1.46.47-4.06.53-4.09.84-4.25l.11-.05h.17c.49,0,.57.22,1.22,3.85.1.54.17,1,.21,1.1a20.86,20.86,0,0,0,2.9,6.5c2.66,3.95,5.88,5.61,9.6,7.53l1.11.58a.5.5,0,0,1,.26.38c.06.49-.33.66-1.5,1.16-3.21,1.36-11.72,5-11.75,14.8,0,.05-.16,4.76-.95,5A1.25,1.25,0,0,1,250.78,216.6Zm-13.62-20,.79.3c3.21,1.17,9.88,3.61,12.07,13.33l.18.85c.13.57.34,1.58.55,2.53.1-.88.17-1.73.17-2,0-10.48,9-14.29,12.36-15.72l.36-.15-.3-.16c-3.69-1.9-7.16-3.7-10-7.86a21.94,21.94,0,0,1-3-6.81c0-.13-.12-.59-.22-1.18-.05-.28-.12-.65-.19-1.05-.07.53-.13,1.05-.18,1.46-.12,1.06-.17,1.45-.2,1.59a21.37,21.37,0,0,1-7.8,11.9S238.82,195.63,237.16,196.57Zm12.66-20.41h0Z" style="fill:#ffcbf9"/><polygon points="183.51 199.94 183.51 199.94 183.51 199.94 183.51 199.94" style="fill:#474747"/></g></g></g></svg>