<svg xmlns="http://www.w3.org/2000/svg" viewBox="0 0 391.37 353.4"><title>Asset 1</title><g style="isolation:isolate"><g id="Layer_2" data-name="Layer 2"><g id="Layer_1-2" data-name="Layer 1"><g style="opacity:0.12;mix-blend-mode:multiply"><path d="M11.41,115.9,56.9,41.51A36.8,36.8,0,0,1,85.15,24L293.89,6.13A36.79,36.79,0,0,1,324.7,18.54l57.54,65.6a36.8,36.8,0,0,1,3.07,44.5L248.24,336.83A36.8,36.8,0,0,1,191,342.11L16.29,160.62A36.79,36.79,0,0,1,11.41,115.9Z" style="fill:#68374f"/></g><path d="M5.41,109.9,50.9,35.51A36.8,36.8,0,0,1,79.15,18L287.89.13A36.79,36.79,0,0,1,318.7,12.54l57.54,65.6a36.8,36.8,0,0,1,3.07,44.5L242.24,330.83A36.8,36.8,0,0,1,185,336.11L10.29,154.62A36.79,36.79,0,0,1,5.41,109.9Z" style="fill:#fff"/><polygon points="72.58 48.82 291.72 26.7 356.95 98.86 213.31 324.33 23.09 132.56 72.58 48.82" style="fill:#97caeb"/><path d="M213.85,326.88l-192.58-196L72.73,44.72,74,44.6,294.2,23.44l66.9,74.73ZM27.54,130.1,213,318.91,354.84,98.67l-62.68-70L75.73,49.45Z" style="fill:#65b2e8"/><path d="M132.19,73.37a1.24,1.24,0,0,1-.27,0,1,1,0,0,1-.75-1.2l6.93-30a1,1,0,0,1,1.2-.74,1,1,0,0,1,.75,1.19l-6.93,30A1,1,0,0,1,132.19,73.37Z" style="fill:#65b2e8"/><path d="M213,323.13a1,1,0,0,1-.92-.59L189.31,272l-18.48-41.49a1,1,0,1,1,1.82-.81l18.48,41.48,21.7,48.07,14.71-50.73,12.08-44.59a1,1,0,0,1,1.23-.7,1,1,0,0,1,.7,1.23l-12.09,44.6L214,322.41a1,1,0,0,1-.89.72Z" style="fill:#65b2e8"/><path d="M249.66,61.53a1,1,0,0,1-.93-.55L234.5,33.12a1,1,0,1,1,1.78-.91l14.23,27.86a1,1,0,0,1-.43,1.35A1.09,1.09,0,0,1,249.66,61.53Z" style="fill:#65b2e8"/><path d="M307.06,103.66a1,1,0,0,1-1-.9,1,1,0,0,1,.91-1.09l48.4-4.42a1,1,0,1,1,.18,2l-48.4,4.42Z" style="fill:#65b2e8"/><path d="M24.17,131.63a1,1,0,0,1-1-.91,1,1,0,0,1,.9-1.09l45.9-4.33a1,1,0,0,1,.19,2l-45.9,4.33Z" style="fill:#65b2e8"/><path d="M132.53,180.08l7-.54,5.52,28.19,16.5-29.87,7.39-.56-22.51,39.42-5.8.44Z" style="fill:#fff"/><path d="M164.77,208a9.44,9.44,0,0,1,2.15-7c2.06-2.35,5.37-3.83,9.36-4.14a30.57,30.57,0,0,1,8.83.72l.12-.49a9.9,9.9,0,0,0,.14-2.36c-.2-2.61-2.13-4.12-6.54-3.78a20.47,20.47,0,0,0-7.54,2.12l-1.46-5.13a27.32,27.32,0,0,1,9.85-2.62c7.34-.56,11.46,2.33,11.88,7.81a18.14,18.14,0,0,1-.27,4.14l-3,16-6.22.47.67-3.79a12.18,12.18,0,0,1-8.92,5C169,215.32,165.13,212.57,164.77,208Zm19.4-5.17.27-1.31a23,23,0,0,0-6.89-.54,7.75,7.75,0,0,0-5.28,2.27,4.75,4.75,0,0,0-1.12,3.51c.17,2.23,2,3.64,4.86,3.43A9.43,9.43,0,0,0,184.17,202.78Z" style="fill:#fff"/><path d="M203.78,173l6.43-.49-7.46,39.62-6.43.49Z" style="fill:#fff"/><path d="M212.84,203.53a21.8,21.8,0,0,1,.48-5l2.92-15.62,6.44-.49-3,15.9a13.18,13.18,0,0,0-.16,2.84c.21,2.82,2.14,4.28,5.17,4,3.62-.28,6.38-3.37,7.18-7.61l3-16.11,6.43-.5L236,209.63l-6.44.49.68-3.68c-2.06,2.4-4.62,4.57-8.19,4.84C216.83,211.68,213.24,208.69,212.84,203.53Z" style="fill:#fff"/><path d="M251.31,196.59c.32,4.26,3,7,7.83,6.63a11.25,11.25,0,0,0,7-3.26l3.4,3.86a16.44,16.44,0,0,1-10.61,4.71c-7.81.59-13.12-3.76-13.7-11.31a17.67,17.67,0,0,1,4.23-12.63,16,16,0,0,1,11-5.65c7.23-.55,11.58,3.93,12.05,10.05a15.82,15.82,0,0,1-.77,6Zm.36-4.3,14.57-1.11a6.37,6.37,0,0,0,.12-2c-.22-2.93-2.11-5.24-6-4.95a9.15,9.15,0,0,0-6.28,3.26A11.94,11.94,0,0,0,251.67,192.29Z" style="fill:#fff"/><path d="M118.73,84.93l-1,4.76a21.73,21.73,0,0,1,11,5.18l-5.11,5.88a19.35,19.35,0,0,0-7.72-3.9l-2.65,12.71c7.11,2,11.48,4.82,12,11.34.64,8.38-6.77,14.76-17.14,15.55l-.4,0-1.44,6.67-5.78.44,1.52-7.21a21.87,21.87,0,0,1-14.24-6.87L93.4,124a18.35,18.35,0,0,0,10.44,5.22l2.8-13.26c-7.11-2-11.72-4.53-12.23-11.24-.61-8,6.52-14.55,16.36-15.3.4,0,.87,0,1.27,0l.9-4Zm-10.35,23.14,2.4-11.56c-5.65.43-8.3,3.44-8,6.7C102.9,105.54,104.33,106.7,108.38,108.07Zm3.19,9.32-2.51,11.9c5.18-.59,8.11-3.29,7.84-6.95C116.72,120.08,115.28,118.72,111.57,117.39Z" style="fill:#ed3fa8;stroke:#ed3fa8;stroke-linecap:round;stroke-linejoin:round;stroke-width:3px"/><path d="M154.66,96.73l-14,4.75-1.08-11.4,21.8-8.16,9.15-.7L155.91,158.7l-13.14,1Z" style="fill:#ed3fa8;stroke:#ed3fa8;stroke-linecap:round;stroke-linejoin:round;stroke-width:3px"/><path d="M198.17,93.41l-14,4.75L183,86.76l21.8-8.16,9.16-.7-14.57,77.49-13.14,1Z" style="fill:#ed3fa8;stroke:#ed3fa8;stroke-linecap:round;stroke-linejoin:round;stroke-width:3px"/><path d="M291.54,101.79c1,13.46-3.18,27.86-11.84,38a35.15,35.15,0,0,1-24.38,12.69c-17.34,1.32-29.16-10.13-30.54-28.22-1-13.47,3.19-27.87,11.85-37.95a35.39,35.39,0,0,1,24.49-12.7C278.46,72.24,290.16,83.69,291.54,101.79Zm-22.76,31.09c6.57-7.54,9.88-19.6,9.08-30-.86-11.31-7.11-18-16.91-17.24-5.17.4-9.83,3.25-13.4,7.52-6.47,7.54-9.88,19.61-9.09,30.05.87,11.31,7.12,18,16.92,17.24C260.65,140,265.2,137.16,268.78,132.88Z" style="fill:#ed3fa8;stroke:#ed3fa8;stroke-linecap:round;stroke-linejoin:round;stroke-width:3px"/><path d="M114.1,83.27l-1,4.76a21.62,21.62,0,0,1,11,5.18l-5.11,5.87a19.26,19.26,0,0,0-7.72-3.89l-2.64,12.71c7.11,2,11.47,4.81,12,11.33.64,8.38-6.77,14.77-17.15,15.56l-.4,0-1.43,6.67-5.79.44,1.53-7.21c-5.74-.64-10.73-2.93-14.24-6.88l5.6-5.51a18.37,18.37,0,0,0,10.43,5.23L102,114.3c-7.11-2-11.72-4.53-12.23-11.25-.61-8,6.51-14.54,16.36-15.29.4,0,.87,0,1.27,0l.9-4ZM103.76,106.4l2.39-11.55c-5.65.43-8.3,3.44-8.05,6.7C98.28,103.88,99.7,105,103.76,106.4Zm3.18,9.33-2.5,11.9c5.17-.6,8.11-3.3,7.83-7C112.1,118.41,110.66,117.05,106.94,115.73Z" style="fill:#fff;stroke:#fff;stroke-linecap:round;stroke-linejoin:round;stroke-width:2px"/><path d="M150,95.06l-14,4.76-1.09-11.4,21.8-8.17,9.16-.69L151.29,157l-13.14,1Z" style="fill:#fff;stroke:#fff;stroke-linecap:round;stroke-linejoin:round;stroke-width:2px"/><path d="M193.55,91.75,179.5,96.5l-1.09-11.4,21.81-8.16,9.15-.7L194.8,153.72l-13.14,1Z" style="fill:#fff;stroke:#fff;stroke-linecap:round;stroke-linejoin:round;stroke-width:2px"/><path d="M286.92,100.12c1,13.47-3.19,27.87-11.85,37.95a35.14,35.14,0,0,1-24.38,12.7c-17.34,1.32-29.15-10.13-30.53-28.23-1-13.46,3.18-27.86,11.84-37.95a35.41,35.41,0,0,1,24.49-12.7C273.83,70.57,285.54,82,286.92,100.12Zm-22.77,31.1c6.58-7.55,9.88-19.61,9.09-30-.86-11.31-7.11-18-16.92-17.24-5.17.39-9.82,3.24-13.4,7.52-6.46,7.54-9.88,19.6-9.08,30.05.86,11.31,7.11,18,16.91,17.24C256,138.33,260.58,135.5,264.15,131.22Z" style="fill:#fff;stroke:#fff;stroke-linecap:round;stroke-linejoin:round;stroke-width:2px"/><path d="M115.86,83.78l-1,4.76a21.7,21.7,0,0,1,11,5.18l-5.1,5.88a19.54,19.54,0,0,0-7.72-3.9l-2.65,12.72c7.11,2,11.47,4.81,12,11.33.64,8.38-6.77,14.76-17.15,15.56l-.39,0L103.43,142l-5.78.44,1.52-7.21a21.8,21.8,0,0,1-14.24-6.87l5.6-5.51A18.35,18.35,0,0,0,101,128.07l2.8-13.26c-7.11-2-11.72-4.52-12.23-11.24-.61-8,6.52-14.55,16.36-15.3.4,0,.87,0,1.27,0l.9-4Zm-10.35,23.14,2.4-11.56c-5.66.43-8.3,3.44-8.06,6.7C100,104.39,101.46,105.56,105.51,106.92Zm3.19,9.32-2.51,11.9c5.17-.59,8.11-3.29,7.83-6.95C113.85,118.93,112.41,117.57,108.7,116.24Z" style="fill:#ffcbf9;stroke:#ffcbf9;stroke-linecap:round;stroke-linejoin:round"/><path d="M151.79,95.58l-14,4.75-1.09-11.4,21.81-8.16,9.15-.7L153,157.56l-13.14,1Z" style="fill:#ffcbf9;stroke:#ffcbf9;stroke-linecap:round;stroke-linejoin:round"/><path d="M195.3,92.26,181.25,97l-1.08-11.4L202,77.45l9.16-.69-14.57,77.48-13.14,1Z" style="fill:#ffcbf9;stroke:#ffcbf9;stroke-linecap:round;stroke-linejoin:round"/><path d="M288.67,100.64c1,13.46-3.19,27.87-11.84,38a35.15,35.15,0,0,1-24.38,12.69c-17.34,1.32-29.16-10.13-30.54-28.22-1-13.46,3.19-27.87,11.84-37.95a35.41,35.41,0,0,1,24.49-12.7C275.58,71.09,287.29,82.55,288.67,100.64Zm-22.76,31.09c6.57-7.54,9.88-19.6,9.08-30-.86-11.31-7.11-18-16.91-17.23-5.17.39-9.83,3.24-13.4,7.52-6.47,7.53-9.89,19.6-9.09,30.05.86,11.3,7.11,18,16.91,17.23C257.78,138.85,262.33,136,265.91,131.73Z" style="fill:#ffcbf9;stroke:#ffcbf9;stroke-linecap:round;stroke-linejoin:round"/></g></g></g></svg>