<svg xmlns="http://www.w3.org/2000/svg" viewBox="0 0 391.37 353.4"><title>Asset 4</title><g style="isolation:isolate"><g id="Layer_2" data-name="Layer 2"><g id="Layer_1-2" data-name="Layer 1"><g style="opacity:0.12;mix-blend-mode:multiply"><path d="M11.41,115.9,56.9,41.51A36.8,36.8,0,0,1,85.15,24L293.89,6.13A36.79,36.79,0,0,1,324.7,18.54l57.54,65.6a36.8,36.8,0,0,1,3.07,44.5L248.24,336.83A36.8,36.8,0,0,1,191,342.11L16.29,160.62A36.79,36.79,0,0,1,11.41,115.9Z" style="fill:#68374f"/></g><path d="M5.41,109.9,50.9,35.51A36.8,36.8,0,0,1,79.15,18L287.89.13A36.79,36.79,0,0,1,318.7,12.54l57.54,65.6a36.8,36.8,0,0,1,3.07,44.5L242.24,330.83A36.8,36.8,0,0,1,185,336.11L10.29,154.62A36.79,36.79,0,0,1,5.41,109.9Z" style="fill:#fff"/><polygon points="73.73 48.82 292.87 26.7 358.1 98.86 214.46 324.33 24.24 132.56 73.73 48.82" style="fill:#97caeb"/><path d="M215,326.88l-192.58-196L73.88,44.72l1.26-.12L295.35,23.44l66.9,74.73ZM28.69,130.1,214.18,318.91,356,98.67l-62.68-70L76.88,49.45Z" style="fill:#65b2e8"/><path d="M133.34,73.37a1.24,1.24,0,0,1-.27,0,1,1,0,0,1-.75-1.2l6.93-30a1,1,0,0,1,1.2-.74,1,1,0,0,1,.75,1.19l-6.93,30A1,1,0,0,1,133.34,73.37Z" style="fill:#65b2e8"/><path d="M250.81,61.53a1,1,0,0,1-.93-.55L235.65,33.12a1,1,0,1,1,1.78-.91l14.23,27.86a1,1,0,0,1-.43,1.35A1.09,1.09,0,0,1,250.81,61.53Z" style="fill:#65b2e8"/><path d="M308.21,103.66a1,1,0,0,1-1-.9,1,1,0,0,1,.91-1.09l48.4-4.42a1,1,0,1,1,.18,2l-48.4,4.42Z" style="fill:#65b2e8"/><path d="M25.32,131.63a1,1,0,0,1-1-.91,1,1,0,0,1,.9-1.09l45.9-4.33a1,1,0,0,1,.19,2l-45.9,4.33Z" style="fill:#65b2e8"/><path d="M213.66,323.2a1,1,0,0,1-.91-.6l-22.22-50.8-18-41.7a1,1,0,1,1,1.83-.8l18,41.7,21.13,48.32,15.3-50.56,12.61-44.44a1,1,0,1,1,1.92.55l-12.61,44.45-16.09,53.17a1,1,0,0,1-.9.71Z" style="fill:#65b2e8"/><path d="M134.67,181l7-.54,5.52,28.2,16.5-29.87,7.39-.57-22.51,39.42-5.8.45Z" style="fill:#fff"/><path d="M166.91,208.9a9.44,9.44,0,0,1,2.15-7c2.06-2.35,5.37-3.83,9.36-4.13a30.25,30.25,0,0,1,8.83.71l.12-.49a9.9,9.9,0,0,0,.14-2.36c-.2-2.61-2.13-4.12-6.54-3.78a20.29,20.29,0,0,0-7.54,2.13L172,188.88a27.32,27.32,0,0,1,9.85-2.62c7.34-.56,11.46,2.34,11.88,7.81a18.06,18.06,0,0,1-.27,4.14l-3,16-6.22.47.67-3.79a12.18,12.18,0,0,1-8.92,5C171.16,216.28,167.26,213.52,166.91,208.9Zm19.4-5.17.27-1.3a23,23,0,0,0-6.89-.55,7.73,7.73,0,0,0-5.28,2.27,4.75,4.75,0,0,0-1.12,3.51c.17,2.24,2,3.65,4.86,3.43A9.41,9.41,0,0,0,186.31,203.73Z" style="fill:#fff"/><path d="M205.92,174l6.43-.49-7.46,39.62-6.44.49Z" style="fill:#fff"/><path d="M215,204.49a21.7,21.7,0,0,1,.48-5l2.92-15.63,6.44-.49-3,15.9a13.88,13.88,0,0,0-.15,2.85c.21,2.82,2.14,4.27,5.17,4,3.62-.27,6.38-3.37,7.18-7.61l3.05-16.11,6.43-.49-5.36,28.64-6.43.49.68-3.68c-2.06,2.4-4.62,4.58-8.19,4.85C219,212.63,215.38,209.64,215,204.49Z" style="fill:#fff"/><path d="M253.45,197.54c.32,4.26,3,7,7.83,6.63a11.25,11.25,0,0,0,7-3.26l3.4,3.86A16.39,16.39,0,0,1,261,209.48c-7.82.6-13.12-3.76-13.7-11.31a17.63,17.63,0,0,1,4.23-12.62,16,16,0,0,1,11-5.66c7.24-.55,11.59,3.93,12.05,10.05a15.78,15.78,0,0,1-.76,6.05Zm.36-4.3,14.57-1.11a6.32,6.32,0,0,0,.12-2c-.22-2.93-2.11-5.24-6-4.95a9.13,9.13,0,0,0-6.28,3.26A11.81,11.81,0,0,0,253.81,193.24Z" style="fill:#fff"/><path d="M113.75,85.73l-1,4.75a21.71,21.71,0,0,1,11,5.19l-5.11,5.87A19.32,19.32,0,0,0,111,97.65l-2.64,12.71c7.11,2,11.47,4.81,12,11.33.64,8.38-6.76,14.77-17.14,15.56l-.4,0L101.33,144l-5.79.44,1.52-7.21a21.88,21.88,0,0,1-14.24-6.88l5.61-5.51A18.34,18.34,0,0,0,98.86,130l2.8-13.26c-7.11-2-11.71-4.53-12.23-11.25-.61-8,6.52-14.55,16.37-15.3.4,0,.87,0,1.27,0l.89-4ZM103.4,108.86l2.4-11.55c-5.65.43-8.3,3.44-8,6.7C97.93,106.34,99.35,107.5,103.4,108.86Zm3.19,9.33-2.51,11.9c5.18-.6,8.12-3.3,7.84-7C111.75,120.87,110.3,119.51,106.59,118.19Z" style="fill:#ed3fa8;stroke:#ed3fa8;stroke-linecap:round;stroke-linejoin:round;stroke-width:3px"/><path d="M149.68,97.52l-14.05,4.76-1.08-11.4,21.8-8.17,9.16-.69L150.94,159.5l-13.14,1Z" style="fill:#ed3fa8;stroke:#ed3fa8;stroke-linecap:round;stroke-linejoin:round;stroke-width:3px"/><path d="M170,145.7l9-8.49c5.41,5.65,11.58,8.43,19.45,7.83,10.66-.81,17.47-8.15,16.87-15.91-.51-6.78-6.37-11.21-16.18-10.46a30.41,30.41,0,0,0-12,4.06l-7.32-5.08,9-36.87,44.27-3.37-2.34,12-32.31,2.47L194,109.63a31.85,31.85,0,0,1,9.57-2.46c14.11-1.07,24.32,6.49,25.32,19.63a25.47,25.47,0,0,1-6.46,18.91c-5.28,6.14-13.5,10.56-24.16,11.37C186.79,158,175.78,152.84,170,145.7Z" style="fill:#ed3fa8;stroke:#ed3fa8;stroke-linecap:round;stroke-linejoin:round;stroke-width:3px"/><path d="M308.43,100.92c1,13.46-3.19,27.86-11.84,38a35.15,35.15,0,0,1-24.38,12.69c-17.35,1.32-29.16-10.13-30.54-28.22-1-13.47,3.19-27.87,11.84-37.95A35.37,35.37,0,0,1,278,72.69C295.34,71.36,307.05,82.82,308.43,100.92ZM285.67,132c6.57-7.54,9.88-19.6,9.08-30-.86-11.31-7.11-18-16.91-17.24-5.17.4-9.83,3.24-13.4,7.52-6.47,7.54-9.89,19.61-9.09,30.05.86,11.31,7.11,18,16.91,17.24C277.54,139.13,282.09,136.29,285.67,132Z" style="fill:#ed3fa8;stroke:#ed3fa8;stroke-linecap:round;stroke-linejoin:round;stroke-width:3px"/><path d="M109.13,84.06l-1,4.76a21.7,21.7,0,0,1,11,5.18l-5.1,5.88a19.38,19.38,0,0,0-7.73-3.9l-2.64,12.72c7.11,2,11.47,4.81,12,11.33.64,8.38-6.77,14.76-17.15,15.55l-.4,0-1.43,6.67-5.79.44,1.53-7.21a21.82,21.82,0,0,1-14.24-6.87l5.6-5.51a18.35,18.35,0,0,0,10.44,5.22L97,115.09c-7.11-2-11.72-4.53-12.23-11.24-.61-8,6.52-14.55,16.36-15.3.4,0,.87,0,1.27,0l.9-4ZM98.78,107.2l2.4-11.56c-5.66.43-8.31,3.44-8.06,6.7C93.3,104.67,94.73,105.83,98.78,107.2Zm3.18,9.32-2.5,11.9c5.17-.59,8.11-3.29,7.83-6.95C107.12,119.21,105.68,117.85,102,116.52Z" style="fill:#fff;stroke:#fff;stroke-linecap:round;stroke-linejoin:round;stroke-width:2px"/><path d="M145.05,95.86l-14,4.75-1.09-11.4,21.81-8.16,9.15-.7-14.57,77.48-13.14,1Z" style="fill:#fff;stroke:#fff;stroke-linecap:round;stroke-linejoin:round;stroke-width:2px"/><path d="M165.41,144l9-8.48c5.42,5.65,11.59,8.43,19.45,7.83,10.66-.81,17.47-8.16,16.88-15.91-.52-6.79-6.38-11.21-16.18-10.47a30.57,30.57,0,0,0-12,4.06L175.19,116l9-36.87,44.26-3.38-2.33,12-32.31,2.46L189.42,108a31.28,31.28,0,0,1,9.56-2.46c14.11-1.08,24.33,6.48,25.33,19.62A25.41,25.41,0,0,1,217.84,144c-5.27,6.15-13.49,10.56-24.16,11.38C182.16,156.3,171.15,151.18,165.41,144Z" style="fill:#fff;stroke:#fff;stroke-linecap:round;stroke-linejoin:round;stroke-width:2px"/><path d="M303.8,99.25c1,13.47-3.18,27.87-11.84,37.95a35.15,35.15,0,0,1-24.38,12.69c-17.34,1.33-29.15-10.12-30.53-28.22-1-13.46,3.18-27.87,11.84-37.95A35.39,35.39,0,0,1,273.38,71C290.72,69.7,302.42,81.16,303.8,99.25ZM281,130.34c6.57-7.54,9.88-19.6,9.08-30-.86-11.31-7.11-18-16.91-17.23-5.17.39-9.83,3.24-13.4,7.52-6.47,7.53-9.88,19.6-9.09,30.05.87,11.31,7.12,18,16.92,17.24C272.92,137.46,277.47,134.62,281,130.34Z" style="fill:#fff;stroke:#fff;stroke-linecap:round;stroke-linejoin:round;stroke-width:2px"/><path d="M110.88,84.58l-1,4.76a21.65,21.65,0,0,1,11,5.18l-5.11,5.87a19.32,19.32,0,0,0-7.72-3.89l-2.65,12.71c7.11,2,11.48,4.81,12,11.33.64,8.38-6.77,14.77-17.14,15.56l-.4,0-1.44,6.67-5.78.44L94.19,136A21.83,21.83,0,0,1,80,129.15l5.6-5.51A18.37,18.37,0,0,0,96,128.87l2.8-13.26c-7.11-2-11.72-4.53-12.23-11.25-.61-8,6.52-14.55,16.36-15.3.4,0,.87,0,1.27,0l.9-4Zm-10.35,23.13,2.4-11.55c-5.65.43-8.3,3.44-8.05,6.7C95.05,105.19,96.48,106.35,100.53,107.71Zm3.19,9.33-2.51,11.9c5.18-.6,8.11-3.3,7.84-7C108.87,119.72,107.43,118.36,103.72,117Z" style="fill:#ffcbf9;stroke:#ffcbf9;stroke-linecap:round;stroke-linejoin:round"/><path d="M146.81,96.37l-14.05,4.76-1.08-11.4,21.8-8.17,9.15-.69-14.57,77.48-13.14,1Z" style="fill:#ffcbf9;stroke:#ffcbf9;stroke-linecap:round;stroke-linejoin:round"/><path d="M167.16,144.55l9-8.49c5.41,5.65,11.58,8.43,19.44,7.83,10.67-.81,17.47-8.15,16.88-15.91-.51-6.78-6.38-11.21-16.18-10.46a30.41,30.41,0,0,0-12,4.06l-7.32-5.08,9-36.87,44.27-3.37-2.34,12-32.31,2.46-4.39,17.77a31.86,31.86,0,0,1,9.56-2.46c14.11-1.07,24.33,6.49,25.33,19.63a25.47,25.47,0,0,1-6.46,18.91c-5.28,6.14-13.5,10.56-24.16,11.37C183.91,156.81,172.91,151.69,167.16,144.55Z" style="fill:#ffcbf9;stroke:#ffcbf9;stroke-linecap:round;stroke-linejoin:round"/><path d="M305.56,99.77c1,13.46-3.19,27.86-11.84,38a35.15,35.15,0,0,1-24.39,12.69c-17.34,1.32-29.15-10.13-30.53-28.22-1-13.47,3.18-27.87,11.84-37.95a35.41,35.41,0,0,1,24.49-12.7C292.47,70.22,304.18,81.67,305.56,99.77Zm-22.77,31.09c6.58-7.54,9.88-19.6,9.09-30.05-.86-11.31-7.11-18-16.91-17.24-5.17.4-9.83,3.24-13.41,7.53-6.46,7.53-9.88,19.6-9.08,30,.86,11.31,7.11,18,16.91,17.24C274.67,138,279.22,135.14,282.79,130.86Z" style="fill:#ffcbf9;stroke:#ffcbf9;stroke-linecap:round;stroke-linejoin:round"/></g></g></g></svg>