<svg xmlns="http://www.w3.org/2000/svg" viewBox="0 0 391.37 353.4"><title>Asset 1</title><g style="isolation:isolate"><g id="Layer_2" data-name="Layer 2"><g id="Layer_1-2" data-name="Layer 1"><g style="opacity:0.12;mix-blend-mode:multiply"><path d="M11.41,115.9,56.9,41.51A36.8,36.8,0,0,1,85.15,24L293.89,6.13A36.79,36.79,0,0,1,324.7,18.54l57.54,65.6a36.8,36.8,0,0,1,3.07,44.5L248.24,336.83A36.8,36.8,0,0,1,191,342.11L16.29,160.62A36.79,36.79,0,0,1,11.41,115.9Z" style="fill:#68374f"/><polygon points="79.73 54.82 298.87 32.7 364.1 104.86 220.46 330.33 30.24 138.56 79.73 54.82" style="fill:#68374f"/><path d="M221,332.88l-192.58-196L79.88,50.72l1.26-.12L301.35,29.44l66.9,74.73ZM34.69,136.1,220.18,324.91,362,104.67l-62.68-70L82.88,55.45Z" style="fill:#68374f"/><path d="M139.34,79.37a1.24,1.24,0,0,1-.27,0,1,1,0,0,1-.75-1.2l6.93-30a1,1,0,0,1,1.2-.74,1,1,0,0,1,.75,1.19l-6.93,30A1,1,0,0,1,139.34,79.37Z" style="fill:#68374f"/><path d="M256.81,67.53a1,1,0,0,1-.93-.55L241.65,39.12a1,1,0,1,1,1.78-.91l14.23,27.86a1,1,0,0,1-.43,1.35A1.09,1.09,0,0,1,256.81,67.53Z" style="fill:#68374f"/><path d="M314.21,109.66a1,1,0,0,1-1-.9,1,1,0,0,1,.91-1.09l48.4-4.42a1,1,0,1,1,.18,2l-48.4,4.42Z" style="fill:#68374f"/><path d="M31.32,137.63a1,1,0,0,1-1-.91,1,1,0,0,1,.9-1.09l45.9-4.33a1,1,0,1,1,.19,2l-45.9,4.33Z" style="fill:#68374f"/><path d="M219.66,329.2a1,1,0,0,1-.91-.6l-22.22-50.8-18-41.7a1,1,0,1,1,1.83-.8l18,41.7,21.13,48.32,15.3-50.56,12.61-44.44a1,1,0,1,1,1.92.55l-12.61,44.45-16.09,53.17a1,1,0,0,1-.9.71Z" style="fill:#68374f"/><path d="M140.67,187l7-.54,5.52,28.2,16.5-29.87,7.39-.57-22.51,39.42-5.8.45Z" style="fill:#68374f"/><path d="M172.91,214.9a9.44,9.44,0,0,1,2.15-7c2.06-2.35,5.37-3.83,9.36-4.13a30.25,30.25,0,0,1,8.83.71l.12-.49a9.9,9.9,0,0,0,.14-2.36c-.2-2.61-2.13-4.12-6.54-3.78a20.29,20.29,0,0,0-7.54,2.13L178,194.88a27.32,27.32,0,0,1,9.85-2.62c7.34-.56,11.46,2.34,11.88,7.81a18.06,18.06,0,0,1-.27,4.14l-3,16-6.22.47.67-3.79a12.18,12.18,0,0,1-8.92,5C177.16,222.28,173.26,219.52,172.91,214.9Zm19.4-5.17.27-1.3a23,23,0,0,0-6.89-.55,7.73,7.73,0,0,0-5.28,2.27,4.75,4.75,0,0,0-1.12,3.51c.17,2.24,2,3.65,4.86,3.43A9.41,9.41,0,0,0,192.31,209.73Z" style="fill:#68374f"/><path d="M211.92,180l6.43-.49-7.46,39.62-6.44.49Z" style="fill:#68374f"/><path d="M221,210.49a21.7,21.7,0,0,1,.48-5l2.92-15.63,6.44-.49-3,15.9a13.88,13.88,0,0,0-.15,2.85c.21,2.82,2.14,4.27,5.17,4,3.62-.27,6.38-3.37,7.18-7.61l3.05-16.11,6.43-.49-5.36,28.64-6.43.49.68-3.68c-2.06,2.4-4.62,4.58-8.19,4.85C225,218.63,221.38,215.64,221,210.49Z" style="fill:#68374f"/><path d="M259.45,203.54c.32,4.26,3,7,7.83,6.63a11.25,11.25,0,0,0,7-3.26l3.4,3.86A16.39,16.39,0,0,1,267,215.48c-7.82.6-13.12-3.76-13.7-11.31a17.63,17.63,0,0,1,4.23-12.62,16,16,0,0,1,11-5.66c7.24-.55,11.59,3.93,12.05,10.05a15.78,15.78,0,0,1-.76,6.05Zm.36-4.3,14.57-1.11a6.32,6.32,0,0,0,.12-2c-.22-2.93-2.11-5.24-6-4.95a9.13,9.13,0,0,0-6.28,3.26A11.81,11.81,0,0,0,259.81,199.24Z" style="fill:#68374f"/></g><path d="M5.41,109.9,50.9,35.51A36.8,36.8,0,0,1,79.15,18L287.89.13A36.79,36.79,0,0,1,318.7,12.54l57.54,65.6a36.8,36.8,0,0,1,3.07,44.5L242.24,330.83A36.8,36.8,0,0,1,185,336.11L10.29,154.62A36.79,36.79,0,0,1,5.41,109.9Z" style="fill:#fff"/><polygon points="73.73 48.82 292.87 26.7 358.1 98.86 214.46 324.33 24.24 132.56 73.73 48.82" style="fill:#97caeb"/><path d="M215,326.88l-192.58-196L73.88,44.72l1.26-.12L295.35,23.44l66.9,74.73ZM28.69,130.1,214.18,318.91,356,98.67l-62.68-70L76.88,49.45Z" style="fill:#65b2e8"/><path d="M133.34,73.37a1.24,1.24,0,0,1-.27,0,1,1,0,0,1-.75-1.2l6.93-30a1,1,0,0,1,1.2-.74,1,1,0,0,1,.75,1.19l-6.93,30A1,1,0,0,1,133.34,73.37Z" style="fill:#65b2e8"/><path d="M250.81,61.53a1,1,0,0,1-.93-.55L235.65,33.12a1,1,0,1,1,1.78-.91l14.23,27.86a1,1,0,0,1-.43,1.35A1.09,1.09,0,0,1,250.81,61.53Z" style="fill:#65b2e8"/><path d="M308.21,103.66a1,1,0,0,1-1-.9,1,1,0,0,1,.91-1.09l48.4-4.42a1,1,0,1,1,.18,2l-48.4,4.42Z" style="fill:#65b2e8"/><path d="M25.32,131.63a1,1,0,0,1-1-.91,1,1,0,0,1,.9-1.09l45.9-4.33a1,1,0,0,1,.19,2l-45.9,4.33Z" style="fill:#65b2e8"/><path d="M213.66,323.2a1,1,0,0,1-.91-.6l-22.22-50.8-18-41.7a1,1,0,1,1,1.83-.8l18,41.7,21.13,48.32,15.3-50.56,12.61-44.44a1,1,0,1,1,1.92.55l-12.61,44.45-16.09,53.17a1,1,0,0,1-.9.71Z" style="fill:#65b2e8"/><path d="M134.67,181l7-.54,5.52,28.2,16.5-29.87,7.39-.57-22.51,39.42-5.8.45Z" style="fill:#fff"/><path d="M166.91,208.9a9.44,9.44,0,0,1,2.15-7c2.06-2.35,5.37-3.83,9.36-4.13a30.25,30.25,0,0,1,8.83.71l.12-.49a9.9,9.9,0,0,0,.14-2.36c-.2-2.61-2.13-4.12-6.54-3.78a20.29,20.29,0,0,0-7.54,2.13L172,188.88a27.32,27.32,0,0,1,9.85-2.62c7.34-.56,11.46,2.34,11.88,7.81a18.06,18.06,0,0,1-.27,4.14l-3,16-6.22.47.67-3.79a12.18,12.18,0,0,1-8.92,5C171.16,216.28,167.26,213.52,166.91,208.9Zm19.4-5.17.27-1.3a23,23,0,0,0-6.89-.55,7.73,7.73,0,0,0-5.28,2.27,4.75,4.75,0,0,0-1.12,3.51c.17,2.24,2,3.65,4.86,3.43A9.41,9.41,0,0,0,186.31,203.73Z" style="fill:#fff"/><path d="M205.92,174l6.43-.49-7.46,39.62-6.44.49Z" style="fill:#fff"/><path d="M215,204.49a21.7,21.7,0,0,1,.48-5l2.92-15.63,6.44-.49-3,15.9a13.88,13.88,0,0,0-.15,2.85c.21,2.82,2.14,4.27,5.17,4,3.62-.27,6.38-3.37,7.18-7.61l3.05-16.11,6.43-.49-5.36,28.64-6.43.49.68-3.68c-2.06,2.4-4.62,4.58-8.19,4.85C219,212.63,215.38,209.64,215,204.49Z" style="fill:#fff"/><path d="M253.45,197.54c.32,4.26,3,7,7.83,6.63a11.25,11.25,0,0,0,7-3.26l3.4,3.86A16.39,16.39,0,0,1,261,209.48c-7.82.6-13.12-3.76-13.7-11.31a17.63,17.63,0,0,1,4.23-12.62,16,16,0,0,1,11-5.66c7.24-.55,11.59,3.93,12.05,10.05a15.78,15.78,0,0,1-.76,6.05Zm.36-4.3,14.57-1.11a6.32,6.32,0,0,0,.12-2c-.22-2.93-2.11-5.24-6-4.95a9.13,9.13,0,0,0-6.28,3.26A11.81,11.81,0,0,0,253.81,193.24Z" style="fill:#fff"/><path d="M114.31,85.77l-1,4.75a21.66,21.66,0,0,1,11,5.19l-5.11,5.87a19.32,19.32,0,0,0-7.72-3.89l-2.65,12.71c7.11,2,11.48,4.81,12,11.33.64,8.38-6.77,14.77-17.14,15.56l-.4,0L101.88,144l-5.78.45,1.52-7.21a21.88,21.88,0,0,1-14.24-6.88L89,124.83a18.4,18.4,0,0,0,10.43,5.23l2.8-13.26c-7.11-2-11.72-4.53-12.23-11.25-.61-8,6.52-14.55,16.36-15.3.4,0,.87,0,1.27,0l.9-4ZM104,108.9l2.4-11.55c-5.65.43-8.3,3.44-8,6.7C98.48,106.38,99.91,107.54,104,108.9Zm3.19,9.33-2.51,11.9c5.18-.6,8.11-3.3,7.84-7C112.3,120.91,110.86,119.55,107.15,118.23Z" style="fill:#ed3fa8;stroke:#ed3fa8;stroke-linecap:round;stroke-linejoin:round;stroke-width:3px"/><path d="M150.24,97.56l-14.05,4.75-1.08-11.4,21.8-8.16,9.15-.69-14.57,77.48-13.14,1Z" style="fill:#ed3fa8;stroke:#ed3fa8;stroke-linecap:round;stroke-linejoin:round;stroke-width:3px"/><path d="M218.15,90.33l-37.26,2.84,2.23-11.87,53-4-1.92,10.22-43.6,69.08L175,157.75Z" style="fill:#ed3fa8;stroke:#ed3fa8;stroke-linecap:round;stroke-linejoin:round;stroke-width:3px"/><path d="M235.83,133.18c-.89-11.63,7.54-19,18.88-22.35a16.47,16.47,0,0,1-11.05-14.21c-.79-10.34,8.64-21.68,26.3-23,15.4-1.18,26.81,6.29,27.69,17.93.75,9.8-5.72,17.33-15.89,20.38,6.88,2.08,12.69,7.27,13.31,15.46.9,11.73-10.37,23.1-29.11,24.53C250.13,153.11,236.76,145.46,235.83,133.18ZM282,127.71c-.47-6.24-7.21-10.71-17-10-10.23.78-16.6,6.68-16.09,13.36.37,6.36,7.2,10.61,16.89,9.87C275.69,140.22,282.43,134.83,282,127.71ZM285.17,94c-.34-5.83-6-10.06-14.91-9.38-8.51.65-14.39,6-14,12.44.34,5.94,6.3,10.14,14.7,9.5C280.11,105.86,285.63,100.13,285.17,94Z" style="fill:#ed3fa8;stroke:#ed3fa8;stroke-linecap:round;stroke-linejoin:round;stroke-width:3px"/><path d="M109.68,84.1l-1,4.76a21.62,21.62,0,0,1,11,5.18l-5.11,5.88a19.28,19.28,0,0,0-7.72-3.9l-2.64,12.71c7.11,2,11.47,4.82,12,11.34.64,8.38-6.77,14.76-17.15,15.55l-.4,0-1.43,6.67-5.79.44L93,135.55a21.82,21.82,0,0,1-14.24-6.87l5.6-5.52a18.31,18.31,0,0,0,10.43,5.23l2.81-13.26c-7.11-2-11.72-4.53-12.23-11.24-.61-8,6.51-14.55,16.36-15.3.4,0,.87,0,1.27,0l.9-4ZM99.34,107.24l2.39-11.56c-5.65.43-8.3,3.44-8,6.7C93.86,104.71,95.29,105.87,99.34,107.24Zm3.18,9.32-2.5,11.9c5.17-.59,8.11-3.29,7.83-7C107.68,119.25,106.24,117.88,102.52,116.56Z" style="fill:#fff;stroke:#fff;stroke-linecap:round;stroke-linejoin:round;stroke-width:2px"/><path d="M145.61,95.9l-14,4.75-1.09-11.4,21.8-8.16,9.16-.7-14.57,77.48-13.14,1Z" style="fill:#fff;stroke:#fff;stroke-linecap:round;stroke-linejoin:round;stroke-width:2px"/><path d="M213.53,88.66,176.26,91.5l2.24-11.87,53-4-1.93,10.23L186,154.89l-15.62,1.19Z" style="fill:#fff;stroke:#fff;stroke-linecap:round;stroke-linejoin:round;stroke-width:2px"/><path d="M231.2,131.52c-.88-11.64,7.55-19,18.88-22.35A16.5,16.5,0,0,1,239,95c-.79-10.34,8.64-21.67,26.31-23,15.4-1.17,26.8,6.3,27.69,17.93.74,9.8-5.72,17.34-15.89,20.39,6.87,2.07,12.69,7.26,13.31,15.45.89,11.74-10.37,23.11-29.11,24.53C245.5,151.44,232.14,143.79,231.2,131.52Zm46.17-5.47c-.48-6.25-7.21-10.72-17-10-10.23.78-16.61,6.68-16.1,13.36.38,6.36,7.2,10.61,16.89,9.87C271.06,138.55,277.8,133.16,277.37,126.05Zm3.17-33.72c-.34-5.82-6-10-14.91-9.37-8.5.65-14.38,6-14,12.44.35,5.93,6.3,10.14,14.7,9.5C275.49,104.2,281,98.47,280.54,92.33Z" style="fill:#fff;stroke:#fff;stroke-linecap:round;stroke-linejoin:round;stroke-width:2px"/><path d="M111.44,84.62l-1,4.76a21.62,21.62,0,0,1,11,5.18l-5.1,5.87a19.32,19.32,0,0,0-7.72-3.89L106,109.25c7.11,2,11.47,4.81,12,11.33.64,8.38-6.77,14.77-17.15,15.56l-.39,0L99,142.84l-5.78.44,1.52-7.21a21.81,21.81,0,0,1-14.24-6.88l5.6-5.51a18.37,18.37,0,0,0,10.44,5.23l2.8-13.26c-7.11-2-11.72-4.53-12.23-11.25-.61-8,6.52-14.55,16.36-15.3.4,0,.87,0,1.27,0l.9-4Zm-10.35,23.13,2.4-11.55c-5.66.43-8.3,3.44-8.06,6.7C95.61,105.23,97,106.39,101.09,107.75Zm3.19,9.33L101.77,129c5.17-.6,8.11-3.3,7.83-7C109.43,119.76,108,118.4,104.28,117.08Z" style="fill:#ffcbf9;stroke:#ffcbf9;stroke-linecap:round;stroke-linejoin:round"/><path d="M147.37,96.41l-14.05,4.76-1.08-11.4L154,81.6l9.15-.69-14.57,77.48-13.14,1Z" style="fill:#ffcbf9;stroke:#ffcbf9;stroke-linecap:round;stroke-linejoin:round"/><path d="M215.28,89.18,178,92l2.24-11.87,53-4-1.93,10.22-43.59,69.08L172.1,156.6Z" style="fill:#ffcbf9;stroke:#ffcbf9;stroke-linecap:round;stroke-linejoin:round"/><path d="M233,132c-.89-11.63,7.54-19,18.88-22.35a16.47,16.47,0,0,1-11.05-14.21c-.79-10.34,8.64-21.68,26.3-23,15.4-1.18,26.8,6.3,27.69,17.93.75,9.8-5.72,17.33-15.89,20.38,6.88,2.08,12.69,7.27,13.31,15.46.9,11.74-10.37,23.1-29.11,24.53C247.26,152,233.89,144.31,233,132Zm46.16-5.47c-.47-6.24-7.21-10.71-17-10-10.23.78-16.61,6.68-16.1,13.36.38,6.37,7.2,10.61,16.9,9.87C272.82,139.07,279.55,133.68,279.12,126.56Zm3.17-33.71c-.33-5.83-6-10.06-14.9-9.38-8.51.65-14.39,6-14,12.45.34,5.93,6.29,10.13,14.69,9.49C277.24,104.72,282.76,99,282.29,92.85Z" style="fill:#ffcbf9;stroke:#ffcbf9;stroke-linecap:round;stroke-linejoin:round"/></g></g></g></svg>