<svg height="25" width="26" xmlns="http://www.w3.org/2000/svg"><path d="m25.819 17.464c-.056 1.153-.241 2.049-.598 2.903-.349.834-.807 1.488-1.484 2.117s-1.38 1.055-2.279 1.379c-.919.332-1.882.505-3.124.557-1.371.056-1.827.07-5.303.07-3.475 0-3.931-.014-5.303-.07-1.242-.052-2.205-.225-3.123-.557-.899-.324-1.603-.75-2.279-1.379-.678-.629-1.135-1.283-1.485-2.117-.357-.854-.541-1.75-.598-2.903-.063-1.274-.077-1.699-.077-4.927 0-3.229.014-3.652.077-4.929.057-1.153.241-2.047.598-2.9.35-.838.808-1.49 1.485-2.119.676-.629 1.38-1.052 2.279-1.38.918-.329 1.881-.501 3.123-.555 1.369-.058 1.824-.071 5.303-.071s3.935.013 5.303.071c1.242.054 2.205.226 3.124.555.899.328 1.602.751 2.279 1.38s1.135 1.281 1.484 2.119c.357.854.542 1.748.598 2.9.063 1.277.078 1.7.078 4.929 0 3.228-.015 3.653-.078 4.927zm-2.322-9.755c-.057-1.166-.267-1.798-.442-2.219-.234-.559-.512-.957-.962-1.375-.45-.417-.877-.675-1.477-.892-.454-.162-1.134-.358-2.388-.411-1.354-.058-1.76-.07-5.197-.07-3.436 0-3.843.012-5.197.07-1.253.053-1.934.249-2.387.411-.6.217-1.028.475-1.478.892-.449.419-.728.816-.961 1.375-.176.421-.386 1.053-.443 2.219-.061 1.257-.075 1.634-.075 4.828s.014 3.571.075 4.829c.057 1.164.267 1.797.443 2.217.233.558.512.956.961 1.374.45.418.878.677 1.478.893.453.164 1.133.358 2.387.412 1.354.057 1.76.07 5.197.07s3.844-.013 5.197-.07c1.254-.054 1.934-.248 2.388-.412.599-.216 1.027-.475 1.477-.893s.728-.816.962-1.374c.175-.42.385-1.052.442-2.217.062-1.262.075-1.639.075-4.829s-.013-3.568-.075-4.828zm-3.6-.118c-.852 0-1.544-.641-1.544-1.434 0-.791.692-1.433 1.544-1.433s1.543.642 1.543 1.433c0 .793-.691 1.434-1.543 1.434zm-6.866 11.022c-3.611 0-6.539-2.721-6.539-6.076s2.928-6.076 6.539-6.076 6.539 2.721 6.539 6.076-2.928 6.076-6.539 6.076zm0-10.02c-2.344 0-4.244 1.765-4.244 3.944 0 2.178 1.9 3.943 4.244 3.943s4.245-1.765 4.245-3.943c0-2.179-1.901-3.944-4.245-3.944z" fill="#d8d8d8" fill-rule="evenodd"/></svg>