<?xml version="1.0" encoding="UTF-8"?>
<svg width="170px" height="86px" viewBox="0 0 170 86" version="1.1" xmlns="http://www.w3.org/2000/svg" xmlns:xlink="http://www.w3.org/1999/xlink">
    <!-- Generator: Sketch 50.2 (55047) - http://www.bohemiancoding.com/sketch -->
    <title>logo-2-lines</title>
    <desc>Created with Sketch.</desc>
    <defs></defs>
    <g id="Page-1" stroke="none" stroke-width="1" fill="none" fill-rule="evenodd">
        <g id="logo-2-lines" fill="#ED3FA8" fill-rule="nonzero">
            <path d="M28.625,17 C28.279822,17 28,16.7263687 28,16.3888274 L28,0.611172566 C28,0.273631278 28.279822,0 28.625,0 L31.2980769,0 C34.3653846,0 36,1.34457965 36,5.09623894 C36,8.84789823 34.3365385,10.2018805 31.2980769,10.2018805 L30.625,10.2018805 C30.3366405,10.2018339 30.1013967,10.4276907 30.0961538,10.7096239 L30.0961538,16.3512168 C30.0961538,16.6887581 29.8163318,16.9623894 29.4711538,16.9623894 L28.625,17 Z M33.9326923,5.09623894 C33.9326923,2.69856195 33.1923077,1.87112832 31.2980769,1.87112832 L30.625,1.87112832 C30.3329263,1.87112832 30.0961538,2.10266248 30.0961538,2.38827434 L30.0961538,7.81360619 C30.1013967,8.09553941 30.3366405,8.32139617 30.625,8.32134956 L31.3269231,8.32134956 C33.1923077,8.32134956 33.9326923,7.52212389 33.9326923,5.09623894 Z" id="Shape"></path>
            <path d="M47,0.562989607 C47.0051504,0.250590685 47.2612955,3.63057866e-05 47.5754717,7.82920212e-05 L53.4245283,7.82920212e-05 C53.5762787,-0.00243726249 53.7226881,0.0557569115 53.83089,0.161597143 C53.9390919,0.267437374 54.0000211,0.412056425 54,0.562989607 L54,1.30415617 C54.0000211,1.45508935 53.9390919,1.5997084 53.83089,1.70554864 C53.7226881,1.81138887 53.5762787,1.86958304 53.4245283,1.86706749 L49.5566038,1.86706749 C49.2960921,1.86706749 49.0849057,2.07708747 49.0849057,2.33616025 L49.0849057,7.02708787 C49.0849057,7.28616065 49.2960921,7.49618063 49.5566038,7.49618063 L52.8301887,7.49618063 C53.1428027,7.49618063 53.3962264,7.74820461 53.3962264,8.05909195 L53.3962264,8.80025851 C53.3962264,9.11114585 53.1428027,9.36316983 52.8301887,9.36316983 L49.509434,9.36316983 C49.2489223,9.36316983 49.0377358,9.57318981 49.0377358,9.83226259 L49.0377358,14.663918 C49.03771,14.787484 49.0877055,14.9058579 49.1764481,14.9923452 C49.2651907,15.0788326 49.3852076,15.1261507 49.509434,15.123629 L53.4245283,15.123629 C53.7423525,15.123629 54,15.3798533 54,15.6959221 L54,16.4277068 C54,16.7437756 53.7423525,17 53.4245283,17 L47.5754717,17 C47.2576475,17 47,16.7437756 47,16.4277068 L47,0.562989607 Z" id="Shape"></path>
            <path d="M68.5178571,17 C68.251577,17 68.0357143,16.7726756 68.0357143,16.4922566 L68.0357143,2.28484513 C68.0357143,2.05635565 67.8598262,1.87112832 67.6428571,1.87112832 L65.4821429,1.87112832 C65.2158627,1.87112832 65,1.64380387 65,1.36338496 L65,0.507743363 C65,0.227324447 65.2158627,0 65.4821429,0 L72.5178571,0 C72.7841373,0 73,0.227324447 73,0.507743363 L73,1.36338496 C73,1.49804687 72.949203,1.62719338 72.8587836,1.72241373 C72.7683643,1.81763408 72.6457294,1.87112832 72.5178571,1.87112832 L70.3482143,1.87112832 C70.1312453,1.87112832 69.9553571,2.05635565 69.9553571,2.28484513 L69.9553571,16.4922566 C69.9553571,16.7726756 69.7394944,17 69.4732143,17 L68.5178571,17 Z" id="Shape"></path>
            <path d="M85,0.525386313 C85,0.235223465 85.2365288,0 85.5283019,0 L86.4716981,0 C86.7613584,0.00501089968 86.9949613,0.237324576 87,0.525386313 L87,16.4746137 C86.9949613,16.7626754 86.7613584,16.9949891 86.4716981,17 L85.5283019,17 C85.2365288,17 85,16.7647765 85,16.4746137 L85,0.525386313 Z" id="Shape"></path>
            <path d="M101.91,17 C101.77474,17 101.645019,16.9495056 101.549376,16.859625 C101.453732,16.7697444 101.4,16.6478401 101.4,16.5207297 L101.4,2.25538972 C101.4,2.15569529 101.357857,2.06008409 101.282843,1.98958949 C101.207828,1.91909489 101.106087,1.87949143 101,1.87949143 L98.5,1.87949143 C98.2238576,1.87949143 98,1.66912219 98,1.40961857 L98,0.469872858 C98,0.210369244 98.2238576,0 98.5,0 L106.5,0 C106.776142,0 107,0.210369244 107,0.469872858 L107,1.40961857 C107,1.66912219 106.776142,1.87949143 106.5,1.87949143 L103.95,1.87949143 C103.844809,1.87945893 103.744065,1.91935962 103.670632,1.99013796 C103.597198,2.0609163 103.557303,2.15656981 103.56,2.25538972 L103.56,16.5207297 C103.56,16.7854234 103.331665,17 103.05,17 L101.91,17 Z" id="Shape"></path>
            <path d="M118,0.517146018 C118.00518,0.230019741 118.241803,-4.57899481e-05 118.531886,0 L124.468114,0 C124.758197,-4.57899481e-05 124.99482,0.230019741 125,0.517146018 L125,1.3539823 C124.99482,1.64110858 124.758197,1.87117411 124.468114,1.87112832 L120.478969,1.87112832 C120.242918,1.87112832 120.05156,2.06056536 120.05156,2.29424779 L120.05156,7.05199115 C120.05156,7.28567358 120.242918,7.47511062 120.478969,7.47511062 L123.869742,7.47511062 C124.158249,7.47511062 124.39213,7.70664478 124.39213,7.99225664 L124.39213,8.82909292 C124.39213,8.96624857 124.337093,9.09778669 124.239126,9.19477038 C124.14116,9.29175407 124.008288,9.34623894 123.869742,9.34623894 L120.478969,9.34623894 C120.242918,9.34623894 120.05156,9.53567598 120.05156,9.76935841 L120.05156,14.7057522 C120.056725,14.9357546 120.246578,15.1195258 120.478969,15.119469 L124.468114,15.119469 C124.761867,15.119469 125,15.3552129 125,15.6460177 L125,16.4734513 C125,16.7642561 124.761867,17 124.468114,17 L118.531886,17 C118.238133,17 118,16.7642561 118,16.4734513 L118,0.517146018 Z" id="Shape"></path>
            <path d="M133.002354,3.80058826 L133.002354,0.225760394 C132.999208,0.163751399 133.02739,0.103574132 133.079737,0.0605217663 C133.132084,0.0174694002 133.203556,-0.00431283485 133.27599,0.000710697704 L134.725247,0.000710697704 C134.79768,-0.00431283485 134.869152,0.0174694002 134.921499,0.0605217663 C134.973846,0.103574132 135.002028,0.163751399 134.998882,0.225760394 L134.998882,1.79245251 C135.009716,1.98235173 134.941502,2.16939714 134.806324,2.32045372 L133.539491,3.84386705 C133.472849,3.94251794 133.348499,4.00225771 133.215182,3.99967068 C133.153978,4.00289699 133.094355,3.98228627 133.053009,3.94361058 C133.011663,3.90493488 132.993039,3.85235218 133.002354,3.80058826 Z" id="Shape"></path>
            <path d="M146.52139,16.9537933 C146.39481,16.9537933 146.273414,16.9041377 146.183908,16.8157501 C146.094402,16.7273626 146.044118,16.6074834 146.044118,16.4824846 L146.044118,8.86761459 C146.044118,7.47217119 145.548128,6.73286342 144.481283,6.73286342 C143.414439,6.73286342 142.890374,7.4167231 142.890374,8.86761459 L142.890374,16.4824846 C142.890374,16.7427812 142.676692,16.9537933 142.413102,16.9537933 L141.477273,16.9537933 C141.213682,16.9537933 141,16.7427812 141,16.4824846 L141,5.65162582 C141,5.39132921 141.213682,5.18031712 141.477273,5.18031712 L142.413102,5.18031712 C142.676692,5.18031712 142.890374,5.39132921 142.890374,5.65162582 L142.890374,6.36320954 C143.299045,5.48348628 144.214366,4.94336143 145.192513,5.00473152 C147.064171,5.00473152 148,6.14141721 148,8.61809822 L148,16.5286913 C148,16.7889879 147.786318,17 147.522727,17 L146.52139,16.9537933 Z" id="Shape"></path>
            <path d="M170,40.8584358 C170,30.5926263 164.617983,27.8675206 160.955222,27.8675206 C155.059297,27.8675206 151.349817,34.0830016 153.143822,33.3550624 C153.881981,33.0564206 157.357867,30.0793359 160.674908,30.0793359 C163.627543,30.0793359 166.112988,31.6845352 166.112988,40.6064569 C166.112988,51.674866 153.704449,64.6191186 139.324373,68.4268006 C138.147057,68.7347749 138.614246,67.9695055 138.745059,67.8201846 C148.537339,56.4158035 156.292676,43.2662348 156.292676,40.0465036 C156.292676,38.6839507 154.582764,37.8906836 153.414792,37.5173815 C152.830214,37.3278992 152.19476,37.5936758 151.919787,38.1426626 L151.835693,38.3199811 C148.630777,42.2769841 131.914756,62.5846218 126.429958,62.5846218 C123.34651,62.5846218 137.306117,45.5620431 140.240063,41.9783423 C140.628505,41.5069779 140.666315,40.8385447 140.333501,40.3264803 C139.669278,39.4015139 138.595204,38.858156 137.455617,38.8706018 C137.147929,38.8552511 136.849573,38.9785607 136.642708,39.2065738 C133.161352,43.014336 129.913161,47.0284041 126.915834,51.2269034 C125.235193,53.4627334 123.40922,55.5858004 121.449723,57.5823728 C118.64659,60.2701484 115.992956,62.2486498 114.086825,62.2486498 C113.320635,62.2486498 113.105728,61.7446919 113.105728,60.9514248 C113.105728,53.4853815 125.504923,40.102499 132.91454,32.3191489 C133.454505,31.7760145 134.185269,31.4646414 134.951484,31.4512213 C141.015597,31.4512213 145.313735,32.4684697 146.846115,37.3960583 C146.920865,37.6387047 147.294617,37.6387047 147.294617,37.3960583 C147.294617,33.2337392 147.518867,28.3901436 137.203335,27.8115252 C137.662256,27.3898417 138.047525,26.8946403 138.343276,26.3463142 C138.121708,25.2004194 137.448323,24.191555 136.47452,23.546548 C136.145545,23.3281873 135.708173,23.3710919 135.428017,23.6492061 C134.820671,24.237157 133.559261,25.5157169 131.821318,27.2049092 C131.455654,27.5526161 130.986672,27.7720848 130.485158,27.8301903 C127.084022,27.9608461 123.860418,28.2221576 120.82369,28.5394644 C120.515345,28.5394644 120.82369,28.2314902 120.82369,28.2314902 C123.159635,25.786361 124.682671,24.1624966 124.682671,23.8731874 C124.472805,22.7916463 123.84943,21.8342745 122.944728,21.2040769 C122.544578,20.8997884 121.980403,20.9397527 121.627255,21.2974025 C120.599439,22.3239834 118.057931,24.8717707 114.89039,28.1941599 L114.66614,28.4461389 C114.226576,28.9278484 113.674438,29.2933606 113.05901,29.5100501 C107.20046,30.3126497 102.360382,31.0965843 98.7723712,31.0965843 C82.9440092,31.0965843 84.2801696,24.1438315 82.5515705,24.1438315 C81.6171926,24.1438315 82.6356645,34.932264 98.5200891,34.932264 C101.323223,34.932264 104.724359,34.6896176 108.349745,34.3349805 C108.686121,34.3349805 108.929059,34.5122991 108.53662,35.0722523 C105.014016,38.9825925 101.435348,43.1915744 98.650902,46.9619262 C94.0444189,52.2348193 85.9059872,62.1086615 80.9070653,62.1086615 C79.2345289,62.1086615 78.1039316,61.4273851 78.1039316,59.1969046 C78.1039316,56.9664242 79.4868109,54.2226533 81.4022856,51.4695499 C82.6450083,49.7523599 82.8038525,49.4630507 83.7008553,50.1163295 C84.7178903,51.0675426 86.045859,51.6179876 87.438367,51.6655335 C93.3342917,51.6655335 96.3523324,43.1169139 96.3523324,40.1398292 C96.3523324,37.9933417 93.1847912,36.4068075 90.951628,36.4068075 C88.7184647,36.4068075 83.8690433,40.9330963 80.0007188,46.149994 C78.972903,47.5032144 77.7208366,49.1550764 76.1323942,51.0309198 C75.5811112,51.6655335 75.0204844,52.3094797 74.4598577,52.8974306 C74.3477323,53.0374189 74.2262632,53.1680747 74.1047941,53.2987305 L73.9459498,53.476049 C69.9654999,57.9556749 66.0971753,61.8753477 64.7797024,61.8753477 C64.3839374,61.915075 63.9908547,61.7778676 63.7060144,61.500572 C63.4211741,61.2232763 63.2737695,60.8343124 63.3033853,60.4381343 C63.3033853,57.0410846 75.6371739,46.6539519 75.6371739,42.44497 C75.6371739,38.2359881 69.7973119,38.3386462 69.7973119,36.6867842 C69.7973119,35.0349221 72.4042263,33.4297228 72.4042263,31.7871933 C72.4042263,30.8539379 70.5354704,30.1633289 69.3301229,30.1633289 C68.3490261,30.1633289 64.4620139,32.8044417 64.4620139,35.3428964 C64.4620139,36.7054493 65.7888306,37.3493955 65.7888306,37.5733768 C65.7888306,39.4398876 46.4285201,63.1072448 42.9900093,63.1072448 C42.2400068,63.1070834 41.5245926,62.7921375 41.0184719,62.2393173 C40.4765327,61.8380175 40,61.5300432 40,62.2393173 C40,63.6485329 40,66.3643062 43.1675411,66.3643062 C48.3533386,66.3643062 65.1721412,44.684783 67.3118666,39.8131898 C67.5208422,39.3940462 68.0084312,39.1944547 68.4518077,39.3465621 C69.4796234,39.766527 70.9185654,40.7744429 70.9185654,41.8290215 C70.9185654,45.0487526 58.6314957,56.3691408 58.6314957,60.0461671 C58.6314957,62.7806054 60.1825631,65.8696808 63.6210738,65.8696808 C65.9943937,65.8696808 70.0122188,62.0246685 73.9552936,57.4703821 C74.2916697,57.181073 74.7214835,56.9384266 74.8336089,57.8063541 C75.0578596,63.480547 79.355998,65.8323506 81.5891612,65.8323506 C85.4855171,65.8323506 89.7556242,60.6527831 92.8857903,57.1250776 C93.1754474,56.8264359 93.3529792,56.7517755 93.3810106,57.2930636 C93.4651046,62.453966 94.9414217,65.9163436 98.8377776,65.9163436 C101.183066,65.9163436 105.154172,61.5207106 108.95709,57.0877474 C109.256091,56.761108 109.340185,56.9197614 109.358873,57.0877474 C109.480342,61.5300432 110.807159,65.9350087 114.853015,65.9350087 C116.889959,65.9350087 119.524905,63.2845633 122.197226,60.2794809 C122.486883,60.027502 123.131604,59.5888719 123.131604,60.634118 C123.383886,65.5710391 125.775893,65.9350087 127.569899,65.9350087 C131.774599,65.9350087 138.997341,57.1250776 143.949544,51.4322196 C144.603608,50.7789409 145.089485,50.4149712 144.388701,51.6841986 C140.847268,57.5893132 136.845065,63.2062607 132.41932,68.482796 C131.923405,69.013698 131.267017,69.3677221 130.550564,69.4907118 C115.768706,69.5653722 104.490764,70.9839205 104.490764,78.6272823 C104.490764,83.7135242 111.293035,86 112.900165,86 C118.94559,86 126.252426,80.8204325 133.138791,73.8676797 C133.497198,73.52896 133.938771,73.2907327 134.418889,73.1770707 C148.350464,72.4024687 170,63.3312261 170,40.8584358 Z M92.8203838,40.2331547 C94.8106088,40.2331547 90.2975634,48.8564347 86.3918637,48.8564347 C85.8789188,48.8352049 85.3690536,48.7664714 84.8688277,48.6511185 C83.9344498,48.4458023 84.6912959,47.3632261 84.8688277,47.1579099 C88.2793071,43.2755674 91.9327248,40.2331547 92.8203838,40.2331547 Z M98.0809315,62.2299847 C97.3240854,62.2299847 97.1465536,61.7260268 97.1465536,60.9327597 C97.1465536,54.5026299 107.284554,42.6689513 115.254798,34.0830016 L115.254798,34.2043248 C115.65183,33.786205 116.161177,33.4913332 116.721771,33.3550624 C120.085532,32.9350974 123.383886,32.5151325 126.327176,32.1604954 C126.738302,32.1604954 126.971897,32.1604954 126.607489,32.5897929 C122.122955,37.2124916 117.923015,42.1023797 114.030763,47.2325703 C108.228276,54.1759905 101.528786,62.2299847 98.0809315,62.2299847 Z M110.554877,82.4722946 C106.424926,82.4722946 106.957522,77.8060175 111.293035,75.0062513 C113.881262,73.5597054 117.777618,73.1397405 120.55272,73.0744126 C121.748724,73.0744126 122.804571,73.0744126 123.757637,73.0744126 L123.897793,73.0744126 L127.354992,73.1304079 C127.59793,73.1304079 127.831524,73.2797288 127.625961,73.5970356 C122.243945,78.841931 116.338676,82.4722946 110.554877,82.4722946 Z" id="Shape"></path>
            <path d="M41.3027826,56.8647897 C47.303883,56.8647897 59,46.8904894 59,36.3376985 C59,24.6932395 54.4458418,23.8814863 54.4458418,23.8814863 C54.4458418,23.8814863 53.0916523,20 45.2447728,20 C40.6071372,20 34.03097,22.276641 28.1875491,26.2421018 L27.8907404,26.4473727 C27.0958361,26.9812075 26.1563849,27.2549446 25.2009118,27.2311344 L24.9412042,27.2311344 L24.867002,27.2311344 C23.9394749,27.1658209 23.0768747,27.1658209 22.3905046,27.1658209 C16.7233139,27.1658209 4.21097312,32.3069242 4.21097312,43.0929776 C4.21097312,46.9091504 6.18660588,49.064495 8.06021066,49.4377148 C8.17083206,49.4569769 8.28279048,49.4118042 8.34952063,49.3209847 C8.41625077,49.2301652 8.42633142,49.1092432 8.37556988,49.008512 C7.78393429,48.0941412 7.46230704,47.0296873 7.44804276,45.9387789 C7.44804276,42.2625634 10.2306241,31.3458831 23.0026725,29.6290719 C23.3087565,29.6290719 23.7910706,29.6290719 23.327307,30.1982321 C18.4856155,34.7701752 15.0259393,40.6390571 15.0259393,47.3290228 C15.1589712,49.0759346 15.88613,50.7234308 17.0850495,51.9942707 C17.0850495,51.9942707 18.8380758,54.1029628 20.4426977,54.1029628 C22.0473196,54.1029628 34.8564691,49.2697659 34.8564691,37.7466034 C34.8564691,34.2103454 33.928942,31.8590604 32.4727244,30.2822066 C32.1202641,29.4984449 33.4002515,28.3601244 33.9845936,27.8562776 C38.1668541,24.9722881 43.0968756,23.3829528 48.1664833,23.2843346 C54.9374312,23.2843346 55.2435152,29.8156818 55.2435152,34.4809298 C55.2435152,43.32624 41.1358277,57.24734 37.6204999,53.804387 C37.2449261,53.2269089 37.2862633,52.4708489 37.7225279,51.9382878 C44.7810093,42.3745294 51.0047162,33.7158291 53.9449772,33.7158291 C54.2016522,33.220272 54.2082641,32.631346 53.9627803,32.1300838 C53.7172966,31.6288216 53.2490923,31.2752051 52.7020909,31.1779342 C52.4887832,31.1317665 52.2709937,31.1098579 52.0528219,31.1126207 C43.4546455,31.1126207 22.0473196,72.5866754 8.45904732,72.5866754 C-2.21678981,72.5866754 3.60808049,53.9909969 11.6590159,53.9909969 C14.3766703,53.9909969 13.8758057,57.5365854 13.5604465,59.8505484 C13.4862443,60.3823866 14.5900016,60.9515469 14.7940575,60.4570306 C15.3137413,59.0663074 15.5472503,57.5839023 15.4804276,56.099689 C15.4804276,53.8323785 12.6978463,51.9662793 9.56280459,51.9662793 C7.5964471,51.9662793 0,55.9783925 0,65.1502701 C0,74.3221477 4.47068071,72.8759208 4.47068071,73.8276314 C4.47068071,75.4324767 7.25326207,77 12.4010376,77 C18.6247445,77 27.9000157,65.1689311 36.2663103,53.8697004 C37.1505392,55.8354558 39.1644521,57.0330895 41.3027826,56.8647897 Z M18.3464864,50.5480439 C15.563905,50.5480439 20.4797988,39.3514487 29.5602893,31.2992306 C29.7392468,31.1409878 29.9753001,31.0642552 30.2124698,31.0872297 C30.4496394,31.1102043 30.6667994,31.2308395 30.8124509,31.4205271 L30.9608552,31.6351285 C30.9868596,31.6860861 31.0085777,31.7391442 31.0257821,31.7937469 C34.2535765,37.2800786 28.011319,50.5480439 18.3464864,50.5480439 Z" id="Shape"></path>
        </g>
    </g>
</svg>