<svg viewBox="0 0 253.26 50.33" xmlns="http://www.w3.org/2000/svg"><g fill="#fefefe"><g transform="translate(-499.03 -845.58)"><path d="m499.62 875.53a.59.59 0 0 1 -.59-.59v-15.2a.59.59 0 0 1 .59-.59h2.52c2.89 0 4.43 1.3 4.43 4.91s-1.57 4.94-4.43 4.94h-.66a.5.5 0 0 0 -.5.5v5.46a.58.58 0 0 1 -.59.59zm5-11.47c0-2.31-.7-3.11-2.48-3.11h-.66a.51.51 0 0 0 -.5.5v5.23a.5.5 0 0 0 .5.49h.66c1.78 0 2.48-.77 2.48-3.11"/><path d="m518 859.7a.54.54 0 0 1 .54-.55h5.58a.54.54 0 0 1 .55.55v.71a.54.54 0 0 1 -.55.54h-3.72a.46.46 0 0 0 -.45.46v4.49a.45.45 0 0 0 .45.45h3.14a.55.55 0 0 1 .55.55v.71a.55.55 0 0 1 -.55.55h-3.14a.45.45 0 0 0 -.45.45v4.66a.46.46 0 0 0 .45.46h3.72a.54.54 0 0 1 .55.54v.73a.54.54 0 0 1 -.55.55h-5.58a.54.54 0 0 1 -.54-.55z"/><path d="m538.51 875.53a.49.49 0 0 1 -.51-.53v-13.65a.39.39 0 0 0 -.4-.39h-2.19a.5.5 0 0 1 -.5-.5v-.82a.49.49 0 0 1 .5-.49h7.13a.5.5 0 0 1 .5.49v.82a.51.51 0 0 1 -.5.5h-2.19a.39.39 0 0 0 -.4.39v13.65a.49.49 0 0 1 -.49.49z"/></g><rect height="16.39" rx=".51" width="1.95" x="55.01" y="13.56"/><g transform="translate(-499.03 -845.58)"><path d="m570.52 875.53a.45.45 0 0 1 -.45-.45v-13.76a.36.36 0 0 0 -.36-.36h-2.27a.47.47 0 0 1 -.46-.46v-.89a.46.46 0 0 1 .46-.46h7.2a.45.45 0 0 1 .46.46v.89a.46.46 0 0 1 -.46.46h-2.26a.36.36 0 0 0 -.36.36v13.76a.46.46 0 0 1 -.46.45z"/><path d="m586.09 859.65a.5.5 0 0 1 .5-.5h5.67a.5.5 0 0 1 .5.5v.8a.5.5 0 0 1 -.5.51h-3.81a.4.4 0 0 0 -.41.4v4.64a.4.4 0 0 0 .41.4h3.23a.5.5 0 0 1 .5.51v.8a.5.5 0 0 1 -.5.5h-3.23a.41.41 0 0 0 -.41.41v4.75a.41.41 0 0 0 .41.41h3.81a.5.5 0 0 1 .5.5v.8a.5.5 0 0 1 -.5.5h-5.67a.5.5 0 0 1 -.5-.5z"/><path d="m601.22 863.12v-3.73a.23.23 0 0 1 .24-.24h1.3a.22.22 0 0 1 .24.24v1.61a.87.87 0 0 1 -.16.55l-1.14 1.59a.34.34 0 0 1 -.29.17c-.12 0-.19-.07-.19-.22"/><path d="m613.9 875.53a.45.45 0 0 1 -.46-.46v-7.46c0-1.38-.48-2.1-1.52-2.1s-1.54.67-1.54 2.1v7.46a.46.46 0 0 1 -.46.46h-.92a.46.46 0 0 1 -.46-.46v-10.62a.47.47 0 0 1 .46-.45h.94a.47.47 0 0 1 .46.46v.7a2.3 2.3 0 0 1 2.2-1.38c1.78 0 2.69 1.11 2.69 3.55v7.75a.45.45 0 0 1 -.46.46z"/><path d="m752.3 861.63c0-7.82-4.09-9.87-6.86-9.87-4.48 0-7.3 4.72-5.94 4.17.57-.23 3.2-2.49 5.72-2.49 2.24 0 4.12 1.22 4.12 8 0 8.41-9.41 18.25-20.33 21.14-.89.23-.53-.35-.43-.47 7.42-8.68 13.32-18.66 13.32-21.11 0-1-1.3-1.64-2.18-1.92a.92.92 0 0 0 -1.13.48.54.54 0 0 0 -.07.13c-2.43 3-15.12 18.42-19.29 18.42-2.33 0 8.26-12.93 10.49-15.66a1.07 1.07 0 0 0 .07-1.25 2.67 2.67 0 0 0 -2.19-1.11.72.72 0 0 0 -.61.26 96.69 96.69 0 0 0 -7.38 9.16 51.84 51.84 0 0 1 -4.15 4.83c-2.15 2-4.15 3.53-5.59 3.53-.58 0-.75-.39-.75-1 0-5.64 9.41-15.83 15-21.75a2.22 2.22 0 0 1 1.54-.66c4.61 0 7.87.77 9 4.51.06.19.34.19.34 0 0-3.16.17-6.84-7.66-7.28a4 4 0 0 0 .87-1.12 3.28 3.28 0 0 0 -1.45-2.11.62.62 0 0 0 -.79.07c-.46.45-1.45 1.41-2.74 2.71a1.78 1.78 0 0 1 -1 .47c-2.58.1-5 .3-7.34.54-.23 0 0-.24 0-.24a21.61 21.61 0 0 0 2.92-3.32 3.24 3.24 0 0 0 -1.31-2 .79.79 0 0 0 -1 .08c-.77.78-2.71 2.71-5.11 5.24a1.54 1.54 0 0 1 -.17.19 3 3 0 0 1 -1.22.8 91.92 91.92 0 0 1 -10.84 1.21c-12 0-11-5.28-12.31-5.28-.69 0 .06 8.2 12.12 8.2 2.12 0 4.71-.19 7.45-.46.26 0 .45.14.15.56-2.67 3-5.39 6.17-7.5 9-3.43 4-9.61 11.53-13.4 11.53-1.27 0-2.12-.52-2.12-2.21s1.05-3.78 2.51-5.88c.95-1.3 1.07-1.52 1.75-1a4.4 4.4 0 0 0 2.81 1.17c4.48 0 6.77-6.5 6.77-8.76 0-1.63-2.4-2.82-4.1-2.82s-5.38 3.44-8.32 7.41c-.78 1-1.73 2.28-2.93 3.71l-1.27 1.45-.27.3-.12.14c-3 3.4-6 6.39-7 6.39a1 1 0 0 1 -1.12-1.09c0-2.58 9.36-10.47 9.36-13.67s-4.43-3.12-4.43-4.38 2-2.48 2-3.72c0-.69-1.4-1.24-2.34-1.24-.74 0-3.69 2-3.69 3.94 0 1 1 1.52 1 1.7 0 1.39-14.7 19.4-17.3 19.4a2 2 0 0 1 -1.5-.66c-.41-.31-.77-.54-.77 0 0 1.07 0 3.14 2.4 3.14 3.93 0 16.7-16.48 18.32-20.18a.67.67 0 0 1 .87-.35c.77.31 1.87 1.08 1.87 1.88 0 2.45-9.32 11-9.32 13.85 0 2.07 1.17 4.42 3.78 4.42 1.81 0 4.85-2.92 7.84-6.36.26-.21.58-.4.67.26.17 4.32 3.43 6.1 5.13 6.1 2.95 0 6.19-3.94 8.57-6.62.22-.22.36-.28.38.13.06 3.92 1.19 6.55 4.14 6.55 1.78 0 4.79-3.34 7.68-6.7.22-.25.29-.13.31 0 .09 3.37 1.09 6.72 4.16 6.72 1.55 0 3.58-2 5.58-4.29.22-.2.69-.53.72.26.19 3.75 2 4 3.37 4 3.19 0 8.67-6.69 12.43-11 .5-.49.87-.77.33.2a100.37 100.37 0 0 1 -9.08 12.77 2.52 2.52 0 0 1 -1.43.76c-11.22 0-19.75 1.1-19.75 6.89 0 3.86 5.16 5.6 6.36 5.6 4.58 0 10.13-3.93 15.36-9.18a2.07 2.07 0 0 1 1-.53c10.56-.6 27-7.5 27-24.57m-58.58-.47c1.51 0-1.91 6.54-4.88 6.54a6.36 6.36 0 0 1 -1.15-.15c-.71-.15-.14-1 0-1.14 2.61-2.94 5.38-5.25 6.05-5.25m4 16.71c-.58 0-.75-.39-.75-1 0-4.88 7.7-13.87 13.74-20.4v.09a2.33 2.33 0 0 1 1.11-.64l7.3-.91c.31 0 .49 0 .21.33a122.42 122.42 0 0 0 -9.55 11.12c-4.36 5.28-9.43 11.4-12 11.4m9.46 15.38c-3.13 0-2.72-3.57.56-5.66 2-1.1 4.92-1.4 7-1.47h2.43.11l2.62.05c.18 0 .37.11.21.35-4.12 4-8.57 6.71-13 6.71"/><path d="m654.79 873.59c4.58 0 13.53-7.58 13.53-15.59 0-8.85-3.49-9.47-3.49-9.47s-1-2.95-7-2.95c-3.54 0-8.58 1.73-13 4.75l-.23.16a3.52 3.52 0 0 1 -2.06.59h-.25c-.71-.05-1.37-.05-1.89-.05-4.34 0-13.91 3.91-13.91 12.1 0 2.9 1.52 4.54 3 4.83a.23.23 0 0 0 .24-.33 4.46 4.46 0 0 1 -.73-2.33 13.14 13.14 0 0 1 11.89-12.4c.24 0 .61 0 .25.43-3.65 3.46-6.3 7.91-6.3 13a5.8 5.8 0 0 0 1.58 3.57s1.34 1.61 2.57 1.61 11-3.68 11-12.44a8.08 8.08 0 0 0 -1.82-5.66c-.28-.6.67-1.46 1.15-1.85a19.86 19.86 0 0 1 10.68-3.5c5.18 0 5.41 5 5.41 8.48 0 6.72-10.79 17.3-13.48 14.68a1.2 1.2 0 0 1 .09-1.39c5.39-7.27 10.15-13.85 12.4-13.85a1.33 1.33 0 0 0 -1-1.92 2.54 2.54 0 0 0 -.49 0c-6.58 0-23 31.52-33.31 31.52-8.16 0-3.7-14.13 2.45-14.13 2.08 0 1.69 2.69 1.45 4.45-.05.4.79.84.95.46a8.44 8.44 0 0 0 .52-3.31c0-1.72-2.15-3.14-4.52-3.14-1.51 0-7.32 3-7.32 10s3.42 5.87 3.42 6.59c0 1.23 2.16 2.42 6.06 2.42 4.77 0 11.85-9 18.25-17.58a3.91 3.91 0 0 0 3.83 2.29m-17.56-4.81c-2.09 0 1.64-8.51 8.58-14.63a.65.65 0 0 1 1 .1l.11.16.06.12c2.44 4.18-2.32 14.26-9.71 14.26"/></g></g></svg>