<?xml version="1.0" encoding="UTF-8"?>
<svg width="318px" height="64px" viewBox="0 0 318 64" version="1.1" xmlns="http://www.w3.org/2000/svg" xmlns:xlink="http://www.w3.org/1999/xlink">
    <!-- Generator: Sketch 50.2 (55047) - http://www.bohemiancoding.com/sketch -->
    <title>logo</title>
    <desc>Created with Sketch.</desc>
    <defs></defs>
    <g id="Page-1" stroke="none" stroke-width="1" fill="none" fill-rule="evenodd">
        <g id="logo" fill="#ED40A9" fill-rule="nonzero">
            <g id="Group" transform="translate(0.000000, 16.000000)">
                <path d="M1.41866667,21.7222222 C1.01316693,21.7222222 0.684444444,21.3846947 0.684444444,20.9683333 L0.684444444,1.54611111 C0.684387835,1.12763305 1.01116203,0.786419075 1.41866667,0.779444444 L4.55466667,0.779444444 C8.15111111,0.779444444 10.0675556,2.45333333 10.0675556,7.06611111 C10.0675556,11.6788889 8.12622222,13.3527778 4.55466667,13.3527778 L3.73333333,13.3527778 C3.56946493,13.3493432 3.41114928,13.413789 3.29408798,13.5315819 C3.17702668,13.6493748 3.11107698,13.8105961 3.11111111,13.9788889 L3.11111111,20.9683333 C3.11451627,21.1693286 3.03825489,21.3631213 2.89981647,21.5052679 C2.76137805,21.6474145 2.57264076,21.7257186 2.37688889,21.7222222 L1.41866667,21.7222222 Z M7.64088889,7.06611111 C7.64088889,4.11444444 6.76977778,3.09222222 4.55466667,3.09222222 L3.73333333,3.09222222 C3.38968949,3.09222222 3.11111111,3.37826252 3.11111111,3.73111111 L3.11111111,10.4011111 C3.11111111,10.7539597 3.38968949,11.04 3.73333333,11.04 L4.55466667,11.04 C6.76977778,11.04 7.64088889,10.0561111 7.64088889,7.06611111 Z" id="Shape"></path>
                <path d="M24.2791111,1.53333333 C24.2791111,1.14519988 24.5855473,0.830555556 24.9635556,0.830555556 L31.9075556,0.830555556 C32.2855638,0.830555556 32.592,1.14519988 32.592,1.53333333 L32.592,2.44055556 C32.592,2.828689 32.2855638,3.14333333 31.9075556,3.14333333 L27.2782222,3.14333333 C26.9668667,3.14325778 26.7125464,3.39871343 26.7057778,3.71833333 L26.7057778,9.46833333 C26.7125464,9.78795323 26.9668667,10.0434089 27.2782222,10.0433333 L31.1857778,10.0433333 C31.563786,10.0433333 31.8702222,10.3579777 31.8702222,10.7461111 L31.8702222,11.6533333 C31.8702222,12.0414668 31.563786,12.3561111 31.1857778,12.3561111 L27.2782222,12.3561111 C26.9668667,12.3560356 26.7125464,12.6114912 26.7057778,12.9311111 L26.7057778,18.8855556 C26.7125464,19.2051755 26.9668667,19.4606311 27.2782222,19.4605556 L31.9075556,19.4605556 C32.2855638,19.4605556 32.592,19.7751999 32.592,20.1633333 L32.592,21.0705556 C32.592,21.458689 32.2855638,21.7733333 31.9075556,21.7733333 L24.9635556,21.7733333 C24.5855473,21.7733333 24.2791111,21.458689 24.2791111,21.0705556 L24.2791111,1.53333333 Z" id="Shape"></path>
                <path d="M49.7777778,21.7222222 C49.4410068,21.7222222 49.168,21.4419027 49.168,21.0961111 L49.168,3.65444444 C49.168,3.37216557 48.9451373,3.14333333 48.6702222,3.14333333 L45.9324444,3.14333333 C45.5956735,3.14333333 45.3226667,2.86301384 45.3226667,2.51722222 L45.3226667,1.46944444 C45.3193217,1.30118671 45.3820863,1.13863046 45.4968063,1.01843359 C45.6115264,0.898236724 45.7685419,0.830520505 45.9324444,0.830555556 L54.8177778,0.830555556 C54.9816803,0.830520505 55.1386958,0.898236724 55.2534159,1.01843359 C55.368136,1.13863046 55.4309005,1.30118671 55.4275556,1.46944444 L55.4275556,2.55555556 C55.4275556,2.90134717 55.1545487,3.18166667 54.8177778,3.18166667 L52.08,3.18166667 C51.8099568,3.18860073 51.5945822,3.41541457 51.5946667,3.69277778 L51.5946667,21.1855556 C51.5946667,21.3516105 51.5304224,21.5108644 51.4160669,21.628283 C51.3017114,21.7457016 51.146612,21.8116667 50.9848889,21.8116667 L49.7777778,21.7222222 Z" id="Shape"></path>
            </g>
            <rect id="Rectangle-path" x="69" y="17" width="2" height="20" rx="0.51"></rect>
            <g id="Group" transform="translate(85.000000, 0.000000)">
                <path d="M5.01075269,37.6470588 C4.69250602,37.6470588 4.43451613,37.388613 4.43451613,37.0698039 L4.43451613,19.852549 C4.43451613,19.7327336 4.38700359,19.6178254 4.30243074,19.5331031 C4.21785788,19.4483808 4.10315247,19.4007843 3.98354839,19.4007843 L1.25268817,19.4007843 C1.09882643,19.4042493 0.950240133,19.3445449 0.841415967,19.2355284 C0.732591801,19.1265119 0.672992725,18.9776631 0.676451613,18.8235294 L0.676451613,17.7066667 C0.676451613,17.3878576 0.934441508,17.1294118 1.25268817,17.1294118 L10.272043,17.1294118 C10.5902897,17.1294118 10.8482796,17.3878576 10.8482796,17.7066667 L10.8482796,18.8235294 C10.8517385,18.9776631 10.7921394,19.1265119 10.6833152,19.2355284 C10.574491,19.3445449 10.4259047,19.4042493 10.272043,19.4007843 L7.39086022,19.4007843 C7.27125613,19.4007843 7.15655072,19.4483808 7.07197787,19.5331031 C6.98740501,19.6178254 6.93989247,19.7327336 6.93989247,19.852549 L6.93989247,37.12 C6.93989247,37.4388091 6.68190258,37.6972549 6.36365591,37.6972549 L5.01075269,37.6470588 Z" id="Shape"></path>
                <path d="M24.5652151,17.7694118 C24.5618488,17.6008379 24.6263494,17.4380003 24.7441786,17.3176022 C24.8620077,17.1972041 25.023249,17.129378 25.1915591,17.1294118 L32.2943011,17.1294118 C32.4626112,17.129378 32.6238525,17.1972041 32.7416817,17.3176022 C32.8595108,17.4380003 32.9240114,17.6008379 32.9206452,17.7694118 L32.9206452,18.7733333 C32.9206452,19.1198649 32.6402214,19.4007843 32.2943011,19.4007843 L27.5591398,19.4007843 C27.4240472,19.400742 27.2946609,19.4553462 27.2003225,19.5522139 C27.1059842,19.6490816 27.0546872,19.7800051 27.0580645,19.9152941 L27.0580645,25.6627451 C27.0546872,25.7980341 27.1059842,25.9289576 27.2003225,26.0258253 C27.2946609,26.1226931 27.4240472,26.1772972 27.5591398,26.1772549 L31.6178495,26.1772549 C31.9637697,26.1772549 32.2441935,26.4581743 32.2441935,26.8047059 L32.2441935,27.8086275 C32.2475598,27.9772013 32.1830592,28.1400389 32.06523,28.260437 C31.9474009,28.3808351 31.7861596,28.4486612 31.6178495,28.4486275 L27.5591398,28.4486275 C27.2824036,28.4486275 27.0580645,28.6733629 27.0580645,28.9505882 L27.0580645,34.9239216 C27.0580645,35.2011469 27.2824036,35.4258824 27.5591398,35.4258824 L32.3444086,35.4258824 C32.5127188,35.4258486 32.6739601,35.4936747 32.7917892,35.6140728 C32.9096183,35.7344709 32.9741189,35.8973085 32.9707527,36.0658824 L32.9707527,37.0698039 C32.9707527,37.4163355 32.6903289,37.6972549 32.3444086,37.6972549 L25.2416667,37.6972549 C24.8957464,37.6972549 24.6153226,37.4163355 24.6153226,37.0698039 L24.5652151,17.7694118 Z" id="Shape"></path>
                <path d="M43.5183871,22.1239216 L43.5183871,17.4431373 C43.5110585,17.360109 43.5399185,17.2779608 43.5975407,17.2178316 C43.6551629,17.1577024 43.7359205,17.1254638 43.8190323,17.1294118 L45.4475269,17.1294118 C45.5306387,17.1254638 45.6113962,17.1577024 45.6690184,17.2178316 C45.7266406,17.2779608 45.7555007,17.360109 45.748172,17.4431373 L45.748172,19.4886275 C45.7563655,19.7399758 45.6815069,19.9870044 45.5352151,20.1913725 L44.1196774,22.1866667 C44.0428291,22.3151906 43.9058857,22.3956096 43.7563978,22.4 C43.6060753,22.4 43.5183871,22.3121569 43.5183871,22.1239216" id="Shape"></path>
                <path d="M59.4024731,37.6470588 C59.0842265,37.6470588 58.8262366,37.388613 58.8262366,37.0698039 L58.8262366,27.6956863 C58.8262366,25.9764706 58.2124194,25.0729412 56.9221505,25.0729412 C55.6318817,25.0729412 54.9930108,25.9137255 54.9930108,27.6956863 L54.9930108,37.0698039 C54.9863674,37.3858153 54.7322281,37.6404038 54.4167742,37.6470588 L53.2392473,37.6470588 C52.9237934,37.6404038 52.6696541,37.3858153 52.6630108,37.0698039 L52.6630108,23.8431373 C52.6630108,23.5243282 52.9210006,23.2658824 53.2392473,23.2658824 L54.4167742,23.2658824 C54.7350209,23.2658824 54.9930108,23.5243282 54.9930108,23.8431373 L54.9930108,24.7090196 C55.4667561,23.6246415 56.5557598,22.9421886 57.7363978,22.9898039 C59.9787097,22.9898039 61.1186559,24.3827451 61.1186559,27.4321569 L61.1186559,37.1701961 C61.1186559,37.4890052 60.860666,37.747451 60.5424194,37.747451 L59.4024731,37.6470588 Z" id="Shape"></path>
                <path d="M232.761989,20.2541176 C232.761989,10.4407843 227.651022,7.86823529 224.168548,7.86823529 C218.569032,7.86823529 215.036452,13.7913725 216.740108,13.1011765 C217.441613,12.812549 220.74871,9.97647059 223.905484,9.97647059 C226.711505,9.97647059 229.066559,11.507451 229.066559,20.0156863 C229.066559,30.5694118 217.278763,42.905098 203.599409,46.5443137 C202.484516,46.8329412 202.935484,46.105098 203.060753,45.9545098 C212.368226,35.0745098 219.746559,22.5380392 219.746559,19.4760784 C219.746559,18.2211765 218.118065,17.4180392 217.003172,17.0666667 C216.450476,16.8807406 215.845683,17.1327361 215.587634,17.6564706 L215.512473,17.8196078 C212.455914,21.5843137 196.571828,40.947451 191.348118,40.947451 C188.429355,40.947451 201.695323,24.7215686 204.488817,21.2956863 C204.852219,20.8462924 204.887548,20.2142883 204.576505,19.7270588 C203.94202,18.8441052 202.919094,18.3247198 201.833118,18.3341176 C201.540594,18.3119126 201.255566,18.4336148 201.068978,18.6603922 C197.749,22.2966757 194.65728,26.1356749 191.811613,30.1552941 C190.211973,32.2866476 188.475409,34.3113282 186.612957,36.2164706 C183.932204,38.7262745 181.426828,40.6462745 179.61043,40.6462745 C178.896398,40.6462745 178.683441,40.1568627 178.683441,39.3913725 C178.683441,32.3137255 190.471237,19.5137255 197.473763,12.0847059 C197.990684,11.576507 198.67905,11.2809717 199.402903,11.2564706 C205.177796,11.2564706 209.261559,12.2352941 210.677097,16.9286275 C210.752258,17.1670588 211.103011,17.1670588 211.103011,16.9286275 C211.103011,12.9631373 211.315968,8.34509804 201.507419,7.79294118 C201.944036,7.38953677 202.308414,6.91415985 202.584731,6.38745098 C202.359202,5.2961934 201.710377,4.33929091 200.78086,3.72705882 C200.468799,3.52185248 200.055897,3.56373923 199.791237,3.82745098 C199.202473,4.37960784 197.974839,5.58431373 196.358871,7.21568627 C196.018087,7.54799573 195.578161,7.75953332 195.106183,7.81803922 C191.874247,7.94352941 188.842742,8.18196078 185.923978,8.49568627 C185.63586,8.49568627 185.923978,8.1945098 185.923978,8.1945098 C187.274664,6.92730209 188.499665,5.53203095 189.581828,4.02823529 C189.372284,3.01018339 188.780321,2.11168522 187.92828,1.51843137 C187.544844,1.23185449 187.008669,1.2748243 186.675591,1.61882353 C185.698495,2.58509804 183.280806,5.01960784 180.274355,8.18196078 L180.061398,8.42039216 C179.640218,8.87357091 179.115891,9.2179998 178.533118,9.42431373 C174.039646,10.1891207 169.505637,10.6919275 164.953978,10.9301961 C149.92172,10.9301961 151.174409,4.31686275 149.533387,4.31686275 C148.669032,4.31686275 149.608548,14.6070588 164.715968,14.6070588 C167.371667,14.6070588 170.603602,14.3686275 174.048495,14.0298039 C174.374194,14.0298039 174.599677,14.1929412 174.236398,14.732549 C170.879194,18.4972549 167.484409,22.4752941 164.841237,26.0266667 C160.544516,31.0462745 152.802903,40.4956863 148.055215,40.4956863 C146.464301,40.4956863 145.399516,39.8431373 145.399516,37.7098039 C145.399516,35.5764706 146.652204,32.9788235 148.531237,30.3435294 C149.72129,28.7121569 149.871613,28.4235294 150.723441,29.0886275 C151.68077,29.9903467 152.93053,30.5160843 154.243495,30.5694118 C159.855538,30.5694118 162.724194,22.412549 162.724194,19.5764706 C162.724194,17.5309804 159.717742,16.0376471 157.588172,16.0376471 C155.458602,16.0376471 150.84871,20.3545098 147.165806,25.3364706 C146.18871,26.5913725 144.998656,28.1976471 143.482903,29.9921569 L141.904516,31.8117647 L141.56629,32.1882353 C141.50798,32.2392214 141.457347,32.2983976 141.415968,32.3639216 C137.657903,36.6305882 133.899839,40.3827451 132.647151,40.3827451 C132.269191,40.4303685 131.890136,40.3031177 131.617141,40.0369657 C131.344146,39.7708136 131.206877,39.3946827 131.24414,39.014902 C131.24414,35.7772549 142.969301,25.8635294 142.969301,21.8603922 C142.969301,17.8572549 137.419892,17.945098 137.419892,16.3639216 C137.419892,14.7827451 139.925269,13.2517647 139.925269,11.6956863 C139.925269,10.8298039 138.171505,10.1396078 136.993978,10.1396078 C136.066989,10.1396078 132.371559,12.6494118 132.371559,15.0839216 C132.371559,16.3388235 133.624247,16.9913725 133.624247,17.2047059 C133.624247,18.9615686 115.222258,41.5623529 111.965269,41.5623529 C111.247496,41.5604332 110.562626,41.2605571 110.07371,40.7341176 C109.572634,40.345098 109.10914,40.0564706 109.10914,40.7341176 C109.10914,42.0768627 109.10914,44.6745098 112.128118,44.6745098 C117.051183,44.6745098 133.048011,23.9937255 135.077366,19.3505882 C135.26069,18.9382806 135.73282,18.7402956 136.154677,18.8988235 C137.131774,19.3003922 138.509731,20.2666667 138.509731,21.2705882 C138.509731,24.332549 126.822151,35.1372549 126.822151,38.6384314 C126.822151,41.2486275 128.300323,44.1976471 131.569839,44.1976471 C133.824677,44.1976471 137.645376,40.5207843 141.390914,36.2164706 C141.716613,35.9529412 142.117473,35.7145098 142.230215,36.5427451 C142.443172,41.9513725 146.526935,44.1976471 148.656505,44.1976471 C152.351935,44.1976471 156.410645,39.2533333 159.392043,35.8901961 C159.667634,35.6015686 159.830484,35.5262745 159.868065,36.0407843 C159.943226,40.972549 161.346237,44.2729412 165.054194,44.2729412 C167.283978,44.2729412 171.05457,40.0815686 174.662312,35.852549 C174.95043,35.5513725 175.038118,35.7019608 175.050645,35.852549 C175.175914,40.0941176 176.428602,44.2980392 180.274355,44.2980392 C182.216022,44.2980392 184.758978,41.7882353 187.264355,38.9145098 C187.539946,38.6635294 188.12871,38.2494118 188.16629,39.2407843 C188.404301,43.9466667 190.671667,44.2603922 192.387849,44.2603922 C196.383925,44.2603922 203.248656,35.865098 207.958763,30.4564706 C208.572581,29.8290196 209.048602,29.4901961 208.372151,30.694902 C205.006152,36.3302735 201.198527,41.6888327 196.985215,46.72 C196.515767,47.2375614 195.883613,47.5785533 195.193871,47.6862745 C181.151237,47.6862745 170.465806,49.0666667 170.465806,56.32 C170.465806,61.1764706 176.929677,63.36 178.420376,63.36 C184.170215,63.36 191.122634,58.4156863 197.674194,51.84 C198.019123,51.5021013 198.454105,51.2711537 198.926882,51.174902 C212.155269,50.4219608 232.749462,41.7631373 232.749462,20.3419608 M159.379516,19.7521569 C161.271075,19.7521569 156.986882,27.9592157 153.266398,27.9592157 C152.781421,27.9412616 152.299155,27.8782461 151.825806,27.7709804 C150.936398,27.5701961 151.65043,26.5160784 151.825806,26.3403922 C155.095323,22.6384314 158.552742,19.7521569 159.341935,19.7521569 M164.352688,40.7215686 C163.638656,40.7215686 163.425699,40.2321569 163.425699,39.4666667 C163.425699,33.3301961 173.058871,22.0486275 180.637634,13.8666667 L180.637634,13.9796078 C181.018405,13.5860319 181.499169,13.3040064 182.028118,13.1639216 C185.235,12.774902 188.36672,12.3607843 191.160215,12.0345098 C191.561075,12.0345098 191.774032,12.0345098 191.42328,12.4360784 C187.173584,16.8352762 183.187255,21.4823392 179.485161,26.3529412 C174.023441,32.9788235 167.672312,40.6588235 164.452903,40.6588235 M176.31586,59.9592157 C172.394946,59.9592157 172.896022,55.4792157 177.017366,52.8564706 C179.772014,51.6113103 182.764238,50.9818327 185.786183,51.0117647 L188.830215,51.0117647 L188.968011,51.0117647 L192.250054,51.0745098 C192.475538,51.0745098 192.701022,51.212549 192.500591,51.5137255 C187.339516,56.4705882 181.777581,59.9341176 176.27828,59.9341176" id="Shape"></path>
                <path d="M110.612366,35.2627451 C116.362204,35.2627451 127.561237,25.7380392 127.561237,15.6988235 C127.561237,4.58039216 123.201882,3.81490196 123.201882,3.81490196 C123.201882,3.81490196 121.949194,0.0501960784 114.433065,0.0501960784 C109.998548,0.0501960784 103.685,2.22117647 98.0854839,5.99843137 C92.4859677,9.77568627 98.0854839,5.99843137 98.0854839,5.99843137 L97.7096774,6.2745098 C96.9447952,6.7787177 96.0445012,7.03702458 95.1291398,7.01490196 L94.8159677,7.01490196 C93.9140323,7.01490196 93.0997849,7.01490196 92.4358602,7.01490196 C87.0117204,7.01490196 75.0234946,11.9215686 75.0234946,22.1992157 C75.0234946,25.8384314 76.9275806,27.8964706 78.7063978,28.2478431 C78.8136408,28.2773411 78.9280728,28.2393765 78.9965398,28.1515838 C79.0650068,28.0637911 79.0740899,27.9433772 79.0195699,27.8462745 C78.4436163,26.9784718 78.1264123,25.9642368 78.1051075,24.9223529 C78.52904,16.752178 84.8687899,10.1288116 92.9995699,9.36156863 C93.2876882,9.36156863 93.7511828,9.36156863 93.3127419,9.90117647 C88.7279032,14.2431373 85.4208065,19.827451 85.4208065,26.214902 C85.5411264,27.8968884 86.2407161,29.4848358 87.4000538,30.707451 C87.4000538,30.707451 89.0786559,32.7152941 90.6069355,32.7152941 C92.1352151,32.7152941 104.386505,28.1098039 104.386505,17.1168627 C104.565582,14.5437936 103.749182,12.0003926 102.106613,10.0141176 C101.768387,9.26117647 102.958441,8.16941176 103.559731,7.69254902 C107.559492,4.92717381 112.280189,3.39590744 117.138871,3.28784314 C123.627796,3.28784314 123.915914,9.56235294 123.915914,13.9294118 C123.915914,22.3623529 110.399409,35.6392157 107.029677,32.3513725 C106.684144,31.8073591 106.729741,31.1018926 107.142419,30.6070588 C113.894409,21.4713725 119.857204,13.2266667 122.663226,13.2266667 C122.906524,12.744395 122.903648,12.174378 122.655494,11.6945952 C122.407341,11.2148124 121.944147,10.8837234 121.410538,10.8047059 C121.202216,10.7850794 120.992515,10.7850794 120.784194,10.8047059 C112.554032,10.8047059 92.0475269,50.3592157 79.0696774,50.3592157 C68.8352151,50.3592157 74.4222043,32.627451 82.1387634,32.627451 C84.731828,32.627451 84.2558065,36.0031373 83.9551613,38.2117647 C83.88,38.7137255 84.9322581,39.2533333 85.2078495,38.7890196 C85.6999035,37.4619679 85.9214001,36.0495654 85.8592473,34.6352941 C85.8592473,32.4643137 83.1659677,30.694902 80.1845699,30.694902 C78.3055376,30.694902 71.0274194,34.4596078 71.0274194,43.2439216 C71.0274194,52.0282353 75.3116129,50.6101961 75.3116129,51.5137255 C75.3116129,53.0447059 78.0174194,54.5505882 82.9029032,54.5505882 C88.8656989,54.5505882 97.7472581,43.2564706 105.764462,32.4768627 C106.596229,34.350175 108.507865,35.5031945 110.549731,35.3631373 M88.5650538,29.3270588 C85.9344086,29.3270588 90.6069355,18.6352941 99.3131183,10.9678431 C99.4838022,10.8198135 99.7074895,10.7481438 99.9322453,10.769474 C100.157001,10.7908043 100.363274,10.9032791 100.503172,11.0807843 C100.553473,11.148966 100.599494,11.2202145 100.640968,11.2941176 L100.716129,11.4447059 C103.785215,16.7027451 97.8224194,29.3521569 88.5650538,29.3521569" id="Shape"></path>
            </g>
        </g>
    </g>
</svg>