<?xml version="1.0" encoding="UTF-8"?>
<svg width="318px" height="64px" viewBox="0 0 318 64" version="1.1" xmlns="http://www.w3.org/2000/svg" xmlns:xlink="http://www.w3.org/1999/xlink">
    <!-- Generator: Sketch 50.2 (55047) - http://www.bohemiancoding.com/sketch -->
    <title>logo</title>
    <desc>Created with Sketch.</desc>
    <defs></defs>
    <g id="Page-1" stroke="none" stroke-width="1" fill="none" fill-rule="evenodd">
        <g id="logo" fill="#FFFFFF" fill-rule="nonzero">
            <path d="M1.41866667,37.7222222 C1.01316693,37.7222222 0.684444444,37.3846947 0.684444444,36.9683333 L0.684444444,17.5461111 C0.684387835,17.1276331 1.01116203,16.7864191 1.41866667,16.7794444 L4.55466667,16.7794444 C8.15111111,16.7794444 10.0675556,18.4533333 10.0675556,23.0661111 C10.0675556,27.6788889 8.12622222,29.3527778 4.55466667,29.3527778 L3.73333333,29.3527778 C3.56946493,29.3493432 3.41114928,29.413789 3.29408798,29.5315819 C3.17702668,29.6493748 3.11107698,29.8105961 3.11111111,29.9788889 L3.11111111,36.9683333 C3.11451627,37.1693286 3.03825489,37.3631213 2.89981647,37.5052679 C2.76137805,37.6474145 2.57264076,37.7257186 2.37688889,37.7222222 L1.41866667,37.7222222 Z M7.64088889,23.0661111 C7.64088889,20.1144444 6.76977778,19.0922222 4.55466667,19.0922222 L3.73333333,19.0922222 C3.38968949,19.0922222 3.11111111,19.3782625 3.11111111,19.7311111 L3.11111111,26.4011111 C3.11111111,26.7539597 3.38968949,27.04 3.73333333,27.04 L4.55466667,27.04 C6.76977778,27.04 7.64088889,26.0561111 7.64088889,23.0661111 Z" id="Shape"></path>
            <path d="M24.2791111,17.5333333 C24.2791111,17.1451999 24.5855473,16.8305556 24.9635556,16.8305556 L31.9075556,16.8305556 C32.2855638,16.8305556 32.592,17.1451999 32.592,17.5333333 L32.592,18.4405556 C32.592,18.828689 32.2855638,19.1433333 31.9075556,19.1433333 L27.2782222,19.1433333 C26.9668667,19.1432578 26.7125464,19.3987134 26.7057778,19.7183333 L26.7057778,25.4683333 C26.7125464,25.7879532 26.9668667,26.0434089 27.2782222,26.0433333 L31.1857778,26.0433333 C31.563786,26.0433333 31.8702222,26.3579777 31.8702222,26.7461111 L31.8702222,27.6533333 C31.8702222,28.0414668 31.563786,28.3561111 31.1857778,28.3561111 L27.2782222,28.3561111 C26.9668667,28.3560356 26.7125464,28.6114912 26.7057778,28.9311111 L26.7057778,34.8855556 C26.7125464,35.2051755 26.9668667,35.4606311 27.2782222,35.4605556 L31.9075556,35.4605556 C32.2855638,35.4605556 32.592,35.7751999 32.592,36.1633333 L32.592,37.0705556 C32.592,37.458689 32.2855638,37.7733333 31.9075556,37.7733333 L24.9635556,37.7733333 C24.5855473,37.7733333 24.2791111,37.458689 24.2791111,37.0705556 L24.2791111,17.5333333 Z" id="Shape"></path>
            <path d="M49.7777778,37.7222222 C49.4410068,37.7222222 49.168,37.4419027 49.168,37.0961111 L49.168,19.6544444 C49.168,19.3721656 48.9451373,19.1433333 48.6702222,19.1433333 L45.9324444,19.1433333 C45.5956735,19.1433333 45.3226667,18.8630138 45.3226667,18.5172222 L45.3226667,17.4694444 C45.3193217,17.3011867 45.3820863,17.1386305 45.4968063,17.0184336 C45.6115264,16.8982367 45.7685419,16.8305205 45.9324444,16.8305556 L54.8177778,16.8305556 C54.9816803,16.8305205 55.1386958,16.8982367 55.2534159,17.0184336 C55.368136,17.1386305 55.4309005,17.3011867 55.4275556,17.4694444 L55.4275556,18.5555556 C55.4275556,18.9013472 55.1545487,19.1816667 54.8177778,19.1816667 L52.08,19.1816667 C51.8099568,19.1886007 51.5945822,19.4154146 51.5946667,19.6927778 L51.5946667,37.1855556 C51.5946667,37.3516105 51.5304224,37.5108644 51.4160669,37.628283 C51.3017114,37.7457016 51.146612,37.8116667 50.9848889,37.8116667 L49.7777778,37.7222222 Z" id="Shape"></path>
            <path d="M69.51,17 L70.49,17 C70.7716652,17 71,17.2283348 71,17.51 L71,36.49 C71,36.7716652 70.7716652,37 70.49,37 L69.51,37 C69.2283348,37 69,36.7716652 69,36.49 L69,17.51 C69,17.2283348 69.2283348,17 69.51,17 Z" id="Rectangle-path"></path>
            <path d="M90.0107527,37.6470588 C89.692506,37.6470588 89.4345161,37.388613 89.4345161,37.0698039 L89.4345161,19.852549 C89.4345161,19.7327336 89.3870036,19.6178254 89.3024307,19.5331031 C89.2178579,19.4483808 89.1031525,19.4007843 88.9835484,19.4007843 L86.2526882,19.4007843 C86.0988264,19.4042493 85.9502401,19.3445449 85.841416,19.2355284 C85.7325918,19.1265119 85.6729927,18.9776631 85.6764516,18.8235294 L85.6764516,17.7066667 C85.6764516,17.3878576 85.9344415,17.1294118 86.2526882,17.1294118 L95.272043,17.1294118 C95.5902897,17.1294118 95.8482796,17.3878576 95.8482796,17.7066667 L95.8482796,18.8235294 C95.8517385,18.9776631 95.7921394,19.1265119 95.6833152,19.2355284 C95.574491,19.3445449 95.4259047,19.4042493 95.272043,19.4007843 L92.3908602,19.4007843 C92.2712561,19.4007843 92.1565507,19.4483808 92.0719779,19.5331031 C91.987405,19.6178254 91.9398925,19.7327336 91.9398925,19.852549 L91.9398925,37.12 C91.9398925,37.4388091 91.6819026,37.6972549 91.3636559,37.6972549 L90.0107527,37.6470588 Z" id="Shape"></path>
            <path d="M109.565215,17.7694118 C109.561849,17.6008379 109.626349,17.4380003 109.744179,17.3176022 C109.862008,17.1972041 110.023249,17.129378 110.191559,17.1294118 L117.294301,17.1294118 C117.462611,17.129378 117.623853,17.1972041 117.741682,17.3176022 C117.859511,17.4380003 117.924011,17.6008379 117.920645,17.7694118 L117.920645,18.7733333 C117.920645,19.1198649 117.640221,19.4007843 117.294301,19.4007843 L112.55914,19.4007843 C112.424047,19.400742 112.294661,19.4553462 112.200323,19.5522139 C112.105984,19.6490816 112.054687,19.7800051 112.058065,19.9152941 L112.058065,25.6627451 C112.054687,25.7980341 112.105984,25.9289576 112.200323,26.0258253 C112.294661,26.1226931 112.424047,26.1772972 112.55914,26.1772549 L116.617849,26.1772549 C116.96377,26.1772549 117.244194,26.4581743 117.244194,26.8047059 L117.244194,27.8086275 C117.24756,27.9772013 117.183059,28.1400389 117.06523,28.260437 C116.947401,28.3808351 116.78616,28.4486612 116.617849,28.4486275 L112.55914,28.4486275 C112.282404,28.4486275 112.058065,28.6733629 112.058065,28.9505882 L112.058065,34.9239216 C112.058065,35.2011469 112.282404,35.4258824 112.55914,35.4258824 L117.344409,35.4258824 C117.512719,35.4258486 117.67396,35.4936747 117.791789,35.6140728 C117.909618,35.7344709 117.974119,35.8973085 117.970753,36.0658824 L117.970753,37.0698039 C117.970753,37.4163355 117.690329,37.6972549 117.344409,37.6972549 L110.241667,37.6972549 C109.895746,37.6972549 109.615323,37.4163355 109.615323,37.0698039 L109.565215,17.7694118 Z" id="Shape"></path>
            <path d="M128.518387,22.1239216 L128.518387,17.4431373 C128.511058,17.360109 128.539919,17.2779608 128.597541,17.2178316 C128.655163,17.1577024 128.73592,17.1254638 128.819032,17.1294118 L130.447527,17.1294118 C130.530639,17.1254638 130.611396,17.1577024 130.669018,17.2178316 C130.726641,17.2779608 130.755501,17.360109 130.748172,17.4431373 L130.748172,19.4886275 C130.756365,19.7399758 130.681507,19.9870044 130.535215,20.1913725 L129.119677,22.1866667 C129.042829,22.3151906 128.905886,22.3956096 128.756398,22.4 C128.606075,22.4 128.518387,22.3121569 128.518387,22.1239216 Z" id="Shape"></path>
            <path d="M144.402473,37.6470588 C144.084226,37.6470588 143.826237,37.388613 143.826237,37.0698039 L143.826237,27.6956863 C143.826237,25.9764706 143.212419,25.0729412 141.922151,25.0729412 C140.631882,25.0729412 139.993011,25.9137255 139.993011,27.6956863 L139.993011,37.0698039 C139.986367,37.3858153 139.732228,37.6404038 139.416774,37.6470588 L138.239247,37.6470588 C137.923793,37.6404038 137.669654,37.3858153 137.663011,37.0698039 L137.663011,23.8431373 C137.663011,23.5243282 137.921001,23.2658824 138.239247,23.2658824 L139.416774,23.2658824 C139.735021,23.2658824 139.993011,23.5243282 139.993011,23.8431373 L139.993011,24.7090196 C140.466756,23.6246415 141.55576,22.9421886 142.736398,22.9898039 C144.97871,22.9898039 146.118656,24.3827451 146.118656,27.4321569 L146.118656,37.1701961 C146.118656,37.4890052 145.860666,37.747451 145.542419,37.747451 L144.402473,37.6470588 Z" id="Shape"></path>
            <path d="M317.761989,20.2541176 C317.761989,10.4407843 312.651022,7.86823529 309.168548,7.86823529 C303.569032,7.86823529 300.036452,13.7913725 301.740108,13.1011765 C302.441613,12.812549 305.74871,9.97647059 308.905484,9.97647059 C311.711505,9.97647059 314.066559,11.507451 314.066559,20.0156863 C314.066559,30.5694118 302.278763,42.905098 288.599409,46.5443137 C287.484516,46.8329412 287.935484,46.105098 288.060753,45.9545098 C297.368226,35.0745098 304.746559,22.5380392 304.746559,19.4760784 C304.746559,18.2211765 303.118065,17.4180392 302.003172,17.0666667 C301.450476,16.8807406 300.845683,17.1327361 300.587634,17.6564706 L300.512473,17.8196078 C297.455914,21.5843137 281.571828,40.947451 276.348118,40.947451 C273.429355,40.947451 286.695323,24.7215686 289.488817,21.2956863 C289.852219,20.8462924 289.887548,20.2142883 289.576505,19.7270588 C288.94202,18.8441052 287.919094,18.3247198 286.833118,18.3341176 C286.540594,18.3119126 286.255566,18.4336148 286.068978,18.6603922 C282.749,22.2966757 279.65728,26.1356749 276.811613,30.1552941 C275.211973,32.2866476 273.475409,34.3113282 271.612957,36.2164706 C268.932204,38.7262745 266.426828,40.6462745 264.61043,40.6462745 C263.896398,40.6462745 263.683441,40.1568627 263.683441,39.3913725 C263.683441,32.3137255 275.471237,19.5137255 282.473763,12.0847059 C282.990684,11.576507 283.67905,11.2809717 284.402903,11.2564706 C290.177796,11.2564706 294.261559,12.2352941 295.677097,16.9286275 C295.752258,17.1670588 296.103011,17.1670588 296.103011,16.9286275 C296.103011,12.9631373 296.315968,8.34509804 286.507419,7.79294118 C286.944036,7.38953677 287.308414,6.91415985 287.584731,6.38745098 C287.359202,5.2961934 286.710377,4.33929091 285.78086,3.72705882 C285.468799,3.52185248 285.055897,3.56373923 284.791237,3.82745098 C284.202473,4.37960784 282.974839,5.58431373 281.358871,7.21568627 C281.018087,7.54799573 280.578161,7.75953332 280.106183,7.81803922 C276.874247,7.94352941 273.842742,8.18196078 270.923978,8.49568627 C270.63586,8.49568627 270.923978,8.1945098 270.923978,8.1945098 C272.274664,6.92730209 273.499665,5.53203095 274.581828,4.02823529 C274.372284,3.01018339 273.780321,2.11168522 272.92828,1.51843137 C272.544844,1.23185449 272.008669,1.2748243 271.675591,1.61882353 C270.698495,2.58509804 268.280806,5.01960784 265.274355,8.18196078 L265.061398,8.42039216 C264.640218,8.87357091 264.115891,9.2179998 263.533118,9.42431373 C259.039646,10.1891207 254.505637,10.6919275 249.953978,10.9301961 C234.92172,10.9301961 236.174409,4.31686275 234.533387,4.31686275 C233.669032,4.31686275 234.608548,14.6070588 249.715968,14.6070588 C252.371667,14.6070588 255.603602,14.3686275 259.048495,14.0298039 C259.374194,14.0298039 259.599677,14.1929412 259.236398,14.732549 C255.879194,18.4972549 252.484409,22.4752941 249.841237,26.0266667 C245.544516,31.0462745 237.802903,40.4956863 233.055215,40.4956863 C231.464301,40.4956863 230.399516,39.8431373 230.399516,37.7098039 C230.399516,35.5764706 231.652204,32.9788235 233.531237,30.3435294 C234.72129,28.7121569 234.871613,28.4235294 235.723441,29.0886275 C236.68077,29.9903467 237.93053,30.5160843 239.243495,30.5694118 C244.855538,30.5694118 247.724194,22.412549 247.724194,19.5764706 C247.724194,17.5309804 244.717742,16.0376471 242.588172,16.0376471 C240.458602,16.0376471 235.84871,20.3545098 232.165806,25.3364706 C231.18871,26.5913725 229.998656,28.1976471 228.482903,29.9921569 L226.904516,31.8117647 L226.56629,32.1882353 C226.50798,32.2392214 226.457347,32.2983976 226.415968,32.3639216 C222.657903,36.6305882 218.899839,40.3827451 217.647151,40.3827451 C217.269191,40.4303685 216.890136,40.3031177 216.617141,40.0369657 C216.344146,39.7708136 216.206877,39.3946827 216.24414,39.014902 C216.24414,35.7772549 227.969301,25.8635294 227.969301,21.8603922 C227.969301,17.8572549 222.419892,17.945098 222.419892,16.3639216 C222.419892,14.7827451 224.925269,13.2517647 224.925269,11.6956863 C224.925269,10.8298039 223.171505,10.1396078 221.993978,10.1396078 C221.066989,10.1396078 217.371559,12.6494118 217.371559,15.0839216 C217.371559,16.3388235 218.624247,16.9913725 218.624247,17.2047059 C218.624247,18.9615686 200.222258,41.5623529 196.965269,41.5623529 C196.247496,41.5604332 195.562626,41.2605571 195.07371,40.7341176 C194.572634,40.345098 194.10914,40.0564706 194.10914,40.7341176 C194.10914,42.0768627 194.10914,44.6745098 197.128118,44.6745098 C202.051183,44.6745098 218.048011,23.9937255 220.077366,19.3505882 C220.26069,18.9382806 220.73282,18.7402956 221.154677,18.8988235 C222.131774,19.3003922 223.509731,20.2666667 223.509731,21.2705882 C223.509731,24.332549 211.822151,35.1372549 211.822151,38.6384314 C211.822151,41.2486275 213.300323,44.1976471 216.569839,44.1976471 C218.824677,44.1976471 222.645376,40.5207843 226.390914,36.2164706 C226.716613,35.9529412 227.117473,35.7145098 227.230215,36.5427451 C227.443172,41.9513725 231.526935,44.1976471 233.656505,44.1976471 C237.351935,44.1976471 241.410645,39.2533333 244.392043,35.8901961 C244.667634,35.6015686 244.830484,35.5262745 244.868065,36.0407843 C244.943226,40.972549 246.346237,44.2729412 250.054194,44.2729412 C252.283978,44.2729412 256.05457,40.0815686 259.662312,35.852549 C259.95043,35.5513725 260.038118,35.7019608 260.050645,35.852549 C260.175914,40.0941176 261.428602,44.2980392 265.274355,44.2980392 C267.216022,44.2980392 269.758978,41.7882353 272.264355,38.9145098 C272.539946,38.6635294 273.12871,38.2494118 273.16629,39.2407843 C273.404301,43.9466667 275.671667,44.2603922 277.387849,44.2603922 C281.383925,44.2603922 288.248656,35.865098 292.958763,30.4564706 C293.572581,29.8290196 294.048602,29.4901961 293.372151,30.694902 C290.006152,36.3302735 286.198527,41.6888327 281.985215,46.72 C281.515767,47.2375614 280.883613,47.5785533 280.193871,47.6862745 C266.151237,47.6862745 255.465806,49.0666667 255.465806,56.32 C255.465806,61.1764706 261.929677,63.36 263.420376,63.36 C269.170215,63.36 276.122634,58.4156863 282.674194,51.84 C283.019123,51.5021013 283.454105,51.2711537 283.926882,51.174902 C297.155269,50.4219608 317.749462,41.7631373 317.749462,20.3419608 L317.761989,20.2541176 Z M244.379516,19.7521569 C246.271075,19.7521569 241.986882,27.9592157 238.266398,27.9592157 C237.781421,27.9412616 237.299155,27.8782461 236.825806,27.7709804 C235.936398,27.5701961 236.65043,26.5160784 236.825806,26.3403922 C240.095323,22.6384314 243.552742,19.7521569 244.341935,19.7521569 L244.379516,19.7521569 Z M249.352688,40.7215686 C248.638656,40.7215686 248.425699,40.2321569 248.425699,39.4666667 C248.425699,33.3301961 258.058871,22.0486275 265.637634,13.8666667 L265.637634,13.9796078 C266.018405,13.5860319 266.499169,13.3040064 267.028118,13.1639216 C270.235,12.774902 273.36672,12.3607843 276.160215,12.0345098 C276.561075,12.0345098 276.774032,12.0345098 276.42328,12.4360784 C272.173584,16.8352762 268.187255,21.4823392 264.485161,26.3529412 C259.023441,32.9788235 252.672312,40.6588235 249.452903,40.6588235 L249.352688,40.7215686 Z M261.31586,59.9592157 C257.394946,59.9592157 257.896022,55.4792157 262.017366,52.8564706 C264.772014,51.6113103 267.764238,50.9818327 270.786183,51.0117647 L273.830215,51.0117647 L273.968011,51.0117647 L277.250054,51.0745098 C277.475538,51.0745098 277.701022,51.212549 277.500591,51.5137255 C272.339516,56.4705882 266.777581,59.9341176 261.27828,59.9341176 L261.31586,59.9592157 Z" id="Shape"></path>
            <path d="M195.612366,35.2627451 C201.362204,35.2627451 212.561237,25.7380392 212.561237,15.6988235 C212.561237,4.58039216 208.201882,3.81490196 208.201882,3.81490196 C208.201882,3.81490196 206.949194,0.0501960784 199.433065,0.0501960784 C194.998548,0.0501960784 188.685,2.22117647 183.085484,5.99843137 C177.485968,9.77568627 183.085484,5.99843137 183.085484,5.99843137 L182.709677,6.2745098 C181.944795,6.7787177 181.044501,7.03702458 180.12914,7.01490196 L179.815968,7.01490196 C178.914032,7.01490196 178.099785,7.01490196 177.43586,7.01490196 C172.01172,7.01490196 160.023495,11.9215686 160.023495,22.1992157 C160.023495,25.8384314 161.927581,27.8964706 163.706398,28.2478431 C163.813641,28.2773411 163.928073,28.2393765 163.99654,28.1515838 C164.065007,28.0637911 164.07409,27.9433772 164.01957,27.8462745 C163.443616,26.9784718 163.126412,25.9642368 163.105108,24.9223529 C163.52904,16.752178 169.86879,10.1288116 177.99957,9.36156863 C178.287688,9.36156863 178.751183,9.36156863 178.312742,9.90117647 C173.727903,14.2431373 170.420806,19.827451 170.420806,26.214902 C170.541126,27.8968884 171.240716,29.4848358 172.400054,30.707451 C172.400054,30.707451 174.078656,32.7152941 175.606935,32.7152941 C177.135215,32.7152941 189.386505,28.1098039 189.386505,17.1168627 C189.565582,14.5437936 188.749182,12.0003926 187.106613,10.0141176 C186.768387,9.26117647 187.958441,8.16941176 188.559731,7.69254902 C192.559492,4.92717381 197.280189,3.39590744 202.138871,3.28784314 C208.627796,3.28784314 208.915914,9.56235294 208.915914,13.9294118 C208.915914,22.3623529 195.399409,35.6392157 192.029677,32.3513725 C191.684144,31.8073591 191.729741,31.1018926 192.142419,30.6070588 C198.894409,21.4713725 204.857204,13.2266667 207.663226,13.2266667 C207.906524,12.744395 207.903648,12.174378 207.655494,11.6945952 C207.407341,11.2148124 206.944147,10.8837234 206.410538,10.8047059 C206.202216,10.7850794 205.992515,10.7850794 205.784194,10.8047059 C197.554032,10.8047059 177.047527,50.3592157 164.069677,50.3592157 C153.835215,50.3592157 159.422204,32.627451 167.138763,32.627451 C169.731828,32.627451 169.255806,36.0031373 168.955161,38.2117647 C168.88,38.7137255 169.932258,39.2533333 170.207849,38.7890196 C170.699904,37.4619679 170.9214,36.0495654 170.859247,34.6352941 C170.859247,32.4643137 168.165968,30.694902 165.18457,30.694902 C163.305538,30.694902 156.027419,34.4596078 156.027419,43.2439216 C156.027419,52.0282353 160.311613,50.6101961 160.311613,51.5137255 C160.311613,53.0447059 163.017419,54.5505882 167.902903,54.5505882 C173.865699,54.5505882 182.747258,43.2564706 190.764462,32.4768627 C191.596229,34.350175 193.507865,35.5031945 195.549731,35.3631373 L195.612366,35.2627451 Z M173.565054,29.3270588 C170.934409,29.3270588 175.606935,18.6352941 184.313118,10.9678431 C184.483802,10.8198135 184.70749,10.7481438 184.932245,10.769474 C185.157001,10.7908043 185.363274,10.9032791 185.503172,11.0807843 C185.553473,11.148966 185.599494,11.2202145 185.640968,11.2941176 L185.716129,11.4447059 C188.785215,16.7027451 182.822419,29.3521569 173.565054,29.3521569 L173.565054,29.3270588 Z" id="Shape"></path>
        </g>
    </g>
</svg>