<svg height="396.05" viewBox="0 0 266.28 396.05" width="266.28" xmlns="http://www.w3.org/2000/svg"><g fill="#fff"><path d="m254.24 169.38a15 15 0 0 0 -6-10.35 9.07 9.07 0 0 0 -8.53-1.79c-.48.13-.92.38-1.48.1-2.78-1.38-5.64-1.15-8.49-.28a1.21 1.21 0 0 1 -1.55-.53 78.79 78.79 0 0 1 -9.28-14.76c-.94-2-2-4-3-5.94a34.54 34.54 0 0 0 -17.15-16.08c-1.46-.65-2.88-1.39-4.38-1.94a39.07 39.07 0 0 1 -15.53-10.65c-8.72-9.51-19.73-9.18-28.9-4.27a53.82 53.82 0 0 0 -10.17 7.79c-.43.38-.72 1-1.61 1 .31-1.48.65-2.92.89-4.36a43.34 43.34 0 0 1 10.4-22.32 97.92 97.92 0 0 0 10-13.86 150.33 150.33 0 0 1 12.89-17.74 60.69 60.69 0 0 0 9.78-15.68c2.16-5.18 3.47-10.49 2.58-16.18-1.21-7.66-6.94-10.33-13.51-6.26a27.49 27.49 0 0 0 -4.79 3.88c-9.07 8.84-17.81 18.06-27.22 26.57a93.45 93.45 0 0 0 -10.47 11.32q-7.11 8.95-14.64 17.46c-.28.32-.45.8-1.1.82-.15-1.93-.28-3.84-.45-5.74-.39-4.15-.94-8.3-.46-12.48a71.18 71.18 0 0 0 .3-14.88c-.6-6.4-1.64-12.69-4.86-18.38-2.85-5-6.64-9.19-12.26-11.18s-9.83.53-11.08 6.22c-1 4.42-.43 8.87-.13 13.3.62 9 1 17.91-.09 26.87-.8 6.8-2.33 13.48-3.34 20.25-.35 2.39-.65 4.8-1 7.29a3.66 3.66 0 0 1 -1.23-1.47 29.81 29.81 0 0 0 -9.08-8.95 15.83 15.83 0 0 0 -8.75-2.61c-3.94.09-6 2.8-5.25 6.66.09.44.18.89.31 1.33 1.3 4.32 2.65 8.61 3.9 12.94 2.28 7.92 3.15 16.11 4.65 24.19 3 16.26 7.33 32.25 10.89 48.39.56 2.55 1.5 5.09 1.16 7.72-1.1 8.38-2.31 16.74-3.5 25.09-1.63 11.42-3.16 22.85-3.65 34.39-.45 10.79-1.45 21.5-4.38 32-2.62 9.34-6.14 18.13-12.8 25.43-11.55 12.67-22.88 25.5-33.08 39.29-2.08 2.84-4.53 5.41-6.8 8.1a11.08 11.08 0 0 0 3.23-2.1l.85-.74c.31-.26.62-.51.94-.74l.2.37a1.26 1.26 0 0 1 .13.37c.28 2.69 1.39 3.62 4 3.75 3.08.15 5.85-1 8.55-2.12 4.43-1.82 9-3.27 13.45-4.93a1.18 1.18 0 0 1 1.15 0c0 .81-.69 1.28-1 1.92-.63 1.22-1.64 2.58-1 3.82a27.91 27.91 0 0 0 3.5 4.51c.11.14.42.17.64.16a26.47 26.47 0 0 0 3.56-.21 78.87 78.87 0 0 0 12-3.67c2-.72 4.59-.06 5.12 1.47a6 6 0 0 1 -.38 5.56c-2.49 3.85-5.4 7.43-7.34 11.67a14.07 14.07 0 0 0 -1.47 6.56 4.77 4.77 0 0 0 3.64 4.77 9 9 0 0 0 4.88 0c2-.55 4-1.14 6.08-1.66 1.34-.34 2.11.3 1.79 1.59a20.43 20.43 0 0 0 -.24 4.94c0 3 1 4.34 3.89 5.24a2.17 2.17 0 0 1 .41.09l.3.06a.69.69 0 0 1 .57.71 2.52 2.52 0 0 1 -.08.54c-.05.21-.11.41-.18.62s-.25.67-.34 1a2.39 2.39 0 0 0 0 1.4c.84-.33 1.16-1 1.62-1.59a227 227 0 0 0 15.28-21.91c11.12-17.71 27.24-29.92 44.29-41.19a.92.92 0 0 0 .43-.06.29.29 0 0 0 .13-.14.57.57 0 0 0 .06-.25l.07.08-.07-.08c.63.22 1.1-.18 1.58-.44 7.59-4.11 14.69-8.89 20.51-15.39a1.87 1.87 0 0 0 .67-1.5.83.83 0 0 0 .4-.11.39.39 0 0 0 .13-.38l.08.08-.08-.09a.41.41 0 0 0 .22 0 .29.29 0 0 0 .14-.08.42.42 0 0 0 .09-.16 1.17 1.17 0 0 0 0-.2c.15-.17.28-.36.44-.51a82.51 82.51 0 0 0 22.88-33.84 60.79 60.79 0 0 1 13.63-21.74 114.64 114.64 0 0 0 12.27-15.17 81.8 81.8 0 0 1 13.86-15.57 76.32 76.32 0 0 0 9.91-10.42c4.94-6.38 9.8-12.85 11.76-20.86a21.1 21.1 0 0 1 3.55-7.94 7.27 7.27 0 0 0 1.46-5.21zm-101.24 22.62a94.87 94.87 0 0 0 -11.92-7c-.92-.49-1.24-.8-.54-1.87 1.91-2.95 2.27-6.42 2.95-9.76.51-2.52.94-5 1.52-7.55 1.2-5.25 3.27-9.94 7.48-13.69a77.57 77.57 0 0 0 9.33-10.5 3.21 3.21 0 0 1 2.46-1.3c2.65-.22 5.07.7 7.5 1.5 4.49 1.46 8.94 3.09 13.42 4.59a25.29 25.29 0 0 1 9.43 5.76c5.65 5.4 11.61 10.3 18.92 13.32.08 0 .12.17.2.29a5.91 5.91 0 0 1 -1.79 1.51c-8 6.1-15.09 13.24-21.95 20.62s-14.57 13.08-22.5 18.94c-.41.3-.94 1.1-1.38-.07-2.47-6.59-7.66-10.79-13.13-14.79z" stroke="#fff" stroke-linecap="round" stroke-linejoin="round" stroke-width="24"/><path d="m236.58 186.21a27 27 0 0 0 2.7.37 27 27 0 0 1 -2.7-.37z"/><path d="m242.89 187.11c-.33.44-.66.86-1 1.28.34-.39.67-.84 1-1.28z"/><path d="m245.09 183.36a.37.37 0 0 1 0 .21.37.37 0 0 0 0-.21z"/></g><path d="m79.42 380.43c.08-.27.18-.53.27-.79.34-1.06.72-2.09 1.14-3.1a54.53 54.53 0 0 1 2.71-5.67 99.57 99.57 0 0 1 5.56-8.81c6.32-9.1 12.55-18.27 20.78-25.83 6.79-6.24 14.36-11.46 21.83-16.83 9.17-6.61 18.51-13 27.19-20.25 11-9.2 19.37-20.29 24.25-33.83a66.51 66.51 0 0 1 15-24.1 124.23 124.23 0 0 0 12.45-15.46 78.13 78.13 0 0 1 12.44-14.12c0-.48-.29-.52-.5-.52a7.34 7.34 0 0 1 -6.52-3.73c-2.38-3.69-5.6-6.77-7.73-10.65-.62-1.14-2-1.66-2.6-2.91-.28-.62-.69-1.19-.37-1.86 5.72 3.12 9.44 8.23 13 13.41a52.77 52.77 0 0 0 4.86 5.27c.39.43.66.24 1-.05a87.45 87.45 0 0 0 17.68-21.88 1.26 1.26 0 0 0 0-.33l-.29-.33c-3.33 1.78-9.26 1.5-13.06-1.9a14.07 14.07 0 0 1 -4.58-9c-.05-.39-.27-.86.21-1 .21-.08.56.26.85.41a3.71 3.71 0 0 1 1.07-2c-.6-2.82.73-5.12 2.12-7.35 1.23-2 2.63-3.83 4-5.76a2.67 2.67 0 0 0 -1.92.23c-9.47 3.9-17.14 10.37-24.66 17.07-4.61 4.12-8.67 8.77-13 13.18-9.32 9.53-19.93 17.44-31.13 24.57a38 38 0 0 1 -13.5 5.66 15.68 15.68 0 0 1 -6.18 0 4.34 4.34 0 0 1 2.12-1 37.66 37.66 0 0 0 11.14-5.52c2.53-1.76 5-3.62 7.58-5.32 1-.66.87-1.1.26-2a55.53 55.53 0 0 0 -19.37-16.79 82 82 0 0 1 -12.65-7.79c-3.84-3-7.4-6.32-9.16-11.07-1-2.66-1.29-5.61-.61-7.53 1 7.89 6.39 12.08 12.48 15.7 2.8 1.66 2.78 1.65 3.79-1.51a42.94 42.94 0 0 0 1.45-6.15 45.25 45.25 0 0 1 3.36-11.8c-.08-.12-.16-.23-.23-.35-1.45.36-2.7 1.35-4.59 1.46 6.55-5 10.84-11.58 15.85-17.56a27.63 27.63 0 0 1 3.67-3.82 7.35 7.35 0 0 0 2.69-5c.47-3.2 1.31-6.38.58-9.66a1.57 1.57 0 0 1 .35-1.35 45 45 0 0 0 3.15 8.62c1 1.84 2.28 2.87 4.43 2.76a16.37 16.37 0 0 1 6.17 1.27c3.66 1.26 7.3 2.61 11 3.76a33.26 33.26 0 0 1 12.75 7.48 94.44 94.44 0 0 0 10.34 8.7 61.26 61.26 0 0 0 9.07 4.77 1.56 1.56 0 0 0 2-.49c.57-.7-.37-.9-.66-1.28a24.26 24.26 0 0 1 -5.36-14.85 4.45 4.45 0 0 1 1.07-3.33c.5-.49.28-.88.06-1.37-4.24-9.34-10.58-16.37-20.62-19.74a40 40 0 0 1 -17-11.14c-3-3.35-6.52-6.1-11.15-6.89-6.29-1.06-11.71 1-16.58 4.81-5.16 4.09-9.57 9-14.28 13.56q-15.57 15.1-32.49 28.66c-3.84 3.07-7.44 6.43-11.28 9.49-6.12 4.95-9.39 11.49-10.63 19.1-2.88 17.8-5.61 35.63-6.76 53.64-.46 7.24-.53 14.51-1.84 21.66a110.56 110.56 0 0 1 -8 26.81c-3.52 7.54-9.08 13.67-14.59 19.77-9.07 10-18.77 19.51-27.64 29.74-1.45 1.68-3.07 3.21-4.61 4.81l.2.37a1.26 1.26 0 0 1 .13.37c.28 2.69 1.39 3.62 4.05 3.75 3.08.15 5.85-1 8.55-2.12 4.43-1.82 9-3.27 13.45-4.93a1.18 1.18 0 0 1 1.15 0c0 .81-.69 1.28-1 1.92-.63 1.22-1.64 2.58-1 3.82a27.91 27.91 0 0 0 3.47 4.55c.11.14.42.17.64.16a26.47 26.47 0 0 0 3.56-.21 78.87 78.87 0 0 0 12-3.67c2-.72 4.59-.06 5.12 1.47a6 6 0 0 1 -.37 5.59c-2.49 3.85-5.4 7.43-7.34 11.67a14.07 14.07 0 0 0 -1.47 6.56 4.77 4.77 0 0 0 3.64 4.77 9 9 0 0 0 4.88 0c2-.55 4-1.14 6.08-1.66 1.34-.34 2.11.3 1.79 1.59a20.43 20.43 0 0 0 -.24 4.94c0 3 1 4.34 3.89 5.24a2.17 2.17 0 0 1 .41.09.72.72 0 0 1 .78.73zm137.31-183.66c.27.14.47.19.54.3 1.4 2.34 4.1 3.44 5.49 5.77.36.61 1.16 1.43.61 1.92s-1.44-.22-2.06-.68a12.82 12.82 0 0 1 -4.64-5.56 1.87 1.87 0 0 1 .06-1.75z" fill="#f4e2eb"/><path d="m254.24 169.38a15 15 0 0 0 -6-10.35 9.07 9.07 0 0 0 -8.53-1.79c-.48.13-.92.38-1.48.1-2.78-1.38-5.64-1.15-8.49-.28a1.21 1.21 0 0 1 -1.55-.53 78.79 78.79 0 0 1 -9.28-14.76c-.94-2-2-4-3-5.94a34.54 34.54 0 0 0 -17.15-16.08c-1.46-.65-2.88-1.39-4.38-1.94a39.07 39.07 0 0 1 -15.53-10.65c-8.72-9.51-19.73-9.18-28.9-4.27a53.82 53.82 0 0 0 -10.17 7.79c-.43.38-.72 1-1.61 1 .31-1.48.65-2.92.89-4.36a43.34 43.34 0 0 1 10.4-22.32 97.92 97.92 0 0 0 10-13.86 150.33 150.33 0 0 1 12.89-17.74 60.69 60.69 0 0 0 9.78-15.68c2.16-5.18 3.47-10.49 2.58-16.18-1.21-7.66-6.94-10.33-13.51-6.26a27.49 27.49 0 0 0 -4.79 3.88c-9.07 8.84-17.81 18.06-27.22 26.57a93.45 93.45 0 0 0 -10.47 11.32q-7.11 8.95-14.64 17.46c-.28.32-.45.8-1.1.82-.15-1.93-.28-3.84-.45-5.74-.39-4.15-.94-8.3-.46-12.48a71.18 71.18 0 0 0 .3-14.88c-.6-6.4-1.64-12.69-4.86-18.38-2.85-5-6.64-9.19-12.26-11.18s-9.83.53-11.08 6.22c-1 4.42-.43 8.87-.13 13.3.62 9 1 17.91-.09 26.87-.8 6.8-2.33 13.48-3.34 20.25-.35 2.39-.65 4.8-1 7.29a3.66 3.66 0 0 1 -1.23-1.47 29.81 29.81 0 0 0 -9.08-8.95 15.83 15.83 0 0 0 -8.75-2.61c-3.94.09-6 2.8-5.25 6.66.09.44.18.89.31 1.33 1.3 4.32 2.65 8.61 3.9 12.94 2.28 7.92 3.15 16.11 4.65 24.19 3 16.26 7.33 32.25 10.89 48.39.56 2.55 1.5 5.09 1.16 7.72-1.1 8.38-2.31 16.74-3.5 25.09-1.63 11.42-3.16 22.85-3.65 34.39-.45 10.79-1.45 21.5-4.38 32-2.62 9.34-6.14 18.13-12.8 25.43-11.55 12.67-22.88 25.5-33.08 39.29-2.08 2.84-4.53 5.41-6.8 8.1a11.08 11.08 0 0 0 3.23-2.1l.85-.74c.31-.26.62-.51.94-.74 1.54-1.6 3.16-3.13 4.61-4.81 8.87-10.27 18.57-19.71 27.64-29.78 5.51-6.1 11.07-12.23 14.59-19.77a110.56 110.56 0 0 0 8-26.81c1.31-7.15 1.38-14.42 1.84-21.66 1.15-18 3.88-35.84 6.76-53.64 1.24-7.64 4.48-14.18 10.65-19.13 3.84-3.06 7.44-6.42 11.28-9.49q16.92-13.55 32.49-28.66c4.71-4.57 9.12-9.47 14.28-13.56 4.87-3.85 10.29-5.87 16.58-4.81 4.63.79 8.1 3.54 11.15 6.89a40 40 0 0 0 17 11.14c10 3.37 16.38 10.4 20.62 19.74.22.49.44.88-.06 1.37a4.45 4.45 0 0 0 -1.07 3.33 24.26 24.26 0 0 0 5.36 14.85c.29.38 1.23.58.66 1.28a1.56 1.56 0 0 1 -2 .49 61.26 61.26 0 0 1 -9.07-4.77 94.44 94.44 0 0 1 -10.33-8.72 33.27 33.27 0 0 0 -12.77-7.45c-3.7-1.15-7.34-2.5-11-3.76a16.37 16.37 0 0 0 -6.17-1.27c-2.15.11-3.44-.92-4.43-2.76a45.66 45.66 0 0 1 -3.16-8.62 1.6 1.6 0 0 0 -.34 1.35c.73 3.28-.11 6.46-.58 9.66a7.35 7.35 0 0 1 -2.69 5 27.63 27.63 0 0 0 -3.67 3.82c-5 6-9.3 12.59-15.85 17.56 1.89-.11 3.14-1.1 4.59-1.46h.41l-.18.4a45.25 45.25 0 0 0 -3.36 11.8 42.94 42.94 0 0 1 -1.45 6.15c-1 3.16-1 3.17-3.79 1.51-6.07-3.74-11.45-7.95-12.45-15.82-.68 1.92-.39 4.87.61 7.53 1.76 4.75 5.32 8 9.16 11.07a82 82 0 0 0 12.65 7.79 55.53 55.53 0 0 1 19.37 16.79c.61.86.74 1.3-.26 2-2.58 1.7-5 3.56-7.58 5.32a37.66 37.66 0 0 1 -11.14 5.52 4.34 4.34 0 0 0 -2.12 1 15.68 15.68 0 0 0 6.18 0 38 38 0 0 0 13.5-5.66c11.2-7.13 21.81-15 31.13-24.57 4.32-4.41 8.38-9.06 13-13.18 7.52-6.7 15.19-13.17 24.66-17.07a2.67 2.67 0 0 1 1.92-.23c-1.35 1.93-2.75 3.79-4 5.76-1.4 2.23-2.72 4.53-2.12 7.35a4.76 4.76 0 0 0 2.81-2.28 54 54 0 0 1 7.92-9.84c2.88-2.64 5-2.82 8.31-.75 2.86 1.76 4.64 4.5 6.53 7.14.32.45.11.85-.06 1.29a15.19 15.19 0 0 1 -2 3.75c-2.56 3.41-5.25 6.72-7.59 10.36 1 .26 1.51-.68 2.33-.79.26 0 .62-.31.75 0a.37.37 0 0 1 0 .21.88.88 0 0 1 -.44.59 15.45 15.45 0 0 1 -1.79 3c-.33.44-.66.86-1 1.28a1.26 1.26 0 0 1 0 .33 87.6 87.6 0 0 1 -17.66 21.76c-.32.29-.59.48-1 .05a52.77 52.77 0 0 1 -4.86-5.27c-3.59-5.18-7.31-10.29-13-13.41-.32.67.09 1.24.37 1.86.57 1.25 2 1.77 2.6 2.91 2.13 3.88 5.35 7 7.73 10.65a7.34 7.34 0 0 0 6.52 3.73c.21 0 .46 0 .5.52a78.13 78.13 0 0 0 -12.44 14.12 124 124 0 0 1 -12.42 15.46 66.51 66.51 0 0 0 -15 24.1c-4.88 13.54-13.26 24.63-24.25 33.83-8.68 7.27-18 13.64-27.19 20.25-7.47 5.37-15 10.59-21.83 16.83-8.21 7.56-14.44 16.73-20.76 25.83a99.57 99.57 0 0 0 -5.56 8.81 54.53 54.53 0 0 0 -2.71 5.67c-.42 1-.8 2-1.14 3.1-.09.26-.19.52-.27.79a3.61 3.61 0 0 1 -.26 1.16c-.12.33-.25.67-.34 1a2.39 2.39 0 0 0 0 1.4c.84-.33 1.16-1 1.62-1.59a227 227 0 0 0 15.28-21.91c11.07-17.69 27.23-29.9 44.23-41.17l.62-.46c4.74-3.51 9.52-7 14.23-10.55 2.89-2.18 5.68-4.51 8.53-6.77a.68.68 0 0 1 .53-.5l.5-.44c.15-.17.28-.36.44-.51a82.51 82.51 0 0 0 22.88-33.84 60.79 60.79 0 0 1 13.63-21.74 114.64 114.64 0 0 0 12.27-15.17 81.8 81.8 0 0 1 13.86-15.57 76.32 76.32 0 0 0 9.91-10.42c4.94-6.38 9.8-12.85 11.76-20.86a21.1 21.1 0 0 1 3.55-7.94 7.29 7.29 0 0 0 1.52-5.15zm-79.65-150.87.34.38-6.93 5.9-.39-.48a40 40 0 0 1 6.98-5.8zm-85.52.14a31.56 31.56 0 0 1 -.07 16.92c-.34-5.61-1.46-11.29.13-16.92zm-24.07 78.76a130.15 130.15 0 0 0 -5.1-16.13c3.56 1.95 6.8 11.89 5.1 16.13zm16 58.64c-1.14 3.22-2.31 6.42-3.49 9.74-.43-2.53-.91-5-1.28-7.59-.93-6.39-2.57-12.64-3.71-19q-3.44-18.9-6.73-37.87c-.09-.49-.27-1 .26-1.4 3-2.4 3.11-5.71 2.59-9.06a18.88 18.88 0 0 0 -8.56-13.23 12.32 12.32 0 0 1 8.25 3.2 38.05 38.05 0 0 1 10.19 13.16 4.66 4.66 0 0 1 .34 2.5c-.53 7.46-1.25 14.91-.89 22.41.31 6.4 1.48 12.69 2.25 19a155.83 155.83 0 0 1 1 16 6 6 0 0 1 -.22 2.15zm1.56-47.53c0-1.25.52-1.67 1.76-1.65 3 0 5.94-.1 8.1-2.84a5.81 5.81 0 0 0 -2.86-.37c-1.94 0-3.88.1-5.81.2-.62 0-.93-.2-.77-.75s-.44-1.71.9-1.85 2.6-.36 3.89-.56c.4-.06.84-.14.82-.68s-.36-.59-.68-.68a7.08 7.08 0 0 0 -3.34-.58c-1.14.23-1.28-.21-1.23-1.27.47-10.35 2.21-20.54 4.09-30.7a109.74 109.74 0 0 0 1.74-24 4 4 0 0 1 .73-2.52 20.44 20.44 0 0 0 3.1-13.27 32 32 0 0 0 -2-10.24 5.59 5.59 0 0 1 4.15.85c5.2 2.92 8.41 7.45 10.26 13a55.4 55.4 0 0 1 2.48 19.39c-.21 7.25-.75 14.49.25 21.73.36 2.59.57 5.21.89 7.82a2.33 2.33 0 0 1 -.26 1.79c-4.78 6.9-7.14 14.74-8.84 22.82-3.16 15.07-9 29.19-15.28 43.13-.08.17-.1.47-.66.43v-7.57c-.14-7.2-1.33-14.33-1.5-21.53-.09-3.32.07-6.7.07-10.07zm51.65-.42c-.49 3.09-1.16 6.15-1.76 9.24-.15.8-.84 1.2-1.36 1.7-8.91 8.71-18.31 16.87-27.82 24.9-6.32 5.34-12.65 10.69-18.46 16.59-.23.23-.42.58-.89.41-.33-.72.24-1.23.5-1.82 6.08-13.64 12.49-27.15 16.82-41.49 2-6.73 3.27-13.64 5.2-20.38v-.17c.86-2.87.86-2.83 3.76-3a14.15 14.15 0 0 0 7.92-2.76h-4.84c-1 0-2.06 0-3.08-.09-.48 0-1.4.26-1.28-.61.07-.62.18-1.6 1.18-1.64 1.41-.06 2.36-.14.84-1.74-.58-.6.39-1.27.68-1.9s.63-.93 1.34-.74 1.65.37 2.59.57a1.43 1.43 0 0 0 -1-1.63c-1.27-.52-1.06-1.12-.33-2 5-5.9 10-11.72 14.82-17.75a159.89 159.89 0 0 1 18.4-19.59c5.09-4.58 9.86-9.51 14.66-14.41a3.54 3.54 0 0 1 2.48-1.21 11.27 11.27 0 0 0 3.77-1 22.4 22.4 0 0 0 10.09-8.82 6 6 0 0 1 1.65 4c.63 4.56-.5 8.84-2.22 13a54.16 54.16 0 0 1 -8.62 14.13 166.56 166.56 0 0 0 -14.45 20 80.62 80.62 0 0 1 -8.78 12c-6.77 7.49-10.24 16.42-11.81 26.26zm77.79 59.2c-8 6.1-15.09 13.24-21.95 20.62s-14.61 13.08-22.54 18.94c-.41.3-.94 1.1-1.38-.07-2.47-6.59-7.66-10.79-13.13-14.79a93.74 93.74 0 0 0 -11.92-7c-.92-.49-1.24-.8-.54-1.87 1.91-2.95 2.27-6.42 2.95-9.76.51-2.52.94-5 1.52-7.55 1.2-5.25 3.27-9.94 7.48-13.69a77.57 77.57 0 0 0 9.33-10.5 3.21 3.21 0 0 1 2.46-1.3c2.65-.22 5.07.7 7.5 1.5 4.49 1.46 8.94 3.09 13.42 4.59a25.29 25.29 0 0 1 9.43 5.76c5.65 5.4 11.61 10.3 18.92 13.32.08 0 .12.17.2.29a6.14 6.14 0 0 1 -1.82 1.5zm10.16-9.3a25.49 25.49 0 0 1 -4.71-11.41c2.46 4.16 5.37 8 8.19 11.88-2.09 1.4-2.09 1.4-3.5-.47z" fill="#474747" stroke="#474747" stroke-miterlimit="10"/><path d="m229.48 182.7a13 13 0 0 0 4.43 2.78 17.57 17.57 0 0 0 2.67.73 27 27 0 0 0 2.7.37c1 .08 2 .12 3 .14l2.4-2.56a.88.88 0 0 0 .44-.59.37.37 0 0 0 0-.21c-.13-.27-.49 0-.75 0-.82.11-1.37 1-2.33.79 2.34-3.64 5-7 7.59-10.36a15.19 15.19 0 0 0 2-3.75c.17-.44.38-.84.06-1.29-1.89-2.64-3.67-5.38-6.53-7.14-3.35-2.07-5.43-1.89-8.31.75a54 54 0 0 0 -7.92 9.84 4.76 4.76 0 0 1 -2.81 2.28 3.71 3.71 0 0 0 -1.07 2c1.41 2.13 2.52 4.4 4.43 6.22z" fill="#ed40a9"/><path d="m244.68 184.16a.88.88 0 0 0 .44-.59.88.88 0 0 1 -.44.59z" fill="#ed40a9"/><path d="m242.28 186.72c-1 0-2-.06-3-.14a27 27 0 0 1 -2.7-.37 17.57 17.57 0 0 1 -2.67-.73 13 13 0 0 1 -4.43-2.78c-1.91-1.82-3-4.09-4.47-6.19-.29-.15-.64-.49-.85-.41-.48.17-.26.64-.21 1a14.07 14.07 0 0 0 4.58 9c3.8 3.4 9.73 3.68 13.06 1.9.18-.42 1.07-.53.69-1.29z" fill="#474747" stroke="#474747" stroke-miterlimit="10"/><path d="m233.91 185.48a17.57 17.57 0 0 0 2.67.73 17.57 17.57 0 0 1 -2.67-.73z" fill="#0d0b0b"/><path d="m242.28 186.72c-1 0-2-.06-3-.14 1 .08 2 .12 3 .14z" fill="#0d0b0b"/><path d="m221.31 204.08c.62.46 1.48 1.19 2.06.68s-.25-1.31-.61-1.92c-1.39-2.33-4.09-3.43-5.49-5.77-.07-.11-.27-.16-.54-.3a1.87 1.87 0 0 0 -.06 1.75 12.82 12.82 0 0 0 4.64 5.56z" fill="#474747" stroke="#474747" stroke-miterlimit="10"/><path d="m242.28 186.72c.38.76-.51.87-.69 1.34l.29.33c.35-.42.68-.84 1-1.28a15.45 15.45 0 0 0 1.79-3z" fill="#f8e0e7"/><path d="m242.89 187.11a15.45 15.45 0 0 0 1.79-3 15.45 15.45 0 0 1 -1.79 3z" fill="#f8e0e7"/><path d="m242.28 186.72 2.4-2.56z" fill="#f8e0e7"/><path d="m154.85 69.8a166.56 166.56 0 0 1 14.45-19.95 54.16 54.16 0 0 0 8.62-14.13c1.72-4.15 2.85-8.43 2.22-13a6 6 0 0 0 -1.65-4 22.4 22.4 0 0 1 -10.09 8.82 11.27 11.27 0 0 1 -3.77 1 3.54 3.54 0 0 0 -2.48 1.21c-4.8 4.9-9.57 9.83-14.66 14.41a160.25 160.25 0 0 0 -18.37 19.64c-4.8 6-9.86 11.85-14.82 17.75-.73.88-.94 1.48.33 2a1.43 1.43 0 0 1 1 1.63c-.94-.2-1.77-.35-2.59-.57s-1.08.19-1.34.74-1.26 1.3-.68 1.9c1.52 1.6.57 1.68-.84 1.74-1 0-1.11 1-1.18 1.64-.12.87.8.57 1.28.61 1 .1 2 .08 3.08.09h4.84a14.15 14.15 0 0 1 -7.92 2.76c-2.9.16-2.9.12-3.76 3v.17c-1.93 6.74-3.16 13.65-5.2 20.38-4.32 14.36-10.74 27.86-16.82 41.5-.26.59-.83 1.1-.5 1.82.47.17.66-.18.89-.41 5.81-5.9 12.11-11.25 18.46-16.55 9.51-8 18.91-16.19 27.82-24.9.52-.5 1.21-.9 1.36-1.7.6-3.09 1.27-6.15 1.76-9.24 1.57-9.84 5-18.77 11.86-26.28a81.7 81.7 0 0 0 8.7-12.08z" fill="#f4e2eb"/><path d="m84 147.73c.56 0 .58-.26.66-.43 6.3-13.94 12.12-28.06 15.28-43.13 1.7-8.08 4.06-15.92 8.84-22.82a2.33 2.33 0 0 0 .26-1.79c-.32-2.61-.53-5.23-.89-7.82-1-7.24-.46-14.48-.25-21.73a55.32 55.32 0 0 0 -2.49-19.43c-1.85-5.54-5.06-10.07-10.26-13a5.59 5.59 0 0 0 -4.15-.85 32 32 0 0 1 2 10.27 20.48 20.48 0 0 1 -3.11 13.25 4 4 0 0 0 -.73 2.52 109.74 109.74 0 0 1 -1.74 24c-1.88 10.16-3.62 20.35-4.09 30.7 0 1.06.09 1.5 1.23 1.27a7.08 7.08 0 0 1 3.34.58c.32.09.67.28.68.68s-.42.62-.82.68c-1.29.2-2.59.42-3.89.56s-.72 1.2-.9 1.85.15.78.77.75c1.93-.1 3.87-.15 5.81-.2a5.81 5.81 0 0 1 2.86.37c-2.16 2.74-5.12 2.88-8.1 2.84-1.24 0-1.76.4-1.76 1.65 0 3.37-.16 6.74-.08 10.11.17 7.2 1.36 14.33 1.5 21.53.07 2.57 0 5.1 0 7.61z" fill="#f4e2eb"/><path d="m78 118.93c-.36-7.5.36-15 .89-22.41a4.66 4.66 0 0 0 -.34-2.5 38 38 0 0 0 -10.19-13.19 12.32 12.32 0 0 0 -8.25-3.2 18.91 18.91 0 0 1 8.54 13.23c.52 3.35.43 6.66-2.59 9.06-.53.42-.35.91-.26 1.4l6.72 37.9c1.14 6.34 2.78 12.59 3.71 19 .37 2.54.85 5.06 1.28 7.59 1.18-3.32 2.35-6.52 3.49-9.74a5.92 5.92 0 0 0 .26-2 155.83 155.83 0 0 0 -1-16c-.81-6.45-2-12.74-2.29-19.14z" fill="#f4e2eb"/><path d="m222.14 158c1.37 1.91 1.37 1.91 3.48.47-2.82-3.89-5.73-7.72-8.19-11.88a25.49 25.49 0 0 0 4.71 11.41z" fill="#ed40a9"/><path d="m59.91 81.28a130.15 130.15 0 0 1 5.09 16.13c1.7-4.24-1.54-14.18-5.09-16.13z" fill="#ed40a9"/><path d="m89.1 18.65c-1.56 5.63-.44 11.28-.1 16.92a31.56 31.56 0 0 0 .1-16.92z" fill="#ed40a9"/><path d="m174.93 18.89-.34-.38a39.32 39.32 0 0 0 -7 5.8l.39.48z" fill="#ed40a9"/><path d="m142.37 161h-.37c.07.12.15.23.23.35z" fill="#fdddee"/></svg>