<svg height="26" width="21" xmlns="http://www.w3.org/2000/svg"><path d="m8.922 17.19c-.693 3.577-1.537 7.005-4.044 8.797-.773-5.407 1.136-9.466 2.023-13.776-1.512-2.505.182-7.55 3.37-6.307 3.923 1.529-3.398 9.317 1.517 10.291 5.132 1.015 7.226-8.769 4.044-11.95-4.596-4.594-13.382-.105-12.301 6.473.262 1.607 1.949 2.095.673 4.315-2.943-.642-3.82-2.928-3.708-5.975.183-4.987 4.551-8.479 8.932-8.962 5.541-.612 10.742 2.003 11.46 7.136.809 5.795-2.5 12.07-8.426 11.618-1.606-.123-2.28-.907-3.54-1.66z" fill="#b29fe3" fill-rule="evenodd"/></svg>