<svg id="Layer_1" data-name="Layer 1" xmlns="http://www.w3.org/2000/svg" viewBox="0 0 25.92 22"><title>share-it</title><path d="M20.56,1.1H5.4A4.27,4.27,0,0,0,2.32,2.41,4.54,4.54,0,0,0,1,5.59v6.9a4.54,4.54,0,0,0,1.29,3.18A4.26,4.26,0,0,0,5.4,17h9.34l5,3.2V17.11l.44-.06.88-.1a4.43,4.43,0,0,0,3.88-4.46V12h0V5.59a4.56,4.56,0,0,0-1.29-3.18A4.26,4.26,0,0,0,20.56,1.1ZM18,9.55l-5,5.52-5-5.52h0A3.62,3.62,0,0,1,7,7.1,3.55,3.55,0,0,1,8,4.67H8a3.37,3.37,0,0,1,4.66-.11h0L13,4.9l.37-.34h0A3.36,3.36,0,0,1,18,4.65h0a3.57,3.57,0,0,1,1,2.44,3.62,3.62,0,0,1-1,2.46ZM15.61,4.66A2.31,2.31,0,0,0,14,5.3h0L13,6.26l-1-1h0a2.4,2.4,0,0,0-3.25.08A2.53,2.53,0,0,0,8,7.1a2.6,2.6,0,0,0,.69,1.78h0L13,13.59l4.28-4.7h0A2.57,2.57,0,0,0,18,7.11a2.49,2.49,0,0,0-.69-1.76,2.31,2.31,0,0,0-1.64-.69Zm2.38,0h0a3.36,3.36,0,0,0-4.65-.09h0L13,4.91l-.36-.34h0A3.37,3.37,0,0,0,8,4.68H8A3.52,3.52,0,0,0,7,7.1,3.63,3.63,0,0,0,8,9.55H8l5,5.52,5-5.52h0A3.63,3.63,0,0,0,19,7.1a3.56,3.56,0,0,0-1-2.44Zm-.73,4.23h0L13,13.59,8.68,8.88h0a2.62,2.62,0,0,1,0-3.53,2.39,2.39,0,0,1,3.25-.08h0l1,1,1.06-1h0a2.36,2.36,0,0,1,3.26,0A2.61,2.61,0,0,1,18,7.1a2.69,2.69,0,0,1-.69,1.79ZM20.55.11H5.4A5.3,5.3,0,0,0,1.6,1.72,5.56,5.56,0,0,0,0,5.59v6.9A5.54,5.54,0,0,0,1.6,16.36,5.3,5.3,0,0,0,5.4,18h9l6.28,4V18l.44-.05h0A5.41,5.41,0,0,0,25.88,13h.05V5.59A5.44,5.44,0,0,0,20.56.11ZM24.93,12h0v.5A4.45,4.45,0,0,1,21.05,17l-.88.1-.44.05v3.07l-5-3.19H5.39a4.31,4.31,0,0,1-3.08-1.31A4.55,4.55,0,0,1,1,12.5V5.6A4.54,4.54,0,0,1,2.31,2.42,4.31,4.31,0,0,1,5.4,1.1H20.56a4.28,4.28,0,0,1,3.08,1.31,4.54,4.54,0,0,1,1.29,3.18V12Z" transform="translate(0 0.01)" style="fill:#fff"/><path d="M18.14,7.67h0L13,13,7.81,7.66h0A2.71,2.71,0,0,1,7,5.74,2.67,2.67,0,0,1,7.8,3.85a2.58,2.58,0,0,1,1.86-.72,2.64,2.64,0,0,1,1.78.63h0L12.74,5a.35.35,0,0,0,.43,0l1.32-1.16a2.73,2.73,0,0,1,1.81-.68,2.59,2.59,0,0,1,2.64,2.51v.11A2.76,2.76,0,0,1,18.14,7.67Z" transform="translate(0 0.01)" style="fill:#f8e7f5"/><path d="M18,4.53h0a3.41,3.41,0,0,0-2.43-1h0a3.4,3.4,0,0,0-2.33.92h0L13,4.69l-.27-.26h0a3.36,3.36,0,0,0-2.34-.9h0a3.37,3.37,0,0,0-2.45,1h0A3.6,3.6,0,0,0,6.92,7a3.7,3.7,0,0,0,1,2.49h0l5,5.47.09,0,.1,0,5-5.46h0a3.68,3.68,0,0,0,0-5Zm-.9,4.19h0L13,13.28,8.8,8.72h0A2.5,2.5,0,0,1,8.14,7a2.38,2.38,0,0,1,.65-1.65,2.24,2.24,0,0,1,3-.08h0l1,1H13l1-1a2.25,2.25,0,0,1,1.5-.6,2.2,2.2,0,0,1,1.55.64A2.4,2.4,0,0,1,17.77,7a2.45,2.45,0,0,1-.65,1.69ZM20.47,0h-15A5.37,5.37,0,0,0,1.59,1.62,5.58,5.58,0,0,0,0,5.54v6.83a5.56,5.56,0,0,0,1.58,3.92,5.37,5.37,0,0,0,3.85,1.63h8.94l6.2,4h.12l.07-.11V17.92l.32,0h0A5.48,5.48,0,0,0,25.86,13h0l0-.09V5.53h0A5.5,5.5,0,0,0,20.48,0Zm4.21,11.89v.49A4.29,4.29,0,0,1,21,16.67l-.88.1h0l-.43.05-.11.12v2.82l-4.76-3-.06,0H5.44a4.15,4.15,0,0,1-3-1.26h0a4.38,4.38,0,0,1-1.24-3.07V5.54A4.38,4.38,0,0,1,2.48,2.47a4.15,4.15,0,0,1,3-1.26h15a4.15,4.15,0,0,1,3,1.26,4.38,4.38,0,0,1,1.24,3.07v6.34Z" transform="translate(0 0.01)" style="fill:#646464"/></svg>