<svg xmlns="http://www.w3.org/2000/svg" viewBox="0 0 204.77 226.03"><title>Asset 1</title><g id="Layer_2" data-name="Layer 2"><g id="Layer_1-2" data-name="Layer 1"><path d="M86.09,3.17c-5.31,3.17-8.76,12.8.26,20.45,0,0-8.88,6.79,2.07,10l17.86,5.25-5.19,19.69-16.4-4.22s-10.53-2.52-4.89,7.57C69.86,66.21,63,71.1,64.57,77.1s9.78,12,19.69,5.57c0,0,4,10.44,10.17.85s10.45-16.24,10.45-16.24l.92.43,17.2,9L113.23,93s-5.4,9.38,5.87,6.84c1.31,10.75,4.06,18.67,10.24,18.91s14.32-6,10.93-17.29c0,0,11.14-.85,3.71-9.51L131.86,77.8l.19-1.26L145.56,62.6l12.84,14s7.46,7.85,8.22-3.68c10.68,1.8,19.06,1.41,21-4.45S186,53.05,174.2,53.08c0,0,2.35-10.93-8.07-6.26l-17,7.6-1.9.88-6.61-16.41,18-6s10.2-3.63,0-9c6-9,9-16.84,4.49-21S148.33-2,143.55,8.85c0,0-9-6.58-9,4.83l0,19.44h-1L114.32,35l-.69-19s-.58-10.82-8.64-2.54C98,5.15,91.41,0,86.09,3.17ZM123.65,48a6.51,6.51,0,1,1-6.49,6.52A6.5,6.5,0,0,1,123.65,48Z" style="fill:#97caeb"/><path d="M132.33,144c-3.77,2.24-6.22,9.08.18,14.51,0,0-6.3,4.81,1.47,7.09l12.68,3.73-3.69,14-11.64-3s-7.47-1.79-3.47,5.36c-7,3.06-11.89,6.53-10.8,10.79s6.94,8.54,14,4c0,0,2.82,7.41,7.22.6s7.41-11.52,7.41-11.52l.65.3,12.21,6.38-6.93,11.56s-3.84,6.66,4.16,4.85c.93,7.63,2.88,13.25,7.27,13.42s10.16-4.22,7.76-12.27c0,0,7.9-.6,2.63-6.75l-8.6-10,.13-.89,9.59-9.89,9.11,9.93s5.29,5.57,5.83-2.61c7.58,1.28,13.53,1,14.94-3.16s-1.17-10.94-9.56-10.92c0,0,1.67-7.75-5.73-4.44l-12.06,5.39-1.35.63L171,169.36l12.78-4.29s7.24-2.57,0-6.39c4.25-6.41,6.42-12,3.19-14.93s-10.48-3.38-13.87,4.3c0,0-6.4-4.68-6.38,3.42l0,13.8h-.68l-13.71,1.3-.49-13.47s-.41-7.67-6.13-1.8C140.8,145.42,136.1,141.77,132.33,144ZM159,175.84a4.62,4.62,0,1,1-4.61,4.63A4.62,4.62,0,0,1,159,175.84Z" style="fill:#df4b9a"/><path d="M.26,126.33c-1.08,3.44,1.15,9,8.05,8.8,0,0-1.23,6.4,4.78,3.55L22.9,134l5.39,10.58-8.78,4.53s-5.56,3,.81,5.19c-2.65,5.73-3.71,10.51-.72,12.52s8.93,1.45,10.72-5.22c0,0,5.79,3,4.76-3.57s-1.76-11.12-1.76-11.12l.57-.18,11-2.77,2.08,10.88s1.29,6.18,5.21.7c4.74,4.17,9,6.55,11.79,4.26s3.93-8.16-1.95-11.77c0,0,4.52-4.7-2.08-5.58L49.15,141l-.41-.62.47-11.3,11,1.1s6.29.52,2.15-4.8c5.34-3.36,8.84-6.78,7.43-10.1S63.1,109.23,58,113.84c0,0-3.22-5.66-5.94.41l-4.44,9.91-.49,1.12-9.25-4.58,5.49-9.62s3-5.54-3.51-3.91c-.9-6.25-2.61-10.84-6.21-10.89s-8.28,3.65-6.16,10.22c0,0-6.48.64-2,5.59L33,120.53l-.41.38-7.7,8.3-7.66-8s-4.45-4.48-4.75,2.25C6.22,122.56,1.34,122.89.26,126.33ZM34,131.26a3.8,3.8,0,1,1-.29,5.36A3.81,3.81,0,0,1,34,131.26Z" style="fill:#e2b9d6"/></g></g></svg>