<svg
 xmlns="http://www.w3.org/2000/svg"
 xmlns:xlink="http://www.w3.org/1999/xlink"
 width="14.75px" height="19.5px">
<path fill-rule="evenodd"  stroke="rgb(242, 182, 236)" stroke-width="1.5px" stroke-linecap="butt" stroke-linejoin="miter" fill="none"
 d="M13.000,6.000 L11.000,18.000 L3.000,18.000 L1.000,6.000 "/>
<path fill-rule="evenodd"  fill="rgb(242, 182, 236)"
 d="M9.564,1.729 C9.564,0.781 8.725,-0.009 7.718,-0.009 L6.243,-0.009 C5.236,-0.009 4.396,0.781 4.396,1.729 L4.396,2.875 L0.003,2.875 L0.003,4.257 L13.999,4.257 L13.999,2.875 L9.564,2.875 L9.564,1.729 ZM5.907,1.729 C5.907,1.571 6.075,1.413 6.243,1.413 L7.718,1.413 C7.886,1.413 8.053,1.571 8.053,1.729 L8.053,2.875 L5.865,2.875 L5.865,1.729 L5.907,1.729 Z"/>
</svg>
