<svg height="23" width="29" xmlns="http://www.w3.org/2000/svg"><path d="m9.206 22.585c-3.223 0-6.362-.853-9.077-2.469.473.045.95.071 1.421.071 2.651 0 5.259-.834 7.343-2.349-2.536-.038-4.759-1.571-5.531-3.81.374.061.751.095 1.125.095.524 0 1.046-.065 1.55-.193-2.773-.51-4.815-2.854-4.75-5.448.824.417 1.752.656 2.686.683-2.603-1.605-3.408-4.827-1.836-7.328 3.016 3.424 7.462 5.515 12.205 5.734-.417-1.638-.004-3.34 1.128-4.663 1.131-1.32 2.821-2.076 4.637-2.076 1.633 0 3.209.63 4.325 1.734 1.323-.245 2.587-.693 3.753-1.334-.431 1.275-1.356 2.355-2.598 3.045 1.175-.14 2.318-.429 3.396-.872-.794 1.115-1.788 2.071-2.95 2.848.207 4.225-1.573 8.596-4.76 11.685-2.185 2.121-6.052 4.647-12.067 4.647z" fill="#d8d8d8" fill-rule="evenodd"/></svg>