<svg height="24" width="34" xmlns="http://www.w3.org/2000/svg"><path d="m33.271 4.056c-.388-1.42-1.531-2.538-2.982-2.917-2.629-.689-13.175-.689-13.175-.689s-10.546 0-13.175.689c-1.451.379-2.594 1.497-2.982 2.917-.705 2.573-.705 7.942-.705 7.942s0 5.368.705 7.942c.388 1.42 1.531 2.537 2.982 2.917 2.629.69 13.175.69 13.175.69s10.546 0 13.175-.69c1.451-.38 2.594-1.497 2.982-2.917.705-2.574.705-7.942.705-7.942s0-5.369-.705-7.942zm-19.606 12.816v-9.749l8.814 4.875z" fill="#85ecda" fill-rule="evenodd"/></svg>