<?xml version="1.0" encoding="UTF-8"?>
<svg width="32px" height="32px" viewBox="0 0 32 32" version="1.1" xmlns="http://www.w3.org/2000/svg" xmlns:xlink="http://www.w3.org/1999/xlink">
    <!-- Generator: Sketch 50.2 (55047) - http://www.bohemiancoding.com/sketch -->
    <title>Group</title>
    <desc>Created with Sketch.</desc>
    <defs></defs>
    <g id="Page-1" stroke="none" stroke-width="1" fill="none" fill-rule="evenodd">
        <g id="Group" transform="translate(3.000000, 3.000000)">
            <path d="M22.0418635,17.6540039 L27.8342136,23.4243775 L23.4261243,27.8380538 L17.6277612,22.0334042 C15.9759073,22.9467281 14.1106658,23.4376605 12.1923561,23.4479554 C5.99924501,23.4304949 0.990619076,18.4001035 1.00001314,12.2069749 C1.00940721,6.01384626 6.03327079,0.998672612 12.2264064,1.00000026 C18.419542,1.00132791 23.4412548,6.01865508 23.4479852,12.2077762 C23.4539123,14.1237141 22.9647983,15.9978999 22.0418635,17.6540039 Z" id="Zoom_-_Cursor-2-path" stroke="#464646" stroke-width="4" fill="#464646" opacity="0.102120536" stroke-linecap="round" stroke-linejoin="round"></path>
            <g id="Zoom---Cursor">
                <g id="Zoom_-_Cursor-2-link" fill="#464646" stroke="#FFFFFF" stroke-linecap="round" stroke-linejoin="round" stroke-width="4">
                    <path d="M20.0378688,15.6470405 L25.8302188,21.4174142 L21.4221295,25.8310905 L15.6237664,20.0264408 C13.9719125,20.9397648 12.106671,21.4306971 10.1883613,21.4409921 C3.99525024,21.4235316 -1.01337569,16.3931401 -1.00398163,10.2000115 C-0.99458756,4.00688292 4.02927602,-1.00829073 10.2224116,-1.00696308 C16.4155472,-1.00563543 21.43726,4.01169174 21.4439904,10.2008128 C21.4499176,12.1167507 20.9608035,13.9909366 20.0378688,15.6470405 Z M10.1914234,15.2450017 C12.9423277,15.2414577 15.1706085,13.0106219 15.171,10.2597154 C15.1712871,8.24241751 13.9559741,6.42371681 12.0920677,5.65213168 C10.2281613,4.88054655 8.08297355,5.30812999 6.65734611,6.7353921 C5.23171866,8.1626542 4.80659382,10.3083305 5.58031442,12.1713515 C6.35403502,14.0343725 8.17412723,15.2476005 10.1914234,15.2450017 Z" id="Zoom_-_Cursor-2"></path>
                </g>
                <circle id="Oval" fill="#E6FCFF" fill-rule="nonzero" cx="10" cy="10" r="7"></circle>
            </g>
        </g>
    </g>
</svg>