<svg
 xmlns="http://www.w3.org/2000/svg"
 xmlns:xlink="http://www.w3.org/1999/xlink"
 width="1082px" height="184px">
<path fill-rule="evenodd"  stroke-width="4px" stroke="rgb(237, 63, 168)" fill="rgb(237, 63, 168)"
 d="M1071.785,50.672 L1051.382,52.236 L1055.255,32.057 L1075.658,30.493 L1071.785,50.672 ZM1062.691,98.091 L1042.288,99.655 L1046.161,79.476 L1066.563,77.912 L1062.691,98.091 ZM998.951,102.977 L967.825,48.328 L956.760,106.212 L937.617,107.680 L954.544,19.400 L972.428,18.029 L1002.411,71.026 L1013.233,14.900 L1032.377,13.433 L1015.450,101.712 L998.951,102.977 ZM873.868,114.058 C849.561,115.922 832.274,100.596 830.577,78.857 C829.545,65.640 834.181,51.989 843.252,41.601 C851.858,31.746 864.241,24.832 879.606,23.654 C903.913,21.791 921.200,37.116 922.897,58.856 C923.929,72.072 919.294,85.724 910.222,96.111 C901.616,105.966 889.233,112.880 873.868,114.058 ZM902.843,61.636 C901.840,48.790 893.192,40.257 878.709,41.368 C870.522,41.996 863.740,45.995 858.971,51.455 C853.040,58.247 849.985,67.801 850.631,76.077 C851.634,88.923 860.282,97.455 874.765,96.344 C882.952,95.717 889.734,91.718 894.503,86.257 C900.434,79.465 903.489,69.912 902.843,61.636 ZM762.774,122.575 C738.467,124.439 721.180,109.114 719.483,87.374 C718.451,74.157 723.087,60.506 732.158,50.118 C740.765,40.263 753.148,33.349 768.513,32.171 C792.820,30.308 810.107,45.633 811.804,67.373 C812.836,80.590 808.200,94.241 799.129,104.629 C790.522,114.484 778.139,121.397 762.774,122.575 ZM791.749,70.153 C790.747,57.307 782.099,48.775 767.615,49.885 C759.429,50.513 752.646,54.512 747.878,59.972 C741.947,66.764 738.892,76.318 739.538,84.594 C740.541,97.440 749.188,105.972 763.672,104.862 C771.858,104.234 778.641,100.235 783.409,94.775 C789.341,87.983 792.396,78.429 791.749,70.153 ZM672.220,56.577 C664.033,57.205 659.720,62.009 660.058,66.332 C660.415,70.903 664.096,72.609 676.436,76.509 C688.903,80.399 698.433,85.633 699.417,98.232 C700.034,106.137 697.377,112.678 692.958,117.739 C686.794,124.797 677.105,128.895 666.652,129.696 C649.649,131.000 636.127,126.569 626.995,116.707 L640.660,103.482 C648.165,110.362 656.156,113.726 666.232,112.954 C674.040,112.355 679.428,108.338 679.003,102.903 C678.676,98.704 675.334,96.475 663.129,92.689 C651.312,88.997 640.638,83.726 639.645,71.004 C639.056,63.469 641.577,56.814 645.997,51.754 C651.928,44.962 661.598,40.617 672.429,39.786 C687.542,38.628 698.391,42.891 706.429,50.103 L694.101,64.219 C686.954,58.679 680.784,55.921 672.220,56.577 ZM537.105,67.433 C528.037,68.129 520.140,72.462 514.674,78.721 C508.975,85.247 505.639,94.449 506.372,103.837 C507.423,117.301 518.067,123.816 530.536,122.860 C537.337,122.338 542.249,120.346 546.018,118.318 L549.075,103.918 L529.554,105.415 L532.805,88.639 L571.092,85.703 L561.989,129.768 C553.675,135.252 543.860,139.359 530.636,140.373 C510.485,141.918 488.285,131.815 486.270,105.999 C485.218,92.536 489.999,79.122 499.071,68.734 C508.142,58.346 521.388,51.118 537.256,49.901 C555.896,48.472 567.654,54.653 574.443,62.086 L561.059,75.662 C555.462,70.499 548.188,66.584 537.105,67.433 ZM438.318,145.960 L407.192,91.311 L396.127,149.194 L376.984,150.662 L393.911,62.382 L411.795,61.011 L441.778,114.008 L452.600,57.883 L471.743,56.415 L454.816,144.695 L438.318,145.960 ZM329.246,154.322 L346.173,66.042 L365.568,64.555 L348.641,152.835 L329.246,154.322 ZM281.247,158.002 L292.205,100.375 L260.580,139.953 L260.077,139.992 L243.117,104.511 L232.130,161.767 L212.735,163.254 L229.662,74.975 L249.812,73.430 L265.387,109.017 L295.404,69.934 L317.822,68.216 L300.894,156.495 L281.247,158.002 ZM148.985,169.633 C124.678,171.496 107.392,156.171 105.694,134.431 C104.662,121.215 109.298,107.563 118.370,97.176 C126.976,87.321 139.359,80.407 154.724,79.229 C179.031,77.365 196.318,92.691 198.015,114.430 C199.047,127.647 194.411,141.298 185.340,151.686 C176.734,161.541 164.350,168.455 148.985,169.633 ZM177.961,117.210 C176.958,104.364 168.310,95.832 153.826,96.943 C145.640,97.570 138.857,101.569 134.089,107.030 C128.158,113.822 125.103,123.375 125.749,131.651 C126.752,144.497 135.399,153.030 149.883,151.919 C158.069,151.292 164.852,147.292 169.620,141.832 C175.552,135.040 178.607,125.486 177.961,117.210 ZM59.104,104.205 C51.422,104.794 44.378,108.689 39.144,114.682 C33.329,121.340 29.858,130.429 30.610,140.064 C31.584,152.539 41.181,160.253 53.776,159.288 C62.340,158.631 67.621,154.871 73.765,149.181 L87.362,161.062 C79.522,169.367 69.754,175.707 55.019,176.837 C30.964,178.681 12.320,165.448 10.517,142.350 C9.447,128.639 14.353,115.215 23.308,104.961 C32.263,94.706 45.267,87.621 60.128,86.481 C77.004,85.187 88.889,91.359 96.829,102.182 L81.692,114.402 C75.969,107.633 69.684,103.394 59.104,104.205 Z"/>
<path fill-rule="evenodd"  stroke-width="2px" stroke="rgb(255, 255, 255)" fill="rgb(255, 255, 255)"
 d="M1066.644,42.536 L1046.241,44.100 L1050.114,23.922 L1070.517,22.358 L1066.644,42.536 ZM1057.550,89.955 L1037.147,91.519 L1041.020,71.341 L1061.422,69.777 L1057.550,89.955 ZM993.810,94.842 L962.684,40.193 L951.619,98.076 L932.476,99.544 L949.403,11.264 L967.287,9.893 L997.270,62.890 L1008.092,6.765 L1027.236,5.297 L1010.309,93.577 L993.810,94.842 ZM868.727,105.923 C844.420,107.786 827.133,92.461 825.436,70.721 C824.404,57.504 829.040,43.853 838.111,33.465 C846.717,23.610 859.100,16.696 874.465,15.519 C898.772,13.655 916.059,28.980 917.756,50.720 C918.788,63.937 914.152,77.588 905.081,87.976 C896.475,97.831 884.092,104.745 868.727,105.923 ZM897.702,53.500 C896.699,40.654 888.051,32.122 873.568,33.232 C865.381,33.860 858.599,37.859 853.830,43.319 C847.899,50.111 844.844,59.665 845.490,67.941 C846.493,80.787 855.141,89.319 869.624,88.209 C877.811,87.581 884.593,83.582 889.362,78.122 C895.293,71.330 898.348,61.776 897.702,53.500 ZM757.633,114.440 C733.326,116.303 716.039,100.978 714.342,79.238 C713.310,66.022 717.946,52.370 727.017,41.983 C735.624,32.128 748.007,25.214 763.372,24.036 C787.679,22.172 804.966,37.498 806.663,59.237 C807.695,72.454 803.059,86.105 793.988,96.493 C785.381,106.348 772.998,113.262 757.633,114.440 ZM786.608,62.017 C785.605,49.171 776.958,40.639 762.474,41.749 C754.288,42.377 747.505,46.376 742.737,51.837 C736.806,58.629 733.750,68.182 734.397,76.458 C735.399,89.304 744.047,97.837 758.531,96.726 C766.717,96.099 773.500,92.099 778.268,86.639 C784.199,79.847 787.255,70.293 786.608,62.017 ZM667.078,48.442 C658.892,49.069 654.579,53.874 654.917,58.197 C655.274,62.767 658.954,64.473 671.295,68.373 C683.762,72.263 693.292,77.497 694.276,90.096 C694.893,98.002 692.236,104.542 687.817,109.603 C681.653,116.661 671.964,120.759 661.511,121.561 C644.508,122.864 630.986,118.434 621.854,108.572 L635.519,95.347 C643.024,102.227 651.015,105.590 661.090,104.818 C668.899,104.219 674.287,100.203 673.862,94.768 C673.534,90.568 670.193,88.339 657.988,84.553 C646.171,80.861 635.497,75.591 634.503,62.868 C633.915,55.333 636.436,48.679 640.856,43.618 C646.787,36.826 656.457,32.481 667.288,31.651 C682.401,30.492 693.250,34.755 701.288,41.967 L688.960,56.084 C681.813,50.543 675.643,47.785 667.078,48.442 ZM531.964,59.298 C522.896,59.993 514.999,64.326 509.533,70.585 C503.834,77.111 500.498,86.314 501.231,95.701 C502.282,109.165 512.926,115.680 525.395,114.724 C532.196,114.203 537.108,112.211 540.877,110.182 L543.934,95.782 L524.413,97.279 L527.664,80.503 L565.951,77.568 L556.848,121.632 C548.534,127.116 538.719,131.223 525.495,132.237 C505.344,133.782 483.144,123.680 481.128,97.864 C480.077,84.400 484.858,70.986 493.930,60.598 C503.001,50.211 516.247,42.982 532.115,41.766 C550.755,40.337 562.513,46.518 569.302,53.950 L555.918,67.526 C550.321,62.364 543.047,58.448 531.964,59.298 ZM433.177,137.824 L402.051,83.175 L390.986,141.059 L371.843,142.526 L388.770,54.246 L406.654,52.875 L436.637,105.872 L447.459,49.747 L466.602,48.279 L449.675,136.559 L433.177,137.824 ZM324.104,146.186 L341.032,57.907 L360.427,56.419 L343.500,144.699 L324.104,146.186 ZM276.106,149.866 L287.065,92.239 L255.439,131.817 L254.936,131.856 L237.976,96.375 L226.989,153.632 L207.594,155.119 L224.521,66.839 L244.671,65.294 L260.246,100.881 L290.263,61.799 L312.680,60.080 L295.753,148.360 L276.106,149.866 ZM143.844,161.497 C119.537,163.361 102.250,148.035 100.553,126.296 C99.522,113.079 104.157,99.428 113.228,89.040 C121.835,79.185 134.218,72.271 149.583,71.093 C173.890,69.230 191.177,84.555 192.874,106.295 C193.906,119.511 189.270,133.163 180.199,143.550 C171.593,153.405 159.209,160.319 143.844,161.497 ZM172.819,109.075 C171.817,96.229 163.169,87.696 148.685,88.807 C140.499,89.435 133.716,93.434 128.948,98.894 C123.017,105.686 119.962,115.240 120.608,123.516 C121.610,136.362 130.259,144.894 144.742,143.784 C152.928,143.156 159.711,139.157 164.479,133.696 C170.410,126.904 173.466,117.351 172.819,109.075 ZM53.963,96.069 C46.281,96.658 39.237,100.553 34.003,106.546 C28.188,113.205 24.717,122.293 25.469,131.928 C26.443,144.404 36.040,152.117 48.635,151.152 C57.199,150.495 62.480,146.735 68.624,141.045 L82.221,152.926 C74.381,161.231 64.613,167.572 49.878,168.701 C25.823,170.546 7.179,157.312 5.376,134.214 C4.305,120.503 9.212,107.080 18.167,96.825 C27.122,86.571 40.126,79.485 54.987,78.346 C71.863,77.052 83.748,83.223 91.688,94.047 L76.551,106.266 C70.828,99.498 64.543,95.258 53.963,96.069 Z"/>
</svg>