<svg
 xmlns="http://www.w3.org/2000/svg"
 xmlns:xlink="http://www.w3.org/1999/xlink"
 width="68px" height="20px">
<path fill-rule="evenodd"  fill="rgb(237, 63, 168)"
 d="M1.056,11.043 L64.401,11.043 L57.223,18.202 C56.801,18.623 56.801,19.255 57.223,19.676 C57.434,19.887 57.751,19.992 57.962,19.992 C58.173,19.992 58.490,19.887 58.701,19.676 L67.674,10.727 C68.096,10.306 68.096,9.674 67.674,9.253 L58.701,0.304 C58.279,-0.117 57.646,-0.117 57.223,0.304 C56.801,0.725 56.801,1.357 57.223,1.778 L64.401,8.937 L1.056,8.937 C0.422,8.937 0.000,9.358 0.000,9.990 C0.000,10.622 0.422,11.043 1.056,11.043 Z"/>
</svg>