<?xml version="1.0" standalone="no"?>
<!DOCTYPE svg PUBLIC "-//W3C//DTD SVG 20010904//EN"
 "http://www.w3.org/TR/2001/REC-SVG-20010904/DTD/svg10.dtd">
<svg version="1.0" xmlns="http://www.w3.org/2000/svg"
 width="260.000000pt" height="260.000000pt" viewBox="0 0 260.000000 260.000000"
 preserveAspectRatio="xMidYMid meet">
<metadata>
Created by potrace 1.11, written by Peter Selinger 2001-2013
</metadata>
<g transform="translate(0.000000,260.000000) scale(0.100000,-0.100000)"
fill="#000000" stroke="none">
<path d="M1533 2180 c-146 -22 -335 -104 -472 -207 -40 -30 -49 -33 -115 -31
-97 2 -157 -9 -248 -44 -205 -78 -347 -242 -332 -384 9 -93 48 -154 96 -154
22 0 23 3 22 57 -2 69 25 149 71 213 68 93 189 172 284 186 20 3 42 7 49 9 16
6 11 -3 -36 -64 -122 -160 -179 -428 -114 -533 13 -21 29 -38 35 -38 7 0 38
-13 71 -29 110 -55 200 -28 323 96 154 157 218 301 185 417 -17 61 -34 89 -88
143 l-42 43 67 45 c78 51 191 99 271 114 72 13 223 6 281 -12 26 -9 66 -25 89
-37 l42 -22 -53 -25 c-113 -52 -311 -228 -515 -458 -43 -49 -88 -99 -99 -110
-11 -12 -56 -62 -100 -111 -43 -49 -86 -96 -95 -105 -8 -9 -46 -52 -85 -95
-170 -191 -356 -353 -470 -410 -98 -48 -176 -60 -225 -34 -68 37 -66 215 5
336 57 97 203 192 255 164 43 -23 46 -79 9 -172 -25 -63 -24 -71 3 -62 66 20
115 85 123 159 13 131 -65 217 -189 210 -271 -17 -509 -334 -429 -571 11 -34
34 -66 72 -104 31 -30 66 -69 79 -87 30 -42 97 -73 175 -80 235 -20 485 171
942 722 27 33 54 65 60 71 5 6 30 35 55 64 190 227 349 393 465 486 43 35 83
64 88 64 9 0 5 -93 -6 -135 -27 -108 -115 -253 -212 -350 -109 -110 -205 -164
-320 -179 -57 -8 -60 -10 -51 -31 9 -25 86 -55 143 -55 198 -1 462 253 543
522 19 60 24 182 10 243 -8 35 -6 37 22 49 46 20 165 19 221 -2 47 -16 57 -27
87 -91 3 -8 12 -17 20 -19 21 -7 6 61 -22 98 -52 71 -156 108 -289 104 l-85
-2 -19 35 c-46 85 -178 170 -300 192 -65 12 -172 13 -252 1z m222 -104 c140
-9 224 -47 260 -117 8 -15 15 -30 15 -33 0 -3 -30 -21 -67 -41 -183 -96 -333
-242 -728 -710 -189 -224 -417 -457 -515 -526 -173 -122 -342 -168 -424 -114
-85 56 -99 236 -30 382 59 124 244 254 337 236 67 -13 78 -164 16 -235 l-20
-23 16 33 c9 18 18 58 20 88 4 49 1 59 -20 80 -28 28 -45 30 -108 8 -55 -19
-133 -85 -176 -150 -81 -123 -86 -324 -9 -365 52 -28 153 -13 254 39 101 51
279 209 449 397 44 48 87 96 95 105 8 9 49 54 90 100 41 47 80 90 86 95 6 6
76 82 156 170 145 161 224 238 314 311 27 21 51 41 54 44 11 11 48 32 108 61
34 17 59 35 56 40 -6 11 -99 59 -123 64 -9 2 -36 8 -61 14 -53 12 -156 15
-220 6 -95 -12 -238 -72 -316 -131 -44 -34 -68 -42 -78 -26 -7 11 135 105 216
142 65 30 226 70 258 64 8 -2 51 -5 95 -8z m-830 -225 c-6 -5 -30 -12 -55 -16
-130 -18 -261 -100 -337 -210 -29 -43 -63 -139 -64 -183 -1 -34 -1 -35 -9 -10
-21 70 41 220 123 294 80 73 216 129 322 133 18 1 25 -3 20 -8z m222 -39 c-8
-8 -20 -11 -27 -7 -16 10 7 35 27 28 13 -5 13 -7 0 -21z m65 -29 c98 -103 67
-255 -82 -403 -79 -78 -140 -120 -212 -146 -39 -14 -43 -13 -62 5 -30 31 -33
120 -7 199 45 132 225 379 260 357 7 -4 -15 -35 -56 -80 -120 -130 -184 -260
-189 -382 -2 -69 -1 -73 19 -73 55 0 172 74 252 158 110 117 133 283 49 350
-32 25 -36 42 -10 42 7 0 24 -12 38 -27z m-30 -32 c32 -28 33 -32 33 -108 0
-67 -4 -85 -29 -130 -43 -79 -135 -164 -221 -209 -41 -20 -78 -34 -82 -31 -12
13 -11 79 4 134 18 70 60 154 108 219 43 56 136 154 147 154 4 0 22 -13 40
-29z"/>
</g>
</svg>
