<svg
 xmlns="http://www.w3.org/2000/svg"
 xmlns:xlink="http://www.w3.org/1999/xlink"
 width="1636px" height="418px">
<path fill-rule="evenodd"  stroke-width="4px" stroke="rgb(237, 63, 168)" fill="rgb(237, 63, 168)"
 d="M1464.196,140.226 C1431.095,142.767 1407.553,121.873 1405.242,92.236 C1403.837,74.217 1410.150,55.607 1422.503,41.445 C1434.223,28.010 1451.087,18.584 1472.011,16.978 C1505.112,14.438 1528.654,35.331 1530.965,64.968 C1532.370,82.987 1526.057,101.597 1513.704,115.759 C1501.984,129.194 1485.120,138.620 1464.196,140.226 ZM1503.655,68.758 C1502.289,51.245 1490.512,39.613 1470.789,41.127 C1459.641,41.983 1450.404,47.435 1443.910,54.879 C1435.833,64.139 1431.672,77.163 1432.552,88.446 C1433.918,105.959 1445.695,117.591 1465.419,116.077 C1476.567,115.221 1485.804,109.769 1492.297,102.325 C1500.374,93.066 1504.535,80.041 1503.655,68.758 ZM1415.036,251.103 C1414.151,255.237 1413.767,259.163 1414.147,264.046 C1415.053,275.666 1423.046,283.014 1436.595,281.974 C1444.484,281.369 1450.805,278.342 1455.569,273.064 C1460.321,267.617 1463.701,260.074 1465.525,250.277 L1478.518,182.366 L1504.930,180.339 L1491.197,252.034 C1488.263,267.506 1483.166,279.586 1475.405,288.482 C1466.378,298.831 1453.552,304.728 1435.715,306.097 C1407.931,308.229 1389.637,294.895 1387.681,269.804 C1387.221,263.911 1387.751,257.433 1389.126,250.720 L1400.995,188.316 L1427.408,186.289 L1415.036,251.103 ZM1356.535,51.929 L1338.136,147.868 L1311.724,149.896 L1330.123,53.956 L1293.591,56.760 L1298.244,32.348 L1397.719,24.713 L1393.067,49.125 L1356.535,51.929 ZM1358.756,242.040 C1360.161,260.058 1353.848,278.669 1341.495,292.831 C1329.775,306.266 1312.911,315.692 1291.987,317.298 C1258.886,319.838 1235.344,298.945 1233.033,269.307 C1231.628,251.289 1237.941,232.678 1250.294,218.517 C1262.014,205.081 1278.878,195.656 1299.802,194.050 C1332.903,191.509 1356.445,212.402 1358.756,242.040 ZM1271.701,231.951 C1263.624,241.210 1259.464,254.235 1260.343,265.517 C1261.709,283.030 1273.486,294.662 1293.210,293.149 C1304.358,292.293 1313.595,286.841 1320.088,279.397 C1328.165,270.137 1332.326,257.113 1331.446,245.830 C1330.080,228.317 1318.303,216.685 1298.580,218.199 C1287.432,219.054 1278.195,224.507 1271.701,231.951 ZM1158.762,64.906 C1146.413,65.854 1135.659,71.761 1128.216,80.295 C1120.455,89.191 1115.912,101.737 1116.910,114.535 C1118.342,132.890 1132.837,141.772 1149.817,140.469 C1159.078,139.758 1165.768,137.043 1170.901,134.277 L1175.064,114.645 L1148.480,116.686 L1152.907,93.815 L1205.046,89.814 L1192.650,149.887 C1181.328,157.363 1167.962,162.962 1149.953,164.345 C1122.512,166.451 1092.279,152.678 1089.534,117.483 C1088.103,99.128 1094.614,80.841 1106.967,66.679 C1119.321,52.518 1137.359,42.663 1158.969,41.004 C1184.352,39.056 1200.365,47.483 1209.609,57.616 L1191.384,76.124 C1183.761,69.086 1173.855,63.748 1158.762,64.906 ZM1039.674,308.034 L988.907,311.930 L972.788,339.764 L944.318,341.949 L1018.928,216.793 L1044.311,214.845 L1072.607,332.102 L1045.509,334.182 L1039.674,308.034 ZM1026.279,246.891 L1002.900,287.817 L1034.801,285.369 L1026.279,246.891 ZM1024.233,171.961 L981.846,97.458 L966.778,176.371 L940.708,178.371 L963.760,58.020 L988.114,56.151 L1028.946,128.401 L1043.683,51.886 L1069.752,49.885 L1046.701,170.236 L1024.233,171.961 ZM875.698,183.361 L898.749,63.009 L925.162,60.982 L902.110,181.334 L875.698,183.361 ZM810.679,188.351 L820.024,140.032 L772.001,143.718 L762.656,192.037 L736.244,194.064 L759.295,73.713 L785.708,71.685 L776.654,119.305 L824.676,115.619 L833.731,68.000 L860.143,65.973 L837.092,186.324 L810.679,188.351 ZM691.342,102.984 L672.943,198.923 L646.531,200.950 L664.930,105.011 L628.398,107.814 L633.051,83.402 L732.526,75.767 L727.874,100.180 L691.342,102.984 ZM599.851,299.440 L633.495,365.805 L604.510,368.029 L580.135,316.538 L556.894,339.328 L550.656,372.163 L524.243,374.190 L547.295,253.838 L573.707,251.811 L563.543,305.106 L618.814,248.349 L654.488,245.611 L599.851,299.440 ZM543.421,113.490 L538.781,138.070 L594.522,133.792 L589.949,157.013 L534.208,161.291 L529.292,186.740 L593.779,181.790 L589.232,205.348 L498.675,212.298 L521.727,91.946 L611.426,85.062 L606.879,108.619 L543.421,113.490 ZM499.062,321.405 C494.786,326.307 487.211,333.157 472.381,337.683 L495.929,376.363 L465.915,378.667 L444.450,342.368 L424.727,343.882 L417.378,382.392 L390.965,384.419 L414.017,264.068 L457.752,260.711 C475.589,259.342 488.068,262.280 496.746,269.576 C503.208,275.009 507.111,283.011 507.859,292.609 C508.739,303.892 505.556,313.961 499.062,321.405 ZM480.417,296.918 C480.102,292.876 478.678,290.106 475.908,287.777 C472.400,284.828 466.437,283.591 458.033,284.236 L435.909,285.934 L429.287,320.493 L452.783,318.689 C463.074,317.900 471.624,314.702 476.375,309.256 C479.226,305.988 480.798,301.801 480.417,296.918 ZM434.512,217.223 L449.434,138.660 L406.367,192.617 L405.681,192.670 L382.585,144.299 L367.623,222.357 L341.210,224.384 L364.262,104.032 L391.703,101.926 L412.913,150.441 L453.790,97.161 L484.319,94.817 L461.267,215.169 L434.512,217.223 ZM340.524,388.291 L334.689,362.142 L283.922,366.039 L267.804,393.872 L239.333,396.057 L313.943,270.901 L339.327,268.953 L367.622,386.211 L340.524,388.291 ZM321.294,300.999 L297.915,341.926 L329.816,339.477 L321.294,300.999 ZM254.396,233.080 C221.295,235.620 197.753,214.727 195.442,185.089 C194.037,167.071 200.350,148.460 212.703,134.299 C224.423,120.863 241.287,111.438 262.211,109.832 C295.312,107.291 318.854,128.184 321.165,157.822 C322.570,175.840 316.257,194.451 303.904,208.613 C292.184,222.048 275.320,231.474 254.396,233.080 ZM293.855,161.612 C292.489,144.099 280.712,132.467 260.989,133.981 C249.841,134.836 240.604,140.289 234.110,147.733 C226.033,156.992 221.873,170.017 222.752,181.299 C224.118,198.812 235.895,210.444 255.619,208.930 C266.767,208.075 276.004,202.623 282.497,195.179 C290.574,185.919 294.735,172.895 293.855,161.612 ZM131.078,143.105 C119.930,143.960 114.057,150.509 114.516,156.403 C115.002,162.634 120.015,164.960 136.820,170.277 C153.797,175.580 166.776,182.716 168.116,199.892 C168.956,210.669 165.338,219.586 159.320,226.486 C150.926,236.108 137.731,241.695 123.496,242.788 C100.342,244.565 81.927,238.524 69.491,225.079 L88.100,207.050 C98.321,216.429 109.203,221.015 122.924,219.962 C133.557,219.146 140.894,213.670 140.316,206.261 C139.870,200.535 135.320,197.496 118.699,192.335 C102.605,187.302 88.070,180.117 86.717,162.772 C85.916,152.500 89.349,143.427 95.368,136.528 C103.445,127.269 116.614,121.345 131.363,120.213 C151.944,118.634 166.718,124.445 177.664,134.277 L160.877,153.523 C151.143,145.969 142.741,142.209 131.078,143.105 ZM120.726,302.502 L103.938,321.747 C94.204,314.193 85.802,310.434 74.139,311.329 C62.991,312.185 57.118,318.734 57.578,324.628 C58.064,330.858 63.076,333.184 79.882,338.501 C96.859,343.805 109.838,350.940 111.177,368.116 C112.018,378.894 108.400,387.811 102.381,394.710 C93.987,404.333 80.793,409.919 66.557,411.012 C43.403,412.789 24.989,406.749 12.553,393.304 L31.161,375.274 C41.382,384.654 52.264,389.240 65.985,388.186 C76.619,387.370 83.956,381.894 83.378,374.485 C82.932,368.760 78.381,365.721 61.760,360.559 C45.667,355.526 31.131,348.341 29.779,330.997 C28.978,320.724 32.411,311.652 38.429,304.753 C46.506,295.493 59.675,289.570 74.425,288.438 C95.006,286.858 109.780,292.670 120.726,302.502 ZM196.683,280.748 C213.834,279.432 225.931,281.891 235.348,289.808 C241.995,295.397 245.699,303.074 246.500,313.346 C247.459,325.639 243.788,336.085 236.661,344.255 C226.841,355.512 210.810,362.333 191.772,363.794 L168.961,365.545 L161.969,401.995 L135.557,404.022 L158.608,283.671 L196.683,280.748 ZM191.371,340.955 C201.833,340.152 209.856,336.826 214.607,331.379 C217.933,327.567 219.478,323.044 219.058,317.655 C218.756,313.782 217.121,310.519 214.352,308.191 C210.474,304.931 205.369,303.629 197.480,304.234 L180.329,305.551 L173.363,342.338 L191.371,340.955 ZM706.985,241.582 L688.612,337.858 L748.469,333.264 L743.790,357.339 L657.521,363.961 L680.573,243.609 L706.985,241.582 ZM886.226,227.825 L881.679,251.382 L818.220,256.253 L813.581,280.834 L869.321,276.555 L864.748,299.776 L809.008,304.054 L804.091,329.503 L868.578,324.554 L864.032,348.111 L773.475,355.061 L796.526,234.710 L886.226,227.825 ZM1165.652,206.379 C1193.951,204.207 1207.324,216.394 1208.558,232.223 C1209.780,247.884 1200.277,258.777 1185.104,263.330 C1195.406,267.113 1202.831,273.828 1203.776,285.952 C1205.418,307.002 1188.222,323.229 1154.949,325.783 L1095.950,330.311 L1119.001,209.959 L1165.652,206.379 ZM1182.487,238.628 C1182.015,232.566 1176.686,228.401 1165.024,229.296 L1140.155,231.205 L1135.409,256.641 L1161.993,254.601 C1175.543,253.561 1183.249,248.395 1182.487,238.628 ZM1157.121,302.746 C1170.327,301.733 1178.113,295.376 1177.404,286.282 C1176.866,279.378 1170.878,275.602 1160.072,276.432 L1131.087,278.656 L1126.078,305.129 L1157.121,302.746 ZM1530.158,178.402 L1629.634,170.768 L1624.981,195.180 L1588.449,197.984 L1570.051,293.923 L1543.638,295.950 L1562.037,200.011 L1525.505,202.815 L1530.158,178.402 Z"/>
<path fill-rule="evenodd"  stroke-width="2px" stroke="rgb(255, 255, 255)" fill="rgb(255, 255, 255)"
 d="M1457.195,129.135 C1424.094,131.675 1400.552,110.782 1398.241,81.144 C1396.836,63.126 1403.149,44.515 1415.502,30.354 C1427.222,16.918 1444.086,7.493 1465.010,5.887 C1498.111,3.346 1521.653,24.239 1523.964,53.877 C1525.369,71.895 1519.056,90.506 1506.703,104.668 C1494.983,118.103 1478.119,127.529 1457.195,129.135 ZM1496.654,57.667 C1495.288,40.154 1483.511,28.522 1463.788,30.036 C1452.639,30.892 1443.403,36.344 1436.909,43.788 C1428.832,53.047 1424.671,66.072 1425.551,77.354 C1426.917,94.867 1438.694,106.499 1458.417,104.986 C1469.566,104.130 1478.802,98.678 1485.296,91.234 C1493.373,81.974 1497.533,68.950 1496.654,57.667 ZM1408.035,240.012 C1407.150,244.146 1406.766,248.071 1407.146,252.955 C1408.052,264.574 1416.044,271.923 1429.594,270.883 C1437.483,270.277 1443.804,267.251 1448.568,261.973 C1453.319,256.526 1456.699,248.982 1458.524,239.186 L1471.517,171.275 L1497.929,169.247 L1484.196,240.943 C1481.262,256.414 1476.165,268.494 1468.404,277.391 C1459.377,287.740 1446.551,293.637 1428.714,295.006 C1400.930,297.138 1382.636,283.804 1380.680,258.713 C1380.220,252.819 1380.750,246.341 1382.125,239.629 L1393.994,177.225 L1420.407,175.197 L1408.035,240.012 ZM1349.534,40.838 L1331.135,136.777 L1304.723,138.804 L1323.121,42.865 L1286.590,45.669 L1291.243,21.257 L1390.718,13.622 L1386.065,38.034 L1349.534,40.838 ZM1351.755,230.949 C1353.160,248.967 1346.847,267.578 1334.494,281.739 C1322.774,295.175 1305.910,304.600 1284.986,306.206 C1251.885,308.747 1228.343,287.854 1226.032,258.216 C1224.627,240.198 1230.940,221.587 1243.293,207.425 C1255.013,193.990 1271.877,184.564 1292.801,182.958 C1325.902,180.418 1349.444,201.311 1351.755,230.949 ZM1264.700,220.859 C1256.623,230.119 1252.462,243.143 1253.342,254.426 C1254.708,271.939 1266.485,283.571 1286.208,282.057 C1297.356,281.202 1306.593,275.749 1313.087,268.305 C1321.164,259.046 1325.325,246.021 1324.445,234.739 C1323.079,217.226 1311.302,205.594 1291.578,207.108 C1280.430,207.963 1271.194,213.415 1264.700,220.859 ZM1151.761,53.815 C1139.412,54.763 1128.658,60.670 1121.214,69.203 C1113.454,78.100 1108.911,90.646 1109.909,103.444 C1111.341,121.799 1125.836,130.681 1142.816,129.378 C1152.077,128.667 1158.767,125.951 1163.900,123.186 L1168.062,103.554 L1141.478,105.595 L1145.906,82.724 L1198.045,78.722 L1185.649,138.796 C1174.327,146.271 1160.961,151.871 1142.952,153.253 C1115.511,155.359 1085.278,141.586 1082.533,106.392 C1081.102,88.037 1087.613,69.750 1099.966,55.588 C1112.319,41.426 1130.357,31.572 1151.968,29.913 C1177.351,27.965 1193.364,36.392 1202.608,46.524 L1184.382,65.033 C1176.760,57.995 1166.854,52.657 1151.761,53.815 ZM1032.673,296.943 L981.906,300.839 L965.787,328.672 L937.317,330.858 L1011.927,205.702 L1037.310,203.754 L1065.606,321.011 L1038.507,323.091 L1032.673,296.943 ZM1019.278,235.800 L995.899,276.726 L1027.799,274.278 L1019.278,235.800 ZM1017.232,160.870 L974.845,86.367 L959.777,165.279 L933.707,167.280 L956.758,46.929 L981.113,45.059 L1021.944,117.310 L1036.682,40.794 L1062.751,38.793 L1039.700,159.145 L1017.232,160.870 ZM868.697,172.270 L891.748,51.918 L918.161,49.891 L895.109,170.243 L868.697,172.270 ZM803.678,177.260 L813.023,128.940 L765.000,132.626 L755.655,180.946 L729.243,182.973 L752.294,62.621 L778.707,60.594 L769.652,108.214 L817.675,104.528 L826.729,56.908 L853.142,54.881 L830.090,175.233 L803.678,177.260 ZM684.341,91.892 L665.942,187.831 L639.530,189.859 L657.928,93.919 L621.397,96.723 L626.050,72.311 L725.525,64.676 L720.873,89.088 L684.341,91.892 ZM592.850,288.349 L626.494,354.714 L597.509,356.938 L573.134,305.447 L549.893,328.237 L543.654,361.072 L517.242,363.099 L540.293,242.747 L566.706,240.720 L556.542,294.015 L611.813,237.258 L647.487,234.520 L592.850,288.349 ZM536.420,102.398 L531.780,126.979 L587.521,122.701 L582.948,145.921 L527.207,150.200 L522.290,175.649 L586.778,170.699 L582.231,194.256 L491.674,201.207 L514.726,80.855 L604.425,73.971 L599.878,97.528 L536.420,102.398 ZM492.061,310.314 C487.785,315.216 480.210,322.066 465.380,326.592 L488.928,365.272 L458.914,367.576 L437.449,331.277 L417.726,332.790 L410.377,371.301 L383.964,373.328 L407.016,252.976 L450.751,249.620 C468.588,248.251 481.067,251.189 489.745,258.485 C496.207,263.918 500.109,271.919 500.858,281.518 C501.738,292.800 498.555,302.870 492.061,310.314 ZM473.416,285.826 C473.100,281.785 471.677,279.014 468.907,276.686 C465.399,273.736 459.436,272.500 451.032,273.145 L428.908,274.843 L422.286,309.402 L445.782,307.598 C456.073,306.808 464.623,303.611 469.374,298.164 C472.225,294.896 473.796,290.710 473.416,285.826 ZM427.510,206.131 L442.433,127.569 L399.366,181.526 L398.680,181.578 L375.584,133.208 L360.622,211.265 L334.209,213.292 L357.261,92.941 L384.702,90.834 L405.912,139.350 L446.789,86.069 L477.317,83.726 L454.266,204.078 L427.510,206.131 ZM333.523,377.199 L327.688,351.051 L276.921,354.947 L260.803,382.781 L232.332,384.966 L306.942,259.810 L332.326,257.862 L360.621,375.120 L333.523,377.199 ZM314.293,289.908 L290.914,330.834 L322.815,328.386 L314.293,289.908 ZM247.395,221.988 C214.294,224.529 190.752,203.636 188.441,173.998 C187.036,155.980 193.349,137.369 205.702,123.207 C217.422,109.772 234.286,100.346 255.210,98.740 C288.311,96.200 311.853,117.093 314.164,146.731 C315.569,164.749 309.256,183.360 296.903,197.521 C285.183,210.957 268.319,220.382 247.395,221.988 ZM286.854,150.521 C285.488,133.008 273.711,121.376 253.987,122.889 C242.839,123.745 233.603,129.197 227.109,136.641 C219.032,145.901 214.871,158.925 215.751,170.208 C217.117,187.721 228.894,199.353 248.617,197.839 C259.765,196.984 269.002,191.531 275.496,184.087 C283.573,174.828 287.734,161.803 286.854,150.521 ZM124.077,132.013 C112.929,132.869 107.056,139.418 107.515,145.312 C108.001,151.543 113.013,153.868 129.819,159.185 C146.796,164.489 159.775,171.624 161.115,188.801 C161.955,199.578 158.337,208.495 152.319,215.394 C143.925,225.017 130.730,230.604 116.495,231.696 C93.341,233.473 74.926,227.433 62.490,213.988 L81.099,195.958 C91.319,205.338 102.202,209.924 115.922,208.871 C126.556,208.055 133.893,202.579 133.315,195.169 C132.869,189.444 128.319,186.405 111.698,181.243 C95.604,176.211 81.069,169.026 79.716,151.681 C78.915,141.409 82.348,132.336 88.367,125.437 C96.444,116.177 109.612,110.254 124.362,109.122 C144.943,107.542 159.717,113.354 170.663,123.186 L153.875,142.432 C144.142,134.878 135.739,131.118 124.077,132.013 ZM113.725,291.411 L96.937,310.656 C87.203,303.102 78.801,299.343 67.138,300.238 C55.990,301.093 50.117,307.643 50.577,313.536 C51.063,319.767 56.075,322.093 72.881,327.410 C89.858,332.714 102.837,339.849 104.176,357.025 C105.016,367.802 101.399,376.720 95.380,383.619 C86.986,393.242 73.791,398.828 59.556,399.921 C36.402,401.698 17.988,395.657 5.552,382.213 L24.160,364.183 C34.381,373.563 45.263,378.148 58.984,377.095 C69.617,376.279 76.955,370.803 76.377,363.394 C75.930,357.668 71.380,354.630 54.759,349.468 C38.666,344.435 24.130,337.250 22.777,319.905 C21.976,309.633 25.410,300.561 31.428,293.661 C39.505,284.402 52.674,278.478 67.424,277.346 C88.005,275.767 102.778,281.578 113.725,291.411 ZM189.682,269.657 C206.833,268.341 218.930,270.800 228.347,278.717 C234.994,284.305 238.698,291.983 239.499,302.255 C240.458,314.548 236.786,324.994 229.659,333.164 C219.840,344.421 203.809,351.242 184.771,352.703 L161.960,354.454 L154.968,390.904 L128.556,392.931 L151.607,272.579 L189.682,269.657 ZM184.370,329.864 C194.832,329.061 202.855,325.735 207.606,320.288 C210.932,316.475 212.477,311.952 212.057,306.564 C211.755,302.691 210.120,299.428 207.351,297.100 C203.473,293.840 198.368,292.537 190.479,293.143 L173.328,294.459 L166.362,331.246 L184.370,329.864 ZM699.984,230.491 L681.611,326.767 L741.468,322.173 L736.789,346.248 L650.520,352.870 L673.572,232.518 L699.984,230.491 ZM879.225,216.734 L874.678,240.291 L811.219,245.162 L806.580,269.742 L862.320,265.464 L857.747,288.685 L802.007,292.963 L797.090,318.412 L861.577,313.462 L857.031,337.020 L766.474,343.970 L789.525,223.618 L879.225,216.734 ZM1158.651,195.288 C1186.950,193.116 1200.323,205.303 1201.557,221.132 C1202.779,236.793 1193.276,247.686 1178.103,252.239 C1188.405,256.022 1195.830,262.736 1196.775,274.861 C1198.417,295.910 1181.221,312.138 1147.948,314.691 L1088.949,319.220 L1112.000,198.868 L1158.651,195.288 ZM1175.486,227.537 C1175.014,221.475 1169.685,217.310 1158.023,218.205 L1133.154,220.114 L1128.408,245.550 L1154.992,243.509 C1168.541,242.470 1176.248,237.304 1175.486,227.537 ZM1150.120,291.655 C1163.326,290.642 1171.112,284.284 1170.403,275.191 C1169.865,268.287 1163.876,264.511 1153.071,265.341 L1124.086,267.565 L1119.077,294.038 L1150.120,291.655 ZM1523.157,167.311 L1622.633,159.676 L1617.980,184.089 L1581.448,186.893 L1563.049,282.832 L1536.637,284.859 L1555.036,188.920 L1518.504,191.724 L1523.157,167.311 Z"/>
<path fill-rule="evenodd"  stroke-width="4px" stroke="rgb(255, 219, 243)" fill="rgb(255, 203, 249)"
 d="M1458.970,131.000 C1425.868,133.540 1402.327,112.647 1400.016,83.009 C1398.611,64.991 1404.924,46.380 1417.277,32.219 C1428.997,18.783 1445.861,9.358 1466.785,7.752 C1499.886,5.211 1523.427,26.104 1525.739,55.742 C1527.144,73.760 1520.831,92.371 1508.477,106.533 C1496.758,119.968 1479.894,129.394 1458.970,131.000 ZM1498.429,59.532 C1497.063,42.019 1485.286,30.387 1465.562,31.901 C1454.414,32.757 1445.177,38.209 1438.684,45.653 C1430.607,54.912 1426.446,67.937 1427.326,79.219 C1428.692,96.732 1440.469,108.364 1460.192,106.851 C1471.340,105.995 1480.577,100.543 1487.071,93.099 C1495.148,83.839 1499.308,70.815 1498.429,59.532 ZM1409.810,241.877 C1408.924,246.011 1408.540,249.936 1408.921,254.820 C1409.827,266.439 1417.819,273.788 1431.369,272.748 C1439.258,272.142 1445.578,269.116 1450.343,263.838 C1455.094,258.391 1458.474,250.847 1460.298,241.051 L1473.291,173.140 L1499.704,171.112 L1485.971,242.808 C1483.036,258.279 1477.940,270.359 1470.179,279.256 C1461.152,289.605 1448.326,295.502 1430.489,296.871 C1402.705,299.003 1384.411,285.669 1382.455,260.578 C1381.995,254.684 1382.525,248.206 1383.899,241.494 L1395.769,179.090 L1422.181,177.062 L1409.810,241.877 ZM1351.309,42.703 L1332.910,138.642 L1306.497,140.669 L1324.896,44.730 L1288.365,47.534 L1293.017,23.121 L1392.493,15.487 L1387.840,39.899 L1351.309,42.703 ZM1353.530,232.814 C1354.935,250.832 1348.622,269.443 1336.269,283.604 C1324.549,297.040 1307.685,306.465 1286.761,308.071 C1253.659,310.612 1230.118,289.719 1227.807,260.081 C1226.402,242.063 1232.714,223.452 1245.068,209.290 C1256.788,195.855 1273.652,186.429 1294.576,184.823 C1327.677,182.283 1351.219,203.176 1353.530,232.814 ZM1266.475,222.724 C1258.398,231.984 1254.237,245.008 1255.117,256.291 C1256.483,273.804 1268.260,285.436 1287.983,283.922 C1299.131,283.067 1308.368,277.614 1314.862,270.170 C1322.939,260.911 1327.099,247.886 1326.219,236.604 C1324.854,219.091 1313.077,207.459 1293.353,208.972 C1282.205,209.828 1272.968,215.280 1266.475,222.724 ZM1153.536,55.680 C1141.187,56.628 1130.433,62.535 1122.989,71.068 C1115.229,79.965 1110.686,92.511 1111.684,105.309 C1113.115,123.664 1127.611,132.546 1144.590,131.243 C1153.852,130.532 1160.541,127.816 1165.674,125.051 L1169.837,105.419 L1143.253,107.460 L1147.681,84.589 L1199.820,80.587 L1187.424,140.661 C1176.102,148.136 1162.735,153.736 1144.727,155.118 C1117.285,157.224 1087.053,143.452 1084.308,108.257 C1082.877,89.902 1089.387,71.615 1101.741,57.453 C1114.094,43.291 1132.132,33.437 1153.742,31.778 C1179.126,29.830 1195.139,38.257 1204.383,48.389 L1186.157,66.898 C1178.535,59.860 1168.629,54.522 1153.536,55.680 ZM1034.447,298.808 L983.680,302.704 L967.562,330.537 L939.092,332.723 L1013.702,207.567 L1039.085,205.618 L1067.381,322.876 L1040.282,324.956 L1034.447,298.808 ZM1021.052,237.665 L997.673,278.591 L1029.574,276.143 L1021.052,237.665 ZM1019.007,162.735 L976.619,88.232 L961.551,167.144 L935.482,169.145 L958.533,48.794 L982.888,46.924 L1023.719,119.175 L1038.457,42.659 L1064.526,40.659 L1041.475,161.010 L1019.007,162.735 ZM870.472,174.135 L893.523,53.783 L919.935,51.756 L896.884,172.108 L870.472,174.135 ZM805.453,179.125 L814.797,130.805 L766.775,134.491 L757.430,182.811 L731.018,184.838 L754.069,64.486 L780.482,62.459 L771.427,110.079 L819.450,106.393 L828.504,58.773 L854.917,56.746 L831.865,177.098 L805.453,179.125 ZM686.116,93.757 L667.717,189.696 L641.304,191.724 L659.703,95.784 L623.172,98.588 L627.824,74.176 L727.300,66.541 L722.647,90.953 L686.116,93.757 ZM594.625,290.214 L628.268,356.579 L599.283,358.803 L574.909,307.312 L551.668,330.102 L545.429,362.937 L519.017,364.964 L542.068,244.612 L568.481,242.585 L558.316,295.880 L613.588,239.123 L649.262,236.385 L594.625,290.214 ZM538.195,104.263 L533.555,128.844 L589.296,124.566 L584.723,147.786 L528.982,152.064 L524.065,177.514 L588.553,172.564 L584.006,196.121 L493.449,203.072 L516.500,82.720 L606.200,75.835 L601.653,99.393 L538.195,104.263 ZM493.836,312.179 C489.560,317.081 481.985,323.930 467.155,328.457 L490.703,367.137 L460.689,369.440 L439.224,333.142 L419.500,334.655 L412.151,373.166 L385.739,375.193 L408.790,254.841 L452.525,251.485 C470.362,250.116 482.842,253.054 491.520,260.350 C497.982,265.783 501.884,273.784 502.633,283.383 C503.513,294.665 500.330,304.735 493.836,312.179 ZM475.190,287.691 C474.875,283.650 473.451,280.879 470.682,278.551 C467.174,275.601 461.211,274.365 452.807,275.010 L430.682,276.708 L424.060,311.267 L447.557,309.463 C457.848,308.673 466.398,305.476 471.149,300.029 C474.000,296.761 475.571,292.575 475.190,287.691 ZM429.285,207.996 L444.208,129.434 L401.141,183.391 L400.455,183.443 L377.359,135.073 L362.397,213.130 L335.984,215.157 L359.035,94.806 L386.477,92.700 L407.687,141.215 L448.564,87.934 L479.092,85.591 L456.041,205.943 L429.285,207.996 ZM335.298,379.064 L329.463,352.916 L278.696,356.812 L262.578,384.646 L234.107,386.831 L308.717,261.675 L334.101,259.727 L362.396,376.985 L335.298,379.064 ZM316.068,291.773 L292.689,332.699 L324.590,330.251 L316.068,291.773 ZM249.170,223.853 C216.068,226.394 192.527,205.501 190.216,175.863 C188.811,157.845 195.123,139.234 207.477,125.072 C219.197,111.637 236.061,102.211 256.985,100.605 C290.086,98.065 313.628,118.958 315.939,148.596 C317.344,166.614 311.031,185.225 298.678,199.386 C286.958,212.822 270.094,222.247 249.170,223.853 ZM288.628,152.386 C287.263,134.873 275.486,123.241 255.762,124.754 C244.614,125.610 235.377,131.062 228.884,138.506 C220.807,147.766 216.646,160.790 217.526,172.073 C218.892,189.586 230.669,201.218 250.392,199.704 C261.540,198.849 270.777,193.396 277.271,185.952 C285.348,176.693 289.508,163.668 288.628,152.386 ZM125.852,133.878 C114.704,134.734 108.830,141.283 109.290,147.177 C109.776,153.408 114.788,155.733 131.594,161.050 C148.571,166.354 161.550,173.489 162.889,190.666 C163.730,201.443 160.112,210.360 154.094,217.259 C145.699,226.882 132.505,232.469 118.269,233.561 C95.116,235.338 76.701,229.298 64.265,215.853 L82.873,197.823 C93.094,207.203 103.977,211.789 117.697,210.736 C128.331,209.920 135.668,204.444 135.090,197.034 C134.644,191.309 130.093,188.270 113.472,183.108 C97.379,178.076 82.843,170.891 81.491,153.546 C80.690,143.274 84.123,134.201 90.141,127.302 C98.219,118.042 111.387,112.119 126.137,110.987 C146.718,109.407 161.492,115.219 172.438,125.051 L155.650,144.296 C145.917,136.743 137.514,132.983 125.852,133.878 ZM115.500,293.276 L98.712,312.521 C88.978,304.967 80.576,301.208 68.913,302.103 C57.765,302.958 51.892,309.508 52.352,315.402 C52.837,321.632 57.850,323.958 74.655,329.275 C91.632,334.579 104.611,341.714 105.951,358.890 C106.791,369.667 103.173,378.585 97.155,385.484 C88.761,395.106 75.566,400.693 61.331,401.786 C38.177,403.563 19.762,397.522 7.326,384.078 L25.935,366.048 C36.156,375.428 47.038,380.013 60.759,378.960 C71.392,378.144 78.729,372.668 78.152,365.259 C77.705,359.533 73.155,356.494 56.534,351.333 C40.441,346.300 25.905,339.115 24.552,321.770 C23.751,311.498 27.185,302.426 33.203,295.526 C41.280,286.267 54.449,280.343 69.198,279.211 C89.780,277.632 104.553,283.443 115.500,293.276 ZM191.457,271.522 C208.608,270.206 220.705,272.665 230.121,280.582 C236.769,286.170 240.473,293.848 241.274,304.120 C242.233,316.413 238.561,326.859 231.434,335.029 C221.615,346.286 205.583,353.107 186.546,354.568 L163.735,356.318 L156.743,392.769 L130.330,394.796 L153.382,274.444 L191.457,271.522 ZM186.145,331.729 C196.607,330.926 204.629,327.600 209.381,322.153 C212.707,318.340 214.252,313.817 213.832,308.429 C213.530,304.556 211.895,301.293 209.125,298.964 C205.248,295.705 200.143,294.402 192.253,295.008 L175.102,296.324 L168.137,333.111 L186.145,331.729 ZM701.759,232.356 L683.386,328.632 L743.243,324.038 L738.564,348.113 L652.295,354.735 L675.346,234.383 L701.759,232.356 ZM880.999,218.599 L876.453,242.156 L812.994,247.027 L808.354,271.607 L864.095,267.329 L859.522,290.550 L803.781,294.828 L798.865,320.277 L863.352,315.327 L858.805,338.885 L768.248,345.835 L791.300,225.483 L880.999,218.599 ZM1160.426,197.152 C1188.725,194.980 1202.098,207.168 1203.332,222.997 C1204.553,238.657 1195.051,249.551 1179.878,254.104 C1190.180,257.887 1197.605,264.601 1198.550,276.726 C1200.192,297.775 1182.996,314.003 1149.723,316.556 L1090.724,321.085 L1113.775,200.733 L1160.426,197.152 ZM1177.261,229.402 C1176.788,223.340 1171.460,219.175 1159.797,220.070 L1134.928,221.979 L1130.183,247.415 L1156.767,245.374 C1170.316,244.335 1178.023,239.169 1177.261,229.402 ZM1151.895,293.520 C1165.101,292.507 1172.887,286.149 1172.178,277.056 C1171.640,270.152 1165.651,266.376 1154.846,267.205 L1125.861,269.430 L1120.851,295.903 L1151.895,293.520 ZM1524.932,169.176 L1624.407,161.541 L1619.755,185.954 L1583.223,188.758 L1564.824,284.697 L1538.412,286.724 L1556.811,190.785 L1520.279,193.589 L1524.932,169.176 Z"/>
</svg>