<svg id="Layer_1" data-name="Layer 1" xmlns="http://www.w3.org/2000/svg" viewBox="0 0 358 456"><title>alcohol-free</title><g id="Layer_2" data-name="Layer 2"><g style="opacity:0.12"><path d="M174.64,49.89c-.95,2.66-.92,4.84.84,7.1,1.39,1.77,1.75,4,2,6.19.25,2-.12,3.36-2.57,3.26-9.27-.41-14,5.22-16.2,13.17-4.48,16.44-4.37,32.78,3.17,48.47A29.43,29.43,0,0,0,175,141.76a21.14,21.14,0,0,0,2,.93l-.78-.39a29.41,29.41,0,0,1-13.13-13.68c-7.55-15.69-7.65-32-3.17-48.47,2.16-8,6.92-13.58,16.2-13.17,2.45.1,2.82-1.3,2.57-3.26-.28-2.2-.64-4.42-2-6.19-1.76-2.26-1.79-4.44-.84-7.1,1.14-3.19.26-5.28-2.35-6.07C175.14,45.38,175.59,47.26,174.64,49.89Z" transform="translate(-0.09 0.02)" style="fill:#6a374f;stroke:#6a374f;stroke-linecap:round;stroke-linejoin:round;stroke-width:28px"/><path d="M150.29,47.12a54.71,54.71,0,0,1,19.22-7.77c2.62-.49,5.31-.93,5.26-4.27A3.59,3.59,0,0,0,172,31.31a3.59,3.59,0,0,1,1.56,3.23c.05,3.34-2.64,3.78-5.26,4.27a55.28,55.28,0,0,0-19.76,8.1A12.86,12.86,0,0,0,150.29,47.12Z" transform="translate(-0.09 0.02)" style="fill:#6a374f;stroke:#6a374f;stroke-linecap:round;stroke-linejoin:round;stroke-width:28px"/><path d="M150.74,38.57l.27-.28c-5.43-1.33-9.62,1.5-14,2.53a3.83,3.83,0,0,0,.29.73C141.61,40.81,145.65,38,150.74,38.57Z" transform="translate(-0.09 0.02)" style="fill:#6a374f;stroke:#6a374f;stroke-linecap:round;stroke-linejoin:round;stroke-width:28px"/><path d="M220,170.29c2.93,2.8,4.66,3.15,6.87-.71q9.57-16.68,19.61-33.11c2-3.26,1.57-5.13-1.86-6.74a146.9,146.9,0,0,0-40-12.42c-3.88-.61-6.05.17-5.21,4.27C200.31,144.2,205.7,156.6,220,170.29Z" transform="translate(-0.09 0.02)" style="fill:#6a374f;stroke:#6a374f;stroke-linecap:round;stroke-linejoin:round;stroke-width:28px"/><path d="M214,176.45c3.56,3.22,3.93,5.88,1.32,10-5.54,8.68-15.93,26.84-16,27l-2.53,4.24a10.2,10.2,0,0,0,4-4.08c5.13-8.94,10.23-17.91,15.77-26.59,2.61-4.09,2.24-6.75-1.32-10-10-9-18-19.29-19-33.5-.14-1.91-.72-3-1.89-2.94A4.67,4.67,0,0,1,195,143C196,157.16,204,167.41,214,176.45Z" transform="translate(-0.09 0.02)" style="fill:#6a374f;stroke:#6a374f;stroke-linecap:round;stroke-linejoin:round;stroke-width:28px"/><path d="M175.15,72.88a9.51,9.51,0,0,1,5.36,1.32A9.51,9.51,0,0,0,174,72.05c-5,.16-7.27,3.9-8.89,7.93-2.69,6.71-2.62,13.88-3.1,20a52.5,52.5,0,0,0,7.09,27,24.89,24.89,0,0,0,7.23,7.88,25.88,25.88,0,0,1-6.06-7,52.49,52.49,0,0,1-7.12-27.07c.48-6.07.41-13.24,3.1-20C167.87,76.78,170.19,73,175.15,72.88Z" transform="translate(-0.09 0.02)" style="fill:#6a374f;stroke:#6a374f;stroke-linecap:round;stroke-linejoin:round;stroke-width:28px"/><path d="M194.27,221.8c-16.16,27-66,110.38-68.48,114.62-.46.8-.82,1.94-1.91,1.93a1.64,1.64,0,0,0,1.05.55c1.22.13,1.58-1.1,2.07-1.94,3-5.07,5.33-10.68,8.56-15.4C142.16,312,148.05,302,154,292q19.62-32.56,38.84-65.35C193.73,225.21,195.56,223.6,194.27,221.8Z" transform="translate(-0.09 0.02)" style="fill:#6a374f;stroke:#6a374f;stroke-linecap:round;stroke-linejoin:round;stroke-width:28px"/><path d="M107.06,303.36c-5.23-24.56-4.92-48.72,7-71.62,7-13.48,14.71-26.59,21.41-40.21,7.12-14.46,10.33-29.66,4.94-45.61-1.83-5.44-3.83-10.83-4.56-16.57-.57-4.5-2.68-4.9-6.62-3.3A141.88,141.88,0,0,0,40.84,257.12,133.3,133.3,0,0,0,51.35,310.9a143.33,143.33,0,0,0,48.4,61.2c3.45,2.52,5.4,2.32,7.45-1.53,2.86-5.36,6-10.6,9.32-15.66a11.69,11.69,0,0,0,1.44-11A378.23,378.23,0,0,1,107.06,303.36Z" transform="translate(-0.09 0.02)" style="fill:#6a374f;stroke:#6a374f;stroke-linecap:round;stroke-linejoin:round;stroke-width:28px"/><path d="M321.45,226.89c-7.5-33.43-25-60.45-51.77-81.71-3.7-2.94-5.48-2.28-7.69,1.58-6.53,11.42-13.1,22.85-20.23,33.91-3.22,5-2.56,8.09,1.51,12.11,21.45,21.2,33.23,47.38,37.52,76.86,3.55,24.38,6.46,48.87,8.39,73.45.13,1.59-.31,3.82,1.59,4.47,2.06.7,2.71-1.63,3.65-2.84,19.93-25.65,30.26-54.67,30.6-87.14A144.7,144.7,0,0,0,321.45,226.89Z" transform="translate(-0.09 0.02)" style="fill:#6a374f;stroke:#6a374f;stroke-linecap:round;stroke-linejoin:round;stroke-width:28px"/><path d="M125.84,375.9c-1.17,1.85-2.4,3.67-3.43,5.59-.9,1.67-.86,3.33,1.13,4.26,2.44,1.14,4.89,2.28,7.42,3.19,1.24.45,2.8.63,2.75-1.9-1.54-3.6-3.11-7.51-4.9-11.31C127.91,373.83,126.74,374.49,125.84,375.9Z" transform="translate(-0.09 0.02)" style="fill:#6a374f;stroke:#6a374f;stroke-linecap:round;stroke-linejoin:round;stroke-width:28px"/><path d="M282.45,359.31c-2.9-32.82-6.26-65.62-12.17-98C265.85,237,255.05,215.58,237,198.2a6.23,6.23,0,0,0-2.76-1.84,11.44,11.44,0,0,1,1.56,1.3c18,17.38,28.84,38.85,33.27,63.08,5.92,32.41,9.27,65.21,12.17,98,1,11.27,2.28,22.54,2.81,33.84.79,16.84-3.44,23.58-19.07,30a147.94,147.94,0,0,1-58.1,11,177.35,177.35,0,0,1-36.81-4.16c.52.15,1.05.28,1.59.4,32.18,7.07,63.81,5.84,94.53-6.71,15.63-6.39,19.85-13.13,19.06-30C284.72,381.85,283.45,370.58,282.45,359.31Z" transform="translate(-0.09 0.02)" style="fill:#6a374f;stroke:#6a374f;stroke-linecap:round;stroke-linejoin:round;stroke-width:28px"/><path d="M329.77,192.76C304.34,137.83,261,106.47,201.09,98.13c-4.7-.65-6.68-2.62-7.74-7-1.23-5.06-3.09-10-4.79-14.93-3.19-9.29-9.1-17.91-6.88-28.54a4.22,4.22,0,0,0-1-3.3c-3.25-3.15-2.14-6.11-.45-9.57,2.38-4.9.63-8.91-4.3-11.24A18.77,18.77,0,0,0,167.5,22a71.94,71.94,0,0,0-31.7,7.87A21.65,21.65,0,0,0,130.11,34c-3.11,3.2-4.56,6.81-1.11,10.79,1.07,1.26.75,2.82,1.09,4.23,1.22,5.09-1.81,10.94,1.44,15.25s3.52,8.55,3.38,13.3c-.21,7.27-.55,14.53-.51,21.8,0,3.62-1.35,5.62-4.76,6.71a136.08,136.08,0,0,0-20,8.55c-73.59,37.44-107,124.92-76,201.72C53,364.35,88.47,395.83,138,411c5.52,1.69,9.14,4.07,11.49,9.28,4.23,9.37,11.93,14.81,21.55,17.89s19.53,3.78,30.36,3.77c10.39.42,21.48-1.08,32.51-2.62,15-2.08,29.49-6,42.82-13.38,12.87-7.14,18.85-17.88,16.72-32.8-.53-3.66-.14-7.46-.67-11.12-.78-5.36,1.17-9.07,5-12.9C343.61,323,356.89,251.37,329.77,192.76ZM204.58,117.31a146.9,146.9,0,0,1,40,12.42c3.43,1.61,3.85,3.48,1.86,6.74q-10,16.42-19.61,33.11c-2.21,3.86-3.94,3.51-6.87.71-14.29-13.69-19.68-26.09-20.62-48.71C198.53,117.48,200.7,116.7,204.58,117.31Zm-8.41,26.18c1,14.21,9.06,24.46,19,33.5,3.56,3.22,3.93,5.88,1.32,10-5.54,8.68-10.64,17.65-15.77,26.59a10.2,10.2,0,0,1-4,4.08l2.53-4.23c.08-.14,10.47-18.3,16-27,2.61-4.09,2.24-6.75-1.32-10-10-9-18-19.29-19-33.5a4.61,4.61,0,0,0-.68-2.4c1.2-.06,1.75,1.05,1.92,3Zm-25.9-15.66a25.88,25.88,0,0,0,6.06,7A25.06,25.06,0,0,1,169.1,127,52.47,52.47,0,0,1,162,99.93c.48-6.07.41-13.24,3.1-20,1.62-4,3.93-7.77,8.89-7.93a9.45,9.45,0,0,1,6.53,2.15,9.51,9.51,0,0,0-5.36-1.32c-5,.16-7.28,3.9-8.9,7.93-2.69,6.71-2.62,13.88-3.1,20a52.48,52.48,0,0,0,7.11,27.07Zm5.58-77.4c-.95,2.66-.92,4.84.84,7.1,1.39,1.77,1.75,4,2,6.19.25,2-.12,3.36-2.57,3.26-9.28-.41-14,5.22-16.2,13.17-4.48,16.44-4.38,32.78,3.17,48.47a29.41,29.41,0,0,0,13.13,13.68l.78.39c-.66-.27-1.33-.58-2-.93a29.41,29.41,0,0,1-13.13-13.68c-7.54-15.69-7.65-32-3.17-48.47,2.16-8,6.93-13.58,16.2-13.17,2.45.1,2.82-1.3,2.57-3.26-.28-2.2-.64-4.42-2-6.19-1.76-2.26-1.79-4.44-.84-7.1s.5-4.51-1.14-5.53c2.62.79,3.51,2.88,2.36,6.07ZM168.3,38.81c2.62-.49,5.31-.93,5.26-4.27A3.59,3.59,0,0,0,172,31.31a3.59,3.59,0,0,1,2.77,3.77c0,3.34-2.64,3.78-5.26,4.27a54.71,54.71,0,0,0-19.22,7.77,12.86,12.86,0,0,1-1.75-.21A55.28,55.28,0,0,1,168.3,38.81ZM151,38.29l-.27.28c-5.09-.6-9.13,2.24-13.49,3a3.83,3.83,0,0,1-.29-.73C141.39,39.79,145.58,37,151,38.29ZM116.52,354.91c-3.35,5.06-6.46,10.3-9.32,15.66-2,3.85-4,4.05-7.45,1.53a143.33,143.33,0,0,1-48.4-61.2,133.3,133.3,0,0,1-10.51-53.78,141.87,141.87,0,0,1,88.35-131.07c3.94-1.6,6-1.2,6.62,3.3.73,5.74,2.73,11.13,4.56,16.57,5.39,16,2.18,31.15-4.94,45.61-6.7,13.62-14.42,26.73-21.41,40.21-11.88,22.9-12.19,47.06-7,71.62a377.08,377.08,0,0,0,11,40.56A11.71,11.71,0,0,1,116.52,354.91Zm14.44,34c-2.53-.91-5-2.05-7.42-3.19-2-.93-2-2.59-1.13-4.26,1-1.92,2.26-3.74,3.43-5.59.9-1.41,2.07-2.07,3-.17,1.79,3.8,3.36,7.71,4.9,11.31,0,2.56-1.54,2.38-2.74,1.93ZM154,292c-6,9.95-11.88,19.94-18.48,29.55-3.23,4.72-5.56,10.33-8.56,15.4-.49.84-.85,2.07-2.07,1.94a1.64,1.64,0,0,1-1-.55c1.09,0,1.45-1.13,1.91-1.93,2.51-4.24,52.32-87.57,68.48-114.62,1.29,1.8-.54,3.41-1.39,4.86C180,248.47,167.12,270.3,154,292ZM266.19,423.12c-30.72,12.55-62.35,13.78-94.53,6.71-.54-.12-1.07-.25-1.59-.4a177.35,177.35,0,0,0,36.81,4.16,147.94,147.94,0,0,0,58.1-11c15.63-6.39,19.86-13.13,19.07-30-.53-11.3-1.81-22.57-2.81-33.84-2.9-32.82-6.25-65.62-12.17-98-4.43-24.23-15.22-45.7-33.27-63.08a11.44,11.44,0,0,0-1.56-1.3A6.21,6.21,0,0,1,237,198.2c18.05,17.38,28.85,38.84,33.28,63.08,5.91,32.41,9.27,65.21,12.17,98,1,11.27,2.27,22.54,2.8,33.84C286,410,281.82,416.73,266.19,423.12Zm24.58-75.56c-1.9-.65-1.46-2.88-1.59-4.47-1.93-24.58-4.84-49.07-8.39-73.45-4.29-29.48-16.07-55.66-37.52-76.86-4.07-4-4.73-7.11-1.51-12.11,7.13-11.06,13.7-22.49,20.23-33.91,2.21-3.86,4-4.52,7.69-1.58,26.76,21.26,44.27,48.28,51.77,81.71A145.33,145.33,0,0,1,325,257.58c-.34,32.47-10.67,61.49-30.6,87.14C293.48,345.93,292.83,348.26,290.77,347.56Z" transform="translate(-0.09 0.02)" style="fill:#6a374f;stroke:#6a374f;stroke-linecap:round;stroke-linejoin:round;stroke-width:28px"/><path d="M125.71,373c-1.17,1.85-2.4,3.67-3.43,5.59-.89,1.67-.86,3.33,1.13,4.26,2.44,1.14,4.89,2.28,7.42,3.19,1.24.45,2.8.63,2.76-1.9-1.55-3.6-3.12-7.51-4.91-11.31C127.79,371,126.61,371.62,125.71,373Z" transform="translate(-0.09 0.02)" style="fill:#6a374f;stroke:#6a374f;stroke-miterlimit:10"/><path d="M106.93,300.49c-5.22-24.56-4.92-48.72,7-71.62,7-13.48,14.71-26.59,21.41-40.21,7.12-14.46,10.33-29.66,5-45.61-1.84-5.44-3.83-10.83-4.56-16.57-.58-4.5-2.69-4.9-6.62-3.3A141.89,141.89,0,0,0,40.71,254.25,133.5,133.5,0,0,0,51.22,308a143.33,143.33,0,0,0,48.4,61.2c3.45,2.52,5.4,2.32,7.46-1.53,2.85-5.36,6-10.6,9.31-15.66a11.72,11.72,0,0,0,1.45-11A375.43,375.43,0,0,1,106.93,300.49Z" transform="translate(-0.09 0.02)" style="fill:#6a374f;stroke:#6a374f;stroke-miterlimit:10"/><path d="M219.86,167.42c2.93,2.8,4.66,3.15,6.87-.71q9.59-16.68,19.62-33.11c2-3.26,1.56-5.13-1.87-6.74a146.9,146.9,0,0,0-40-12.42c-3.88-.61-6,.17-5.21,4.27C200.19,141.33,205.57,153.73,219.86,167.42Z" transform="translate(-0.09 0.02)" style="fill:#6a374f;stroke:#6a374f;stroke-miterlimit:10"/><path d="M321.32,224c-7.5-33.43-25-60.45-51.76-81.71-3.71-2.94-5.48-2.28-7.69,1.58-6.54,11.42-13.11,22.85-20.23,33.91-3.23,5-2.56,8.09,1.51,12.11,21.44,21.2,33.22,47.39,37.52,76.86,3.55,24.38,6.45,48.87,8.39,73.45.12,1.59-.31,3.82,1.58,4.47,2.07.7,2.71-1.63,3.66-2.84,19.92-25.65,30.26-54.67,30.59-87.13A144.87,144.87,0,0,0,321.32,224Z" transform="translate(-0.09 0.02)" style="fill:#6a374f;stroke:#6a374f;stroke-miterlimit:10"/><path d="M235.43,204.79c.09-1.3,2.12-1.3,2,0m32,156.41c-7.15-40.82-8.94-82.45-19.05-122.83,5.93,6.93,7.78,15.38,9.33,23.72,5.68,30.58,8.46,61.52,10.27,92.55a21.61,21.61,0,0,1-.57,6.56Z" transform="translate(-0.09 0.02)" style="fill:#6a374f;stroke:#6a374f;stroke-miterlimit:10"/><path d="M204.45,114.44a146.9,146.9,0,0,1,40,12.42c3.43,1.61,3.86,3.48,1.87,6.74q-10,16.43-19.62,33.11c-2.21,3.86-3.94,3.51-6.87.71-14.29-13.69-19.67-26.09-20.62-48.71C198.4,114.61,200.57,113.83,204.45,114.44ZM116.39,352c-3.35,5.06-6.46,10.3-9.31,15.66-2.06,3.85-4,4-7.46,1.53A143.3,143.3,0,0,1,51.22,308a133.64,133.64,0,0,1-10.51-53.78,141.88,141.88,0,0,1,88.36-131.07c3.93-1.6,6-1.2,6.62,3.3.73,5.74,2.72,11.13,4.56,16.57,5.38,15.95,2.17,31.15-5,45.61-6.7,13.62-14.42,26.73-21.41,40.21-11.88,22.9-12.18,47.06-7,71.62A374.44,374.44,0,0,0,117.75,341,11.73,11.73,0,0,1,116.39,352Zm14.44,34c-2.53-.91-5-2.05-7.42-3.19-2-.93-2-2.59-1.13-4.26,1-1.92,2.26-3.74,3.43-5.59.9-1.41,2.08-2.07,3-.17,1.79,3.8,3.36,7.71,4.91,11.31,0,2.6-1.55,2.42-2.79,2Zm159.81-41.38c-1.89-.65-1.46-2.88-1.58-4.47-1.94-24.58-4.84-49.07-8.39-73.45-4.3-29.47-16.08-55.66-37.52-76.86-4.07-4-4.74-7.11-1.51-12.11,7.12-11.06,13.69-22.49,20.23-33.91,2.21-3.86,4-4.52,7.69-1.58,26.75,21.26,44.26,48.28,51.76,81.71a144.87,144.87,0,0,1,3.57,30.7c-.33,32.46-10.67,61.48-30.59,87.13-.95,1.28-1.59,3.61-3.66,2.91Z" transform="translate(-0.09 0.02)" style="fill:#6a374f;stroke:#6a374f;stroke-miterlimit:10"/><path d="M237.46,204.79c.09-1.3-1.94-1.3-2,0" transform="translate(-0.09 0.02)" style="fill:#6a374f;stroke:#6a374f;stroke-miterlimit:10"/><path d="M214.24,186.42c2.61-4.09,2.24-6.75-1.32-10-10-9-18-19.29-19-33.5-.21-2.91-1.44-4-4.21-1.79-5,4-10.38,3.36-15.71.6a29.29,29.29,0,0,1-13.12-13.68c-7.55-15.69-7.65-32-3.18-48.47,2.16-8,6.93-13.58,16.21-13.17,2.45.1,2.81-1.3,2.56-3.26-.28-2.2-.63-4.42-2-6.19-1.77-2.26-1.8-4.44-.85-7.1,1.41-3.92-.25-6.18-4.41-6.41-3.25-.18-6.33.89-9.48,1.49-4,.77-7.81,2.83-12.2,1.94a55.16,55.16,0,0,1,19.75-8.1c2.63-.49,5.31-.93,5.27-4.27-.06-3.75-3.25-4.08-5.88-4.16a59.56,59.56,0,0,0-30.18,7.36C135.41,38.3,134,39,135,41c4.78-.81,9.17-4.15,15-2.73-2,2.26-4.18,3-6.29,3.82a40.91,40.91,0,0,0-9,4.55c-1.57,1.16-3.12,2.6-1.94,4.63a7,7,0,0,1,.23,7.18,3.21,3.21,0,0,0,.56,3.79c4.8,4.78,4.93,10.85,4.89,17-.09,12.68-.09,25.36-.3,38-.14,8,.62,16.1,3.89,23.34,9.94,22.07,5,42.55-5.6,62.61-4.26,8.07-8.83,16-13.22,24-6,10.85-11.22,22-13.15,34.37-4.06,25.95,4.27,50.16,10.82,74.6.25,1,.73,2.07,1.84,2.2s1.58-1.1,2.08-1.94c3-5.07,73.49-123,73.5-123S208.7,195.1,214.24,186.42Z" transform="translate(-0.09 0.02)" style="fill:#6a374f;stroke:#6a374f;stroke-miterlimit:10"/><path d="M283,392.61c-.53-11.3-1.81-22.57-2.8-33.84-2.91-32.82-6.26-65.62-12.18-98-4.43-24.23-15.22-45.7-33.27-63.08-2.37-2.28-4-2.86-5.79.46-2,3.61-96.07,161.51-97.13,163.15a6.78,6.78,0,0,0-.52,6.69,474.26,474.26,0,0,0,21,47.72c3.74,7.34,9.12,11.86,17.12,13.61,32.18,7.07,63.8,5.84,94.52-6.71C279.54,416.19,283.77,409.45,283,392.61Z" transform="translate(-0.09 0.02)" style="fill:#6a374f;stroke:#6a374f;stroke-miterlimit:10"/><path d="M245.56,219.87a4.34,4.34,0,0,0-1.62,1.26,5.32,5.32,0,0,0-.74.76,4.91,4.91,0,0,0-1.13,3.13,8,8,0,0,0,1.67,4.47,15.51,15.51,0,0,0-1.93-.13,10.7,10.7,0,0,0-7.6,2.79,11.32,11.32,0,0,0-4.08-5.81,15.77,15.77,0,0,0-7-2.81,8.09,8.09,0,0,0,3.08-5.51h.38a7.33,7.33,0,0,0,6.35-3.51,13,13,0,0,0,1.85-5.47h.31a1.37,1.37,0,0,0,.12.44,10.55,10.55,0,0,0,1.08,4.78c2.42,4.55,8.08,5.48,8.69,5.48a5.69,5.69,0,0,0,.82-.08C245.73,219.73,245.64,219.79,245.56,219.87Z" transform="translate(-0.09 0.02)" style="fill:#6a374f;stroke:#6a374f;stroke-miterlimit:10"/><path d="M165.19,80.81c-2.7,6.71-2.62,13.88-3.11,20a52.49,52.49,0,0,0,7.12,27.07c2.7,4.43,6.2,8,11.14,9.93,7.09,2.7,14.92-2.07,14.28-9.33-1.44-16.52-4.47-32.79-10.53-48.32-1.71-4.39-5-7.39-10-7.23S166.8,76.78,165.19,80.81Z" transform="translate(-0.09 0.02)" style="fill:#6a374f;stroke:#6a374f;stroke-miterlimit:10"/><path d="M145.12,210.23c.84-11.44,1.29-22.9.18-34.4-1.64,9.29-5.25,18.39-10,27.4-4.25,8.07-8.83,16-13.22,24-6,10.85-11.21,22-13.15,34.37-4.06,25.95,4.27,50.16,10.82,74.6.26,1,.73,2.07,1.85,2.2s1.58-1.1,2.07-1.94l20-33.54a245.4,245.4,0,0,1-4.18-36.16C138.81,247.74,141.26,228.8,145.12,210.23Z" transform="translate(-0.09 0.02)" style="fill:#6a374f;stroke:#6a374f;stroke-miterlimit:10"/><path d="M165.34,374.36c-6.71-14.44-11.5-29.57-15.57-44.94l-19,31.85a6.81,6.81,0,0,0-.53,6.69,474.26,474.26,0,0,0,21,47.72c3.74,7.34,9.13,11.86,17.12,13.61a175,175,0,0,0,42,4.26A179.84,179.84,0,0,1,165.34,374.36Z" transform="translate(-0.09 0.02)" style="fill:#6a374f;stroke:#6a374f;stroke-miterlimit:10"/><path d="M328.7,192.76c-25.42-54.93-68.78-86.29-128.7-94.63-4.71-.65-6.69-2.62-7.74-7-1.24-5.06-3.1-10-4.8-14.93-3.19-9.29-9.1-17.91-6.88-28.54a4.22,4.22,0,0,0-1-3.3c-3.25-3.15-2.13-6.11-.45-9.57,2.38-4.9.63-8.91-4.29-11.24a18.67,18.67,0,0,0-8.4-1.58,72,72,0,0,0-31.71,7.87A21.73,21.73,0,0,0,129,34c-3.09,3.18-4.56,6.79-1.16,10.77,1.07,1.27.75,2.82,1.09,4.23,1.23,5.09-1.81,10.94,1.45,15.25s3.52,8.55,3.38,13.3c-.22,7.27-.56,14.53-.52,21.8,0,3.62-1.35,5.62-4.75,6.71a136.08,136.08,0,0,0-20,8.55c-73.59,37.44-107,124.92-76,201.72,19.36,48,54.83,79.48,104.4,94.6,5.53,1.69,9.14,4.07,11.49,9.28,4.23,9.37,11.93,14.81,21.55,17.89s19.54,3.78,30.36,3.77c10.39.42,21.48-1.08,32.51-2.62,15-2.08,29.49-6,42.82-13.38,12.87-7.14,18.85-17.88,16.72-32.8-.52-3.66-.14-7.46-.67-11.12-.77-5.36,1.17-9.07,5-12.9C342.54,323,355.83,251.37,328.7,192.76ZM203.51,117.31a146.9,146.9,0,0,1,40,12.42c3.43,1.61,3.86,3.48,1.87,6.74q-10,16.42-19.62,33.11c-2.21,3.86-3.94,3.51-6.86.71-14.3-13.69-19.68-26.09-20.63-48.71C197.46,117.48,199.63,116.7,203.51,117.31Zm14.72,104.51c-.77-.32-1.11-.8-.33-2.28.87-1.66,1.37-4.25,4.26-2.89a1.06,1.06,0,0,0,.25.09C222.1,219.18,220.38,220.73,218.23,221.82ZM182.93,79.28c6.06,15.53,9.08,31.8,10.53,48.32.64,7.26-7.2,12-14.28,9.33-5-1.88-8.44-5.49-11.14-9.93a52.49,52.49,0,0,1-7.12-27.07c.48-6.07.41-13.24,3.1-20,1.62-4,3.94-7.77,8.9-7.93S181.21,74.89,182.93,79.28ZM134.13,59a7,7,0,0,0-.24-7.18c-1.17-2,.38-3.47,2-4.63a41.61,41.61,0,0,1,9-4.56c2.11-.86,4.33-1.55,6.28-3.81-5.81-1.42-10.19,1.92-15,2.73-1.06-2,.39-2.69,1.47-3.27a59.56,59.56,0,0,1,30.18-7.36c2.62.07,5.82.41,5.87,4.16.05,3.34-2.64,3.78-5.26,4.27a55.28,55.28,0,0,0-19.76,8.1c4.39.89,8.19-1.17,12.21-1.94,3.15-.61,6.23-1.67,9.48-1.49,4.16.23,5.82,2.49,4.41,6.41-1,2.66-.92,4.84.84,7.1,1.39,1.77,1.75,4,2,6.19.25,2-.12,3.36-2.57,3.26-9.27-.41-14,5.22-16.2,13.17-4.48,16.44-4.37,32.78,3.18,48.47a29.29,29.29,0,0,0,13.12,13.68c5.33,2.76,10.69,3.35,15.71-.6,2.77-2.18,4-1.12,4.21,1.79,1,14.21,9.06,24.46,19,33.5,3.56,3.22,3.93,5.88,1.32,10-5.54,8.68-10.63,17.65-15.77,26.59a9.56,9.56,0,0,1-8,5.24c-20.49,2-39.7,7-53.69,23.71-.27.32-.81.41-1.62.8,1.34-5,5-8.63,6.17-13.67-16.2,12.62-25.46,43.12-17.32,57.48,1.82-3.08,1.64-6.37,1.63-9.35,0-20,21.3-46.45,42.35-51.26,6.41-1.46,12.68-3.6,19.18-4.75,1.58-.28,3.47-1.66,4.74-.08,1.49,1.85-.42,3.5-1.3,5-12.83,21.77-25.7,43.6-38.75,65.3-6,9.95-11.89,19.94-18.49,29.55-3.23,4.72-5.56,10.33-8.55,15.4-.5.84-.85,2.07-2.08,1.94s-1.59-1.23-1.85-2.2c-6.54-24.44-14.87-48.65-10.81-74.6,1.93-12.35,7.19-23.52,13.15-34.37,4.39-8,9-15.9,13.22-24,10.58-20.06,15.53-40.54,5.59-62.61-3.26-7.24-4-15.29-3.88-23.34.21-12.68.21-25.36.3-38,0-6.15-.09-12.22-4.89-17A3.19,3.19,0,0,1,134.13,59ZM115.45,354.91c-3.35,5.06-6.46,10.3-9.31,15.66-2.06,3.85-4,4.05-7.46,1.53a143.33,143.33,0,0,1-48.4-61.2,133.64,133.64,0,0,1-10.51-53.78,141.88,141.88,0,0,1,88.36-131.07c3.93-1.6,6-1.2,6.62,3.3.73,5.74,2.72,11.13,4.56,16.57,5.38,16,2.17,31.15-5,45.61-6.7,13.62-14.42,26.73-21.41,40.21-11.88,22.9-12.18,47.06-7,71.62a376.75,376.75,0,0,0,10.91,40.56A11.75,11.75,0,0,1,115.45,354.91Zm14.44,34c-2.53-.91-5-2.05-7.42-3.19-2-.93-2-2.59-1.13-4.26,1-1.92,2.26-3.74,3.43-5.59.9-1.41,2.08-2.07,3-.17,1.79,3.8,3.36,7.71,4.91,11.31,0,2.56-1.55,2.38-2.79,1.93Zm135.23,34.18c-30.72,12.55-62.34,13.78-94.52,6.71-8-1.75-13.38-6.27-17.12-13.61a469.77,469.77,0,0,1-21-47.72,6.78,6.78,0,0,1,.52-6.69c2-3.12,3.76-6.41,5.73-9.56.65-1,.9-2.84,2.78-2.35,1.32.35,1.53,1.65,1.9,2.78,4.83,15,11,29.41,16.56,44.07A37,37,0,0,0,165.48,407a11.12,11.12,0,0,0,7.48,4.59c-11.61-13.77-14.11-30.94-21.14-46-2.63-5.65-4.36-11.71-6.83-17.43a7.63,7.63,0,0,1,.66-7.62q32.85-55,65.67-110.06c3.07-5.14,11.66-6.2,16.51-2.24.59.49,1.15,1,1.7,1.55a10,10,0,0,1,1.41,5.5,1,1,0,0,0,2,.27c2.42-6.05,9.72-5.29,14.57-3a1,1,0,0,0,1.37-.37,1,1,0,0,0-.37-1.38c-3.61-2.46-8.23-7.48-2.27-10,1.19-.5.67-2.46-.54-2-5.95,2.5-5,6.78-2,10.32-4.13-.82-8.36-.17-11,3-1.22-5.57-6-8.52-11.46-9.24l-.54-.21a7.78,7.78,0,0,0,3.79-6.3c5.93.59,8.65-4.88,8.69-10.44a1,1,0,0,0-2,0c0,4.53-2.07,9.49-7.39,8.28h-.16c-1.48-1.47-.83-3.1.13-4.7,2.17-3.62,4.44-7.19,6.46-10.89,1.81-3.33,3.42-2.74,5.79-.46,18,17.41,28.77,38.83,33.2,63.11,5.92,32.41,9.27,65.21,12.17,98,1,11.27,2.28,22.54,2.81,33.84.81,16.88-3.44,23.61-19.07,30Zm24.58-75.56c-1.89-.65-1.46-2.88-1.58-4.47-1.93-24.58-4.84-49.07-8.39-73.45-4.3-29.48-16.07-55.66-37.52-76.86-4.07-4-4.74-7.11-1.51-12.11,7.12-11.06,13.69-22.49,20.23-33.91,2.21-3.86,4-4.52,7.69-1.58,26.75,21.26,44.26,48.28,51.76,81.71A145,145,0,0,1,324,257.58c-.33,32.47-10.67,61.49-30.59,87.14-1,1.21-1.64,3.54-3.71,2.84Z" transform="translate(-0.09 0.02)" style="fill:#6a374f"/><path d="M194.88,388c-.79-20.6,0-41.19-2-61.79-.89,10.89-2,21.77-2.61,32.68-.93,17.37-1.08,34.8-2.41,52.13-.51,6.65,5.24,3.12,6.9,5.75a2.13,2.13,0,0,0,2.9.8,1.64,1.64,0,0,0,.22-.14,4.64,4.64,0,0,0,1.63-2.42,16.82,16.82,0,0,0,.4-4q1.07-53.7,2.08-107.4c0-1.69.45-3.54-1.06-6C197.53,328.24,197,358.14,194.88,388Z" transform="translate(-0.09 0.02)" style="fill:#6a374f"/><path d="M258.75,265c-1.55-8.34-3.4-16.79-9.33-23.73,10.11,40.39,11.9,82,19.05,122.84a21.63,21.63,0,0,0,.55-6.56C267.21,326.48,264.43,295.54,258.75,265Z" transform="translate(-0.09 0.02)" style="fill:#6a374f"/><path d="M164,57.71c-5.8-.23-11.35.45-16.14,4.08C153.77,62.83,159.06,61,164,57.71Z" transform="translate(-0.09 0.02)" style="fill:#6a374f"/><path d="M243.62,215.77c-3-.06-5.53-1.38-6.56-4.33a9.72,9.72,0,0,1-.54-3.78c.09-1.3-1.94-1.3-2,0a11.25,11.25,0,0,0,1,5.33c1.5,3.28,4.61,4.74,8.11,4.81a1,1,0,0,0,0-2Z" transform="translate(-0.09 0.02)" style="fill:#6a374f"/></g><g id="Layer_1-2" data-name="Layer 1-2"><path d="M166.64,41.89c-.95,2.66-.92,4.84.84,7.1,1.39,1.77,1.75,4,2,6.19.25,2-.12,3.36-2.57,3.26-9.27-.41-14,5.22-16.2,13.17-4.48,16.44-4.37,32.78,3.17,48.47A29.43,29.43,0,0,0,167,133.76a21.14,21.14,0,0,0,2,.93l-.78-.39a29.41,29.41,0,0,1-13.13-13.68c-7.55-15.69-7.65-32-3.17-48.47,2.16-8,6.92-13.58,16.2-13.17,2.45.1,2.82-1.3,2.57-3.26-.28-2.2-.64-4.42-2-6.19-1.76-2.26-1.79-4.44-.84-7.1,1.14-3.19.26-5.28-2.35-6.07C167.14,37.38,167.59,39.26,166.64,41.89Z" transform="translate(-0.09 0.02)" style="fill:#fff;stroke:#fff;stroke-linecap:round;stroke-linejoin:round;stroke-width:28px"/><path d="M142.29,39.12a54.71,54.71,0,0,1,19.22-7.77c2.62-.49,5.31-.93,5.26-4.27A3.59,3.59,0,0,0,164,23.31a3.59,3.59,0,0,1,1.56,3.23c.05,3.34-2.64,3.78-5.26,4.27a55.28,55.28,0,0,0-19.76,8.1A12.86,12.86,0,0,0,142.29,39.12Z" transform="translate(-0.09 0.02)" style="fill:#fff;stroke:#fff;stroke-linecap:round;stroke-linejoin:round;stroke-width:28px"/><path d="M142.74,30.57l.27-.28c-5.43-1.33-9.62,1.5-14,2.53a3.83,3.83,0,0,0,.29.73C133.61,32.81,137.65,30,142.74,30.57Z" transform="translate(-0.09 0.02)" style="fill:#fff;stroke:#fff;stroke-linecap:round;stroke-linejoin:round;stroke-width:28px"/><path d="M212,162.29c2.93,2.8,4.66,3.15,6.87-.71q9.57-16.68,19.61-33.11c2-3.26,1.57-5.13-1.86-6.74a146.9,146.9,0,0,0-40-12.42c-3.88-.61-6.05.17-5.21,4.27C192.31,136.2,197.7,148.6,212,162.29Z" transform="translate(-0.09 0.02)" style="fill:#fff;stroke:#fff;stroke-linecap:round;stroke-linejoin:round;stroke-width:28px"/><path d="M206,168.45c3.56,3.22,3.93,5.88,1.32,10-5.54,8.68-15.93,26.84-16,27l-2.53,4.24a10.2,10.2,0,0,0,4-4.08c5.13-8.94,10.23-17.91,15.77-26.59,2.61-4.09,2.24-6.75-1.32-10-10-9-18-19.29-19-33.5-.14-1.91-.72-3-1.89-2.94A4.67,4.67,0,0,1,187,135C188,149.16,196,159.41,206,168.45Z" transform="translate(-0.09 0.02)" style="fill:#fff;stroke:#fff;stroke-linecap:round;stroke-linejoin:round;stroke-width:28px"/><path d="M167.15,64.88a9.51,9.51,0,0,1,5.36,1.32A9.51,9.51,0,0,0,166,64.05c-5,.16-7.27,3.9-8.89,7.93-2.69,6.71-2.62,13.88-3.1,20a52.5,52.5,0,0,0,7.09,27,24.89,24.89,0,0,0,7.23,7.88,25.88,25.88,0,0,1-6.06-7,52.49,52.49,0,0,1-7.12-27.07c.48-6.07.41-13.24,3.1-20C159.87,68.78,162.19,65,167.15,64.88Z" transform="translate(-0.09 0.02)" style="fill:#fff;stroke:#fff;stroke-linecap:round;stroke-linejoin:round;stroke-width:28px"/><path d="M186.27,213.8c-16.16,27-66,110.38-68.48,114.62-.46.8-.82,1.94-1.91,1.93a1.64,1.64,0,0,0,1.05.55c1.22.13,1.58-1.1,2.07-1.94,3-5.07,5.33-10.68,8.56-15.4C134.16,304,140.05,294,146,284q19.62-32.56,38.84-65.35C185.73,217.21,187.56,215.6,186.27,213.8Z" transform="translate(-0.09 0.02)" style="fill:#fff;stroke:#fff;stroke-linecap:round;stroke-linejoin:round;stroke-width:28px"/><path d="M99.06,295.36c-5.23-24.56-4.92-48.72,7-71.62,7-13.48,14.71-26.59,21.41-40.21,7.12-14.46,10.33-29.66,4.94-45.61-1.83-5.44-3.83-10.83-4.56-16.57-.57-4.5-2.68-4.9-6.62-3.3A141.88,141.88,0,0,0,32.84,249.12,133.3,133.3,0,0,0,43.35,302.9a143.33,143.33,0,0,0,48.4,61.2c3.45,2.52,5.4,2.32,7.45-1.53,2.86-5.36,6-10.6,9.32-15.66a11.69,11.69,0,0,0,1.44-11A378.23,378.23,0,0,1,99.06,295.36Z" transform="translate(-0.09 0.02)" style="fill:#fff;stroke:#fff;stroke-linecap:round;stroke-linejoin:round;stroke-width:28px"/><path d="M313.45,218.89c-7.5-33.43-25-60.45-51.77-81.71-3.7-2.94-5.48-2.28-7.69,1.58-6.53,11.42-13.1,22.85-20.23,33.91-3.22,5-2.56,8.09,1.51,12.11,21.45,21.2,33.23,47.38,37.52,76.86,3.55,24.38,6.46,48.87,8.39,73.45.13,1.59-.31,3.82,1.59,4.47,2.06.7,2.71-1.63,3.65-2.84,19.93-25.65,30.26-54.67,30.6-87.14A144.7,144.7,0,0,0,313.45,218.89Z" transform="translate(-0.09 0.02)" style="fill:#fff;stroke:#fff;stroke-linecap:round;stroke-linejoin:round;stroke-width:28px"/><path d="M117.84,367.9c-1.17,1.85-2.4,3.67-3.43,5.59-.9,1.67-.86,3.33,1.13,4.26,2.44,1.14,4.89,2.28,7.42,3.19,1.24.45,2.8.63,2.75-1.9-1.54-3.6-3.11-7.51-4.9-11.31C119.91,365.83,118.74,366.49,117.84,367.9Z" transform="translate(-0.09 0.02)" style="fill:#fff;stroke:#fff;stroke-linecap:round;stroke-linejoin:round;stroke-width:28px"/><path d="M274.45,351.31c-2.9-32.82-6.26-65.62-12.17-98C257.85,229,247.05,207.58,229,190.2a6.23,6.23,0,0,0-2.76-1.84,11.44,11.44,0,0,1,1.56,1.3c18,17.38,28.84,38.85,33.27,63.08,5.92,32.41,9.27,65.21,12.17,98,1,11.27,2.28,22.54,2.81,33.84.79,16.84-3.44,23.58-19.07,30a147.94,147.94,0,0,1-58.1,11,177.35,177.35,0,0,1-36.81-4.16c.52.15,1.05.28,1.59.4,32.18,7.07,63.81,5.84,94.53-6.71,15.63-6.39,19.85-13.13,19.06-30C276.72,373.85,275.45,362.58,274.45,351.31Z" transform="translate(-0.09 0.02)" style="fill:#fff;stroke:#fff;stroke-linecap:round;stroke-linejoin:round;stroke-width:28px"/><path d="M321.77,184.76C296.34,129.83,253,98.47,193.09,90.13c-4.7-.65-6.68-2.62-7.74-7-1.23-5.06-3.09-10-4.79-14.93-3.19-9.29-9.1-17.91-6.88-28.54a4.22,4.22,0,0,0-1-3.3c-3.25-3.15-2.14-6.11-.45-9.57,2.38-4.9.63-8.91-4.3-11.24A18.77,18.77,0,0,0,159.5,14a71.94,71.94,0,0,0-31.7,7.87A21.65,21.65,0,0,0,122.11,26c-3.11,3.2-4.56,6.81-1.11,10.79,1.07,1.26.75,2.82,1.09,4.23,1.22,5.09-1.81,10.94,1.44,15.25s3.52,8.55,3.38,13.3c-.21,7.27-.55,14.53-.51,21.8,0,3.62-1.35,5.62-4.76,6.71a136.08,136.08,0,0,0-20,8.55c-73.59,37.44-107,124.92-76,201.72C45,356.35,80.47,387.83,130,403c5.52,1.69,9.14,4.07,11.49,9.28,4.23,9.37,11.93,14.81,21.55,17.89s19.53,3.78,30.36,3.77c10.39.42,21.48-1.08,32.51-2.62,15-2.08,29.49-6,42.82-13.38,12.87-7.14,18.85-17.88,16.72-32.8-.53-3.66-.14-7.46-.67-11.12-.78-5.36,1.17-9.07,5-12.9C335.61,315,348.89,243.37,321.77,184.76ZM196.58,109.31a146.9,146.9,0,0,1,40,12.42c3.43,1.61,3.85,3.48,1.86,6.74q-10,16.42-19.61,33.11c-2.21,3.86-3.94,3.51-6.87.71-14.29-13.69-19.68-26.09-20.62-48.71C190.53,109.48,192.7,108.7,196.58,109.31Zm-8.41,26.18c1,14.21,9.06,24.46,19,33.5,3.56,3.22,3.93,5.88,1.32,10-5.54,8.68-10.64,17.65-15.77,26.59a10.2,10.2,0,0,1-4,4.08l2.53-4.23c.08-.14,10.47-18.3,16-27,2.61-4.09,2.24-6.75-1.32-10-10-9-18-19.29-19-33.5a4.61,4.61,0,0,0-.68-2.4c1.2-.06,1.75,1.05,1.92,3Zm-25.9-15.66a25.88,25.88,0,0,0,6.06,7A25.06,25.06,0,0,1,161.1,119,52.47,52.47,0,0,1,154,91.93c.48-6.07.41-13.24,3.1-20,1.62-4,3.93-7.77,8.89-7.93a9.45,9.45,0,0,1,6.53,2.15,9.51,9.51,0,0,0-5.36-1.32c-5,.16-7.28,3.9-8.9,7.93-2.69,6.71-2.62,13.88-3.1,20a52.48,52.48,0,0,0,7.11,27.07Zm5.58-77.4c-.95,2.66-.92,4.84.84,7.1,1.39,1.77,1.75,4,2,6.19.25,2-.12,3.36-2.57,3.26-9.28-.41-14,5.22-16.2,13.17-4.48,16.44-4.38,32.78,3.17,48.47a29.41,29.41,0,0,0,13.13,13.68l.78.39c-.66-.27-1.33-.58-2-.93a29.41,29.41,0,0,1-13.13-13.68c-7.54-15.69-7.65-32-3.17-48.47,2.16-8,6.93-13.58,16.2-13.17,2.45.1,2.82-1.3,2.57-3.26-.28-2.2-.64-4.42-2-6.19-1.76-2.26-1.79-4.44-.84-7.1s.5-4.51-1.14-5.53c2.62.79,3.51,2.88,2.36,6.07ZM160.3,30.81c2.62-.49,5.31-.93,5.26-4.27A3.59,3.59,0,0,0,164,23.31a3.59,3.59,0,0,1,2.77,3.77c0,3.34-2.64,3.78-5.26,4.27a54.71,54.71,0,0,0-19.22,7.77,12.86,12.86,0,0,1-1.75-.21A55.28,55.28,0,0,1,160.3,30.81ZM143,30.29l-.27.28c-5.09-.6-9.13,2.24-13.49,3a3.83,3.83,0,0,1-.29-.73C133.39,31.79,137.58,29,143,30.29ZM108.52,346.91c-3.35,5.06-6.46,10.3-9.32,15.66-2,3.85-4,4.05-7.45,1.53a143.33,143.33,0,0,1-48.4-61.2,133.3,133.3,0,0,1-10.51-53.78,141.87,141.87,0,0,1,88.35-131.07c3.94-1.6,6-1.2,6.62,3.3.73,5.74,2.73,11.13,4.56,16.57,5.39,16,2.18,31.15-4.94,45.61-6.7,13.62-14.42,26.73-21.41,40.21-11.88,22.9-12.19,47.06-7,71.62a377.08,377.08,0,0,0,11,40.56A11.71,11.71,0,0,1,108.52,346.91Zm14.44,34c-2.53-.91-5-2.05-7.42-3.19-2-.93-2-2.59-1.13-4.26,1-1.92,2.26-3.74,3.43-5.59.9-1.41,2.07-2.07,3-.17,1.79,3.8,3.36,7.71,4.9,11.31,0,2.56-1.54,2.38-2.74,1.93ZM146,284c-6,9.95-11.88,19.94-18.48,29.55-3.23,4.72-5.56,10.33-8.56,15.4-.49.84-.85,2.07-2.07,1.94a1.64,1.64,0,0,1-1-.55c1.09,0,1.45-1.13,1.91-1.93,2.51-4.24,52.32-87.57,68.48-114.62,1.29,1.8-.54,3.41-1.39,4.86C172,240.47,159.12,262.3,146,284ZM258.19,415.12c-30.72,12.55-62.35,13.78-94.53,6.71-.54-.12-1.07-.25-1.59-.4a177.35,177.35,0,0,0,36.81,4.16,147.94,147.94,0,0,0,58.1-11c15.63-6.39,19.86-13.13,19.07-30-.53-11.3-1.81-22.57-2.81-33.84-2.9-32.82-6.25-65.62-12.17-98-4.43-24.23-15.22-45.7-33.27-63.08a11.44,11.44,0,0,0-1.56-1.3A6.21,6.21,0,0,1,229,190.2c18.05,17.38,28.85,38.84,33.28,63.08,5.91,32.41,9.27,65.21,12.17,98,1,11.27,2.27,22.54,2.8,33.84C278,402,273.82,408.73,258.19,415.12Zm24.58-75.56c-1.9-.65-1.46-2.88-1.59-4.47-1.93-24.58-4.84-49.07-8.39-73.45-4.29-29.48-16.07-55.66-37.52-76.86-4.07-4-4.73-7.11-1.51-12.11,7.13-11.06,13.7-22.49,20.23-33.91,2.21-3.86,4-4.52,7.69-1.58,26.76,21.26,44.27,48.28,51.77,81.71A145.33,145.33,0,0,1,317,249.58c-.34,32.47-10.67,61.49-30.6,87.14C285.48,337.93,284.83,340.26,282.77,339.56Z" transform="translate(-0.09 0.02)" style="fill:#fff;stroke:#fff;stroke-linecap:round;stroke-linejoin:round;stroke-width:28px"/><path d="M117.71,365c-1.17,1.85-2.4,3.67-3.43,5.59-.89,1.67-.86,3.33,1.13,4.26,2.44,1.14,4.89,2.28,7.42,3.19,1.24.45,2.8.63,2.76-1.9-1.55-3.6-3.12-7.51-4.91-11.31C119.79,363,118.61,363.62,117.71,365Z" transform="translate(-0.09 0.02)" style="fill:#fcea81;stroke:#fcea81;stroke-miterlimit:10"/><path d="M98.93,292.49c-5.22-24.56-4.92-48.72,7-71.62,7-13.48,14.71-26.59,21.41-40.21,7.12-14.46,10.33-29.66,5-45.61-1.84-5.44-3.83-10.83-4.56-16.57-.58-4.5-2.69-4.9-6.62-3.3A141.89,141.89,0,0,0,32.71,246.25,133.5,133.5,0,0,0,43.22,300a143.33,143.33,0,0,0,48.4,61.2c3.45,2.52,5.4,2.32,7.46-1.53,2.85-5.36,6-10.6,9.31-15.66a11.72,11.72,0,0,0,1.45-11A375.43,375.43,0,0,1,98.93,292.49Z" transform="translate(-0.09 0.02)" style="fill:#fcea81;stroke:#fcea81;stroke-miterlimit:10"/><path d="M211.86,159.42c2.93,2.8,4.66,3.15,6.87-.71q9.59-16.68,19.62-33.11c2-3.26,1.56-5.13-1.87-6.74a146.9,146.9,0,0,0-40-12.42c-3.88-.61-6,.17-5.21,4.27C192.19,133.33,197.57,145.73,211.86,159.42Z" transform="translate(-0.09 0.02)" style="fill:#fcea81;stroke:#fcea81;stroke-miterlimit:10"/><path d="M313.32,216c-7.5-33.43-25-60.45-51.76-81.71-3.71-2.94-5.48-2.28-7.69,1.58-6.54,11.42-13.11,22.85-20.23,33.91-3.23,5-2.56,8.09,1.51,12.11,21.44,21.2,33.22,47.39,37.52,76.86,3.55,24.38,6.45,48.87,8.39,73.45.12,1.59-.31,3.82,1.58,4.47,2.07.7,2.71-1.63,3.66-2.84,19.92-25.65,30.26-54.67,30.59-87.13A144.87,144.87,0,0,0,313.32,216Z" transform="translate(-0.09 0.02)" style="fill:#fcea81;stroke:#fcea81;stroke-miterlimit:10"/><path d="M227.43,196.79c.09-1.3,2.12-1.3,2,0m32,156.41c-7.15-40.82-8.94-82.45-19.05-122.83,5.93,6.93,7.78,15.38,9.33,23.72,5.68,30.58,8.46,61.52,10.27,92.55a21.61,21.61,0,0,1-.57,6.56Z" transform="translate(-0.09 0.02)" style="fill:#fcea81;stroke:#fcea81;stroke-miterlimit:10"/><path d="M196.45,106.44a146.9,146.9,0,0,1,40,12.42c3.43,1.61,3.86,3.48,1.87,6.74q-10,16.43-19.62,33.11c-2.21,3.86-3.94,3.51-6.87.71-14.29-13.69-19.67-26.09-20.62-48.71C190.4,106.61,192.57,105.83,196.45,106.44ZM108.39,344c-3.35,5.06-6.46,10.3-9.31,15.66-2.06,3.85-4,4-7.46,1.53A143.3,143.3,0,0,1,43.22,300a133.64,133.64,0,0,1-10.51-53.78,141.88,141.88,0,0,1,88.36-131.07c3.93-1.6,6-1.2,6.62,3.3.73,5.74,2.72,11.13,4.56,16.57,5.38,15.95,2.17,31.15-5,45.61-6.7,13.62-14.42,26.73-21.41,40.21-11.88,22.9-12.18,47.06-7,71.62A374.44,374.44,0,0,0,109.75,333,11.73,11.73,0,0,1,108.39,344Zm14.44,34c-2.53-.91-5-2.05-7.42-3.19-2-.93-2-2.59-1.13-4.26,1-1.92,2.26-3.74,3.43-5.59.9-1.41,2.08-2.07,3-.17,1.79,3.8,3.36,7.71,4.91,11.31,0,2.6-1.55,2.42-2.79,2Zm159.81-41.38c-1.89-.65-1.46-2.88-1.58-4.47-1.94-24.58-4.84-49.07-8.39-73.45-4.3-29.47-16.08-55.66-37.52-76.86-4.07-4-4.74-7.11-1.51-12.11,7.12-11.06,13.69-22.49,20.23-33.91,2.21-3.86,4-4.52,7.69-1.58,26.75,21.26,44.26,48.28,51.76,81.71a144.87,144.87,0,0,1,3.57,30.7c-.33,32.46-10.67,61.48-30.59,87.13-.95,1.28-1.59,3.61-3.66,2.91Z" transform="translate(-0.09 0.02)" style="fill:#fee9a9;stroke:#fee9a9;stroke-miterlimit:10"/><path d="M229.46,196.79c.09-1.3-1.94-1.3-2,0" transform="translate(-0.09 0.02)" style="fill:#fcea81;stroke:#fcea81;stroke-miterlimit:10"/><path d="M206.24,178.42c2.61-4.09,2.24-6.75-1.32-10-10-9-18-19.29-19-33.5-.21-2.91-1.44-4-4.21-1.79-5,4-10.38,3.36-15.71.6a29.29,29.29,0,0,1-13.12-13.68c-7.55-15.69-7.65-32-3.18-48.47,2.16-8,6.93-13.58,16.21-13.17,2.45.1,2.81-1.3,2.56-3.26-.28-2.2-.63-4.42-2-6.19-1.77-2.26-1.8-4.44-.85-7.1,1.41-3.92-.25-6.18-4.41-6.41-3.25-.18-6.33.89-9.48,1.49-4,.77-7.81,2.83-12.2,1.94a55.16,55.16,0,0,1,19.75-8.1c2.63-.49,5.31-.93,5.27-4.27-.06-3.75-3.25-4.08-5.88-4.16a59.56,59.56,0,0,0-30.18,7.36C127.41,30.3,126,31,127,33c4.78-.81,9.17-4.15,15-2.73-2,2.26-4.18,3-6.29,3.82a40.91,40.91,0,0,0-9,4.55c-1.57,1.16-3.12,2.6-1.94,4.63a7,7,0,0,1,.23,7.18,3.21,3.21,0,0,0,.56,3.79c4.8,4.78,4.93,10.85,4.89,17-.09,12.68-.09,25.36-.3,38-.14,8,.62,16.1,3.89,23.34,9.94,22.07,5,42.55-5.6,62.61-4.26,8.07-8.83,16-13.22,24-6,10.85-11.22,22-13.15,34.37-4.06,26,4.27,50.16,10.82,74.6.25,1,.73,2.07,1.84,2.2s1.58-1.1,2.08-1.94c3-5.07,73.49-123,73.5-123S200.7,187.1,206.24,178.42Z" transform="translate(-0.09 0.02)" style="fill:#9ecc6d;stroke:#9ecc6d;stroke-miterlimit:10"/><path d="M275,384.61c-.53-11.3-1.81-22.57-2.8-33.84-2.91-32.82-6.26-65.62-12.18-98-4.43-24.23-15.22-45.7-33.27-63.08-2.37-2.28-4-2.86-5.79.46-2,3.61-96.07,161.51-97.13,163.15a6.78,6.78,0,0,0-.52,6.69,474.26,474.26,0,0,0,21,47.72c3.74,7.34,9.12,11.86,17.12,13.61,32.18,7.07,63.8,5.84,94.52-6.71C271.54,408.19,275.77,401.45,275,384.61Z" transform="translate(-0.09 0.02)" style="fill:#9ecc6d;stroke:#9ecc6d;stroke-miterlimit:10"/><path d="M237.56,211.87a4.34,4.34,0,0,0-1.62,1.26,5.32,5.32,0,0,0-.74.76,4.91,4.91,0,0,0-1.13,3.13,8,8,0,0,0,1.67,4.47,15.51,15.51,0,0,0-1.93-.13,10.7,10.7,0,0,0-7.6,2.79,11.32,11.32,0,0,0-4.08-5.81,15.77,15.77,0,0,0-7-2.81,8.09,8.09,0,0,0,3.08-5.51h.38a7.33,7.33,0,0,0,6.35-3.51,13,13,0,0,0,1.85-5.47h.31a1.37,1.37,0,0,0,.12.44,10.55,10.55,0,0,0,1.08,4.78c2.42,4.55,8.08,5.48,8.69,5.48a5.69,5.69,0,0,0,.82-.08C237.73,211.73,237.64,211.79,237.56,211.87Z" transform="translate(-0.09 0.02)" style="fill:#e7fccd;stroke:#e7fccd;stroke-miterlimit:10"/><path d="M157.19,72.81c-2.7,6.71-2.62,13.88-3.11,20a52.49,52.49,0,0,0,7.12,27.07c2.7,4.43,6.2,8,11.14,9.93,7.09,2.7,14.92-2.07,14.28-9.33-1.44-16.52-4.47-32.79-10.53-48.32-1.71-4.39-5-7.39-10-7.23S158.8,68.78,157.19,72.81Z" transform="translate(-0.09 0.02)" style="fill:#ace3fc;stroke:#ace3fc;stroke-miterlimit:10"/><path d="M137.12,202.23c.84-11.44,1.29-22.9.18-34.4-1.64,9.29-5.25,18.39-10,27.4-4.25,8.07-8.83,16-13.22,24-6,10.85-11.21,22-13.15,34.37-4.06,26,4.27,50.16,10.82,74.6.26,1,.73,2.07,1.85,2.2s1.58-1.1,2.07-1.94l20-33.54a245.4,245.4,0,0,1-4.18-36.16C130.81,239.74,133.26,220.8,137.12,202.23Z" transform="translate(-0.09 0.02)" style="fill:#79aa41;stroke:#79aa41;stroke-miterlimit:10"/><path d="M157.34,366.36c-6.71-14.44-11.5-29.57-15.57-44.94l-19,31.85a6.81,6.81,0,0,0-.53,6.69,474.26,474.26,0,0,0,21,47.72c3.74,7.34,9.13,11.86,17.12,13.61a175,175,0,0,0,42,4.26A179.84,179.84,0,0,1,157.34,366.36Z" transform="translate(-0.09 0.02)" style="fill:#79aa41;stroke:#79aa41;stroke-miterlimit:10"/><path d="M320.7,184.76C295.28,129.83,251.92,98.47,192,90.13c-4.71-.65-6.69-2.62-7.74-7-1.24-5.06-3.1-10-4.8-14.93-3.19-9.29-9.1-17.91-6.88-28.54a4.22,4.22,0,0,0-1-3.3c-3.25-3.15-2.13-6.11-.45-9.57,2.38-4.9.63-8.91-4.29-11.24a18.67,18.67,0,0,0-8.4-1.58,72,72,0,0,0-31.71,7.87A21.73,21.73,0,0,0,121,26c-3.09,3.18-4.56,6.79-1.16,10.77,1.07,1.27.75,2.82,1.09,4.23,1.23,5.09-1.81,10.94,1.45,15.25s3.52,8.55,3.38,13.3c-.22,7.27-.56,14.53-.52,21.8,0,3.62-1.35,5.62-4.75,6.71a136.08,136.08,0,0,0-20,8.55c-73.59,37.44-107,124.92-76,201.72,19.36,48,54.83,79.48,104.4,94.6,5.53,1.69,9.14,4.07,11.49,9.28,4.23,9.37,11.93,14.81,21.55,17.89s19.54,3.78,30.36,3.77c10.39.42,21.48-1.08,32.51-2.62,15-2.08,29.49-6,42.82-13.38,12.87-7.14,18.85-17.88,16.72-32.8-.52-3.66-.14-7.46-.67-11.12-.77-5.36,1.17-9.07,5-12.9C334.54,315,347.83,243.37,320.7,184.76ZM195.51,109.31a146.9,146.9,0,0,1,40,12.42c3.43,1.61,3.86,3.48,1.87,6.74q-10,16.42-19.62,33.11c-2.21,3.86-3.94,3.51-6.86.71-14.3-13.69-19.68-26.09-20.63-48.71C189.46,109.48,191.63,108.7,195.51,109.31Zm14.72,104.51c-.77-.32-1.11-.8-.33-2.28.87-1.66,1.37-4.25,4.26-2.89a1.06,1.06,0,0,0,.25.09C214.1,211.18,212.38,212.73,210.23,213.82ZM174.93,71.28c6.06,15.53,9.08,31.8,10.53,48.32.64,7.26-7.2,12-14.28,9.33-5-1.88-8.44-5.49-11.14-9.93a52.49,52.49,0,0,1-7.12-27.07c.48-6.07.41-13.24,3.1-20,1.62-4,3.94-7.77,8.9-7.93S173.21,66.89,174.93,71.28ZM126.13,51a7,7,0,0,0-.24-7.18c-1.17-2,.38-3.47,2-4.63a41.61,41.61,0,0,1,9-4.56c2.11-.86,4.33-1.55,6.28-3.81-5.81-1.42-10.19,1.92-15,2.73-1.06-2,.39-2.69,1.47-3.27a59.56,59.56,0,0,1,30.18-7.36c2.62.07,5.82.41,5.87,4.16.05,3.34-2.64,3.78-5.26,4.27a55.28,55.28,0,0,0-19.76,8.1c4.39.89,8.19-1.17,12.21-1.94,3.15-.61,6.23-1.67,9.48-1.49,4.16.23,5.82,2.49,4.41,6.41-1,2.66-.92,4.84.84,7.1,1.39,1.77,1.75,4,2,6.19.25,2-.12,3.36-2.57,3.26-9.27-.41-14,5.22-16.2,13.17-4.48,16.44-4.37,32.78,3.18,48.47a29.29,29.29,0,0,0,13.12,13.68c5.33,2.76,10.69,3.35,15.71-.6,2.77-2.18,4-1.12,4.21,1.79,1,14.21,9.06,24.46,19,33.5,3.56,3.22,3.93,5.88,1.32,10-5.54,8.68-10.63,17.65-15.77,26.59a9.56,9.56,0,0,1-8,5.24c-20.49,2-39.7,7-53.69,23.71-.27.32-.81.41-1.62.8,1.34-5,5-8.63,6.17-13.67-16.2,12.62-25.46,43.12-17.32,57.48,1.82-3.08,1.64-6.37,1.63-9.35,0-20,21.3-46.45,42.35-51.26,6.41-1.46,12.68-3.6,19.18-4.75,1.58-.28,3.47-1.66,4.74-.08,1.49,1.85-.42,3.5-1.3,5-12.83,21.77-25.7,43.6-38.75,65.3-6,9.95-11.89,19.94-18.49,29.55-3.23,4.72-5.56,10.33-8.55,15.4-.5.84-.85,2.07-2.08,1.94s-1.59-1.23-1.85-2.2c-6.54-24.44-14.87-48.65-10.81-74.6,1.93-12.35,7.19-23.52,13.15-34.37,4.39-8,9-15.9,13.22-24,10.58-20.06,15.53-40.54,5.59-62.61-3.26-7.24-4-15.29-3.88-23.34.21-12.68.21-25.36.3-38,0-6.15-.09-12.22-4.89-17A3.19,3.19,0,0,1,126.13,51ZM107.45,346.91c-3.35,5.06-6.46,10.3-9.31,15.66-2.06,3.85-4,4.05-7.46,1.53a143.33,143.33,0,0,1-48.4-61.2,133.64,133.64,0,0,1-10.51-53.78,141.88,141.88,0,0,1,88.36-131.07c3.93-1.6,6-1.2,6.62,3.3.73,5.74,2.72,11.13,4.56,16.57,5.38,16,2.17,31.15-5,45.61-6.7,13.62-14.42,26.73-21.41,40.21-11.88,22.9-12.18,47.06-7,71.62a376.75,376.75,0,0,0,10.91,40.56A11.75,11.75,0,0,1,107.45,346.91Zm14.44,34c-2.53-.91-5-2.05-7.42-3.19-2-.93-2-2.59-1.13-4.26,1-1.92,2.26-3.74,3.43-5.59.9-1.41,2.08-2.07,3-.17,1.79,3.8,3.36,7.71,4.91,11.31,0,2.56-1.55,2.38-2.79,1.93Zm135.23,34.18c-30.72,12.55-62.34,13.78-94.52,6.71-8-1.75-13.38-6.27-17.12-13.61a469.77,469.77,0,0,1-21-47.72,6.78,6.78,0,0,1,.52-6.69c2-3.12,3.76-6.41,5.73-9.56.65-1,.9-2.84,2.78-2.35,1.32.35,1.53,1.65,1.9,2.78,4.83,15,11,29.41,16.56,44.07A37,37,0,0,0,157.48,399a11.12,11.12,0,0,0,7.48,4.59c-11.61-13.77-14.11-30.94-21.14-46-2.63-5.65-4.36-11.71-6.83-17.43a7.63,7.63,0,0,1,.66-7.62q32.85-55,65.67-110.06c3.07-5.14,11.66-6.2,16.51-2.24.59.49,1.15,1,1.7,1.55a10,10,0,0,1,1.41,5.5,1,1,0,0,0,2,.27c2.42-6.05,9.72-5.29,14.57-3a1,1,0,0,0,1.37-.37,1,1,0,0,0-.37-1.38c-3.61-2.46-8.23-7.48-2.27-10,1.19-.5.67-2.46-.54-2-5.95,2.5-5,6.78-2,10.32-4.13-.82-8.36-.17-11,3-1.22-5.57-6-8.52-11.46-9.24l-.54-.21a7.78,7.78,0,0,0,3.79-6.3c5.93.59,8.65-4.88,8.69-10.44a1,1,0,0,0-2,0c0,4.53-2.07,9.49-7.39,8.28h-.16c-1.48-1.47-.83-3.1.13-4.7,2.17-3.62,4.44-7.19,6.46-10.89,1.81-3.33,3.42-2.74,5.79-.46,18,17.41,28.77,38.83,33.2,63.11,5.92,32.41,9.27,65.21,12.17,98,1,11.27,2.28,22.54,2.81,33.84.81,16.88-3.44,23.61-19.07,30Zm24.58-75.56c-1.89-.65-1.46-2.88-1.58-4.47-1.93-24.58-4.84-49.07-8.39-73.45-4.3-29.48-16.07-55.66-37.52-76.86-4.07-4-4.74-7.11-1.51-12.11,7.12-11.06,13.69-22.49,20.23-33.91,2.21-3.86,4-4.52,7.69-1.58,26.75,21.26,44.26,48.28,51.76,81.71A145,145,0,0,1,316,249.58c-.33,32.47-10.67,61.49-30.59,87.14-1,1.21-1.64,3.54-3.71,2.84Z" transform="translate(-0.09 0.02)" style="fill:#474747"/><path d="M186.88,380c-.79-20.6,0-41.19-2-61.79-.89,10.89-2,21.77-2.61,32.68-.93,17.37-1.08,34.8-2.41,52.13-.51,6.65,5.24,3.12,6.9,5.75a2.13,2.13,0,0,0,2.9.8,1.64,1.64,0,0,0,.22-.14,4.64,4.64,0,0,0,1.63-2.42,16.82,16.82,0,0,0,.4-4q1.07-53.7,2.08-107.4c0-1.69.45-3.54-1.06-6C189.53,320.24,189,350.14,186.88,380Z" transform="translate(-0.09 0.02)" style="fill:#474747"/><path d="M250.75,257c-1.55-8.34-3.4-16.79-9.33-23.73,10.11,40.39,11.9,82,19.05,122.84a21.63,21.63,0,0,0,.55-6.56C259.21,318.48,256.43,287.54,250.75,257Z" transform="translate(-0.09 0.02)" style="fill:#474747"/><path d="M156,49.71c-5.8-.23-11.35.45-16.14,4.08C145.77,54.83,151.06,53,156,49.71Z" transform="translate(-0.09 0.02)" style="fill:#474747"/><path d="M235.62,207.77c-3-.06-5.53-1.38-6.56-4.33a9.72,9.72,0,0,1-.54-3.78c.09-1.3-1.94-1.3-2,0a11.25,11.25,0,0,0,1,5.33c1.5,3.28,4.61,4.74,8.11,4.81a1,1,0,0,0,0-2Z" transform="translate(-0.09 0.02)" style="fill:#474747"/></g></g></svg>