<svg id="Layer_1" data-name="Layer 1" xmlns="http://www.w3.org/2000/svg" viewBox="0 0 489 394"><title>brush</title><g id="Layer_2" data-name="Layer 2"><g style="opacity:0.12"><path d="M39,306.5h0c-.27.13-1,6.73-1.17,7.19a29,29,0,0,1-4.4,9.22A28.69,28.69,0,0,1,27.27,329c-.69.51-6.68,4.35-7.24,4.35h0c1.41,1.65,14.31,2.65,17.59,18.8.12.59,1.5,7.77,1.57,7.77h0c.31-.09.91-5.29.92-6.05.4-16.72,18.25-20,18.16-20.89-5.47-3-10.43-5.32-14.33-11.35a28.69,28.69,0,0,1-3.79-9C40,312,39.25,306.5,39,306.5Z" transform="translate(-0.03)" style="fill:#6a374f;stroke:#6a374f;stroke-linecap:round;stroke-linejoin:round;stroke-width:26px"/><path d="M39,306h0c-.27.14-1,6.73-1.17,7.19a28.61,28.61,0,0,1-4.4,9.22,28.37,28.37,0,0,1-6.11,6.12c-.69.52-6.68,4.36-7.24,4.36h0c1.44,1.63,14.34,2.66,17.62,18.77.12.59,1.5,7.77,1.57,7.77h0c.31-.09.91-5.29.92-6.05.4-16.72,18.25-20,18.16-20.88-5.47-3-10.43-5.32-14.33-11.36a28.59,28.59,0,0,1-3.79-9C40,311.54,39.25,306,39,306Z" transform="translate(-0.03)" style="fill:#6a374f"/><path d="M43.24,307.91h0M39.1,322.39c.32.58.66,1.14,1,1.7a29,29,0,0,0,8.45,8.53,26.94,26.94,0,0,0-9.84,9.48,25,25,0,0,0-9.09-9.18l.34-.24A30.89,30.89,0,0,0,39,322.39m0-15.89h0c-.27.13-1,6.73-1.17,7.19a29,29,0,0,1-4.4,9.22A28.69,28.69,0,0,1,27.27,329c-.69.51-6.68,4.35-7.24,4.35h0c1.41,1.65,14.31,2.65,17.59,18.8.12.59,1.5,7.77,1.57,7.77h0c.31-.09.91-5.29.92-6.05.4-16.72,18.25-20,18.16-20.89-5.47-3-10.43-5.32-14.33-11.35a28.69,28.69,0,0,1-3.79-9C40,312,39.25,306.5,39,306.5Z" transform="translate(-0.03)" style="fill:#6a374f;stroke:#6a374f;stroke-miterlimit:10;stroke-width:0.75px"/><polygon points="370.56 48.88 370.55 48.88 370.56 48.88 370.56 48.88" style="fill:#6a374f;stroke:#6a374f;stroke-linecap:round;stroke-linejoin:round;stroke-width:28px"/><polygon points="128.49 354.73 128.49 354.72 128.49 354.73 128.49 354.73" style="fill:#6a374f;stroke:#6a374f;stroke-linecap:round;stroke-linejoin:round;stroke-width:28px"/><polygon points="127.36 355.69 127.37 355.69 127.36 355.69 127.36 355.69" style="fill:#6a374f;stroke:#6a374f;stroke-linecap:round;stroke-linejoin:round;stroke-width:28px"/><polygon points="69.02 365.65 69.02 365.66 69.02 365.65 69.02 365.65" style="fill:#6a374f;stroke:#6a374f;stroke-linecap:round;stroke-linejoin:round;stroke-width:28px"/><polygon points="378.57 55.94 378.57 55.95 378.58 55.96 378.57 55.94" style="fill:#6a374f;stroke:#6a374f;stroke-linecap:round;stroke-linejoin:round;stroke-width:28px"/><polygon points="384.74 62.01 384.74 62.01 384.74 62.01 384.74 62.01" style="fill:#6a374f;stroke:#6a374f;stroke-linecap:round;stroke-linejoin:round;stroke-width:28px"/><polygon points="328.15 177.4 328.15 177.4 328.15 177.4 328.15 177.4" style="fill:#6a374f;stroke:#6a374f;stroke-linecap:round;stroke-linejoin:round;stroke-width:28px"/><polygon points="372 64.2 372 64.2 372 64.2 372 64.2" style="fill:#6a374f;stroke:#6a374f;stroke-linecap:round;stroke-linejoin:round;stroke-width:28px"/><path d="M404.62,110.48v-.06h0v-.06h0c.05-.6.05-1.1.05-1.33h0c0-1.55.06-3.25,0-5.11a28.93,28.93,0,0,0-.78-6h0a62.05,62.05,0,0,0-2.25-7.8h0l-.11-.28h0c-.57-1.43-1.15-2.78-1.69-4.06h0c-.24-.59-.52-1.3-.88-2.1A16.09,16.09,0,0,0,397.5,81a13.91,13.91,0,0,0-2-2.33h-.05l-.06-.06h0l-1.11-1h0l-.2-.19.59-1.45a2.17,2.17,0,0,0-.6-2.46L392.42,72l-5.14-4.39A18.75,18.75,0,0,0,384.77,62a16.73,16.73,0,0,0-5.59-5.09,10,10,0,0,0-.58-1h0l-.48-.7c-.19-.28-.4-.58-.61-.9h0a24.5,24.5,0,0,0-2.75-3.5h0A5.67,5.67,0,0,0,373,49.6h-.12a2.22,2.22,0,0,0-.81-.41,2.8,2.8,0,0,0-.71-.06,15,15,0,0,0-3.74-3.49h0A14.43,14.43,0,0,0,362,43.2h0l-.27-.05h0a62.32,62.32,0,0,0-7-.52c-3.59-.12-7.22-.22-10.89-.21h-.95l-1-1.82a2.15,2.15,0,0,0-2.67-1l-2.85,1.08h-.05a66.74,66.74,0,0,0-13.79,7c-.63.42-1.25.86-1.86,1.31h0c-2.92,2.17-6.07,4.31-9.23,6.66a69.69,69.69,0,0,0-9.24,8c-14.52,15.55-26.25,33-33.38,53.42h0a.29.29,0,0,1,0,.13c-.44.5-1.11,1.33-2,2.47-3.13,4-8.88,11.54-13.86,18.14l-3.4,4.5h0l-9.34,10.86c-8.94,10.42-17.52,21-26.37,31.3-7.51,8.72-15.37,17.25-23.1,26C180.8,221.7,171,233,161,244.17s-19.7,22.75-30.1,33.34c-14.62,14.91-3.71,4-18,19.12-6.71,7.1-13.4,14.21-20.37,21.59h0l-.43.46a89,89,0,0,0-10.31,5.88,48.64,48.64,0,0,0-11.13,10.2A38.38,38.38,0,0,0,66.6,341h0a24.37,24.37,0,0,0-2.3,6.73c-.06.38-.12.77-.17,1.17h0a17.27,17.27,0,0,0-.23,2.87h0a8.83,8.83,0,0,0,1.54,4.71c.17.25.35.46.52.68h0a.44.44,0,0,1,.08.11h0l.17.23a4.57,4.57,0,0,1,.47,1.06h0a10.48,10.48,0,0,1,.37,1.75l.44,3.55a2.2,2.2,0,0,0,1.6,1.82,12,12,0,0,0,1.77,2h0a85.71,85.71,0,0,0,10.68,8.9h0a18,18,0,0,0,5,2.26c.72.2,1.44.37,2.16.5a21.51,21.51,0,0,0,3,.33h.07a33.43,33.43,0,0,0,4-.25h0a4.82,4.82,0,0,1,.93,0h.17l.21.06h0a5.65,5.65,0,0,0,1.26.36,7.3,7.3,0,0,0,.94.1h.16a9.07,9.07,0,0,0,2.26-.26h.07a9.38,9.38,0,0,0,1.83-.68h0c2.7-1.34,5.54-2.75,8.35-4.47h0c.43-.26.85-.54,1.27-.82a36.88,36.88,0,0,0,8.61-8.3,68.35,68.35,0,0,0,5.92-9.54l.23-.46c.16-.06.32-.12.49-.2.39-.19,35.88-33.9,38.76-36.62s30.27-29.32,40.92-39.82c15.85-15.39,115.25-100,115.25-100s3.17-.8,3.34-.86l.7-.22.74-.29c4.9-2.22,9.9-4.4,14.89-6.75a168.34,168.34,0,0,0,23.27-12.93,106.83,106.83,0,0,0,12.16-9.57,160.84,160.84,0,0,0,11.92-11.87,27,27,0,0,0,3.23-4.7h0c.85-1.51,1.56-2.94,2.23-4.13,2.7-4.76,5.33-9.54,7.94-14.32h0a6.76,6.76,0,0,0,.68-2A3.55,3.55,0,0,0,404.62,110.48ZM128.52,354.65Z" transform="translate(-0.03)" style="fill:#6a374f;stroke:#6a374f;stroke-linecap:round;stroke-linejoin:round;stroke-width:28px"/><line x1="397.46" y1="80.91" x2="397.46" y2="80.91" style="fill:none;stroke:#6a374f;stroke-linecap:round;stroke-linejoin:round;stroke-width:28px"/><polyline points="325.74 52.53 325.74 52.53 325.74 52.53" style="fill:#6a374f;stroke:#6a374f;stroke-linecap:round;stroke-linejoin:round;stroke-width:28px"/><polygon points="65.41 356.5 65.41 356.5 65.41 356.5 65.41 356.5" style="fill:#6a374f;stroke:#6a374f;stroke-linecap:round;stroke-linejoin:round;stroke-width:28px"/><polygon points="113.36 373.77 113.36 373.77 113.36 373.77 113.36 373.77" style="fill:#6a374f;stroke:#6a374f;stroke-linecap:round;stroke-linejoin:round;stroke-width:28px"/><polygon points="74.52 351.83 74.52 351.84 74.52 351.84 74.52 351.83" style="fill:#6a374f;stroke:#6a374f;stroke-linecap:round;stroke-linejoin:round;stroke-width:28px"/><polygon points="64.26 354.13 64.26 354.12 64.26 354.12 64.26 354.13" style="fill:#6a374f;stroke:#6a374f;stroke-linecap:round;stroke-linejoin:round;stroke-width:28px"/><polygon points="418.2 115.18 418.2 115.18 418.11 115.16 418.2 115.18" style="fill:#6a374f"/><path d="M396.78,108.94h0c0-1.69.05-3.28,0-4.78a19.53,19.53,0,0,0-.55-4.38A55.12,55.12,0,0,0,394.3,93h0c-.54-1.36-1.14-2.74-1.75-4.17-.3-.72-.55-1.38-.81-1.94a9.62,9.62,0,0,0-.78-1.45,5,5,0,0,0-.89-1l-.06-.06-.92-.83L387.51,82l.33.14c-.22-.26-.45-.54-.67-.85a7.11,7.11,0,0,1-1.18-3h0a6.36,6.36,0,0,1,0-1.51l-5-4.3-.75-.64v-.19L380,71a12.15,12.15,0,0,0-1.78-4.49,8.57,8.57,0,0,0-3.56-3h0a4.28,4.28,0,0,1-1.11-.78,5.46,5.46,0,0,1-.65-.79c-.27-.41-.45-.76-.59-1h0a4.17,4.17,0,0,0-.26-.46h0l-.58-.83-.61-.9a19.81,19.81,0,0,0-1.34-1.82h-.27a9.55,9.55,0,0,1-1.07,0l-2-.08-.62-1.9a4.17,4.17,0,0,0-.48-.94,7.35,7.35,0,0,0-2-1.93h0a6.47,6.47,0,0,0-2.39-1h-.13a53.51,53.51,0,0,0-6.07-.43c-3.54-.13-7.07-.22-10.57-.21a12.37,12.37,0,0,0-1.72.17c-.65.09-1.39.23-2.22.32a2.84,2.84,0,0,1-.92,0H339a2.49,2.49,0,0,1-.53-.16h0l-.14-.07-.3-.15-2.16-.86A54.69,54.69,0,0,0,327,54.32c-.53.36-1.06.74-1.58,1.13-3.11,2.31-6.25,4.44-9.22,6.65a61.61,61.61,0,0,0-8.2,7.1c-13.34,14.21-24.05,30-30.78,48.13l.32.83a43.58,43.58,0,0,0,5.34,9.17A131.11,131.11,0,0,0,291.59,138c6.5,7.23,13.9,14.38,19.54,19.57,3.76,3.47,6.75,6.07,8.15,7.24.36.31.64.52.71.58,1.85,1.38,4,2.63,6.42,4.15,4.47-2,8.93-4,13.3-6a159.64,159.64,0,0,0,22.19-12.32,98,98,0,0,0,11.25-8.85,154.58,154.58,0,0,0,11.34-11.27,19.4,19.4,0,0,0,2.26-3.34c.72-1.29,1.43-2.71,2.25-4.16q3.94-7,7.77-14v-.66Z" transform="translate(-0.03)" style="fill:#6a374f"/><path d="M389.9,74.14l-6.33-5.42c-.74-3.65-2.52-7.44-6.91-9.53-.69-.32-1-1.41-1.51-2.13a35.83,35.83,0,0,0-3.39-4.55c-.47-.48-1.78-.14-2.72-.18-.86-2.67-4.09-5.37-7.32-5.86a56.86,56.86,0,0,0-6.39-.46c-3.56-.12-7.12-.22-10.69-.21-1.42.1-2.84.27-4.24.51a1.66,1.66,0,0,1-.51-.19c.13-.37.39-.73.33-1a6.38,6.38,0,0,0-.77-1.49,60.91,60.91,0,0,0-15,7.88c-3.34,2.49-6.8,4.82-10.11,7.33a14.84,14.84,0,0,1-.86,4.11c.07.16,5.59,18.94,31.94,15.5,12.66-1.66,21.59,2.77,27.63,12.18,4,6.3,4.05,13,4.23,20.31.45,18.47,3.8,22.61,4.75,23.81h0l1.13,1.06c1.45-1.47,2.86-3,4.22-4.5,2-2.3,3.32-5.27,4.86-8q4-7.09,7.89-14.25a3.75,3.75,0,0,0,.26-1.72c0-3.31.21-6.54-.63-9.91a57.58,57.58,0,0,0-2-7.19c-.57-1.43-1.18-2.84-1.78-4.26-.82-2-1.44-3.84-3.2-5.43S388.65,77.21,389.9,74.14Z" transform="translate(-0.03)" style="fill:#6a374f"/><polygon points="377.62 57.09 377.62 57.09 377.54 57.05 377.62 57.09" style="fill:#6a374f"/><path d="M345.16,84.11c-18.12,18.17-36.85,35.78-52.35,56.62l-1.42-1.11C306.52,118,326,101.21,345.16,84.11Z" transform="translate(-0.03)" style="fill:#6a374f;stroke:#6a374f;stroke-linecap:round;stroke-linejoin:round;stroke-width:0.75px"/><path d="M306.8,96.73c-9.2,10.65-15.91,22.74-22.29,35.23.75.74,1.48,1.49,2.2,2.25l3.74-6.53a30.64,30.64,0,0,0,2.13-3.79c3.62-9,9.58-16.5,15.73-23.82,11.17-13.3,24.18-24.68,37.52-35.71a35.39,35.39,0,0,0,3.4-3.08C342.58,63,317.82,84,306.8,96.73Z" transform="translate(-0.03)" style="fill:#6a374f;stroke:#6a374f;stroke-linecap:round;stroke-linejoin:round"/><path d="M365,91.13C354.59,103,344.23,115,332.31,125.47Q318,138,303.78,150.63l-.06.05a9,9,0,0,1,.89,1.68c9.12-7,28.27-23.39,36-31.32a292.36,292.36,0,0,0,27.5-32.84A16.94,16.94,0,0,0,365,91.13Z" transform="translate(-0.03)" style="fill:#6a374f;stroke:#6a374f;stroke-miterlimit:10;stroke-width:3px"/><path d="M380.85,106.38c-11,11.34-22,22.72-34.47,32.55q-14.94,11.76-29.83,23.6c-.65.51-1.26,1.06-1.87,1.62a7.78,7.78,0,0,1,1.21,1.08c8.76-5.76,30.44-22.39,39-30.28a290.29,290.29,0,0,0,29.19-31.33A17,17,0,0,0,380.85,106.38Z" transform="translate(-0.03)" style="fill:#6a374f;stroke:#6a374f;stroke-miterlimit:10;stroke-width:0.75px"/><path d="M296.56,82.69A172.89,172.89,0,0,1,308,69.21a61.61,61.61,0,0,1,8.2-7.1c3-2.21,6.11-4.35,9.22-6.66.53-.39,1.05-.76,1.58-1.12a54.85,54.85,0,0,1,8.82-4.78l2.16.86.31.15.13.07h0a3.68,3.68,0,0,0,.54.16h.09a3.47,3.47,0,0,0,.91,0c.83-.1,1.57-.23,2.23-.33a11,11,0,0,1,1.71-.16c3.5,0,7,.08,10.57.2a53.51,53.51,0,0,1,6.07.43h.13a6.72,6.72,0,0,1,2.39,1h0a7.5,7.5,0,0,1,2,1.93,3.84,3.84,0,0,1,.48,1l.62,1.9,2,.08a9.55,9.55,0,0,0,1.07,0h.27a21.42,21.42,0,0,1,1.34,1.83l.61.9.58.83h0a4.09,4.09,0,0,1,.25.46h0a9.05,9.05,0,0,0,.59,1,4.74,4.74,0,0,0,.64.78,4.37,4.37,0,0,0,1.12.79h0a8.67,8.67,0,0,1,3.57,3A12.39,12.39,0,0,1,380,71l.16.79V72l.75.64,5,4.3a6.44,6.44,0,0,0,0,1.52h0a7.07,7.07,0,0,0,1.19,3,7.82,7.82,0,0,0,.67.85l-.33-.15L389,83.55l.92.82.07.06a5.58,5.58,0,0,1,.88,1,9.77,9.77,0,0,1,.79,1.46c.25.56.5,1.21.81,1.93.6,1.44,1.2,2.82,1.74,4.18h0a56.07,56.07,0,0,1,1.94,6.84,20.75,20.75,0,0,1,.55,4.37c.05,1.51,0,3.09,0,4.78h0v.54q-3.84,7-7.77,14c-.81,1.44-1.52,2.87-2.25,4.15a18.85,18.85,0,0,1-2.26,3.34,152.76,152.76,0,0,1-11.34,11.28A96,96,0,0,1,363.4,150c1.1,1.57,2.18,3.15,3.26,4.73A103.38,103.38,0,0,0,377,146.53a158.17,158.17,0,0,0,11.75-11.7,24,24,0,0,0,3-4.34c.82-1.45,1.52-2.87,2.24-4.13q4-7.12,7.92-14.29h0a4.58,4.58,0,0,0,.49-1.43,1.53,1.53,0,0,1,.06-.45h0a11.81,11.81,0,0,0,0-1.19h0c0-1.6.06-3.27,0-5a26.25,26.25,0,0,0-.72-5.58,60.21,60.21,0,0,0-2.17-7.55h0l-.11-.27h0c-.56-1.4-1.14-2.74-1.69-4-.27-.63-.53-1.32-.86-2.06a14.29,14.29,0,0,0-1.28-2.33,11,11,0,0,0-1.79-2.06h0c-.43-.39-.85-.75-1.18-1.07a5.46,5.46,0,0,1-.78-.88,1.25,1.25,0,0,1-.25-.55.66.66,0,0,1,0-.28,2.67,2.67,0,0,1,.13-.4l.77-1.92L391,73.62l-5.63-4.82A17,17,0,0,0,383,63.23a14.35,14.35,0,0,0-5.36-4.72h-.08l-.14-.26h0a10.18,10.18,0,0,0-.6-1h0l-.05-.07h0l-.51-.75-.62-.9a22.91,22.91,0,0,0-2.51-3.21h0a3.42,3.42,0,0,0-1.09-.75h0a3.35,3.35,0,0,0-.63-.22v-.13l-.05.13-.26-.07-.55-.06h-.45c-.07-.11-.12-.23-.2-.34a12.9,12.9,0,0,0-3.6-3.5,12.24,12.24,0,0,0-4.56-1.87h-.27a60.4,60.4,0,0,0-6.72-.5c-3.57-.12-7.17-.22-10.8-.2a15.31,15.31,0,0,0-2.14.17c-.07-.13-.14-.25-.2-.34h0c-.13-.2-.22-.36-.32-.53l-1.2-2.2L337.25,43h0a65,65,0,0,0-13.4,6.8c-.6.41-1.19.83-1.78,1.26-3,2.22-6.12,4.35-9.23,6.66a66.66,66.66,0,0,0-9,7.77A177.89,177.89,0,0,0,291.6,80,41.17,41.17,0,0,1,296.56,82.69Z" transform="translate(-0.03)" style="fill:#6a374f;stroke:#6a374f;stroke-linecap:round;stroke-linejoin:round;stroke-width:4px"/><polygon points="378.57 55.94 378.57 55.95 378.58 55.96 378.57 55.94" style="fill:#6a374f"/><polygon points="384.74 62.01 384.74 62.01 384.74 62.01 384.74 62.01" style="fill:#6a374f"/><polygon points="328.15 177.4 328.15 177.4 328.15 177.4 328.15 177.4" style="fill:#6a374f"/><polygon points="372 64.2 372 64.2 372 64.2 372 64.2" style="fill:#6a374f"/><path d="M405.62,110.48v-.06h0v-.06h0a11.83,11.83,0,0,0,.05-1.33h0c0-1.55.06-3.25,0-5.11a28.93,28.93,0,0,0-.78-6h0a62.05,62.05,0,0,0-2.25-7.8h0l-.11-.28h0c-.57-1.43-1.15-2.78-1.69-4.06h0c-.25-.59-.53-1.3-.89-2.1A16.09,16.09,0,0,0,398.49,81a13.91,13.91,0,0,0-2-2.33h-.05l-.06-.06h0l-1.11-1h0l-.2-.19.59-1.45a2.17,2.17,0,0,0-.6-2.46L393.42,72l-5.14-4.39A18.75,18.75,0,0,0,385.77,62a16.73,16.73,0,0,0-5.59-5.09,10,10,0,0,0-.58-1h0l-.48-.7-.61-.9h0a24.5,24.5,0,0,0-2.75-3.5h0A6.23,6.23,0,0,0,374,49.6h-.12a2.22,2.22,0,0,0-.81-.41,2.8,2.8,0,0,0-.71-.06,15,15,0,0,0-3.74-3.49h0A14.39,14.39,0,0,0,363,43.2h0l-.27-.05h0a62.32,62.32,0,0,0-7-.52c-3.59-.12-7.22-.22-10.89-.21h-.95l-1-1.82a2.16,2.16,0,0,0-2.68-1l-2.84,1.08h-.06a66.74,66.74,0,0,0-13.79,7c-.63.42-1.24.86-1.86,1.31h0c-2.92,2.17-6.07,4.31-9.23,6.66a69.69,69.69,0,0,0-9.24,8c-14.51,15.55-26.24,33-33.36,53.42h0a.29.29,0,0,1,0,.13c-.44.5-1.11,1.33-2,2.47-3.13,4-8.88,11.54-13.86,18.14l-3.4,4.5h0l-9.34,10.86c-8.94,10.42-17.52,21-26.37,31.3-7.51,8.72-15.37,17.25-23.09,26C181.8,221.7,172,233,162,244.17s-19.7,22.75-30.1,33.34c-14.62,14.91-3.71,4-18,19.12-6.71,7.1-13.4,14.21-20.37,21.59h0l-.43.46a87.4,87.4,0,0,0-10.3,5.88,48.69,48.69,0,0,0-11.14,10.2A38.38,38.38,0,0,0,67.6,341h0a24.37,24.37,0,0,0-2.3,6.73c-.06.38-.12.77-.17,1.17h0a17.27,17.27,0,0,0-.23,2.87h0a8.83,8.83,0,0,0,1.54,4.71c.17.25.35.46.52.68h0l.09.11h0l.17.23a4.57,4.57,0,0,1,.47,1.06h0a10.48,10.48,0,0,1,.37,1.75l.44,3.55a2.2,2.2,0,0,0,1.6,1.82,12,12,0,0,0,1.77,2h0a85.71,85.71,0,0,0,10.68,8.9h0a18,18,0,0,0,5,2.26c.72.2,1.44.37,2.16.5a21.51,21.51,0,0,0,3,.33h.07a33.43,33.43,0,0,0,4-.25h0a4.82,4.82,0,0,1,.93,0h.17l.21.06h0a5.65,5.65,0,0,0,1.26.36,7.3,7.3,0,0,0,.94.1h.16a9.07,9.07,0,0,0,2.26-.26h.07a9.38,9.38,0,0,0,1.83-.68h0c2.7-1.34,5.54-2.75,8.35-4.47h0c.43-.26.85-.54,1.28-.82a37,37,0,0,0,8.6-8.3,68.35,68.35,0,0,0,5.92-9.54l.23-.46a4.19,4.19,0,0,0,.49-.2c.39-.19,35.88-33.9,38.76-36.62s30.28-29.32,40.92-39.82c15.84-15.39,115.24-100,115.24-100s3.17-.8,3.34-.86l.7-.22.74-.29c4.9-2.22,9.9-4.4,14.89-6.75a168.34,168.34,0,0,0,23.27-12.93,106.83,106.83,0,0,0,12.16-9.57,160.84,160.84,0,0,0,11.92-11.87,27,27,0,0,0,3.23-4.7h0c.85-1.51,1.56-2.94,2.23-4.13,2.7-4.76,5.33-9.54,7.94-14.32h0a6.76,6.76,0,0,0,.68-2A3.55,3.55,0,0,0,405.62,110.48Zm-15.62,13-1.89-1.07c-.85,1.51-1.56,3-2.25,4.16h0a17.6,17.6,0,0,1-2,3h0a154.05,154.05,0,0,1-11.17,11.11,96.74,96.74,0,0,1-11,8.66,159.58,159.58,0,0,1-21.89,12.15c-4,1.88-8.09,3.69-12.21,5.54-2-1.26-3.82-2.33-5.29-3.44h0l-.19-.15-.42-.34h0c-1.36-1.14-4.34-3.73-8.07-7.17-5.61-5.16-13-12.28-19.4-19.43a130.43,130.43,0,0,1-8.58-10.47h0a41.17,41.17,0,0,1-5.07-8.67h0c6.63-17.53,17-32.8,30.05-46.66a58.56,58.56,0,0,1,7.91-6.84c2.92-2.17,6.07-4.31,9.23-6.65.49-.37,1-.73,1.5-1.07h0A51,51,0,0,1,336.92,52l1.2.48.26.12.13.07.16.06h0l.25.09q.31.1.63.18h.09a5.67,5.67,0,0,0,1.54,0h0c.91-.11,1.69-.25,2.29-.34h0a10.73,10.73,0,0,1,1.39-.14h0c3.46,0,7,.08,10.5.2a51.4,51.4,0,0,1,5.81.41h.08a4.55,4.55,0,0,1,1.57.67h0a5.5,5.5,0,0,1,1.39,1.33h0l.15.26v.09h0l.62,1.9a2.18,2.18,0,0,0,2,1.5l2,.08h.4c.18.26.38.53.58.83h0l.61.9.56.82a1.82,1.82,0,0,1,.15.27h0A11.4,11.4,0,0,0,372,63h0a7,7,0,0,0,1,1.23,6.37,6.37,0,0,0,1.68,1.18h0a6.42,6.42,0,0,1,2.71,2.29,10.1,10.1,0,0,1,1.44,3.7l.16.78h0v.18a2.24,2.24,0,0,0,.71,1.21l.75.65c1.58,1.34,2.94,2.5,4.25,3.63a5.69,5.69,0,0,0,.07.83h0a9.14,9.14,0,0,0,1.53,3.86h0l.05.06a2.25,2.25,0,0,0,.63,1L388.54,85l.93.83h.06a3.66,3.66,0,0,1,.55.63,8,8,0,0,1,.6,1.12h0c.22.49.47,1.13.78,1.89h0c.61,1.45,1.2,2.81,1.72,4.12h0a54.89,54.89,0,0,1,1.85,6.55h0a18.53,18.53,0,0,1,.49,3.92c.05,1.41,0,3,0,4.7h0q-3.7,6.8-7.49,13.52ZM129.52,354.65Z" transform="translate(-0.03)" style="fill:#6a374f"/><polygon points="65.41 356.5 65.41 356.5 65.41 356.5 65.41 356.5" style="fill:#6a374f"/><polygon points="113.36 373.77 113.36 373.77 113.36 373.77 113.36 373.77" style="fill:#6a374f"/><polygon points="74.52 351.83 74.52 351.84 74.52 351.84 74.52 351.83" style="fill:#6a374f"/><polygon points="64.26 354.13 64.26 354.12 64.26 354.12 64.26 354.13" style="fill:#6a374f"/><polygon points="126.53 353.79 126.52 353.81 126.52 353.82 126.53 353.79" style="fill:#6a374f"/><polygon points="68.64 333.05 68.64 333.05 68.64 333.05 68.64 333.05" style="fill:#6a374f"/><polygon points="128.32 352.85 128.29 352.88 128.28 352.89 128.32 352.85" style="fill:#6a374f"/><path d="M138.71,280.29c-20.88,22.2-16.57,18-37.31,40.1a67.6,67.6,0,0,0,3.72,6.16,76.69,76.69,0,0,0,20,19.8c7.75-5.94,17.51-15.81,38.89-36.92a48,48,0,0,1-18.64-16.37A66.83,66.83,0,0,1,138.71,280.29Z" transform="translate(-0.03)" style="fill:#6a374f"/><path d="M116.69,349.62a26.1,26.1,0,0,1-4-3c-1.5-1.42-3.12-2.86-4.73-4.43a34.11,34.11,0,0,1-4.54-5.28,24.23,24.23,0,0,1-1.85-3.3h0l-.08-.16-.15-.19h0v-.14h0c-1.72-2.32-3.45-4.66-5.38-7.25a80.56,80.56,0,0,0-9.61,5.46A41.11,41.11,0,0,0,77,339.87a30.44,30.44,0,0,0-3.26,5,16,16,0,0,0-1.56,4.52,5.3,5.3,0,0,1-.12.75h0c-.08.61-.15,1.09-.16,1.38h0a1.46,1.46,0,0,0,0,.51.87.87,0,0,0,.14.27l.16.21h0a8.47,8.47,0,0,1,.58.76h0a12,12,0,0,1,1.49,3.16,18,18,0,0,1,.65,3h0v.16h0a4,4,0,0,0,.67,1.82,4.34,4.34,0,0,0,.66.76l.22.2h0a76.28,76.28,0,0,0,9.47,7.92,10.22,10.22,0,0,0,2.85,1.25,14,14,0,0,0,3.32.53,15,15,0,0,0,2.22-.14h0a15.56,15.56,0,0,1,3.2-.09,8,8,0,0,1,.84.11,9,9,0,0,1,1.44.39l.41-.14h0c2.69-1.34,5.31-2.65,7.73-4.14l1-.62a28.84,28.84,0,0,0,6.76-6.56,59.44,59.44,0,0,0,5.22-8.43h0a1.62,1.62,0,0,0,.1-.18l-.39-.24C119.36,351.25,118,350.49,116.69,349.62Z" transform="translate(-0.03)" style="fill:#6a374f"/><path d="M169.26,304a37.84,37.84,0,0,1-7.71-3.93h0c-4.59-3.13-15.83-15.75-17.86-23.92-.1-.38,49.84-54.53,73.16-81.07a44.69,44.69,0,0,0,4,7.19,69.7,69.7,0,0,0,8.24,9.75c2.85,2.9,5.74,6,9.07,8.83A49.59,49.59,0,0,0,245.3,226C219.12,251.76,195.4,278.28,169.26,304Z" transform="translate(-0.03)" style="fill:#6a374f"/><path d="M176.77,257.68a.19.19,0,0,1-.27,0h0l-3.73-3.42a.19.19,0,0,1,0-.27h0l.56-.61c.65-.71,1.32-.8,2.21,0s.85,1.49.21,2.2l-.15.16a.16.16,0,0,0,0,.23h0l1.34,1.23a.19.19,0,0,1,0,.27h0Zm-1.69-3.81c-.57-.52-.92-.52-1.32-.09l-.15.16a.16.16,0,0,0,0,.24l1.28,1.17a.16.16,0,0,0,.21,0l0,0,.15-.16C175.68,254.74,175.65,254.4,175.08,253.87Z" transform="translate(-0.03)" style="fill:#6a374f"/><path d="M177,249.61a.19.19,0,0,1,0-.26l1.26-1.37a.19.19,0,0,1,.26,0l.17.16a.18.18,0,0,1,0,.25h0l-.83.91a.16.16,0,0,0,0,.22l1.11,1a.15.15,0,0,0,.21,0l.71-.77a.19.19,0,0,1,.26,0l.17.16a.19.19,0,0,1,0,.26l-.71.77a.18.18,0,0,0,0,.22l1.15,1a.14.14,0,0,0,.2,0h0l.84-.92a.18.18,0,0,1,.25,0l.18.16a.19.19,0,0,1,0,.26L181,253a.19.19,0,0,1-.26,0Z" transform="translate(-0.03)" style="fill:#6a374f"/><path d="M185.52,248.14a.17.17,0,0,1-.23,0l-3.36-3.08a.13.13,0,0,0-.18,0h0l-.49.54a.18.18,0,0,1-.24,0l-.2-.19a.17.17,0,0,1,0-.23l1.61-1.75a.16.16,0,0,1,.23,0h0l.2.18a.16.16,0,0,1,0,.23h0l-.49.54a.13.13,0,0,0,0,.18h0l3.36,3.08a.17.17,0,0,1,0,.23Z" transform="translate(-0.03)" style="fill:#6a374f"/><path d="M185.11,240.75a.17.17,0,0,1,0-.23l.22-.23a.16.16,0,0,1,.21,0l0,0,3.78,3.45a.18.18,0,0,1,0,.24l-.21.23a.16.16,0,0,1-.23,0h0Z" transform="translate(-0.03)" style="fill:#6a374f"/><path d="M192.72,240.28a.16.16,0,0,1-.22,0l-3.37-3.09a.11.11,0,0,0-.15,0l0,0-.51.56a.16.16,0,0,1-.22,0l-.22-.2a.18.18,0,0,1,0-.22l1.63-1.77a.14.14,0,0,1,.2,0h0l.22.2a.14.14,0,0,1,0,.2h0l-.51.56a.12.12,0,0,0,0,.17h0l3.37,3.09a.16.16,0,0,1,0,.22Z" transform="translate(-0.03)" style="fill:#6a374f"/><path d="M192.32,232.89a.18.18,0,0,1,0-.24l1.28-1.39a.16.16,0,0,1,.23,0h0l.2.18a.16.16,0,0,1,0,.24l-.86.93a.15.15,0,0,0,0,.2l1.13,1a.14.14,0,0,0,.19,0l.73-.8a.17.17,0,0,1,.23,0l.2.19a.16.16,0,0,1,0,.23h0l-.73.8a.14.14,0,0,0,0,.19l1.17,1.07a.14.14,0,0,0,.19,0l.86-.94a.16.16,0,0,1,.23,0h0l.2.18a.16.16,0,0,1,0,.24l-1.28,1.39a.16.16,0,0,1-.23,0h0Z" transform="translate(-0.03)" style="fill:#6a374f"/><path d="M196.58,230l-.92-.84a.09.09,0,0,1,0-.12l.29-.31a.07.07,0,0,1,.1,0h0l.41.37a.26.26,0,0,1,.09.16l.14.64a.11.11,0,0,1,0,.11Z" transform="translate(-0.03)" style="fill:#6a374f"/><path d="M202.48,229.64a.16.16,0,0,1-.22,0L200.43,228c-.34-.31-.62-.36-.86-.1s-.18.53.17.85l1.83,1.68a.16.16,0,0,1,0,.22l-.21.23a.16.16,0,0,1-.22,0l-2.6-2.39a.14.14,0,0,1,0-.2h0l.21-.23a.16.16,0,0,1,.22,0l.17.16h0a.75.75,0,0,1,.16-.85c.4-.43.88-.41,1.47.14l1.91,1.74a.18.18,0,0,1,0,.22Z" transform="translate(-0.03)" style="fill:#6a374f"/><path d="M213.28,229.28c-2.45-2.25-4.26-1.56-5.06-.69-1.29,1.41-.62,3.65-.4,3.06a5.5,5.5,0,0,1,.86-2.51c.65-.7,1.57-.94,3.7,1,2.63,2.42,3,8.2.78,12.45h0c-.18.35-.26.07-.27,0h0c-.59-4.82-2-9.54-2.79-10.24-.33-.3-.89-.06-1.23.13a.4.4,0,0,0-.18.49V233c.25,1.63,1.43,10,.24,11.34-.68.74-1.68-6.3-1.9-7.79a.47.47,0,0,0-.37-.38,1.15,1.15,0,0,0-1,.37.33.33,0,0,0-.09.27,38.42,38.42,0,0,0,.75,5,22.18,22.18,0,0,1,.32,2.69,4.48,4.48,0,0,1-.5,2.76c-.17.19-.34.13-.52,0-1.77-1.62-2.27-7.5-2.5-11a1,1,0,0,1,.23-.67c1.33-1.44,2.51-2.24,4-1.53.08,0,.16-.06.1-.11-1-.91-2.1-2-4.49.3a1.7,1.7,0,0,0-.1-.59,1.41,1.41,0,0,0-1.08-.15.26.26,0,0,0-.2.27c0,.27,0,.85.06,1.63a.86.86,0,0,1-.14.46c-.71.84-1.36,1.66-1.94,2.45-.07.07-.08-.06-.08-.06h0a9.06,9.06,0,0,0-.19-1.87,1.4,1.4,0,0,0-1-.17.33.33,0,0,0-.26.34c0,.46.07,1.63.17,3.1h0v.11h0a1.33,1.33,0,0,1-.1.62,40.3,40.3,0,0,1-2.74,3.74c-3.45,3.77-4.82,1.93-5.19,2.35-.2.21,2.58,2.33,6.05-1.45a29.56,29.56,0,0,0,2-2.47c.08-.08.17-.1.22.12.16,1.69.38,3.46.68,5,.27,2.23.85,6.33-.24,7.51a.8.8,0,0,1-1.12.18.77.77,0,0,1-.18-.18,4.86,4.86,0,0,1-1.12-2.47h0c-.13-.67-.17-.78.18-.85a1.8,1.8,0,0,0,1.18-.54c1.29-1.4-.09-4-.8-4.64-.51-.47-1.58-.06-2.06.47s-.47,2.68-.07,4.74c.1.54.22,1.2.32,2l.09.82v.24c.2,1.93.29,3.71,0,4a.43.43,0,0,1-.6.07l-.07-.07c-.81-.74-.59-5.94-1.59-6.86s-2.25.49-2.65.13-.21-1.34-.6-1.69c-.21-.2-.79.08-1.06.37a2.34,2.34,0,0,0,.18,2.29c.32.3.76.13.82.18.44.39,1.86,10.18,1.11,11a1,1,0,0,1-.64.28c-.21,0-.39.09-.23.23.34.31,1,.92,1.67.15,1.14-1.23-.36-10-1-11.55a.26.26,0,0,1,.12-.36h0c.33-.15.88-.27,1.13,0,.77.71.79,6.11,1.66,6.91a1.72,1.72,0,0,0,2.43.14l.05-.05c.52-.57.48-2.37.26-4.29,0-.14,0-.3.27-.14a2.52,2.52,0,0,0,3.39.15c.85-.93.54-3.08.39-4.59,0-.14,0-.2.15-.09,1.24,1.11,2.39,1.52,3.24.59.51-.56.33-2.46.11-4.33,0-.15,0-.13.08-.11,1.08.94,2.42,1.59,3.31.63.44-.49.39-1.7.25-3,0-.13,0-.37.29-.15h0c1.23,1,1.84.53,2.24.1.91-1,.39-4.65.11-7.07,0-.3,0-.49.16,0a41.33,41.33,0,0,1,1.39,6.52,1.06,1.06,0,0,1-.17.67c-3.22,3.53-5.33,6.51-3.52,8.17,1.21,1.12,3.24,0,3.59-.38,1.32-1.44,1.68-4.31,1.54-7.45a.83.83,0,0,1,.11-.46C216.08,241.32,218.64,234.19,213.28,229.28Zm-17,18.23c.43-.47,1.5,2.48.65,3.41a2.3,2.3,0,0,1-.38.32c-.25.18-.35-.24-.37-.32a8.52,8.52,0,0,1,.12-3.41Zm6.39,3.55c-.17.19-.34.13-.53-.05-1.53-1.4-2.14-6.4-2.45-10.17h0a1,1,0,0,1,.12-.53l1.81-2.55c.08-.1.14-.16.16,0a53.61,53.61,0,0,0,.74,6.19c.48,2.94.92,6.29.17,7.11Zm7.54,1.46c-.9,1-1.9-.17-1.61-1.81a6.93,6.93,0,0,1,1.56-2.62l.7-.76h0l.77-.81c.06-.05.14-.08.17,0,.1,2.48-.31,4.62-1.57,6Z" transform="translate(-0.03)" style="fill:#6a374f"/><path d="M189,263.29c1.32-1.43,1.51-6.42-1-8.72-2.77-2.55-4-1.63-4-1.63s-1.22-.52-2.94,1.36a10.92,10.92,0,0,0-2.27,5.45h0v.11a1.42,1.42,0,0,1-.4.82l-.06.06h0c-.22.21-.41.42-.56.58-1.24,1.36-2.77,5.49-.2,7.84a1.92,1.92,0,0,0,2.36.47.11.11,0,0,0,0-.15l0,0A1.73,1.73,0,0,1,179,269a5.57,5.57,0,0,1-.47-7.29c.06-.08.17-.19.2.05a7.72,7.72,0,0,0,2.27,5.71,2.46,2.46,0,0,0,1.58.54,2,2,0,0,0,1.24-.35c.35-.38,2-4.51-.73-7a3.48,3.48,0,0,0-2.3-1.06c-.27-.08-.27-.63-.25-.89a8.45,8.45,0,0,1,2-4.41c1.49-1.62,3.13-.26,4.22.74,2.11,1.93,2.32,8.36.73,8.45-.25,0-.36-.25-.42-.43-.73-3.78-1.42-7.16-.77-7.87h0a.56.56,0,0,0-.73-.34l-.15.08a.75.75,0,0,0-.16.15c-1.89,2.06,3.29,16.25.31,19.5-2.35,2.56-5.5-2.9-3.73-4.83.6-.65,1.33.24,1.82.82.11.14.49,0,.41-.16a3.38,3.38,0,0,0-.88-1.11c-.55-.5-1.61-.23-2.29.51a4.25,4.25,0,0,0,1,5.17c2.18,2,2.82.62,3,.83.38.35,1.38,0,2.5-1.21,1.37-1.49.58-6.3-.27-10.77A1.67,1.67,0,0,0,189,263.29Zm-6.55,4.13c-.6.66-2.2-3-2.12-6.9a.25.25,0,0,1,.3-.27h.14C182.78,260.71,184.57,265.1,182.45,267.42Z" transform="translate(-0.03)" style="fill:#6a374f"/><path d="M105.61,333,87.83,346.89C88.34,342.6,99.24,333.58,105.61,333Z" transform="translate(-0.03)" style="fill:#6a374f"/><path d="M84.86,360.49C85,359.19,94.58,347.05,101,344Z" transform="translate(-0.03)" style="fill:#6a374f;stroke:#6a374f;stroke-miterlimit:10;stroke-width:0.75px"/><path d="M115.16,343.21c-1.5,4-18.89,20-23.93,21.73a18,18,0,0,1,1.6-3c6.12-7.28,13.52-13.09,21.29-18.46A4.54,4.54,0,0,1,115.16,343.21Z" transform="translate(-0.03)" style="fill:#6a374f;stroke:#6a374f;stroke-miterlimit:10;stroke-width:0.25px"/><path d="M311.08,168.88c-7.32-6.91-14.67-13.8-21.88-20.85a91,91,0,0,1-12.06-13.72,50.73,50.73,0,0,1-3.77-6.55c-6.73,7.84-47.8,57.54-47.8,57.54C227,196.69,251,217.56,256.7,219.48c0,0,55.86-46.31,57.69-48A36,36,0,0,1,311.08,168.88Z" transform="translate(-0.03)" style="fill:#6a374f"/><path d="M410.34,19h0c-.27.14-1,6.73-1.17,7.19a28,28,0,0,1-10.5,15.34c-.7.52-6.69,4.36-7.24,4.36h0c1.44,1.63,14.35,2.66,17.63,18.77.12.59,1.49,7.77,1.56,7.77h0c.31-.09.91-5.29.93-6.05.39-16.72,18.25-20,18.15-20.88-5.47-3-10.43-5.32-14.32-11.36a28.38,28.38,0,0,1-3.8-9C411.39,24.53,410.63,19,410.34,19Z" transform="translate(-0.03)" style="fill:#6a374f;stroke:#6a374f;stroke-linecap:round;stroke-linejoin:round;stroke-width:24px"/><path d="M449.16,75.74h0c-.4.2-1.54,9.94-1.73,10.62A41.24,41.24,0,0,1,431.9,109c-1,.76-9.87,6.43-10.69,6.43h0c2.12,2.41,21.18,3.93,26,27.72.18.87,2.21,11.47,2.32,11.47.45-.13,1.33-7.8,1.36-8.93.58-24.69,26.95-29.58,26.81-30.84-8.08-4.45-15.41-7.85-21.16-16.77a42.7,42.7,0,0,1-5.6-13.25C450.7,83.91,449.59,75.74,449.16,75.74Z" transform="translate(-0.03)" style="fill:#6a374f;stroke:#6a374f;stroke-linecap:round;stroke-linejoin:round;stroke-width:22px"/><path d="M410.34,18.51h0c-.27.13-1,6.73-1.17,7.19A28,28,0,0,1,398.67,41c-.7.51-6.69,4.35-7.24,4.35h0c1.39,1.61,14.3,2.67,17.57,18.78.12.59,1.49,7.77,1.56,7.77h0c.31-.09.91-5.29.93-6,.39-16.72,18.25-20,18.15-20.89-5.47-3-10.43-5.32-14.32-11.35a28.38,28.38,0,0,1-3.8-9C411.39,24.05,410.63,18.51,410.34,18.51Z" transform="translate(-0.03)" style="fill:#6a374f"/><path d="M449.22,84.26h0c-.31.15-1.17,7.51-1.31,8a31.2,31.2,0,0,1-11.73,17.13c-.77.58-7.46,4.86-8.08,4.86h0c1.6,1.83,16,3,19.68,21,.13.66,1.67,8.68,1.75,8.68.34-.1,1-5.9,1-6.75.44-18.67,20.38-22.37,20.27-23.33-6.11-3.36-11.65-5.93-16-12.67a32,32,0,0,1-4.23-10C450.38,90.44,449.54,84.26,449.22,84.26Z" transform="translate(-0.03)" style="fill:#6a374f"/><path d="M449.16,102.19c.37.67.77,1.33,1.19,2a33.63,33.63,0,0,0,9.8,9.9,31.34,31.34,0,0,0-11.41,11,29.07,29.07,0,0,0-10.56-10.65c.16-.11.3-.2.4-.28a38.19,38.19,0,0,0,8.21-8.24,38.7,38.7,0,0,0,2.37-3.7M449,83.74h0c-.32.15-1.22,7.81-1.36,8.34a32.5,32.5,0,0,1-12.19,17.8c-.81.6-7.76,5.06-8.4,5.06h0c1.66,1.89,16.64,3.09,20.45,21.78.14.69,1.74,9,1.81,9,.36-.1,1.06-6.14,1.08-7,.45-19.4,21.18-23.25,21.07-24.24-6.36-3.49-12.11-6.17-16.63-13.18a33.13,33.13,0,0,1-4.4-10.41C450.21,90.16,449.34,83.74,449,83.74Z" transform="translate(-0.03)" style="fill:#6a374f;stroke:#6a374f;stroke-miterlimit:10;stroke-width:0.75px"/><path d="M414.63,20.41h0m-4.15,14.48c.32.58.67,1.15,1,1.71A28.83,28.83,0,0,0,420,45.12a27.07,27.07,0,0,0-9.83,9.48,24.86,24.86,0,0,0-9.1-9.17c.14-.1.26-.18.34-.25a32.65,32.65,0,0,0,7.08-7.1,31,31,0,0,0,2-3.19M410.34,19h0c-.27.14-1,6.73-1.17,7.19a28,28,0,0,1-10.5,15.34c-.7.52-6.69,4.36-7.24,4.36h0c1.44,1.63,14.35,2.66,17.63,18.77.12.59,1.49,7.77,1.56,7.77h0c.31-.09.91-5.29.93-6.05.39-16.72,18.25-20,18.15-20.88-5.47-3-10.43-5.32-14.32-11.36a28.38,28.38,0,0,1-3.8-9C411.39,24.53,410.63,19,410.34,19Z" transform="translate(-0.03)" style="fill:#6a374f;stroke:#6a374f;stroke-miterlimit:10;stroke-width:0.75px"/><polygon points="381.92 70.38 381.92 70.38 381.92 70.38 381.92 70.38" style="fill:#6a374f"/></g><g id="Layer_1-2" data-name="Layer 1-2"><path d="M32,299.5h0c-.27.13-1.05,6.73-1.17,7.19a29,29,0,0,1-4.4,9.22A28.69,28.69,0,0,1,20.27,322c-.69.51-6.68,4.35-7.24,4.35h0c1.41,1.65,14.31,2.65,17.59,18.8.12.59,1.5,7.77,1.57,7.77h0c.31-.09.91-5.29.92-6.05.4-16.72,18.25-20,18.16-20.89-5.47-3-10.43-5.32-14.33-11.35a28.69,28.69,0,0,1-3.79-9C33,305,32.25,299.5,32,299.5Z" transform="translate(-0.03)" style="fill:#fff;stroke:#fff;stroke-linecap:round;stroke-linejoin:round;stroke-width:26px"/><path d="M32,299h0c-.27.14-1.05,6.73-1.17,7.19a28.61,28.61,0,0,1-4.4,9.22,28.37,28.37,0,0,1-6.11,6.12c-.69.52-6.68,4.36-7.24,4.36h0c1.44,1.63,14.34,2.66,17.62,18.77.12.59,1.5,7.77,1.57,7.77h0c.31-.09.91-5.29.92-6.05.4-16.72,18.25-20,18.16-20.88-5.47-3-10.43-5.32-14.33-11.36a28.59,28.59,0,0,1-3.79-9C33,304.54,32.25,299,32,299Z" transform="translate(-0.03)" style="fill:#e077bd"/><path d="M36.24,300.91h0M32.1,315.39c.32.58.66,1.14,1,1.7a29,29,0,0,0,8.45,8.53,26.94,26.94,0,0,0-9.84,9.48,25,25,0,0,0-9.09-9.18l.34-.24a33.1,33.1,0,0,0,7.08-7.1,32.8,32.8,0,0,0,2-3.19m0-15.89h0c-.27.13-1.05,6.73-1.17,7.19a29,29,0,0,1-4.4,9.22A28.69,28.69,0,0,1,20.27,322c-.69.51-6.68,4.35-7.24,4.35h0c1.41,1.65,14.31,2.65,17.59,18.8.12.59,1.5,7.77,1.57,7.77h0c.31-.09.91-5.29.92-6.05.4-16.72,18.25-20,18.16-20.89-5.47-3-10.43-5.32-14.33-11.35a28.69,28.69,0,0,1-3.79-9C33,305,32.25,299.5,32,299.5Z" transform="translate(-0.03)" style="fill:#474747;stroke:#474747;stroke-miterlimit:10;stroke-width:0.75px"/><polygon points="363.56 41.88 363.55 41.88 363.56 41.88 363.56 41.88" style="fill:#fff;stroke:#fff;stroke-linecap:round;stroke-linejoin:round;stroke-width:28px"/><polygon points="121.49 347.73 121.49 347.72 121.49 347.73 121.49 347.73" style="fill:#fff;stroke:#fff;stroke-linecap:round;stroke-linejoin:round;stroke-width:28px"/><polygon points="120.36 348.69 120.37 348.69 120.36 348.69 120.36 348.69" style="fill:#fff;stroke:#fff;stroke-linecap:round;stroke-linejoin:round;stroke-width:28px"/><polygon points="62.02 358.65 62.02 358.66 62.02 358.65 62.02 358.65" style="fill:#fff;stroke:#fff;stroke-linecap:round;stroke-linejoin:round;stroke-width:28px"/><polygon points="371.57 48.94 371.57 48.95 371.58 48.96 371.57 48.94" style="fill:#fff;stroke:#fff;stroke-linecap:round;stroke-linejoin:round;stroke-width:28px"/><polygon points="377.74 55.01 377.74 55.01 377.74 55.01 377.74 55.01" style="fill:#fff;stroke:#fff;stroke-linecap:round;stroke-linejoin:round;stroke-width:28px"/><polygon points="321.15 170.4 321.15 170.4 321.15 170.4 321.15 170.4" style="fill:#fff;stroke:#fff;stroke-linecap:round;stroke-linejoin:round;stroke-width:28px"/><polygon points="365 57.2 365 57.2 365 57.2 365 57.2" style="fill:#fff;stroke:#fff;stroke-linecap:round;stroke-linejoin:round;stroke-width:28px"/><path d="M397.62,103.48v-.06h0v-.06h0c.05-.6.05-1.1.05-1.33h0c0-1.55.06-3.25,0-5.11a28.93,28.93,0,0,0-.78-6h0a62.05,62.05,0,0,0-2.25-7.8h0l-.11-.28h0c-.57-1.43-1.15-2.78-1.69-4.06h0c-.24-.59-.52-1.3-.88-2.1A16.09,16.09,0,0,0,390.5,74a13.91,13.91,0,0,0-2-2.33h-.05l-.06-.06h0l-1.11-1h0l-.2-.19.59-1.45a2.17,2.17,0,0,0-.6-2.46L385.42,65l-5.14-4.39A18.75,18.75,0,0,0,377.77,55a16.73,16.73,0,0,0-5.59-5.09,10,10,0,0,0-.58-1h0l-.48-.7c-.19-.28-.4-.58-.61-.9h0a24.5,24.5,0,0,0-2.75-3.5h0A5.67,5.67,0,0,0,366,42.6h-.12a2.22,2.22,0,0,0-.81-.41,2.8,2.8,0,0,0-.71-.06,15,15,0,0,0-3.74-3.49h0A14.43,14.43,0,0,0,355,36.2h0l-.27-.05h0a62.32,62.32,0,0,0-7-.52c-3.59-.12-7.22-.22-10.89-.21h-.95l-1-1.82a2.15,2.15,0,0,0-2.67-1l-2.85,1.08h-.05a66.74,66.74,0,0,0-13.79,7c-.63.42-1.25.86-1.86,1.31h0c-2.92,2.17-6.07,4.31-9.23,6.66a69.69,69.69,0,0,0-9.24,8c-14.52,15.55-26.25,33-33.38,53.42h0a.29.29,0,0,1,0,.13c-.44.5-1.11,1.33-2,2.47-3.13,4-8.88,11.54-13.86,18.14l-3.4,4.5h0l-9.34,10.86c-8.94,10.42-17.52,21-26.37,31.3-7.51,8.72-15.37,17.25-23.1,26C173.8,214.7,164,226,154,237.17s-19.7,22.75-30.1,33.34c-14.62,14.91-3.71,4-18,19.12-6.71,7.1-13.4,14.21-20.37,21.59h0l-.43.46a89,89,0,0,0-10.31,5.88,48.64,48.64,0,0,0-11.13,10.2A38.38,38.38,0,0,0,59.6,334h0a24.37,24.37,0,0,0-2.3,6.73c-.06.38-.12.77-.17,1.17h0a17.27,17.27,0,0,0-.23,2.87h0a8.83,8.83,0,0,0,1.54,4.71c.17.25.35.46.52.68h0a.44.44,0,0,1,.08.11h0l.17.23a4.57,4.57,0,0,1,.47,1.06h0a10.48,10.48,0,0,1,.37,1.75l.44,3.55a2.2,2.2,0,0,0,1.6,1.82,12,12,0,0,0,1.77,2h0a85.71,85.71,0,0,0,10.68,8.9h0a18,18,0,0,0,5,2.26c.72.2,1.44.37,2.16.5a21.51,21.51,0,0,0,3,.33h.07a33.43,33.43,0,0,0,4-.25h0a4.82,4.82,0,0,1,.93,0h.17l.21.06h0a5.65,5.65,0,0,0,1.26.36,7.3,7.3,0,0,0,.94.1h.16a9.07,9.07,0,0,0,2.26-.26h.07A9.38,9.38,0,0,0,96.6,372h0c2.7-1.34,5.54-2.75,8.35-4.47h0c.43-.26.85-.54,1.27-.82a36.88,36.88,0,0,0,8.61-8.3,68.35,68.35,0,0,0,5.92-9.54l.23-.46c.16-.06.32-.12.49-.2.39-.19,35.88-33.9,38.76-36.62s30.27-29.32,40.92-39.82c15.85-15.39,115.25-100,115.25-100s3.17-.8,3.34-.86l.7-.22.74-.29c4.9-2.22,9.9-4.4,14.89-6.75a168.34,168.34,0,0,0,23.27-12.93,106.83,106.83,0,0,0,12.16-9.57,160.84,160.84,0,0,0,11.92-11.87,27,27,0,0,0,3.23-4.7h0c.85-1.51,1.56-2.94,2.23-4.13,2.7-4.76,5.33-9.54,7.94-14.32h0a6.76,6.76,0,0,0,.68-2A3.55,3.55,0,0,0,397.62,103.48ZM121.52,347.65Z" transform="translate(-0.03)" style="fill:#fff;stroke:#fff;stroke-linecap:round;stroke-linejoin:round;stroke-width:28px"/><line x1="390.46" y1="73.91" x2="390.46" y2="73.91" style="fill:none;stroke:#fff;stroke-linecap:round;stroke-linejoin:round;stroke-width:28px"/><polyline points="318.74 45.53 318.74 45.53 318.74 45.53" style="fill:#fff;stroke:#fff;stroke-linecap:round;stroke-linejoin:round;stroke-width:28px"/><polygon points="58.41 349.5 58.41 349.5 58.41 349.5 58.41 349.5" style="fill:#fff;stroke:#fff;stroke-linecap:round;stroke-linejoin:round;stroke-width:28px"/><polygon points="106.36 366.77 106.36 366.77 106.36 366.77 106.36 366.77" style="fill:#fff;stroke:#fff;stroke-linecap:round;stroke-linejoin:round;stroke-width:28px"/><polygon points="67.52 344.83 67.52 344.84 67.52 344.84 67.52 344.83" style="fill:#fff;stroke:#fff;stroke-linecap:round;stroke-linejoin:round;stroke-width:28px"/><polygon points="57.26 347.13 57.26 347.12 57.26 347.12 57.26 347.13" style="fill:#fff;stroke:#fff;stroke-linecap:round;stroke-linejoin:round;stroke-width:28px"/><polygon points="411.2 108.18 411.2 108.18 411.11 108.16 411.2 108.18" style="fill:#474747"/><path d="M389.78,101.94h0c0-1.69.05-3.28,0-4.78a19.53,19.53,0,0,0-.55-4.38A55.12,55.12,0,0,0,387.3,86h0c-.54-1.36-1.14-2.74-1.75-4.17-.3-.72-.55-1.38-.81-1.94a9.62,9.62,0,0,0-.78-1.45,5,5,0,0,0-.89-1l-.06-.06-.92-.83L380.51,75l.33.14c-.22-.26-.45-.54-.67-.85a7.11,7.11,0,0,1-1.18-3h0a6.36,6.36,0,0,1,0-1.51l-5-4.3-.75-.64v-.19L373,64a12.15,12.15,0,0,0-1.78-4.49,8.57,8.57,0,0,0-3.56-3h0a4.28,4.28,0,0,1-1.11-.78,5.46,5.46,0,0,1-.65-.79c-.27-.41-.45-.76-.59-1h0a4.17,4.17,0,0,0-.26-.46h0l-.58-.83-.61-.9a19.81,19.81,0,0,0-1.34-1.82h-.27a9.55,9.55,0,0,1-1.07,0l-2-.08-.62-1.9a4.17,4.17,0,0,0-.48-.94,7.35,7.35,0,0,0-2-1.93h0a6.47,6.47,0,0,0-2.39-1h-.13a53.51,53.51,0,0,0-6.07-.43c-3.54-.13-7.07-.22-10.57-.21a12.37,12.37,0,0,0-1.72.17c-.65.09-1.39.23-2.22.32a2.84,2.84,0,0,1-.92,0H332a2.49,2.49,0,0,1-.53-.16h0l-.14-.07-.3-.15-2.16-.86A54.69,54.69,0,0,0,320,47.32c-.53.36-1.06.74-1.58,1.13-3.11,2.31-6.25,4.44-9.22,6.65a61.61,61.61,0,0,0-8.2,7.1c-13.34,14.21-24.05,30-30.78,48.13l.32.83a43.58,43.58,0,0,0,5.34,9.17A131.11,131.11,0,0,0,284.59,131c6.5,7.23,13.9,14.38,19.54,19.57,3.76,3.47,6.75,6.07,8.15,7.24.36.31.64.52.71.58,1.85,1.38,4,2.63,6.42,4.15,4.47-2,8.93-4,13.3-6a159.64,159.64,0,0,0,22.19-12.32,98,98,0,0,0,11.25-8.85,154.58,154.58,0,0,0,11.34-11.27,19.4,19.4,0,0,0,2.26-3.34c.72-1.29,1.43-2.71,2.25-4.16q3.94-7,7.77-14v-.66Z" transform="translate(-0.03)" style="fill:#adadad"/><path d="M382.9,67.14l-6.33-5.42c-.74-3.65-2.52-7.44-6.91-9.53-.69-.32-1-1.41-1.51-2.13a35.83,35.83,0,0,0-3.39-4.55c-.47-.48-1.78-.14-2.72-.18-.86-2.67-4.09-5.37-7.32-5.86a56.86,56.86,0,0,0-6.39-.46c-3.56-.12-7.12-.22-10.69-.21-1.42.1-2.84.27-4.24.51a1.66,1.66,0,0,1-.51-.19c.13-.37.39-.73.33-1a6.38,6.38,0,0,0-.77-1.49,60.91,60.91,0,0,0-15,7.88c-3.34,2.49-6.8,4.82-10.11,7.33a14.84,14.84,0,0,1-.86,4.11c.07.16,5.59,18.94,31.94,15.5,12.66-1.66,21.59,2.77,27.63,12.18,4,6.3,4.05,13,4.23,20.31.45,18.47,3.8,22.61,4.75,23.81h0l1.13,1.06c1.45-1.47,2.86-3,4.22-4.5,2-2.3,3.32-5.27,4.86-8q4-7.09,7.89-14.25a3.75,3.75,0,0,0,.26-1.72c0-3.31.21-6.54-.63-9.91a57.58,57.58,0,0,0-2-7.19c-.57-1.43-1.18-2.84-1.78-4.26-.82-2-1.44-3.84-3.2-5.43S381.65,70.21,382.9,67.14Z" transform="translate(-0.03)" style="fill:#e077bd"/><polygon points="370.62 50.09 370.62 50.09 370.54 50.05 370.62 50.09" style="fill:#474747"/><path d="M338.16,77.11c-18.12,18.17-36.85,35.78-52.35,56.62l-1.42-1.11C299.52,111,319,94.21,338.16,77.11Z" transform="translate(-0.03)" style="fill:#474747;stroke:#474747;stroke-linecap:round;stroke-linejoin:round;stroke-width:0.75px"/><path d="M299.8,89.73c-9.2,10.65-15.91,22.74-22.29,35.23.75.74,1.48,1.49,2.2,2.25l3.74-6.53a30.64,30.64,0,0,0,2.13-3.79c3.62-9,9.58-16.5,15.73-23.82,11.17-13.3,24.18-24.68,37.52-35.71a35.39,35.39,0,0,0,3.4-3.08C335.58,56,310.82,77,299.8,89.73Z" transform="translate(-0.03)" style="fill:#474747;stroke:#474747;stroke-linecap:round;stroke-linejoin:round"/><path d="M358,84.13C347.59,96,337.23,108,325.31,118.47Q311,131,296.78,143.63l-.06.05a9,9,0,0,1,.89,1.68c9.12-7,28.27-23.39,36-31.32a292.36,292.36,0,0,0,27.5-32.84A16.94,16.94,0,0,0,358,84.13Z" transform="translate(-0.03)" style="fill:#474747;stroke:#474747;stroke-miterlimit:10;stroke-width:3px"/><path d="M373.85,99.38c-11,11.34-22,22.72-34.47,32.55q-14.94,11.76-29.83,23.6c-.65.51-1.26,1.06-1.87,1.62a7.78,7.78,0,0,1,1.21,1.08c8.76-5.76,30.44-22.39,39-30.28a290.29,290.29,0,0,0,29.19-31.33A17,17,0,0,0,373.85,99.38Z" transform="translate(-0.03)" style="fill:#474747;stroke:#474747;stroke-miterlimit:10;stroke-width:0.75px"/><path d="M289.56,75.69A172.89,172.89,0,0,1,301,62.21a61.61,61.61,0,0,1,8.2-7.1c3-2.21,6.11-4.35,9.22-6.66.53-.39,1.05-.76,1.58-1.12a54.85,54.85,0,0,1,8.82-4.78l2.16.86.31.15.13.07h0a3.68,3.68,0,0,0,.54.16h.09a3.47,3.47,0,0,0,.91,0c.83-.1,1.57-.23,2.23-.33a11,11,0,0,1,1.71-.16c3.5,0,7,.08,10.57.2a53.51,53.51,0,0,1,6.07.43h.13a6.72,6.72,0,0,1,2.39,1h0a7.5,7.5,0,0,1,2,1.93,3.84,3.84,0,0,1,.48,1l.62,1.9,2,.08a9.55,9.55,0,0,0,1.07,0h.27a21.42,21.42,0,0,1,1.34,1.83l.61.9.58.83h0a4.09,4.09,0,0,1,.25.46h0a9.05,9.05,0,0,0,.59,1,4.74,4.74,0,0,0,.64.78,4.37,4.37,0,0,0,1.12.79h0a8.67,8.67,0,0,1,3.57,3A12.39,12.39,0,0,1,373,64l.16.79V65l.75.64,5,4.3a6.44,6.44,0,0,0,0,1.52h0a7.07,7.07,0,0,0,1.19,3,7.82,7.82,0,0,0,.67.85l-.33-.15L382,76.55l.92.82.07.06a5.58,5.58,0,0,1,.88,1,9.77,9.77,0,0,1,.79,1.46c.25.56.5,1.21.81,1.93.6,1.44,1.2,2.82,1.74,4.18h0a56.07,56.07,0,0,1,1.94,6.84,20.75,20.75,0,0,1,.55,4.37c.05,1.51,0,3.09,0,4.78h0v.54q-3.84,7-7.77,14c-.81,1.44-1.52,2.87-2.25,4.15a18.85,18.85,0,0,1-2.26,3.34,152.76,152.76,0,0,1-11.34,11.28A96,96,0,0,1,356.4,143c1.1,1.57,2.18,3.15,3.26,4.73A103.38,103.38,0,0,0,370,139.53a158.17,158.17,0,0,0,11.75-11.7,24,24,0,0,0,3-4.34c.82-1.45,1.52-2.87,2.24-4.13q4-7.12,7.92-14.29h0a4.58,4.58,0,0,0,.49-1.43,1.53,1.53,0,0,1,.06-.45h0a11.81,11.81,0,0,0,0-1.19h0c0-1.6.06-3.27,0-5a26.25,26.25,0,0,0-.72-5.58,60.21,60.21,0,0,0-2.17-7.55h0l-.11-.27h0c-.56-1.4-1.14-2.74-1.69-4-.27-.63-.53-1.32-.86-2.06a14.29,14.29,0,0,0-1.28-2.33,11,11,0,0,0-1.79-2.06h0c-.43-.39-.85-.75-1.18-1.07a5.46,5.46,0,0,1-.78-.88,1.25,1.25,0,0,1-.25-.55.66.66,0,0,1,0-.28,2.67,2.67,0,0,1,.13-.4l.77-1.92L384,66.62l-5.63-4.82A17,17,0,0,0,376,56.23a14.35,14.35,0,0,0-5.36-4.72h-.08l-.14-.26h0a10.18,10.18,0,0,0-.6-1h0l-.05-.07h0l-.51-.75-.62-.9a22.91,22.91,0,0,0-2.51-3.21h0a3.42,3.42,0,0,0-1.09-.75h0a3.35,3.35,0,0,0-.63-.22v-.13l-.05.13-.26-.07-.55-.06h-.45c-.07-.11-.12-.23-.2-.34a12.9,12.9,0,0,0-3.6-3.5,12.24,12.24,0,0,0-4.56-1.87h-.27a60.4,60.4,0,0,0-6.72-.5c-3.57-.12-7.17-.22-10.8-.2a15.31,15.31,0,0,0-2.14.17c-.07-.13-.14-.25-.2-.34h0c-.13-.2-.22-.36-.32-.53l-1.2-2.2L330.25,36h0a65,65,0,0,0-13.4,6.8c-.6.41-1.19.83-1.78,1.26-3,2.22-6.12,4.35-9.23,6.66a66.66,66.66,0,0,0-9,7.77A177.89,177.89,0,0,0,284.6,73,41.17,41.17,0,0,1,289.56,75.69Z" transform="translate(-0.03)" style="fill:#474747;stroke:#474747;stroke-linecap:round;stroke-linejoin:round;stroke-width:4px"/><polygon points="371.57 48.94 371.57 48.95 371.58 48.96 371.57 48.94" style="fill:#474747"/><polygon points="377.74 55.01 377.74 55.01 377.74 55.01 377.74 55.01" style="fill:#474747"/><polygon points="321.15 170.4 321.15 170.4 321.15 170.4 321.15 170.4" style="fill:#474747"/><polygon points="365 57.2 365 57.2 365 57.2 365 57.2" style="fill:#474747"/><path d="M398.62,103.48v-.06h0v-.06h0a11.83,11.83,0,0,0,.05-1.33h0c0-1.55.06-3.25,0-5.11a28.93,28.93,0,0,0-.78-6h0a62.05,62.05,0,0,0-2.25-7.8h0l-.11-.28h0c-.57-1.43-1.15-2.78-1.69-4.06h0c-.25-.59-.53-1.3-.89-2.1A16.09,16.09,0,0,0,391.49,74a13.91,13.91,0,0,0-2-2.33h-.05l-.06-.06h0l-1.11-1h0l-.2-.19.59-1.45a2.17,2.17,0,0,0-.6-2.46L386.42,65l-5.14-4.39A18.75,18.75,0,0,0,378.77,55a16.73,16.73,0,0,0-5.59-5.09,10,10,0,0,0-.58-1h0l-.48-.7-.61-.9h0a24.5,24.5,0,0,0-2.75-3.5h0A6.23,6.23,0,0,0,367,42.6h-.12a2.22,2.22,0,0,0-.81-.41,2.8,2.8,0,0,0-.71-.06,15,15,0,0,0-3.74-3.49h0A14.39,14.39,0,0,0,356,36.2h0l-.27-.05h0a62.32,62.32,0,0,0-7-.52c-3.59-.12-7.22-.22-10.89-.21h-.95l-1-1.82a2.16,2.16,0,0,0-2.68-1l-2.84,1.08h-.06a66.74,66.74,0,0,0-13.79,7c-.63.42-1.24.86-1.86,1.31h0c-2.92,2.17-6.07,4.31-9.23,6.66a69.69,69.69,0,0,0-9.24,8c-14.51,15.55-26.24,33-33.36,53.42h0a.29.29,0,0,1,0,.13c-.44.5-1.11,1.33-2,2.47-3.13,4-8.88,11.54-13.86,18.14l-3.4,4.5h0l-9.34,10.86c-8.94,10.42-17.52,21-26.37,31.3-7.51,8.72-15.37,17.25-23.09,26C174.8,214.7,165,226,155,237.17s-19.7,22.75-30.1,33.34c-14.62,14.91-3.71,4-18,19.12-6.71,7.1-13.4,14.21-20.37,21.59h0l-.43.46a87.4,87.4,0,0,0-10.3,5.88,48.69,48.69,0,0,0-11.14,10.2A38.38,38.38,0,0,0,60.6,334h0a24.37,24.37,0,0,0-2.3,6.73c-.06.38-.12.77-.17,1.17h0a17.27,17.27,0,0,0-.23,2.87h0a8.83,8.83,0,0,0,1.54,4.71c.17.25.35.46.52.68h0l.09.11h0l.17.23a4.57,4.57,0,0,1,.47,1.06h0a10.48,10.48,0,0,1,.37,1.75l.44,3.55a2.2,2.2,0,0,0,1.6,1.82,12,12,0,0,0,1.77,2h0a85.71,85.71,0,0,0,10.68,8.9h0a18,18,0,0,0,5,2.26c.72.2,1.44.37,2.16.5a21.51,21.51,0,0,0,3,.33h.07a33.43,33.43,0,0,0,4-.25h0a4.82,4.82,0,0,1,.93,0h.17l.21.06h0a5.65,5.65,0,0,0,1.26.36,7.3,7.3,0,0,0,.94.1h.16a9.07,9.07,0,0,0,2.26-.26h.07a9.38,9.38,0,0,0,1.83-.68h0c2.7-1.34,5.54-2.75,8.35-4.47h0c.43-.26.85-.54,1.28-.82a37,37,0,0,0,8.6-8.3,68.35,68.35,0,0,0,5.92-9.54l.23-.46a4.19,4.19,0,0,0,.49-.2c.39-.19,35.88-33.9,38.76-36.62s30.28-29.32,40.92-39.82c15.84-15.39,115.24-100,115.24-100s3.17-.8,3.34-.86l.7-.22.74-.29c4.9-2.22,9.9-4.4,14.89-6.75a168.34,168.34,0,0,0,23.27-12.93,106.83,106.83,0,0,0,12.16-9.57,160.84,160.84,0,0,0,11.92-11.87,27,27,0,0,0,3.23-4.7h0c.85-1.51,1.56-2.94,2.23-4.13,2.7-4.76,5.33-9.54,7.94-14.32h0a6.76,6.76,0,0,0,.68-2A3.55,3.55,0,0,0,398.62,103.48Zm-15.62,13-1.89-1.07c-.85,1.51-1.56,3-2.25,4.16h0a17.6,17.6,0,0,1-2,3h0a154.05,154.05,0,0,1-11.17,11.11,96.74,96.74,0,0,1-11,8.66,159.58,159.58,0,0,1-21.89,12.15c-4,1.88-8.09,3.69-12.21,5.54-2-1.26-3.82-2.33-5.29-3.44h0l-.19-.15-.42-.34h0c-1.36-1.14-4.34-3.73-8.07-7.17-5.61-5.16-13-12.28-19.4-19.43a130.43,130.43,0,0,1-8.58-10.47h0a41.17,41.17,0,0,1-5.07-8.67h0c6.63-17.53,17-32.8,30.05-46.66a58.56,58.56,0,0,1,7.91-6.84c2.92-2.17,6.07-4.31,9.23-6.65.49-.37,1-.73,1.5-1.07h0A51,51,0,0,1,329.92,45l1.2.48.26.12.13.07.16.06h0l.25.09q.31.1.63.18h.09a5.67,5.67,0,0,0,1.54,0h0c.91-.11,1.69-.25,2.29-.34h0a10.73,10.73,0,0,1,1.39-.14h0c3.46,0,7,.08,10.5.2a51.4,51.4,0,0,1,5.81.41h.08a4.55,4.55,0,0,1,1.57.67h0a5.5,5.5,0,0,1,1.39,1.33h0l.15.26v.09h0l.62,1.9a2.18,2.18,0,0,0,2,1.5l2,.08h.4c.18.26.38.53.58.83h0l.61.9.56.82a1.82,1.82,0,0,1,.15.27h0A11.4,11.4,0,0,0,365,56h0a7,7,0,0,0,1,1.23,6.37,6.37,0,0,0,1.68,1.18h0a6.42,6.42,0,0,1,2.71,2.29,10.1,10.1,0,0,1,1.44,3.7l.16.78h0v.18a2.24,2.24,0,0,0,.71,1.21l.75.65c1.58,1.34,2.94,2.5,4.25,3.63a5.69,5.69,0,0,0,.07.83h0a9.14,9.14,0,0,0,1.53,3.86h0l.05.06a2.25,2.25,0,0,0,.63,1L381.54,78l.93.83h.06a3.66,3.66,0,0,1,.55.63,8,8,0,0,1,.6,1.12h0c.22.49.47,1.13.78,1.89h0c.61,1.45,1.2,2.81,1.72,4.12h0A54.89,54.89,0,0,1,388,93.12h0a18.53,18.53,0,0,1,.49,3.92c.05,1.41,0,3,0,4.7h0q-3.7,6.8-7.49,13.52ZM122.52,347.65Z" transform="translate(-0.03)" style="fill:#474747"/><polygon points="58.41 349.5 58.41 349.5 58.41 349.5 58.41 349.5" style="fill:#474747"/><polygon points="106.36 366.77 106.36 366.77 106.36 366.77 106.36 366.77" style="fill:#474747"/><polygon points="67.52 344.83 67.52 344.84 67.52 344.84 67.52 344.83" style="fill:#474747"/><polygon points="57.26 347.13 57.26 347.12 57.26 347.12 57.26 347.13" style="fill:#474747"/><polygon points="119.53 346.79 119.52 346.81 119.52 346.82 119.53 346.79" style="fill:#474747"/><polygon points="61.64 326.05 61.64 326.05 61.64 326.05 61.64 326.05" style="fill:#474747"/><polygon points="121.32 345.85 121.29 345.88 121.28 345.89 121.32 345.85" style="fill:#474747"/><path d="M131.71,273.29c-20.88,22.2-16.57,18-37.31,40.1a67.6,67.6,0,0,0,3.72,6.16,76.69,76.69,0,0,0,20,19.8c7.75-5.94,17.51-15.81,38.89-36.92a48,48,0,0,1-18.64-16.37A66.83,66.83,0,0,1,131.71,273.29Z" transform="translate(-0.03)" style="fill:#eab9e5"/><path d="M109.69,342.62a26.1,26.1,0,0,1-4-3c-1.5-1.42-3.12-2.86-4.73-4.43a34.11,34.11,0,0,1-4.54-5.28,24.23,24.23,0,0,1-1.85-3.3h0l-.08-.16-.15-.19h0v-.14h0c-1.72-2.32-3.45-4.66-5.38-7.25a80.56,80.56,0,0,0-9.61,5.46A41.11,41.11,0,0,0,70,332.87a30.44,30.44,0,0,0-3.26,5,16,16,0,0,0-1.56,4.52,5.3,5.3,0,0,1-.12.75h0c-.08.61-.15,1.09-.16,1.38h0a1.46,1.46,0,0,0,0,.51.87.87,0,0,0,.14.27l.16.21h0a8.47,8.47,0,0,1,.58.76h0a12,12,0,0,1,1.49,3.16,18,18,0,0,1,.65,3h0v.16h0a4,4,0,0,0,.67,1.82,4.34,4.34,0,0,0,.66.76l.22.2h0a76.28,76.28,0,0,0,9.47,7.92,10.22,10.22,0,0,0,2.85,1.25,14,14,0,0,0,3.32.53,15,15,0,0,0,2.22-.14h0a15.56,15.56,0,0,1,3.2-.09,8,8,0,0,1,.84.11,9,9,0,0,1,1.44.39l.41-.14h0c2.69-1.34,5.31-2.65,7.73-4.14l1-.62a28.84,28.84,0,0,0,6.76-6.56,59.44,59.44,0,0,0,5.22-8.43h0a1.62,1.62,0,0,0,.1-.18l-.39-.24C112.36,344.25,111,343.49,109.69,342.62Z" transform="translate(-0.03)" style="fill:#adadad"/><path d="M162.26,297a37.84,37.84,0,0,1-7.71-3.93h0c-4.59-3.13-15.83-15.75-17.86-23.92-.1-.38,49.84-54.53,73.16-81.07a44.69,44.69,0,0,0,4,7.19,69.7,69.7,0,0,0,8.24,9.75c2.85,2.9,5.74,6,9.07,8.83A49.59,49.59,0,0,0,238.3,219C212.12,244.76,188.4,271.28,162.26,297Z" transform="translate(-0.03)" style="fill:#fff"/><path d="M169.77,250.68a.19.19,0,0,1-.27,0h0l-3.73-3.42a.19.19,0,0,1,0-.27h0l.56-.61c.65-.71,1.32-.8,2.21,0s.85,1.49.21,2.2l-.15.16a.16.16,0,0,0,0,.23h0l1.34,1.23a.19.19,0,0,1,0,.27h0Zm-1.69-3.81c-.57-.52-.92-.52-1.32-.09l-.15.16a.16.16,0,0,0,0,.24l1.28,1.17a.16.16,0,0,0,.21,0l0,0,.15-.16C168.68,247.74,168.65,247.4,168.08,246.87Z" transform="translate(-0.03)" style="fill:#474747"/><path d="M170,242.61a.19.19,0,0,1,0-.26l1.26-1.37a.19.19,0,0,1,.26,0l.17.16a.18.18,0,0,1,0,.25h0l-.83.91a.16.16,0,0,0,0,.22l1.11,1a.15.15,0,0,0,.21,0l.71-.77a.19.19,0,0,1,.26,0l.17.16a.19.19,0,0,1,0,.26l-.71.77a.18.18,0,0,0,0,.22l1.15,1a.14.14,0,0,0,.2,0h0l.84-.92a.18.18,0,0,1,.25,0l.18.16a.19.19,0,0,1,0,.26L174,246a.19.19,0,0,1-.26,0Z" transform="translate(-0.03)" style="fill:#474747"/><path d="M178.52,241.14a.17.17,0,0,1-.23,0l-3.36-3.08a.13.13,0,0,0-.18,0h0l-.49.54a.18.18,0,0,1-.24,0l-.2-.19a.17.17,0,0,1,0-.23l1.61-1.75a.16.16,0,0,1,.23,0h0l.2.18a.16.16,0,0,1,0,.23h0l-.49.54a.13.13,0,0,0,0,.18h0l3.36,3.08a.17.17,0,0,1,0,.23Z" transform="translate(-0.03)" style="fill:#474747"/><path d="M178.11,233.75a.17.17,0,0,1,0-.23l.22-.23a.16.16,0,0,1,.21,0l0,0,3.78,3.45a.18.18,0,0,1,0,.24l-.21.23a.16.16,0,0,1-.23,0h0Z" transform="translate(-0.03)" style="fill:#474747"/><path d="M185.72,233.28a.16.16,0,0,1-.22,0l-3.37-3.09a.11.11,0,0,0-.15,0l0,0-.51.56a.16.16,0,0,1-.22,0l-.22-.2a.18.18,0,0,1,0-.22l1.63-1.77a.14.14,0,0,1,.2,0h0l.22.2a.14.14,0,0,1,0,.2h0l-.51.56a.12.12,0,0,0,0,.17h0l3.37,3.09a.16.16,0,0,1,0,.22Z" transform="translate(-0.03)" style="fill:#474747"/><path d="M185.32,225.89a.18.18,0,0,1,0-.24l1.28-1.39a.16.16,0,0,1,.23,0h0l.2.18a.16.16,0,0,1,0,.24l-.86.93a.15.15,0,0,0,0,.2l1.13,1a.14.14,0,0,0,.19,0l.73-.8a.17.17,0,0,1,.23,0l.2.19a.16.16,0,0,1,0,.23h0l-.73.8a.14.14,0,0,0,0,.19l1.17,1.07a.14.14,0,0,0,.19,0l.86-.94a.16.16,0,0,1,.23,0h0l.2.18a.16.16,0,0,1,0,.24l-1.28,1.39a.16.16,0,0,1-.23,0h0Z" transform="translate(-0.03)" style="fill:#474747"/><path d="M189.58,223l-.92-.84a.09.09,0,0,1,0-.12l.29-.31a.07.07,0,0,1,.1,0h0l.41.37a.26.26,0,0,1,.09.16l.14.64a.11.11,0,0,1,0,.11Z" transform="translate(-0.03)" style="fill:#474747"/><path d="M195.48,222.64a.16.16,0,0,1-.22,0L193.43,221c-.34-.31-.62-.36-.86-.1s-.18.53.17.85l1.83,1.68a.16.16,0,0,1,0,.22l-.21.23a.16.16,0,0,1-.22,0l-2.6-2.39a.14.14,0,0,1,0-.2h0l.21-.23a.16.16,0,0,1,.22,0l.17.16h0a.75.75,0,0,1,.16-.85c.4-.43.88-.41,1.47.14l1.91,1.74a.18.18,0,0,1,0,.22Z" transform="translate(-0.03)" style="fill:#474747"/><path d="M206.28,222.28c-2.45-2.25-4.26-1.56-5.06-.69-1.29,1.41-.62,3.65-.4,3.06a5.5,5.5,0,0,1,.86-2.51c.65-.7,1.57-.94,3.7,1,2.63,2.42,3,8.2.78,12.45h0c-.18.35-.26.07-.27,0h0c-.59-4.82-2-9.54-2.79-10.24-.33-.3-.89-.06-1.23.13a.4.4,0,0,0-.18.49V226c.25,1.63,1.43,10,.24,11.34-.68.74-1.68-6.3-1.9-7.79a.47.47,0,0,0-.37-.38,1.15,1.15,0,0,0-1,.37.33.33,0,0,0-.09.27,38.42,38.42,0,0,0,.75,5,22.18,22.18,0,0,1,.32,2.69,4.48,4.48,0,0,1-.5,2.76c-.17.19-.34.13-.52,0-1.77-1.62-2.27-7.5-2.5-11a1,1,0,0,1,.23-.67c1.33-1.44,2.51-2.24,4-1.53.08,0,.16-.06.1-.11-1-.91-2.1-2-4.49.3a1.7,1.7,0,0,0-.1-.59,1.41,1.41,0,0,0-1.08-.15.26.26,0,0,0-.2.27c0,.27,0,.85.06,1.63a.86.86,0,0,1-.14.46c-.71.84-1.36,1.66-1.94,2.45-.07.07-.08-.06-.08-.06h0a9.06,9.06,0,0,0-.19-1.87,1.4,1.4,0,0,0-1-.17.33.33,0,0,0-.26.34c0,.46.07,1.63.17,3.1h0v.11h0a1.33,1.33,0,0,1-.1.62,40.3,40.3,0,0,1-2.74,3.74c-3.45,3.77-4.82,1.93-5.19,2.35-.2.21,2.58,2.33,6.05-1.45a29.56,29.56,0,0,0,2-2.47c.08-.08.17-.1.22.12.16,1.69.38,3.46.68,5,.27,2.23.85,6.33-.24,7.51a.8.8,0,0,1-1.12.18.77.77,0,0,1-.18-.18,4.86,4.86,0,0,1-1.12-2.47h0c-.13-.67-.17-.78.18-.85a1.8,1.8,0,0,0,1.18-.54c1.29-1.4-.09-4-.8-4.64-.51-.47-1.58-.06-2.06.47s-.47,2.68-.07,4.74c.1.54.22,1.2.32,2l.09.82v.24c.2,1.93.29,3.71,0,4a.43.43,0,0,1-.6.07.46.46,0,0,1-.07-.07c-.81-.74-.59-5.94-1.59-6.86s-2.25.49-2.65.13-.21-1.34-.6-1.69c-.21-.2-.79.08-1.06.37a2.34,2.34,0,0,0,.18,2.29c.32.3.76.13.82.18.44.39,1.86,10.18,1.11,11a1,1,0,0,1-.64.28c-.21,0-.39.09-.23.23.34.31,1,.92,1.67.15,1.14-1.23-.36-10-1-11.55a.26.26,0,0,1,.12-.36h0c.33-.15.88-.27,1.13,0,.77.71.79,6.11,1.66,6.91a1.72,1.72,0,0,0,2.43.14l.05,0c.52-.57.48-2.37.26-4.29,0-.14,0-.3.27-.14a2.52,2.52,0,0,0,3.39.15c.85-.93.54-3.08.39-4.59,0-.14,0-.2.15-.09,1.24,1.11,2.39,1.52,3.24.59.51-.56.33-2.46.11-4.33,0-.15,0-.13.08-.11,1.08.94,2.42,1.59,3.31.63.44-.49.39-1.7.25-3,0-.13,0-.37.29-.15h0c1.23,1,1.84.53,2.24.1.91-1,.39-4.65.11-7.07,0-.3,0-.49.16,0a41.33,41.33,0,0,1,1.39,6.52,1.06,1.06,0,0,1-.17.67c-3.22,3.53-5.33,6.51-3.52,8.17,1.21,1.12,3.24,0,3.59-.38,1.32-1.44,1.68-4.31,1.54-7.45a.83.83,0,0,1,.11-.46C209.08,234.32,211.64,227.19,206.28,222.28Zm-17,18.23c.43-.47,1.5,2.48.65,3.41a2.3,2.3,0,0,1-.38.32c-.25.18-.35-.24-.37-.32a8.52,8.52,0,0,1,.12-3.41Zm6.39,3.55c-.17.19-.34.13-.53-.05-1.53-1.4-2.14-6.4-2.45-10.17h0a1,1,0,0,1,.12-.53l1.81-2.55c.08-.1.14-.16.16,0a53.61,53.61,0,0,0,.74,6.19c.48,2.94.92,6.29.17,7.11Zm7.54,1.46c-.9,1-1.9-.17-1.61-1.81a6.93,6.93,0,0,1,1.56-2.62l.7-.76h0l.77-.81c.06-.05.14-.08.17,0,.1,2.48-.31,4.62-1.57,6Z" transform="translate(-0.03)" style="fill:#474747"/><path d="M182,256.29c1.32-1.43,1.51-6.42-1-8.72-2.77-2.55-4-1.63-4-1.63s-1.22-.52-2.94,1.36a10.92,10.92,0,0,0-2.27,5.45h0v.11a1.42,1.42,0,0,1-.4.82l-.06.06h0c-.22.21-.41.42-.56.58-1.24,1.36-2.77,5.49-.2,7.84a1.92,1.92,0,0,0,2.36.47.11.11,0,0,0,0-.15l0,0A1.73,1.73,0,0,1,172,262a5.57,5.57,0,0,1-.47-7.29c.06-.08.17-.19.2,0a7.72,7.72,0,0,0,2.27,5.71,2.46,2.46,0,0,0,1.58.54,2,2,0,0,0,1.24-.35c.35-.38,2-4.51-.73-7a3.48,3.48,0,0,0-2.3-1.06c-.27-.08-.27-.63-.25-.89a8.45,8.45,0,0,1,2-4.41c1.49-1.62,3.13-.26,4.22.74,2.11,1.93,2.32,8.36.73,8.45-.25,0-.36-.25-.42-.43-.73-3.78-1.42-7.16-.77-7.87h0a.56.56,0,0,0-.73-.34l-.15.08a.75.75,0,0,0-.16.15c-1.89,2.06,3.29,16.25.31,19.5-2.35,2.56-5.5-2.9-3.73-4.83.6-.65,1.33.24,1.82.82.11.14.49,0,.41-.16a3.38,3.38,0,0,0-.88-1.11c-.55-.5-1.61-.23-2.29.51a4.25,4.25,0,0,0,1,5.17c2.18,2,2.82.62,3,.83.38.35,1.38,0,2.5-1.21,1.37-1.49.58-6.3-.27-10.77A1.67,1.67,0,0,0,182,256.29Zm-6.55,4.13c-.6.66-2.2-3-2.12-6.9a.25.25,0,0,1,.3-.27h.14C175.78,253.71,177.57,258.1,175.45,260.42Z" transform="translate(-0.03)" style="fill:#474747"/><path d="M98.61,326,80.83,339.89C81.34,335.6,92.24,326.58,98.61,326Z" transform="translate(-0.03)" style="fill:#474747"/><path d="M77.86,353.49C78,352.19,87.58,340.05,94,337Z" transform="translate(-0.03)" style="fill:#474747;stroke:#474747;stroke-miterlimit:10;stroke-width:0.75px"/><path d="M108.16,336.21c-1.5,4-18.89,20-23.93,21.73a18,18,0,0,1,1.6-3c6.12-7.28,13.52-13.09,21.29-18.46A4.54,4.54,0,0,1,108.16,336.21Z" transform="translate(-0.03)" style="fill:#474747;stroke:#474747;stroke-miterlimit:10;stroke-width:0.25px"/><path d="M304.08,161.88c-7.32-6.91-14.67-13.8-21.88-20.85a91,91,0,0,1-12.06-13.72,50.73,50.73,0,0,1-3.77-6.55c-6.73,7.84-47.8,57.54-47.8,57.54C220,189.69,244,210.56,249.7,212.48c0,0,55.86-46.31,57.69-48A36,36,0,0,1,304.08,161.88Z" transform="translate(-0.03)" style="fill:#eab9e5"/><path d="M403.34,12h0c-.27.14-1,6.73-1.17,7.19a28.51,28.51,0,0,1-4.4,9.22,28.55,28.55,0,0,1-6.1,6.12c-.7.52-6.69,4.36-7.24,4.36h0c1.44,1.63,14.35,2.66,17.63,18.77.12.59,1.49,7.77,1.56,7.77h0c.31-.09.91-5.29.93-6.05.39-16.72,18.25-20,18.15-20.88-5.47-3-10.43-5.32-14.32-11.36a28.38,28.38,0,0,1-3.8-9C404.39,17.53,403.63,12,403.34,12Z" transform="translate(-0.03)" style="fill:#fff;stroke:#fff;stroke-linecap:round;stroke-linejoin:round;stroke-width:24px"/><path d="M442.16,68.74h0c-.4.2-1.54,9.94-1.73,10.62A41.24,41.24,0,0,1,424.9,102c-1,.76-9.87,6.43-10.69,6.43h0c2.12,2.41,21.18,3.93,26,27.72.18.87,2.21,11.47,2.32,11.47.45-.13,1.33-7.8,1.36-8.93.58-24.69,26.95-29.58,26.81-30.84-8.08-4.45-15.41-7.85-21.16-16.77a42.7,42.7,0,0,1-5.6-13.25C443.7,76.91,442.59,68.74,442.16,68.74Z" transform="translate(-0.03)" style="fill:#fff;stroke:#fff;stroke-linecap:round;stroke-linejoin:round;stroke-width:22px"/><path d="M403.34,11.51h0c-.27.13-1,6.73-1.17,7.19a28.51,28.51,0,0,1-4.4,9.22,28.55,28.55,0,0,1-6.1,6.12c-.7.51-6.69,4.35-7.24,4.35h0c1.39,1.61,14.3,2.67,17.57,18.78.12.59,1.49,7.77,1.56,7.77h0c.31-.09.91-5.29.93-6,.39-16.72,18.25-20,18.15-20.89-5.47-3-10.43-5.32-14.32-11.35a28.38,28.38,0,0,1-3.8-9C404.39,17.05,403.63,11.51,403.34,11.51Z" transform="translate(-0.03)" style="fill:#e077bd"/><path d="M442.22,77.26h0c-.31.15-1.17,7.51-1.31,8a31.2,31.2,0,0,1-11.73,17.13c-.77.58-7.46,4.86-8.08,4.86h0c1.6,1.83,16,3,19.68,21,.13.66,1.67,8.68,1.75,8.68.34-.1,1-5.9,1-6.75.44-18.67,20.38-22.37,20.27-23.33-6.11-3.36-11.65-5.93-16-12.67a32,32,0,0,1-4.23-10C443.38,83.44,442.54,77.26,442.22,77.26Z" transform="translate(-0.03)" style="fill:#e077bd"/><path d="M442.16,95.19c.37.67.77,1.33,1.19,2a33.63,33.63,0,0,0,9.8,9.9,31.34,31.34,0,0,0-11.41,11,29.07,29.07,0,0,0-10.56-10.65c.16-.11.3-.2.4-.28a38.19,38.19,0,0,0,8.21-8.24,38.7,38.7,0,0,0,2.37-3.7M442,76.74h0c-.32.15-1.22,7.81-1.36,8.34a32.5,32.5,0,0,1-12.19,17.8c-.81.6-7.76,5.06-8.4,5.06h0c1.66,1.89,16.64,3.09,20.45,21.78.14.69,1.74,9,1.81,9,.36-.1,1.06-6.14,1.08-7,.45-19.4,21.18-23.25,21.07-24.24-6.36-3.49-12.11-6.17-16.63-13.18a33.13,33.13,0,0,1-4.4-10.41C443.21,83.16,442.34,76.74,442,76.74Z" transform="translate(-0.03)" style="fill:#474747;stroke:#474747;stroke-miterlimit:10;stroke-width:0.75px"/><path d="M407.63,13.41h0m-4.15,14.48c.32.58.67,1.15,1,1.71A28.83,28.83,0,0,0,413,38.12a27.07,27.07,0,0,0-9.83,9.48,24.86,24.86,0,0,0-9.1-9.17c.14-.1.26-.18.34-.25a32.65,32.65,0,0,0,7.08-7.1,31,31,0,0,0,2-3.19M403.34,12h0c-.27.14-1,6.73-1.17,7.19a28.51,28.51,0,0,1-4.4,9.22,28.55,28.55,0,0,1-6.1,6.12c-.7.52-6.69,4.36-7.24,4.36h0c1.44,1.63,14.35,2.66,17.63,18.77.12.59,1.49,7.77,1.56,7.77h0c.31-.09.91-5.29.93-6.05.39-16.72,18.25-20,18.15-20.88-5.47-3-10.43-5.32-14.32-11.36a28.38,28.38,0,0,1-3.8-9C404.39,17.53,403.63,12,403.34,12Z" transform="translate(-0.03)" style="fill:#474747;stroke:#474747;stroke-miterlimit:10;stroke-width:0.75px"/><polygon points="374.92 63.38 374.92 63.38 374.92 63.38 374.92 63.38" style="fill:#474747"/></g></g></svg>