<svg id="Layer_1" data-name="Layer 1" xmlns="http://www.w3.org/2000/svg" viewBox="0 0 368 426"><title>cherries</title><g id="Layer_2" data-name="Layer 2"><g style="opacity:0.12"><path d="M268.77,139.45c-4.61-10.14,8.36-20.79,14.39-23.31,14.58-6.07,20.28,18.12,3.39,18.09C273.32,134.21,272.9,142.93,268.77,139.45Z" transform="translate(-0.06 0)" style="fill:#6a374f"/><path d="M264.14,144.63c-2.69-4.4-9.55-.22-6.85,4.19S266.84,149.05,264.14,144.63Z" transform="translate(-0.06 0)" style="fill:#6a374f"/><path d="M343.1,359.77c-4.89-2.74-10.47-4.24-15.73-6.31-3.51-1.38-6.26-.38-9.51,1.62-7,4.32-14.45,7.82-21.72,11.65-.25-.57-.5-1.14-.74-1.71.6-.4,1.19-.81,1.8-1.18,14.68-8.87,28-19.33,38-33.47,20.72-29.29,21.13-60.14,2.89-90.14-10.39-17.1-28.24-24.53-47.8-20.81-3.46.66-3.51-1.42-3.34-3.57.55-7.13.84-14.33,2-21.36,2.29-13.69,2.76-27.45.39-41-5.59-31.87-21.1-57.95-47.21-77.52a23.28,23.28,0,0,1-6-7.48C231,59,232.69,48.43,232.31,38.23a8.37,8.37,0,0,1,1.13-3.36c3.67-8.3-.22-14.11-9.16-12.64-14.8,2.42-26.13,10.53-33.93,23.28-2.75,4.5-1.33,8.38,2.93,11.61a20.6,20.6,0,0,1,4.11,4.53,80.51,80.51,0,0,1,5.84,9c1.28,2.39,2.89,5.21,2.67,7.69-1.1,12.26-1.9,24.66-4.37,36.74-8.05,38.83-22.59,75.31-42.14,109.76-7.21,12.72-4.89,15.32-24.13,10a98.25,98.25,0,0,0-47.4-1.31c-10.58,2.25-20.13,7.11-26.71,16-9.3,12.59-15.24,26.77-16.4,42.45-2.4,32.53,5.25,62.1,27.36,87A47.21,47.21,0,0,1,75,383l-1,.81c-2.32-2-5.13-3.71-6.86-6.16-4.38-6.19-10.19-7.24-17.2-6.51-8.06.84-16.1,1.58-23.19,5.89-6.26,3.82-6.28,10.17.09,13.81a29.23,29.23,0,0,0,10.84,3.93c16,1.73,32,3.12,48.09,4.27,5.55.4,10.74.89,15.85,3.68,15,8.17,30.88,10,47.69,6.89,19.2-3.54,34.93-13.26,49.35-25.73,1.26-1.1,2.57-2.13,3.87-3.19l1.21,1.09L188.25,402h6.81c28.49-.72,57-1.22,85.46-2.29a334.22,334.22,0,0,0,38.3-3.4A80.72,80.72,0,0,0,343,389C357,381.91,356.8,367.43,343.1,359.77Zm-75-166.22c-1.08,9.45-1.32,19-1.55,28.54a8.53,8.53,0,0,1-3.69,7.46A27.53,27.53,0,0,1,242,235.48c-9.87-1.11-19.24,1.16-28.2,5.46-1.34.64-4.09.6-4.93-.3-6.5-6.94-14.06-10.93-23.81-10-.23,0-.49-.29-1.53-.94,18.8-42.7,36.47-86,44-133.31,14.94,9.42,24.91,21.73,32,36.9,9,19.33,10.87,39.37,8.49,60.26Z" transform="translate(-0.06 0)" style="fill:#6a374f;stroke:#6a374f;stroke-linecap:round;stroke-linejoin:round;stroke-width:28px"/><path d="M110,253.88c3.24,2.64,6.2,5.79,9.79,7.8a30.31,30.31,0,0,0,26.8,1.86c8.85-3.52,17.36-7.9,26-12a4.48,4.48,0,0,0,2.19-2.55c2-7.92,9.23-12.9,17.17-10.64a24.07,24.07,0,0,1,10.41,6.42c10.84,11.49,17.64,25.32,19.35,41C226.34,328.18,211.2,363,178,389.15c-25.43,20.08-62.3,22-91.63-5.13-27.25-25.23-37.49-57-34.23-93.38,1.15-12.84,6.2-24.56,13.55-35.1s18.41-15,30.66-16.24c14.17-1.46,28.33-1.52,41.79,4.46.94.42,2.13.34,3,.85a41.7,41.7,0,0,1,4,3c-1.75,1.56-3.27,3.9-5.3,4.49-2.75.79-5.9.16-8.87.31-1.32.07-3.08.11-3.85.92-4.8,5.06-9.3,2.44-13.88-.2a3.84,3.84,0,0,0-1.27-.4,3.11,3.11,0,0,0-.86.09Z" transform="translate(-0.06 0)" style="fill:#6a374f"/><path d="M229.4,271.11a99.52,99.52,0,0,1,1,50.34c-1.15,4.82-3.37,9.4-5.49,13.89,1.51-8.48,3.38-16.92,4.44-25.46,2.5-20.19-1.55-39.14-11.73-56.77-2.51-4.36-2.46-5.6,2.2-6.79,6.85-1.76,14-3.57,20.93-3.52,8.79.06,17-.24,23.84-6.5a5.08,5.08,0,0,1,1.54-.64c3.84,5.64,2.92,8.09-2.79,10.41-2.83,1.15-5,3.74-7.66,5.51a52.25,52.25,0,0,1-5.25,2.73c7.29,3.54,14.17,3.42,21.09-.12,4.24-2.17,8.29-5,12.79-6.29,5.93-1.66,12.21-2.06,18.34-2.93a27.77,27.77,0,0,1,3.87,0l.33-1.46-14.33-4.23-1.37-1.42,7.76-5.16-.83-1.56a54.23,54.23,0,0,1-6.08,1.13,21.18,21.18,0,0,1-4.41-.53c.79-1.56,1.17-3.84,2.44-4.56a20,20,0,0,1,15.15-1.91C320,229,330,238.12,336.34,251.83c13.37,28.8,8.53,54.82-10.75,79.33a106.82,106.82,0,0,1-49.44,35.43c-17.25,6.12-31.23-.18-43.91-11.21-1.17-1-1.12-4.43-.49-6.36,6.06-18.52,9.45-37.34,6.14-56.79-1-6-3.19-11.75-5-17.57-.44-1.41-1.59-2.6-2.42-3.9Z" transform="translate(-0.06 0)" style="fill:#6a374f"/><path d="M223.87,76.28a6.29,6.29,0,0,0-.48,2c0,19.63-4.67,38.38-10.63,56.89a781.29,781.29,0,0,1-39.32,98.25c-1.73,3.63-4.05,7-5.42,10.77-3.22,8.85-11.13,10.18-19.79,13.26,1.22-2.84,1.82-4.54,2.65-6.14,10.69-20.8,22.32-41.17,31.9-62.46,11.74-26.1,21.28-53.08,25-81.79,1.32-10.14,4-20.1,5.49-30.22.37-2.45-.79-5.43-2-7.75-1.67-3.12-4.11-5.82-6.21-8.71-1.71-2.35-1-4.07.82-6.26,2.8-3.28,5-7.12,7.37-10.72l-1.15-1.16-14.45,8.31c-.69-8.21,19.52-22.29,30-20.45-1.51,2.29-2.65,4.37-4.12,6.17-2.35,2.9-3.52,5.32.13,8.34,1.24,1,1.55,3.74,1.53,5.67-.1,9.5,1.68,18.42,7.48,26.15a31.7,31.7,0,0,0,5.59,5.69c36.56,29,50.55,66.55,43.3,112.37-2,12.91-2.34,25.83.27,38.72.44,2.19.68,4.42.94,6.64.52,4.29-2.9,5.48-5.78,6.11-3.29.73-2.88-2.56-3.35-4.59a109.38,109.38,0,0,1-.78-43.59c4.6-26.34,0-50.65-12.91-73.75a43.87,43.87,0,0,1-4.65-11c-2.61-11.21-10-18.69-18.49-25.58C232.42,83.8,228.2,80,223.87,76.28Z" transform="translate(-0.06 0)" style="fill:#6a374f"/><path d="M223.94,76.24a6,6,0,0,0-.49,2c0,19.63-4.67,38.38-10.63,56.89a783.36,783.36,0,0,1-39.31,98.25c-1.74,3.62-4.06,7-5.42,10.77-3.22,8.85-11.09,10.2-19.79,13.28,1.21-2.84,1.82-4.55,2.64-6.14,10.69-20.8,22.32-41.17,31.9-62.47,11.74-26.1,21.29-53.08,25-81.78,1.31-10.14,3.95-20.1,5.48-30.22.37-2.45-.78-5.44-2-7.75-1.68-3.12-4.12-5.83-6.22-8.72-1.7-2.35-1-4.06.82-6.25,2.81-3.28,5-7.12,7.38-10.72l-1.15-1.16-14.46,8.3c-.68-8.2,19.53-22.28,30-20.45-1.52,2.3-2.66,4.37-4.13,6.18-2.35,2.89-3.52,5.32.13,8.34,1.25,1,1.55,3.73,1.53,5.67-.1,9.49,1.69,18.41,7.49,26.15a31,31,0,0,0,5.59,5.69c36.56,29,50.54,66.55,43.3,112.37-2,12.91-2.35,25.83.26,38.72.44,2.19.68,4.42.95,6.63.52,4.3-2.91,5.48-5.78,6.12-3.3.72-2.89-2.57-3.35-4.59a109.61,109.61,0,0,1-.79-43.6c4.6-26.34,0-50.64-12.9-73.75a43.34,43.34,0,0,1-4.63-11.09c-2.6-11.2-10-18.68-18.48-25.57C232.49,83.75,228.26,80,223.94,76.24Z" transform="translate(-0.06 0)" style="fill:#6a374f"/><path d="M110.05,253.84c3.25,2.63,6.2,5.79,9.8,7.8a30.31,30.31,0,0,0,26.8,1.85c8.84-3.52,17.35-7.89,25.95-12a4.46,4.46,0,0,0,2.2-2.55c2-7.94,9.2-12.94,17.2-10.64a24.1,24.1,0,0,1,10.42,6.42c10.83,11.48,17.63,25.32,19.34,41,4.64,42.42-10.51,77.22-43.66,103.39-25.44,20.07-62.31,22-91.63-5.14C59.22,358.75,49,327,52.24,290.59c1.15-12.84,6.2-24.55,13.55-35.09s18.4-15,30.65-16.24c14.17-1.46,28.34-1.52,41.79,4.45.94.42,2.13.34,3,.85a41.7,41.7,0,0,1,4,3c-1.74,1.56-3.26,3.91-5.29,4.49-2.76.8-5.91.17-8.88.32-1.31.06-3.08.11-3.84.91-4.81,5.07-9.3,2.45-13.88-.2a4.06,4.06,0,0,0-1.28-.4,3,3,0,0,0-.85.09Z" transform="translate(-0.06 0)" style="fill:#6a374f"/><path d="M229.47,271.07a99.48,99.48,0,0,1,1,50.33c-1.16,4.83-3.37,9.4-5.49,13.9,1.5-8.48,3.38-16.93,4.44-25.47,2.5-20.18-1.55-39.14-11.73-56.77-2.52-4.35-2.46-5.59,2.2-6.79,6.84-1.76,13.94-3.56,20.92-3.51,8.79.05,17-.25,23.85-6.5a4.74,4.74,0,0,1,1.54-.64c3.84,5.64,2.91,8.09-2.8,10.41-2.83,1.15-5,3.73-7.66,5.51a57.87,57.87,0,0,1-5.24,2.73c7.28,3.53,14.17,3.42,21.08-.12,4.24-2.18,8.3-5,12.79-6.3,5.93-1.65,12.21-2.06,18.35-2.92a27.63,27.63,0,0,1,3.86,0l.34-1.45-14.34-4.23c-.45-.48-.91-.95-1.36-1.42l7.76-5.16-.83-1.57a52.65,52.65,0,0,1-6.09,1.14,22.61,22.61,0,0,1-4.41-.53c.79-1.57,1.18-3.85,2.44-4.57a20,20,0,0,1,15.16-1.9c14.77,3.73,24.81,12.87,31.17,26.58,13.36,28.79,8.52,54.82-10.76,79.33a106.63,106.63,0,0,1-49.44,35.43c-17.25,6.11-31.23-.19-43.91-11.22-1.16-1-1.12-4.42-.49-6.35,6.06-18.52,9.45-37.34,6.15-56.79-1-6-3.19-11.76-5-17.57-.45-1.41-1.6-2.61-2.42-3.9Z" transform="translate(-0.06 0)" style="fill:#6a374f"/><path d="M201.88,287.82c-5.26-21-31.73-27.76-40.36-16.17a12.19,12.19,0,0,0-1.81,9.43c1.17,4.65,5.89,8.75,12.79,8,16.8-1.83,17.79,15.74,18.51,21,.6,4.34,2.12,6,5.38,5.28C200.67,314.44,205.41,301.87,201.88,287.82Z" transform="translate(-0.06 0)" style="fill:#6a374f"/><path d="M311.67,298.82c12.88-1.18,16.18-20.39,15.25-27.94-2.24-18.2-29.94-10-20.2,7C314.34,291.21,305.79,296.64,311.67,298.82Z" transform="translate(-0.06 0)" style="fill:#6a374f"/><path d="M310.16,312.66c-4.64,3.81,1.27,11,5.92,7.21S314.81,308.85,310.16,312.66Z" transform="translate(-0.06 0)" style="fill:#6a374f"/><path d="M119,390.63c-15.71-1-24.1-19-17-26.73a8.84,8.84,0,0,1,6.51-2.55c3.48.22,7,3,7.43,8.09.93,12.26,13.63,10.62,17.49,10.44,3.18-.15,4.54.72,4.49,3.15C137.86,386.21,129.49,391.27,119,390.63Z" transform="translate(-0.06 0)" style="fill:#6a374f"/><path d="M191.14,328.34c-4.9.34-4.38,8,.53,7.61S196,328,191.14,328.34Z" transform="translate(-0.06 0)" style="fill:#6a374f"/><path d="M296.14,366.73c7.27-3.83,14.75-7.33,21.72-11.65,3.25-2,6-3,9.51-1.62,5.26,2.07,10.84,3.57,15.73,6.31,13.7,7.66,13.9,22.14-.1,29.23a80.53,80.53,0,0,1-24.2,7.34,334.22,334.22,0,0,1-38.3,3.4c-28.47,1.07-57,1.57-85.46,2.29h-6.81l15.43-20.29-1.21-1.09c-1.3,1.06-2.61,2.09-3.87,3.18-14.42,12.48-30.15,22.2-49.35,25.74-16.81,3.1-32.73,1.28-47.69-6.89-5.11-2.79-10.3-3.28-15.85-3.68-16-1.15-32.1-2.54-48.09-4.27a29.23,29.23,0,0,1-10.84-3.93c-6.37-3.64-6.35-10-.09-13.81,7.09-4.31,15.13-5.05,23.19-5.89,7-.73,12.82.32,17.2,6.51,1.73,2.44,4.54,4.13,6.86,6.16l1-.81a48,48,0,0,0-2.81-4C50,354.08,42.35,324.51,44.75,292c1.16-15.68,7.1-29.86,16.4-42.45,6.58-8.9,16.13-13.76,26.71-16a98.25,98.25,0,0,1,47.4,1.31c19.24,5.36,16.92,2.76,24.13-10,19.55-34.45,34.09-70.93,42.14-109.76,2.5-12,3.27-24.48,4.37-36.77.22-2.48-1.39-5.3-2.67-7.69a80.51,80.51,0,0,0-5.84-9,20.6,20.6,0,0,0-4.11-4.53c-4.28-3.22-5.68-7.11-2.93-11.6,7.8-12.75,19.13-20.86,33.93-23.28,8.94-1.47,12.83,4.34,9.16,12.64a8.37,8.37,0,0,0-1.13,3.36c.38,10.2-1.36,20.73,3.82,30.26a23.28,23.28,0,0,0,6,7.48c26.11,19.57,41.62,45.65,47.21,77.52,2.37,13.55,1.9,27.31-.39,41-1.18,7-1.47,14.23-2,21.36-.17,2.15-.12,4.23,3.34,3.57,19.56-3.72,37.41,3.71,47.8,20.81,18.24,30,17.83,60.85-2.89,90.14-10,14.15-23.32,24.6-38,33.47-.61.37-1.2.78-1.8,1.18ZM110,253.88l1.06-1.15a3.11,3.11,0,0,1,.86-.09,3.84,3.84,0,0,1,1.27.4c4.58,2.64,9.08,5.26,13.88.2.77-.81,2.53-.85,3.85-.92,3-.15,6.12.48,8.87-.31,2-.59,3.55-2.93,5.3-4.49a41.7,41.7,0,0,0-4-3c-.86-.51-2.05-.43-3-.85-13.46-6-27.62-5.92-41.79-4.46C84.09,240.52,73,245,65.68,255.49s-12.4,22.26-13.55,35.1c-3.26,36.41,7,68.15,34.23,93.38,29.33,27.14,66.2,25.21,91.63,5.13,33.16-26.17,48.3-61,43.67-103.38-1.71-15.64-8.51-29.47-19.35-41a24.07,24.07,0,0,0-10.41-6.42C184,236,176.72,241,174.73,248.94a4.48,4.48,0,0,1-2.19,2.55c-8.6,4.11-17.11,8.49-26,12a30.31,30.31,0,0,1-26.8-1.86C116.19,259.67,113.23,256.52,110,253.88Zm119.4,17.23,1.06-.35c.83,1.3,2,2.49,2.42,3.9,1.82,5.82,4,11.6,5,17.57,3.31,19.45-.08,38.27-6.14,56.79-.63,1.93-.68,5.34.49,6.36,12.68,11,26.66,17.33,43.91,11.21a106.82,106.82,0,0,0,49.44-35.43c19.28-24.51,24.12-50.53,10.75-79.33C330,238.12,320,229,305.17,225.25A20,20,0,0,0,290,227.16c-1.27.72-1.65,3-2.44,4.56a21.18,21.18,0,0,0,4.41.53,54.23,54.23,0,0,0,6.08-1.13l.83,1.56-7.76,5.16,1.37,1.42,14.33,4.23-.33,1.46a27.77,27.77,0,0,0-3.87,0c-6.13.87-12.41,1.27-18.34,2.93-4.5,1.25-8.55,4.12-12.79,6.29-6.92,3.54-13.8,3.66-21.09.12a52.25,52.25,0,0,0,5.25-2.73c2.61-1.77,4.83-4.36,7.66-5.51,5.71-2.32,6.63-4.77,2.79-10.41a5.08,5.08,0,0,0-1.54.64c-6.86,6.26-15,6.56-23.84,6.5-7-.05-14.08,1.76-20.93,3.52-4.66,1.19-4.71,2.43-2.2,6.79,10.18,17.63,14.23,36.58,11.73,56.77-1.06,8.54-2.93,17-4.44,25.46,2.12-4.49,4.34-9.07,5.49-13.89A99.55,99.55,0,0,0,229.4,271.11ZM227.57,96.39C220,143.69,202.33,187,183.48,229.74c1,.65,1.3,1,1.53.94,9.75-1,17.31,3,23.81,10,.84.9,3.59.94,4.93.3,9-4.3,18.33-6.57,28.2-5.46a27.54,27.54,0,0,0,20.87-5.93,8.53,8.53,0,0,0,3.69-7.46c.23-9.53.47-19.09,1.55-28.54,2.38-20.89.49-40.93-8.52-60.26C252.48,118.12,242.51,105.81,227.57,96.39Zm-3.7-20.11c4.33,3.73,8.55,7.52,12.94,11.1,8.45,6.89,15.88,14.37,18.49,25.58a44.19,44.19,0,0,0,4.62,11.09c12.91,23.1,17.51,47.41,12.91,73.75a109.38,109.38,0,0,0,.78,43.59c.47,2,.06,5.32,3.35,4.59,2.88-.63,6.3-1.82,5.78-6.11-.26-2.22-.5-4.45-.94-6.64-2.61-12.89-2.31-25.81-.27-38.72,7.25-45.82-6.74-83.42-43.3-112.37a31.7,31.7,0,0,1-5.59-5.69c-5.8-7.73-7.58-16.65-7.48-26.15,0-1.93-.29-4.64-1.53-5.67-3.65-3-2.48-5.44-.13-8.34,1.47-1.8,2.61-3.88,4.12-6.17-10.47-1.84-30.68,12.24-30,20.45l14.45-8.31,1.15,1.16c-2.42,3.6-4.57,7.44-7.37,10.72-1.87,2.19-2.53,3.91-.82,6.26,2.1,2.89,4.54,5.59,6.21,8.71,1.24,2.32,2.4,5.3,2,7.75-1.54,10.12-4.17,20.08-5.49,30.22-3.73,28.71-13.27,55.69-25,81.79-9.58,21.29-21.21,41.66-31.9,62.46-.83,1.6-1.43,3.3-2.65,6.14,8.66-3.08,16.57-4.41,19.79-13.26,1.37-3.75,3.69-7.14,5.42-10.77a781.29,781.29,0,0,0,39.32-98.25c6-18.51,10.66-37.26,10.63-56.89a6.39,6.39,0,0,1,.51-2Z" transform="translate(-0.06 0)" style="fill:#6a374f"/></g><g id="Layer_1-2" data-name="Layer 1-2"><path d="M260.77,131.45c-4.61-10.14,8.36-20.79,14.39-23.31,14.58-6.07,20.28,18.12,3.39,18.09C265.32,126.21,264.9,134.93,260.77,131.45Z" transform="translate(-0.06 0)" style="fill:#f4ddea"/><path d="M256.14,136.63c-2.69-4.4-9.55-.22-6.85,4.19S258.84,141.05,256.14,136.63Z" transform="translate(-0.06 0)" style="fill:#f4ddea"/><path d="M335.1,351.77c-4.89-2.74-10.47-4.24-15.73-6.31-3.51-1.38-6.26-.38-9.51,1.62-7,4.32-14.45,7.82-21.72,11.65-.25-.57-.5-1.14-.74-1.71.6-.4,1.19-.81,1.8-1.18,14.68-8.87,28-19.33,38-33.47,20.72-29.29,21.13-60.14,2.89-90.14-10.39-17.1-28.24-24.53-47.8-20.81-3.46.66-3.51-1.42-3.34-3.57.55-7.13.84-14.33,2-21.36,2.29-13.69,2.76-27.45.39-41-5.59-31.87-21.1-57.95-47.21-77.52a23.28,23.28,0,0,1-6-7.48C223,51,224.69,40.43,224.31,30.23a8.37,8.37,0,0,1,1.13-3.36c3.67-8.3-.22-14.11-9.16-12.64-14.8,2.42-26.13,10.53-33.93,23.28-2.75,4.5-1.33,8.38,2.93,11.61a20.6,20.6,0,0,1,4.11,4.53,80.51,80.51,0,0,1,5.84,9c1.28,2.39,2.89,5.21,2.67,7.69C196.8,82.6,196,95,193.53,107.08c-8.05,38.83-22.59,75.31-42.14,109.76-7.21,12.72-4.89,15.32-24.13,10a98.25,98.25,0,0,0-47.4-1.31c-10.58,2.25-20.13,7.11-26.71,16-9.3,12.59-15.24,26.77-16.4,42.45-2.4,32.53,5.25,62.1,27.36,87A47.21,47.21,0,0,1,67,375l-1,.81c-2.32-2-5.13-3.71-6.86-6.16-4.38-6.19-10.19-7.24-17.2-6.51-8.06.84-16.1,1.58-23.19,5.89-6.26,3.82-6.28,10.17.09,13.81a29.23,29.23,0,0,0,10.84,3.93c16,1.73,32,3.12,48.09,4.27,5.55.4,10.74.89,15.85,3.68,15,8.17,30.88,10,47.69,6.89,19.2-3.54,34.93-13.26,49.35-25.73,1.26-1.1,2.57-2.13,3.87-3.19l1.21,1.09L180.25,394h6.81c28.49-.72,57-1.22,85.46-2.29a334.22,334.22,0,0,0,38.3-3.4A80.72,80.72,0,0,0,335,381C349,373.91,348.8,359.43,335.1,351.77Zm-75-166.22c-1.08,9.45-1.32,19-1.55,28.54a8.53,8.53,0,0,1-3.69,7.46A27.53,27.53,0,0,1,234,227.48c-9.87-1.11-19.24,1.16-28.2,5.46-1.34.64-4.09.6-4.93-.3-6.5-6.94-14.06-10.93-23.81-10-.23,0-.49-.29-1.53-.94,18.8-42.7,36.47-86,44-133.31,14.94,9.42,24.91,21.73,32,36.9,9,19.33,10.87,39.37,8.49,60.26Z" transform="translate(-0.06 0)" style="fill:#fff;stroke:#fff;stroke-linecap:round;stroke-linejoin:round;stroke-width:28px"/><path d="M102,245.88c3.24,2.64,6.2,5.79,9.79,7.8a30.31,30.31,0,0,0,26.8,1.86c8.85-3.52,17.36-7.9,26-12a4.48,4.48,0,0,0,2.19-2.55c2-7.92,9.23-12.9,17.17-10.64a24.07,24.07,0,0,1,10.41,6.42c10.84,11.49,17.64,25.32,19.35,41C218.34,320.18,203.2,355,170,381.15c-25.43,20.08-62.3,22-91.63-5.13-27.25-25.23-37.49-57-34.23-93.38,1.15-12.84,6.2-24.56,13.55-35.1s18.41-15,30.66-16.24c14.17-1.46,28.33-1.52,41.79,4.46.94.42,2.13.34,3,.85a41.7,41.7,0,0,1,4,3c-1.75,1.56-3.27,3.9-5.3,4.49-2.75.79-5.9.16-8.87.31-1.32.07-3.08.11-3.85.92-4.8,5.06-9.3,2.44-13.88-.2a3.84,3.84,0,0,0-1.27-.4,3.11,3.11,0,0,0-.86.09Z" transform="translate(-0.06 0)" style="fill:#fff"/><path d="M221.4,263.11a99.52,99.52,0,0,1,1,50.34c-1.15,4.82-3.37,9.4-5.49,13.89,1.51-8.48,3.38-16.92,4.44-25.46,2.5-20.19-1.55-39.14-11.73-56.77-2.51-4.36-2.46-5.6,2.2-6.79,6.85-1.76,14-3.57,20.93-3.52,8.79.06,17-.24,23.84-6.5a5.08,5.08,0,0,1,1.54-.64c3.84,5.64,2.92,8.09-2.79,10.41-2.83,1.15-5.05,3.74-7.66,5.51a52.25,52.25,0,0,1-5.25,2.73c7.29,3.54,14.17,3.42,21.09-.12,4.24-2.17,8.29-5,12.79-6.29,5.93-1.66,12.21-2.06,18.34-2.93a27.77,27.77,0,0,1,3.87,0l.33-1.46-14.33-4.23-1.37-1.42,7.76-5.16-.83-1.56a54.23,54.23,0,0,1-6.08,1.13,21.18,21.18,0,0,1-4.41-.53c.79-1.56,1.17-3.84,2.44-4.56a20,20,0,0,1,15.15-1.91C312,221,322,230.12,328.34,243.83c13.37,28.8,8.53,54.82-10.75,79.33a106.82,106.82,0,0,1-49.44,35.43c-17.25,6.12-31.23-.18-43.91-11.21-1.17-1-1.12-4.43-.49-6.36,6.06-18.52,9.45-37.34,6.14-56.79-1-6-3.19-11.75-5-17.57-.44-1.41-1.59-2.6-2.42-3.9Z" transform="translate(-0.06 0)" style="fill:#fff"/><path d="M215.87,68.28a6.29,6.29,0,0,0-.48,2c0,19.63-4.67,38.38-10.63,56.89a781.29,781.29,0,0,1-39.32,98.25c-1.73,3.63-4.05,7-5.42,10.77-3.22,8.85-11.13,10.18-19.79,13.26,1.22-2.84,1.82-4.54,2.65-6.14,10.69-20.8,22.32-41.17,31.9-62.46,11.74-26.1,21.28-53.08,25-81.79,1.32-10.14,4-20.1,5.49-30.22.37-2.45-.79-5.43-2-7.75-1.67-3.12-4.11-5.82-6.21-8.71-1.71-2.35-1-4.07.82-6.26,2.8-3.28,5-7.12,7.37-10.72l-1.15-1.16-14.45,8.31c-.69-8.21,19.52-22.29,30-20.45-1.51,2.29-2.65,4.37-4.12,6.17-2.35,2.9-3.52,5.32.13,8.34,1.24,1,1.55,3.74,1.53,5.67-.1,9.5,1.68,18.42,7.48,26.15a31.7,31.7,0,0,0,5.59,5.69c36.56,29,50.55,66.55,43.3,112.37-2,12.91-2.34,25.83.27,38.72.44,2.19.68,4.42.94,6.64.52,4.29-2.9,5.48-5.78,6.11-3.29.73-2.88-2.56-3.35-4.59a109.38,109.38,0,0,1-.78-43.59c4.6-26.34,0-50.65-12.91-73.75a43.87,43.87,0,0,1-4.65-11c-2.61-11.21-10-18.69-18.49-25.58C224.42,75.8,220.2,72,215.87,68.28Z" transform="translate(-0.06 0)" style="fill:#fff"/><path d="M215.94,68.24a6,6,0,0,0-.49,2c0,19.63-4.67,38.38-10.63,56.89a783.36,783.36,0,0,1-39.31,98.25c-1.74,3.62-4.06,7-5.42,10.77-3.22,8.85-11.09,10.2-19.79,13.28,1.21-2.84,1.82-4.55,2.64-6.14,10.69-20.8,22.32-41.17,31.9-62.47,11.74-26.1,21.29-53.08,25-81.78,1.31-10.14,3.95-20.1,5.48-30.22.37-2.45-.78-5.44-2-7.75-1.68-3.12-4.12-5.83-6.22-8.72-1.7-2.35-1-4.06.82-6.25,2.81-3.28,5-7.12,7.38-10.72l-1.15-1.16-14.46,8.3c-.68-8.2,19.53-22.28,30-20.45-1.52,2.3-2.66,4.37-4.13,6.18-2.35,2.89-3.52,5.32.13,8.34,1.25,1,1.55,3.73,1.53,5.67-.1,9.49,1.69,18.41,7.49,26.15a31,31,0,0,0,5.59,5.69c36.56,29,50.54,66.55,43.3,112.37-2,12.91-2.35,25.83.26,38.72.44,2.19.68,4.42.95,6.63.52,4.3-2.91,5.48-5.78,6.12-3.3.72-2.89-2.57-3.35-4.59a109.61,109.61,0,0,1-.79-43.6c4.6-26.34,0-50.64-12.9-73.75a43.34,43.34,0,0,1-4.63-11.09c-2.6-11.2-10-18.68-18.48-25.57C224.49,75.75,220.26,72,215.94,68.24Z" transform="translate(-0.06 0)" style="fill:#9ecc6d"/><path d="M102.05,245.84c3.25,2.63,6.2,5.79,9.8,7.8a30.31,30.31,0,0,0,26.8,1.85c8.84-3.52,17.35-7.89,25.95-12a4.46,4.46,0,0,0,2.2-2.55c2-7.94,9.2-12.94,17.2-10.64a24.1,24.1,0,0,1,10.42,6.42c10.83,11.48,17.63,25.32,19.34,41,4.64,42.42-10.51,77.22-43.66,103.39-25.44,20.07-62.31,22-91.63-5.14C51.22,350.75,41,319,44.24,282.59c1.15-12.84,6.2-24.55,13.55-35.09s18.4-15,30.65-16.24c14.17-1.46,28.34-1.52,41.79,4.45.94.42,2.13.34,3,.85a41.7,41.7,0,0,1,4,3c-1.74,1.56-3.26,3.91-5.29,4.49-2.76.8-5.91.17-8.88.32-1.31.06-3.08.11-3.84.91-4.81,5.07-9.3,2.45-13.88-.2a4.06,4.06,0,0,0-1.28-.4,3,3,0,0,0-.85.09Z" transform="translate(-0.06 0)" style="fill:#e077bd"/><path d="M221.47,263.07a99.48,99.48,0,0,1,1,50.33c-1.16,4.83-3.37,9.4-5.49,13.9,1.5-8.48,3.38-16.93,4.44-25.47,2.5-20.18-1.55-39.14-11.73-56.77-2.52-4.35-2.46-5.59,2.2-6.79,6.84-1.76,13.94-3.56,20.92-3.51,8.79.05,17-.25,23.85-6.5a4.74,4.74,0,0,1,1.54-.64c3.84,5.64,2.91,8.09-2.8,10.41-2.83,1.15-5,3.73-7.66,5.51a57.87,57.87,0,0,1-5.24,2.73c7.28,3.53,14.17,3.42,21.08-.12,4.24-2.18,8.3-5,12.79-6.3,5.93-1.65,12.21-2.06,18.35-2.92a27.63,27.63,0,0,1,3.86,0l.34-1.45-14.34-4.23c-.45-.48-.91-.95-1.36-1.42l7.76-5.16-.83-1.57a52.65,52.65,0,0,1-6.09,1.14,22.61,22.61,0,0,1-4.41-.53c.79-1.57,1.18-3.85,2.44-4.57a20,20,0,0,1,15.16-1.9c14.77,3.73,24.81,12.87,31.17,26.58,13.36,28.79,8.52,54.82-10.76,79.33a106.63,106.63,0,0,1-49.44,35.43c-17.25,6.11-31.23-.19-43.91-11.22-1.16-1-1.12-4.42-.49-6.35,6.06-18.52,9.45-37.34,6.15-56.79-1-6-3.19-11.76-5-17.57-.45-1.41-1.6-2.61-2.42-3.9Z" transform="translate(-0.06 0)" style="fill:#ed40a9"/><path d="M193.88,279.82c-5.26-21-31.73-27.76-40.36-16.17a12.19,12.19,0,0,0-1.81,9.43c1.17,4.65,5.89,8.75,12.79,8,16.8-1.83,17.79,15.74,18.51,21,.6,4.34,2.12,6,5.38,5.28C192.67,306.44,197.41,293.87,193.88,279.82Z" transform="translate(-0.06 0)" style="fill:#eab9e5"/><path d="M303.67,290.82c12.88-1.18,16.18-20.39,15.25-27.94-2.24-18.2-29.94-10-20.2,7C306.34,283.21,297.79,288.64,303.67,290.82Z" transform="translate(-0.06 0)" style="fill:#e077bd"/><path d="M302.16,304.66c-4.64,3.81,1.27,11,5.92,7.21S306.81,300.85,302.16,304.66Z" transform="translate(-0.06 0)" style="fill:#e077bd"/><path d="M111,382.63c-15.71-1-24.1-19-17-26.73a8.84,8.84,0,0,1,6.51-2.55c3.48.22,7,3,7.43,8.09.93,12.26,13.63,10.62,17.49,10.44,3.18-.15,4.54.72,4.49,3.15C129.86,378.21,121.49,383.27,111,382.63Z" transform="translate(-0.06 0)" style="fill:#eab9e5"/><path d="M183.14,320.34c-4.9.34-4.38,8,.53,7.61S188,320,183.14,320.34Z" transform="translate(-0.06 0)" style="fill:#eab9e5"/><path d="M288.14,358.73c7.27-3.83,14.75-7.33,21.72-11.65,3.25-2,6-3,9.51-1.62,5.26,2.07,10.84,3.57,15.73,6.31,13.7,7.66,13.9,22.14-.1,29.23a80.53,80.53,0,0,1-24.2,7.34,334.22,334.22,0,0,1-38.3,3.4c-28.47,1.07-57,1.57-85.46,2.29h-6.81l15.43-20.29-1.21-1.09c-1.3,1.06-2.61,2.09-3.87,3.18-14.42,12.48-30.15,22.2-49.35,25.74-16.81,3.1-32.73,1.28-47.69-6.89-5.11-2.79-10.3-3.28-15.85-3.68-16-1.15-32.1-2.54-48.09-4.27a29.23,29.23,0,0,1-10.84-3.93c-6.37-3.64-6.35-10-.09-13.81,7.09-4.31,15.13-5.05,23.19-5.89,7-.73,12.82.32,17.2,6.51,1.73,2.44,4.54,4.13,6.86,6.16l1-.81a48,48,0,0,0-2.81-4C42,346.08,34.35,316.51,36.75,284c1.16-15.68,7.1-29.86,16.4-42.45,6.58-8.9,16.13-13.76,26.71-16a98.25,98.25,0,0,1,47.4,1.31c19.24,5.36,16.92,2.76,24.13-10,19.55-34.45,34.09-70.93,42.14-109.76,2.5-12,3.27-24.48,4.37-36.77.22-2.48-1.39-5.3-2.67-7.69a80.51,80.51,0,0,0-5.84-9,20.6,20.6,0,0,0-4.11-4.53c-4.28-3.22-5.68-7.11-2.93-11.6,7.8-12.75,19.13-20.86,33.93-23.28,8.94-1.47,12.83,4.34,9.16,12.64a8.37,8.37,0,0,0-1.13,3.36c.38,10.2-1.36,20.73,3.82,30.26a23.28,23.28,0,0,0,6,7.48c26.11,19.57,41.62,45.65,47.21,77.52,2.37,13.55,1.9,27.31-.39,41-1.18,7-1.47,14.23-2,21.36-.17,2.15-.12,4.23,3.34,3.57,19.56-3.72,37.41,3.71,47.8,20.81,18.24,30,17.83,60.85-2.89,90.14-10,14.15-23.32,24.6-38,33.47-.61.37-1.2.78-1.8,1.18ZM102,245.88l1.06-1.15a3.11,3.11,0,0,1,.86-.09,3.84,3.84,0,0,1,1.27.4c4.58,2.64,9.08,5.26,13.88.2.77-.81,2.53-.85,3.85-.92,3-.15,6.12.48,8.87-.31,2-.59,3.55-2.93,5.3-4.49a41.7,41.7,0,0,0-4-3c-.86-.51-2.05-.43-3-.85-13.46-6-27.62-5.92-41.79-4.46C76.09,232.52,65,237,57.68,247.49s-12.4,22.26-13.55,35.1c-3.26,36.41,7,68.15,34.23,93.38,29.33,27.14,66.2,25.21,91.63,5.13,33.16-26.17,48.3-61,43.67-103.38-1.71-15.64-8.51-29.47-19.35-41a24.07,24.07,0,0,0-10.41-6.42C176,228,168.72,233,166.73,240.94a4.48,4.48,0,0,1-2.19,2.55c-8.6,4.11-17.11,8.49-26,12a30.31,30.31,0,0,1-26.8-1.86C108.19,251.67,105.23,248.52,102,245.88Zm119.4,17.23,1.06-.35c.83,1.3,2,2.49,2.42,3.9,1.82,5.82,4,11.6,5,17.57,3.31,19.45-.08,38.27-6.14,56.79-.63,1.93-.68,5.34.49,6.36,12.68,11,26.66,17.33,43.91,11.21a106.82,106.82,0,0,0,49.44-35.43c19.28-24.51,24.12-50.53,10.75-79.33C322,230.12,312,221,297.17,217.25A20,20,0,0,0,282,219.16c-1.27.72-1.65,3-2.44,4.56a21.18,21.18,0,0,0,4.41.53,54.23,54.23,0,0,0,6.08-1.13l.83,1.56-7.76,5.16,1.37,1.42,14.33,4.23-.33,1.46a27.77,27.77,0,0,0-3.87,0c-6.13.87-12.41,1.27-18.34,2.93-4.5,1.25-8.55,4.12-12.79,6.29-6.92,3.54-13.8,3.66-21.09.12a52.25,52.25,0,0,0,5.25-2.73c2.61-1.77,4.83-4.36,7.66-5.51,5.71-2.32,6.63-4.77,2.79-10.41a5.08,5.08,0,0,0-1.54.64c-6.86,6.26-15,6.56-23.84,6.5-7-.05-14.08,1.76-20.93,3.52-4.66,1.19-4.71,2.43-2.2,6.79,10.18,17.63,14.23,36.58,11.73,56.77-1.06,8.54-2.93,17-4.44,25.46,2.12-4.49,4.34-9.07,5.49-13.89A99.55,99.55,0,0,0,221.4,263.11ZM219.57,88.39C212,135.69,194.33,179,175.48,221.74c1,.65,1.3,1,1.53.94,9.75-1,17.31,3,23.81,10,.84.9,3.59.94,4.93.3,9-4.3,18.33-6.57,28.2-5.46a27.54,27.54,0,0,0,20.87-5.93,8.53,8.53,0,0,0,3.69-7.46c.23-9.53.47-19.09,1.55-28.54,2.38-20.89.49-40.93-8.52-60.26C244.48,110.12,234.51,97.81,219.57,88.39Zm-3.7-20.11c4.33,3.73,8.55,7.52,12.94,11.1,8.45,6.89,15.88,14.37,18.49,25.58a44.19,44.19,0,0,0,4.62,11.09c12.91,23.1,17.51,47.41,12.91,73.75a109.38,109.38,0,0,0,.78,43.59c.47,2,.06,5.32,3.35,4.59,2.88-.63,6.3-1.82,5.78-6.11-.26-2.22-.5-4.45-.94-6.64-2.61-12.89-2.31-25.81-.27-38.72,7.25-45.82-6.74-83.42-43.3-112.37a31.7,31.7,0,0,1-5.59-5.69c-5.8-7.73-7.58-16.65-7.48-26.15,0-1.93-.29-4.64-1.53-5.67-3.65-3-2.48-5.44-.13-8.34,1.47-1.8,2.61-3.88,4.12-6.17-10.47-1.84-30.68,12.24-30,20.45l14.45-8.31,1.15,1.16c-2.42,3.6-4.57,7.44-7.37,10.72-1.87,2.19-2.53,3.91-.82,6.26,2.1,2.89,4.54,5.59,6.21,8.71,1.24,2.32,2.4,5.3,2,7.75-1.54,10.12-4.17,20.08-5.49,30.22-3.73,28.71-13.27,55.69-25,81.79-9.58,21.29-21.21,41.66-31.9,62.46-.83,1.6-1.43,3.3-2.65,6.14,8.66-3.08,16.57-4.41,19.79-13.26,1.37-3.75,3.69-7.14,5.42-10.77a781.29,781.29,0,0,0,39.32-98.25c6-18.51,10.66-37.26,10.63-56.89a6.39,6.39,0,0,1,.51-2Z" transform="translate(-0.06 0)" style="fill:#474747"/></g></g></svg>