<svg id="Layer_1" data-name="Layer 1" xmlns="http://www.w3.org/2000/svg" viewBox="0 0 601 410"><title>cloud-mine</title><g id="Layer_2" data-name="Layer 2"><g style="opacity:0.12"><path d="M447.3,234.26A337.39,337.39,0,0,0,468.76,208c3.38-4.47,6.67-9,10-13.51.53-.72,1.21-1.43.54-2.43a2.12,2.12,0,0,0-2.66-.7,14.11,14.11,0,0,0-3.24,1.34,37.49,37.49,0,0,0-7.68,6,132.92,132.92,0,0,0-15.87,19A154.35,154.35,0,0,1,447.3,234.26Z" transform="translate(0 0.01)" style="fill:#6a374f;stroke:#6a374f;stroke-miterlimit:10;stroke-width:25px"/><path d="M576.34,185.45c-8.57-11-20-14.95-33.33-13.22A40.36,40.36,0,0,0,518.4,184.9c-3.42,3.62-6.75,7.32-9.84,11.21q-10.83,13.57-21.44,27.33a110.14,110.14,0,0,1-9.83,11.21c-1.22,1.21-2.52,2.34-3.79,3.49-.4.35-.88.81-1.42.51-.72-.39-.44-1.12-.28-1.71a38.58,38.58,0,0,1,2.33-5.78A288.27,288.27,0,0,1,490.8,201c12.14-19.18,25-37.88,38.15-56.41,7.32-10.34,15-20.37,22.67-30.49,2.72-3.63,2.62-4.89-.2-8.37a20.05,20.05,0,0,0-1.48-1.58,4.17,4.17,0,0,0-5-.85,20.76,20.76,0,0,0-5.94,4.27A94.76,94.76,0,0,0,529.92,118c-8,10.27-15.14,21.2-22.24,32.12-6,9.25-11.94,18.56-17.9,27.85-1.17,1.82-1.22,2.63-3.28.65a11.26,11.26,0,0,0-8.71-3.07c-5,.26-9.48,2.21-13.7,4.72a63.79,63.79,0,0,0-13.55,11c-.27-6.07-.83-12.55-1.79-19.41a47.74,47.74,0,0,0-1.85-27.73,89.41,89.41,0,0,0-29.79-40.56A62.65,62.65,0,0,0,384.64,90.2a79.59,79.59,0,0,0-27.21,1.73c-1.5.36-3,.74-4.49,1.06-.76.16-1.24-.15-1.2-1a10.38,10.38,0,0,1,.17-1.35,57,57,0,0,0-3.84-32.16c-7.36-17.34-19.86-29.25-38.26-34.11-18.18-4.8-35.57-2.34-51.7,7.45-11.93,7.25-20.4,17.74-26.76,30a70.52,70.52,0,0,0-7.91,38.56,27.62,27.62,0,0,1,.05,6.23c-1.73-1.52-3.15-2.87-4.67-4.09A105.49,105.49,0,0,0,181,83c-18.28-5.21-35.85-3.28-52.44,6.08A92.82,92.82,0,0,0,94.1,122.91c-6.46,10.79-10.65,22.36-11.57,35a92,92,0,0,0,6.35,41.48c3.56,8.84,7.9,17.26,14.29,24.46.28.31.66.63.53,1.13a1,1,0,0,1-1,.18c-10-1.72-19.83-.88-29.63,1.26A61.41,61.41,0,0,0,41.28,244c-9.51,9.86-15.2,21.76-17.83,35.09-4.49,22.73,1.41,42.24,18.6,58.08a85.93,85.93,0,0,0,31.5,18.17c23.9,8,48.25,9.07,72.84,4a92.36,92.36,0,0,0,28.84-11.21c5,3.77,17.72,12.65,37.59,21.3,0,.07-.07.12-.1.2-.45,1.21.65,1.52,1.42,1.91a60.43,60.43,0,0,0,8.77,3.63c13.51,4.36,27,8.7,40.82,12.06a273.09,273.09,0,0,0,61.16,8.07,284.68,284.68,0,0,0,30.07-.89c7.58-.7,15.05-2,22.54-3.3,19.81-3.36,39.52-7,58.79-12.88a231.85,231.85,0,0,0,46.58-19.77,218.15,218.15,0,0,0,56.8-45.24c9.86-11.1,19.58-22.27,27.77-34.71a116.55,116.55,0,0,0,19.25-56.35C587.67,208.76,584.8,196.33,576.34,185.45ZM465.71,198.64a37.49,37.49,0,0,1,7.68-6,14.11,14.11,0,0,1,3.24-1.34,2.16,2.16,0,0,1,2.66.7c.66,1,0,1.71-.54,2.43-3.32,4.51-6.61,9-10,13.51a337.85,337.85,0,0,1-21.46,26.29,154.67,154.67,0,0,0,2.54-16.6A132.9,132.9,0,0,1,465.71,198.64Z" transform="translate(0 0.01)" style="fill:#6a374f;stroke:#6a374f;stroke-miterlimit:10;stroke-width:28px"/><path d="M33.15,321C47,352.51,90.45,358.07,113,358.1s41.73-1.35,60.15-11.48c0,0,70.37,60.16,194.65,39.9s142.3-57.47,142.3-57.47l54-57.05s21.35-37.85,18.24-54.14-11.9-30.57-11.9-30.57l-23.36-9s-19.73-3.55-24.91,10.17S498,224.86,498,224.86s-18.59,20.37-23.74,25.31S463,223.38,463,223.38l-19.86,26.89s16.15-37.82,2.34-97.64C436.82,124.3,404,104.46,404,104.46l-32.15-9.65-22.56,4.3s.93-11-.83-20.19-5.32-30.16-13-33.89S307.81,24.77,297,26.84s-28.42,7.59-33.86,8.63S242.6,57.14,242.6,57.14s-15.37,10.73-13.91,26a250.7,250.7,0,0,1,.65,31.49s-25.48-19.8-31.23-20.43-26.21-8-31.64-7S135,92.39,135,92.39s-22.63,13-25.51,18.3S93.78,130.57,93,135.48s-5.76,37.9-5.76,37.9l5,24.15L111.94,228l-29.2,1.24L50.52,241.87S32.76,260,30.5,270.8,25.77,298.21,33.15,321Z" transform="translate(0 0.01)" style="fill:#6a374f"/><path d="M459.14,237.7c-1.1.26-1.5,1.26-2.1,2-4.08,5-7.9,10.13-12.27,14.85a34.52,34.52,0,0,1-5,4.59c-3.26,2.35-6,2.5-9.21.17a17.46,17.46,0,0,1-7.38-12.17c-.12-.89-.16-1.79-.25-2.82-1.24.17-1.62,1.17-2.18,1.87-3.75,4.76-7.56,9.47-11.65,13.95a74.33,74.33,0,0,1-7.65,7.3c-3.26,2.68-6.58,2.67-10,.52-5.35-3.36-9-7.82-9-14.49,0-.43.14-.9-.34-1.37a12.77,12.77,0,0,0-2.58,3c-3.23,4.25-6.39,8.55-10,12.47a30.28,30.28,0,0,1-5.72,5,8.79,8.79,0,0,1-9.26.48,16,16,0,0,1-8.84-18.24c.53-2.36,1.25-4.67,1.88-7-.87-.45-1.48.12-2.09.38a27.49,27.49,0,0,1-7.57,2,4.49,4.49,0,0,0-3.45,2.21,151.12,151.12,0,0,1-17.76,21.88A67.33,67.33,0,0,1,304,284.89c-.23.14-.44.31-.67.45-5.84,3.44-9.13,3.09-14.22-1.34-3.45-3-6.07-6.44-6.15-11.21-1.19-.18-1.38.7-1.78,1.2-4.1,5.06-8.17,10.14-12.72,14.82a50.63,50.63,0,0,1-6,5.43c-3.32,2.47-6.72,2.29-10.15.31A18.48,18.48,0,0,1,246,288a28.43,28.43,0,0,1-3.25-6.84,2.05,2.05,0,0,0-.86-1.32,6.74,6.74,0,0,0-2.16,1.62,87.51,87.51,0,0,1-18.86,12.15,24.49,24.49,0,0,1-2.78,1.06c-.41.13-.91.32-1.19-.21s.17-.84.46-1.15c3.8-4.24,7.63-8.46,11.75-12.41,3.46-3.32,6.84-6.71,10.3-10a3.31,3.31,0,0,0,1.18-2.57c.05-9.76,2.73-18.94,6.34-27.87,14.21-35.11,35.21-65.73,61.68-92.69a56.38,56.38,0,0,1,10.13-8.56c3.36-2.1,6.23-2,9.21.55,4.35,3.78,6.28,8.49,4.89,14.32a70.34,70.34,0,0,1-6.39,15.8c-7.41,14.34-16.28,27.78-25.61,40.91a479.86,479.86,0,0,1-38.16,47.62q-3.86,4.19-7.88,8.22a4.26,4.26,0,0,0-1.34,3.64,24.28,24.28,0,0,0,1.62,7.66c1.07,2.45,2.24,2.75,4.4,1.22a34.54,34.54,0,0,0,4.62-4.18c8.09-8.3,15.43-17.26,22.74-26.24,8.22-10.11,15.82-20.69,23.79-31,2.49-3.21,5.24-6.21,7.53-9.6a21.12,21.12,0,0,1,7.35-6.71,15.14,15.14,0,0,1,11.78-1.54,19.08,19.08,0,0,1,10.45,6.39,12.88,12.88,0,0,1,2.56,8.66c-.12,5.71-1.92,11-4.1,16.2-.31.75-.59,1.5-.87,2.26a1.1,1.1,0,0,0,.06.37,4.42,4.42,0,0,0,2.71-.93,38.43,38.43,0,0,0,14.66-13.75q5-7.91,10-15.8a22.45,22.45,0,0,1,4.53-5.37,6.49,6.49,0,0,1,8.25-.2c.22.16.42.33.63.51,5.21,4.4,5.42,5.54,1.87,11.32-5.71,9.33-11.94,18.34-17.38,27.85a104,104,0,0,0-8.15,16.83,10.81,10.81,0,0,0-.87,3.76,4.86,4.86,0,0,0,2.59-1.61,81.14,81.14,0,0,0,9-9.8c10.3-12.75,19.59-26.23,28.89-39.71,3.09-4.46,6.07-9,9.12-13.49,1.47-2.18,2.15-2.4,4.49-1.36a23.18,23.18,0,0,1,6.93,4.69,3.11,3.11,0,0,1,.69,3.93,65.88,65.88,0,0,1-4.7,7.93A246.9,246.9,0,0,0,404,233.23a154.35,154.35,0,0,0-7.31,15.44c-.57,1.52-1.71,3-.74,4.82,2,0,3-1.47,4.25-2.59a183.46,183.46,0,0,0,14-15.11c10.55-12.18,20.16-25.1,30.13-37.74,5.4-6.86,11.58-13,19.15-17.44,4.22-2.51,8.68-4.46,13.7-4.72a11.25,11.25,0,0,1,8.71,3.06c2.06,2,2.11,1.18,3.28-.64,6-9.29,11.88-18.6,17.9-27.85,7.1-10.92,14.19-21.85,22.24-32.12A93.8,93.8,0,0,1,538.38,108a20.59,20.59,0,0,1,5.91-4.26,4.17,4.17,0,0,1,5,.85,18.32,18.32,0,0,1,1.47,1.58c2.83,3.47,2.93,4.74.21,8.37-7.62,10.12-15.35,20.15-22.67,30.48-13.13,18.53-26,37.23-38.16,56.42a289.06,289.06,0,0,0-16.66,30.15,38.58,38.58,0,0,0-2.33,5.78c-.17.58-.44,1.32.27,1.71.55.3,1-.16,1.42-.52,1.28-1.14,2.58-2.28,3.8-3.48a111.38,111.38,0,0,0,9.83-11.21q10.65-13.73,21.43-27.33c3.1-3.89,6.43-7.6,9.85-11.21a40.31,40.31,0,0,1,24.61-12.67c13.36-1.73,24.76,2.19,33.33,13.21S587,209.14,586,222.53a116.55,116.55,0,0,1-19.25,56.36C558.6,291.32,548.88,302.5,539,313.6c-16.33,18.38-35.47,33.2-56.8,45.24a231.81,231.81,0,0,1-46.58,19.76c-19.27,5.87-39,9.53-58.79,12.88-7.49,1.27-15,2.61-22.54,3.31a284.68,284.68,0,0,1-30.07.89A274.38,274.38,0,0,1,263,387.6c-13.78-3.37-27.32-7.7-40.82-12.06a60.43,60.43,0,0,1-8.77-3.63c-.77-.39-1.87-.7-1.42-1.91s1.51-.79,2.36-.6c3.61.8,7.26,1.51,10.82,2.51,13.35,3.76,27,5.76,40.73,7.67a375.34,375.34,0,0,0,41.55,3.67,318.24,318.24,0,0,0,44.41-1.66c8.36-.94,16.58-2.8,24.83-4.46,13.13-2.64,26.26-5.23,39.22-8.61a250.66,250.66,0,0,0,42.9-15.14c24.82-11.57,47.09-26.74,65.86-46.88a376.43,376.43,0,0,0,27.73-33c8.6-11.61,14.05-24.59,17.6-38.5,1.78-7,3.13-13.93,2.81-21.15A48.33,48.33,0,0,0,570.38,200,18.82,18.82,0,0,0,550,186.43c-7,.45-13,3.59-18.49,7.76a75.62,75.62,0,0,0-11.55,11c-8.42,9.82-16.53,19.9-24.59,30a120.47,120.47,0,0,1-12.48,13.56,40.7,40.7,0,0,1-6.15,4.88,11.28,11.28,0,0,1-7,1.68,9.16,9.16,0,0,1-8-5.26c-1.57-3.06-1.91-6.39-2.23-9.72A5.62,5.62,0,0,0,459.14,237.7Zm-202,13.1c.51-.09.72-.07.81-.16,1.38-1.55,2.8-3.07,4.12-4.67a540.29,540.29,0,0,0,42.22-58.75,155.27,155.27,0,0,0,11.37-20.65,16.62,16.62,0,0,0,1.57-5.15c0-.43.21-.95-.21-1.27-.59-.45-1,.06-1.43.36a44.6,44.6,0,0,0-5.9,6,356.88,356.88,0,0,0-30.61,41.72,241.86,241.86,0,0,0-19.53,36.24c-.85,2-1.55,4.11-2.4,6.33Zm178.23-5.65a33.66,33.66,0,0,0,6-5.11c9.85-9.76,18.35-20.66,26.67-31.7,3.38-4.47,6.67-9,10-13.52.53-.71,1.21-1.43.54-2.42a2.13,2.13,0,0,0-2.66-.7,13.12,13.12,0,0,0-3.24,1.34,37.49,37.49,0,0,0-7.68,6,132.6,132.6,0,0,0-27.27,39.14,27.67,27.67,0,0,0-2.35,7ZM314,236.06a1,1,0,0,0-.89.61,170.43,170.43,0,0,0-15.87,29.51,14.12,14.12,0,0,0-.87,2.84c-.21,1.26.38,1.67,1.59,1.18a13.94,13.94,0,0,0,4-2.81c6.5-5.91,12-12.71,17.36-19.64,1.78-2.3,1.76-2.3-.36-4.45a20,20,0,0,1-3.9-5.48C314.69,237.21,314.6,236.44,314,236.06ZM337.43,214c-5.67,1.49-11.82,8.23-12.5,13.59a7.52,7.52,0,0,0,1.87,6.52c1,1,1.57,1,2.35-.11a59.69,59.69,0,0,0,7.71-14.52A10.16,10.16,0,0,0,337.43,214Z" transform="translate(0 0.01)" style="fill:#6a374f"/><path d="M103,225.27c.13-.51-.25-.83-.53-1.13-6.39-7.2-10.73-15.62-14.29-24.46a91.87,91.87,0,0,1-6.35-41.48c.92-12.61,5.11-24.19,11.57-35a92.92,92.92,0,0,1,34.46-33.84c16.57-9.36,34.14-11.25,52.42-6a105.53,105.53,0,0,1,37.81,19.59c1.52,1.23,2.94,2.58,4.67,4.1a27.13,27.13,0,0,0,0-6.24,70.61,70.61,0,0,1,7.91-38.56c6.36-12.26,14.83-22.76,26.76-30,16.13-9.79,33.52-12.26,51.7-7.45,18.4,4.86,30.89,16.76,38.26,34.11A57,57,0,0,1,351.18,91a10.38,10.38,0,0,0-.17,1.35c0,.83.44,1.15,1.2,1,1.5-.33,3-.7,4.49-1.06a79.85,79.85,0,0,1,27.21-1.74,62.81,62.81,0,0,1,32.47,13.31,89.29,89.29,0,0,1,29.78,40.57,47.48,47.48,0,0,1,1.25,30.09,13.09,13.09,0,0,1-.68,2,23.1,23.1,0,0,1-1.28,2.13c-1.16-.54-.9-1.58-1-2.37a136.42,136.42,0,0,0-9.86-33.49A76.65,76.65,0,0,0,405.7,108.7c-9.63-6.3-20.32-8.78-31.73-8.5a130.13,130.13,0,0,0-34.22,5.38,145.59,145.59,0,0,0-26.86,11.54,8.7,8.7,0,0,1-3.38,1.45,6.9,6.9,0,0,1,2.07-2.23,100.61,100.61,0,0,1,25.6-16.54c1.56-.72,3.08-1.52,4.68-2.15A3.19,3.19,0,0,0,344,94.83,64.34,64.34,0,0,0,344.7,84c-.21-7.46-1.11-14.81-4.16-21.72a47.54,47.54,0,0,0-21-22.72c-16.37-9.07-33.39-9.77-50.77-3.17A48.9,48.9,0,0,0,244.23,56.9a93.73,93.73,0,0,0-12.5,33c-1.3,6.94-.63,13.87.05,20.8.31,3.15.64,6.3.94,9.45a10.07,10.07,0,0,1,.06,1.9c-.29,2.67-2.4,3.9-4.88,2.84a11.86,11.86,0,0,1-3.14-2.11c-2.3-2-4.53-4.15-6.85-6.17-10-8.74-20.88-16.19-33.25-21.2a60.75,60.75,0,0,0-31.1-4.32,52.69,52.69,0,0,0-16.81,5.08c-17.84,8.93-31.36,22.28-39.66,40.46-7.12,15.59-8.22,31.94-4.16,48.53a88.49,88.49,0,0,0,19,36.47,54.3,54.3,0,0,0,7.65,7.28,8,8,0,0,1,2.4,2.89c1.26,2.82,0,4.75-3,4.56a44.44,44.44,0,0,1-6.68-1.06C96.51,231.92,81,232.71,66,239s-25.17,17-31.54,31.63A55.75,55.75,0,0,0,29.64,297c1,14.44,7.5,26,18.46,35.28a82.38,82.38,0,0,0,24.66,14c12.5,4.66,25.52,6.62,38.77,7.36A120.11,120.11,0,0,0,140.18,352a101.17,101.17,0,0,0,44.3-20,240.49,240.49,0,0,0,24.58-22.09c.42-.43.8-1.19,1.52-.87a1.64,1.64,0,0,1,.68,1.91,7.91,7.91,0,0,1-.75,2,42.41,42.41,0,0,1-7.77,11c-5.47,5.79-10.79,11.7-17,16.72a93.35,93.35,0,0,1-40.06,19c-24.59,5.08-48.94,4-72.84-4a85.93,85.93,0,0,1-31.5-18.17c-17.19-15.84-23.09-35.35-18.61-58.09,2.64-13.33,8.33-25.23,17.84-35.08a61.42,61.42,0,0,1,31.77-17.67c9.81-2.14,19.67-3,29.64-1.26A1,1,0,0,0,103,225.27Z" transform="translate(0 0.01)" style="fill:#6a374f"/><path d="M287.58,132.59c-.05.94-.81,1.21-1.29,1.66-4.25,3.94-9,7.34-13.45,11a20,20,0,0,1-1.7,1.34c-1.26.78-1.27,1.66-.64,2.94,2.08,4.25,3.1,8.76,1.91,13.43-1.65,6.41-3.76,12.65-7.89,18a108.27,108.27,0,0,1-21.77,21,47.27,47.27,0,0,1-12.2,6.41,16.4,16.4,0,0,1-1.81.55c-7.34,1.59-12.59-3.2-11.65-10.65a22.24,22.24,0,0,1,3.93-9.42c4-5.89,8.92-10.89,14-15.83a297.07,297.07,0,0,1,22.9-19.93c.61-.47,1.61-.8,1.44-1.78a2.68,2.68,0,0,0-2.3-2,11.44,11.44,0,0,0-5.36.28A64.85,64.85,0,0,0,234,157c-11.93,7-22.35,16-32,25.76a256.94,256.94,0,0,0-44.28,59.41c-5.53,10.32-10.16,21-12.73,32.49a50.34,50.34,0,0,0-1.11,18.3c.68,4.79,3.23,7.38,8,8.17a29.32,29.32,0,0,0,11.31-.65c9.2-2.08,17.55-6.16,25.52-11.06a153.88,153.88,0,0,0,37.18-32.15,51.6,51.6,0,0,0,8.2-13.37,19.07,19.07,0,0,1,2.26-4.4,3.43,3.43,0,0,1,1.18,3c.33,10.93-2.33,21-9.05,29.74-6.39,8.29-14.21,15.16-22.57,21.4-6.59,4.93-13,10.05-20.07,14.35a69.75,69.75,0,0,1-17.93,8.19c-6.21,1.7-12.22.7-18.13-1.25-7.64-2.52-14.21-6.67-19.12-13.19-4.75-6.31-6.29-13.5-5.9-21.23.49-9.51,3.11-18.51,6.58-27.3,7.09-18,17.06-34.3,28.52-49.77,12.49-16.85,26.51-32.28,42.78-45.58C213,149.39,224,142,236.58,137.21a45.41,45.41,0,0,1,15.54-3.42,14.16,14.16,0,0,1,10.67,4.49,41.58,41.58,0,0,1,4.41,5.49c1,1.44,1.06,1.47,2.46.39,4.86-3.79,10.14-6.94,15.24-10.37C285.69,133.27,286.42,132.5,287.58,132.59ZM258,158.69a9,9,0,0,0-3.14,2.42c-4.19,4.26-8.37,8.51-12.48,12.83a79.44,79.44,0,0,0-9.92,12.53,2.52,2.52,0,0,0-.67,2.19C242.07,179.76,252.12,171.06,258,158.69Z" transform="translate(0 0.01)" style="fill:#6a374f"/><path d="M273.74,322.43q0,5.67.07,11.34c.06,7.59.14,15.18.19,22.77,0,2.82,0,2.83-2.92,3.3l-7.52,1.23a42,42,0,0,1-.24-8.08q0-22.5.07-45v-1.35c-.07-1.12.49-1.6,1.56-1.78,3.92-.66,7.84-1.37,11.75-2.1a1.44,1.44,0,0,1,1.85.82,1.64,1.64,0,0,1,.09.44c.5,2.12,1.09,4.21,1.61,6.31,2,7.9,3.9,15.8,5.88,23.7.23.92.23,2,1.11,2.71a6.56,6.56,0,0,0,.92-2.85c2.42-10.58,4.86-21.14,7.17-31.74.43-2,1.2-2.9,3.25-3.17,3.68-.48,7.31-1.27,11-1.91,2.74-.49,2.79-.44,2.79,2.25v20.07q0,15.32-.06,30.63c0,2.74,0,2.78-2.74,3.21a78.51,78.51,0,0,1-8.9,1.29c.13-12.37.25-24.61.37-37.17a4.55,4.55,0,0,0-1.17,2.85c-2.59,11.09-5.24,22.17-7.68,33.29-.5,2.26-1.47,3.24-3.68,3.38a25.78,25.78,0,0,0-4,.71c-1.14.25-1.65-.17-1.91-1.27-.72-3.09-1.52-6.15-2.26-9.22-1.91-7.92-3.79-15.83-5.69-23.75a9.75,9.75,0,0,0-.32-1Z" transform="translate(0 0.01)" style="fill:#6a374f"/><path d="M369.31,321.17c.84-.91.54-1.85.53-2.72q-.09-14.62-.19-29.27c0-2.48,0-2.49,2.39-2.93,2-.38,4.09-.77,6.14-1.08,1.71-.26,1.83-.15,1.83,1.64V337.5a14.59,14.59,0,0,0,0,1.62,1.73,1.73,0,0,1-1.22,2.12,1.67,1.67,0,0,1-.5.06c-3,.44-5.88,1-8.82,1.52-2.17.35-2.2.33-3-1.69-2.88-7.21-5.73-14.44-8.64-21.65a67,67,0,0,0-3.5-8.24c-.49,3.19-.16,6.07-.15,8.93,0,7.5.18,15,.21,22.5,0,3.07.21,2.62-2.72,3.19-1.95.38-3.91.74-5.87,1.05s-2,.26-2-1.7V294.53c0-3.85-.47-3.31,3.41-4,2.49-.45,5-.85,7.5-1.23,2.08-.32,2.13-.32,2.93,1.73,2.76,7.07,5.47,14.16,8.21,21.24C367,315.21,368.13,318.14,369.31,321.17Z" transform="translate(0 0.01)" style="fill:#6a374f"/><path d="M403.14,336.71c-3.81.73-7.62,1.49-11.45,2.17-1.94.34-2,.27-2-1.68v-52a2,2,0,0,1,1.94-2.29c7.13-1.2,14.25-2.5,21.37-3.73,2.1-.36,2.14-.3,2.18,1.78.06,2.25,0,4.51.09,6.77.06,1.35-.45,1.94-1.79,2.14-3.39.51-6.77,1.13-10.16,1.73-2.26.4-2.26.42-2.29,2.78s-.06,4.7,0,7c0,2,0,2.06,2,1.78,2.68-.4,5.35-.88,8-1.32l1.87-.31c.88-.17,1.41.12,1.41,1.07v7.32c0,1.22-.76,1.47-1.72,1.63-2.94.5-5.88,1-8.82,1.55-2.67.48-2.68.48-2.7,3.25s0,5.42,0,8.13c0,1.75.11,1.84,1.91,1.54,3.65-.61,7.3-1.3,10.95-1.94,2.62-.45,2.63-.44,2.66,2.32,0,2.08,0,4.16,0,6.24.05,1.43-.48,2.07-1.93,2.31-3.83.64-7.64,1.43-11.46,2.15Z" transform="translate(0 0.01)" style="fill:#6a374f"/><path d="M321.89,351c0-4.46-.07-8.6-.07-12.75V298.41c.16-3.69-.57-3.26,3.45-4,1.87-.34,3.74-.65,5.61-1,2.94-.5,2.94-.5,2.93,2.6v10.84q0,19.78-.05,39.56c0,2.52,0,2.54-2.38,2.95C328.3,349.91,325.2,350.42,321.89,351Z" transform="translate(0 0.01)" style="fill:#6a374f"/><path d="M410.79,145.82c-6.79-27.08-41-35.86-52.13-20.89a15.76,15.76,0,0,0-2.34,12.18c1.52,6,7.61,11.3,16.53,10.33,21.69-2.36,23,20.34,23.9,27.11.77,5.6,2.74,7.7,6.95,6.82C409.23,180.2,415.35,164,410.79,145.82Z" transform="translate(0 0.01)" style="fill:#6a374f"/><path d="M523.8,245.9c11.83,6.86,26.43-7.68,30.24-14.76,9.2-17.07-19.67-27-21.7-6.34C530.76,241,520.06,240.42,523.8,245.9Z" transform="translate(0 0.01)" style="fill:#6a374f"/><path d="M514,256.91c-6.32.44-5.65,10.28.69,9.84S520.37,256.47,514,256.91Z" transform="translate(0 0.01)" style="fill:#6a374f"/><path d="M49.58,294.33c-5-19.71,13.89-37.14,26.19-31.39a11.47,11.47,0,0,1,5.71,7c1.1,4.37-1,9.87-7,12.33-14.72,6-7.7,21-6,25.62,1.44,3.86.9,5.88-2.1,6.77C62.45,315.82,52.93,307.53,49.58,294.33Z" transform="translate(0 0.01)" style="fill:#6a374f"/><path d="M81.42,317.15c-6.33.45-5.65,10.28.69,9.84S87.76,316.71,81.42,317.15Z" transform="translate(0 0.01)" style="fill:#6a374f"/></g><g id="Layer_1-2" data-name="Layer 1-2"><path d="M439.3,226.26A337.39,337.39,0,0,0,460.76,200c3.38-4.47,6.67-9,10-13.51.53-.72,1.21-1.43.54-2.43a2.12,2.12,0,0,0-2.66-.7,14.11,14.11,0,0,0-3.24,1.34,37.49,37.49,0,0,0-7.68,6,132.92,132.92,0,0,0-15.87,19A154.35,154.35,0,0,1,439.3,226.26Z" transform="translate(0 0.01)" style="fill:#fff;stroke:#fff;stroke-miterlimit:10;stroke-width:25px"/><path d="M568.34,177.45c-8.57-11-20-14.95-33.33-13.22A40.36,40.36,0,0,0,510.4,176.9c-3.42,3.62-6.75,7.32-9.84,11.21q-10.83,13.57-21.44,27.33a110.14,110.14,0,0,1-9.83,11.21c-1.22,1.21-2.52,2.34-3.79,3.49-.4.35-.88.81-1.42.51-.72-.39-.44-1.12-.28-1.71a38.58,38.58,0,0,1,2.33-5.78A288.27,288.27,0,0,1,482.8,193c12.14-19.18,25-37.88,38.15-56.41,7.32-10.34,15-20.37,22.67-30.49,2.72-3.63,2.62-4.89-.2-8.37a20.05,20.05,0,0,0-1.48-1.58,4.17,4.17,0,0,0-5-.85A20.76,20.76,0,0,0,531,99.57,94.76,94.76,0,0,0,521.92,110c-8,10.27-15.14,21.2-22.24,32.12-6,9.25-11.94,18.56-17.9,27.85-1.17,1.82-1.22,2.63-3.28.65a11.26,11.26,0,0,0-8.71-3.07c-5,.26-9.48,2.21-13.7,4.72a63.79,63.79,0,0,0-13.55,11c-.27-6.07-.83-12.55-1.79-19.41a47.74,47.74,0,0,0-1.85-27.73,89.41,89.41,0,0,0-29.79-40.56A62.65,62.65,0,0,0,376.64,82.2a79.59,79.59,0,0,0-27.21,1.73c-1.5.36-3,.74-4.49,1.06-.76.16-1.24-.15-1.2-1a10.38,10.38,0,0,1,.17-1.35,57,57,0,0,0-3.84-32.16c-7.36-17.34-19.86-29.25-38.26-34.11-18.18-4.8-35.57-2.34-51.7,7.45-11.93,7.25-20.4,17.74-26.76,30a70.52,70.52,0,0,0-7.91,38.56,27.62,27.62,0,0,1,.05,6.23c-1.73-1.52-3.15-2.87-4.67-4.09A105.49,105.49,0,0,0,173,75c-18.28-5.21-35.85-3.28-52.44,6.08A92.82,92.82,0,0,0,86.1,114.91c-6.46,10.79-10.65,22.36-11.57,35a92,92,0,0,0,6.35,41.48c3.56,8.84,7.9,17.26,14.29,24.46.28.31.66.63.53,1.13a1,1,0,0,1-1,.18c-10-1.72-19.83-.88-29.63,1.26A61.41,61.41,0,0,0,33.28,236c-9.51,9.86-15.2,21.76-17.83,35.09-4.49,22.73,1.41,42.24,18.6,58.08a85.93,85.93,0,0,0,31.5,18.17c23.9,8,48.25,9.07,72.84,4a92.36,92.36,0,0,0,28.84-11.21c5,3.77,17.72,12.65,37.59,21.3,0,.07-.07.12-.1.2-.45,1.21.65,1.52,1.42,1.91a60.43,60.43,0,0,0,8.77,3.63c13.51,4.36,27,8.7,40.82,12.06a273.09,273.09,0,0,0,61.16,8.07,284.68,284.68,0,0,0,30.07-.89c7.58-.7,15.05-2,22.54-3.3,19.81-3.36,39.52-7,58.79-12.88a231.85,231.85,0,0,0,46.58-19.77,218.15,218.15,0,0,0,56.8-45.24c9.86-11.1,19.58-22.27,27.77-34.71a116.55,116.55,0,0,0,19.25-56.35C579.67,200.76,576.8,188.33,568.34,177.45ZM457.71,190.64a37.49,37.49,0,0,1,7.68-6,14.11,14.11,0,0,1,3.24-1.34,2.16,2.16,0,0,1,2.66.7c.66,1,0,1.71-.54,2.43-3.32,4.51-6.61,9-10,13.51a337.85,337.85,0,0,1-21.46,26.29,154.67,154.67,0,0,0,2.54-16.6A132.9,132.9,0,0,1,457.71,190.64Z" transform="translate(0 0.01)" style="fill:#fff;stroke:#fff;stroke-miterlimit:10;stroke-width:28px"/><path d="M25.15,313C39,344.51,82.45,350.07,105,350.1s41.73-1.35,60.15-11.48c0,0,70.37,60.16,194.65,39.9s142.3-57.47,142.3-57.47l54-57.05s21.35-37.85,18.24-54.14-11.9-30.57-11.9-30.57l-23.36-9s-19.73-3.55-24.91,10.17S490,216.86,490,216.86s-18.59,20.37-23.74,25.31S455,215.38,455,215.38l-19.86,26.89s16.15-37.82,2.34-97.64C428.82,116.3,396,96.46,396,96.46l-32.15-9.65-22.56,4.3s.93-11-.83-20.19-5.32-30.16-13-33.89S299.81,16.77,289,18.84s-28.42,7.59-33.86,8.63S234.6,49.14,234.6,49.14s-15.37,10.73-13.91,26a250.7,250.7,0,0,1,.65,31.49s-25.48-19.8-31.23-20.43-26.21-8-31.64-7S127,84.39,127,84.39s-22.63,13-25.51,18.3S85.78,122.57,85,127.48s-5.76,37.9-5.76,37.9l5,24.15L103.94,220l-29.2,1.24L42.52,233.87S24.76,252,22.5,262.8,17.77,290.21,25.15,313Z" transform="translate(0 0.01)" style="fill:#eab9e5"/><path d="M451.14,229.7c-1.1.26-1.5,1.26-2.1,2-4.08,5-7.9,10.13-12.27,14.85a34.52,34.52,0,0,1-5,4.59c-3.26,2.35-6,2.5-9.21.17a17.46,17.46,0,0,1-7.38-12.17c-.12-.89-.16-1.79-.25-2.82-1.24.17-1.62,1.17-2.18,1.87-3.75,4.76-7.56,9.47-11.65,13.95a74.33,74.33,0,0,1-7.65,7.3c-3.26,2.68-6.58,2.67-10,.52-5.35-3.36-9-7.82-9-14.49,0-.43.14-.9-.34-1.37a12.77,12.77,0,0,0-2.58,3c-3.23,4.25-6.39,8.55-10,12.47a30.28,30.28,0,0,1-5.72,5,8.79,8.79,0,0,1-9.26.48,16,16,0,0,1-8.84-18.24c.53-2.36,1.25-4.67,1.88-7-.87-.45-1.48.12-2.09.38a27.49,27.49,0,0,1-7.57,2,4.49,4.49,0,0,0-3.45,2.21,151.12,151.12,0,0,1-17.76,21.88A67.33,67.33,0,0,1,296,276.89c-.23.14-.44.31-.67.45-5.84,3.44-9.13,3.09-14.22-1.34-3.45-3-6.07-6.44-6.15-11.21-1.19-.18-1.38.7-1.78,1.2-4.1,5.06-8.17,10.14-12.72,14.82a50.63,50.63,0,0,1-6,5.43c-3.32,2.47-6.72,2.29-10.15.31A18.48,18.48,0,0,1,238,280a28.43,28.43,0,0,1-3.25-6.84,2.05,2.05,0,0,0-.86-1.32,6.74,6.74,0,0,0-2.16,1.62,87.51,87.51,0,0,1-18.86,12.15,24.49,24.49,0,0,1-2.78,1.06c-.41.13-.91.32-1.19-.21s.17-.84.46-1.15c3.8-4.24,7.63-8.46,11.75-12.41,3.46-3.32,6.84-6.71,10.3-10a3.31,3.31,0,0,0,1.18-2.57c.05-9.76,2.73-18.94,6.34-27.87,14.21-35.11,35.21-65.73,61.68-92.69a56.38,56.38,0,0,1,10.13-8.56c3.36-2.1,6.23-2,9.21.55,4.35,3.78,6.28,8.49,4.89,14.32a70.34,70.34,0,0,1-6.39,15.8c-7.41,14.34-16.28,27.78-25.61,40.91a479.86,479.86,0,0,1-38.16,47.62q-3.85,4.19-7.88,8.22a4.26,4.26,0,0,0-1.34,3.64,24.28,24.28,0,0,0,1.62,7.66c1.07,2.45,2.24,2.75,4.4,1.22a34.54,34.54,0,0,0,4.62-4.18c8.09-8.3,15.43-17.26,22.74-26.24,8.22-10.11,15.82-20.69,23.79-31,2.49-3.21,5.24-6.21,7.53-9.6a21.12,21.12,0,0,1,7.35-6.71,15.14,15.14,0,0,1,11.78-1.54,19.08,19.08,0,0,1,10.45,6.39,12.88,12.88,0,0,1,2.56,8.66c-.12,5.71-1.92,11-4.1,16.2-.31.75-.59,1.5-.87,2.26a1.1,1.1,0,0,0,.06.37,4.42,4.42,0,0,0,2.71-.93,38.43,38.43,0,0,0,14.66-13.75q5-7.91,10-15.8a22.45,22.45,0,0,1,4.53-5.37,6.49,6.49,0,0,1,8.25-.2c.22.16.42.33.63.51,5.21,4.4,5.42,5.54,1.87,11.32-5.71,9.33-11.94,18.34-17.38,27.85a104,104,0,0,0-8.15,16.83,10.81,10.81,0,0,0-.87,3.76,4.86,4.86,0,0,0,2.59-1.61,81.14,81.14,0,0,0,9-9.8c10.3-12.75,19.59-26.23,28.89-39.71,3.09-4.46,6.07-9,9.12-13.49,1.47-2.18,2.15-2.4,4.49-1.36a23.18,23.18,0,0,1,6.93,4.69,3.11,3.11,0,0,1,.69,3.93,65.88,65.88,0,0,1-4.7,7.93A246.9,246.9,0,0,0,396,225.23a154.35,154.35,0,0,0-7.31,15.44c-.57,1.52-1.71,3-.74,4.82,2,0,3-1.47,4.25-2.59a183.46,183.46,0,0,0,14-15.11c10.55-12.18,20.16-25.1,30.13-37.74,5.4-6.86,11.58-13,19.15-17.44,4.22-2.51,8.68-4.46,13.7-4.72a11.25,11.25,0,0,1,8.71,3.06c2.06,2,2.11,1.18,3.28-.64,6-9.29,11.88-18.6,17.9-27.85,7.1-10.92,14.19-21.85,22.24-32.12A93.8,93.8,0,0,1,530.38,100a20.59,20.59,0,0,1,5.91-4.26,4.17,4.17,0,0,1,5,.85,18.32,18.32,0,0,1,1.47,1.58c2.83,3.47,2.93,4.74.21,8.37-7.62,10.12-15.35,20.15-22.67,30.48-13.13,18.53-26,37.23-38.16,56.42a289.06,289.06,0,0,0-16.66,30.15,38.58,38.58,0,0,0-2.33,5.78c-.17.58-.44,1.32.27,1.71.55.3,1-.16,1.42-.52,1.28-1.14,2.58-2.28,3.8-3.48a111.38,111.38,0,0,0,9.83-11.21q10.65-13.73,21.43-27.33c3.1-3.89,6.43-7.6,9.85-11.21a40.31,40.31,0,0,1,24.61-12.67c13.36-1.73,24.76,2.19,33.33,13.21S579,201.14,578,214.53a116.55,116.55,0,0,1-19.25,56.36C550.6,283.32,540.88,294.5,531,305.6c-16.33,18.38-35.47,33.2-56.8,45.24a231.81,231.81,0,0,1-46.58,19.76c-19.27,5.87-39,9.53-58.79,12.88-7.49,1.27-15,2.61-22.54,3.31a284.68,284.68,0,0,1-30.07.89A274.38,274.38,0,0,1,255,379.6c-13.78-3.37-27.32-7.7-40.82-12.06a60.43,60.43,0,0,1-8.77-3.63c-.77-.39-1.87-.7-1.42-1.91s1.51-.79,2.36-.6c3.61.8,7.26,1.51,10.82,2.51,13.35,3.76,27,5.76,40.73,7.67a375.34,375.34,0,0,0,41.55,3.67,318.24,318.24,0,0,0,44.41-1.66c8.36-.94,16.58-2.8,24.83-4.46,13.13-2.64,26.26-5.23,39.22-8.61a250.66,250.66,0,0,0,42.9-15.14c24.82-11.57,47.09-26.74,65.86-46.88a376.43,376.43,0,0,0,27.73-33c8.6-11.61,14.05-24.59,17.6-38.5,1.78-7,3.13-13.93,2.81-21.15A48.33,48.33,0,0,0,562.38,192,18.82,18.82,0,0,0,542,178.43c-7,.45-13,3.59-18.49,7.76a75.62,75.62,0,0,0-11.55,11c-8.42,9.82-16.53,19.9-24.59,30a120.47,120.47,0,0,1-12.48,13.56,40.7,40.7,0,0,1-6.15,4.88,11.28,11.28,0,0,1-7,1.68,9.16,9.16,0,0,1-8-5.26c-1.57-3.06-1.91-6.39-2.23-9.72A5.62,5.62,0,0,0,451.14,229.7Zm-202,13.1c.51-.09.72-.07.81-.16,1.38-1.55,2.8-3.07,4.12-4.67a540.29,540.29,0,0,0,42.22-58.75,155.27,155.27,0,0,0,11.37-20.65,16.62,16.62,0,0,0,1.57-5.15c0-.43.21-.95-.21-1.27-.59-.45-1,.06-1.43.36a44.6,44.6,0,0,0-5.9,6,356.88,356.88,0,0,0-30.61,41.72,241.86,241.86,0,0,0-19.53,36.24c-.85,2-1.55,4.11-2.4,6.33Zm178.23-5.65a33.66,33.66,0,0,0,6-5.11c9.85-9.76,18.35-20.66,26.67-31.7,3.38-4.47,6.67-9,10-13.52.53-.71,1.21-1.43.54-2.42a2.13,2.13,0,0,0-2.66-.7,13.12,13.12,0,0,0-3.24,1.34,37.49,37.49,0,0,0-7.68,6,132.6,132.6,0,0,0-27.27,39.14,27.67,27.67,0,0,0-2.35,7ZM306,228.06a1,1,0,0,0-.89.61,170.43,170.43,0,0,0-15.87,29.51,14.12,14.12,0,0,0-.87,2.84c-.21,1.26.38,1.67,1.59,1.18a13.94,13.94,0,0,0,4-2.81c6.5-5.91,12-12.71,17.36-19.64,1.78-2.3,1.76-2.3-.36-4.45a20,20,0,0,1-3.9-5.48C306.69,229.21,306.6,228.44,306,228.06ZM329.43,206c-5.67,1.49-11.82,8.23-12.5,13.59a7.52,7.52,0,0,0,1.87,6.52c1,1,1.57,1,2.35-.11a59.69,59.69,0,0,0,7.71-14.52A10.16,10.16,0,0,0,329.43,206Z" transform="translate(0 0.01)" style="fill:#ed40a9"/><path d="M95,217.27c.13-.51-.25-.83-.53-1.13-6.39-7.2-10.73-15.62-14.29-24.46a91.87,91.87,0,0,1-6.35-41.48c.92-12.61,5.11-24.19,11.57-35a92.92,92.92,0,0,1,34.46-33.84c16.57-9.36,34.14-11.25,52.42-6A105.53,105.53,0,0,1,210.09,94.9c1.52,1.23,2.94,2.58,4.67,4.1a27.13,27.13,0,0,0,0-6.24,70.61,70.61,0,0,1,7.91-38.56c6.36-12.26,14.83-22.76,26.76-30,16.13-9.79,33.52-12.26,51.7-7.45,18.4,4.86,30.89,16.76,38.26,34.11A57,57,0,0,1,343.18,83a10.38,10.38,0,0,0-.17,1.35c0,.83.44,1.15,1.2,1,1.5-.33,3-.7,4.49-1.06a79.85,79.85,0,0,1,27.21-1.74,62.81,62.81,0,0,1,32.47,13.31,89.29,89.29,0,0,1,29.78,40.57,47.48,47.48,0,0,1,1.25,30.09,13.09,13.09,0,0,1-.68,2,23.1,23.1,0,0,1-1.28,2.13c-1.16-.54-.9-1.58-1-2.37a136.42,136.42,0,0,0-9.86-33.49A76.65,76.65,0,0,0,397.7,100.7c-9.63-6.3-20.32-8.78-31.73-8.5a130.13,130.13,0,0,0-34.22,5.38,145.59,145.59,0,0,0-26.86,11.54,8.7,8.7,0,0,1-3.38,1.45,6.9,6.9,0,0,1,2.07-2.23,100.61,100.61,0,0,1,25.6-16.54c1.56-.72,3.08-1.52,4.68-2.15A3.19,3.19,0,0,0,336,86.83,64.34,64.34,0,0,0,336.7,76c-.21-7.46-1.11-14.81-4.16-21.72a47.54,47.54,0,0,0-21-22.72c-16.37-9.07-33.39-9.77-50.77-3.17A48.9,48.9,0,0,0,236.23,48.9a93.73,93.73,0,0,0-12.5,33c-1.3,6.94-.63,13.87.05,20.8.31,3.15.64,6.3.94,9.45a10.07,10.07,0,0,1,.06,1.9c-.29,2.67-2.4,3.9-4.88,2.84a11.86,11.86,0,0,1-3.14-2.11c-2.3-2-4.53-4.15-6.85-6.17-10-8.74-20.88-16.19-33.25-21.2a60.75,60.75,0,0,0-31.1-4.32,52.69,52.69,0,0,0-16.81,5.08c-17.84,8.93-31.36,22.28-39.66,40.46-7.12,15.59-8.22,31.94-4.16,48.53a88.49,88.49,0,0,0,19,36.47,54.3,54.3,0,0,0,7.65,7.28,8,8,0,0,1,2.4,2.89c1.26,2.82,0,4.75-3,4.56a44.44,44.44,0,0,1-6.68-1.06C88.51,223.92,73,224.71,58,231s-25.17,17-31.54,31.63A55.75,55.75,0,0,0,21.64,289c1,14.44,7.5,26,18.46,35.28a82.38,82.38,0,0,0,24.66,14c12.5,4.66,25.52,6.62,38.77,7.36A120.11,120.11,0,0,0,132.18,344a101.17,101.17,0,0,0,44.3-20,240.49,240.49,0,0,0,24.58-22.09c.42-.43.8-1.19,1.52-.87a1.64,1.64,0,0,1,.68,1.91,7.91,7.91,0,0,1-.75,2,42.41,42.41,0,0,1-7.77,11c-5.47,5.79-10.79,11.7-17,16.72a93.35,93.35,0,0,1-40.06,19c-24.59,5.08-48.94,4-72.84-4a85.93,85.93,0,0,1-31.5-18.17c-17.19-15.84-23.09-35.35-18.61-58.09,2.64-13.33,8.33-25.23,17.84-35.08a61.42,61.42,0,0,1,31.77-17.67c9.81-2.14,19.67-3,29.64-1.26A1,1,0,0,0,95,217.27Z" transform="translate(0 0.01)" style="fill:#ed40a9"/><path d="M279.58,124.59c-.05.94-.81,1.21-1.29,1.66-4.25,3.94-9,7.34-13.45,11a20,20,0,0,1-1.7,1.34c-1.26.78-1.27,1.66-.64,2.94,2.08,4.25,3.1,8.76,1.91,13.43-1.65,6.41-3.76,12.65-7.89,18a108.27,108.27,0,0,1-21.77,21,47.27,47.27,0,0,1-12.2,6.41,16.4,16.4,0,0,1-1.81.55c-7.34,1.59-12.59-3.2-11.65-10.65a22.24,22.24,0,0,1,3.93-9.42c4-5.89,8.92-10.89,14-15.83a297.07,297.07,0,0,1,22.9-19.93c.61-.47,1.61-.8,1.44-1.78a2.68,2.68,0,0,0-2.3-2,11.44,11.44,0,0,0-5.36.28A64.85,64.85,0,0,0,226,149c-11.93,7-22.35,16-32,25.76a256.94,256.94,0,0,0-44.28,59.41c-5.53,10.32-10.16,21-12.73,32.49a50.34,50.34,0,0,0-1.11,18.3c.68,4.79,3.23,7.38,8,8.17a29.32,29.32,0,0,0,11.31-.65c9.2-2.08,17.55-6.16,25.52-11.06a153.88,153.88,0,0,0,37.18-32.15,51.6,51.6,0,0,0,8.2-13.37,19.07,19.07,0,0,1,2.26-4.4,3.43,3.43,0,0,1,1.18,3c.33,10.93-2.33,21-9.05,29.74-6.39,8.29-14.21,15.16-22.57,21.4-6.59,4.93-13,10.05-20.07,14.35a69.75,69.75,0,0,1-17.93,8.19c-6.21,1.7-12.22.7-18.13-1.25-7.64-2.52-14.21-6.67-19.12-13.19-4.75-6.31-6.29-13.5-5.9-21.23.49-9.51,3.11-18.51,6.58-27.3,7.09-18,17.06-34.3,28.52-49.77,12.49-16.85,26.51-32.28,42.78-45.58C205,141.39,216,134,228.58,129.21a45.41,45.41,0,0,1,15.54-3.42,14.16,14.16,0,0,1,10.67,4.49,41.58,41.58,0,0,1,4.41,5.49c1,1.44,1.06,1.47,2.46.39,4.86-3.79,10.14-6.94,15.24-10.37C277.69,125.27,278.42,124.5,279.58,124.59ZM250,150.69a9,9,0,0,0-3.14,2.42c-4.19,4.26-8.37,8.51-12.48,12.83a79.44,79.44,0,0,0-9.92,12.53,2.52,2.52,0,0,0-.67,2.19C234.07,171.76,244.12,163.06,250,150.69Z" transform="translate(0 0.01)" style="fill:#ed40a9"/><path d="M265.74,314.43q0,5.67.07,11.34c.06,7.59.14,15.18.19,22.77,0,2.82,0,2.83-2.92,3.3l-7.52,1.23a42,42,0,0,1-.24-8.08q0-22.5.07-45v-1.35c-.07-1.12.49-1.6,1.56-1.78,3.92-.66,7.84-1.37,11.75-2.1a1.44,1.44,0,0,1,1.85.82,1.64,1.64,0,0,1,.09.44c.5,2.12,1.09,4.21,1.61,6.31,2,7.9,3.9,15.8,5.88,23.7.23.92.23,2,1.11,2.71a6.56,6.56,0,0,0,.92-2.85c2.42-10.58,4.86-21.14,7.17-31.74.43-2,1.2-2.9,3.25-3.17,3.68-.48,7.31-1.27,11-1.91,2.74-.49,2.79-.44,2.79,2.25v20.07q0,15.32-.06,30.63c0,2.74,0,2.78-2.74,3.21a78.51,78.51,0,0,1-8.9,1.29c.13-12.37.25-24.61.37-37.17a4.55,4.55,0,0,0-1.17,2.85c-2.59,11.09-5.24,22.17-7.68,33.29-.5,2.26-1.47,3.24-3.68,3.38a25.78,25.78,0,0,0-4,.71c-1.14.25-1.65-.17-1.91-1.27-.72-3.09-1.52-6.15-2.26-9.22-1.91-7.92-3.79-15.83-5.69-23.75a9.75,9.75,0,0,0-.32-1Z" transform="translate(0 0.01)" style="fill:#fff"/><path d="M361.31,313.17c.84-.91.54-1.85.53-2.72q-.09-14.62-.19-29.27c0-2.48,0-2.49,2.39-2.93,2-.38,4.09-.77,6.14-1.08,1.71-.26,1.83-.15,1.83,1.64V329.5a14.59,14.59,0,0,0,0,1.62,1.73,1.73,0,0,1-1.22,2.12,1.67,1.67,0,0,1-.5.06c-3,.44-5.88,1-8.82,1.52-2.17.35-2.2.33-3-1.69-2.88-7.21-5.73-14.44-8.64-21.65a67,67,0,0,0-3.5-8.24c-.49,3.19-.16,6.07-.15,8.93,0,7.5.18,15,.21,22.5,0,3.07.21,2.62-2.72,3.19-1.95.38-3.91.74-5.87,1.05s-2,.26-2-1.7V286.53c0-3.85-.47-3.31,3.41-4,2.49-.45,5-.85,7.5-1.23,2.08-.32,2.13-.32,2.93,1.73,2.76,7.07,5.47,14.16,8.21,21.24C359,307.21,360.13,310.14,361.31,313.17Z" transform="translate(0 0.01)" style="fill:#fff"/><path d="M395.14,328.71c-3.81.73-7.62,1.49-11.45,2.17-1.94.34-2,.27-2-1.68v-52a2,2,0,0,1,1.94-2.29c7.13-1.2,14.25-2.5,21.37-3.73,2.1-.36,2.14-.3,2.18,1.78.06,2.25,0,4.51.09,6.77.06,1.35-.45,1.94-1.79,2.14-3.39.51-6.77,1.13-10.16,1.73-2.26.4-2.26.42-2.29,2.78s-.06,4.7,0,7c0,2,0,2.06,2,1.78,2.68-.4,5.35-.88,8-1.32l1.87-.31c.88-.17,1.41.12,1.41,1.07v7.32c0,1.22-.76,1.47-1.72,1.63-2.94.5-5.88,1-8.82,1.55-2.67.48-2.68.48-2.7,3.25s0,5.42,0,8.13c0,1.75.11,1.84,1.91,1.54,3.65-.61,7.3-1.3,10.95-1.94,2.62-.45,2.63-.44,2.66,2.32,0,2.08,0,4.16,0,6.24.05,1.43-.48,2.07-1.93,2.31-3.83.64-7.64,1.43-11.46,2.15Z" transform="translate(0 0.01)" style="fill:#fff"/><path d="M313.89,343c0-4.46-.07-8.6-.07-12.75V290.41c.16-3.69-.57-3.26,3.45-4,1.87-.34,3.74-.65,5.61-1,2.94-.5,2.94-.5,2.93,2.6v10.84q0,19.78-.05,39.56c0,2.52,0,2.54-2.38,2.95C320.3,341.91,317.2,342.42,313.89,343Z" transform="translate(0 0.01)" style="fill:#fff"/><path d="M402.79,137.82c-6.79-27.08-41-35.86-52.13-20.89a15.76,15.76,0,0,0-2.34,12.18c1.52,6,7.61,11.3,16.53,10.33,21.69-2.36,23,20.34,23.9,27.11.77,5.6,2.74,7.7,6.95,6.82C401.23,172.2,407.35,156,402.79,137.82Z" transform="translate(0 0.01)" style="fill:#f4ddea"/><path d="M515.8,237.9c11.83,6.86,26.43-7.68,30.24-14.76,9.2-17.07-19.67-27-21.7-6.34C522.76,233,512.06,232.42,515.8,237.9Z" transform="translate(0 0.01)" style="fill:#f4ddea"/><path d="M506,248.91c-6.32.44-5.65,10.28.69,9.84S512.37,248.47,506,248.91Z" transform="translate(0 0.01)" style="fill:#f4ddea"/><path d="M41.58,286.33c-5-19.71,13.89-37.14,26.19-31.39a11.47,11.47,0,0,1,5.71,7c1.1,4.37-1,9.87-7,12.33-14.72,6-7.7,21-6,25.62,1.44,3.86.9,5.88-2.1,6.77C54.45,307.82,44.93,299.53,41.58,286.33Z" transform="translate(0 0.01)" style="fill:#f4ddea"/><path d="M73.42,309.15c-6.33.45-5.65,10.28.69,9.84S79.76,308.71,73.42,309.15Z" transform="translate(0 0.01)" style="fill:#f4ddea"/></g></g></svg>