<svg id="Layer_1" data-name="Layer 1" xmlns="http://www.w3.org/2000/svg" width="874.73" height="416.26" viewBox="0 0 875 417"><title>clouds</title><g id="Layer_2" data-name="Layer 2"><g style="opacity:0.12"><path d="M49.19,178.76h0c-.42.21-1.61,10.36-1.81,11.07A44.24,44.24,0,0,1,40.6,204a44.19,44.19,0,0,1-9.4,9.42c-1.07.79-10.29,6.71-11.15,6.71H20c2.21,2.52,22.08,4.1,27.13,28.91.19.9,2.31,12,2.42,12h0c.47-.14,1.39-8.14,1.42-9.31.6-25.75,28.1-30.85,28-32.17-8.43-4.63-16.07-8.18-22.07-17.48A44,44,0,0,1,51,188.23C50.8,187.27,49.64,178.76,49.19,178.76Z" transform="translate(0 0)" style="fill:#6a374f;stroke:#6a374f;stroke-linecap:round;stroke-linejoin:round;stroke-width:24px"/><path d="M121.11,219.88h0c-.55.27-2.12,13.6-2.37,14.53a56.74,56.74,0,0,1-21.25,31c-1.4,1-13.5,8.8-14.62,8.8H82.8c2.9,3.3,29,5.38,35.61,37.93.24,1.19,3,15.7,3.16,15.7h0c.63-.18,1.83-10.69,1.87-12.22.79-33.79,36.87-40.48,36.68-42.21-11.06-6.08-21.08-10.74-28.94-22.94a57.39,57.39,0,0,1-7.67-18.13C123.22,231.06,121.69,219.88,121.11,219.88Z" transform="translate(0 0)" style="fill:#6a374f;stroke:#6a374f;stroke-linecap:round;stroke-linejoin:round;stroke-width:24px"/><path d="M519.54,85.14h0c-.54.26-2,13.19-2.3,14.09a56.13,56.13,0,0,1-8.62,18.06,55.51,55.51,0,0,1-12,12c-1.36,1-13.09,8.53-14.18,8.53h-.07c2.81,3.2,28.1,5.22,34.53,36.78.23,1.16,2.93,15.23,3.07,15.23.6-.18,1.77-10.36,1.81-11.85.77-32.76,35.75-39.25,35.57-40.93-10.73-5.9-20.44-10.41-28.07-22.24a55.77,55.77,0,0,1-7.43-17.59C521.58,96,520.11,85.14,519.54,85.14Z" transform="translate(0 0)" style="fill:#6a374f;stroke:#6a374f;stroke-linecap:round;stroke-linejoin:round;stroke-width:12px"/><path d="M49.19,178h0c-.42.21-1.61,10.37-1.81,11.08a44.32,44.32,0,0,1-6.77,14.19,44.19,44.19,0,0,1-9.4,9.42c-1.07.79-10.29,6.71-11.15,6.71h0c2.21,2.52,22.08,4.1,27.13,28.91.19.91,2.31,12,2.42,12h0C50,260.17,51,252.17,51,251c.6-25.75,28.1-30.84,28-32.16-8.43-4.64-16.07-8.19-22.07-17.48A44.19,44.19,0,0,1,51,187.48C50.8,186.53,49.64,178,49.19,178Z" transform="translate(0 0)" style="fill:#6a374f"/><path d="M121.11,219.14h0c-.55.27-2.12,13.6-2.37,14.53a58.2,58.2,0,0,1-8.89,18.63,57.4,57.4,0,0,1-12.34,12.36c-1.4,1-13.5,8.8-14.62,8.8h-.07c2.9,3.3,29,5.38,35.61,37.93.24,1.19,3,15.7,3.16,15.7h0c.63-.18,1.83-10.68,1.87-12.22.79-33.78,36.87-40.47,36.68-42.2-11.06-6.09-21.08-10.75-28.94-22.94a57.67,57.67,0,0,1-7.67-18.14C123.22,230.31,121.69,219.14,121.11,219.14Z" transform="translate(0 0)" style="fill:#6a374f"/><path d="M519.62,96.44h0c-.41.2-1.55,10-1.74,10.65a42.6,42.6,0,0,1-6.52,13.66,42,42,0,0,1-9,9.06c-1,.76-9.9,6.45-10.72,6.45h-.06c2.13,2.42,21.25,3.94,26.11,27.81.18.87,2.22,11.51,2.32,11.51.46-.13,1.34-7.83,1.37-9,.58-24.77,27-29.67,26.9-30.94-8.11-4.46-15.46-7.88-21.23-16.82a42.44,42.44,0,0,1-5.62-13.3C521.17,104.64,520.05,96.44,519.62,96.44Z" transform="translate(0 0)" style="fill:#6a374f"/><path d="M847.55,321.79a45.25,45.25,0,0,0-15.15-9.72,53.18,53.18,0,0,0-14.88-3.39c8.64-17.17,13-34.87,13-51.86a90.35,90.35,0,0,0-18-55c-12-15.83-29.76-28.3-52.81-35.4a132.84,132.84,0,0,0-39.14-5.93,127.49,127.49,0,0,0-71.8,21.9A120.57,120.57,0,0,0,605,236.45a45.92,45.92,0,0,0-10.49-6.12,46.71,46.71,0,0,0-18.12-3.55,55.48,55.48,0,0,0-21,4.26,61.62,61.62,0,0,0-25.58,19.64,52,52,0,0,0-10.6,27.61,60.89,60.89,0,0,0-16-2.19,57.63,57.63,0,0,0-24.3,5.37A63.6,63.6,0,0,0,452.24,305a62.9,62.9,0,0,0-10.11,33.7,54.65,54.65,0,0,0,6,25.11,60.88,60.88,0,0,0,19.16,21.7,79.34,79.34,0,0,0,27.83,12.34,133.36,133.36,0,0,0,31.29,3.33c17.69,0,36-2.48,53.39-5.13s33.91-5.49,47.78-6.32q6-.36,12-.35c21.24,0,43.55,3,66.17,6.14s45.58,6.23,68.21,6.24c17.56,0,35-1.9,51.79-7.28,11.48-3.67,20.18-9.87,25.93-17.44a41.28,41.28,0,0,0,8.55-25.15A42.15,42.15,0,0,0,847.55,321.79Z" transform="translate(0 0)" style="fill:#6a374f;stroke:#6a374f;stroke-miterlimit:10;stroke-width:29px"/><path d="M482.18,220.77a39.57,39.57,0,0,0,15.64-11.28,30,30,0,0,0,4.87-8.53,29.38,29.38,0,0,0,1.77-10.21,35.15,35.15,0,0,0-1.11-8.66A40.47,40.47,0,0,0,498,169.64a33.89,33.89,0,0,0-13.48-11.9A38.47,38.47,0,0,0,467.65,154a47.1,47.1,0,0,0-21.17,5.18c-1,.49-1.91,1-2.85,1.58,0-.45.05-.9.05-1.36a32,32,0,0,0-4.49-16.4,40.85,40.85,0,0,0-12.71-13.09,52.31,52.31,0,0,0-29.43-9.27,55,55,0,0,0-25.72,6.63,66.31,66.31,0,0,0-8.23,5.2,132.84,132.84,0,0,0,2.54-25.4c0-13.89-2.4-27.73-8.13-40.17A71.22,71.22,0,0,0,346.3,49.58a69.19,69.19,0,0,0-16.76-13.87A93.49,93.49,0,0,0,281.81,22.5a87.89,87.89,0,0,0-31.74,5.87,83,83,0,0,0-27.82,17.87,96.13,96.13,0,0,0-20.36,29.27,86.17,86.17,0,0,0-7.84,35,68.78,68.78,0,0,0,2.76,19.5c.45,1.51.95,3,1.52,4.5-2-.75-3.93-1.43-5.92-2.06A74.16,74.16,0,0,0,170.89,129a55.45,55.45,0,0,0-16.58,2.45,50.07,50.07,0,0,0-15.57,8.1,55.08,55.08,0,0,0-15.59,19.09,54.07,54.07,0,0,0-5.85,24.08,46.53,46.53,0,0,0,1.51,11.86,38.79,38.79,0,0,0,5.52,12.18,37.39,37.39,0,0,0,7.44,7.94,50.65,50.65,0,0,0,16.63,8.47c9,2.83,18.85,3.92,28.28,4.44s18.49.47,25.83.82c29.92,1.42,59.88,1.93,89.81,1.93q28.44,0,56.84-.52c39.4-.65,80.56.19,120.33-5.66A53.12,53.12,0,0,0,482.18,220.77Z" transform="translate(0 0)" style="fill:#6a374f;stroke:#6a374f;stroke-miterlimit:10;stroke-width:29px"/><path d="M849.51,321.79a45,45,0,0,0-15.15-9.72,52.84,52.84,0,0,0-14.87-3.39c8.63-17.17,13-34.87,13-51.86a90.35,90.35,0,0,0-18-55c-12-15.83-29.76-28.3-52.81-35.4a132.84,132.84,0,0,0-39.14-5.93,127.49,127.49,0,0,0-71.8,21.9A120.54,120.54,0,0,0,607,236.45a45.56,45.56,0,0,0-10.49-6.12,46.7,46.7,0,0,0-18.11-3.55,55.48,55.48,0,0,0-21,4.26,61.45,61.45,0,0,0-25.58,19.64,51.77,51.77,0,0,0-10.6,27.61,61.31,61.31,0,0,0-16-2.19,57.63,57.63,0,0,0-24.3,5.37A63.67,63.67,0,0,0,454.21,305a62.91,62.91,0,0,0-10.12,33.7,54.78,54.78,0,0,0,6,25.11,60.86,60.86,0,0,0,19.15,21.7,79.46,79.46,0,0,0,27.84,12.34,133.27,133.27,0,0,0,31.28,3.33c17.69,0,36-2.48,53.39-5.13s33.92-5.49,47.79-6.32q5.94-.36,12-.35c21.23,0,43.54,3,66.17,6.14s45.57,6.23,68.21,6.24c17.56,0,35-1.9,51.78-7.28,11.49-3.67,20.18-9.87,25.94-17.44a41.29,41.29,0,0,0,8.54-25.15A42.1,42.1,0,0,0,849.51,321.79Z" transform="translate(0 0)" style="fill:#6a374f"/><path d="M484.15,220.77a39.57,39.57,0,0,0,15.64-11.28,30,30,0,0,0,4.86-8.53,29.62,29.62,0,0,0,1.78-10.21,36.13,36.13,0,0,0-1.11-8.66A40.4,40.4,0,0,0,500,169.64a33.76,33.76,0,0,0-13.48-11.9A38.33,38.33,0,0,0,469.61,154a47.06,47.06,0,0,0-21.16,5.18,31.44,31.44,0,0,0-2.85,1.58V159.4a32.05,32.05,0,0,0-4.44-16.4,40.85,40.85,0,0,0-12.71-13.09A52.35,52.35,0,0,0,399,120.66a54.89,54.89,0,0,0-25.72,6.63,66.31,66.31,0,0,0-8.23,5.2,132.91,132.91,0,0,0,2.53-25.4c0-13.89-2.39-27.73-8.12-40.17a71.53,71.53,0,0,0-11.21-17.34,69.65,69.65,0,0,0-16.76-13.87A93.58,93.58,0,0,0,283.77,22.5,87.62,87.62,0,0,0,252,28.37a82.84,82.84,0,0,0-27.82,17.87,96,96,0,0,0-20.36,29.27,86.34,86.34,0,0,0-7.85,35,68.09,68.09,0,0,0,2.77,19.5q.66,2.27,1.52,4.5c-2-.75-3.92-1.44-5.93-2.06A74,74,0,0,0,172.82,129a55.45,55.45,0,0,0-16.58,2.45,49.86,49.86,0,0,0-15.57,8.1,55.08,55.08,0,0,0-15.59,19.09,54.21,54.21,0,0,0-5.86,24.08,46.1,46.1,0,0,0,1.52,11.86,38.79,38.79,0,0,0,5.52,12.18,37.14,37.14,0,0,0,7.44,7.94,50.6,50.6,0,0,0,16.62,8.47c9,2.83,18.85,3.92,28.29,4.44s18.49.47,25.83.82c29.92,1.42,59.87,1.93,89.8,1.93q28.45,0,56.85-.52c39.4-.65,80.56.19,120.33-5.66A53.44,53.44,0,0,0,484.15,220.77Z" transform="translate(0 0)" style="fill:#6a374f"/><path d="M846.55,321.79a45,45,0,0,0-15.16-9.72,52.84,52.84,0,0,0-14.87-3.39c8.64-17.17,13-34.87,13-51.86a90.35,90.35,0,0,0-18-55c-12-15.83-29.76-28.3-52.81-35.4a132.84,132.84,0,0,0-39.14-5.93,127.49,127.49,0,0,0-71.8,21.9A120.57,120.57,0,0,0,604,236.45a45.92,45.92,0,0,0-10.49-6.12,46.71,46.71,0,0,0-18.12-3.55,55.48,55.48,0,0,0-21,4.26,61.62,61.62,0,0,0-25.58,19.64,51.85,51.85,0,0,0-10.6,27.61,60.89,60.89,0,0,0-16-2.19,57.63,57.63,0,0,0-24.3,5.37A63.6,63.6,0,0,0,451.24,305a62.9,62.9,0,0,0-10.11,33.7,54.65,54.65,0,0,0,6,25.11,60.88,60.88,0,0,0,19.16,21.7,79.34,79.34,0,0,0,27.83,12.34,133.36,133.36,0,0,0,31.29,3.33c17.69,0,36-2.48,53.39-5.13s33.91-5.49,47.78-6.32q5.94-.36,12-.35c21.24,0,43.54,3,66.17,6.14s45.58,6.23,68.21,6.24c17.56,0,35-1.9,51.79-7.28,11.48-3.67,20.18-9.87,25.93-17.44a41.28,41.28,0,0,0,8.55-25.15A42.15,42.15,0,0,0,846.55,321.79Zm-3.8,49.15c-4.43,5.8-11.24,10.82-21,14-15.56,5-31.89,6.81-48.74,6.81-21.7,0-44.23-3-66.85-6.15s-45.34-6.23-67.53-6.23c-4.23,0-8.44.11-12.62.37-14.71.89-31.4,3.78-48.69,6.41s-35.13,5-51.88,5a124.09,124.09,0,0,1-28.94-3,69.35,69.35,0,0,1-24.37-10.76A51,51,0,0,1,456,359.2a44.76,44.76,0,0,1-4.9-20.55,51.57,51.57,0,0,1,3.9-19.38,55.58,55.58,0,0,1,18.35-23.62,47.72,47.72,0,0,1,28.78-9.59c13.73.13,28.39,8.13,28.39,8.13s-5.66-16.34,1.53-29.89a52.8,52.8,0,0,1,18-19.88,47.73,47.73,0,0,1,25.23-7.68,39.18,39.18,0,0,1,14.27,2.78c17.37,6.75,20.13,24.71,20.29,24.67s3.58-43.92,43.43-73.58c18.59-13.84,42.24-20.16,66.16-20.16a122.66,122.66,0,0,1,36.19,5.49c21.31,6.58,37.17,17.84,47.79,31.87a77.63,77.63,0,0,1,16,49c-1,42.95-24.75,63.2-24.75,63.2s19.25-5.25,33,1.36c6.82,3.27,12.37,7.23,16,12.58a31.94,31.94,0,0,1,5.51,17.88A31.41,31.41,0,0,1,842.75,370.94Z" transform="translate(0 0)" style="fill:#6a374f;stroke:#6a374f;stroke-miterlimit:10;stroke-width:0.75px"/><path d="M482.18,220.77a39.57,39.57,0,0,0,15.64-11.28,30,30,0,0,0,4.87-8.53,29.38,29.38,0,0,0,1.77-10.21,35.15,35.15,0,0,0-1.11-8.66A40.47,40.47,0,0,0,498,169.64a33.89,33.89,0,0,0-13.48-11.9A38.47,38.47,0,0,0,467.65,154a47.1,47.1,0,0,0-21.17,5.18c-1,.49-1.91,1-2.85,1.58,0-.45.05-.9.05-1.36a32,32,0,0,0-4.49-16.4,40.85,40.85,0,0,0-12.71-13.09,52.31,52.31,0,0,0-29.43-9.27,55,55,0,0,0-25.72,6.63,66.31,66.31,0,0,0-8.23,5.2,132.84,132.84,0,0,0,2.54-25.4c0-13.89-2.4-27.73-8.13-40.17A71.22,71.22,0,0,0,346.3,49.58a69.19,69.19,0,0,0-16.76-13.87A93.49,93.49,0,0,0,281.81,22.5a87.89,87.89,0,0,0-31.74,5.87,83,83,0,0,0-27.82,17.87,96.13,96.13,0,0,0-20.36,29.27,86.17,86.17,0,0,0-7.84,35,68.78,68.78,0,0,0,2.76,19.5c.45,1.51.95,3,1.52,4.5-2-.75-3.93-1.43-5.92-2.06A74.16,74.16,0,0,0,170.89,129a55.45,55.45,0,0,0-16.58,2.45,50.07,50.07,0,0,0-15.57,8.1,55.08,55.08,0,0,0-15.59,19.09,54.07,54.07,0,0,0-5.85,24.08,46.53,46.53,0,0,0,1.51,11.86,38.79,38.79,0,0,0,5.52,12.18,37.39,37.39,0,0,0,7.44,7.94,50.65,50.65,0,0,0,16.63,8.47c9,2.83,18.85,3.92,28.28,4.44s18.49.47,25.83.82c29.92,1.42,59.88,1.93,89.81,1.93q28.44,0,56.84-.52c39.4-.65,80.56.19,120.33-5.66A53.12,53.12,0,0,0,482.18,220.77ZM349,219.92q-28.33.47-56.68.51c-29.82,0-59.62-.51-89.33-1.92-6.75-.32-14.42-.31-22.26-.64a165.82,165.82,0,0,1-17.53-1.53,78.54,78.54,0,0,1-12.13-2.74,39,39,0,0,1-14.37-7.75,26.69,26.69,0,0,1-4.93-5.92,29.38,29.38,0,0,1-3.29-7.84,36.49,36.49,0,0,1-1.18-9.3,44.4,44.4,0,0,1,4.79-19.61,45.28,45.28,0,0,1,12.73-15.62,40.41,40.41,0,0,1,12.48-6.5,45.32,45.32,0,0,1,13.59-2,64.09,64.09,0,0,1,18.59,3c6.17,1.9,30.24,11.48,30.24,11.48s-11.72-21-13.32-26.34a58.32,58.32,0,0,1-2.35-16.66,76.14,76.14,0,0,1,7-30.93,85.7,85.7,0,0,1,18.21-26.2A72.75,72.75,0,0,1,253.7,37.69a77.43,77.43,0,0,1,28.11-5.19,83.62,83.62,0,0,1,42.62,11.81,59.39,59.39,0,0,1,14.36,11.87A64.2,64.2,0,0,1,351.66,79.5a91.76,91.76,0,0,1,4,27.59,128.5,128.5,0,0,1-6.53,39.51v.06c-.07.19-7.47,21-7.38,21.11s15.5-21,34.29-31.64a42.2,42.2,0,0,1,44.9,2.1,31,31,0,0,1,9.66,9.85,22.8,22.8,0,0,1,3.11,11.3c.29,13.62-3,21.62-3,21.62s15-10.19,20.28-12.87a37.06,37.06,0,0,1,16.64-4.1,29.32,29.32,0,0,1,8.58,1.22,24.09,24.09,0,0,1,10.66,6.45,28.15,28.15,0,0,1,6.76,12.87,25.72,25.72,0,0,1,.81,6.23,19.18,19.18,0,0,1-2,8.77,21,21,0,0,1-3.89,5.36,30.47,30.47,0,0,1-9,6.14A42.77,42.77,0,0,1,468,214.36C429.39,220.06,388.64,219.27,349,219.92Z" transform="translate(0 0)" style="fill:#6a374f;stroke:#6a374f;stroke-miterlimit:10;stroke-width:0.75px"/><path d="M519.54,120.23c.5.89,1,1.76,1.58,2.62a44.7,44.7,0,0,0,13,13.13A41.4,41.4,0,0,0,519,150.57a38.23,38.23,0,0,0-14-14.12l.53-.38a49.58,49.58,0,0,0,14-15.84m-.21-24.47h0c-.42.21-1.61,10.36-1.8,11.07a44.18,44.18,0,0,1-6.78,14.2,43.51,43.51,0,0,1-9.4,9.42c-1.06.79-10.29,6.71-11.14,6.71h-.05c2.21,2.52,22.08,4.1,27.13,28.91.18.9,2.31,12,2.41,12,.48-.14,1.4-8.14,1.42-9.31.61-25.75,28.1-30.85,28-32.16-8.43-4.64-16.06-8.19-22.06-17.49a43.81,43.81,0,0,1-5.84-13.82c-.28-1-1.44-9.53-1.88-9.53Z" transform="translate(0 0)" style="fill:#6a374f;stroke:#6a374f;stroke-miterlimit:10;stroke-width:0.75px"/><path d="M55.79,180.93h0m-6.39,22.3c.5.89,1,1.76,1.58,2.62A44.83,44.83,0,0,0,64,219a41.48,41.48,0,0,0-15.15,14.59,38.23,38.23,0,0,0-14-14.12l.53-.38a50.62,50.62,0,0,0,10.89-10.93,51.66,51.66,0,0,0,3.14-4.91m-.21-24.47h0c-.42.21-1.61,10.36-1.81,11.07A44.16,44.16,0,0,1,40.6,204a44.19,44.19,0,0,1-9.4,9.42c-1.07.79-10.29,6.71-11.15,6.71H20c2.21,2.52,22.08,4.1,27.13,28.91.19.9,2.31,12,2.42,12h0c.47-.14,1.39-8.14,1.42-9.31.6-25.75,28.1-30.85,28-32.17-8.43-4.63-16.07-8.18-22.07-17.48A44,44,0,0,1,51,188.23c-.2-1-1.36-9.47-1.81-9.47Z" transform="translate(0 0)" style="fill:#6a374f;stroke:#6a374f;stroke-miterlimit:10;stroke-width:0.75px"/><path d="M121.38,247.25a64.76,64.76,0,0,0,3.91,7c5.7,8.83,12.5,14.24,19.5,18.56-8.2,4.29-18.48,11.57-24.14,23.77A49,49,0,0,0,98,273.45c1.64-1.05,3-2,3.63-2.42a64.51,64.51,0,0,0,13.83-13.87,63.44,63.44,0,0,0,5.89-9.91m-.27-27.37h0c-.55.27-2.12,13.6-2.37,14.53A58,58,0,0,1,109.83,253a57.44,57.44,0,0,1-12.34,12.37c-1.4,1-13.5,8.8-14.62,8.8H82.8c2.9,3.3,29,5.38,35.61,37.93.24,1.19,3,15.7,3.16,15.7h0c.63-.18,1.83-10.69,1.87-12.22.79-33.79,36.87-40.48,36.68-42.21-11.06-6.08-21.08-10.74-28.94-22.94a57.39,57.39,0,0,1-7.67-18.13c-.29-1.24-1.82-12.42-2.4-12.42Z" transform="translate(0 0)" style="fill:#6a374f;stroke:#6a374f;stroke-miterlimit:10;stroke-width:0.75px"/><path d="M786.48,244.33c-8.67-34.57-52.31-45.77-66.54-26.67-3.7,5-3.9,11.93-3,15.56,1.94,7.66,9.72,14.42,21.1,13.18,27.69-3,29.32,26,30.51,34.6,1,7.15,3.5,9.83,8.87,8.7C784.49,288.22,792.29,267.5,786.48,244.33Z" transform="translate(0 0)" style="fill:#6a374f"/><path d="M801.44,368.81c8.88,6,21.09-4.56,24.46-9.88,8.13-12.84-13.9-22.18-16.62-6.14C807.15,365.34,798.82,364.33,801.44,368.81Z" transform="translate(0 0)" style="fill:#6a374f"/><path d="M335.21,89.11c-8.68-34.57-52.32-45.78-66.54-26.67-3.71,5-3.91,11.93-3,15.55,1.93,7.66,9.71,14.43,21.09,13.19,27.7-3,29.32,25.95,30.51,34.6,1,7.14,3.5,9.82,8.87,8.7C333.21,133,341,112.27,335.21,89.11Z" transform="translate(0 0)" style="fill:#6a374f"/><circle cx="320.74" cy="155.45" r="7.89" style="fill:#6a374f"/></g><g id="Layer_1-2" data-name="Layer 1-2"><path d="M41.19,170.76h0c-.42.21-1.61,10.36-1.81,11.07A44.24,44.24,0,0,1,32.6,196a44.19,44.19,0,0,1-9.4,9.42c-1.07.79-10.29,6.71-11.15,6.71H12c2.21,2.52,22.08,4.1,27.13,28.91.19.9,2.31,12,2.42,12h0c.47-.14,1.39-8.14,1.42-9.31.6-25.75,28.1-30.85,28-32.17-8.43-4.63-16.07-8.18-22.07-17.48A44,44,0,0,1,43,180.23C42.8,179.27,41.64,170.76,41.19,170.76Z" transform="translate(0 0)" style="fill:#fff;stroke:#fff;stroke-linecap:round;stroke-linejoin:round;stroke-width:24px"/><path d="M113.11,211.88h0c-.55.27-2.12,13.6-2.37,14.53a56.74,56.74,0,0,1-21.25,31c-1.4,1-13.5,8.8-14.62,8.8H74.8c2.9,3.3,29,5.38,35.61,37.93.24,1.19,3,15.7,3.16,15.7h0c.63-.18,1.83-10.69,1.87-12.22.79-33.79,36.87-40.48,36.68-42.21-11.06-6.08-21.08-10.74-28.94-22.94a57.39,57.39,0,0,1-7.67-18.13C115.22,223.06,113.69,211.88,113.11,211.88Z" transform="translate(0 0)" style="fill:#fff;stroke:#fff;stroke-linecap:round;stroke-linejoin:round;stroke-width:24px"/><path d="M511.54,77.14h0c-.54.26-2,13.19-2.3,14.09a56.13,56.13,0,0,1-8.62,18.06,55.51,55.51,0,0,1-12,12c-1.36,1-13.09,8.53-14.18,8.53h-.07c2.81,3.2,28.1,5.22,34.53,36.78.23,1.16,2.93,15.23,3.07,15.23.6-.18,1.77-10.36,1.81-11.85.77-32.76,35.75-39.25,35.57-40.93-10.73-5.9-20.44-10.41-28.07-22.24a55.77,55.77,0,0,1-7.43-17.59C513.58,88,512.11,77.14,511.54,77.14Z" transform="translate(0 0)" style="fill:#fff;stroke:#fff;stroke-linecap:round;stroke-linejoin:round;stroke-width:12px"/><path d="M41.19,170h0c-.42.21-1.61,10.37-1.81,11.08a44.32,44.32,0,0,1-6.77,14.19,44.19,44.19,0,0,1-9.4,9.42c-1.07.79-10.29,6.71-11.15,6.71H12c2.21,2.52,22.08,4.1,27.13,28.91.19.91,2.31,12,2.42,12h0C42,252.17,43,244.17,43,243c.6-25.75,28.1-30.84,28-32.16-8.43-4.64-16.07-8.19-22.07-17.48A44.19,44.19,0,0,1,43,179.48C42.8,178.53,41.64,170,41.19,170Z" transform="translate(0 0)" style="fill:#cff3ff"/><path d="M113.11,211.14h0c-.55.27-2.12,13.6-2.37,14.53a58.2,58.2,0,0,1-8.89,18.63,57.4,57.4,0,0,1-12.34,12.36c-1.4,1-13.5,8.8-14.62,8.8h-.07c2.9,3.3,29,5.38,35.61,37.93.24,1.19,3,15.7,3.16,15.7h0c.63-.18,1.83-10.68,1.87-12.22.79-33.78,36.87-40.47,36.68-42.2-11.06-6.09-21.08-10.75-28.94-22.94a57.67,57.67,0,0,1-7.67-18.14C115.22,222.31,113.69,211.14,113.11,211.14Z" transform="translate(0 0)" style="fill:#cff3ff"/><path d="M511.62,88.44h0c-.41.2-1.55,10-1.74,10.65a42.6,42.6,0,0,1-6.52,13.66,42,42,0,0,1-9,9.06c-1,.76-9.9,6.45-10.72,6.45h-.06c2.13,2.42,21.25,3.94,26.11,27.81.18.87,2.22,11.51,2.32,11.51.46-.13,1.34-7.83,1.37-9,.58-24.77,27-29.67,26.9-30.94-8.11-4.46-15.46-7.88-21.23-16.82a42.44,42.44,0,0,1-5.62-13.3C513.17,96.64,512.05,88.44,511.62,88.44Z" transform="translate(0 0)" style="fill:#cff3ff"/><path d="M839.55,313.79a45.25,45.25,0,0,0-15.15-9.72,53.18,53.18,0,0,0-14.88-3.39c8.64-17.17,13-34.87,13-51.86a90.35,90.35,0,0,0-18-55c-12-15.83-29.76-28.3-52.81-35.4a132.84,132.84,0,0,0-39.14-5.93,127.49,127.49,0,0,0-71.8,21.9A120.57,120.57,0,0,0,597,228.45a45.92,45.92,0,0,0-10.49-6.12,46.71,46.71,0,0,0-18.12-3.55,55.48,55.48,0,0,0-21,4.26,61.62,61.62,0,0,0-25.58,19.64,52,52,0,0,0-10.6,27.61,60.89,60.89,0,0,0-16-2.19,57.63,57.63,0,0,0-24.3,5.37A63.6,63.6,0,0,0,444.24,297a62.9,62.9,0,0,0-10.11,33.7,54.65,54.65,0,0,0,6,25.11,60.88,60.88,0,0,0,19.16,21.7,79.34,79.34,0,0,0,27.83,12.34,133.36,133.36,0,0,0,31.29,3.33c17.69,0,36-2.48,53.39-5.13s33.91-5.49,47.78-6.32q6-.36,12-.35c21.24,0,43.55,3,66.17,6.14s45.58,6.23,68.21,6.24c17.56,0,35-1.9,51.79-7.28,11.48-3.67,20.18-9.87,25.93-17.44a41.28,41.28,0,0,0,8.55-25.15A42.15,42.15,0,0,0,839.55,313.79Z" transform="translate(0 0)" style="fill:#fff;stroke:#fff;stroke-miterlimit:10;stroke-width:29px"/><path d="M474.18,212.77a39.57,39.57,0,0,0,15.64-11.28,30,30,0,0,0,4.87-8.53,29.38,29.38,0,0,0,1.77-10.21,35.15,35.15,0,0,0-1.11-8.66A40.47,40.47,0,0,0,490,161.64a33.89,33.89,0,0,0-13.48-11.9A38.47,38.47,0,0,0,459.65,146a47.1,47.1,0,0,0-21.17,5.18c-1,.49-1.91,1-2.85,1.58,0-.45.05-.9.05-1.36a32,32,0,0,0-4.49-16.4,40.85,40.85,0,0,0-12.71-13.09,52.31,52.31,0,0,0-29.43-9.27,55,55,0,0,0-25.72,6.63,66.31,66.31,0,0,0-8.23,5.2,132.84,132.84,0,0,0,2.54-25.4c0-13.89-2.4-27.73-8.13-40.17A71.22,71.22,0,0,0,338.3,41.58a69.19,69.19,0,0,0-16.76-13.87A93.49,93.49,0,0,0,273.81,14.5a87.89,87.89,0,0,0-31.74,5.87,83,83,0,0,0-27.82,17.87,96.13,96.13,0,0,0-20.36,29.27,86.17,86.17,0,0,0-7.84,35,68.78,68.78,0,0,0,2.76,19.5c.45,1.51.95,3,1.52,4.5-2-.75-3.93-1.43-5.92-2.06A74.16,74.16,0,0,0,162.89,121a55.45,55.45,0,0,0-16.58,2.45,50.07,50.07,0,0,0-15.57,8.1,55.08,55.08,0,0,0-15.59,19.09,54.07,54.07,0,0,0-5.85,24.08,46.53,46.53,0,0,0,1.51,11.86,38.79,38.79,0,0,0,5.52,12.18,37.39,37.39,0,0,0,7.44,7.94,50.65,50.65,0,0,0,16.63,8.47c9,2.83,18.85,3.92,28.28,4.44s18.49.47,25.83.82c29.92,1.42,59.88,1.93,89.81,1.93q28.44,0,56.84-.52c39.4-.65,80.56.19,120.33-5.66A53.12,53.12,0,0,0,474.18,212.77Z" transform="translate(0 0)" style="fill:#fff;stroke:#fff;stroke-miterlimit:10;stroke-width:29px"/><path d="M841.51,313.79a45,45,0,0,0-15.15-9.72,52.84,52.84,0,0,0-14.87-3.39c8.63-17.17,13-34.87,13-51.86a90.35,90.35,0,0,0-18-55c-12-15.83-29.76-28.3-52.81-35.4a132.84,132.84,0,0,0-39.14-5.93,127.49,127.49,0,0,0-71.8,21.9A120.54,120.54,0,0,0,599,228.45a45.56,45.56,0,0,0-10.49-6.12,46.7,46.7,0,0,0-18.11-3.55,55.48,55.48,0,0,0-21,4.26,61.45,61.45,0,0,0-25.58,19.64,51.77,51.77,0,0,0-10.6,27.61,61.31,61.31,0,0,0-16-2.19,57.63,57.63,0,0,0-24.3,5.37A63.67,63.67,0,0,0,446.21,297a62.91,62.91,0,0,0-10.12,33.7,54.78,54.78,0,0,0,6,25.11,60.86,60.86,0,0,0,19.15,21.7,79.46,79.46,0,0,0,27.84,12.34,133.27,133.27,0,0,0,31.28,3.33c17.69,0,36-2.48,53.39-5.13s33.92-5.49,47.79-6.32q5.94-.36,12-.35c21.23,0,43.54,3,66.17,6.14s45.57,6.23,68.21,6.24c17.56,0,35-1.9,51.78-7.28,11.49-3.67,20.18-9.87,25.94-17.44a41.29,41.29,0,0,0,8.54-25.15A42.1,42.1,0,0,0,841.51,313.79Z" transform="translate(0 0)" style="fill:#ace3fc"/><path d="M476.15,212.77a39.57,39.57,0,0,0,15.64-11.28,30,30,0,0,0,4.86-8.53,29.62,29.62,0,0,0,1.78-10.21,36.13,36.13,0,0,0-1.11-8.66A40.4,40.4,0,0,0,492,161.64a33.76,33.76,0,0,0-13.48-11.9A38.33,38.33,0,0,0,461.61,146a47.06,47.06,0,0,0-21.16,5.18,31.44,31.44,0,0,0-2.85,1.58V151.4a32.05,32.05,0,0,0-4.44-16.4,40.85,40.85,0,0,0-12.71-13.09A52.35,52.35,0,0,0,391,112.66a54.89,54.89,0,0,0-25.72,6.63,66.31,66.31,0,0,0-8.23,5.2,132.91,132.91,0,0,0,2.53-25.4c0-13.89-2.39-27.73-8.12-40.17a71.53,71.53,0,0,0-11.21-17.34,69.65,69.65,0,0,0-16.76-13.87A93.58,93.58,0,0,0,275.77,14.5,87.62,87.62,0,0,0,244,20.37a82.84,82.84,0,0,0-27.82,17.87,96,96,0,0,0-20.36,29.27,86.34,86.34,0,0,0-7.85,35,68.09,68.09,0,0,0,2.77,19.5q.66,2.26,1.52,4.5c-2-.75-3.92-1.44-5.93-2.06A74,74,0,0,0,164.82,121a55.45,55.45,0,0,0-16.58,2.45,49.86,49.86,0,0,0-15.57,8.1,55.08,55.08,0,0,0-15.59,19.09,54.21,54.21,0,0,0-5.86,24.08,46.1,46.1,0,0,0,1.52,11.86,38.79,38.79,0,0,0,5.52,12.18,37.14,37.14,0,0,0,7.44,7.94,50.6,50.6,0,0,0,16.62,8.47c9,2.83,18.85,3.92,28.29,4.44s18.49.47,25.83.82c29.92,1.42,59.87,1.93,89.8,1.93q28.45,0,56.85-.52c39.4-.65,80.56.19,120.33-5.66A53.44,53.44,0,0,0,476.15,212.77Z" transform="translate(0 0)" style="fill:#ace3fc"/><path d="M838.55,313.79a45,45,0,0,0-15.16-9.72,52.84,52.84,0,0,0-14.87-3.39c8.64-17.17,13-34.87,13-51.86a90.35,90.35,0,0,0-18-55c-12-15.83-29.76-28.3-52.81-35.4a132.84,132.84,0,0,0-39.14-5.93,127.49,127.49,0,0,0-71.8,21.9A120.57,120.57,0,0,0,596,228.45a45.92,45.92,0,0,0-10.49-6.12,46.71,46.71,0,0,0-18.12-3.55,55.48,55.48,0,0,0-21,4.26,61.62,61.62,0,0,0-25.58,19.64,51.85,51.85,0,0,0-10.6,27.61,60.89,60.89,0,0,0-16-2.19,57.63,57.63,0,0,0-24.3,5.37A63.6,63.6,0,0,0,443.24,297a62.9,62.9,0,0,0-10.11,33.7,54.65,54.65,0,0,0,6,25.11,60.88,60.88,0,0,0,19.16,21.7,79.34,79.34,0,0,0,27.83,12.34,133.36,133.36,0,0,0,31.29,3.33c17.69,0,36-2.48,53.39-5.13s33.91-5.49,47.78-6.32q5.94-.36,12-.35c21.24,0,43.54,3,66.17,6.14s45.58,6.23,68.21,6.24c17.56,0,35-1.9,51.79-7.28,11.48-3.67,20.18-9.87,25.93-17.44a41.28,41.28,0,0,0,8.55-25.15A42.15,42.15,0,0,0,838.55,313.79Zm-3.8,49.15c-4.43,5.8-11.24,10.82-21,14-15.56,5-31.89,6.81-48.74,6.81-21.7,0-44.23-3-66.85-6.15s-45.34-6.23-67.53-6.23c-4.23,0-8.44.11-12.62.37-14.71.89-31.4,3.78-48.69,6.41s-35.13,5-51.88,5a124.09,124.09,0,0,1-28.94-3,69.35,69.35,0,0,1-24.37-10.76A51,51,0,0,1,448,351.2a44.76,44.76,0,0,1-4.9-20.55,51.57,51.57,0,0,1,3.9-19.38,55.58,55.58,0,0,1,18.35-23.62,47.72,47.72,0,0,1,28.78-9.59c13.73.13,28.39,8.13,28.39,8.13s-5.66-16.34,1.53-29.89a52.8,52.8,0,0,1,18-19.88,47.73,47.73,0,0,1,25.23-7.68,39.18,39.18,0,0,1,14.27,2.78c17.37,6.75,20.13,24.71,20.29,24.67s3.58-43.92,43.43-73.58c18.59-13.84,42.24-20.16,66.16-20.16a122.66,122.66,0,0,1,36.19,5.49c21.31,6.58,37.17,17.84,47.79,31.87a77.63,77.63,0,0,1,16,49c-1,42.95-24.75,63.2-24.75,63.2s19.25-5.25,33,1.36c6.82,3.27,12.37,7.23,16,12.58a31.94,31.94,0,0,1,5.51,17.88A31.41,31.41,0,0,1,834.75,362.94Z" transform="translate(0 0)" style="fill:#474747;stroke:#474747;stroke-miterlimit:10;stroke-width:0.75px"/><path d="M474.18,212.77a39.57,39.57,0,0,0,15.64-11.28,30,30,0,0,0,4.87-8.53,29.38,29.38,0,0,0,1.77-10.21,35.15,35.15,0,0,0-1.11-8.66A40.47,40.47,0,0,0,490,161.64a33.89,33.89,0,0,0-13.48-11.9A38.47,38.47,0,0,0,459.65,146a47.1,47.1,0,0,0-21.17,5.18c-1,.49-1.91,1-2.85,1.58,0-.45.05-.9.05-1.36a32,32,0,0,0-4.49-16.4,40.85,40.85,0,0,0-12.71-13.09,52.31,52.31,0,0,0-29.43-9.27,55,55,0,0,0-25.72,6.63,66.31,66.31,0,0,0-8.23,5.2,132.84,132.84,0,0,0,2.54-25.4c0-13.89-2.4-27.73-8.13-40.17A71.22,71.22,0,0,0,338.3,41.58a69.19,69.19,0,0,0-16.76-13.87A93.49,93.49,0,0,0,273.81,14.5a87.89,87.89,0,0,0-31.74,5.87,83,83,0,0,0-27.82,17.87,96.13,96.13,0,0,0-20.36,29.27,86.17,86.17,0,0,0-7.84,35,68.78,68.78,0,0,0,2.76,19.5c.45,1.51.95,3,1.52,4.5-2-.75-3.93-1.43-5.92-2.06A74.16,74.16,0,0,0,162.89,121a55.45,55.45,0,0,0-16.58,2.45,50.07,50.07,0,0,0-15.57,8.1,55.08,55.08,0,0,0-15.59,19.09,54.07,54.07,0,0,0-5.85,24.08,46.53,46.53,0,0,0,1.51,11.86,38.79,38.79,0,0,0,5.52,12.18,37.39,37.39,0,0,0,7.44,7.94,50.65,50.65,0,0,0,16.63,8.47c9,2.83,18.85,3.92,28.28,4.44s18.49.47,25.83.82c29.92,1.42,59.88,1.93,89.81,1.93q28.44,0,56.84-.52c39.4-.65,80.56.19,120.33-5.66A53.12,53.12,0,0,0,474.18,212.77ZM341,211.92q-28.33.47-56.68.51c-29.82,0-59.62-.51-89.33-1.92-6.75-.32-14.42-.31-22.26-.64a165.82,165.82,0,0,1-17.53-1.53,78.54,78.54,0,0,1-12.13-2.74,39,39,0,0,1-14.37-7.75,26.69,26.69,0,0,1-4.93-5.92,29.38,29.38,0,0,1-3.29-7.84,36.49,36.49,0,0,1-1.18-9.3,44.4,44.4,0,0,1,4.79-19.61,45.28,45.28,0,0,1,12.73-15.62,40.41,40.41,0,0,1,12.48-6.5,45.32,45.32,0,0,1,13.59-2,64.09,64.09,0,0,1,18.59,3c6.17,1.9,30.24,11.48,30.24,11.48s-11.72-21-13.32-26.34a58.32,58.32,0,0,1-2.35-16.66,76.14,76.14,0,0,1,7-30.93,85.7,85.7,0,0,1,18.21-26.2A72.75,72.75,0,0,1,245.7,29.69a77.43,77.43,0,0,1,28.11-5.19,83.62,83.62,0,0,1,42.62,11.81,59.39,59.39,0,0,1,14.36,11.87A64.2,64.2,0,0,1,343.66,71.5a91.76,91.76,0,0,1,4,27.59,128.5,128.5,0,0,1-6.53,39.51v.06c-.07.19-7.47,21-7.38,21.11s15.5-21,34.29-31.64a42.2,42.2,0,0,1,44.9,2.1,31,31,0,0,1,9.66,9.85,22.8,22.8,0,0,1,3.11,11.3c.29,13.62-3,21.62-3,21.62s15-10.19,20.28-12.87a37.06,37.06,0,0,1,16.64-4.1,29.32,29.32,0,0,1,8.58,1.22,24.09,24.09,0,0,1,10.66,6.45,28.15,28.15,0,0,1,6.76,12.87,25.72,25.72,0,0,1,.81,6.23,19.18,19.18,0,0,1-2,8.77,21,21,0,0,1-3.89,5.36,30.47,30.47,0,0,1-9,6.14A42.77,42.77,0,0,1,460,206.36C421.39,212.06,380.64,211.27,341,211.92Z" transform="translate(0 0)" style="fill:#474747;stroke:#474747;stroke-miterlimit:10;stroke-width:0.75px"/><path d="M511.54,112.23c.5.89,1,1.76,1.58,2.62a44.7,44.7,0,0,0,13,13.13A41.4,41.4,0,0,0,511,142.57a38.23,38.23,0,0,0-14-14.12l.53-.38a49.58,49.58,0,0,0,14-15.84m-.21-24.47h0c-.42.21-1.61,10.36-1.8,11.07a44.18,44.18,0,0,1-6.78,14.2,43.51,43.51,0,0,1-9.4,9.42c-1.06.79-10.29,6.71-11.14,6.71h-.05c2.21,2.52,22.08,4.1,27.13,28.91.18.9,2.31,12,2.41,12,.48-.14,1.4-8.14,1.42-9.31.61-25.75,28.1-30.85,28-32.16-8.43-4.64-16.06-8.19-22.06-17.49a43.81,43.81,0,0,1-5.84-13.82c-.28-1-1.44-9.53-1.88-9.53Z" transform="translate(0 0)" style="fill:#474747;stroke:#474747;stroke-miterlimit:10;stroke-width:0.75px"/><path d="M47.79,172.93h0m-6.39,22.3c.5.89,1,1.76,1.58,2.62A44.83,44.83,0,0,0,56,211a41.48,41.48,0,0,0-15.15,14.59,38.23,38.23,0,0,0-14-14.12l.53-.38a50.62,50.62,0,0,0,10.89-10.93,51.66,51.66,0,0,0,3.14-4.91m-.21-24.47h0c-.42.21-1.61,10.36-1.81,11.07A44.16,44.16,0,0,1,32.6,196a44.19,44.19,0,0,1-9.4,9.42c-1.07.79-10.29,6.71-11.15,6.71H12c2.21,2.52,22.08,4.1,27.13,28.91.19.9,2.31,12,2.42,12h0c.47-.14,1.39-8.14,1.42-9.31.6-25.75,28.1-30.85,28-32.17-8.43-4.63-16.07-8.18-22.07-17.48A44,44,0,0,1,43,180.23c-.2-1-1.36-9.47-1.81-9.47Z" transform="translate(0 0)" style="fill:#474747;stroke:#474747;stroke-miterlimit:10;stroke-width:0.75px"/><path d="M113.38,239.25a64.76,64.76,0,0,0,3.91,7c5.7,8.83,12.5,14.24,19.5,18.56-8.2,4.29-18.48,11.57-24.14,23.77A49,49,0,0,0,90,265.45c1.64-1.05,3-2,3.63-2.42a64.51,64.51,0,0,0,13.83-13.87,63.44,63.44,0,0,0,5.89-9.91m-.27-27.37h0c-.55.27-2.12,13.6-2.37,14.53A58,58,0,0,1,101.83,245a57.44,57.44,0,0,1-12.34,12.37c-1.4,1-13.5,8.8-14.62,8.8H74.8c2.9,3.3,29,5.38,35.61,37.93.24,1.19,3,15.7,3.16,15.7h0c.63-.18,1.83-10.69,1.87-12.22.79-33.79,36.87-40.48,36.68-42.21-11.06-6.08-21.08-10.74-28.94-22.94a57.39,57.39,0,0,1-7.67-18.13c-.29-1.24-1.82-12.42-2.4-12.42Z" transform="translate(0 0)" style="fill:#474747;stroke:#474747;stroke-miterlimit:10;stroke-width:0.75px"/><path d="M778.48,236.33c-8.67-34.57-52.31-45.77-66.54-26.67-3.7,5-3.9,11.93-3,15.56,1.94,7.66,9.72,14.42,21.1,13.18,27.69-3,29.32,26,30.51,34.6,1,7.15,3.5,9.83,8.87,8.7C776.49,280.22,784.29,259.5,778.48,236.33Z" transform="translate(0 0)" style="fill:#e6fdff"/><path d="M793.44,360.81c8.88,6,21.09-4.56,24.46-9.88,8.13-12.84-13.9-22.18-16.62-6.14C799.15,357.34,790.82,356.33,793.44,360.81Z" transform="translate(0 0)" style="fill:#e6fdff"/><path d="M327.21,81.11c-8.68-34.57-52.32-45.78-66.54-26.67-3.71,5-3.91,11.93-3,15.55,1.93,7.66,9.71,14.43,21.09,13.19,27.7-3,29.32,25.95,30.51,34.6,1,7.14,3.5,9.82,8.87,8.7C325.21,125,333,104.27,327.21,81.11Z" transform="translate(0 0)" style="fill:#e6fdff"/><circle cx="312.74" cy="147.45" r="7.89" style="fill:#e6fdff"/></g></g></svg>