<?xml version="1.0" encoding="UTF-8"?>
<svg width="423px" height="453px" viewBox="0 0 423 453" version="1.1" xmlns="http://www.w3.org/2000/svg" xmlns:xlink="http://www.w3.org/1999/xlink">
    <!-- Generator: Sketch 50.2 (55047) - http://www.bohemiancoding.com/sketch -->
    <title>Untitled 9</title>
    <desc>Created with Sketch.</desc>
    <defs>
        <filter x="-4.4%" y="-4.3%" width="111.1%" height="110.3%" filterUnits="objectBoundingBox" id="filter-1">
            <feOffset dx="8" dy="8" in="SourceAlpha" result="shadowOffsetOuter1"></feOffset>
            <feColorMatrix values="0 0 0 0 0.415686275   0 0 0 0 0.215686275   0 0 0 0 0.309803922  0 0 0 0.12 0" type="matrix" in="shadowOffsetOuter1" result="shadowMatrixOuter1"></feColorMatrix>
            <feMerge>
                <feMergeNode in="shadowMatrixOuter1"></feMergeNode>
                <feMergeNode in="SourceGraphic"></feMergeNode>
            </feMerge>
        </filter>
    </defs>
    <g id="Page-1" stroke="none" stroke-width="1" fill="none" fill-rule="evenodd">
        <g id="cotton-candy" filter="url(#filter-1)" transform="translate(13.000000, 14.000000)" fill-rule="nonzero">
            <path d="M129.79,147.1 C136.667655,144.066966 143.105515,140.121506 148.93,135.37 C147.533074,135.407647 146.153,135.685015 144.85,136.19 C145.94576,135.848251 147.082764,135.656508 148.23,135.62 C142.408561,140.375798 135.970097,144.321628 129.09,147.35 C107.84,157.14 91.19,171.84 80.25,192.74 C73.79,205.08 70.25,217.84 74.72,231.66 C79.25,245.66 91.11,251.57 103.63,246.98 C91.36,251.11 79.86,245.18 75.41,231.41 C70.96,217.64 74.48,204.83 80.94,192.49 C91.88,171.59 108.54,156.89 129.79,147.1 Z" id="Shape" stroke="#FFFFFF" stroke-width="28" fill="#FFFFFF" stroke-linecap="round" stroke-linejoin="round"></path>
            <path d="M158,188.92 C155.62,189.57 153.3,190.3 151,191.1 C153.046667,190.386667 155.143333,189.743333 157.29,189.17 C173.14,184.88 189.13,181.17 204.58,175.48 C189.34,181 173.59,184.7 158,188.92 Z" id="Shape" stroke="#FFFFFF" stroke-width="28" fill="#FFFFFF" stroke-linecap="round" stroke-linejoin="round"></path>
            <path d="M118.71,221.69 C128.03,212.57 137.66,203.93 150.15,199.28 L149.54,199.5 C137,204.14 127.36,212.8 118,221.94 C116.5,223.41 114.74,225.94 112.91,226.84 C115,226.37 117,223.35 118.71,221.69 Z" id="Shape" stroke="#FFFFFF" stroke-width="28" fill="#FFFFFF" stroke-linecap="round" stroke-linejoin="round"></path>
            <path d="M118.08,121.46 L119.34,119.53 C127.09,96.64 151.68,73.53 178.43,63.99 C150.75,73.61 125.22,97.83 118.08,121.46 Z" id="Shape" stroke="#FFFFFF" stroke-width="28" fill="#FFFFFF" stroke-linecap="round" stroke-linejoin="round"></path>
            <path d="M230,114.49 C232.79,113.41 235.54,112.24 238.34,111.19 C235.52,112.24 232.76,113.39 230,114.49 Z" id="Shape" stroke="#FFFFFF" stroke-width="28" fill="#FFFFFF" stroke-linecap="round" stroke-linejoin="round"></path>
            <path d="M113,145.49 C112.6,146.31 111.73,147.39 112.8,148.14 C113.29,148.49 114.4,148.23 115.12,147.95 L115.51,147.8 C114.881298,148.090504 114.164544,148.126342 113.51,147.9 C112.43,147.14 113.3,146.06 113.7,145.24 C130.29,111.69 153.32,85.92 187.25,73.31 C152.94,85.83 129.69,111.71 113,145.49 Z" id="Shape" stroke="#FFFFFF" stroke-width="28" fill="#FFFFFF" stroke-linecap="round" stroke-linejoin="round"></path>
            <path d="M210.6,60.26 C210.44,60.26 210.27,60.26 210.11,60.2 C201.777027,61.4884601 193.579492,63.5370072 185.62,66.32 C193.740988,63.5306239 202.103604,61.5019029 210.6,60.26 Z" id="Shape" stroke="#FFFFFF" stroke-width="28" fill="#FFFFFF" stroke-linecap="round" stroke-linejoin="round"></path>
            <path d="M157.16,114.74 C157.24,114.83 157.32,114.93 157.41,115.02 C159.64,112.46 161.67,109.69 164.12,107.37 C178.72,93.53 194.54,81.63 213.37,74.68 C194.24,81.59 178.21,93.61 163.43,107.61 C161.214317,109.873126 159.121325,112.253195 157.16,114.74 Z" id="Shape" stroke="#FFFFFF" stroke-width="28" fill="#FFFFFF" stroke-linecap="round" stroke-linejoin="round"></path>
            <path d="M190.34,45.64 C171.61,48.42 154,54 138.78,65.76 C137.73,66.57 136.72,67.44 135.73,68.33 C135.51,68.52 135.48,68.91 135.11,69.84 L135.24,69.84 C135.281511,69.6914876 135.356807,69.5545874 135.46,69.44 C136.46,68.55 137.46,67.68 138.46,66.87 C153.72,55 171.35,49.48 190.07,46.7 C191.77,46.45 194.58,47.19 194.87,45.17 C194.884536,45.0370628 194.884536,44.9029372 194.87,44.77 C194.13,46 191.81,45.43 190.34,45.64 Z" id="Shape" stroke="#FFFFFF" stroke-width="28" fill="#FFFFFF" stroke-linecap="round" stroke-linejoin="round"></path>
            <path d="M189.05,137.26 C203.83,130.36 214.58,117.07 230.21,111.39 C214.53,116.81 203.79,129.94 189.21,137.06 L189.05,137.26 Z" id="Shape" stroke="#FFFFFF" stroke-width="28" fill="#FFFFFF" stroke-linecap="round" stroke-linejoin="round"></path>
            <path d="M258.75,96.94 C259.633955,97.1432273 260.559906,97.0555425 261.39,96.69 C260.745208,96.806362 260.084792,96.806362 259.44,96.69 C251.955946,95.5272153 244.299094,96.2877386 237.19,98.9 C244.10575,96.4818457 251.511562,95.80859 258.75,96.94 Z" id="Shape" stroke="#FFFFFF" stroke-width="28" fill="#FFFFFF" stroke-linecap="round" stroke-linejoin="round"></path>
            <path d="M299.68,250.17 C296.683095,251.143341 293.764658,252.343477 290.95,253.76 C287.2,255.76 285.55,256.9 285.66,258.59 C285.66,257 287.34,255.86 290.95,253.95 C293.763863,252.531737 296.682435,251.331545 299.68,250.36 C301.88,249.61 302.68,250.06 302.74,252.07 C302.74,249.91 302,249.4 299.68,250.17 Z" id="Shape" stroke="#FFFFFF" stroke-width="28" fill="#FFFFFF" stroke-linecap="round" stroke-linejoin="round"></path>
            <path d="M233.15,286.19 C223.497599,286.925987 214.046759,289.335224 205.22,293.31 C203.22,294.23 200.74,294.78 200.06,297.47 L200.18,297.57 C201.09,295.51 203.25,294.97 205.07,294.14 C213.89584,290.159294 223.346558,287.743321 233,287 C249.5,285.61 260.66,276.89 266.92,261.46 C268.673904,257.069072 269.938213,252.498109 270.69,247.83 C269.927983,252.211193 268.711411,256.501034 267.06,260.63 C260.82,276.08 249.66,284.8 233.15,286.19 Z" id="Shape" stroke="#FFFFFF" stroke-width="28" fill="#FFFFFF" stroke-linecap="round" stroke-linejoin="round"></path>
            <path d="M277.17,252 C275.26,251.07 276.24,249 276.3,247.49 C276.422402,239.228306 275.752674,230.973898 274.3,222.84 C273.342182,224.603896 272.718386,226.529527 272.46,228.52 C272.757465,226.82261 273.328206,225.184686 274.15,223.67 C275.602674,231.803898 276.272402,240.058306 276.15,248.32 C276.15,249.87 275.15,251.9 277.03,252.83 C278.77,253.69 280.09,251.99 281.48,251.18 C287.804388,247.391207 293.073007,242.071003 296.8,235.71 C299.95,230.56 303.08,225.4 306.8,219.35 C307.317913,221.842571 307.365395,224.409984 306.94,226.92 C307.505715,224.148574 307.505715,221.291426 306.94,218.52 C303.25,224.57 300.12,229.73 296.94,234.88 C293.218869,241.245506 287.948948,246.567025 281.62,250.35 C280.24,251.2 278.91,252.9 277.17,252 Z" id="Shape" stroke="#FFFFFF" stroke-width="28" fill="#FFFFFF" stroke-linecap="round" stroke-linejoin="round"></path>
            <path d="M317.2,243.79 C316.11,242.98 315,243.86 313.96,244.33 C312.362415,244.90575 311.192555,246.289004 310.89,247.96 C310.06,252.51 309.17,257.04 308.31,261.58 C309.16,257.12 310.03,252.66 310.84,248.19 C311.150706,246.517362 312.32186,245.133271 313.92,244.55 C314.92,244.09 316.07,243.2 317.16,244.01 C317.527246,244.256373 317.75984,244.658798 317.79,245.1 C317.845044,244.588715 317.619361,244.087622 317.2,243.79 Z" id="Shape" stroke="#FFFFFF" stroke-width="28" fill="#FFFFFF" stroke-linecap="round" stroke-linejoin="round"></path>
            <path d="M304.21,238.69 C303.949721,238.469245 303.781955,238.1587 303.74,237.82 C303.436519,238.393758 303.573895,239.101455 304.07,239.52 C305.07,240.52 306.3,239.64 307.32,239.23 C313.067222,236.959211 318.404341,233.763696 323.12,229.77 C329.77,224.07 333.76,217.18 334.99,209.77 C333.6,216.85 329.66,223.43 323.27,228.92 C318.552253,232.91595 313.211461,236.111642 307.46,238.38 C306.44,238.81 305.26,239.68 304.21,238.69 Z" id="Shape" stroke="#FFFFFF" stroke-width="28" fill="#FFFFFF" stroke-linecap="round" stroke-linejoin="round"></path>
            <path d="M188.62,209.28 C187.062592,210.820811 186.054269,212.830429 185.75,215 L185.8,214.95 C186.214491,213.116675 187.140293,211.438443 188.47,210.11 C206.25,190.04 227.47,174.85 252.63,165.41 C263.24,161.41 273.7,157.1 283.55,151.41 C285.81,150.11 288.23,148.89 290.03,144.88 L289.69,145.02 C287.96,148.26 285.76,149.39 283.69,150.58 C273.85,156.25 263.39,160.58 252.77,164.58 C227.59,174 206.4,189.21 188.62,209.28 Z" id="Shape" stroke="#FFFFFF" stroke-width="28" fill="#FFFFFF" stroke-linecap="round" stroke-linejoin="round"></path>
            <path d="M273.68,143.77 C272.51,144.15 271.5,144.18 270.83,143.5 C268.63,141.24 273.44,137.64 274.97,134.5 C277.779368,128.678151 279.584783,122.423436 280.31,116 C280.12,115.74 279.94,115.48 279.74,115.22 C279.089375,121.993303 277.237095,128.596496 274.27,134.72 C272.75,137.85 267.94,141.45 270.14,143.72 C270.93,144.56 272.21,144.36 273.68,143.77 Z" id="Shape" stroke="#FFFFFF" stroke-width="28" fill="#FFFFFF" stroke-linecap="round" stroke-linejoin="round"></path>
            <polygon id="Shape" stroke="#FFFFFF" stroke-width="28" fill="#FFFFFF" stroke-linecap="round" stroke-linejoin="round" points="281.07 140.34 280.79 140.45 281.28 140.27"></polygon>
            <path d="M276.76,274.7 C275.127245,279.091115 275.799078,284.007876 278.55,287.8 L282.05,292.55 C280.99,291.116667 279.936667,289.683333 278.89,288.25 C276.077846,284.379651 275.436736,279.341278 277.19,274.89 C277.050516,274.818291 276.906934,274.754849 276.76,274.7 Z" id="Shape" stroke="#FFFFFF" stroke-width="28" fill="#FFFFFF" stroke-linecap="round" stroke-linejoin="round"></path>
            <path d="M154,64.23 C126.393333,82.23 108.84,106.803333 101.34,137.95 C108.92,107.283333 126.383333,83.0633333 153.73,65.29 C155.21,64.29 156.98,63.69 158.23,61.38 L157.7,61.49 C156.629557,62.6049396 155.378666,63.5312751 154,64.23 Z" id="Shape" stroke="#FFFFFF" stroke-width="28" fill="#FFFFFF" stroke-linecap="round" stroke-linejoin="round"></path>
            <path d="M272.82,292.63 C279.233333,301.63 285.743333,310.55 292.35,319.39 C285.796667,310.59 279.33,301.726667 272.95,292.8 L272.82,292.63 Z" id="Shape" stroke="#FFFFFF" stroke-width="28" fill="#FFFFFF" stroke-linecap="round" stroke-linejoin="round"></path>
            <path d="M99.18,30.43 L111.3,19.64 C111.18,19.47 111.07,19.3 110.96,19.12 L99.45,29.38 C98.87,29.89 97.92,29.96 97.69,29.38 C96.69,26.96 97.63,24.46 97.69,21.99 C97.684615,21.9167655 97.684615,21.8432345 97.69,21.77 C97.4914443,22.1670083 97.3919442,22.6061813 97.4,23.05 C97.4,25.52 96.4,28.05 97.4,30.44 C97.65,31 98.6,31 99.18,30.43 Z" id="Shape" stroke="#FFFFFF" stroke-width="28" fill="#FFFFFF" stroke-linecap="round" stroke-linejoin="round"></path>
            <path d="M271.35,287.68 C271.649235,287.367608 272.078434,287.214894 272.50774,287.268065 C272.937045,287.321236 273.316019,287.574044 273.53,287.95 C272.95,287.09 272.24,286.27 271.01,287.23 C269.58,288.34 270.76,289.64 271.4,290.76 C271.539355,290.997425 271.700017,291.221682 271.88,291.43 C271.83,291.36 271.78,291.29 271.74,291.22 C271.1,290.1 269.92,288.79 271.35,287.68 Z" id="Shape" stroke="#FFFFFF" stroke-width="28" fill="#FFFFFF" stroke-linecap="round" stroke-linejoin="round"></path>
            <path d="M239.31,295.4 C238.933279,296.067316 238.45411,296.671339 237.89,297.19 C228.22,307.81 217.05,316.4 203.56,321.58 C194.44,325.08 185.56,323.63 176.99,319.25 C168.29,314.8 161.81,307.97 156.25,300.12 C151.72,293.74 147.51,287.12 141.74,281.7 C141.022725,281.14352 140.520832,280.355336 140.32,279.47 C139.88,280.36 140.4,281.41 141.59,282.53 C147.37,287.93 151.59,294.53 156.1,300.95 C161.67,308.8 168.15,315.63 176.84,320.09 C185.53,324.55 194.3,325.91 203.42,322.41 C216.9,317.23 228.08,308.64 237.74,298.02 C238.44,297.26 239.39,296.44 239.31,295.4 Z" id="Shape" stroke="#FFFFFF" stroke-width="28" fill="#FFFFFF" stroke-linecap="round" stroke-linejoin="round"></path>
            <path d="M188.55,229.82 C196.71,220.95 204.82,212.03 215.3,205.67 C215.53,205.28 215.77,204.89 215.99,204.5 C205.24,210.87 197,220 188.7,229 C179.7,238.81 171.09,249 160.93,257.76 C146.42,270.22 129.72,275.94 110.57,274.12 C109.08,273.98 107.57,273.77 106.11,273.51 C105.3,273.37 104.29,273.16 104.19,272.21 C104.045396,272.464602 103.992453,272.761085 104.04,273.05 C104.15,274.05 105.16,274.21 105.97,274.35 C107.45,274.61 108.97,274.82 110.43,274.96 C129.57,276.78 146.27,271.06 160.79,258.6 C171,249.86 179.53,239.63 188.55,229.82 Z" id="Shape" stroke="#FFFFFF" stroke-width="28" fill="#FFFFFF" stroke-linecap="round" stroke-linejoin="round"></path>
            <path d="M336,336.15 C319.3,313.89 300.71,293.15 283.43,271.4 C282.43,270.16 281.48,268.66 279.84,270.03 C280.16,269.896667 280.52,269.896667 280.84,270.03 C282.09,269.51 282.92,270.76 283.76,271.82 C301.04,293.6 319.63,314.3 336.33,336.57 C348.82,353.22 361.83,369.48 374.72,385.82 L374.95,386.13 C374.77,385.87 374.58,385.62 374.38,385.37 C361.5,369.06 348.49,352.81 336,336.15 Z" id="Shape" stroke="#FFFFFF" stroke-width="28" fill="#FFFFFF" stroke-linecap="round" stroke-linejoin="round"></path>
            <path d="M318.57,342.28 L322.31,347.37 C324.57,350.46 326.96,353.5 328.04,357.37 C325.544801,355.186682 323.261333,352.772634 321.22,350.16 C309.926667,335.533333 298.676667,320.866667 287.47,306.16 C283.05,300.4 278.66,294.63 274.2,288.9 L274.41,289.19 C278.91,294.97 283.35,300.8 287.8,306.62 C299.053333,321.286667 310.306667,335.953333 321.56,350.62 C323.598759,353.231796 325.882475,355.642757 328.38,357.82 C327.3,353.99 324.91,350.95 322.65,347.82 L318.57,342.28 Z" id="Shape" stroke="#FFFFFF" stroke-width="28" fill="#FFFFFF" stroke-linecap="round" stroke-linejoin="round"></path>
            <path d="M126.72,250.7 C137.25,239.26 145.39,226.07 153.97,213.21 C154.070176,212.983778 154.094724,212.731281 154.04,212.49 C145.49,225.31 137.37,238.49 126.86,249.87 C117.95,259.54 107,264.87 93.7,264.46 C83.5,264.14 75.2,257.03 72.45,246.57 C72.32,246.57 72.2,246.5 72.06,246.48 C74.55,257.48 83.06,264.96 93.55,265.29 C106.85,265.71 117.8,260.37 126.72,250.7 Z" id="Shape" stroke="#FFFFFF" stroke-width="28" fill="#FFFFFF" stroke-linecap="round" stroke-linejoin="round"></path>
            <path d="M361.89,405.48 C361.44,406.58 361.23,407.96 361.94,408.48 C361.731634,407.61257 361.834263,406.699527 362.23,405.9 C363.06,403.84 364.23,401.9 365.23,399.95 C365.081853,399.863372 364.928191,399.786541 364.77,399.72 C363.713784,401.590366 362.752564,403.512808 361.89,405.48 Z" id="Shape" stroke="#FFFFFF" stroke-width="28" fill="#FFFFFF" stroke-linecap="round" stroke-linejoin="round"></path>
            <path d="M259.93,289.69 C257.56,286.31 254.83,286.29 252.86,289.62 C248.732486,296.43321 243.767103,302.702091 238.08,308.28 C237.54,308.82 236.92,309.47 236.99,310.18 C237.152889,309.501802 237.536263,308.896846 238.08,308.46 C243.76954,302.884284 248.735179,296.615081 252.86,289.8 C254.86,286.47 257.56,286.5 259.93,289.87 C261.26,291.77 262.74,293.57 264.16,295.41 C266.16,297.94 267.16,299.52 267.29,300.72 C267.29,299.49 266.23,297.89 264.16,295.22 C262.74,293.38 261.26,291.59 259.93,289.69 Z" id="Shape" stroke="#FFFFFF" stroke-width="28" fill="#FFFFFF" stroke-linecap="round" stroke-linejoin="round"></path>
            <path d="M92.74,97 C93.1499048,96.1901531 93.0886623,95.2217557 92.58,94.47 C88.76,96.26 86.28,100.11 82.04,101.82 C82.012987,101.487214 82.012987,101.152786 82.04,100.82 C81.8147363,101.461976 81.7096498,102.139954 81.73,102.82 C85.96,101.11 88.45,97.26 92.27,95.47 C92.5738078,95.9226402 92.7373008,96.4548624 92.74,97 Z" id="Shape" stroke="#FFFFFF" stroke-width="28" fill="#FFFFFF" stroke-linecap="round" stroke-linejoin="round"></path>
            <path d="M71.35,124.84 C71.3557003,124.889838 71.3557003,124.940162 71.35,124.99 C71.12,126.06 70.85,127.11 70.59,128.16 C70.83,127.06 71.09,126 71.35,124.84 Z" id="Shape" stroke="#FFFFFF" stroke-width="28" fill="#FFFFFF" stroke-linecap="round" stroke-linejoin="round"></path>
            <path d="M43.77,175.84 C42.46,176.01 41.83,174.77 41.22,173.76 C35,163.51 33.86,152.47 36.27,141 C36.4,140.36 36.56,139.73 36.71,139.1 C36.46,140.1 36.21,141.1 36.01,142.1 C33.6,153.6 34.78,164.64 41.01,174.88 C41.62,175.88 42.25,177.14 43.56,176.96 C44.56,176.83 44.74,176.05 44.84,175.24 C44.6113471,175.611846 44.2065205,175.838851 43.77,175.84 Z" id="Shape" stroke="#FFFFFF" stroke-width="28" fill="#FFFFFF" stroke-linecap="round" stroke-linejoin="round"></path>
            <path d="M84.57,94.5 C77.31,101.73 73.2,109.92 69.27,118.21 C68.06,120.77 67.12,123.45 65.93,126.01 C65.46,127.01 65.4,128.67 64.02,128.68 C62.39,128.68 62.3,126.91 61.73,125.78 C61.31,124.95 60.97,124.07 60.6,123.21 C60.6,123.69 60.53,124.16 60.49,124.64 C60.81,125.38 61.1,126.12 61.49,126.84 C62.06,127.97 62.15,129.74 63.77,129.73 C65.16,129.73 65.22,128.06 65.68,127.07 C66.88,124.51 67.81,121.82 69.02,119.27 C72.95,110.99 77.02,102.8 84.32,95.57 C84.4267082,95.2192018 84.5102219,94.8617632 84.57,94.5 Z" id="Shape" stroke="#FFFFFF" stroke-width="28" fill="#FFFFFF" stroke-linecap="round" stroke-linejoin="round"></path>
            <path d="M74,71.83 C84,63.56 94.12,55.4 104.91,48.19 C125.44,34.46 147.62,25.9 172.84,27.06 C178.821728,27.4470766 184.769362,28.2490049 190.64,29.46 C191.58,29.64 192.71,30.24 193.38,29.22 C193.579002,28.9273645 193.651142,28.5666644 193.58,28.22 C192.9,29.12 191.82,28.56 190.91,28.39 C185.038305,27.1852253 179.0911,26.383355 173.11,25.99 C147.88,24.83 125.7,33.39 105.17,47.12 C94.73,54.12 84.94,62 75.2,70 C74.81,70.62 74.4,71.21 74,71.83 Z" id="Shape" stroke="#FFFFFF" stroke-width="28" fill="#FFFFFF" stroke-linecap="round" stroke-linejoin="round"></path>
            <path d="M83.81,46.47 C86.0905196,43.9969843 87.6502613,40.946669 88.32,37.65 C87.5739101,40.5489888 86.1166026,43.2161366 84.08,45.41 C70.84,59.75 59.54,75.33 52.7,94.1 C49.19,103.74 40.98,111.16 35.7,120.36 C34.21,114.73 34.89,109.36 36.14,104.07 C36.14,104.29 36.02,104.5 35.97,104.72 C34.65,110.16 33.9,115.64 35.44,121.42 C40.66,112.22 48.88,104.79 52.38,95.16 C59.28,76.39 70.57,60.81 83.81,46.47 Z" id="Shape" stroke="#FFFFFF" stroke-width="28" fill="#FFFFFF" stroke-linecap="round" stroke-linejoin="round"></path>
            <path d="M98.89,149.66 C97.32,155.18 93.29,159.07 89.89,163.37 C79.38,176.83 69.6,190.65 65.36,207.58 C65.3298985,207.691834 65.3065233,207.805371 65.29,207.92 C69.63,191.32 79.29,177.7 89.63,164.42 C93.24,159.85 97.57,155.75 98.89,149.66 Z" id="Shape" stroke="#FFFFFF" stroke-width="28" fill="#FFFFFF" stroke-linecap="round" stroke-linejoin="round"></path>
            <path d="M63.81,210.35 C62.28,210.42 61.87,208.83 61.19,207.68 C53.55,194.81 51.79,181.91 54.96,168.82 C51.44,182.27 53.08,195.52 60.96,208.74 C61.64,209.89 62.06,211.48 63.59,211.4 C64.69,211.35 64.88,210.4 65.02,209.51 C64.8446855,210.025178 64.3539595,210.365847 63.81,210.35 Z" id="Shape" stroke="#FFFFFF" stroke-width="28" fill="#FFFFFF" stroke-linecap="round" stroke-linejoin="round"></path>
            <path d="M48.1,163.47 C47.1,166.63 46.1,169.83 45.23,173.02 C45.1803677,173.176167 45.1468595,173.337006 45.13,173.5 C46,170.5 46.87,167.5 47.83,164.5 C51.1,154.4 56.26,144.86 58.83,134.33 C56.18,144.47 51.25,153.71 48.1,163.47 Z" id="Shape" stroke="#FFFFFF" stroke-width="28" fill="#FFFFFF" stroke-linecap="round" stroke-linejoin="round"></path>
            <path d="M384.7,386.84 C373.84,372.913333 362.963333,358.993333 352.07,345.08 C336.57,325.24 321.083333,305.4 305.61,285.56 C304.08,283.56 302.22,281.87 305.04,279.22 C316.57,268.38 322.84,254.5 327.34,239.67 C328.17,236.94 329.1,234.26 331.19,232.2 C352.55,211.12 341.68,175.44 315.66,164.76 C309.66,162.3 303.94,159.16 298.15,156.23 C294.76,154.52 293.99,152.44 296.92,149.23 C301.449549,144.525413 304.809908,138.822051 306.73,132.58 C307.4,130.21 310.23,127.04 307.92,125.43 C306.02,124.1 304.13,127.88 302.19,129.3 C297.19,132.96 296.68,132.75 295.42,126.66 C292.74,113.66 286.07,103.59 273.28,98.52 C270.41,97.38 269.28,95.7 269.09,92.58 C268.54,83.58 265.19,75.75 257.97,69.96 C256.34,68.65 255.58,66.89 254.63,65.12 C247.96,52.68 237.53,45.5 223.63,43.12 C216.32,41.88 210.16,38.56 206.48,31.82 C196.48,13.5 181.48,2.28 160.4,1.21 C149.955003,0.61303998 139.476807,1.02158584 129.11,2.43 C121.3,3.55 113.99,6.43 106.59,8.97 C98.2,11.88 95.76,12.22 92.45,4.48 C92.1044724,3.90790621 91.7024623,3.37189279 91.25,2.88 C90.75,2.18 90.12,1.47 89.25,1.7 C87.97,2.02 88.16,3.17 88.25,4.17 C88.97,14.7 84.48,23.33 77.94,30.97 C71.52,38.47 64.66,45.54 58,52.76 C47.24,64.41 36.5,76 30.33,91 C23.75,107 20.75,123.21 26.63,140.14 C27.2601758,142.240158 27.2392569,144.481967 26.57,146.57 C21.2,166.35 28.14,181.82 43.24,194.46 C44.8830373,195.603067 46.1830541,197.172769 47,199 C49.1986343,204.7738 52.1689514,210.223306 55.83,215.2 C59.9,220.82 61.35,226.78 61.62,233.78 C62.39,253.56 70.42,269.05 89.75,277.15 C99.8243211,281.272555 110.710512,283.02762 121.57,282.28 C128.14,281.91 132.8,284.4 137.19,288.43 C141.02,291.95 143.95,296.24 146.91,300.48 C150.405233,305.76726 154.317704,310.766529 158.61,315.43 C176.22,333.63 196.13,336.43 217.86,323.49 C221.33,321.42 225,320.83 228.81,320.49 C230.35,320.36 232.34,319.29 233.33,321.23 C234.11,322.75 232.62,323.98 231.87,325.23 C228.124275,331.429166 225.881143,338.418834 225.32,345.64 C226.98,344.21 227.61,343.88 227.93,343.36 C236.66,328.93 250.33,320.91 265.23,314.45 C276.87,309.4 273.87,307.81 282.23,318.58 C305.85,348.98 329.45,379.4 353.03,409.84 C358.36,416.71 363.26,417.7 370.85,413.53 C376.765391,410.367418 381.760903,405.726759 385.35,400.06 C388.55,395 388.38,391.57 384.7,386.84 Z M317.2,244 C316.11,243.19 315,244.08 313.96,244.54 C312.36186,245.123271 311.190706,246.507362 310.88,248.18 C310.07,252.65 309.2,257.11 308.35,261.57 C309.21,257.03 310.1,252.5 310.93,247.95 C311.232555,246.279004 312.402415,244.89575 314,244.32 C315,243.85 316.15,242.97 317.24,243.78 C317.661414,244.060728 317.901455,244.54462 317.87,245.05 C317.818833,244.616013 317.572036,244.229242 317.2,244 Z M323.27,229 C329.66,223.51 333.6,216.93 334.99,209.85 C333.76,217.24 329.77,224.13 323.12,229.85 C318.404341,233.843696 313.067222,237.039211 307.32,239.31 C306.32,239.72 305.11,240.59 304.07,239.6 C303.573895,239.181455 303.436519,238.473758 303.74,237.9 C303.781955,238.2387 303.949721,238.549245 304.21,238.77 C305.26,239.77 306.44,238.89 307.46,238.48 C313.216853,236.18721 318.557966,232.964299 323.27,228.94 L323.27,229 Z M296.94,235 C300.09,229.85 303.22,224.69 306.94,218.64 C307.505715,221.411426 307.505715,224.268574 306.94,227.04 C307.365395,224.529984 307.317913,221.962571 306.8,219.47 C303.12,225.52 299.99,230.68 296.8,235.83 C293.073007,242.191003 287.804388,247.511207 281.48,251.3 C280.09,252.11 278.77,253.81 277.03,252.95 C275.11,252.02 276.1,249.95 276.15,248.44 C276.272402,240.178306 275.602674,231.923898 274.15,223.79 C273.328206,225.304686 272.757465,226.94261 272.46,228.64 C272.718386,226.649527 273.342182,224.723896 274.3,222.96 C275.752674,231.093898 276.422402,239.348306 276.3,247.61 C276.24,249.16 275.3,251.19 277.17,252.12 C278.91,252.98 280.24,251.28 281.62,250.47 C287.958788,246.664718 293.229591,241.314784 296.94,234.92 L296.94,235 Z M302.74,252.15 C302.74,250.15 301.88,249.69 299.68,250.44 C296.700351,251.404221 293.798598,252.59434 291,254 C287.39,255.91 285.73,257.05 285.71,258.64 C285.6,256.95 287.25,255.8 291,253.81 C293.814658,252.393477 296.733095,251.193341 299.73,250.22 C302,249.4 302.74,249.91 302.74,252.07 L302.74,252.15 Z M278.89,288.33 C279.943333,289.77 280.996667,291.203333 282.05,292.63 L278.55,287.88 C275.799078,284.087876 275.127245,279.171115 276.76,274.78 C276.906934,274.834849 277.050516,274.898291 277.19,274.97 C275.466133,279.398303 276.106247,284.398726 278.89,288.25 L278.89,288.33 Z M281.07,140.42 L281.28,140.35 L280.79,140.53 L281.07,140.42 Z M274.27,134.84 C277.237095,128.716496 279.089375,122.113303 279.74,115.34 C279.94,115.6 280.12,115.86 280.31,116.12 C279.58324,122.507487 277.788245,128.727431 275,134.52 C273.47,137.64 268.66,141.24 270.86,143.52 C271.53,144.2 272.54,144.17 273.71,143.79 C272.24,144.38 270.96,144.58 270.17,143.79 C267.94,141.49 272.75,137.89 274.27,134.76 L274.27,134.84 Z M283.69,150.68 C285.76,149.49 287.96,148.36 289.69,145.12 L290.03,144.98 C288.23,148.98 285.81,150.21 283.55,151.51 C273.7,157.18 263.24,161.51 252.63,165.51 C227.45,174.95 206.25,190.14 188.47,210.21 C187.148454,211.524716 186.22324,213.184558 185.8,215 L185.75,215.05 C186.054269,212.880429 187.062592,210.870811 188.62,209.33 C206.4,189.26 227.62,174.07 252.77,164.63 C263.39,160.6 273.85,156.27 283.69,150.6 L283.69,150.68 Z M270.69,247.93 C269.938213,252.598109 268.673904,257.169072 266.92,261.56 C260.67,276.91 249.51,285.63 233,287 C223.344363,287.735849 213.890215,290.145066 205.06,294.12 C203.24,294.95 201.06,295.49 200.17,297.55 L200.05,297.45 C200.73,294.76 203.18,294.21 205.21,293.29 C214.036759,289.315224 223.487599,286.905987 233.14,286.17 C249.65,284.78 260.81,276.06 267.06,260.63 C268.713495,256.507843 269.933402,252.224763 270.7,247.85 L270.69,247.93 Z M75.41,231.41 C79.86,245.18 91.41,251.11 103.63,246.98 C91.11,251.57 79.25,245.68 74.72,231.66 C70.26,217.84 73.79,205.08 80.25,192.74 C91.19,171.84 107.84,157.14 129.09,147.35 C135.970097,144.321628 142.408561,140.375798 148.23,135.62 C147.082764,135.656508 145.94576,135.848251 144.85,136.19 C146.153,135.685015 147.533074,135.407647 148.93,135.37 C143.105515,140.121506 136.667655,144.066966 129.79,147.1 C108.54,156.89 91.88,171.59 80.94,192.49 C74.48,204.83 71,217.6 75.41,231.41 Z M153.68,65.29 C126.386667,83.0966667 108.923333,107.333333 101.29,138 C108.73,106.806667 126.3,82.2166667 154,64.23 C155.378666,63.5312751 156.629557,62.6049396 157.7,61.49 L158.23,61.38 C156.93,63.69 155.16,64.33 153.68,65.29 Z M178.43,64 C151.68,73.55 127.09,96.65 119.34,119.54 L118.08,121.47 C125.22,97.83 150.75,73.61 178.43,64 Z M118,221.94 C127.35,212.8 137,204.14 149.53,199.5 L150.14,199.28 C137.65,203.93 128.02,212.57 118.7,221.69 C117.01,223.35 114.99,226.37 112.91,226.84 C114.75,226 116.51,223.41 118,221.94 Z M113.68,145.24 C113.28,146.06 112.41,147.14 113.49,147.9 C114.144544,148.126342 114.861298,148.090504 115.49,147.8 L115.1,147.95 C114.38,148.23 113.27,148.49 112.78,148.14 C111.71,147.39 112.58,146.31 112.98,145.49 C129.67,111.71 152.92,85.83 187.22,73.31 C153.31,85.92 130.28,111.69 113.69,145.24 L113.68,145.24 Z M157.27,189.17 C155.13,189.75 153.033333,190.393333 150.98,191.1 C153.26,190.3 155.58,189.57 157.98,188.92 C173.6,184.7 189.35,180.98 204.58,175.48 C189.12,181.12 173.13,184.88 157.28,189.17 L157.27,189.17 Z M230,114.49 C232.78,113.39 235.54,112.24 238.35,111.21 C235.55,112.26 232.8,113.43 230.01,114.51 L230,114.49 Z M259.46,96.69 C260.104792,96.806362 260.765208,96.806362 261.41,96.69 C260.579906,97.0555425 259.653955,97.1432273 258.77,96.94 C251.528279,95.8214073 244.12239,96.50841 237.21,98.94 C244.309459,96.3176859 251.959075,95.5434332 259.44,96.69 L259.46,96.69 Z M230.23,111.39 C214.6,117.07 203.85,130.39 189.07,137.26 L189.28,137.06 C203.79,129.94 214.53,116.81 230.21,111.39 L230.23,111.39 Z M164.14,107.39 C161.69,109.71 159.66,112.48 157.43,115.04 C157.34,114.95 157.26,114.85 157.18,114.76 C159.141325,112.273195 161.234317,109.893126 163.45,107.63 C178.23,93.63 194.26,81.63 213.39,74.7 C194.54,81.63 178.72,93.53 164.12,107.37 L164.14,107.39 Z M210.14,60.22 C210.3,60.22 210.47,60.22 210.63,60.28 C202.126836,61.5206887 193.757471,63.549423 185.63,66.34 C193.585598,63.5508019 201.779773,61.4955635 210.11,60.2 L210.14,60.22 Z M194.9,44.77 C194.914536,44.9029372 194.914536,45.0370628 194.9,45.17 C194.61,47.17 191.8,46.45 190.1,46.7 C171.38,49.48 153.75,55.04 138.54,66.82 C137.54,67.63 136.48,68.5 135.54,69.39 C135.436807,69.5045874 135.361511,69.6414876 135.32,69.79 L135.19,69.79 C135.56,68.86 135.59,68.47 135.81,68.28 C136.81,67.39 137.81,66.52 138.86,65.71 C154,54 171.61,48.42 190.34,45.64 C191.81,45.43 194.13,46 194.9,44.77 Z M97.38,23.1 C97.3719442,22.6561813 97.4714443,22.2170083 97.67,21.82 C97.664615,21.8932345 97.664615,21.9667655 97.67,22.04 C97.67,24.51 96.67,27.04 97.67,29.43 C97.9,29.96 98.85,29.89 99.43,29.43 L111,19.12 C111.11,19.3 111.22,19.47 111.34,19.64 L99.18,30.43 C98.6,30.95 97.65,31.02 97.42,30.49 C96.39,28.07 97.36,25.57 97.38,23.1 Z M105.19,47.1 C125.72,33.4 147.9,24.84 173.13,26 C179.1111,26.393355 185.058305,27.1952253 190.93,28.4 C191.84,28.57 192.93,29.13 193.6,28.23 C193.671142,28.5766644 193.599002,28.9373645 193.4,29.23 C192.73,30.23 191.6,29.65 190.66,29.47 C184.789362,28.2590049 178.841728,27.4570766 172.86,27.07 C147.64,25.91 125.46,34.47 104.93,48.2 C94.14,55.4 84.06,63.56 74,71.83 C74.38,71.21 74.79,70.62 75.18,70.02 C84.94,62 94.73,54.12 105.19,47.13 L105.19,47.1 Z M69,119.27 C67.79,121.82 66.86,124.51 65.66,127.07 C65.2,128.07 65.14,129.73 63.75,129.73 C62.13,129.73 62.04,127.97 61.47,126.84 C61.1,126.12 60.81,125.38 60.47,124.64 C60.47,124.16 60.56,123.69 60.58,123.21 C60.95,124.07 61.29,124.95 61.71,125.78 C62.28,126.91 62.37,128.68 64,128.68 C65.38,128.68 65.44,127 65.91,126.01 C67.1,123.45 68.04,120.77 69.25,118.21 C73.18,109.92 77.25,101.73 84.55,94.5 C84.4836643,94.862224 84.3934679,95.2196692 84.28,95.57 C77,102.8 72.93,111 69,119.27 Z M71.35,124.84 C71.09,125.95 70.83,127.06 70.54,128.16 C70.8,127.16 71.07,126.06 71.3,124.99 C71.3226173,124.942184 71.3394044,124.891823 71.35,124.84 Z M82.09,100.84 C82.062987,101.172786 82.062987,101.507214 82.09,101.84 C86.33,100.13 88.81,96.28 92.63,94.49 C93.1386623,95.2417557 93.1999048,96.2101531 92.79,97.02 C92.7906702,96.5003025 92.6451262,95.9908985 92.37,95.55 C88.55,97.34 86.06,101.19 81.83,102.9 C81.78733,102.206408 81.8755307,101.510979 82.09,100.85 L82.09,100.84 Z M43.51,176.84 C42.2,177.02 41.57,175.77 40.96,174.76 C34.78,164.52 33.6,153.48 35.96,141.98 C36.16,140.98 36.41,139.98 36.66,138.98 C36.51,139.61 36.35,140.24 36.22,140.88 C33.81,152.38 34.99,163.42 41.17,173.67 C41.78,174.67 42.41,175.92 43.72,175.75 C44.1453565,175.71062 44.5217924,175.458408 44.72,175.08 C44.69,176 44.54,176.76 43.51,176.89 L43.51,176.84 Z M35.51,121.37 C33.97,115.59 34.72,110.11 36.04,104.67 C36.04,104.45 36.16,104.24 36.21,104.02 C34.96,109.32 34.28,114.68 35.77,120.31 C41,111.11 49.21,103.69 52.77,94.05 C59.61,75.28 70.91,59.7 84.15,45.36 C86.1866026,43.1661366 87.6439101,40.4989888 88.39,37.6 C87.7202613,40.896669 86.1605196,43.9469843 83.88,46.42 C70.57,60.81 59.28,76.39 52.43,95.16 C48.93,104.79 40.71,112.22 35.49,121.42 L35.51,121.37 Z M45.15,173.45 C45.1668595,173.287006 45.2003677,173.126167 45.25,172.97 C46.17,169.78 47.09,166.58 48.12,163.42 C51.27,153.66 56.2,144.42 58.85,134.31 C56.28,144.84 51.12,154.38 47.85,164.48 C46.87,167.5 46,170.5 45.13,173.5 L45.15,173.45 Z M63.57,211.35 C62.04,211.43 61.57,209.84 60.94,208.69 C53.1,195.47 51.46,182.22 54.94,168.77 C51.77,181.86 53.53,194.77 61.17,207.63 C61.85,208.78 62.26,210.37 63.79,210.3 C64.3193101,210.298415 64.7892564,209.961017 64.96,209.46 C64.84,210.42 64.65,211.35 63.55,211.4 L63.57,211.35 Z M65.42,207.53 C69.66,190.6 79.42,176.78 89.95,163.32 C93.31,159.02 97.34,155.13 98.95,149.61 C97.63,155.7 93.3,159.8 89.73,164.37 C79.37,177.65 69.73,191.27 65.39,207.87 C65.388492,207.773227 65.3918295,207.676439 65.4,207.58 L65.42,207.53 Z M93.57,265.24 C83.07,264.91 74.57,257.4 72.08,246.43 C72.22,246.43 72.34,246.49 72.47,246.52 C75.22,256.98 83.47,264.09 93.72,264.41 C107.02,264.83 117.97,259.49 126.88,249.82 C137.39,238.42 145.51,225.26 154.06,212.44 C154.114724,212.681281 154.090176,212.933778 153.99,213.16 C145.41,226.02 137.27,239.16 126.74,250.65 C117.8,260.37 106.85,265.71 93.55,265.29 L93.57,265.24 Z M110.45,274.89 C108.95,274.75 107.45,274.54 105.99,274.28 C105.18,274.14 104.17,273.93 104.06,272.98 C104.012453,272.691085 104.065396,272.394602 104.21,272.14 C104.31,273.14 105.32,273.31 106.13,273.45 C107.61,273.71 109.13,273.92 110.59,274.06 C129.74,275.88 146.44,270.16 160.95,257.7 C171.09,249 179.68,238.8 188.7,229 C196.99,220 205.24,210.88 215.99,204.51 C215.77,204.9 215.53,205.29 215.3,205.68 C204.82,212 196.71,221 188.55,229.82 C179.55,239.63 170.95,249.82 160.79,258.58 C146.27,271 129.57,276.76 110.43,274.94 L110.45,274.89 Z M203.45,322.36 C194.33,325.86 185.45,324.36 176.87,320.04 C168.29,315.72 161.67,308.8 156.1,301 C151.57,294.62 147.37,288 141.59,282.58 C140.4,281.46 139.88,280.41 140.32,279.52 C140.520832,280.405336 141.022725,281.19352 141.74,281.75 C147.51,287.15 151.74,293.75 156.25,300.17 C161.81,308.02 168.25,314.85 176.99,319.3 C185.54,323.68 194.44,325.13 203.56,321.63 C217.05,316.45 228.22,307.86 237.89,297.24 C238.45411,296.721339 238.933279,296.117316 239.31,295.45 C239.39,296.45 238.44,297.31 237.74,298.07 C228.08,308.64 216.9,317.23 203.42,322.41 L203.45,322.36 Z M264.19,295.36 C262.77,293.52 261.29,291.72 259.96,289.82 C257.59,286.45 254.86,286.42 252.89,289.75 C248.765179,296.565081 243.79954,302.834284 238.11,308.41 C237.566263,308.846846 237.182889,309.451802 237.02,310.13 C236.95,309.42 237.57,308.77 238.11,308.23 C243.797103,302.652091 248.762486,296.38321 252.89,289.57 C254.89,286.24 257.59,286.26 259.96,289.64 C261.29,291.54 262.77,293.33 264.19,295.17 C266.26,297.84 267.35,299.44 267.32,300.67 C267.21,299.52 266.13,297.94 264.16,295.41 L264.19,295.36 Z M271.77,291.17 C271.77,291.24 271.86,291.31 271.91,291.38 C271.730017,291.171682 271.569355,290.947425 271.43,290.71 C270.79,289.59 269.61,288.29 271.04,287.18 C272.27,286.18 272.98,287.04 273.56,287.9 C273.346019,287.524044 272.967045,287.271236 272.53774,287.218065 C272.108434,287.164894 271.679235,287.317608 271.38,287.63 C269.92,288.79 271.1,290.1 271.74,291.22 L271.77,291.17 Z M272.85,292.58 L272.98,292.75 C279.353333,301.69 285.82,310.553333 292.38,319.34 C285.76,310.526667 279.24,301.623333 272.82,292.63 L272.85,292.58 Z M321.59,350.58 C310.296667,335.953333 299.043333,321.286667 287.83,306.58 C283.38,300.76 278.94,294.93 274.44,289.15 L274.23,288.86 C278.69,294.59 283.08,300.36 287.5,306.12 C298.74,320.786667 309.99,335.453333 321.25,350.12 C323.291333,352.732634 325.574801,355.146682 328.07,357.33 C326.99,353.49 324.6,350.45 322.34,347.33 L318.6,342.24 L322.68,347.79 C324.94,350.88 327.33,353.92 328.41,357.79 C325.90204,355.614193 323.608234,353.203185 321.56,350.59 L321.59,350.58 Z M362.26,405.92 C361.864263,406.719527 361.761634,407.63257 361.97,408.5 C361.26,407.95 361.47,406.57 361.92,405.5 C362.783475,403.542993 363.744685,401.630585 364.8,399.77 C364.958191,399.836541 365.111853,399.913372 365.26,400 C364.23,401.93 363.06,403.87 362.23,405.93 L362.26,405.92 Z M374.76,385.85 C361.87,369.51 348.86,353.25 336.37,336.6 C319.67,314.33 301.08,293.6 283.8,271.85 C282.96,270.79 282.13,269.54 280.88,270.06 C280.56,269.926667 280.2,269.926667 279.88,270.06 C281.52,268.69 282.49,270.19 283.47,271.43 C300.75,293.21 319.34,313.92 336.04,336.18 C348.53,352.84 361.54,369.09 374.43,385.44 C374.63,385.69 374.82,385.94 375,386.2 L374.76,385.85 Z" id="Shape" stroke="#FFFFFF" stroke-width="28" fill="#FFFFFF" stroke-linecap="round" stroke-linejoin="round"></path>
            <path d="M351.15,218.13 C361.38,202.74 351.15,167.23 336.9,166.22 C348.84,181.28 353.1,198.26 351.15,218.13 Z" id="Shape" stroke="#FFFFFF" stroke-width="28" fill="#FFFFFF" stroke-linecap="round" stroke-linejoin="round"></path>
            <path d="M363.69,217.1 C371.57,204.53 365.47,177.34 352.97,171.71 C360.2,186.53 365.4,201 363.69,217.1 Z" id="Shape" stroke="#FFFFFF" stroke-width="28" fill="#FFFFFF" stroke-linecap="round" stroke-linejoin="round"></path>
            <path d="M4.5,140.09 C3.09777058,125.091475 4.42934959,109.962975 8.43,95.44 C0.5,108.75 -1.52,132.15 4.5,140.09 Z" id="Shape" stroke="#FFFFFF" stroke-width="28" fill="#FFFFFF" stroke-linecap="round" stroke-linejoin="round"></path>
            <path d="M10.72,126.92 C12.72,112.29 15.24,98.06 20.63,84.49 C13,91.82 6.65,119.35 10.72,126.92 Z" id="Shape" stroke="#FFFFFF" stroke-width="28" fill="#FFFFFF" stroke-linecap="round" stroke-linejoin="round"></path>
            <path d="M365.41,401 C364.41,403 363.24,404.88 362.41,407 C361.74,408.66 361.59,410.91 364.29,410.14 C370.07,408.47 375.57,405.07 377.71,399.75 C379.17,396.11 378.03,390.87 374.92,386.93 C362,370.56 349,354.3 336.52,337.65 C319.82,315.38 301.23,294.65 283.95,272.9 C282.9,271.57 281.86,269.95 280.01,271.9 C275.555338,276.735871 275.160933,284.053332 279.07,289.34 C293.663333,309.186667 308.25,329.046667 322.83,348.92 C325.09,352.01 327.48,355.05 328.56,358.92 C326.062475,356.742757 323.778759,354.331796 321.74,351.72 C310.446667,337.093333 299.193333,322.426667 287.98,307.72 C283.52,301.91 279.09,296.08 274.59,290.3 C273.86,289.36 273.15,287.55 271.53,288.8 C270.09,289.91 271.27,291.22 271.92,292.34 C272.25,292.91 272.75,293.34 273.13,293.92 C298.93,330.15 326.56,364.99 353.54,400.33 C357.71,405.78 357.73,405.75 362.79,401.47 C363.07121,401.055312 363.507831,400.771615 364.001003,400.683146 C364.494175,400.594676 365.002182,400.708916 365.41,401 Z" id="Shape" stroke="#FEE9A9" fill="#FEE9A9"></path>
            <path d="M373.79,386.9 C360.89,370.56 347.88,354.3 335.39,337.65 C318.7,315.38 300.11,294.65 282.83,272.9 C281.77,271.57 280.74,269.95 278.88,271.9 C277.840694,272.974626 277.00394,274.228062 276.41,275.6 C278.250226,276.179704 279.760652,277.508588 280.57,279.26 C283.44,284.87 372.83,398.41 374.11,403.01 C374.16,403.2 374.19,403.39 374.23,403.58 C375.215152,402.448013 376.005867,401.160566 376.57,399.77 C378,396.08 376.9,390.84 373.79,386.9 Z" id="Shape" fill="#E8CF83"></path>
            <path d="M239.4,312.65 C247.2167,311.3628 254.842263,309.105365 262.1,305.93 C268.77,303.06 268.91,302.34 264.34,296.44 C262.92,294.61 261.44,292.81 260.11,290.91 C257.74,287.53 255.01,287.51 253.04,290.84 C248.915179,297.655081 243.94954,303.924284 238.26,309.5 C237.56,310.2 236.7,311.1 237.44,312.06 C237.83,312.56 238.91,312.52 239.4,312.65 Z M302.89,254.13 C303.1,251.26 302.4,250.53 299.89,251.4 C296.892435,252.371545 293.973863,253.571737 291.16,254.99 C284.56,258.47 284.44,259.38 289,265.2 C290.54,267.2 292,269.2 293.59,271.08 C295.18,272.96 296.45,272.97 297.59,270.56 C300.18,265.3 301.44,259.63 302.89,254.13 Z M308.49,262.8 C313.18,258.8 315.17,253.46 317.35,248.21 C317.76,247.21 318.6,245.93 317.35,245.01 C316.1,244.09 315.15,245.08 314.11,245.55 C312.509459,246.129826 311.336912,247.515564 311.03,249.19 C310.23,253.73 309.35,258.27 308.49,262.8 Z" id="Shape" stroke="#49AAC1" fill="#49AAC1"></path>
            <path d="M290.36,145.1 C284.56,147.59 279.97,149.8 275.21,151.55 C261.76043,156.519896 248.660796,162.389842 236,169.12 C223.15,175.95 210.2,182.59 196.15,186.28 C186.71,188.76 179.84,194.23 173.53,201 C171.361937,203.307298 169.341274,205.748793 167.48,208.31 C159.53,219.42 151.77,230.67 143.77,241.75 C134.09,255.14 123.68,267.69 106.35,271.51 C105.41,271.72 104.2,271.9 104.35,273.23 C104.46,274.23 105.47,274.4 106.28,274.54 C107.76,274.79 109.28,275 110.74,275.15 C129.89,276.97 146.58,271.24 161.1,258.78 C171.26,250.06 179.85,239.84 188.87,230.02 C197.16,221.02 205.41,211.91 216.16,205.53 C215.063239,207.524591 213.741262,209.386767 212.22,211.08 C204.31,219.69 197.43,229.08 190.16,238.24 C177,254.78 163.07,270.43 142.56,278.24 C139.82,279.24 139.98,280.92 141.9,282.72 C147.68,288.12 151.9,294.72 156.42,301.14 C161.98,308.98 168.42,315.82 177.16,320.27 C185.9,324.72 194.61,326.1 203.73,322.6 C217.21,317.41 228.39,308.83 238.06,298.21 C238.93,297.21 240.22,296.21 239.36,294.78 C238.65,293.58 237.24,294.15 236.13,294.31 C225.58,295.78 214.83,295.9 204.49,298.87 C203.15,299.25 201.61,299.87 200.23,298.49 C200.91,295.8 203.36,295.25 205.38,294.33 C214.210618,290.35622 223.664562,287.947055 233.32,287.21 C249.83,285.82 260.98,277.1 267.24,261.67 C270.76,252.98 271.94,244.03 272.24,234.82 C272.35,231.1 272.52,227.38 274.46,223.9 C275.912735,232.03389 276.582464,240.288304 276.46,248.55 C276.41,250.1 275.46,252.13 277.34,253.06 C279.08,253.91 280.41,252.21 281.79,251.41 C288.114455,247.644066 293.387035,242.343971 297.12,236 C300.27,230.86 303.4,225.7 307.12,219.65 C308.51,226.38 306.12,231.42 304.74,236.59 C304.45,237.66 303.29,238.72 304.42,239.78 C305.55,240.84 306.65,239.9 307.67,239.49 C313.414608,237.213911 318.750903,234.018888 323.47,230.03 C336.32,219.03 339.28,203.56 331.47,188.52 C325.23,176.52 313.97,171.09 302.3,166.31 C298.25,164.65 294.3,162.88 291.06,159.98 C288.95,158.11 287.23,158.17 284.84,159.48 C280.758481,161.726562 276.547814,163.730052 272.23,165.48 C246.33,175.87 220.92,187.09 199.01,204.9 C194.9,208.24 190.8,211.63 186.01,216.08 C186.323426,213.908287 187.334198,211.897273 188.89,210.35 C206.67,190.29 227.89,175.1 253.04,165.66 C263.66,161.66 274.12,157.35 283.96,151.66 C286.13,150.34 288.55,149.11 290.36,145.1 Z M72.36,246.69 C74.85,257.69 83.36,265.17 93.86,265.5 C107.16,265.92 118.11,260.58 127.02,250.91 C137.55,239.47 145.69,226.28 154.28,213.42 C154.47,213.13 154.28,212.61 154.28,211.96 C151.28,213.46 149.53,215.96 147.49,218.1 C137.1,228.86 127.94,240.82 116.27,250.34 C103.97,260.34 89.27,260.17 77.13,249.95 C75.8,248.8 74.82,247.08 72.38,246.69 L72.36,246.69 Z" id="Shape" stroke="#ACE3FC" fill="#ACE3FC"></path>
            <path d="M189.22,138.3 C199.04,128.81 207.75,118.3 218.78,110.22 C230.91,101.38 243.99,95.3 259.62,97.73 C263.49,98.33 263.62,95.87 263.4,93.09 C262.57,83.09 254.81,74.31 244.82,72.01 C237.14,70.24 229.55,70.92 222.07,73.01 C199.4,79.24 181.07,92.57 164.3,108.44 C161.85,110.77 159.81,113.53 157.59,116.1 L156.13,114.51 C170.81,94.78 189.91,80.27 212.53,69.12 C210.990921,68.3590849 209.217188,68.2229195 207.58,68.74 C162.31,77.65 133.58,106.51 113.87,146.32 C113.47,147.14 112.6,148.21 113.68,148.97 C114.17,149.32 115.27,149.06 115.99,148.78 C124.52,145.45 133.34,142.87 141.63,138.9 C143.63,137.9 145.5,136.58 149.1,136.45 C143.282488,141.180078 136.858973,145.111539 130,148.14 C108.75,157.93 92.09,172.63 81.15,193.53 C74.69,205.87 71.15,218.63 75.62,232.45 C80.72,248.25 95.14,253.74 109.32,245.52 C115.25601,242.103007 120.648756,237.819144 125.32,232.81 C135.1,222.34 144.26,211.28 154.9,201.63 C155.6,200.99 156.51,200.34 156.09,199 C155.648536,198.873306 155.187471,198.829234 154.73,198.87 C153.29,199.28 151.87,199.77 150.46,200.29 C137.93,204.93 128.28,213.59 118.94,222.73 C116.63,224.99 113.72,229.82 110.86,227.19 C108.4,224.95 112.62,221.1 114.66,218.44 C125.82,203.88 140.59,194.72 158.2,189.96 C177.66,184.7 197.33,180.22 215.94,172.1 C234.94,163.81 251.5,152.53 263.73,135.51 C267.15,130.75 270.03,125.68 270.83,119.72 C271.55,114.36 269.4,111 264.19,109.62 C256.49,107.62 248.95,108.78 241.56,111.19 C237.72,112.45 234,114.08 230.22,115.55 L229.4,114.43 L234.07,111.26 C216.36,116.05 205.13,130.88 189.22,138.3 Z M211.47,61.05 C174.16,55.54 128.86,89.47 118.96,122.25 C140.7,88.06 171.12,67.09 211.47,61.05 Z M280.62,116.05 C279.958527,122.821273 278.106773,129.422588 275.15,135.55 C273.62,138.67 268.81,142.28 271.01,144.55 C272.94,146.55 277.7,142.55 281.25,141.39 C283.25,140.71 285.45,139.88 285.71,137.26 C286.47,129.68 285.58,122.47 280.62,116.05 Z" id="Shape" stroke="#E077BD" fill="#E077BD"></path>
            <path d="M60.78,124.24 C61.15,125.1 61.49,125.98 61.91,126.82 C62.48,127.95 62.57,129.72 64.19,129.72 C65.58,129.72 65.64,128.04 66.1,127.05 C67.3,124.49 68.23,121.8 69.45,119.25 C73.38,110.96 77.45,102.77 84.75,95.53 C84.17,98.61 82.1,100.03 82.22,102.87 C86.46,101.16 88.94,97.31 92.76,95.52 C93.89,97.52 92.49,98.58 91.83,99.82 C88.71,105.65 83.95,110.09 79.24,114.58 C76.08,117.58 72.72,120.58 71.75,124.97 C69.35,135.8 65.19,145.97 60.33,155.82 C51.46,173.82 51.01,191.27 61.33,208.72 C62.02,209.87 62.43,211.46 63.96,211.38 C65.49,211.3 65.28,209.69 65.55,208.61 C69.79,191.69 79.55,177.87 90.08,164.4 C93.81,159.62 98.39,155.4 99.47,148.79 C105.37,112.93 123.58,85.09 154.1,65.27 C155.57,64.27 157.34,63.67 158.59,61.36 C150,63 143.31,68.05 135.28,70.88 C135.66,69.95 135.69,69.56 135.9,69.37 C136.9,68.48 137.9,67.61 138.96,66.8 C154.17,55 171.79,49.46 190.52,46.68 C192.22,46.43 195.03,47.17 195.32,45.15 C195.68,42.66 192.59,42.63 190.92,42.04 C169.98,34.66 149.21,35.52 129.05,44.55 C98.78,58.11 75.23,80 55.27,106 C46.93,116.84 39.33,128.28 36.45,142 C34.04,153.5 35.22,164.54 41.4,174.78 C42.01,175.78 42.64,177.04 43.95,176.86 C45.46,176.66 45.1,175.1 45.4,174.04 C46.33,170.85 47.25,167.66 48.27,164.5 C52.55,151.29 60.09,139 60.78,124.24 Z M74.46,71.81 C84.46,63.54 94.59,55.38 105.37,48.17 C125.9,34.44 148.08,25.88 173.3,27 C179.281728,27.3870766 185.229362,28.1890049 191.1,29.4 C192.1,29.58 193.17,30.18 193.84,29.16 C194.51,28.14 193.61,27.27 193,26.52 C192.271183,25.6213307 191.475591,24.7789391 190.62,24 C175.85,10.64 158.91,8.15 140.39,14.16 C126.94,18.53 116,27 105.64,36.22 C93.77,46.74 82.89,58.15 74.46,71.81 Z M35.93,121.4 C41.16,112.2 49.37,104.77 52.88,95.14 C59.72,76.37 71,60.79 84.26,46.45 C89.38,40.91 89.19,34.75 90.07,27.83 C88.96,28.41 88.36,28.52 88.16,28.83 C81.41,40.1 72,49.06 63.2,58.62 C50.94,72 40.82,86.71 36.46,104.7 C35.15,110.14 34.4,115.62 35.93,121.4 Z M111.74,19.62 L111,18.46 C107.58,19.05 104.17,19.66 100.75,20.23 C99.1,20.51 97.86,21.23 97.84,23.08 C97.84,25.55 96.84,28.08 97.89,30.47 C98.11,31 99.07,30.93 99.65,30.41 L111.74,19.62 Z" id="Shape" stroke="#EAB9E5" fill="#EAB9E5"></path>
            <path d="M225.51,346.72 C226.074428,339.49948 228.317322,332.510553 232.06,326.31 C232.8,325.06 234.3,323.82 233.52,322.31 C232.52,320.38 230.52,321.45 229,321.58 C225.19,321.9 221.52,322.49 218,324.58 C196.27,337.5 176.37,334.73 158.75,316.52 C154.459411,311.839866 150.550265,306.823853 147.06,301.52 C144.06,297.29 141.17,293 137.34,289.52 C132.95,285.52 128.34,283 121.71,283.37 C110.852869,284.117213 99.9692763,282.358594 89.9,278.23 C70.57,270.14 62.54,254.64 61.77,234.87 C61.5,227.87 60.05,221.87 55.98,216.28 C52.3151473,211.309334 49.3445029,205.862592 47.15,200.09 C46.3302998,198.261537 45.0267202,196.691709 43.38,195.55 C28.28,182.91 21.38,167.44 26.71,147.66 C27.3792569,145.571967 27.4001758,143.330158 26.77,141.23 C20.89,124.3 23.88,108.1 30.47,92.09 C36.64,77.09 47.38,65.48 58.13,53.83 C64.84,46.58 71.69,39.51 78.09,32 C84.62,24.37 89.09,15.74 88.4,5.2 C88.33,4.2 88.14,3.06 89.4,2.74 C90.29,2.51 90.92,3.21 91.4,3.92 C91.8548978,4.40986305 92.2571029,4.94613642 92.6,5.52 C95.91,13.26 98.35,12.92 106.74,10.01 C114.14,7.45 121.45,4.59 129.26,3.47 C139.626791,2.06140102 150.105005,1.65285447 160.55,2.25 C181.61,3.32 196.63,14.53 206.63,32.86 C210.31,39.59 216.47,42.92 223.78,44.16 C237.67,46.52 248.1,53.7 254.78,66.16 C255.73,67.93 256.5,69.69 258.13,71 C265.35,76.79 268.7,84.6 269.25,93.62 C269.44,96.74 270.57,98.41 273.44,99.55 C286.23,104.63 292.9,114.66 295.58,127.7 C296.84,133.79 297.36,133.99 302.35,130.34 C304.29,128.92 306.18,125.14 308.07,126.46 C310.38,128.07 307.56,131.25 306.88,133.62 C304.967653,139.86323 301.610141,145.567573 297.08,150.27 C294.15,153.46 294.91,155.53 298.3,157.27 C304.1,160.2 309.82,163.34 315.82,165.8 C341.82,176.48 352.7,212.16 331.35,233.24 C329.26,235.3 328.35,237.97 327.5,240.71 C323,255.54 316.73,269.41 305.2,280.25 C302.38,282.9 304.2,284.64 305.77,286.6 C321.236667,306.44 336.723333,326.28 352.23,346.12 C363.103333,360.04 373.98,373.96 384.86,387.88 C388.54,392.61 388.71,396.08 385.53,401.15 C381.938086,406.814418 376.943263,411.454437 371.03,414.62 C363.44,418.79 358.54,417.8 353.21,410.93 C329.59,380.53 305.99,350.11 282.41,319.67 C274.04,308.9 277.04,310.49 265.41,315.54 C250.51,322 236.84,330.02 228.11,344.45 C227.8,345 227.16,345.3 225.51,346.72 Z M290.21,145.93 C284.41,148.42 279.82,150.63 275.07,152.38 C261.625948,157.366946 248.532993,163.253598 235.88,170 C223.02,176.83 210.08,183.47 196.02,187.16 C186.58,189.64 179.71,195.11 173.41,201.88 C171.253339,204.183751 169.249093,206.625591 167.41,209.19 C159.41,220.3 151.69,231.55 143.69,242.63 C134,256 123.55,268.52 106.22,272.34 C105.29,272.55 104.07,272.73 104.22,274.06 C104.33,275.06 105.34,275.23 106.15,275.37 C107.62,275.62 109.15,275.83 110.6,275.98 C129.75,277.8 146.45,272.07 160.97,259.61 C171.12,250.89 179.71,240.67 188.73,230.85 C197.03,221.85 205.28,212.74 216.03,206.36 C214.929807,208.354904 213.604483,210.217068 212.08,211.91 C204.18,220.52 197.29,229.91 190.03,239.07 C176.86,255.61 162.93,271.26 142.43,279.07 C139.68,280.07 139.84,281.75 141.77,283.55 C147.55,288.95 151.77,295.55 156.28,301.97 C161.85,309.81 168.28,316.65 177.02,321.1 C185.76,325.55 194.48,326.93 203.6,323.43 C217.08,318.24 228.25,309.66 237.92,299.04 C238.79,298.09 240.09,297.04 239.23,295.61 C238.51,294.41 237.11,294.98 235.99,295.14 C225.44,296.61 214.7,296.73 204.35,299.7 C203.01,300.08 201.48,300.7 200.09,299.32 C200.77,296.63 203.23,296.08 205.25,295.16 C214.080215,291.185066 223.534363,288.775849 233.19,288.04 C249.69,286.65 260.85,277.93 267.1,262.5 C270.63,253.81 271.81,244.86 272.1,235.65 C272.22,231.93 272.38,228.21 274.32,224.73 C275.772674,232.863898 276.442402,241.118306 276.32,249.38 C276.27,250.93 275.32,252.96 277.19,253.89 C278.94,254.74 280.26,253.04 281.65,252.24 C287.985866,248.46453 293.265751,243.150248 297,236.79 C300.16,231.64 303.29,226.48 307,220.43 C308.39,227.16 306,232.2 304.63,237.37 C304.34,238.44 303.18,239.5 304.3,240.56 C305.42,241.62 306.54,240.68 307.56,240.27 C313.303429,237.991523 318.639355,234.796722 323.36,230.81 C336.21,219.81 339.17,204.34 331.36,189.3 C325.12,177.3 313.85,171.87 302.19,167.09 C298.13,165.43 294.19,163.66 290.95,160.76 C288.84,158.89 287.11,158.95 284.72,160.26 C280.639467,162.508484 276.428684,164.512029 272.11,166.26 C246.22,176.65 220.8,187.87 198.89,205.68 C194.79,209.02 190.69,212.41 185.89,216.86 C186.200676,214.689526 187.207864,212.678661 188.76,211.13 C206.54,191.07 227.76,175.88 252.92,166.44 C263.53,162.44 273.99,158.13 283.84,152.44 C286,151.17 288.41,150 290.21,145.93 Z M188.53,138.55 C198.35,129.06 207.06,118.55 218.08,110.47 C230.22,101.63 243.3,95.55 258.93,97.97 C262.79,98.57 262.93,96.12 262.7,93.34 C261.88,83.34 254.11,74.56 244.12,72.26 C236.45,70.49 228.86,71.17 221.38,73.26 C198.71,79.49 180.38,92.82 163.61,108.69 C161.15,111.02 159.12,113.78 156.89,116.34 L155.44,114.76 C170.12,95.03 189.21,80.52 211.83,69.36 C210.274588,68.5921635 208.481491,68.4594742 206.83,68.99 C161.57,77.9 132.83,106.76 113.13,146.57 C112.72,147.39 111.86,148.46 112.93,149.22 C113.42,149.57 114.53,149.3 115.25,149.03 C123.78,145.7 132.6,143.12 140.88,139.14 C142.88,138.2 144.76,136.83 148.36,136.69 C142.538561,141.445798 136.100097,145.391628 129.22,148.42 C107.97,158.22 91.31,172.92 80.38,193.81 C73.92,206.16 70.38,218.92 74.85,232.74 C79.95,248.54 94.37,254.02 108.55,245.81 C114.484582,242.390907 119.877033,238.107279 124.55,233.1 C134.33,222.63 143.55,211.57 154.14,201.91 C154.84,201.28 155.74,200.63 155.33,199.29 C154.885135,199.163204 154.420774,199.119141 153.96,199.16 C152.52,199.57 151.1,200.06 149.7,200.58 C137.16,205.22 127.52,213.87 118.17,223.02 C115.87,225.27 112.96,230.11 110.09,227.48 C107.64,225.24 111.86,221.39 113.89,218.73 C125.06,204.16 139.83,195.01 157.44,190.25 C176.9,184.99 196.56,180.51 215.18,172.39 C234.18,164.1 250.74,152.82 262.97,135.8 C266.39,131.04 269.27,125.97 270.07,120.01 C270.79,114.65 268.64,111.29 263.42,109.91 C255.73,107.91 248.18,109.07 240.8,111.48 C236.95,112.73 233.23,114.37 229.46,115.83 L228.64,114.71 L233.31,111.55 C215.67,116.3 204.43,131.12 188.53,138.55 Z M60.53,125.3 C60.91,126.16 61.24,127.04 61.67,127.88 C62.24,129.01 62.33,130.78 63.95,130.77 C65.34,130.77 65.4,129.1 65.86,128.11 C67.06,125.55 67.99,122.86 69.2,120.31 C73.14,112.02 77.2,103.83 84.51,96.59 C83.92,99.67 81.86,101.09 81.98,103.93 C86.21,102.21 88.7,98.37 92.52,96.58 C93.65,98.58 92.25,99.64 91.59,100.87 C88.47,106.71 83.71,111.15 78.99,115.63 C75.84,118.63 72.48,121.63 71.5,126.03 C69.11,136.86 64.94,147.03 60.08,156.88 C51.21,174.88 50.77,192.33 61.08,209.78 C61.76,210.93 62.17,212.52 63.71,212.44 C65.25,212.36 65.02,210.75 65.29,209.67 C69.54,192.75 79.29,178.93 89.83,165.46 C93.56,160.68 98.14,156.46 99.22,149.85 C105.11,113.99 123.4,86.17 153.84,66.33 C155.32,65.33 157.08,64.73 158.34,62.41 C149.73,64.06 143.03,69.11 135,71.94 C135.37,71 135.41,70.62 135.62,70.43 C136.62,69.54 137.62,68.67 138.67,67.86 C153.88,56.08 171.5,50.52 190.23,47.74 C191.93,47.49 194.74,48.22 195.03,46.21 C195.39,43.72 192.3,43.69 190.63,43.1 C169.7,35.72 148.92,36.58 128.76,45.61 C98.52,59.17 75,81.07 55,107 C46.67,117.84 39.06,129.29 36.18,143 C33.78,154.5 34.95,165.55 41.18,175.79 C41.79,176.79 42.42,178.05 43.72,177.87 C45.23,177.67 44.87,176.11 45.18,175.05 C46.11,171.86 47.03,168.67 48.05,165.51 C52.29,152.35 59.82,140.09 60.51,125.3 L60.53,125.3 Z M365.07,400.56 C364.07,402.51 362.9,404.45 362.07,406.51 C361.4,408.17 361.25,410.42 363.95,409.65 C369.74,407.98 375.23,404.59 377.37,399.26 C378.83,395.62 377.69,390.39 374.58,386.44 C361.69,370.1 348.68,353.84 336.19,337.19 C319.49,314.92 300.9,294.19 283.62,272.44 C282.57,271.12 281.53,269.49 279.68,271.39 C275.225338,276.225871 274.830933,283.543332 278.74,288.83 C293.326667,308.69 307.913333,328.55 322.5,348.41 C324.76,351.5 327.15,354.54 328.23,358.41 C325.732475,356.232757 323.448759,353.821796 321.41,351.21 C310.123333,336.583333 298.87,321.916667 287.65,307.21 C283.2,301.39 278.76,295.56 274.26,289.78 C273.53,288.85 272.82,287.03 271.2,288.28 C269.76,289.4 270.94,290.7 271.59,291.82 C271.92,292.39 272.42,292.82 272.8,293.4 C298.6,329.63 326.23,364.47 353.21,399.81 C357.38,405.27 357.4,405.24 362.46,400.96 C362.751879,400.559261 363.191664,400.291629 363.681709,400.216527 C364.171754,400.141424 364.671504,400.265066 365.07,400.56 Z M74.2,72.86 C84.2,64.6 94.32,56.44 105.1,49.22 C125.63,35.49 147.82,26.93 173,28.1 C178.982211,28.4822143 184.930184,29.2841882 190.8,30.5 C191.74,30.67 192.87,31.28 193.54,30.25 C194.21,29.22 193.31,28.37 192.69,27.62 C191.965058,26.7086499 191.169249,25.8559973 190.31,25.07 C175.55,11.71 158.61,9.22 140.08,15.22 C126.63,19.59 115.72,28.06 105.33,37.28 C93.5,47.8 82.63,59.21 74.2,72.86 Z M35.67,122.45 C40.89,113.25 49.1,105.83 52.61,96.2 C59.45,77.42 70.75,61.85 84,47.51 C89.12,41.96 88.94,35.81 89.82,28.89 C88.71,29.47 88.11,29.58 87.9,29.89 C81.15,41.13 71.7,50.09 62.9,59.65 C50.64,73.05 40.52,87.74 36.16,105.73 C34.88,111.19 34.13,116.68 35.67,122.45 Z M72.24,247.52 C74.73,258.52 83.24,266 93.73,266.33 C107.03,266.75 117.98,261.41 126.89,251.74 C137.43,240.3 145.57,227.11 154.15,214.25 C154.34,213.96 154.15,213.44 154.15,212.79 C151.15,214.29 149.41,216.79 147.36,218.93 C136.98,229.69 127.82,241.65 116.15,251.17 C103.85,261.17 89.15,261 77,250.78 C75.66,249.63 74.68,247.91 72.24,247.52 Z M210.78,61.29 C173.46,55.79 128.17,89.71 118.26,122.5 C140,88.31 170.42,67.34 210.78,61.29 Z M239.4,312.47 C247.214548,311.173431 254.838968,308.916334 262.1,305.75 C268.77,302.88 268.91,302.16 264.34,296.26 C262.92,294.42 261.44,292.62 260.11,290.73 C257.74,287.35 255.01,287.33 253.04,290.66 C248.909898,297.471411 243.944759,303.739984 238.26,309.32 C237.56,310.02 236.7,310.91 237.44,311.88 C237.83,312.38 238.91,312.34 239.4,312.47 Z M302.89,254 C303.1,251.12 302.4,250.39 299.89,251.26 C296.892435,252.231545 293.973863,253.431737 291.16,254.85 C284.56,258.34 284.44,259.24 289,265.06 C290.54,267.06 292,269.06 293.59,270.95 C295.18,272.84 296.45,272.83 297.59,270.42 C300.18,265.11 301.44,259.45 302.89,254 Z M279.89,116.35 C279.238113,123.123067 277.385894,129.726041 274.42,135.85 C272.9,138.97 268.09,142.58 270.29,144.85 C272.21,146.85 276.98,142.85 280.53,141.7 C282.53,141.02 284.72,140.19 284.99,137.56 C285.78,129.93 284.89,122.72 279.92,116.3 L279.89,116.35 Z M111.48,20.68 L110.71,19.52 C107.3,20.11 103.88,20.71 100.46,21.29 C98.81,21.57 97.57,22.29 97.56,24.13 C97.56,26.61 96.56,29.13 97.56,31.52 C97.79,32.06 98.74,31.99 99.32,31.47 L111.48,20.68 Z M308.48,262.62 C313.17,258.62 315.16,253.28 317.34,248.02 C317.75,247.02 318.59,245.74 317.34,244.83 C316.09,243.92 315.14,244.9 314.1,245.37 C312.503354,245.949777 311.33204,247.330254 311.02,249 C310.23,253.55 309.35,258.08 308.49,262.62 L308.48,262.62 Z" id="Shape" fill="#474747"></path>
            <path d="M351.32,219.17 C353.32,199.3 349.02,182.32 337.07,167.25 C351.3,168.26 361.56,203.78 351.32,219.17 Z" id="Shape" fill="#474747"></path>
            <path d="M363.87,218.13 C365.58,202.13 360.38,187.57 353.15,172.75 C365.65,178.38 371.75,205.57 363.87,218.13 Z" id="Shape" fill="#474747"></path>
            <path d="M8.61,96.48 C4.6043067,111.002066 3.27264639,126.131489 4.68,141.13 C-1.34,133.18 0.68,109.79 8.61,96.48 Z" id="Shape" fill="#474747"></path>
            <path d="M20.81,85.53 C15.42,99.09 12.93,113.33 10.9,127.96 C6.83,120.39 13.2,92.86 20.81,85.53 Z" id="Shape" fill="#474747"></path>
            <path d="M282.77,190.32 C280.77,192.66 281.62,195.26 279.46,196.32 C276.46,190.68 279.15,179.49 285.02,174.03 C284.84,181.03 287.51,186.54 291.02,192.13 C294.95,198.43 293.75,205.77 292.37,212.84 C290.44,209.34 290.15,205.47 289.37,201.73 C289.11,200.48 289.74,197.67 286.74,200.06 C285.16,201.32 284.94,199.28 284.67,198.34 C284,195.93 283.5,193.53 282.77,190.32 Z" id="Shape" fill="#474747"></path>
            <path d="M228.14,101.28 C214.95,109.18 203.14,118.95 190.76,127.84 C185.86,131.36 180.43,134.02 174.13,133.95 C171.38,133.95 169.55,135.76 167.39,136.95 C161.54,140.17 156.2,144.5 149.06,145.11 C164.12,135 176.77,121.55 193.54,113.83 C191.79,117.83 187.46,119.49 184.81,124.59 C200.84,117.69 212.43,105.63 228.14,101.28 Z" id="Shape" fill="#474747"></path>
            <path d="M78.63,162.46 C75.38,150.12 54.63,172.6 60.78,181.31 C68.74,192.54 80.58,169.85 78.63,162.46 Z" id="Shape" fill="#F4DDEA"></path>
            <path d="M80.5,135.47 C74.5,135.47 74.5,144.82 80.5,144.82 C86.5,144.82 86.53,135.47 80.5,135.47 Z" id="Shape" fill="#F4DDEA"></path>
            <path d="M188.48,153.33 C161.32,160.73 127.86,159.21 104.78,176.57 C94.18,184.57 85.21,194.75 81.78,207.77 C79.69,215.77 77.6,235.13 92.07,231.27 C99.62,229.27 102.59,213.69 106.29,207.84 C114.59,194.75 125.29,185.52 139.84,180.13 C150.76,176.13 162.48,174.66 173.47,170.86 C176.89,169.68 190.3,165.58 192.07,161.86 C193.53,158.82 195.85,151.32 188.48,153.33 Z" id="Shape" fill="#EAB9E5"></path>
            <path d="M216.67,140.33 C212.79,140.51 204.77,142.45 208.03,148.77 C214.66,161.59 227.92,139.82 216.67,140.33 Z" id="Shape" fill="#EAB9E5"></path>
            <path d="M252.43,200.55 C250.36,200.55 247.43,204.55 246.71,209.43 C245.14,220.65 247.09,231.96 241.71,242.51 C236.71,252.39 225.49,256.51 215.19,258.35 C211.39,259.02 196.74,258.59 200.26,269.69 C203.62,277.55 213.54,281.69 224.54,279.02 C252.32,272.18 257.87,254.51 257.71,228.42 C257.71,223.75 259.54,200.52 253.25,200.66 C252.980325,200.599899 252.705981,200.563097 252.43,200.55 Z" id="Shape" fill="#E6FDFF"></path>
            <path d="M190.65,275.93 C190.42294,275.537964 190.136165,275.183713 189.8,274.88 C189.58595,273.020613 188.264355,271.477433 186.46,270.98 C183.734633,270.266167 180.85014,271.293792 179.19,273.57 C177.430143,275.757843 177.234051,278.815267 178.7,281.21 C180.049227,283.259026 182.391243,284.430034 184.84,284.28 C186.085909,284.225712 187.295951,283.846496 188.35,283.18 C189.643637,282.294776 190.615528,281.014125 191.12,279.53 C191.454134,278.315644 191.284702,277.017869 190.65,275.93 Z" id="Shape" fill="#E6FDFF"></path>
        </g>
    </g>
</svg>