<svg id="Layer_1" data-name="Layer 1" xmlns="http://www.w3.org/2000/svg" width="607.64" height="383.51" viewBox="0 0 608 384"><title>cruelty-free</title><g id="Layer_2" data-name="Layer 2"><g style="opacity:0.12"><path d="M428.25,151.35s60.54,13,60.54,14.78-6.06,9.44,4.14,9.76,67.47,3,67.47,3,9.78,3.63,8.82,12.57-6.69,15.83,2.23,22.58,1.91,16.63-4.14,16.63h-83l-21.74,10.52-27.7,2.55-18.11,6.37h-2.87c-1.59,0-9.56-2.55-9.56-2.55S392.56,229,392.56,219.83s.64-36.3,4.14-39.48,8.29-12.43,12.11-11.79,17.66-1,16.64-5.78S420.14,149.59,428.25,151.35Z" transform="translate(0.05 -0.03)" style="fill:#6a374f;stroke:#6a374f;stroke-linecap:round;stroke-linejoin:round;stroke-width:20px"/><path d="M28.83,225.82l41.3-21.36,16.72-11.55,34.89-51.73,8.85-5.6,22.22-11.23L164,115.51l15.77-4.07,18.41-8.84s7.46-3.86,8.15-1.81a17.87,17.87,0,0,1,0,9.46c-1,3.82-5.53,11.71-5.53,11.71l-8.6,9.32-12.66,7.89-13.86,17.44L223.31,159l71.21-.48,26.05,5.5s5.5,3.58,5,8.36-6,8.65-6,8.65l-42,5,45.38.24s24.63,1.44,25,3.83,1.53,9.52,1.53,9.52l-10.28,8.11-29.87,3.87-18.88,3.59,41.1-3.35s6,1.68,6.22,3.59,0,8.82,0,8.82-5.21,6-7.38,6.23-23.91,2.39-23.91,2.39l-19.12,6.93s12.56-1.06,13.86,0,1.17,9.53-1.44,11.46-12.66,6.94-12.66,6.94l-46.36,8.61L219,273l-12.43,4.54-45.41,6-30.82-1.67-26-7.87-10.75.71-46.84,16.2s-2.39-3.1,11.47-12.9,8.36-17.13,3.34-18-17.2-4.47-19.11-13.55S35.1,223.34,28.83,225.82Z" transform="translate(0.05 -0.03)" style="fill:#6a374f;stroke:#6a374f;stroke-linecap:round;stroke-linejoin:round;stroke-width:10px"/><path d="M460,234.52s-10.62,5.49-14.69,0-7.4-14.69-7.4-14.69-15.78-6.27-16.73-12.28a37.62,37.62,0,0,1,0-11.31s.24-5.82,3.58-6.6,14.5-1.49,15.62-4.59,13.48-10.89,13.48-10.89l10.43,3.48s12.79,12.49,2.34,21.56,9.2,22.74-.81,29.84S460,234.52,460,234.52Z" transform="translate(0.05 -0.03)" style="fill:#6a374f;stroke:#6a374f;stroke-linecap:round;stroke-linejoin:round;stroke-width:24px"/><path d="M288.89,246.09s.24,3.46,1.8,4.18,6.69,2.39,9.08,1,2.75-10.4,2.75-10.4-.84-5.81-3.65-2.78S288.48,244,288.89,246.09Z" transform="translate(0.05 -0.03)" style="fill:#6a374f;stroke:#6a374f;stroke-linecap:round;stroke-linejoin:round;stroke-width:24px"/><path d="M323.19,221.35s.95-7.16,2.74-7.4,11.83,0,11.83,0v10.27s-5.44,2.83-10.63,1S323.07,222.09,323.19,221.35Z" transform="translate(0.05 -0.03)" style="fill:#6a374f;stroke:#6a374f;stroke-linecap:round;stroke-linejoin:round;stroke-width:24px"/><path d="M330.38,197.7s-.18,6.31,3.56,7.74,11.23-1,11.23-1l-1.19-13Z" transform="translate(0.05 -0.03)" style="fill:#6a374f;stroke:#6a374f;stroke-linecap:round;stroke-linejoin:round;stroke-width:24px"/><path d="M302.4,176.67s1.43-6.46,12.26-10.54c0,0,3.69,1.34,3.72,4.32s-.64,9.56-.64,9.56S302.4,186.7,302.4,176.67Z" transform="translate(0.05 -0.03)" style="fill:#6a374f;stroke:#6a374f;stroke-linecap:round;stroke-linejoin:round;stroke-width:24px"/><path d="M199.52,100.79a7.73,7.73,0,0,1,6.57,4.5c1.91,4.37-6.57,7.69-6.57,7.69H190.8c-5,0-4.68-5.26-4.68-5.26Z" transform="translate(0.05 -0.03)" style="fill:#6a374f;stroke:#6a374f;stroke-linecap:round;stroke-linejoin:round;stroke-width:24px"/><path d="M31.85,295.4a39.19,39.19,0,0,1,8.62-4.29c13.3-4.94,26.16-11,39.78-15.1l7.8-2.35a42.87,42.87,0,0,1,25.42.09c6.14,1.85,12.14,4.16,18.42,5.53a105.28,105.28,0,0,0,35.36,1.32c11.3-1.38,22.55-3.21,33.88-4.44A34.58,34.58,0,0,0,212.88,273c9.18-4.53,19.18-6.28,28.9-9,9.21-2.57,18.7-3.37,28.13-4.55,8.13-1,15.95-3.27,23.74-5.71a10.59,10.59,0,0,0,6.39-5.07,6,6,0,0,0-.18-6.43,1.69,1.69,0,0,0-1.05-.76c-2.51-.62-7.09,1-8.61,3-1.89,2.55-1.26,4.69,1.71,5.83.68.26,1.47.34,1.88,1.09a5.71,5.71,0,0,1-6.3-2c-2.22-3.08-.46-5.46,2.05-8-5.32,1.14-10.06,2.32-15,2.72-13.91,1.13-27.85,1.89-41.68,3.91-5.71.84-11.14,2.66-16.62,4.35-.49.16-.93.53-1.5.32.69-1.32,4.57-4.27,7.4-5.75,4.23-2.22,8.86-2.84,13.47-3.68a225.49,225.49,0,0,1,34.9-3.15A61.38,61.38,0,0,0,294.09,235c7.17-3.16,14.83-3.9,22.52-4.59,3.45-.31,6.89-.81,10.32-1.34a15.88,15.88,0,0,0,6.15-2.16c.39-.24,2.33-.34.45-1.6-.75-.51.39-1,.87-1,1.81-.27,1.82-1.44,1.57-2.82-.16-.89-.2-1.81-.43-2.68-.46-1.82-.73-4-2.9-4.48-2.53-.6-5.1-.63-7.12,1.59a5.34,5.34,0,0,0,2.21,8.94c.53.18,1.48,0,1.43.79s-1,.7-1.64.68c-2.6-.08-5-.7-6.29-3.25s-.32-5,1.4-7.1c.4-.49,1.32-.88,1-1.6s-1.23-.33-1.87-.32A93.76,93.76,0,0,0,306,215.73,121,121,0,0,1,274,218c-8.75-.67-17.44,1.15-26.12,2.24-9.88,1.23-19.75,2.58-29.52,4.56a2.58,2.58,0,0,1-.68,0c-.11-.88.63-.92,1.09-1.18a51.32,51.32,0,0,1,19-6.19c12.73-1.56,25.47-3.37,38.31-3.45a138.76,138.76,0,0,0,26.75-2.52,181.19,181.19,0,0,1,21.53-2.83,61.24,61.24,0,0,0,10.09-1.3,19.73,19.73,0,0,0,7.3-2.92c.48-.36,1.09-.63,1.19-1.29a18.78,18.78,0,0,0-.39-9A1.35,1.35,0,0,0,341,193l-.15,0c-2.89.62-5.73,1.36-7.93,3.55-2.59,2.58-2.75,4.4-.62,7.36.29.41.91.6.87,1.25a3.78,3.78,0,0,1-4.59-2.72c0-.15-.06-.29-.08-.44a7.33,7.33,0,0,1,1.3-6.42,21,21,0,0,1,7.73-6.11,38.77,38.77,0,0,0-9.41-1.13q-21-.51-42.09-.86a150.62,150.62,0,0,0-21,1.55,107.88,107.88,0,0,1-12.18.85c-4,.06-8,.17-12,.58-10,1-19.87,1.53-29.59-1.59-1.11-.36-2.38-.1-4-1.21,4-.24,7.32-.76,10.64-.58,8.56.44,17-.39,25.5-1.33,5.71-.63,11.47-.13,17.2-.18,4.06,0,4.11-.07,4.67-4.07.46-3.35,1.15-6.71.15-10.1a8.37,8.37,0,0,1,.1-2,10.23,10.23,0,0,1,2.07,6.53,29.23,29.23,0,0,1-1,7.38c-.27.88-.27,1.61.95,1.28,10.83-2.91,21.94-2.93,33-3.26a5.11,5.11,0,0,0,1.09-.27c-1.35-1.74-2.31-3.45-1.58-5.62a10.38,10.38,0,0,1,4.36-5c.52-.35,1.18-1.06,1.8-.49s-.16,1.19-.51,1.71-.93,1.2-1.32,1.84c-.82,1.36-1.88,2.92-.83,4.4,1.15,1.63,2.68,3.09,5.08,2.71,1.26-.2,2.55-.22,3.82-.43,3.12-.51,3.76-1.23,4.05-4.41a24.2,24.2,0,0,0-.31-5.64c-.23-1.56-.51-3.07-2.73-2.59-.4.08-1,0-1-.58,0-.26.42-.59.72-.76,2.23-1.28,4.11-.66,5.19,1.7,1.17,2.56,1.15,5.27.95,8-.05.73-.48,1.45-.11,2.2,4.38-1.51,5.25-7.79,1.51-11.16a17,17,0,0,0-7.48-3.59,106.21,106.21,0,0,0-17-2.65c-19.22-1.54-38.45-1.16-57.68-.18a359.48,359.48,0,0,1-45-.84c-10.08-.77-20.2-1-30.3-1.33a70.61,70.61,0,0,0-15.76,1.23,3,3,0,0,1-2.08,0c.27-1.14,1.32-1.35,2.14-1.75a38.49,38.49,0,0,1,13.59-4,7.43,7.43,0,0,0,4.56-2.11,83.21,83.21,0,0,0,7-7.42,50.81,50.81,0,0,1,13.5-11.23A42.3,42.3,0,0,0,205,111a12.41,12.41,0,0,0,1-6.42c-.18-1.16-.43-2.37-1.9-2.69-.08.25-.19.42-.15.49.72,1,2.08,2.31,1.09,3.32s-2.11-.58-3-1.22a3.84,3.84,0,0,0-4.77-.18c-2.51,1.52-5.16,2.82-7.74,4.23-.49.28-1.28.42-1.17,1.19s.77.91,1.32,1.13a14.15,14.15,0,0,0,8.16,1.2,3.71,3.71,0,0,1,2.21-.15c-2.35,4.06-10.61,4.49-13.59.59-1-1.28-1.64-1.59-3.08-.73-2.67,1.6-5.7,2.36-8.67,3.23-1.74.51-3.46,1.07-5.16,1.7-1.11.41-2.83.54-3.06,1.61s1.52,1.58,2.35,2.38a18,18,0,0,1,4,5.78c-2.58-.72-4.25-2.22-6.1-3.34-1.16-.7-2.21-1.56-3.34-2.32a1,1,0,0,0-1.41,0l0,0c-.52.54,0,1,.25,1.39a24.2,24.2,0,0,0,5,5.77c-3.18-.3-4.69-2.16-6.11-3.93-1.12-1.4-1.91-1.44-3.25-.34a90.91,90.91,0,0,1-22,12.91A31.51,31.51,0,0,0,122.7,147c-7.77,10.5-14.8,21.5-22.18,32.27q-4.93,7.18-10.3,14.06a51.41,51.41,0,0,1-18,14.42c-13.23,6.6-26.8,12.5-39.77,19.64A62.61,62.61,0,0,1,24,230.73c-.62.23-1.57.89-2-.06-.28-.67.7-1,1.24-1.39,6-3.7,11.87-7.5,17.93-11,9.66-5.6,19.25-11.35,29.37-16.1,7.14-3.36,12.35-8.79,17-15,8.43-11.23,16-23.08,24.13-34.51,1.66-2.33,3.36-4.64,5-7A44.46,44.46,0,0,1,135,131a103.76,103.76,0,0,0,21.77-12.86c5-3.9,10.54-6.75,17-7.34a3.12,3.12,0,0,0,.44-.09c6.72-1.42,6.8-1.54,7.09-8.27.53-11.74,2.08-23.3,6.21-34.39,7.1-19,20.53-32,39.27-39.23C255.45,17.76,283,20,308.84,37.21,317.8,43.12,325,51,332,59.1c5,5.78,9.6,11.84,14.28,17.85,1.23,1.58,1.82,1.6,3.1,0,9.16-11.61,18.27-23.3,29.28-33.26,17.88-16.15,39.13-22.74,63-21.26a85.65,85.65,0,0,1,34.62,9.74C495.64,42.3,507,58.44,511.48,79.56c4.39,20.72,3.75,41.55.74,62.38a161.68,161.68,0,0,1-7.07,29c-.74,2.17,0,2.86,1.93,3.17,4,.65,27.34,1.06,31.41,1.3,9,.52,18.06,1.37,27.12,1.19,4.91-.1,9.76.81,14.76.44-.32,1.06-1,.89-1.57,1-15.68,1.81-50.67,2.57-66.45,2.29-1.36,0-2.71-.12-4.07-.16A15.42,15.42,0,0,1,496,173.86a18.25,18.25,0,0,0-6.11-5.45c1.11,3.57,2.33,7-.65,9.77s-6.16.71-9.41-.83c.67,3.44,3.21,5.21,5.35,7.68-6.05-1.31-10.91-7.87-10.67-14.17.08-1.89-.42-2.67-2.21-3.12-12-3-24-5.58-36.39-5.24-.51,0-1.18-.2-1.48.28-.43.69.38,1,.67,1.5.2.32.47.6.69.9,4.94,6.88,1.89,13.88-6.58,15a19.57,19.57,0,0,1-13.62-3.06,4,4,0,0,0-2.08-1.07c-.06,1.44.86,2.17,1.85,2.85a12.78,12.78,0,0,1,3.61,3.38c.41.63.88,1.38.36,2.1s-1.39.52-2.1.27c-2.05-.74-4.06-1.61-6.12-2.33a7,7,0,0,0-3.52-.65c-.19.65.39.75.69,1,4.36,3.31,5.87,8,5.79,13.14-.07,4-2.75,6.34-6.12,8-.85.42-1.89.46-2.79,1.39,3.21,2,7.31,2.6,9.59,6.19-1.59.55-2.78-.67-4.35-.33,2.31,2.7,5.73,4.93,4.26,9.13-1.36,3.9-5,5-9,6.33,3.53.7,6.43,1.83,9-1.16.81-.94,2.23-2.55,3.33-1.57s-.92,2-1.36,3.11a8.8,8.8,0,0,0-1.2,2.92c5.88-3.33,11.68-4.41,16.52,1.26a9.79,9.79,0,0,1,.25,12c-2.91,4-7.71,5-14.91,2.76a4.64,4.64,0,0,0,2.31,1.39c5.68,1.81,11.13,1.09,15.58-2.73,3.94-3.39,8.26-4,13.05-3.76a54.09,54.09,0,0,0,16.63-1.25A46.31,46.31,0,0,0,477.7,234c5.76-3.55,11.81-6.39,18.59-7.4a34.19,34.19,0,0,1,6.55-.35c13,.65,44.87-2.05,57.39-5.22.84-.21,1.63-.88,2.9-.31-4.78,2.83-10,4-14.91,5.87a85.15,85.15,0,0,0,25.95-5.86c-3,3.16-7.2,4.46-10.79,6.83,10.13.56,20.13,1.95,30.21,2.75-2,.88-4.07.61-6.08.86a335.77,335.77,0,0,1-47.66,2.09c-5.66-.11-30.58-.2-36.23-.41A35.21,35.21,0,0,0,485,237.54c-4.87,2.7-9.54,5.83-15,7.44a3.85,3.85,0,0,0-2,1.79c-21.93,32.41-49.17,60.07-77.62,86.63-10.48,9.79-21.26,19.24-32.45,28.22a82.6,82.6,0,0,0-7.05,6.7c-1.67,1.7-3.09,1.53-4.87.08-8.44-6.84-16.92-13.63-25.11-20.78A756.07,756.07,0,0,1,259.05,287c-5-5.52-9.67-11.38-14.4-17.16a3,3,0,0,0-3.49-1.2c-10.27,2.76-20.69,5-30.25,9.94a36,36,0,0,1-12.28,3.79c-11.6,1.46-23.1,3.73-34.76,4.73-15.28,1.3-30.39.32-44.82-5.26a50.22,50.22,0,0,0-36.43-.34c-10.22,3.66-20.64,6.79-30.9,10.37C45.28,294.07,38.59,294.73,31.85,295.4ZM169.68,153.27l14.55.51c1.24,0,1.29-.73,1.11-1.67-.62-3.25-1.24-6.51-1.83-9.78-.19-1.09-.6-1.52-1.63-.79C177.36,144.72,174.13,149.19,169.68,153.27ZM347,199.91c1.92-2.94,1.13-6.08-1.7-7.33C345.86,195,346.4,197.35,347,199.91Z" transform="translate(0.05 -0.03)" style="fill:#6a374f;stroke:#6a374f;stroke-linecap:round;stroke-linejoin:round;stroke-width:28px"/><path d="M471.47,185.6c-1.69-.62-2.46-2.33-4.35-2.56,1.05,2.67,4.07,4.08,4.35,7.66-3.81-3.67-6.89-7.24-10.79-10-5.18-3.63-11.05-2.57-14,2.91-1.85,3.39-4.25,5.74-8.25,6.28a62.67,62.67,0,0,0-7.3,1.53c-7.27,1.87-10.19,9.15-6.28,15.59a19,19,0,0,0,7.21,6.71c1.32.73,2.68,1.38,4,2a9,9,0,0,1,4.78,5.46,43.67,43.67,0,0,0,3.39,7.39c2.08,3.73,4.86,4.83,8.95,3.68a21.73,21.73,0,0,0,11.66-8.47c.78-1.06,1.3-2.38,2.84-3,.21,2.24-.7,4.18-1,6.17.77.36,1-.63,1.79-.43a5.26,5.26,0,0,1-.9,3.33c-4.19,7.48-13.9,12.42-23.27,7.24-4.33-2.39-6.62-6.29-7.39-11.08a4,4,0,0,0-2.55-3.37c-3.78-1.71-7.56-3.45-10.67-6.3-5.86-5.37-9-11.74-6.9-19.81,2.25-8.63,9.26-13.09,18-11.44,2.23.42,3.32-.19,4.22-2.15,1.72-3.72,3.85-7.14,7.43-9.49,3-2,6.13-2.89,9.65-2,6.67,1.7,12,5.1,14.86,11.71a13.31,13.31,0,0,1,.55,1.49A3,3,0,0,1,471.47,185.6Z" transform="translate(0.05 -0.03)" style="fill:#6a374f;stroke:#6a374f;stroke-linecap:round;stroke-linejoin:round;stroke-width:24px"/><path d="M527.51,223.43c6.45-1.2,21.88-2.51,28-4.9s12.08-4.54,18-8.29C569.09,217.43,536.09,225.85,527.51,223.43Z" transform="translate(0.05 -0.03)" style="fill:#6a374f;stroke:#6a374f;stroke-linecap:round;stroke-linejoin:round;stroke-width:24px"/><path d="M481.18,204.46a10.24,10.24,0,0,1-4.64,2.08c-7.28,2-13.75,5.64-20,9.74-.74.49-1.68,1.7-2.47.7-.68-.85.49-1.76,1.12-2.44A28.23,28.23,0,0,1,470.74,206C474.18,205.32,477.6,204.43,481.18,204.46Z" transform="translate(0.05 -0.03)" style="fill:#6a374f;stroke:#6a374f;stroke-linecap:round;stroke-linejoin:round;stroke-width:24px"/><path d="M456.74,222.65c-.81.11-1.21.1-1.45-.24a1,1,0,0,1,.23-1.2c2.49-2.84,5.19-5.42,8.83-6.77.75-.28,1.73-.73,2.27.09s-.48,1.31-1,1.74c-2,1.79-4.08,3.54-6.24,5.16A11.11,11.11,0,0,1,456.74,222.65Z" transform="translate(0.05 -0.03)" style="fill:#6a374f;stroke:#6a374f;stroke-linecap:round;stroke-linejoin:round;stroke-width:24px"/><path d="M468.88,195.23c-3-3.25-6.25-6.13-8.54-9.86-.22-.37-.57-.81-.12-1.21a.83.83,0,0,1,.81,0c3.5,2.06,6.54,4.59,8.09,8.49A2.55,2.55,0,0,1,468.88,195.23Z" transform="translate(0.05 -0.03)" style="fill:#6a374f;stroke:#6a374f;stroke-linecap:round;stroke-linejoin:round;stroke-width:24px"/><path d="M456.85,229a.88.88,0,0,1-.56-.27.78.78,0,0,1,.13-1q3.79-4.46,7.6-8.89c.25-.29.58-.58,1-.37.18.11.27.49.29.76C465.49,222,459.71,228.89,456.85,229Z" transform="translate(0.05 -0.03)" style="fill:#6a374f;stroke:#6a374f;stroke-linecap:round;stroke-linejoin:round;stroke-width:24px"/><path d="M262.19,181a26.72,26.72,0,0,1-2.85-12,1.07,1.07,0,0,1,.6-1.13c.62-.23,1,.27,1.25.71a3.43,3.43,0,0,1,.6,1.21C262.34,173.36,263.2,176.91,262.19,181Z" transform="translate(0.05 -0.03)" style="fill:#6a374f;stroke:#6a374f;stroke-linecap:round;stroke-linejoin:round;stroke-width:24px"/><path d="M468.43,198.43c0,.61,0,1-.38,1.2a1.22,1.22,0,0,1-1.42-.43c-1.47-1.52-2.88-3.09-4.3-4.64a9.6,9.6,0,0,1-.86-1.05c-.43-.65-1.76-1.11-1.18-1.9s1.64,0,2.42.36a11.79,11.79,0,0,1,5.08,5C468.07,197.51,468.28,198.07,468.43,198.43Z" transform="translate(0.05 -0.03)" style="fill:#6a374f;stroke:#6a374f;stroke-linecap:round;stroke-linejoin:round;stroke-width:24px"/><path d="M466.15,205a30,30,0,0,1-9.32,5.12c-.43.13-1,.17-1.23-.27-.34-.64.09-1.18.57-1.56A13.91,13.91,0,0,1,466.15,205Z" transform="translate(0.05 -0.03)" style="fill:#6a374f;stroke:#6a374f;stroke-linecap:round;stroke-linejoin:round;stroke-width:24px"/><path d="M277.32,237.82a4.58,4.58,0,0,1-1-3.75c.26-2.31.56-4.61.87-6.92.09-.63-.06-1.68.7-1.71,1-.05,1.06,1.07,1.22,1.84C279.6,229.52,278.63,235.32,277.32,237.82Z" transform="translate(0.05 -0.03)" style="fill:#6a374f;stroke:#6a374f;stroke-linecap:round;stroke-linejoin:round;stroke-width:24px"/><path d="M280,201.93V206c0,.6.46,1.57-.48,1.7-.73.1-1-.8-1.24-1.43a12,12,0,0,1-.6-4.45,23.91,23.91,0,0,1,.69-4.91c.13-.65,0-1.84,1-1.68.83.14.64,1.24.65,2V202Z" transform="translate(0.05 -0.03)" style="fill:#6a374f;stroke:#6a374f;stroke-linecap:round;stroke-linejoin:round;stroke-width:24px"/><path d="M282.78,207.61c.56-5,1.06-9.83-1-14.7C285.93,194.77,286.5,204.54,282.78,207.61Z" transform="translate(0.05 -0.03)" style="fill:#6a374f;stroke:#6a374f;stroke-linecap:round;stroke-linejoin:round;stroke-width:24px"/><path d="M249.08,260c-1.89-3.67-1.1-6.77-.09-9.86a.74.74,0,0,1,.87-.56c.61.18.66.76.71,1.28A19.88,19.88,0,0,1,249.08,260Z" transform="translate(0.05 -0.03)" style="fill:#6a374f;stroke:#6a374f;stroke-linecap:round;stroke-linejoin:round;stroke-width:24px"/><path d="M463,200.07c1,.31,2.69-.32,2.85,1.08.1.93-1.56.86-2.45,1.09a53.57,53.57,0,0,1-5.32,1c-.71.11-1.68.35-1.91-.64-.19-.84.71-1,1.32-1.27A25.32,25.32,0,0,1,463,200.07Z" transform="translate(0.05 -0.03)" style="fill:#6a374f;stroke:#6a374f;stroke-linecap:round;stroke-linejoin:round;stroke-width:24px"/><path d="M316.39,204.23c.47-3.07.06-6.2.58-9.27C317.8,198.12,318.21,201.25,316.39,204.23Z" transform="translate(0.05 -0.03)" style="fill:#6a374f;stroke:#6a374f;stroke-linecap:round;stroke-linejoin:round;stroke-width:24px"/><path d="M273.52,248.66c1.21,2.36,1.37,4.09.2,6.26C272.48,252.85,272.62,251.09,273.52,248.66Z" transform="translate(0.05 -0.03)" style="fill:#6a374f;stroke:#6a374f;stroke-linecap:round;stroke-linejoin:round;stroke-width:24px"/><path d="M410.84,231h-5.71c-8.4-.23-15.89-2.24-20-10.54-.38-.76-1-.78-1.7-.81a31,31,0,0,1-3.6-.3c-1.12-.2-2.27-.56-2.43-2-.14-1.25.71-1.9,1.66-2.46a3.43,3.43,0,0,1,1-.53c3.67-.64,6.31-2.79,8.46-5.69a.62.62,0,0,1,.18-.14c1.47-.92,1-1.5-.28-2.13a11.13,11.13,0,0,1-5.73-5.88c-1-2.79-2.34-4.63-5.39-5.08a1.84,1.84,0,0,1-1.61-1.93c0-1.09.87-1.52,1.79-1.76a16.56,16.56,0,0,1,2.87-.65,2.73,2.73,0,0,0,2.52-1.87,19.55,19.55,0,0,1,7.37-8.38A31.5,31.5,0,0,1,406.93,176c3.1-.09,2.94,0,2.94-3.17,0-2-.48-3.32-2.47-3.92a3.54,3.54,0,0,1-1.09-.79c-.91-.8-2-1.59-1.52-3a2.42,2.42,0,0,1,2.95-1.55,8.76,8.76,0,0,0,8.45-2.83,6.54,6.54,0,0,1,1.73-1.06c5.81-3.2,12.13-4.06,18.62-3.84,13.53.46,26.89,2.06,39.79,6.44a2.57,2.57,0,0,0,3-.57,7.89,7.89,0,0,1,7.33-2,19.73,19.73,0,0,1,11.12,6.5c1.92,2.07,2,2,2.77-.55a176.64,176.64,0,0,0,5.9-79.9c-3.87-24.59-16.92-42.17-40.56-50.94-25.69-9.52-50.41-7.46-73.57,7.71-9.76,6.39-17.37,15.14-24.81,24A213.81,213.81,0,0,0,351.9,87c-2,3.06-2.77,3-5,.28-3.28-4-6.56-8.08-9.79-12.16a250.23,250.23,0,0,0-17.9-20.73c-23.69-24-51.84-30.74-83.87-20.88-15.44,4.75-28,13.7-36.1,28.09-7.07,12.57-9.06,26.42-9.91,40.53-.1,1.67.75,1.29,1.64.69a38.88,38.88,0,0,1,9.74-4.74c5.06-1.61,9.06.61,10.32,5.78a17,17,0,0,1,0,7.64c-2.47,11-8.76,19.21-18.44,24.85-1.39.82-2,1.62-1.64,3.21.85,4.14,1.65,8.29,2.37,12.45.27,1.54,1,2.07,2.57,2.19,16.19,1.31,32.39,2,48.62,1,21.68-1.35,43.3-.12,64.88,1.85,5.75.53,11.35,2,15.77,6.1,5.7,5.31,5.15,12.46-1.18,17a7.33,7.33,0,0,0-2.77,2.35c4.26,0,8.11-.18,11.94,0,5.36.31,10.72.88,15.49,3.68,8.11,4.76,9,14.57,1.83,20.7a24.31,24.31,0,0,1-7.44,4.23c-1.31.49-1.74,1-.54,2.17a8.78,8.78,0,0,1,2.49,5c.8,4.77-1.77,9.66-6.84,12.77a31.89,31.89,0,0,1-12.76,4.4c-6.13.77-12.3,1.33-18.45,2-1.23.13-2,.29-1.06,1.9,3.07,5.32,2.09,11.2-2.4,15.42A21.9,21.9,0,0,1,293.34,260c-6.09,1.45-12.18,3-18.35,4-6.77,1.1-13.63,1.68-20.45,2.45-1.9.21-2.19.79-.88,2.29,3.39,3.85,6.59,7.87,10,11.68A703,703,0,0,0,347.75,360c.83.66,1.29.67,2.09,0,2-1.67,4-3.17,6-4.81a694.91,694.91,0,0,0,82.38-79.73c7.34-8.43,14.18-17.26,20.67-26.36.37-.52,1.1-1,.73-1.76s-1.23-.44-1.87-.43a51.51,51.51,0,0,1-11-1.23c-1.79-.36-3.63-.57-5,1-2.62,3-6.08,4.69-9.73,6-7.08,2.51-17.17,1.48-21.09-5.93-.51-1-1.2-.91-2.09-.64a32,32,0,0,1-3.73.86,1.73,1.73,0,0,1-2-.83c-.46-.85.1-1.42.63-2a18.08,18.08,0,0,1,3.7-3c.64-.4,1.34-.79,1.35-1.68A20.89,20.89,0,0,1,410.84,231Z" transform="translate(0.05 -0.03)" style="fill:#6a374f;stroke:#6a374f;stroke-linecap:round;stroke-linejoin:round;stroke-width:8px"/><path d="M437.19,151.35s60.54,13,60.54,14.78-6.06,9.44,4.14,9.76,70,3,70,3,9.78,3.63,8.83,12.57-6.7,15.85,2.3,22.6,1.91,16.63-4.15,16.63H493.27l-21.74,10.52-27.7,2.55-18.11,6.37h-2.87c-1.59,0-9.56-2.55-9.56-2.55S401.5,229,401.5,219.83s.64-36.3,4.14-39.48,8.29-12.43,12.11-11.79,17.66-1,16.64-5.78S429.08,149.59,437.19,151.35Z" transform="translate(0.05 -0.03)" style="fill:#6a374f"/><path d="M28.83,225.82l41.3-21.36,16.72-11.55,34.89-51.73,8.85-5.6,22.22-11.23L164,115.51l15.77-4.07,18.41-8.84s7.46-3.86,8.15-1.81a17.87,17.87,0,0,1,0,9.46c-1,3.82-5.53,11.71-5.53,11.71l-8.6,9.32-12.66,7.89-13.86,17.44L223.31,159l71.21-.48,26.05,5.5s5.5,3.58,5,8.36-6,8.65-6,8.65l-42,5,45.38.24s24.63,1.44,25,3.83,1.53,9.52,1.53,9.52l-10.28,8.11-29.87,3.87-18.88,3.59,41.1-3.35s6,1.68,6.22,3.59,0,8.82,0,8.82-5.21,6-7.38,6.23-23.91,2.39-23.91,2.39l-19.12,6.93s12.56-1.06,13.86,0,1.17,9.53-1.44,11.46-12.66,6.94-12.66,6.94l-46.36,8.61L219,273l-12.43,4.54-45.41,6-30.82-1.67-26-7.87-10.75.71-46.84,16.2s-2.39-3.1,11.47-12.9,8.36-17.13,3.34-18-17.2-4.47-19.11-13.55S35.1,223.34,28.83,225.82Z" transform="translate(0.05 -0.03)" style="fill:#6a374f"/><path d="M460,234.52s-10.62,5.49-14.69,0-7.4-14.69-7.4-14.69-15.78-6.27-16.73-12.28a37.62,37.62,0,0,1,0-11.31s.24-5.82,3.58-6.6,14.5-1.49,15.62-4.59,13.48-10.89,13.48-10.89l10.43,3.48s12.79,12.49,2.34,21.56,9.2,22.74-.81,29.84S460,234.52,460,234.52Z" transform="translate(0.05 -0.03)" style="fill:#6a374f"/><path d="M288.89,246.09s.24,3.46,1.8,4.18,6.69,2.39,9.08,1,2.75-10.4,2.75-10.4-.84-5.81-3.65-2.78S288.48,244,288.89,246.09Z" transform="translate(0.05 -0.03)" style="fill:#6a374f"/><path d="M323.19,221.35s.95-7.16,2.74-7.4,11.83,0,11.83,0v10.27s-5.44,2.83-10.63,1S323.07,222.09,323.19,221.35Z" transform="translate(0.05 -0.03)" style="fill:#6a374f"/><path d="M330.38,197.7s-.18,6.31,3.56,7.74,11.23-1,11.23-1l-1.19-13Z" transform="translate(0.05 -0.03)" style="fill:#6a374f"/><path d="M302.4,176.67s1.43-6.46,12.26-10.54c0,0,3.69,1.34,3.72,4.32s-.64,9.56-.64,9.56S302.4,186.7,302.4,176.67Z" transform="translate(0.05 -0.03)" style="fill:#6a374f"/><path d="M199.52,100.79a7.73,7.73,0,0,1,6.57,4.5c1.91,4.37-6.57,7.69-6.57,7.69H190.8c-5,0-4.68-5.26-4.68-5.26Z" transform="translate(0.05 -0.03)" style="fill:#6a374f"/><path d="M550.82,227.59c3.59-2.37,7.75-3.67,10.79-6.83a85.46,85.46,0,0,1-26,5.86c4.93-1.9,10.13-3,14.91-5.87-1.27-.57-2.06.1-2.9.31-12.52,3.17-30.79,5.87-43.83,5.22a34.19,34.19,0,0,0-6.55.35c-6.78,1-12.83,3.85-18.58,7.4a46.44,46.44,0,0,1-12.86,5.49,54.09,54.09,0,0,1-16.63,1.25c-4.79-.26-9.1.37-13.05,3.76-4.45,3.82-9.9,4.54-15.58,2.73a4.57,4.57,0,0,1-2.3-1.39c7.19,2.22,12,1.24,14.9-2.76a9.79,9.79,0,0,0-.25-12c-4.84-5.67-10.64-4.59-16.52-1.26a8.8,8.8,0,0,1,1.2-2.92c.44-1.11,2.5-2.09,1.36-3.11s-2.52.63-3.33,1.57c-2.57,3-5.48,1.86-9,1.16,4-1.37,7.62-2.43,9-6.33,1.47-4.2-2-6.43-4.26-9.13,1.57-.34,2.76.88,4.35.33-2.28-3.59-6.38-4.16-9.59-6.19.9-.93,1.94-1,2.8-1.39,3.36-1.68,6-4,6.11-8,.08-5.18-1.43-9.83-5.79-13.14-.3-.23-.88-.33-.69-1a7,7,0,0,1,3.52.65c2.06.72,4.07,1.59,6.13,2.33.7.25,1.57.45,2.09-.27s0-1.47-.36-2.1a12.78,12.78,0,0,0-3.61-3.38c-1-.68-1.91-1.41-1.85-2.85,1,0,1.48.68,2.08,1.07a19.57,19.57,0,0,0,13.62,3.06c8.47-1.11,11.53-8.11,6.58-15-.22-.3-.49-.58-.69-.9-.29-.47-1.1-.81-.67-1.5.3-.48,1-.27,1.48-.28,12.43-.34,24.43,2.24,36.39,5.24,1.8.45,2.29,1.23,2.21,3.12-.24,6.3,4.62,12.86,10.67,14.17-2.14-2.47-4.68-4.24-5.35-7.68,3.25,1.54,6.32,3.69,9.41.83s1.76-6.2.65-9.77a18.25,18.25,0,0,1,6.11,5.45,15.41,15.41,0,0,0,12.25,6.23c1.36,0,2.71.14,4.07.16,15.78.28,50.77-.48,66.45-2.29.55-.07,1.26.1,1.57-1-5,.37-9.85-.54-14.75-.44-9.07.18-18.1-.67-27.13-1.2-4.07-.23-27.38-.64-31.41-1.29-2-.31-2.67-1-1.93-3.17a160.83,160.83,0,0,0,7.07-29c3-20.82,3.65-41.65-.74-62.37-4.47-21.12-15.84-37.26-35.2-47.39a85.65,85.65,0,0,0-34.62-9.74c-23.85-1.48-45.1,5.1-63,21.26-11,10-20.12,21.65-29.28,33.26-1.28,1.62-1.87,1.6-3.1,0-4.68-6-9.32-12.07-14.28-17.85C326,51,318.8,43.12,309.88,37.18,284.05,20,256.49,17.73,227.82,28.79,209.08,36,195.65,49,188.55,68c-4.13,11.09-5.68,22.65-6.2,34.39-.3,6.73-.38,6.85-7.1,8.27a3.12,3.12,0,0,1-.44.09c-6.48.59-12,3.44-17,7.34A104,104,0,0,1,136,131a44.37,44.37,0,0,0-18.28,14.77c-1.69,2.32-3.39,4.63-5,7C104.54,164.13,97,176,88.56,187.21c-4.62,6.16-9.83,11.59-17,14.95-10.12,4.75-19.71,10.5-29.37,16.1-6.06,3.52-12,7.32-17.93,11-.54.34-1.52.72-1.24,1.39.39,1,1.34.29,2,.06a62.05,62.05,0,0,0,8.39-3.38c13-7.14,26.54-13,39.77-19.64a51.41,51.41,0,0,0,18-14.42q5.35-6.89,10.3-14.06c7.38-10.77,14.41-21.77,22.18-32.27a31.55,31.55,0,0,1,13.13-10.43,90.91,90.91,0,0,0,22-12.91c1.34-1.1,2.13-1.06,3.25.34,1.42,1.77,2.93,3.63,6.11,3.93a24.2,24.2,0,0,1-5-5.77c-.28-.43-.76-.85-.25-1.39a1,1,0,0,1,1.41,0l0,0c1.13.76,2.19,1.62,3.35,2.32,1.84,1.12,3.51,2.62,6.09,3.34a18,18,0,0,0-4-5.78c-.83-.8-2.6-1.21-2.35-2.38s1.95-1.2,3.06-1.61c1.7-.63,3.42-1.19,5.16-1.7a35.85,35.85,0,0,0,8.67-3.23c1.44-.86,2.1-.55,3.08.73,3,3.9,11.24,3.47,13.59-.59a3.71,3.71,0,0,0-2.21.15,14.15,14.15,0,0,1-8.16-1.2c-.55-.22-1.22-.48-1.32-1.13s.68-.91,1.17-1.19c2.58-1.41,5.23-2.71,7.74-4.23a3.84,3.84,0,0,1,4.77.18c.89.64,2.1,2.15,3,1.22s-.36-2.29-1.09-3.32a3.38,3.38,0,0,1,.15-.49c1.47.32,1.72,1.53,1.9,2.69a12.41,12.41,0,0,1-1,6.42,42.3,42.3,0,0,1-18.8,22.17,50.81,50.81,0,0,0-13.5,11.23,83.21,83.21,0,0,1-7,7.42,7.43,7.43,0,0,1-4.56,2.11,38.49,38.49,0,0,0-13.59,4c-.82.4-1.87.61-2.14,1.75a3,3,0,0,0,2.08,0,70.61,70.61,0,0,1,15.76-1.23c10.11.35,20.23.56,30.3,1.33a359.48,359.48,0,0,0,45,.84c19.23-1,38.46-1.36,57.68.18a106.21,106.21,0,0,1,17,2.65,17,17,0,0,1,7.48,3.59c3.74,3.37,2.87,9.65-1.51,11.16-.37-.75.06-1.47.12-2.2.19-2.73.22-5.44-1-8-1.08-2.36-3-3-5.19-1.7-.3.17-.71.5-.72.76,0,.61.6.66,1,.58,2.22-.48,2.5,1,2.73,2.59a23.67,23.67,0,0,1,.31,5.64c-.29,3.18-.93,3.9-4.05,4.41-1.26.21-2.56.23-3.82.43-2.4.38-3.93-1.08-5.08-2.71-1.05-1.48,0-3,.83-4.4.39-.64.9-1.22,1.32-1.84s1.21-1,.51-1.71-1.28.14-1.8.49c-1.87,1.3-3.59,2.74-4.36,5s.23,3.88,1.58,5.62a5.11,5.11,0,0,1-1.09.27c-11.08.33-22.19.35-33,3.26-1.22.33-1.22-.4-.95-1.28a29.69,29.69,0,0,0,1-7.38,10.29,10.29,0,0,0-2.08-6.53,8.37,8.37,0,0,0-.1,2c1,3.39.31,6.75-.15,10.1-.56,4-.61,4-4.67,4.07-5.73,0-11.49-.45-17.2.18-8.48.94-16.94,1.77-25.5,1.33-3.32-.18-6.67.34-10.64.58,1.66,1.11,2.93.85,4,1.21,9.72,3.12,19.63,2.64,29.59,1.59,4-.41,8-.52,12-.58a107.88,107.88,0,0,0,12.18-.85,150.62,150.62,0,0,1,21-1.55q21,.33,42.09.86a38.77,38.77,0,0,1,9.41,1.13,21,21,0,0,0-7.73,6.11,7.39,7.39,0,0,0-1.3,6.42,3.76,3.76,0,0,0,4.23,3.24,2.14,2.14,0,0,0,.44-.08c.05-.65-.58-.84-.87-1.25-2.13-3-2-4.78.62-7.36,2.2-2.19,5-2.93,7.93-3.55a1.34,1.34,0,0,1,1.67.92.83.83,0,0,1,0,.15,18.66,18.66,0,0,1,.39,9c-.1.66-.7.93-1.19,1.29a19.73,19.73,0,0,1-7.3,2.92,61.24,61.24,0,0,1-10.09,1.3,181.19,181.19,0,0,0-21.53,2.83A138.76,138.76,0,0,1,277,213.94c-12.84.08-25.58,1.89-38.31,3.45a51.32,51.32,0,0,0-19,6.19c-.45.26-1.2.3-1.09,1.18a2.58,2.58,0,0,0,.68,0c9.77-2,19.64-3.33,29.52-4.56,8.68-1.09,17.37-2.91,26.12-2.24a121,121,0,0,0,32-2.26A93.53,93.53,0,0,1,322.63,214c.64,0,1.54-.36,1.87.32s-.56,1.11-.95,1.6c-1.73,2.14-2.71,4.46-1.41,7.1s3.69,3.17,6.29,3.25c.61,0,1.58.25,1.64-.68,0-.77-.9-.61-1.42-.79a5.35,5.35,0,0,1-3.59-6.66,5.29,5.29,0,0,1,1.37-2.28c2-2.22,4.59-2.19,7.12-1.59,2.17.52,2.44,2.66,2.91,4.48.22.87.26,1.79.42,2.68.25,1.38.24,2.55-1.57,2.82-.48.08-1.62.52-.87,1,1.89,1.26-.06,1.36-.44,1.6a15.93,15.93,0,0,1-6.16,2.16c-3.43.53-6.87,1-10.32,1.34-7.68.69-15.34,1.43-22.52,4.59A61.49,61.49,0,0,1,271.47,240a225.49,225.49,0,0,0-34.9,3.15c-4.61.84-9.24,1.46-13.47,3.68-2.82,1.48-6.71,4.43-7.4,5.75.57.21,1-.16,1.5-.32,5.48-1.69,10.91-3.51,16.62-4.35,13.83-2,27.77-2.78,41.69-3.91,4.88-.39,9.62-1.58,14.94-2.72-2.51,2.58-4.27,5-2.05,8a5.71,5.71,0,0,0,6.3,2c-.41-.75-1.2-.83-1.88-1.09-3-1.14-3.6-3.28-1.71-5.83,1.52-2,6.1-3.64,8.61-3a1.69,1.69,0,0,1,1,.76,6,6,0,0,1,.18,6.43,10.59,10.59,0,0,1-6.39,5.07c-7.79,2.44-15.61,4.7-23.74,5.71-9.43,1.18-18.92,2-28.13,4.55-9.72,2.72-19.72,4.47-28.9,9A34.82,34.82,0,0,1,202,276.13c-11.33,1.23-22.58,3.06-33.88,4.44a105.28,105.28,0,0,1-35.36-1.32c-6.28-1.37-12.28-3.68-18.42-5.53A42.87,42.87,0,0,0,89,273.63L81.25,276c-13.62,4.08-26.48,10.16-39.77,15.1a39.26,39.26,0,0,0-8.63,4.29c6.74-.67,13.43-1.33,19.87-3.57,10.26-3.58,20.68-6.71,30.9-10.37a50.22,50.22,0,0,1,36.43.34c14.43,5.58,29.54,6.56,44.82,5.26,11.66-1,23.16-3.27,34.76-4.73a36,36,0,0,0,12.28-3.79c9.56-5,20-7.18,30.25-9.94a3,3,0,0,1,3.49,1.2c4.73,5.78,9.37,11.64,14.4,17.16a758.66,758.66,0,0,0,61.89,60.66c8.19,7.15,16.67,13.94,25.11,20.78,1.78,1.45,3.2,1.62,4.87-.08a82.6,82.6,0,0,1,7.05-6.7q16.78-13.5,32.45-28.22c28.45-26.56,55.69-54.22,77.62-86.63a3.85,3.85,0,0,1,2-1.79c5.42-1.61,10.09-4.74,15-7.44a35.1,35.1,0,0,1,18.65-4.66c5.65.21,30.57.3,36.23.41a335.77,335.77,0,0,0,47.66-2.09c2-.25,4.12,0,6.08-.86C584.51,229.54,561,228.15,550.82,227.59ZM185.23,153.78l-14.55-.51c4.45-4.08,7.68-8.55,12.2-11.73,1-.73,1.44-.3,1.64.79.58,3.27,1.2,6.53,1.82,9.78C186.52,153.05,186.47,153.82,185.23,153.78ZM348,199.91c-.6-2.56-1.14-4.91-1.7-7.33C349.13,193.83,349.92,197,348,199.91Z" transform="translate(0.05 -0.03)" style="fill:#6a374f;stroke:#6a374f;stroke-miterlimit:10;stroke-width:0.25px"/><path d="M471.47,185.6c-1.69-.62-2.46-2.33-4.35-2.56,1.05,2.67,4.07,4.08,4.35,7.66-3.81-3.67-6.89-7.24-10.79-10-5.18-3.63-11.05-2.57-14,2.91-1.85,3.39-4.25,5.74-8.25,6.28a62.67,62.67,0,0,0-7.3,1.53c-7.27,1.87-10.19,9.15-6.28,15.59a19,19,0,0,0,7.21,6.71c1.32.73,2.68,1.38,4,2a9,9,0,0,1,4.78,5.46,43.67,43.67,0,0,0,3.39,7.39c2.08,3.73,4.86,4.83,8.95,3.68a21.73,21.73,0,0,0,11.66-8.47c.78-1.06,1.3-2.38,2.84-3,.21,2.24-.7,4.18-1,6.17.77.36,1-.63,1.79-.43a5.26,5.26,0,0,1-.9,3.33c-4.19,7.48-13.9,12.42-23.27,7.24-4.33-2.39-6.62-6.29-7.39-11.08a4,4,0,0,0-2.55-3.37c-3.78-1.71-7.56-3.45-10.67-6.3-5.86-5.37-9-11.74-6.9-19.81,2.25-8.63,9.26-13.09,18-11.44,2.23.42,3.32-.19,4.22-2.15,1.72-3.72,3.85-7.14,7.43-9.49,3-2,6.13-2.89,9.65-2,6.67,1.7,12,5.1,14.86,11.71a13.31,13.31,0,0,1,.55,1.49A3,3,0,0,1,471.47,185.6Z" transform="translate(0.05 -0.03)" style="fill:#6a374f;stroke:#6a374f;stroke-miterlimit:10;stroke-width:0.25px"/><path d="M523,223.43a103.78,103.78,0,0,0,19-4.9c6-2.33,12.08-4.54,18-8.29C555.53,217.43,531.57,225.85,523,223.43Z" transform="translate(0.05 -0.03)" style="fill:#6a374f"/><path d="M481.18,204.46a10.24,10.24,0,0,1-4.64,2.08c-7.28,2-13.75,5.64-20,9.74-.74.49-1.68,1.7-2.47.7-.68-.85.49-1.76,1.12-2.44A28.23,28.23,0,0,1,470.74,206C474.18,205.32,477.6,204.43,481.18,204.46Z" transform="translate(0.05 -0.03)" style="fill:#6a374f"/><path d="M456.74,222.65c-.81.11-1.21.1-1.45-.24a1,1,0,0,1,.23-1.2c2.49-2.84,5.19-5.42,8.83-6.77.75-.28,1.73-.73,2.27.09s-.48,1.31-1,1.74c-2,1.79-4.08,3.54-6.24,5.16A11.11,11.11,0,0,1,456.74,222.65Z" transform="translate(0.05 -0.03)" style="fill:#6a374f"/><path d="M468.88,195.23c-3-3.25-6.25-6.13-8.54-9.86-.22-.37-.57-.81-.12-1.21a.83.83,0,0,1,.81,0c3.5,2.06,6.54,4.59,8.09,8.49A2.55,2.55,0,0,1,468.88,195.23Z" transform="translate(0.05 -0.03)" style="fill:#6a374f"/><path d="M456.85,229a.88.88,0,0,1-.56-.27.78.78,0,0,1,.13-1q3.79-4.46,7.6-8.89c.25-.29.58-.58,1-.37.18.11.27.49.29.76C465.49,222,459.71,228.89,456.85,229Z" transform="translate(0.05 -0.03)" style="fill:#6a374f"/><path d="M262.19,181a26.72,26.72,0,0,1-2.85-12,1.07,1.07,0,0,1,.6-1.13c.62-.23,1,.27,1.25.71a3.43,3.43,0,0,1,.6,1.21C262.34,173.36,263.2,176.91,262.19,181Z" transform="translate(0.05 -0.03)" style="fill:#6a374f"/><path d="M468.43,198.43c0,.61,0,1-.38,1.2a1.22,1.22,0,0,1-1.42-.43c-1.47-1.52-2.88-3.09-4.3-4.64a9.6,9.6,0,0,1-.86-1.05c-.43-.65-1.76-1.11-1.18-1.9s1.64,0,2.42.36a11.79,11.79,0,0,1,5.08,5C468.07,197.51,468.28,198.07,468.43,198.43Z" transform="translate(0.05 -0.03)" style="fill:#6a374f"/><path d="M466.15,205a30,30,0,0,1-9.32,5.12c-.43.13-1,.17-1.23-.27-.34-.64.09-1.18.57-1.56A13.91,13.91,0,0,1,466.15,205Z" transform="translate(0.05 -0.03)" style="fill:#6a374f"/><path d="M277.32,237.82a4.58,4.58,0,0,1-1-3.75c.26-2.31.56-4.61.87-6.92.09-.63-.06-1.68.7-1.71,1-.05,1.06,1.07,1.22,1.84C279.6,229.52,278.63,235.32,277.32,237.82Z" transform="translate(0.05 -0.03)" style="fill:#6a374f"/><path d="M280,201.93V206c0,.6.46,1.57-.48,1.7-.73.1-1-.8-1.24-1.43a12,12,0,0,1-.6-4.45,23.91,23.91,0,0,1,.69-4.91c.13-.65,0-1.84,1-1.68.83.14.64,1.24.65,2V202Z" transform="translate(0.05 -0.03)" style="fill:#6a374f"/><path d="M282.78,207.61c.56-5,1.06-9.83-1-14.7C285.93,194.77,286.5,204.54,282.78,207.61Z" transform="translate(0.05 -0.03)" style="fill:#6a374f"/><path d="M249.08,260c-1.89-3.67-1.1-6.77-.09-9.86a.74.74,0,0,1,.87-.56c.61.18.66.76.71,1.28A19.88,19.88,0,0,1,249.08,260Z" transform="translate(0.05 -0.03)" style="fill:#6a374f"/><path d="M463,200.07c1,.31,2.69-.32,2.85,1.08.1.93-1.56.86-2.45,1.09a53.57,53.57,0,0,1-5.32,1c-.71.11-1.68.35-1.91-.64-.19-.84.71-1,1.32-1.27A25.32,25.32,0,0,1,463,200.07Z" transform="translate(0.05 -0.03)" style="fill:#6a374f"/><path d="M316.39,204.23c.47-3.07.06-6.2.58-9.27C317.8,198.12,318.21,201.25,316.39,204.23Z" transform="translate(0.05 -0.03)" style="fill:#6a374f"/><path d="M273.52,248.66c1.21,2.36,1.37,4.09.2,6.26C272.48,252.85,272.62,251.09,273.52,248.66Z" transform="translate(0.05 -0.03)" style="fill:#6a374f"/><path d="M410.84,231h-5.71c-8.4-.23-15.89-2.24-20-10.54-.38-.76-1-.78-1.7-.81a31,31,0,0,1-3.6-.3c-1.12-.2-2.27-.56-2.43-2-.14-1.25.71-1.9,1.66-2.46a3.43,3.43,0,0,1,1-.53c3.67-.64,6.31-2.79,8.46-5.69a.62.62,0,0,1,.18-.14c1.47-.92,1-1.5-.28-2.13a11.13,11.13,0,0,1-5.73-5.88c-1-2.79-2.34-4.63-5.39-5.08a1.84,1.84,0,0,1-1.61-1.93c0-1.09.87-1.52,1.79-1.76a16.56,16.56,0,0,1,2.87-.65,2.73,2.73,0,0,0,2.52-1.87,19.55,19.55,0,0,1,7.37-8.38A31.5,31.5,0,0,1,406.93,176c3.1-.09,2.94,0,2.94-3.17,0-2-.48-3.32-2.47-3.92a3.54,3.54,0,0,1-1.09-.79c-.91-.8-2-1.59-1.52-3a2.42,2.42,0,0,1,2.95-1.55,8.76,8.76,0,0,0,8.45-2.83,6.54,6.54,0,0,1,1.73-1.06c5.81-3.2,12.13-4.06,18.62-3.84,13.53.46,26.89,2.06,39.79,6.44a2.57,2.57,0,0,0,3-.57,7.89,7.89,0,0,1,7.33-2,19.73,19.73,0,0,1,11.12,6.5c1.92,2.07,2,2,2.77-.55a176.64,176.64,0,0,0,5.9-79.9c-3.87-24.59-16.92-42.17-40.56-50.94-25.69-9.52-50.41-7.46-73.57,7.71-9.76,6.39-17.37,15.14-24.81,24A213.81,213.81,0,0,0,351.9,87c-2,3.06-2.77,3-5,.28-3.28-4-6.56-8.08-9.79-12.16a250.23,250.23,0,0,0-17.9-20.73c-23.69-24-51.84-30.74-83.87-20.88-15.44,4.75-28,13.7-36.1,28.09-7.07,12.57-9.06,26.42-9.91,40.53-.1,1.67.75,1.29,1.64.69a38.88,38.88,0,0,1,9.74-4.74c5.06-1.61,9.06.61,10.32,5.78a17,17,0,0,1,0,7.64c-2.47,11-8.76,19.21-18.44,24.85-1.39.82-2,1.62-1.64,3.21.85,4.14,1.65,8.29,2.37,12.45.27,1.54,1,2.07,2.57,2.19,16.19,1.31,32.39,2,48.62,1,21.68-1.35,43.3-.12,64.88,1.85,5.75.53,11.35,2,15.77,6.1,5.7,5.31,5.15,12.46-1.18,17a7.33,7.33,0,0,0-2.77,2.35c4.26,0,8.11-.18,11.94,0,5.36.31,10.72.88,15.49,3.68,8.11,4.76,9,14.57,1.83,20.7a24.31,24.31,0,0,1-7.44,4.23c-1.31.49-1.74,1-.54,2.17a8.78,8.78,0,0,1,2.49,5c.8,4.77-1.77,9.66-6.84,12.77a31.89,31.89,0,0,1-12.76,4.4c-6.13.77-12.3,1.33-18.45,2-1.23.13-2,.29-1.06,1.9,3.07,5.32,2.09,11.2-2.4,15.42A21.9,21.9,0,0,1,293.34,260c-6.09,1.45-12.18,3-18.35,4-6.77,1.1-13.63,1.68-20.45,2.45-1.9.21-2.19.79-.88,2.29,3.39,3.85,6.59,7.87,10,11.68A703,703,0,0,0,347.75,360c.83.66,1.29.67,2.09,0,2-1.67,4-3.17,6-4.81a694.91,694.91,0,0,0,82.38-79.73c7.34-8.43,14.18-17.26,20.67-26.36.37-.52,1.1-1,.73-1.76s-1.23-.44-1.87-.43a51.51,51.51,0,0,1-11-1.23c-1.79-.36-3.63-.57-5,1-2.62,3-6.08,4.69-9.73,6-7.08,2.51-17.17,1.48-21.09-5.93-.51-1-1.2-.91-2.09-.64a32,32,0,0,1-3.73.86,1.73,1.73,0,0,1-2-.83c-.46-.85.1-1.42.63-2a18.08,18.08,0,0,1,3.7-3c.64-.4,1.34-.79,1.35-1.68A20.89,20.89,0,0,1,410.84,231Z" transform="translate(0.05 -0.03)" style="fill:#6a374f"/><path d="M483.44,91.66c-9.8-39.06-59.12-51.72-75.19-30.13-4.19,5.62-4.42,13.48-3.38,17.57,2.19,8.66,11,16.3,23.84,14.9,31.29-3.4,33.13,29.33,34.47,39.1,1.11,8.08,4,11.11,10,9.83C481.18,141.25,490,117.84,483.44,91.66Z" transform="translate(0.05 -0.03)" style="fill:#6a374f"/><path d="M426.44,164.52a11,11,0,0,0-6.44,0c-2.88,1-5,4.3-3.28,7.19s6.11,3.58,9,4.16,6.68.35,7.65-3.18C434.63,168.17,430.63,165.38,426.44,164.52Z" transform="translate(0.05 -0.03)" style="fill:#6a374f"/><path d="M408.31,191a6.67,6.67,0,0,0-4-4.84,9.83,9.83,0,0,0-6-1.49c-4.18.38-8.64,3.7-9,8.06-1.29,4.84,3.76,7.36,8,7.69,4.68.36,11.53-.89,11.48-6.88A8.14,8.14,0,0,0,408.31,191Z" transform="translate(0.05 -0.03)" style="fill:#6a374f"/><path d="M410.75,216.78c-.47-4.55-6.51-6-10.26-5.83a2.66,2.66,0,0,0-.73.07,10,10,0,0,0-6,1.65,5.41,5.41,0,0,0,0,9.08c1.92,1.32,4.33,1.48,6.59,1.46s5.22,0,7.17-1.24a4.65,4.65,0,0,0,.9-.76A4.47,4.47,0,0,0,410.75,216.78Z" transform="translate(0.05 -0.03)" style="fill:#6a374f"/><path d="M430.41,235.46c-2-8.28-17.49-4.06-13.69,4.94C419.55,247.14,433.58,243.83,430.41,235.46Z" transform="translate(0.05 -0.03)" style="fill:#6a374f"/><path d="M485.94,167.84c-2.12-2.6-5.7-2.33-6.79-.35-1,1.77.32,5,2.37,6.8C486.11,178.25,489.33,172,485.94,167.84Z" transform="translate(0.05 -0.03)" style="fill:#6a374f"/><path d="M364.23,318.63c10,6.79,23.83-5.15,27.64-11.16,9.19-14.52-15.71-25.07-18.78-7C370.68,314.7,361.27,313.56,364.23,318.63Z" transform="translate(0.05 -0.03)" style="fill:#6a374f"/><path d="M357.23,290.28c-5.62,0-5.63,8.73,0,8.73S362.86,290.28,357.23,290.28Z" transform="translate(0.05 -0.03)" style="fill:#6a374f"/><path d="M169.68,153.27l14.55.51c1.24,0,1.29-.73,1.11-1.67-.62-3.25-1.24-6.51-1.83-9.78-.19-1.09-.6-1.52-1.63-.79C177.36,144.72,174.13,149.19,169.68,153.27Z" transform="translate(0.05 -0.03)" style="fill:#6a374f"/></g><g id="Layer_1-2" data-name="Layer 1-2"><path d="M420.25,143.35s60.54,13,60.54,14.78-6.06,9.44,4.14,9.76,67.47,3,67.47,3,9.78,3.63,8.82,12.57-6.69,15.83,2.23,22.58,1.91,16.63-4.14,16.63h-83l-21.74,10.52-27.7,2.55-18.11,6.37h-2.87c-1.59,0-9.56-2.55-9.56-2.55S384.56,221,384.56,211.83s.64-36.3,4.14-39.48,8.29-12.43,12.11-11.79,17.66-1,16.64-5.78S412.14,141.59,420.25,143.35Z" transform="translate(0.05 -0.03)" style="fill:#fff;stroke:#fff;stroke-linecap:round;stroke-linejoin:round;stroke-width:20px"/><path d="M20.83,217.82l41.3-21.36,16.72-11.55,34.89-51.73,8.85-5.6,22.22-11.23L156,107.51l15.77-4.07,18.41-8.84s7.46-3.86,8.15-1.81a17.87,17.87,0,0,1,0,9.46c-1,3.82-5.53,11.71-5.53,11.71l-8.6,9.32-12.66,7.89-13.86,17.44L215.31,151l71.21-.48,26.05,5.5s5.5,3.58,5,8.36-6,8.65-6,8.65l-42,5,45.38.24s24.63,1.44,25,3.83,1.53,9.52,1.53,9.52l-10.28,8.11-29.87,3.87-18.88,3.59,41.1-3.35s6,1.68,6.22,3.59,0,8.82,0,8.82-5.21,6-7.38,6.23-23.91,2.39-23.91,2.39l-19.12,6.93s12.56-1.06,13.86,0,1.17,9.53-1.44,11.46-12.66,6.94-12.66,6.94l-46.36,8.61L211,265l-12.43,4.54-45.41,6-30.82-1.67L96.3,266l-10.75.71-46.84,16.2s-2.39-3.1,11.47-12.9,8.36-17.13,3.34-18-17.2-4.47-19.11-13.55S27.1,215.34,20.83,217.82Z" transform="translate(0.05 -0.03)" style="fill:#fff;stroke:#fff;stroke-linecap:round;stroke-linejoin:round;stroke-width:10px"/><path d="M452,226.52s-10.62,5.49-14.69,0-7.4-14.69-7.4-14.69-15.78-6.27-16.73-12.28a37.62,37.62,0,0,1,0-11.31s.24-5.82,3.58-6.6,14.5-1.49,15.62-4.59,13.48-10.89,13.48-10.89l10.43,3.48s12.79,12.49,2.34,21.56,9.2,22.74-.81,29.84S452,226.52,452,226.52Z" transform="translate(0.05 -0.03)" style="fill:#fff;stroke:#fff;stroke-linecap:round;stroke-linejoin:round;stroke-width:24px"/><path d="M280.89,238.09s.24,3.46,1.8,4.18,6.69,2.39,9.08,1,2.75-10.4,2.75-10.4-.84-5.81-3.65-2.78S280.48,236,280.89,238.09Z" transform="translate(0.05 -0.03)" style="fill:#fff;stroke:#fff;stroke-linecap:round;stroke-linejoin:round;stroke-width:24px"/><path d="M315.19,213.35s.95-7.16,2.74-7.4,11.83,0,11.83,0v10.27s-5.44,2.83-10.63,1S315.07,214.09,315.19,213.35Z" transform="translate(0.05 -0.03)" style="fill:#fff;stroke:#fff;stroke-linecap:round;stroke-linejoin:round;stroke-width:24px"/><path d="M322.38,189.7s-.18,6.31,3.56,7.74,11.23-1,11.23-1l-1.19-13Z" transform="translate(0.05 -0.03)" style="fill:#fff;stroke:#fff;stroke-linecap:round;stroke-linejoin:round;stroke-width:24px"/><path d="M294.4,168.67s1.43-6.46,12.26-10.54c0,0,3.69,1.34,3.72,4.32s-.64,9.56-.64,9.56S294.4,178.7,294.4,168.67Z" transform="translate(0.05 -0.03)" style="fill:#fff;stroke:#fff;stroke-linecap:round;stroke-linejoin:round;stroke-width:24px"/><path d="M191.52,92.79a7.73,7.73,0,0,1,6.57,4.5c1.91,4.37-6.57,7.69-6.57,7.69H182.8c-5,0-4.68-5.26-4.68-5.26Z" transform="translate(0.05 -0.03)" style="fill:#fff;stroke:#fff;stroke-linecap:round;stroke-linejoin:round;stroke-width:24px"/><path d="M23.85,287.4a39.19,39.19,0,0,1,8.62-4.29c13.3-4.94,26.16-11,39.78-15.1l7.8-2.35a42.87,42.87,0,0,1,25.42.09c6.14,1.85,12.14,4.16,18.42,5.53a105.28,105.28,0,0,0,35.36,1.32c11.3-1.38,22.55-3.21,33.88-4.44A34.58,34.58,0,0,0,204.88,265c9.18-4.53,19.18-6.28,28.9-9,9.21-2.57,18.7-3.37,28.13-4.55,8.13-1,15.95-3.27,23.74-5.71a10.59,10.59,0,0,0,6.39-5.07,6,6,0,0,0-.18-6.43,1.69,1.69,0,0,0-1.05-.76c-2.51-.62-7.09,1-8.61,3-1.89,2.55-1.26,4.69,1.71,5.83.68.26,1.47.34,1.88,1.09a5.71,5.71,0,0,1-6.3-2c-2.22-3.08-.46-5.46,2.05-8-5.32,1.14-10.06,2.32-15,2.72-13.91,1.13-27.85,1.89-41.68,3.91-5.71.84-11.14,2.66-16.62,4.35-.49.16-.93.53-1.5.32.69-1.32,4.57-4.27,7.4-5.75,4.23-2.22,8.86-2.84,13.47-3.68a225.49,225.49,0,0,1,34.9-3.15A61.38,61.38,0,0,0,286.09,227c7.17-3.16,14.83-3.9,22.52-4.59,3.45-.31,6.89-.81,10.32-1.34a15.88,15.88,0,0,0,6.15-2.16c.39-.24,2.33-.34.45-1.6-.75-.51.39-1,.87-1,1.81-.27,1.82-1.44,1.57-2.82-.16-.89-.2-1.81-.43-2.68-.46-1.82-.73-4-2.9-4.48-2.53-.6-5.1-.63-7.12,1.59a5.34,5.34,0,0,0,2.21,8.94c.53.18,1.48,0,1.43.79s-1,.7-1.64.68c-2.6-.08-5-.7-6.29-3.25s-.32-5,1.4-7.1c.4-.49,1.32-.88,1-1.6s-1.23-.33-1.87-.32A93.76,93.76,0,0,0,298,207.73,121,121,0,0,1,266,210c-8.75-.67-17.44,1.15-26.12,2.24-9.88,1.23-19.75,2.58-29.52,4.56a2.58,2.58,0,0,1-.68,0c-.11-.88.63-.92,1.09-1.18a51.32,51.32,0,0,1,19-6.19c12.73-1.56,25.47-3.37,38.31-3.45a138.76,138.76,0,0,0,26.75-2.52,181.19,181.19,0,0,1,21.53-2.83,61.24,61.24,0,0,0,10.09-1.3,19.73,19.73,0,0,0,7.3-2.92c.48-.36,1.09-.63,1.19-1.29a18.78,18.78,0,0,0-.39-9A1.35,1.35,0,0,0,333,185l-.15,0c-2.89.62-5.73,1.36-7.93,3.55-2.59,2.58-2.75,4.4-.62,7.36.29.41.91.6.87,1.25a3.78,3.78,0,0,1-4.59-2.72c0-.15-.06-.29-.08-.44a7.33,7.33,0,0,1,1.3-6.42,21,21,0,0,1,7.73-6.11,38.77,38.77,0,0,0-9.41-1.13q-21-.51-42.09-.86a150.62,150.62,0,0,0-21,1.55,107.88,107.88,0,0,1-12.18.85c-4,.06-8,.17-12,.58-10,1-19.87,1.53-29.59-1.59-1.11-.36-2.38-.1-4-1.21,4-.24,7.32-.76,10.64-.58,8.56.44,17-.39,25.5-1.33,5.71-.63,11.47-.13,17.2-.18,4.06,0,4.11-.07,4.67-4.07.46-3.35,1.15-6.71.15-10.1a8.37,8.37,0,0,1,.1-2,10.23,10.23,0,0,1,2.07,6.53,29.23,29.23,0,0,1-1,7.38c-.27.88-.27,1.61.95,1.28,10.83-2.91,21.94-2.93,33-3.26a5.11,5.11,0,0,0,1.09-.27c-1.35-1.74-2.31-3.45-1.58-5.62a10.38,10.38,0,0,1,4.36-5c.52-.35,1.18-1.06,1.8-.49s-.16,1.19-.51,1.71-.93,1.2-1.32,1.84c-.82,1.36-1.88,2.92-.83,4.4,1.15,1.63,2.68,3.09,5.08,2.71,1.26-.2,2.55-.22,3.82-.43,3.12-.51,3.76-1.23,4.05-4.41a24.2,24.2,0,0,0-.31-5.64c-.23-1.56-.51-3.07-2.73-2.59-.4.08-1,0-1-.58,0-.26.42-.59.72-.76,2.23-1.28,4.11-.66,5.19,1.7,1.17,2.56,1.15,5.27.95,8-.05.73-.48,1.45-.11,2.2,4.38-1.51,5.25-7.79,1.51-11.16a17,17,0,0,0-7.48-3.59,106.21,106.21,0,0,0-17-2.65c-19.22-1.54-38.45-1.16-57.68-.18a359.48,359.48,0,0,1-45-.84c-10.08-.77-20.2-1-30.3-1.33a70.61,70.61,0,0,0-15.76,1.23,3,3,0,0,1-2.08,0c.27-1.14,1.32-1.35,2.14-1.75a38.49,38.49,0,0,1,13.59-4,7.43,7.43,0,0,0,4.56-2.11,83.21,83.21,0,0,0,7-7.42,50.81,50.81,0,0,1,13.5-11.23A42.3,42.3,0,0,0,197,103a12.41,12.41,0,0,0,1-6.42c-.18-1.16-.43-2.37-1.9-2.69-.08.25-.19.42-.15.49.72,1,2.08,2.31,1.09,3.32s-2.11-.58-3-1.22a3.84,3.84,0,0,0-4.77-.18c-2.51,1.52-5.16,2.82-7.74,4.23-.49.28-1.28.42-1.17,1.19s.77.91,1.32,1.13a14.15,14.15,0,0,0,8.16,1.2,3.71,3.71,0,0,1,2.21-.15c-2.35,4.06-10.61,4.49-13.59.59-1-1.28-1.64-1.59-3.08-.73-2.67,1.6-5.7,2.36-8.67,3.23-1.74.51-3.46,1.07-5.16,1.7-1.11.41-2.83.54-3.06,1.61s1.52,1.58,2.35,2.38a18,18,0,0,1,4,5.78c-2.58-.72-4.25-2.22-6.1-3.34-1.16-.7-2.21-1.56-3.34-2.32a1,1,0,0,0-1.41,0l0,0c-.52.54,0,1,.25,1.39a24.2,24.2,0,0,0,5,5.77c-3.18-.3-4.69-2.16-6.11-3.93-1.12-1.4-1.91-1.44-3.25-.34a90.91,90.91,0,0,1-22,12.91A31.51,31.51,0,0,0,114.7,139c-7.77,10.5-14.8,21.5-22.18,32.27q-4.93,7.18-10.3,14.06a51.41,51.41,0,0,1-18,14.42c-13.23,6.6-26.8,12.5-39.77,19.64A62.61,62.61,0,0,1,16,222.73c-.62.23-1.57.89-2-.06-.28-.67.7-1,1.24-1.39,6-3.7,11.87-7.5,17.93-11,9.66-5.6,19.25-11.35,29.37-16.1,7.14-3.36,12.35-8.79,17-15,8.43-11.23,16-23.08,24.13-34.51,1.66-2.33,3.36-4.64,5-7A44.46,44.46,0,0,1,127,123a103.76,103.76,0,0,0,21.77-12.86c5-3.9,10.54-6.75,17-7.34a3.12,3.12,0,0,0,.44-.09c6.72-1.42,6.8-1.54,7.09-8.27.53-11.74,2.08-23.3,6.21-34.39,7.1-19,20.53-32,39.27-39.23C247.45,9.76,275,12,300.84,29.21,309.8,35.12,317,43,324,51.1c5,5.78,9.6,11.84,14.28,17.85,1.23,1.58,1.82,1.6,3.1,0,9.16-11.61,18.27-23.3,29.28-33.26,17.88-16.15,39.13-22.74,63-21.26a85.65,85.65,0,0,1,34.62,9.74C487.64,34.3,499,50.44,503.48,71.56c4.39,20.72,3.75,41.55.74,62.38a161.68,161.68,0,0,1-7.07,29c-.74,2.17,0,2.86,1.93,3.17,4,.65,27.34,1.06,31.41,1.3,9,.52,18.06,1.37,27.12,1.19,4.91-.1,9.76.81,14.76.44-.32,1.06-1,.89-1.57,1-15.68,1.81-50.67,2.57-66.45,2.29-1.36,0-2.71-.12-4.07-.16A15.42,15.42,0,0,1,488,165.86a18.25,18.25,0,0,0-6.11-5.45c1.11,3.57,2.33,7-.65,9.77s-6.16.71-9.41-.83c.67,3.44,3.21,5.21,5.35,7.68-6.05-1.31-10.91-7.87-10.67-14.17.08-1.89-.42-2.67-2.21-3.12-12-3-24-5.58-36.39-5.24-.51,0-1.18-.2-1.48.28-.43.69.38,1,.67,1.5.2.32.47.6.69.9,4.94,6.88,1.89,13.88-6.58,15a19.57,19.57,0,0,1-13.62-3.06,4,4,0,0,0-2.08-1.07c-.06,1.44.86,2.17,1.85,2.85a12.78,12.78,0,0,1,3.61,3.38c.41.63.88,1.38.36,2.1s-1.39.52-2.1.27c-2.05-.74-4.06-1.61-6.12-2.33a7,7,0,0,0-3.52-.65c-.19.65.39.75.69,1,4.36,3.31,5.87,8,5.79,13.14-.07,4-2.75,6.34-6.12,8-.85.42-1.89.46-2.79,1.39,3.21,2,7.31,2.6,9.59,6.19-1.59.55-2.78-.67-4.35-.33,2.31,2.7,5.73,4.93,4.26,9.13-1.36,3.9-5,5-9,6.33,3.53.7,6.43,1.83,9-1.16.81-.94,2.23-2.55,3.33-1.57s-.92,2-1.36,3.11a8.8,8.8,0,0,0-1.2,2.92c5.88-3.33,11.68-4.41,16.52,1.26a9.79,9.79,0,0,1,.25,12c-2.91,4-7.71,5-14.91,2.76a4.64,4.64,0,0,0,2.31,1.39c5.68,1.81,11.13,1.09,15.58-2.73,3.94-3.39,8.26-4,13.05-3.76a54.09,54.09,0,0,0,16.63-1.25A46.31,46.31,0,0,0,469.7,226c5.76-3.55,11.81-6.39,18.59-7.4a34.19,34.19,0,0,1,6.55-.35c13,.65,44.87-2.05,57.39-5.22.84-.21,1.63-.88,2.9-.31-4.78,2.83-10,4-14.91,5.87a85.15,85.15,0,0,0,25.95-5.86c-3,3.16-7.2,4.46-10.79,6.83,10.13.56,20.13,1.95,30.21,2.75-2,.88-4.07.61-6.08.86a335.77,335.77,0,0,1-47.66,2.09c-5.66-.11-30.58-.2-36.23-.41A35.21,35.21,0,0,0,477,229.54c-4.87,2.7-9.54,5.83-15,7.44a3.85,3.85,0,0,0-2,1.79c-21.93,32.41-49.17,60.07-77.62,86.63-10.48,9.79-21.26,19.24-32.45,28.22a82.6,82.6,0,0,0-7.05,6.7c-1.67,1.7-3.09,1.53-4.87.08-8.44-6.84-16.92-13.63-25.11-20.78A756.07,756.07,0,0,1,251.05,279c-5-5.52-9.67-11.38-14.4-17.16a3,3,0,0,0-3.49-1.2c-10.27,2.76-20.69,5-30.25,9.94a36,36,0,0,1-12.28,3.79c-11.6,1.46-23.1,3.73-34.76,4.73-15.28,1.3-30.39.32-44.82-5.26a50.22,50.22,0,0,0-36.43-.34c-10.22,3.66-20.64,6.79-30.9,10.37C37.28,286.07,30.59,286.73,23.85,287.4ZM161.68,145.27l14.55.51c1.24,0,1.29-.73,1.11-1.67-.62-3.25-1.24-6.51-1.83-9.78-.19-1.09-.6-1.52-1.63-.79C169.36,136.72,166.13,141.19,161.68,145.27ZM339,191.91c1.92-2.94,1.13-6.08-1.7-7.33C337.86,187,338.4,189.35,339,191.91Z" transform="translate(0.05 -0.03)" style="fill:#fff;stroke:#fff;stroke-linecap:round;stroke-linejoin:round;stroke-width:28px"/><path d="M463.47,177.6c-1.69-.62-2.46-2.33-4.35-2.56,1.05,2.67,4.07,4.08,4.35,7.66-3.81-3.67-6.89-7.24-10.79-10-5.18-3.63-11.05-2.57-14,2.91-1.85,3.39-4.25,5.74-8.25,6.28a62.67,62.67,0,0,0-7.3,1.53c-7.27,1.87-10.19,9.15-6.28,15.59a19,19,0,0,0,7.21,6.71c1.32.73,2.68,1.38,4,2a9,9,0,0,1,4.78,5.46,43.67,43.67,0,0,0,3.39,7.39c2.08,3.73,4.86,4.83,8.95,3.68a21.73,21.73,0,0,0,11.66-8.47c.78-1.06,1.3-2.38,2.84-3,.21,2.24-.7,4.18-1,6.17.77.36,1-.63,1.79-.43a5.26,5.26,0,0,1-.9,3.33c-4.19,7.48-13.9,12.42-23.27,7.24-4.33-2.39-6.62-6.29-7.39-11.08a4,4,0,0,0-2.55-3.37c-3.78-1.71-7.56-3.45-10.67-6.3-5.86-5.37-9-11.74-6.9-19.81,2.25-8.63,9.26-13.09,18-11.44,2.23.42,3.32-.19,4.22-2.15,1.72-3.72,3.85-7.14,7.43-9.49,3-2,6.13-2.89,9.65-2,6.67,1.7,12,5.1,14.86,11.71a13.31,13.31,0,0,1,.55,1.49A3,3,0,0,1,463.47,177.6Z" transform="translate(0.05 -0.03)" style="fill:#fff;stroke:#fff;stroke-linecap:round;stroke-linejoin:round;stroke-width:24px"/><path d="M519.51,215.43c6.45-1.2,21.88-2.51,28-4.9s12.08-4.54,18-8.29C561.09,209.43,528.09,217.85,519.51,215.43Z" transform="translate(0.05 -0.03)" style="fill:#fff;stroke:#fff;stroke-linecap:round;stroke-linejoin:round;stroke-width:24px"/><path d="M473.18,196.46a10.24,10.24,0,0,1-4.64,2.08c-7.28,2-13.75,5.64-20,9.74-.74.49-1.68,1.7-2.47.7-.68-.85.49-1.76,1.12-2.44A28.23,28.23,0,0,1,462.74,198C466.18,197.32,469.6,196.43,473.18,196.46Z" transform="translate(0.05 -0.03)" style="fill:#fff;stroke:#fff;stroke-linecap:round;stroke-linejoin:round;stroke-width:24px"/><path d="M448.74,214.65c-.81.11-1.21.1-1.45-.24a1,1,0,0,1,.23-1.2c2.49-2.84,5.19-5.42,8.83-6.77.75-.28,1.73-.73,2.27.09s-.48,1.31-1,1.74c-2,1.79-4.08,3.54-6.24,5.16A11.11,11.11,0,0,1,448.74,214.65Z" transform="translate(0.05 -0.03)" style="fill:#fff;stroke:#fff;stroke-linecap:round;stroke-linejoin:round;stroke-width:24px"/><path d="M460.88,187.23c-3-3.25-6.25-6.13-8.54-9.86-.22-.37-.57-.81-.12-1.21a.83.83,0,0,1,.81,0c3.5,2.06,6.54,4.59,8.09,8.49A2.55,2.55,0,0,1,460.88,187.23Z" transform="translate(0.05 -0.03)" style="fill:#fff;stroke:#fff;stroke-linecap:round;stroke-linejoin:round;stroke-width:24px"/><path d="M448.85,221a.88.88,0,0,1-.56-.27.78.78,0,0,1,.13-1q3.79-4.46,7.6-8.89c.25-.29.58-.58,1-.37.18.11.27.49.29.76C457.49,214,451.71,220.89,448.85,221Z" transform="translate(0.05 -0.03)" style="fill:#fff;stroke:#fff;stroke-linecap:round;stroke-linejoin:round;stroke-width:24px"/><path d="M254.19,173a26.72,26.72,0,0,1-2.85-12,1.07,1.07,0,0,1,.6-1.13c.62-.23,1,.27,1.25.71a3.43,3.43,0,0,1,.6,1.21C254.34,165.36,255.2,168.91,254.19,173Z" transform="translate(0.05 -0.03)" style="fill:#fff;stroke:#fff;stroke-linecap:round;stroke-linejoin:round;stroke-width:24px"/><path d="M460.43,190.43c0,.61,0,1-.38,1.2a1.22,1.22,0,0,1-1.42-.43c-1.47-1.52-2.88-3.09-4.3-4.64a9.6,9.6,0,0,1-.86-1.05c-.43-.65-1.76-1.11-1.18-1.9s1.64,0,2.42.36a11.79,11.79,0,0,1,5.08,5C460.07,189.51,460.28,190.07,460.43,190.43Z" transform="translate(0.05 -0.03)" style="fill:#fff;stroke:#fff;stroke-linecap:round;stroke-linejoin:round;stroke-width:24px"/><path d="M458.15,197a30,30,0,0,1-9.32,5.12c-.43.13-1,.17-1.23-.27-.34-.64.09-1.18.57-1.56A13.91,13.91,0,0,1,458.15,197Z" transform="translate(0.05 -0.03)" style="fill:#fff;stroke:#fff;stroke-linecap:round;stroke-linejoin:round;stroke-width:24px"/><path d="M269.32,229.82a4.58,4.58,0,0,1-1-3.75c.26-2.31.56-4.61.87-6.92.09-.63-.06-1.68.7-1.71,1-.05,1.06,1.07,1.22,1.84C271.6,221.52,270.63,227.32,269.32,229.82Z" transform="translate(0.05 -0.03)" style="fill:#fff;stroke:#fff;stroke-linecap:round;stroke-linejoin:round;stroke-width:24px"/><path d="M272,193.93V198c0,.6.46,1.57-.48,1.7-.73.1-1-.8-1.24-1.43a12,12,0,0,1-.6-4.45,23.91,23.91,0,0,1,.69-4.91c.13-.65,0-1.84,1-1.68.83.14.64,1.24.65,2V194Z" transform="translate(0.05 -0.03)" style="fill:#fff;stroke:#fff;stroke-linecap:round;stroke-linejoin:round;stroke-width:24px"/><path d="M274.78,199.61c.56-5,1.06-9.83-1-14.7C277.93,186.77,278.5,196.54,274.78,199.61Z" transform="translate(0.05 -0.03)" style="fill:#fff;stroke:#fff;stroke-linecap:round;stroke-linejoin:round;stroke-width:24px"/><path d="M241.08,252c-1.89-3.67-1.1-6.77-.09-9.86a.74.74,0,0,1,.87-.56c.61.18.66.76.71,1.28A19.88,19.88,0,0,1,241.08,252Z" transform="translate(0.05 -0.03)" style="fill:#fff;stroke:#fff;stroke-linecap:round;stroke-linejoin:round;stroke-width:24px"/><path d="M455,192.07c1,.31,2.69-.32,2.85,1.08.1.93-1.56.86-2.45,1.09a53.57,53.57,0,0,1-5.32,1c-.71.11-1.68.35-1.91-.64-.19-.84.71-1,1.32-1.27A25.32,25.32,0,0,1,455,192.07Z" transform="translate(0.05 -0.03)" style="fill:#fff;stroke:#fff;stroke-linecap:round;stroke-linejoin:round;stroke-width:24px"/><path d="M308.39,196.23c.47-3.07.06-6.2.58-9.27C309.8,190.12,310.21,193.25,308.39,196.23Z" transform="translate(0.05 -0.03)" style="fill:#fff;stroke:#fff;stroke-linecap:round;stroke-linejoin:round;stroke-width:24px"/><path d="M265.52,240.66c1.21,2.36,1.37,4.09.2,6.26C264.48,244.85,264.62,243.09,265.52,240.66Z" transform="translate(0.05 -0.03)" style="fill:#fff;stroke:#fff;stroke-linecap:round;stroke-linejoin:round;stroke-width:24px"/><path d="M402.84,223h-5.71c-8.4-.23-15.89-2.24-20-10.54-.38-.76-1-.78-1.7-.81a31,31,0,0,1-3.6-.3c-1.12-.2-2.27-.56-2.43-2-.14-1.25.71-1.9,1.66-2.46a3.43,3.43,0,0,1,1-.53c3.67-.64,6.31-2.79,8.46-5.69a.62.62,0,0,1,.18-.14c1.47-.92,1-1.5-.28-2.13a11.13,11.13,0,0,1-5.73-5.88c-1-2.79-2.34-4.63-5.39-5.08a1.84,1.84,0,0,1-1.61-1.93c0-1.09.87-1.52,1.79-1.76a16.56,16.56,0,0,1,2.87-.65,2.73,2.73,0,0,0,2.52-1.87,19.55,19.55,0,0,1,7.37-8.38A31.5,31.5,0,0,1,398.93,168c3.1-.09,2.94,0,2.94-3.17,0-2-.48-3.32-2.47-3.92a3.54,3.54,0,0,1-1.09-.79c-.91-.8-2-1.59-1.52-3a2.42,2.42,0,0,1,2.95-1.55,8.76,8.76,0,0,0,8.45-2.83,6.54,6.54,0,0,1,1.73-1.06c5.81-3.2,12.13-4.06,18.62-3.84,13.53.46,26.89,2.06,39.79,6.44a2.57,2.57,0,0,0,3-.57,7.89,7.89,0,0,1,7.33-2,19.73,19.73,0,0,1,11.12,6.5c1.92,2.07,2,2,2.77-.55a176.64,176.64,0,0,0,5.9-79.9c-3.87-24.59-16.92-42.17-40.56-50.94-25.69-9.52-50.41-7.46-73.57,7.71-9.76,6.39-17.37,15.14-24.81,24A213.81,213.81,0,0,0,343.9,79c-2,3.06-2.77,3-5,.28-3.28-4-6.56-8.08-9.79-12.16a250.23,250.23,0,0,0-17.9-20.73c-23.69-24-51.84-30.74-83.87-20.88-15.44,4.75-28,13.7-36.1,28.09-7.07,12.57-9.06,26.42-9.91,40.53-.1,1.67.75,1.29,1.64.69a38.88,38.88,0,0,1,9.74-4.74c5.06-1.61,9.06.61,10.32,5.78a17,17,0,0,1,0,7.64c-2.47,11-8.76,19.21-18.44,24.85-1.39.82-2,1.62-1.64,3.21.85,4.14,1.65,8.29,2.37,12.45.27,1.54,1,2.07,2.57,2.19,16.19,1.31,32.39,2,48.62,1,21.68-1.35,43.3-.12,64.88,1.85,5.75.53,11.35,2,15.77,6.1,5.7,5.31,5.15,12.46-1.18,17a7.33,7.33,0,0,0-2.77,2.35c4.26,0,8.11-.18,11.94,0,5.36.31,10.72.88,15.49,3.68,8.11,4.76,9,14.57,1.83,20.7a24.31,24.31,0,0,1-7.44,4.23c-1.31.49-1.74,1-.54,2.17a8.78,8.78,0,0,1,2.49,5c.8,4.77-1.77,9.66-6.84,12.77a31.89,31.89,0,0,1-12.76,4.4c-6.13.77-12.3,1.33-18.45,2-1.23.13-2,.29-1.06,1.9,3.07,5.32,2.09,11.2-2.4,15.42A21.9,21.9,0,0,1,285.34,252c-6.09,1.45-12.18,3-18.35,4-6.77,1.1-13.63,1.68-20.45,2.45-1.9.21-2.19.79-.88,2.29,3.39,3.85,6.59,7.87,10,11.68A703,703,0,0,0,339.75,352c.83.66,1.29.67,2.09,0,2-1.67,4-3.17,6-4.81a694.91,694.91,0,0,0,82.38-79.73c7.34-8.43,14.18-17.26,20.67-26.36.37-.52,1.1-1,.73-1.76s-1.23-.44-1.87-.43a51.51,51.51,0,0,1-11-1.23c-1.79-.36-3.63-.57-5,1-2.62,3-6.08,4.69-9.73,6-7.08,2.51-17.17,1.48-21.09-5.93-.51-1-1.2-.91-2.09-.64a32,32,0,0,1-3.73.86,1.73,1.73,0,0,1-2-.83c-.46-.85.1-1.42.63-2a18.08,18.08,0,0,1,3.7-3c.64-.4,1.34-.79,1.35-1.68A20.89,20.89,0,0,1,402.84,223Z" transform="translate(0.05 -0.03)" style="fill:#fff;stroke:#fff;stroke-linecap:round;stroke-linejoin:round;stroke-width:8px"/><path d="M429.19,143.35s60.54,13,60.54,14.78-6.06,9.44,4.14,9.76,70,3,70,3,9.78,3.63,8.83,12.57-6.7,15.85,2.3,22.6,1.91,16.63-4.15,16.63H485.27l-21.74,10.52-27.7,2.55-18.11,6.37h-2.87c-1.59,0-9.56-2.55-9.56-2.55S393.5,221,393.5,211.83s.64-36.3,4.14-39.48,8.29-12.43,12.11-11.79,17.66-1,16.64-5.78S421.08,141.59,429.19,143.35Z" transform="translate(0.05 -0.03)" style="fill:#fff"/><path d="M20.83,217.82l41.3-21.36,16.72-11.55,34.89-51.73,8.85-5.6,22.22-11.23L156,107.51l15.77-4.07,18.41-8.84s7.46-3.86,8.15-1.81a17.87,17.87,0,0,1,0,9.46c-1,3.82-5.53,11.71-5.53,11.71l-8.6,9.32-12.66,7.89-13.86,17.44L215.31,151l71.21-.48,26.05,5.5s5.5,3.58,5,8.36-6,8.65-6,8.65l-42,5,45.38.24s24.63,1.44,25,3.83,1.53,9.52,1.53,9.52l-10.28,8.11-29.87,3.87-18.88,3.59,41.1-3.35s6,1.68,6.22,3.59,0,8.82,0,8.82-5.21,6-7.38,6.23-23.91,2.39-23.91,2.39l-19.12,6.93s12.56-1.06,13.86,0,1.17,9.53-1.44,11.46-12.66,6.94-12.66,6.94l-46.36,8.61L211,265l-12.43,4.54-45.41,6-30.82-1.67L96.3,266l-10.75.71-46.84,16.2s-2.39-3.1,11.47-12.9,8.36-17.13,3.34-18-17.2-4.47-19.11-13.55S27.1,215.34,20.83,217.82Z" transform="translate(0.05 -0.03)" style="fill:#f4e2eb"/><path d="M452,226.52s-10.62,5.49-14.69,0-7.4-14.69-7.4-14.69-15.78-6.27-16.73-12.28a37.62,37.62,0,0,1,0-11.31s.24-5.82,3.58-6.6,14.5-1.49,15.62-4.59,13.48-10.89,13.48-10.89l10.43,3.48s12.79,12.49,2.34,21.56,9.2,22.74-.81,29.84S452,226.52,452,226.52Z" transform="translate(0.05 -0.03)" style="fill:#e077bd"/><path d="M280.89,238.09s.24,3.46,1.8,4.18,6.69,2.39,9.08,1,2.75-10.4,2.75-10.4-.84-5.81-3.65-2.78S280.48,236,280.89,238.09Z" transform="translate(0.05 -0.03)" style="fill:#ed40a9"/><path d="M315.19,213.35s.95-7.16,2.74-7.4,11.83,0,11.83,0v10.27s-5.44,2.83-10.63,1S315.07,214.09,315.19,213.35Z" transform="translate(0.05 -0.03)" style="fill:#ed40a9"/><path d="M322.38,189.7s-.18,6.31,3.56,7.74,11.23-1,11.23-1l-1.19-13Z" transform="translate(0.05 -0.03)" style="fill:#ed40a9"/><path d="M294.4,168.67s1.43-6.46,12.26-10.54c0,0,3.69,1.34,3.72,4.32s-.64,9.56-.64,9.56S294.4,178.7,294.4,168.67Z" transform="translate(0.05 -0.03)" style="fill:#ed40a9"/><path d="M191.52,92.79a7.73,7.73,0,0,1,6.57,4.5c1.91,4.37-6.57,7.69-6.57,7.69H182.8c-5,0-4.68-5.26-4.68-5.26Z" transform="translate(0.05 -0.03)" style="fill:#ed40a9"/><path d="M542.82,219.59c3.59-2.37,7.75-3.67,10.79-6.83a85.46,85.46,0,0,1-26,5.86c4.93-1.9,10.13-3,14.91-5.87-1.27-.57-2.06.1-2.9.31-12.52,3.17-30.79,5.87-43.83,5.22a34.19,34.19,0,0,0-6.55.35c-6.78,1-12.83,3.85-18.58,7.4a46.44,46.44,0,0,1-12.86,5.49,54.09,54.09,0,0,1-16.63,1.25c-4.79-.26-9.1.37-13.05,3.76-4.45,3.82-9.9,4.54-15.58,2.73a4.57,4.57,0,0,1-2.3-1.39c7.19,2.22,12,1.24,14.9-2.76a9.79,9.79,0,0,0-.25-12c-4.84-5.67-10.64-4.59-16.52-1.26a8.8,8.8,0,0,1,1.2-2.92c.44-1.11,2.5-2.09,1.36-3.11s-2.52.63-3.33,1.57c-2.57,3-5.48,1.86-9,1.16,4-1.37,7.62-2.43,9-6.33,1.47-4.2-2-6.43-4.26-9.13,1.57-.34,2.76.88,4.35.33-2.28-3.59-6.38-4.16-9.59-6.19.9-.93,1.94-1,2.8-1.39,3.36-1.68,6-4,6.11-8,.08-5.18-1.43-9.83-5.79-13.14-.3-.23-.88-.33-.69-1a7,7,0,0,1,3.52.65c2.06.72,4.07,1.59,6.13,2.33.7.25,1.57.45,2.09-.27s0-1.47-.36-2.1a12.78,12.78,0,0,0-3.61-3.38c-1-.68-1.91-1.41-1.85-2.85,1,0,1.48.68,2.08,1.07a19.57,19.57,0,0,0,13.62,3.06c8.47-1.11,11.53-8.11,6.58-15-.22-.3-.49-.58-.69-.9-.29-.47-1.1-.81-.67-1.5.3-.48,1-.27,1.48-.28,12.43-.34,24.43,2.24,36.39,5.24,1.8.45,2.29,1.23,2.21,3.12-.24,6.3,4.62,12.86,10.67,14.17-2.14-2.47-4.68-4.24-5.35-7.68,3.25,1.54,6.32,3.69,9.41.83s1.76-6.2.65-9.77a18.25,18.25,0,0,1,6.11,5.45,15.41,15.41,0,0,0,12.25,6.23c1.36,0,2.71.14,4.07.16,15.78.28,50.77-.48,66.45-2.29.55-.07,1.26.1,1.57-1-5,.37-9.85-.54-14.75-.44-9.07.18-18.1-.67-27.13-1.2-4.07-.23-27.38-.64-31.41-1.29-2-.31-2.67-1-1.93-3.17a160.83,160.83,0,0,0,7.07-29c3-20.82,3.65-41.65-.74-62.37-4.47-21.12-15.84-37.26-35.2-47.39a85.65,85.65,0,0,0-34.62-9.74c-23.85-1.48-45.1,5.1-63,21.26-11,10-20.12,21.65-29.28,33.26-1.28,1.62-1.87,1.6-3.1,0-4.68-6-9.32-12.07-14.28-17.85C318,43,310.8,35.12,301.88,29.18,276.05,12,248.49,9.73,219.82,20.79,201.08,28,187.65,41,180.55,60c-4.13,11.09-5.68,22.65-6.2,34.39-.3,6.73-.38,6.85-7.1,8.27a3.12,3.12,0,0,1-.44.09c-6.48.59-12,3.44-17,7.34A104,104,0,0,1,128,123a44.37,44.37,0,0,0-18.28,14.77c-1.69,2.32-3.39,4.63-5,7C96.54,156.13,89,168,80.56,179.21c-4.62,6.16-9.83,11.59-17,14.95-10.12,4.75-19.71,10.5-29.37,16.1-6.06,3.52-12,7.32-17.93,11-.54.34-1.52.72-1.24,1.39.39,1,1.34.29,2,.06a62.05,62.05,0,0,0,8.39-3.38c13-7.14,26.54-13,39.77-19.64a51.41,51.41,0,0,0,18-14.42q5.35-6.89,10.3-14.06c7.38-10.77,14.41-21.77,22.18-32.27a31.55,31.55,0,0,1,13.13-10.43,90.91,90.91,0,0,0,22-12.91c1.34-1.1,2.13-1.06,3.25.34,1.42,1.77,2.93,3.63,6.11,3.93a24.2,24.2,0,0,1-5-5.77c-.28-.43-.76-.85-.25-1.39a1,1,0,0,1,1.41,0l0,0c1.13.76,2.19,1.62,3.35,2.32,1.84,1.12,3.51,2.62,6.09,3.34a18,18,0,0,0-4-5.78c-.83-.8-2.6-1.21-2.35-2.38s1.95-1.2,3.06-1.61c1.7-.63,3.42-1.19,5.16-1.7a35.85,35.85,0,0,0,8.67-3.23c1.44-.86,2.1-.55,3.08.73,3,3.9,11.24,3.47,13.59-.59a3.71,3.71,0,0,0-2.21.15,14.15,14.15,0,0,1-8.16-1.2c-.55-.22-1.22-.48-1.32-1.13s.68-.91,1.17-1.19c2.58-1.41,5.23-2.71,7.74-4.23a3.84,3.84,0,0,1,4.77.18c.89.64,2.1,2.15,3,1.22s-.36-2.29-1.09-3.32a3.38,3.38,0,0,1,.15-.49c1.47.32,1.72,1.53,1.9,2.69a12.41,12.41,0,0,1-1,6.42,42.3,42.3,0,0,1-18.8,22.17,50.81,50.81,0,0,0-13.5,11.23,83.21,83.21,0,0,1-7,7.42,7.43,7.43,0,0,1-4.56,2.11,38.49,38.49,0,0,0-13.59,4c-.82.4-1.87.61-2.14,1.75a3,3,0,0,0,2.08,0,70.61,70.61,0,0,1,15.76-1.23c10.11.35,20.23.56,30.3,1.33a359.48,359.48,0,0,0,45,.84c19.23-1,38.46-1.36,57.68.18a106.21,106.21,0,0,1,17,2.65,17,17,0,0,1,7.48,3.59c3.74,3.37,2.87,9.65-1.51,11.16-.37-.75.06-1.47.12-2.2.19-2.73.22-5.44-1-8-1.08-2.36-3-3-5.19-1.7-.3.17-.71.5-.72.76,0,.61.6.66,1,.58,2.22-.48,2.5,1,2.73,2.59a23.67,23.67,0,0,1,.31,5.64c-.29,3.18-.93,3.9-4.05,4.41-1.26.21-2.56.23-3.82.43-2.4.38-3.93-1.08-5.08-2.71-1.05-1.48,0-3,.83-4.4.39-.64.9-1.22,1.32-1.84s1.21-1,.51-1.71-1.28.14-1.8.49c-1.87,1.3-3.59,2.74-4.36,5s.23,3.88,1.58,5.62a5.11,5.11,0,0,1-1.09.27c-11.08.33-22.19.35-33,3.26-1.22.33-1.22-.4-.95-1.28a29.69,29.69,0,0,0,1-7.38,10.29,10.29,0,0,0-2.08-6.53,8.37,8.37,0,0,0-.1,2c1,3.39.31,6.75-.15,10.1-.56,4-.61,4-4.67,4.07-5.73,0-11.49-.45-17.2.18-8.48.94-16.94,1.77-25.5,1.33-3.32-.18-6.67.34-10.64.58,1.66,1.11,2.93.85,4,1.21,9.72,3.12,19.63,2.64,29.59,1.59,4-.41,8-.52,12-.58a107.88,107.88,0,0,0,12.18-.85,150.62,150.62,0,0,1,21-1.55q21,.33,42.09.86a38.77,38.77,0,0,1,9.41,1.13,21,21,0,0,0-7.73,6.11,7.39,7.39,0,0,0-1.3,6.42,3.76,3.76,0,0,0,4.23,3.24,2.14,2.14,0,0,0,.44-.08c.05-.65-.58-.84-.87-1.25-2.13-3-2-4.78.62-7.36,2.2-2.19,5-2.93,7.93-3.55a1.34,1.34,0,0,1,1.67.92.83.83,0,0,1,0,.15,18.66,18.66,0,0,1,.39,9c-.1.66-.7.93-1.19,1.29a19.73,19.73,0,0,1-7.3,2.92,61.24,61.24,0,0,1-10.09,1.3,181.19,181.19,0,0,0-21.53,2.83A138.76,138.76,0,0,1,269,205.94c-12.84.08-25.58,1.89-38.31,3.45a51.32,51.32,0,0,0-19,6.19c-.45.26-1.2.3-1.09,1.18a2.58,2.58,0,0,0,.68,0c9.77-2,19.64-3.33,29.52-4.56,8.68-1.09,17.37-2.91,26.12-2.24a121,121,0,0,0,32-2.26A93.53,93.53,0,0,1,314.63,206c.64,0,1.54-.36,1.87.32s-.56,1.11-.95,1.6c-1.73,2.14-2.71,4.46-1.41,7.1s3.69,3.17,6.29,3.25c.61,0,1.58.25,1.64-.68,0-.77-.9-.61-1.42-.79a5.35,5.35,0,0,1-3.59-6.66,5.29,5.29,0,0,1,1.37-2.28c2-2.22,4.59-2.19,7.12-1.59,2.17.52,2.44,2.66,2.91,4.48.22.87.26,1.79.42,2.68.25,1.38.24,2.55-1.57,2.82-.48.08-1.62.52-.87,1,1.89,1.26-.06,1.36-.44,1.6a15.93,15.93,0,0,1-6.16,2.16c-3.43.53-6.87,1-10.32,1.34-7.68.69-15.34,1.43-22.52,4.59A61.49,61.49,0,0,1,263.47,232a225.49,225.49,0,0,0-34.9,3.15c-4.61.84-9.24,1.46-13.47,3.68-2.82,1.48-6.71,4.43-7.4,5.75.57.21,1-.16,1.5-.32,5.48-1.69,10.91-3.51,16.62-4.35,13.83-2,27.77-2.78,41.69-3.91,4.88-.39,9.62-1.58,14.94-2.72-2.51,2.58-4.27,5-2.05,8a5.71,5.71,0,0,0,6.3,2c-.41-.75-1.2-.83-1.88-1.09-3-1.14-3.6-3.28-1.71-5.83,1.52-2,6.1-3.64,8.61-3a1.69,1.69,0,0,1,1,.76,6,6,0,0,1,.18,6.43,10.59,10.59,0,0,1-6.39,5.07c-7.79,2.44-15.61,4.7-23.74,5.71-9.43,1.18-18.92,2-28.13,4.55-9.72,2.72-19.72,4.47-28.9,9A34.82,34.82,0,0,1,194,268.13c-11.33,1.23-22.58,3.06-33.88,4.44a105.28,105.28,0,0,1-35.36-1.32c-6.28-1.37-12.28-3.68-18.42-5.53A42.87,42.87,0,0,0,81,265.63L73.25,268c-13.62,4.08-26.48,10.16-39.77,15.1a39.26,39.26,0,0,0-8.63,4.29c6.74-.67,13.43-1.33,19.87-3.57,10.26-3.58,20.68-6.71,30.9-10.37a50.22,50.22,0,0,1,36.43.34c14.43,5.58,29.54,6.56,44.82,5.26,11.66-1,23.16-3.27,34.76-4.73a36,36,0,0,0,12.28-3.79c9.56-5,20-7.18,30.25-9.94a3,3,0,0,1,3.49,1.2c4.73,5.78,9.37,11.64,14.4,17.16a758.66,758.66,0,0,0,61.89,60.66c8.19,7.15,16.67,13.94,25.11,20.78,1.78,1.45,3.2,1.62,4.87-.08a82.6,82.6,0,0,1,7.05-6.7q16.78-13.5,32.45-28.22c28.45-26.56,55.69-54.22,77.62-86.63a3.85,3.85,0,0,1,2-1.79c5.42-1.61,10.09-4.74,15-7.44a35.1,35.1,0,0,1,18.65-4.66c5.65.21,30.57.3,36.23.41a335.77,335.77,0,0,0,47.66-2.09c2-.25,4.12,0,6.08-.86C576.51,221.54,553,220.15,542.82,219.59ZM177.23,145.78l-14.55-.51c4.45-4.08,7.68-8.55,12.2-11.73,1-.73,1.44-.3,1.64.79.58,3.27,1.2,6.53,1.82,9.78C178.52,145.05,178.47,145.82,177.23,145.78ZM340,191.91c-.6-2.56-1.14-4.91-1.7-7.33C341.13,185.83,341.92,189,340,191.91Z" transform="translate(0.05 -0.03)" style="fill:#474747;stroke:#474747;stroke-miterlimit:10;stroke-width:0.25px"/><path d="M463.47,177.6c-1.69-.62-2.46-2.33-4.35-2.56,1.05,2.67,4.07,4.08,4.35,7.66-3.81-3.67-6.89-7.24-10.79-10-5.18-3.63-11.05-2.57-14,2.91-1.85,3.39-4.25,5.74-8.25,6.28a62.67,62.67,0,0,0-7.3,1.53c-7.27,1.87-10.19,9.15-6.28,15.59a19,19,0,0,0,7.21,6.71c1.32.73,2.68,1.38,4,2a9,9,0,0,1,4.78,5.46,43.67,43.67,0,0,0,3.39,7.39c2.08,3.73,4.86,4.83,8.95,3.68a21.73,21.73,0,0,0,11.66-8.47c.78-1.06,1.3-2.38,2.84-3,.21,2.24-.7,4.18-1,6.17.77.36,1-.63,1.79-.43a5.26,5.26,0,0,1-.9,3.33c-4.19,7.48-13.9,12.42-23.27,7.24-4.33-2.39-6.62-6.29-7.39-11.08a4,4,0,0,0-2.55-3.37c-3.78-1.71-7.56-3.45-10.67-6.3-5.86-5.37-9-11.74-6.9-19.81,2.25-8.63,9.26-13.09,18-11.44,2.23.42,3.32-.19,4.22-2.15,1.72-3.72,3.85-7.14,7.43-9.49,3-2,6.13-2.89,9.65-2,6.67,1.7,12,5.1,14.86,11.71a13.31,13.31,0,0,1,.55,1.49A3,3,0,0,1,463.47,177.6Z" transform="translate(0.05 -0.03)" style="fill:#474747;stroke:#474747;stroke-miterlimit:10;stroke-width:0.25px"/><path d="M515,215.43a103.78,103.78,0,0,0,19-4.9c6-2.33,12.08-4.54,18-8.29C547.53,209.43,523.57,217.85,515,215.43Z" transform="translate(0.05 -0.03)" style="fill:#474747"/><path d="M473.18,196.46a10.24,10.24,0,0,1-4.64,2.08c-7.28,2-13.75,5.64-20,9.74-.74.49-1.68,1.7-2.47.7-.68-.85.49-1.76,1.12-2.44A28.23,28.23,0,0,1,462.74,198C466.18,197.32,469.6,196.43,473.18,196.46Z" transform="translate(0.05 -0.03)" style="fill:#474747"/><path d="M448.74,214.65c-.81.11-1.21.1-1.45-.24a1,1,0,0,1,.23-1.2c2.49-2.84,5.19-5.42,8.83-6.77.75-.28,1.73-.73,2.27.09s-.48,1.31-1,1.74c-2,1.79-4.08,3.54-6.24,5.16A11.11,11.11,0,0,1,448.74,214.65Z" transform="translate(0.05 -0.03)" style="fill:#474747"/><path d="M460.88,187.23c-3-3.25-6.25-6.13-8.54-9.86-.22-.37-.57-.81-.12-1.21a.83.83,0,0,1,.81,0c3.5,2.06,6.54,4.59,8.09,8.49A2.55,2.55,0,0,1,460.88,187.23Z" transform="translate(0.05 -0.03)" style="fill:#474747"/><path d="M448.85,221a.88.88,0,0,1-.56-.27.78.78,0,0,1,.13-1q3.79-4.46,7.6-8.89c.25-.29.58-.58,1-.37.18.11.27.49.29.76C457.49,214,451.71,220.89,448.85,221Z" transform="translate(0.05 -0.03)" style="fill:#474747"/><path d="M254.19,173a26.72,26.72,0,0,1-2.85-12,1.07,1.07,0,0,1,.6-1.13c.62-.23,1,.27,1.25.71a3.43,3.43,0,0,1,.6,1.21C254.34,165.36,255.2,168.91,254.19,173Z" transform="translate(0.05 -0.03)" style="fill:#474747"/><path d="M460.43,190.43c0,.61,0,1-.38,1.2a1.22,1.22,0,0,1-1.42-.43c-1.47-1.52-2.88-3.09-4.3-4.64a9.6,9.6,0,0,1-.86-1.05c-.43-.65-1.76-1.11-1.18-1.9s1.64,0,2.42.36a11.79,11.79,0,0,1,5.08,5C460.07,189.51,460.28,190.07,460.43,190.43Z" transform="translate(0.05 -0.03)" style="fill:#474747"/><path d="M458.15,197a30,30,0,0,1-9.32,5.12c-.43.13-1,.17-1.23-.27-.34-.64.09-1.18.57-1.56A13.91,13.91,0,0,1,458.15,197Z" transform="translate(0.05 -0.03)" style="fill:#474747"/><path d="M269.32,229.82a4.58,4.58,0,0,1-1-3.75c.26-2.31.56-4.61.87-6.92.09-.63-.06-1.68.7-1.71,1-.05,1.06,1.07,1.22,1.84C271.6,221.52,270.63,227.32,269.32,229.82Z" transform="translate(0.05 -0.03)" style="fill:#474747"/><path d="M272,193.93V198c0,.6.46,1.57-.48,1.7-.73.1-1-.8-1.24-1.43a12,12,0,0,1-.6-4.45,23.91,23.91,0,0,1,.69-4.91c.13-.65,0-1.84,1-1.68.83.14.64,1.24.65,2V194Z" transform="translate(0.05 -0.03)" style="fill:#474747"/><path d="M274.78,199.61c.56-5,1.06-9.83-1-14.7C277.93,186.77,278.5,196.54,274.78,199.61Z" transform="translate(0.05 -0.03)" style="fill:#474747"/><path d="M241.08,252c-1.89-3.67-1.1-6.77-.09-9.86a.74.74,0,0,1,.87-.56c.61.18.66.76.71,1.28A19.88,19.88,0,0,1,241.08,252Z" transform="translate(0.05 -0.03)" style="fill:#474747"/><path d="M455,192.07c1,.31,2.69-.32,2.85,1.08.1.93-1.56.86-2.45,1.09a53.57,53.57,0,0,1-5.32,1c-.71.11-1.68.35-1.91-.64-.19-.84.71-1,1.32-1.27A25.32,25.32,0,0,1,455,192.07Z" transform="translate(0.05 -0.03)" style="fill:#474747"/><path d="M308.39,196.23c.47-3.07.06-6.2.58-9.27C309.8,190.12,310.21,193.25,308.39,196.23Z" transform="translate(0.05 -0.03)" style="fill:#474747"/><path d="M265.52,240.66c1.21,2.36,1.37,4.09.2,6.26C264.48,244.85,264.62,243.09,265.52,240.66Z" transform="translate(0.05 -0.03)" style="fill:#474747"/><path d="M402.84,223h-5.71c-8.4-.23-15.89-2.24-20-10.54-.38-.76-1-.78-1.7-.81a31,31,0,0,1-3.6-.3c-1.12-.2-2.27-.56-2.43-2-.14-1.25.71-1.9,1.66-2.46a3.43,3.43,0,0,1,1-.53c3.67-.64,6.31-2.79,8.46-5.69a.62.62,0,0,1,.18-.14c1.47-.92,1-1.5-.28-2.13a11.13,11.13,0,0,1-5.73-5.88c-1-2.79-2.34-4.63-5.39-5.08a1.84,1.84,0,0,1-1.61-1.93c0-1.09.87-1.52,1.79-1.76a16.56,16.56,0,0,1,2.87-.65,2.73,2.73,0,0,0,2.52-1.87,19.55,19.55,0,0,1,7.37-8.38A31.5,31.5,0,0,1,398.93,168c3.1-.09,2.94,0,2.94-3.17,0-2-.48-3.32-2.47-3.92a3.54,3.54,0,0,1-1.09-.79c-.91-.8-2-1.59-1.52-3a2.42,2.42,0,0,1,2.95-1.55,8.76,8.76,0,0,0,8.45-2.83,6.54,6.54,0,0,1,1.73-1.06c5.81-3.2,12.13-4.06,18.62-3.84,13.53.46,26.89,2.06,39.79,6.44a2.57,2.57,0,0,0,3-.57,7.89,7.89,0,0,1,7.33-2,19.73,19.73,0,0,1,11.12,6.5c1.92,2.07,2,2,2.77-.55a176.64,176.64,0,0,0,5.9-79.9c-3.87-24.59-16.92-42.17-40.56-50.94-25.69-9.52-50.41-7.46-73.57,7.71-9.76,6.39-17.37,15.14-24.81,24A213.81,213.81,0,0,0,343.9,79c-2,3.06-2.77,3-5,.28-3.28-4-6.56-8.08-9.79-12.16a250.23,250.23,0,0,0-17.9-20.73c-23.69-24-51.84-30.74-83.87-20.88-15.44,4.75-28,13.7-36.1,28.09-7.07,12.57-9.06,26.42-9.91,40.53-.1,1.67.75,1.29,1.64.69a38.88,38.88,0,0,1,9.74-4.74c5.06-1.61,9.06.61,10.32,5.78a17,17,0,0,1,0,7.64c-2.47,11-8.76,19.21-18.44,24.85-1.39.82-2,1.62-1.64,3.21.85,4.14,1.65,8.29,2.37,12.45.27,1.54,1,2.07,2.57,2.19,16.19,1.31,32.39,2,48.62,1,21.68-1.35,43.3-.12,64.88,1.85,5.75.53,11.35,2,15.77,6.1,5.7,5.31,5.15,12.46-1.18,17a7.33,7.33,0,0,0-2.77,2.35c4.26,0,8.11-.18,11.94,0,5.36.31,10.72.88,15.49,3.68,8.11,4.76,9,14.57,1.83,20.7a24.31,24.31,0,0,1-7.44,4.23c-1.31.49-1.74,1-.54,2.17a8.78,8.78,0,0,1,2.49,5c.8,4.77-1.77,9.66-6.84,12.77a31.89,31.89,0,0,1-12.76,4.4c-6.13.77-12.3,1.33-18.45,2-1.23.13-2,.29-1.06,1.9,3.07,5.32,2.09,11.2-2.4,15.42A21.9,21.9,0,0,1,285.34,252c-6.09,1.45-12.18,3-18.35,4-6.77,1.1-13.63,1.68-20.45,2.45-1.9.21-2.19.79-.88,2.29,3.39,3.85,6.59,7.87,10,11.68A703,703,0,0,0,339.75,352c.83.66,1.29.67,2.09,0,2-1.67,4-3.17,6-4.81a694.91,694.91,0,0,0,82.38-79.73c7.34-8.43,14.18-17.26,20.67-26.36.37-.52,1.1-1,.73-1.76s-1.23-.44-1.87-.43a51.51,51.51,0,0,1-11-1.23c-1.79-.36-3.63-.57-5,1-2.62,3-6.08,4.69-9.73,6-7.08,2.51-17.17,1.48-21.09-5.93-.51-1-1.2-.91-2.09-.64a32,32,0,0,1-3.73.86,1.73,1.73,0,0,1-2-.83c-.46-.85.1-1.42.63-2a18.08,18.08,0,0,1,3.7-3c.64-.4,1.34-.79,1.35-1.68A20.89,20.89,0,0,1,402.84,223Z" transform="translate(0.05 -0.03)" style="fill:#eab9e5"/><path d="M475.44,83.66c-9.8-39.06-59.12-51.72-75.19-30.13-4.19,5.62-4.42,13.48-3.38,17.57,2.19,8.66,11,16.3,23.84,14.9,31.29-3.4,33.13,29.33,34.47,39.1,1.11,8.08,4,11.11,10,9.83C473.18,133.25,482,109.84,475.44,83.66Z" transform="translate(0.05 -0.03)" style="fill:#fcebf6"/><path d="M418.44,156.52a11,11,0,0,0-6.44,0c-2.88,1-5,4.3-3.28,7.19s6.11,3.58,9,4.16,6.68.35,7.65-3.18C426.63,160.17,422.63,157.38,418.44,156.52Z" transform="translate(0.05 -0.03)" style="fill:#e077bd"/><path d="M400.31,183a6.67,6.67,0,0,0-4-4.84,9.83,9.83,0,0,0-6-1.49c-4.18.38-8.64,3.7-9,8.06-1.29,4.84,3.76,7.36,8,7.69,4.68.36,11.53-.89,11.48-6.88A8.14,8.14,0,0,0,400.31,183Z" transform="translate(0.05 -0.03)" style="fill:#e077bd"/><path d="M402.75,208.78c-.47-4.55-6.51-6-10.26-5.83a2.66,2.66,0,0,0-.73.07,10,10,0,0,0-6,1.65,5.41,5.41,0,0,0,0,9.08c1.92,1.32,4.33,1.48,6.59,1.46s5.22,0,7.17-1.24a4.65,4.65,0,0,0,.9-.76A4.47,4.47,0,0,0,402.75,208.78Z" transform="translate(0.05 -0.03)" style="fill:#e077bd"/><path d="M422.41,227.46c-2-8.28-17.49-4.06-13.69,4.94C411.55,239.14,425.58,235.83,422.41,227.46Z" transform="translate(0.05 -0.03)" style="fill:#e077bd"/><path d="M477.94,159.84c-2.12-2.6-5.7-2.33-6.79-.35-1,1.77.32,5,2.37,6.8C478.11,170.25,481.33,164,477.94,159.84Z" transform="translate(0.05 -0.03)" style="fill:#e077bd"/><path d="M356.23,310.63c10,6.79,23.83-5.15,27.64-11.16,9.19-14.52-15.71-25.07-18.78-7C362.68,306.7,353.27,305.56,356.23,310.63Z" transform="translate(0.05 -0.03)" style="fill:#fcebf6"/><path d="M349.23,282.28c-5.62,0-5.63,8.73,0,8.73S354.86,282.28,349.23,282.28Z" transform="translate(0.05 -0.03)" style="fill:#fcebf6"/><path d="M161.68,145.27l14.55.51c1.24,0,1.29-.73,1.11-1.67-.62-3.25-1.24-6.51-1.83-9.78-.19-1.09-.6-1.52-1.63-.79C169.36,136.72,166.13,141.19,161.68,145.27Z" transform="translate(0.05 -0.03)" style="fill:#f3ecf1"/></g></g></svg>