<svg id="Layer_1" data-name="Layer 1" xmlns="http://www.w3.org/2000/svg" viewBox="0 0 347 385"><title>diamond</title><g id="Layer_2" data-name="Layer 2"><g style="opacity:0.12"><path d="M74.32,205c21.43,27.88,42.77,55.82,64.27,83.64,13.78,17.82,27.08,36,41.64,53.22,3.49,4.13,4.24,4.11,7.33-.37.52-.75,1-1.5,1.53-2.26,22.21-33.49,44.51-66.91,66.58-100.49,16.71-25.44,34.35-50.25,50.51-76.06,2.28-3.65,2.27-6.23-.57-9.67-10.28-12.44-20.24-25.13-30.28-37.76-3.25-4.1-2-8.15,3-9.89a11.87,11.87,0,0,1,6.76-.12c5.27,1.22,9.8,4.1,14.57,6.44,1.63.79,3.1,2.16,5.4,1.83-1.19-2.85-3.35-4.38-5.07-6.26-4.43-4.81-9.3-9.28-12.25-15.24-2.71-5.49-1.13-9.39,4.56-11.6a16.71,16.71,0,0,1,8.06-1.17c1.42.17,3,.89,4.52-.59-2.1-2.42-5.09-3.24-7.66-4.69-5.34-3-6.76-6-5.84-12.06.71-4.75,2.88-8.93,5-13.17,2.32-4.69,5.58-8.92,7.44-14.11-2.35,0-3.16,1.61-4.29,2.69-6,5.82-11.79,11.94-18.84,16.55-7.84,5.12-14.35,3.6-19.24-4.4a59.08,59.08,0,0,1-4.61-9.91c-2-5.32-2.73-11-4.48-17.51a16.92,16.92,0,0,0-1,2.68c-.59,5.45-.64,11-1.81,16.33-3.06,13.87-10.7,17-22,10C221,47,215.86,41.36,210.74,35.71c-1.49-1.63-2.6-3.77-5.38-4.59a10.28,10.28,0,0,0,1.49,5.18c3.17,6.74,6.67,13.36,7.88,20.83.23,1.45.89,3.28-.43,4.33s-2.87-.25-4.11-1a31,31,0,0,0-15.71-4.07c-12.78-.27-25.57-.68-38.35-1.08a10.36,10.36,0,0,0-5.63,1.56q-23.15,13.25-46.32,26.54a12.69,12.69,0,0,0-4.42,3.88c-17.05,25.93-35.22,51.13-51.44,77.61-1.58,2.59-1.74,4.42.23,6.91C57.25,182.78,65.79,193.87,74.32,205Z" transform="translate(0.02 -0.04)" style="fill:#6a374f;stroke:#6a374f;stroke-linecap:round;stroke-linejoin:round;stroke-width:28px"/><path d="M268.88,346.35c-2.43-.16-4.87-.19-7.3-.2-26.34-.13-52.64.88-79,2.19-29.8,1.47-59.54,3.71-89.29,5.92-1.46.1-2.91.43-4.36.66a143.31,143.31,0,0,0,26.57,1.94c9-.13,18-.3,26.94-.36,8.57-.07,17.15,0,25.73,0-21.16,3.9-42.6,5.61-63.54,10.88a38.92,38.92,0,0,0,9.84,1.3c21,.52,42,1.14,63,1.45,23,.33,46,1,68.9-1.43,1.6-.18,3.5.32,5-1.63-8-2.22-16-.39-23.66-2.29.53-1.7,1.6-1.62,2.42-1.7,14-1.47,26.6-7.29,39.12-13.24,1-.49,2.72-.77,2.55-2.19S270,346.42,268.88,346.35Z" transform="translate(0.02 -0.04)" style="fill:#6a374f;stroke:#6a374f;stroke-linecap:round;stroke-linejoin:round;stroke-width:28px"/><path d="M237.42,312c-5.76,5.07-11.19,10.52-17.61,16.58,3.77.24,5.3-1.17,6.92-2.18,26.54-16.65,53.12-33.23,79.54-50.07,7.81-5,15.2-10.63,22.69-16.09,2.6-1.89,4.59-4.46,2.75-7.81-1.7-3.07-4.84-2.86-7.73-2.12a39.33,39.33,0,0,0-6.82,2.53,103.38,103.38,0,0,0-14.87,8.88A713.33,713.33,0,0,0,237.42,312Z" transform="translate(0.02 -0.04)" style="fill:#6a374f;stroke:#6a374f;stroke-linecap:round;stroke-linejoin:round;stroke-width:28px"/><path d="M55,263.86a4.85,4.85,0,0,0-5.54.82c-1.66,1.66-1.83,3.74-1.1,5.94a13.25,13.25,0,0,0,4.58,6.14,103,103,0,0,0,10.62,7.87q36.28,22,72.76,43.66c4.1,2.45,8,5.34,12.59,6.91.22-.31.43-.63.65-.95-1.3-1.21-2.54-2.5-3.91-3.64-27.6-23-56.55-44.2-86.23-64.43A23.29,23.29,0,0,0,55,263.86Z" transform="translate(0.02 -0.04)" style="fill:#6a374f;stroke:#6a374f;stroke-linecap:round;stroke-linejoin:round;stroke-width:28px"/><path d="M127,340.6a17.32,17.32,0,0,0-6.26-3.41q-38.55-14.31-78.29-24.8c-4-1.05-8-2.09-12-2.95-3.2-.68-6.89-1.19-8.19,2.71s2.13,5.61,5,7.07a29.79,29.79,0,0,0,6,2.14c29.32,7.59,59.14,13,88.68,19.58C123.36,341.27,124.87,341.81,127,340.6Z" transform="translate(0.02 -0.04)" style="fill:#6a374f;stroke:#6a374f;stroke-linecap:round;stroke-linejoin:round;stroke-width:28px"/><path d="M325.9,291c-3.58-.54-7,.42-10.26,1.66a437.36,437.36,0,0,0-62.57,29.83c-1,.56-2.4.84-2.3,2.8,2.75.49,5.3-.44,7.84-1.2l60.36-18c3.48-1,7.11-1.95,9.94-4.44,1.88-1.65,3.38-3.67,2.48-6.39S328.49,291.37,325.9,291Z" transform="translate(0.02 -0.04)" style="fill:#6a374f;stroke:#6a374f;stroke-linecap:round;stroke-linejoin:round;stroke-width:28px"/><path d="M205.11,31.73c2.78.82,3.89,3,5.37,4.59,5.13,5.65,10.27,11.25,16.81,15.34,11.32,7.07,19,3.91,22-10,1.17-5.32,1.21-10.88,1.81-16.33a16,16,0,0,1,1-2.68c1.75,6.51,2.45,12.19,4.48,17.51a59.08,59.08,0,0,0,4.61,9.91c4.89,8,11.4,9.52,19.24,4.4,7.05-4.61,12.82-10.73,18.84-16.55,1.13-1.08,1.94-2.74,4.29-2.69-1.86,5.19-5.12,9.41-7.44,14.11-2.08,4.24-4.25,8.42-5,13.17-.92,6.09.5,9,5.84,12.06,2.57,1.45,5.56,2.27,7.66,4.69-1.56,1.48-3.1.76-4.52.59A16.71,16.71,0,0,0,292,81c-5.69,2.21-7.27,6.11-4.56,11.6,2.95,6,7.82,10.43,12.25,15.24,1.72,1.88,3.88,3.41,5.07,6.26-2.3.33-3.77-1-5.4-1.83-4.77-2.34-9.3-5.22-14.57-6.44a11.87,11.87,0,0,0-6.76.12c-5,1.74-6.27,5.79-3,9.89,10,12.63,20,25.32,30.27,37.76,2.85,3.44,2.86,6,.57,9.67-16.15,25.81-33.79,50.62-50.5,76.06-22.07,33.58-44.37,67-66.58,100.49-.5.76-1,1.51-1.53,2.26-3.1,4.48-3.84,4.5-7.33.37-14.56-17.21-27.87-35.4-41.64-53.22-21.5-27.82-42.84-55.76-64.27-83.64C65.54,194.56,57,183.47,48.3,172.5c-2-2.49-1.81-4.32-.23-6.91C64.29,139.11,82.46,113.91,99.51,88a12.41,12.41,0,0,1,4.42-3.88q23.17-13.29,46.32-26.61A10.36,10.36,0,0,1,155.88,56c12.78.4,25.57.81,38.35,1.08a31,31,0,0,1,15.71,4.07c1.24.74,2.67,2.14,4.11,1s.66-2.88.43-4.33c-1.21-7.47-4.72-14.09-7.88-20.83A10.29,10.29,0,0,1,205.11,31.73Z" transform="translate(0.02 -0.04)" style="fill:#6a374f"/><path d="M176.7,321.88Q158.82,263.46,141,205a10.19,10.19,0,0,0-5.93-6.94c-2.5-1.14-5.17-2.2-7.23-4.42,1.88-1.34,3.59-.78,5.15-.52,3.24.52,4.14-.83,3.66-3.82-3-18.41-5.59-36.85-6-55.53-.39-2.24-.84-4.48-1.31-6.71l-.66-.15-.42-.12a6.89,6.89,0,0,0-1.87.86q-29.34,18-58.8,36c-1.24.76-3.16,1.25-3,3,.15,1.5,2,1.7,3.2,2.2,7.88,3.25,15.83,6.32,23.65,9.69,5.27,2.27,10.36,4.94,15.56,7.46-14.83-2.34-28.61-7.62-42.71-11.87-1.21-.36-2.7-1.75-3.7-.27s.65,2.48,1.45,3.52c7.44,9.63,15,19.18,22.34,28.86Q129,264.88,173.62,323.58c.86,1.13,1.41,2.72,3.39,3.08C177.79,325,177.17,323.42,176.7,321.88Z" transform="translate(0.02 -0.04)" style="fill:#6a374f;stroke:#6a374f;stroke-miterlimit:10"/><path d="M217,50.47a85.26,85.26,0,0,1,2.52,14c.19,2,1.7,3.06,3.41,3.94,5.55,2.85,11,6,16.6,8.64a31.27,31.27,0,0,1,11.85,9.69c4.73,6.16,9.72,12.11,14.49,18.24,1.79,2.3,3.25,3,5.16.16a11.46,11.46,0,0,1,8.82-5.06c3-.28,3.86-1.16,2.72-4.33-3-8.38-1.66-12.41,5.56-17.51,1.9-1.34,1.86-2.48.56-4.07-3.66-4.52-3.42-9.54-1.79-14.71.27-.85.8-1.68-.15-2.8-2.6.71-4.42,2.91-6.76,4.2-8.24,4.54-15.62,3.16-21.46-4.22a33.52,33.52,0,0,1-3.45-5.36c-1.39-2.69-2.23-3.89-4.32-.27-6.38,11-16.35,12.72-26.47,4.88C222.17,54.27,220.53,52,217,50.47Zm48.62,67.78a2.6,2.6,0,0,0-.16-3.09c-6-7.64-12.12-15.26-18.17-22.88-1.53-1.92-3-1.61-4.56,0q-4.65,4.71-9.43,9.29c-.84.81-1.87,2.17-3,1.37-1.41-1,0-2.18.51-3.16A58.42,58.42,0,0,1,238,88.7c2.19-2.58,1.52-4.22-1.31-5.64-4.76-2.39-9.52-4.79-14.15-7.43-3.09-1.76-4.69-.9-5.8,2.24-1.69,4.77-5,8.27-9.08,11.12-1.29.89-3.69,1-3.53,3.09s2.58,1.75,4,2.33c7.84,3.19,8.69,5,5.22,12.34-1,2.08-.41,3,1.73,2.71,7.32-.84,13.27,1.29,18.5,6.74,2.33,2.42,6.79,5.32,9.77,2.57,7.5-6.93,14.55-8.2,22.29-.52Z" transform="translate(0.02 -0.04)" style="fill:#6a374f;stroke:#6a374f;stroke-miterlimit:10"/><path d="M219.56,329.23c6.42-6.06,11.85-11.51,17.61-16.58A716,716,0,0,1,302,262.37a103.38,103.38,0,0,1,14.87-8.88,39.33,39.33,0,0,1,6.82-2.53c2.89-.74,6-1,7.72,2.12,1.84,3.35-.14,5.92-2.74,7.81C321.22,266.35,313.83,272,306,277c-26.41,16.84-53,33.42-79.53,50.07C224.86,328.06,223.33,329.47,219.56,329.23Z" transform="translate(0.02 -0.04)" style="fill:#6a374f"/><path d="M148.64,335.89c-4.58-1.57-8.49-4.46-12.59-6.91Q99.6,307.26,63.29,285.32a105,105,0,0,1-10.63-7.87,13.3,13.3,0,0,1-4.57-6.14c-.74-2.2-.56-4.28,1.1-5.94a4.85,4.85,0,0,1,5.54-.82,23.29,23.29,0,0,1,4.42,2.32c29.68,20.23,58.63,41.43,86.23,64.43,1.37,1.14,2.61,2.43,3.91,3.64Z" transform="translate(0.02 -0.04)" style="fill:#6a374f"/><path d="M126.74,341.29c-2.12,1.21-3.63.67-5.07.34-29.54-6.6-59.36-12-88.68-19.58a29.22,29.22,0,0,1-6-2.15c-2.84-1.45-6.27-3.14-5-7.06s5-3.39,8.19-2.71c4,.86,8,1.9,12,2.95q39.75,10.47,78.29,24.79A17.38,17.38,0,0,1,126.74,341.29Z" transform="translate(0.02 -0.04)" style="fill:#6a374f"/><path d="M250.52,326c-.1-1.95,1.32-2.23,2.3-2.79a437.36,437.36,0,0,1,62.57-29.83c3.28-1.24,6.68-2.2,10.26-1.66,2.59.38,4.64,1.65,5.49,4.22.9,2.72-.6,4.74-2.48,6.39-2.83,2.49-6.46,3.39-9.94,4.44q-30.15,9.11-60.36,18C255.82,325.52,253.26,326.45,250.52,326Z" transform="translate(0.02 -0.04)" style="fill:#6a374f"/><path d="M205.11,31.73c2.78.82,3.89,3,5.37,4.59,5.13,5.65,10.27,11.25,16.81,15.34,11.32,7.07,19,3.91,22-10,1.17-5.32,1.21-10.88,1.81-16.33a16,16,0,0,1,1-2.68c1.75,6.51,2.45,12.19,4.48,17.51a59.08,59.08,0,0,0,4.61,9.91c4.89,8,11.4,9.52,19.24,4.4,7.05-4.61,12.82-10.73,18.84-16.55,1.13-1.08,1.94-2.74,4.29-2.69-1.86,5.19-5.12,9.41-7.44,14.11-2.08,4.24-4.25,8.42-5,13.17-.92,6.09.5,9,5.84,12.06,2.57,1.45,5.56,2.27,7.66,4.69-1.56,1.48-3.1.76-4.52.59A16.71,16.71,0,0,0,292,81c-5.69,2.21-7.27,6.11-4.56,11.6,2.95,6,7.82,10.43,12.25,15.24,1.72,1.88,3.88,3.41,5.07,6.26-2.3.33-3.77-1-5.4-1.83-4.77-2.34-9.3-5.22-14.57-6.44a11.87,11.87,0,0,0-6.76.12c-5,1.74-6.27,5.79-3,9.89,10,12.63,20,25.32,30.27,37.76,2.85,3.44,2.86,6,.57,9.67-16.15,25.81-33.79,50.62-50.5,76.06-22.07,33.58-44.37,67-66.58,100.49-.5.76-1,1.51-1.53,2.26-3.1,4.48-3.84,4.5-7.33.37-14.56-17.21-27.87-35.4-41.64-53.22-21.5-27.82-42.84-55.76-64.27-83.64C65.54,194.56,57,183.47,48.3,172.5c-2-2.49-1.81-4.32-.23-6.91C64.29,139.11,82.46,113.91,99.51,88a12.41,12.41,0,0,1,4.42-3.88q23.17-13.29,46.32-26.61A10.36,10.36,0,0,1,155.88,56c12.78.4,25.57.81,38.35,1.08a31,31,0,0,1,15.71,4.07c1.24.74,2.67,2.14,4.11,1s.66-2.88.43-4.33c-1.21-7.47-4.72-14.09-7.88-20.83A10.29,10.29,0,0,1,205.11,31.73ZM184.34,326.8c1.25-2.4,2-3.67,2.61-5,17.61-42.76,35.46-85.41,55.39-127.16,1.39-2.92,1.07-4.49-1.39-6.48q-26.76-21.75-53.31-43.76c-3.12-2.59-4.68-2-6.73,1.16-9.81,15.05-19.81,30-29.68,45-.88,1.34-2.69,2.72-1.87,4.39,1,2.06,3.28,1,4.95.84,19.29-1.42,38.56-3.09,57.91-3.46,4.2-.08,8.43-.28,13,.84a18.32,18.32,0,0,1-7.33,2.43c-21.82,3.56-43.83,5.27-65.83,7.11-5.69.48-5.94.87-4.27,6.32,9.57,31.27,19.05,62.56,28.68,93.81C178.87,310.44,180.74,318.28,184.34,326.8ZM60.82,159.16c2,.21,3.17-.92,4.47-1.64q26-14.4,51.9-28.81c2.79-1.54,5.65-3,8.57-4.29,1.72-.75,4-1.15,4.35,1.45s1.56,4.91,2.23,7.4c4.64,17.24,6.88,34.91,9.27,52.55.17,1.25-.36,3.09,1.45,3.41,1.39.25,1.9-1.27,2.56-2.27,9.73-14.73,19.41-29.49,29.26-44.14,2.18-3.25,1.6-4.71-2-5.87-9.73-3.06-19.23-6.77-28.63-10.73-1.81-.76-3.83-1.38-5.37-3.5a18.2,18.2,0,0,1,8.13.69c10.27,2.83,20.58,5.52,30.77,8.6a9.91,9.91,0,0,0,8.21-.93c7.91-4.24,15.95-8.23,23.9-12.41,2.6-1.37,5.61-2.07,8.37-4.86-7.44-2-14,1.38-20.75.79,3.42-3.1,7-5.63,10.43-8.34,1.77-1.39,3.8-2.91,3.31-5.58s-3.11-3-5.24-3.7a67.76,67.76,0,0,0-14.32-2.76,14.74,14.74,0,0,1-7.29-2c5.06-1,9.07-1.65,13-2.59,8-1.94,13.33-6.95,15.86-14.85.47-1.48,1-3-.4-4.23s-2.85-.22-4.13.54c-5.9,3.49-11.7,7.15-17.68,10.47-4.81,2.67-9.35,5.94-15.6,8a21.32,21.32,0,0,1,6-5.51c6.9-4.75,13.83-9.44,20.73-14.17,1.19-.82,3.38-1.59,2.38-3.26-1.16-2-2.88-.42-4.29.47-9.65,6.09-19.27,12.24-29,18.19-4.4,2.7-9.06,5-13.6,7.45,10-9.67,21.34-17.26,32.66-24.93,1.1-.75,3-1.36,2.67-2.76-.41-1.88-2.51-1.24-3.91-1.3-10.35-.39-20.7-.66-31.05-1.06a11.91,11.91,0,0,0-6.5,1.76c-12,6.89-24,13.85-36.08,20.62-3.11,1.74-3.68,3.48-1.71,6.52A174.87,174.87,0,0,1,124,110.84c.62,1.29,1.81,2.54.56,4.21-2.19-.33-3.25-2.15-4.53-3.54a79.26,79.26,0,0,1-11.52-15.83c-2.54-4.67-3-4.65-5.87-.42q-19.87,29.55-39.72,59.12C62,155.74,60.66,157,60.82,159.16ZM176,327.45c.78-1.69.16-3.24-.31-4.78Q157.84,264.25,140,205.79a10.19,10.19,0,0,0-5.93-6.94c-2.5-1.14-5.17-2.19-7.23-4.41,1.88-1.35,3.58-.79,5.15-.53,3.23.52,4.14-.83,3.65-3.82-3.18-19.69-5.94-39.42-6-59.42,0-3.08-1.11-4.14-4.21-2.23q-29.34,18.08-58.8,36c-1.25.76-3.17,1.25-3,3,.15,1.5,2,1.7,3.2,2.2,7.87,3.25,15.82,6.32,23.64,9.7,5.26,2.26,10.36,4.93,15.53,7.42-14.83-2.33-28.62-7.62-42.71-11.87-1.22-.36-2.71-1.75-3.71-.26s.66,2.47,1.46,3.51c7.43,9.63,15,19.18,22.34,28.86l89.26,117.37C173.51,325.5,174.05,327.09,176,327.45Zm24.37-18.28c2-1.3,2.86-3,3.91-4.6Q230.56,265,256.8,225.45c12.14-18.24,24.37-36.41,36.52-54.65.68-1,2.31-2.18,1.05-3.52-1-1.07-2.26.24-3.29.7-6.11,2.73-12.13,5.67-18.28,8.3-3.54,1.51-6.76,3.87-10.86,4.56.16-2.16,1.73-2.71,2.83-3.63,8.72-7.3,19.18-11.73,28.81-17.53,3.69-2.23,3.79-3,.22-5.17-4.66-2.88-9.39-5.64-14.15-8.34-5.28-3-5.31-2.95-7.18,2.48-1.94-3.27-1.81-7.42-5.18-9.49q-10.5-6.47-21-12.9c-1.38-.84-2.93-1.46-4,.26-2.1,3.32-4.44,6.54-3.65,10.93q3.48,19.31,6.74,38.65c1.1,6.52,2.2,12.72-.49,19.56-14,35.51-27.51,71.19-42.51,106.29-.92,2.1-2.56,4.18-2,7.22ZM217,49.92a86.33,86.33,0,0,1,2.52,14c.19,2,1.69,3,3.41,3.93,5.55,2.86,11,6,16.6,8.65a31.34,31.34,0,0,1,11.85,9.69c4.73,6.16,9.72,12.11,14.49,18.23,1.79,2.3,3.25,3,5.16.16a11.42,11.42,0,0,1,8.82-5c3-.28,3.86-1.16,2.72-4.34-3-8.37-1.66-12.41,5.56-17.5,1.9-1.35,1.85-2.48.56-4.08-3.66-4.51-3.43-9.53-1.79-14.7.27-.86.8-1.68-.15-2.8-2.6.71-4.42,2.9-6.76,4.19-8.24,4.55-15.62,3.17-21.46-4.22a33.43,33.43,0,0,1-3.45-5.35c-1.39-2.69-2.23-3.9-4.32-.27-6.38,11-16.35,12.71-26.48,4.87C222.12,53.72,220.48,51.41,217,49.92ZM230.82,153l-.92-.19c.6-6.12,1.37-12.24,1.74-18.38.34-5.79.21-11.63-3.18-16.74-2.73-4.11-5.27-4.65-9.07-2-8.66,6.19-17.58,12-26.65,17.58-4.31,2.66-4.33,3.17-.39,6.41q21,17.25,42,34.43c1.35,1.11,2.77,3.49,4.42,2.57,2.11-1.19.12-3.53,0-5.38a19,19,0,0,0-.5-3.61c-1.56-6.54-1.79-13.38-4.25-20.38Zm34.78-35.34a2.58,2.58,0,0,0-.16-3.08q-9.06-11.46-18.18-22.89c-1.52-1.92-3-1.6-4.55,0q-4.65,4.71-9.43,9.3c-.84.81-1.87,2.17-3.05,1.37-1.41-1,0-2.19.5-3.16a59,59,0,0,1,7.21-11.08c2.2-2.58,1.53-4.22-1.3-5.64-4.76-2.38-9.53-4.79-14.15-7.42-3.09-1.76-4.69-.91-5.8,2.23-1.69,4.77-5,8.28-9.08,11.13-1.29.89-3.7,1-3.54,3.09s2.59,1.74,4,2.32c7.84,3.19,8.69,5,5.22,12.35-1,2.08-.41,3,1.73,2.71,7.32-.84,13.27,1.29,18.5,6.74,2.33,2.42,6.79,5.32,9.77,2.57,7.52-6.91,14.57-8.2,22.31-.51Zm20.1,25.21,1.33-1.43c-4.87-6.06-9.71-12.15-14.65-18.15-.77-.94-1.87-1-2.39.55-.6,1.72,1.7,10.86,3.34,11.88,4,2.54,8.23,4.81,12.37,7.18Zm-32.14-25.6a7.79,7.79,0,0,0-4.69,1.57c-1.86,1.29-2.58,2.85-.14,4.17,4.41,2.4,8.9,4.64,13.39,6.9,1.31.65,2.39.71,2.26-1.34-.26-4.09-7-11.13-10.82-11.27Zm-16.17,10.12c1.51-2,3-3.36,1.44-5.53-.56-.78-1.73-1.53-2.3-.79-1.53,2-.15,3.87.86,6.35Z" transform="translate(0.02 -0.04)" style="fill:#6a374f"/><path d="M227.56,365.45c7.65,1.9,15.67.07,23.66,2.29-1.55,1.95-3.45,1.45-5.05,1.62-22.93,2.48-45.92,1.77-68.9,1.44-21-.31-42-.93-63-1.45a38.92,38.92,0,0,1-9.84-1.3c20.94-5.27,42.38-7,63.54-10.88-8.58,0-17.16-.05-25.73,0-9,.07-18,.24-26.94.37a143.42,143.42,0,0,1-26.58-1.94c1.46-.23,2.91-.56,4.37-.66,29.75-2.21,59.49-4.45,89.29-5.92,26.31-1.31,52.61-2.32,79-2.19,2.43,0,4.87,0,7.3.2,1.13.07,2.83-.28,3,1.28s-1.5,1.7-2.55,2.19c-12.55,6-25.13,11.78-39.13,13.24C229.16,363.83,228.09,363.75,227.56,365.45Z" transform="translate(0.02 -0.04)" style="fill:#6a374f"/><path d="M219.56,329.23c6.42-6.06,11.85-11.51,17.61-16.58A716,716,0,0,1,302,262.37a103.38,103.38,0,0,1,14.87-8.88,39.33,39.33,0,0,1,6.82-2.53c2.89-.74,6-1,7.72,2.12,1.84,3.35-.14,5.92-2.74,7.81C321.22,266.35,313.83,272,306,277c-26.41,16.84-53,33.42-79.53,50.07C224.86,328.06,223.33,329.47,219.56,329.23Zm33.25-23.49c1.3-.74,2.64-1.43,3.9-2.24,21.8-14.18,44.17-27.48,65.2-42.81,1.62-1.19,5-2.52,4-4.18-1.32-2.29-4,0-5.92.86-11.72,5.33-21.82,13.24-32.3,20.52-12.2,8.49-24.17,17.32-34.88,27.85Z" transform="translate(0.02 -0.04)" style="fill:#6a374f"/><path d="M148.64,335.89c-4.58-1.57-8.49-4.46-12.59-6.91Q99.6,307.26,63.29,285.32a105,105,0,0,1-10.63-7.87,13.3,13.3,0,0,1-4.57-6.14c-.74-2.2-.56-4.28,1.1-5.94a4.85,4.85,0,0,1,5.54-.82,23.29,23.29,0,0,1,4.42,2.32c29.68,20.23,58.63,41.43,86.23,64.43,1.37,1.14,2.61,2.43,3.91,3.64ZM96.13,300.45l.73-.9c-1.13-1-2.2-2-3.39-2.88-11.2-8.14-22.37-16.3-33.66-24.3-1.77-1.26-4.16-4.5-6-2.24-1.58,2,1.75,4.11,3.54,5.58C69.31,285.53,83.32,292,96.13,300.45Z" transform="translate(0.02 -0.04)" style="fill:#6a374f"/><path d="M126.74,341.29c-2.12,1.21-3.63.67-5.07.34-29.54-6.6-59.36-12-88.68-19.58a29.22,29.22,0,0,1-6-2.15c-2.84-1.45-6.27-3.14-5-7.06s5-3.39,8.19-2.71c4,.86,8,1.9,12,2.95q39.75,10.47,78.29,24.79A17.38,17.38,0,0,1,126.74,341.29ZM56.67,322c-8.9-3.06-17.75-6.45-27.32-6.82C37.85,319.9,47.46,320.14,56.67,322Z" transform="translate(0.02 -0.04)" style="fill:#6a374f"/><path d="M250.52,326c-.1-1.95,1.32-2.23,2.3-2.79a437.36,437.36,0,0,1,62.57-29.83c3.28-1.24,6.68-2.2,10.26-1.66,2.59.38,4.64,1.65,5.49,4.22.9,2.72-.6,4.74-2.48,6.39-2.83,2.49-6.46,3.39-9.94,4.44q-30.15,9.11-60.36,18C255.82,325.52,253.26,326.45,250.52,326Zm40.16-16.11a213.79,213.79,0,0,0,33.21-9.52c1.28-.48,2.73-1.34,2.37-2.95-.42-1.82-2.19-1.49-3.44-1.18a108.44,108.44,0,0,0-32.14,13.6Z" transform="translate(0.02 -0.04)" style="fill:#6a374f"/><path d="M212.76,330.59c-1.26-3.37-6.64-3.59-7.57.16a2,2,0,0,0,.25,1.63,3.77,3.77,0,0,0-.8,4.8,2.19,2.19,0,0,0,2.37,1,8.25,8.25,0,0,0,4.76-2.49A5.18,5.18,0,0,0,212.76,330.59Z" transform="translate(0.02 -0.04)" style="fill:#6a374f"/><path d="M247.73,331.27a16.06,16.06,0,0,0-3.78-.43,2.09,2.09,0,0,0-2-1.78,8.81,8.81,0,0,0-6.55,2.37,2,2,0,0,0-.4,2.33c-2,1.61.06,5.1,2.22,3.54a12.1,12.1,0,0,1,2-1.16,12.82,12.82,0,0,0,9-1,2.12,2.12,0,0,0-.49-3.87Z" transform="translate(0.02 -0.04)" style="fill:#6a374f"/></g><g id="Layer_1-2" data-name="Layer 1-2"><path d="M66.32,197c21.43,27.88,42.77,55.82,64.27,83.64,13.78,17.82,27.08,36,41.64,53.22,3.49,4.13,4.24,4.11,7.33-.37.52-.75,1-1.5,1.53-2.26,22.21-33.49,44.51-66.91,66.58-100.49,16.71-25.44,34.35-50.25,50.51-76.06,2.28-3.65,2.27-6.23-.57-9.67-10.28-12.44-20.24-25.13-30.28-37.76-3.25-4.1-2-8.15,3-9.89a11.87,11.87,0,0,1,6.76-.12c5.27,1.22,9.8,4.1,14.57,6.44,1.63.79,3.1,2.16,5.4,1.83-1.19-2.85-3.35-4.38-5.07-6.26-4.43-4.81-9.3-9.28-12.25-15.24-2.71-5.49-1.13-9.39,4.56-11.6a16.71,16.71,0,0,1,8.06-1.17c1.42.17,3,.89,4.52-.59-2.1-2.42-5.09-3.24-7.66-4.69-5.34-3-6.76-6-5.84-12.06.71-4.75,2.88-8.93,5-13.17,2.32-4.69,5.58-8.92,7.44-14.11-2.35,0-3.16,1.61-4.29,2.69-6,5.82-11.79,11.94-18.84,16.55-7.84,5.12-14.35,3.6-19.24-4.4a59.08,59.08,0,0,1-4.61-9.91c-2-5.32-2.73-11-4.48-17.51a16.92,16.92,0,0,0-1,2.68c-.59,5.45-.64,11-1.81,16.33-3.06,13.87-10.7,17-22,10C213,39,207.86,33.36,202.74,27.71c-1.49-1.63-2.6-3.77-5.38-4.59a10.28,10.28,0,0,0,1.49,5.18c3.17,6.74,6.67,13.36,7.88,20.83.23,1.45.89,3.28-.43,4.33s-2.87-.25-4.11-1a31,31,0,0,0-15.71-4.07c-12.78-.27-25.57-.68-38.35-1.08a10.36,10.36,0,0,0-5.63,1.56Q119.35,62.12,96.18,75.41a12.69,12.69,0,0,0-4.42,3.88c-17.05,25.93-35.22,51.13-51.44,77.61-1.58,2.59-1.74,4.42.23,6.91C49.25,174.78,57.79,185.87,66.32,197Z" transform="translate(0.02 -0.04)" style="fill:#fff;stroke:#fff;stroke-linecap:round;stroke-linejoin:round;stroke-width:28px"/><path d="M260.88,338.35c-2.43-.16-4.87-.19-7.3-.2-26.34-.13-52.64.88-79,2.19-29.8,1.47-59.54,3.71-89.29,5.92-1.46.1-2.91.43-4.36.66a143.31,143.31,0,0,0,26.57,1.94c9-.13,18-.3,26.94-.36,8.57-.07,17.15,0,25.73,0-21.16,3.9-42.6,5.61-63.54,10.88a38.92,38.92,0,0,0,9.84,1.3c21,.52,42,1.14,63,1.45,23,.33,46,1,68.9-1.43,1.6-.18,3.5.32,5-1.63-8-2.22-16-.39-23.66-2.29.53-1.7,1.6-1.62,2.42-1.7,14-1.47,26.6-7.29,39.12-13.24,1-.49,2.72-.77,2.55-2.19S262,338.42,260.88,338.35Z" transform="translate(0.02 -0.04)" style="fill:#fff;stroke:#fff;stroke-linecap:round;stroke-linejoin:round;stroke-width:28px"/><path d="M229.42,304c-5.76,5.07-11.19,10.52-17.61,16.58,3.77.24,5.3-1.17,6.92-2.18,26.54-16.65,53.12-33.23,79.54-50.07,7.81-5,15.2-10.63,22.69-16.09,2.6-1.89,4.59-4.46,2.75-7.81-1.7-3.07-4.84-2.86-7.73-2.12a39.33,39.33,0,0,0-6.82,2.53,103.38,103.38,0,0,0-14.87,8.88A713.33,713.33,0,0,0,229.42,304Z" transform="translate(0.02 -0.04)" style="fill:#fff;stroke:#fff;stroke-linecap:round;stroke-linejoin:round;stroke-width:28px"/><path d="M47,255.86a4.85,4.85,0,0,0-5.54.82c-1.66,1.66-1.83,3.74-1.1,5.94a13.25,13.25,0,0,0,4.58,6.14,103,103,0,0,0,10.62,7.87q36.28,22,72.76,43.66c4.1,2.45,8,5.34,12.59,6.91.22-.31.43-.63.65-.95-1.3-1.21-2.54-2.5-3.91-3.64-27.6-23-56.55-44.2-86.23-64.43A23.29,23.29,0,0,0,47,255.86Z" transform="translate(0.02 -0.04)" style="fill:#fff;stroke:#fff;stroke-linecap:round;stroke-linejoin:round;stroke-width:28px"/><path d="M119,332.6a17.32,17.32,0,0,0-6.26-3.41q-38.55-14.31-78.29-24.8c-4-1.05-8-2.09-12-2.95-3.2-.68-6.89-1.19-8.19,2.71s2.13,5.61,5,7.07a29.79,29.79,0,0,0,6,2.14c29.32,7.59,59.14,13,88.68,19.58C115.36,333.27,116.87,333.81,119,332.6Z" transform="translate(0.02 -0.04)" style="fill:#fff;stroke:#fff;stroke-linecap:round;stroke-linejoin:round;stroke-width:28px"/><path d="M317.9,283c-3.58-.54-7,.42-10.26,1.66a437.36,437.36,0,0,0-62.57,29.83c-1,.56-2.4.84-2.3,2.8,2.75.49,5.3-.44,7.84-1.2l60.36-18c3.48-1,7.11-1.95,9.94-4.44,1.88-1.65,3.38-3.67,2.48-6.39S320.49,283.37,317.9,283Z" transform="translate(0.02 -0.04)" style="fill:#fff;stroke:#fff;stroke-linecap:round;stroke-linejoin:round;stroke-width:28px"/><path d="M197.11,23.73c2.78.82,3.89,3,5.37,4.59,5.13,5.65,10.27,11.25,16.81,15.34,11.32,7.07,19,3.91,22-10,1.17-5.32,1.21-10.88,1.81-16.33a16,16,0,0,1,1-2.68c1.75,6.51,2.45,12.19,4.48,17.51a59.08,59.08,0,0,0,4.61,9.91c4.89,8,11.4,9.52,19.24,4.4,7.05-4.61,12.82-10.73,18.84-16.55,1.13-1.08,1.94-2.74,4.29-2.69-1.86,5.19-5.12,9.41-7.44,14.11-2.08,4.24-4.25,8.42-5,13.17-.92,6.09.5,9,5.84,12.06,2.57,1.45,5.56,2.27,7.66,4.69-1.56,1.48-3.1.76-4.52.59A16.71,16.71,0,0,0,284,73c-5.69,2.21-7.27,6.11-4.56,11.6,2.95,6,7.82,10.43,12.25,15.24,1.72,1.88,3.88,3.41,5.07,6.26-2.3.33-3.77-1-5.4-1.83-4.77-2.34-9.3-5.22-14.57-6.44a11.87,11.87,0,0,0-6.76.12c-5,1.74-6.27,5.79-3,9.89,10,12.63,20,25.32,30.27,37.76,2.85,3.44,2.86,6,.57,9.67-16.15,25.81-33.79,50.62-50.5,76.06-22.07,33.58-44.37,67-66.58,100.49-.5.76-1,1.51-1.53,2.26-3.1,4.48-3.84,4.5-7.33.37-14.56-17.21-27.87-35.4-41.64-53.22-21.5-27.82-42.84-55.76-64.27-83.64C57.54,186.56,49,175.47,40.3,164.5c-2-2.49-1.81-4.32-.23-6.91C56.29,131.11,74.46,105.91,91.51,80a12.41,12.41,0,0,1,4.42-3.88q23.17-13.29,46.32-26.61A10.36,10.36,0,0,1,147.88,48c12.78.4,25.57.81,38.35,1.08a31,31,0,0,1,15.71,4.07c1.24.74,2.67,2.14,4.11,1s.66-2.88.43-4.33c-1.21-7.47-4.72-14.09-7.88-20.83A10.29,10.29,0,0,1,197.11,23.73Z" transform="translate(0.02 -0.04)" style="fill:#ace3fc"/><path d="M168.7,313.88Q150.82,255.46,133,197a10.19,10.19,0,0,0-5.93-6.94c-2.5-1.14-5.17-2.2-7.23-4.42,1.88-1.34,3.59-.78,5.15-.52,3.24.52,4.14-.83,3.66-3.82-3-18.41-5.59-36.85-6-55.53-.39-2.24-.84-4.48-1.31-6.71l-.66-.15-.42-.12a6.89,6.89,0,0,0-1.87.86q-29.34,18-58.8,36c-1.24.76-3.16,1.25-3,3,.15,1.5,2,1.7,3.2,2.2,7.88,3.25,15.83,6.32,23.65,9.69C88.71,172.81,93.8,175.48,99,178c-14.83-2.34-28.61-7.62-42.71-11.87-1.21-.36-2.7-1.75-3.7-.27s.65,2.48,1.45,3.52c7.44,9.63,15,19.18,22.34,28.86Q121,256.88,165.62,315.58c.86,1.13,1.41,2.72,3.39,3.08C169.79,317,169.17,315.42,168.7,313.88Z" transform="translate(0.02 -0.04)" style="fill:#e6fdff;stroke:#e6fdff;stroke-miterlimit:10"/><path d="M209,42.47a85.26,85.26,0,0,1,2.52,14c.19,2.05,1.7,3.06,3.41,3.94,5.55,2.85,11,6,16.6,8.64a31.27,31.27,0,0,1,11.85,9.69c4.73,6.16,9.72,12.11,14.49,18.24,1.79,2.3,3.25,3,5.16.16a11.46,11.46,0,0,1,8.82-5.06c3-.28,3.86-1.16,2.72-4.33-3-8.38-1.66-12.41,5.56-17.51,1.9-1.34,1.86-2.48.56-4.07-3.66-4.52-3.42-9.54-1.79-14.71.27-.85.8-1.68-.15-2.8-2.6.71-4.42,2.91-6.76,4.2-8.24,4.54-15.62,3.16-21.46-4.22a33.52,33.52,0,0,1-3.45-5.36c-1.39-2.69-2.23-3.89-4.32-.27-6.38,11-16.35,12.72-26.47,4.88C214.17,46.27,212.53,44,209,42.47Zm48.62,67.78a2.6,2.6,0,0,0-.16-3.09c-6-7.64-12.12-15.26-18.17-22.88-1.53-1.92-3-1.61-4.56,0q-4.65,4.71-9.43,9.29c-.84.81-1.87,2.17-3,1.37-1.41-1,0-2.18.51-3.16A58.42,58.42,0,0,1,230,80.7c2.19-2.58,1.52-4.22-1.31-5.64-4.76-2.39-9.52-4.79-14.15-7.43-3.09-1.76-4.69-.9-5.8,2.24-1.69,4.77-5,8.27-9.08,11.12-1.29.89-3.69,1-3.53,3.09s2.58,1.75,4,2.33c7.84,3.19,8.69,5,5.22,12.34-1,2.08-.41,3,1.73,2.71,7.32-.84,13.27,1.29,18.5,6.74,2.33,2.42,6.79,5.32,9.77,2.57,7.5-6.93,14.55-8.2,22.29-.52Z" transform="translate(0.02 -0.04)" style="fill:#e6fdff;stroke:#e6fdff;stroke-miterlimit:10"/><path d="M211.56,321.23c6.42-6.06,11.85-11.51,17.61-16.58A716,716,0,0,1,294,254.37a103.38,103.38,0,0,1,14.87-8.88,39.33,39.33,0,0,1,6.82-2.53c2.89-.74,6-1,7.72,2.12,1.84,3.35-.14,5.92-2.74,7.81C313.22,258.35,305.83,264,298,269c-26.41,16.84-53,33.42-79.53,50.07C216.86,320.06,215.33,321.47,211.56,321.23Z" transform="translate(0.02 -0.04)" style="fill:#e6fdff"/><path d="M140.64,327.89c-4.58-1.57-8.49-4.46-12.59-6.91Q91.6,299.26,55.29,277.32a105,105,0,0,1-10.63-7.87,13.3,13.3,0,0,1-4.57-6.14c-.74-2.2-.56-4.28,1.1-5.94a4.85,4.85,0,0,1,5.54-.82,23.29,23.29,0,0,1,4.42,2.32c29.68,20.23,58.63,41.43,86.23,64.43,1.37,1.14,2.61,2.43,3.91,3.64Z" transform="translate(0.02 -0.04)" style="fill:#e6fdff"/><path d="M118.74,333.29c-2.12,1.21-3.63.67-5.07.34-29.54-6.6-59.36-12-88.68-19.58a29.22,29.22,0,0,1-6-2.15c-2.84-1.45-6.27-3.14-5-7.06s5-3.39,8.19-2.71c4,.86,8,1.9,12,2.95q39.75,10.47,78.29,24.79A17.38,17.38,0,0,1,118.74,333.29Z" transform="translate(0.02 -0.04)" style="fill:#e6fdff"/><path d="M242.52,318c-.1-1.95,1.32-2.23,2.3-2.79a437.36,437.36,0,0,1,62.57-29.83c3.28-1.24,6.68-2.2,10.26-1.66,2.59.38,4.64,1.65,5.49,4.22.9,2.72-.6,4.74-2.48,6.39-2.83,2.49-6.46,3.39-9.94,4.44q-30.15,9.11-60.36,18C247.82,317.52,245.26,318.45,242.52,318Z" transform="translate(0.02 -0.04)" style="fill:#e6fdff"/><path d="M197.11,23.73c2.78.82,3.89,3,5.37,4.59,5.13,5.65,10.27,11.25,16.81,15.34,11.32,7.07,19,3.91,22-10,1.17-5.32,1.21-10.88,1.81-16.33a16,16,0,0,1,1-2.68c1.75,6.51,2.45,12.19,4.48,17.51a59.08,59.08,0,0,0,4.61,9.91c4.89,8,11.4,9.52,19.24,4.4,7.05-4.61,12.82-10.73,18.84-16.55,1.13-1.08,1.94-2.74,4.29-2.69-1.86,5.19-5.12,9.41-7.44,14.11-2.08,4.24-4.25,8.42-5,13.17-.92,6.09.5,9,5.84,12.06,2.57,1.45,5.56,2.27,7.66,4.69-1.56,1.48-3.1.76-4.52.59A16.71,16.71,0,0,0,284,73c-5.69,2.21-7.27,6.11-4.56,11.6,2.95,6,7.82,10.43,12.25,15.24,1.72,1.88,3.88,3.41,5.07,6.26-2.3.33-3.77-1-5.4-1.83-4.77-2.34-9.3-5.22-14.57-6.44a11.87,11.87,0,0,0-6.76.12c-5,1.74-6.27,5.79-3,9.89,10,12.63,20,25.32,30.27,37.76,2.85,3.44,2.86,6,.57,9.67-16.15,25.81-33.79,50.62-50.5,76.06-22.07,33.58-44.37,67-66.58,100.49-.5.76-1,1.51-1.53,2.26-3.1,4.48-3.84,4.5-7.33.37-14.56-17.21-27.87-35.4-41.64-53.22-21.5-27.82-42.84-55.76-64.27-83.64C57.54,186.56,49,175.47,40.3,164.5c-2-2.49-1.81-4.32-.23-6.91C56.29,131.11,74.46,105.91,91.51,80a12.41,12.41,0,0,1,4.42-3.88q23.17-13.29,46.32-26.61A10.36,10.36,0,0,1,147.88,48c12.78.4,25.57.81,38.35,1.08a31,31,0,0,1,15.71,4.07c1.24.74,2.67,2.14,4.11,1s.66-2.88.43-4.33c-1.21-7.47-4.72-14.09-7.88-20.83A10.29,10.29,0,0,1,197.11,23.73ZM176.34,318.8c1.25-2.4,2-3.67,2.61-5,17.61-42.76,35.46-85.41,55.39-127.16,1.39-2.92,1.07-4.49-1.39-6.48q-26.76-21.75-53.31-43.76c-3.12-2.59-4.68-2-6.73,1.16-9.81,15.05-19.81,30-29.68,45-.88,1.34-2.69,2.72-1.87,4.39,1,2.06,3.28,1,4.95.84,19.29-1.42,38.56-3.09,57.91-3.46,4.2-.08,8.43-.28,13,.84a18.32,18.32,0,0,1-7.33,2.43c-21.82,3.56-43.83,5.27-65.83,7.11-5.69.48-5.94.87-4.27,6.32,9.57,31.27,19.05,62.56,28.68,93.81C170.87,302.44,172.74,310.28,176.34,318.8ZM52.82,151.16c2,.21,3.17-.92,4.47-1.64q26-14.4,51.9-28.81c2.79-1.54,5.65-3,8.57-4.29,1.72-.75,4-1.15,4.35,1.45s1.56,4.91,2.23,7.4c4.64,17.24,6.88,34.91,9.27,52.55.17,1.25-.36,3.09,1.45,3.41,1.39.25,1.9-1.27,2.56-2.27,9.73-14.73,19.41-29.49,29.26-44.14,2.18-3.25,1.6-4.71-2-5.87-9.73-3.06-19.23-6.77-28.63-10.73-1.81-.76-3.83-1.38-5.37-3.5a18.2,18.2,0,0,1,8.13.69c10.27,2.83,20.58,5.52,30.77,8.6a9.91,9.91,0,0,0,8.21-.93c7.91-4.24,15.95-8.23,23.9-12.41,2.6-1.37,5.61-2.07,8.37-4.86-7.44-2-14,1.38-20.75.79,3.42-3.1,7-5.63,10.43-8.34,1.77-1.39,3.8-2.91,3.31-5.58s-3.11-3-5.24-3.7a67.76,67.76,0,0,0-14.32-2.76,14.74,14.74,0,0,1-7.29-2c5.06-1,9.07-1.65,13-2.59,8-1.94,13.33-6.95,15.86-14.85.47-1.48,1-3-.4-4.23s-2.85-.22-4.13.54c-5.9,3.49-11.7,7.15-17.68,10.47-4.81,2.67-9.35,5.94-15.6,8a21.32,21.32,0,0,1,6-5.51c6.9-4.75,13.83-9.44,20.73-14.17,1.19-.82,3.38-1.59,2.38-3.26-1.16-1.95-2.88-.42-4.29.47-9.65,6.09-19.27,12.24-29,18.19-4.4,2.7-9.06,5-13.6,7.45,10-9.67,21.34-17.26,32.66-24.93,1.1-.75,3-1.36,2.67-2.76-.41-1.88-2.51-1.24-3.91-1.3-10.35-.39-20.7-.66-31.05-1.06a11.91,11.91,0,0,0-6.5,1.76c-12,6.89-24,13.85-36.08,20.62-3.11,1.74-3.68,3.48-1.71,6.52A174.87,174.87,0,0,1,116,102.84c.62,1.29,1.81,2.54.56,4.21-2.19-.33-3.25-2.15-4.53-3.54a79.26,79.26,0,0,1-11.52-15.83C98,83,97.51,83,94.64,87.26q-19.87,29.55-39.72,59.12C54,147.74,52.66,149,52.82,151.16ZM168,319.45c.78-1.69.16-3.24-.31-4.78Q149.84,256.25,132,197.79a10.19,10.19,0,0,0-5.93-6.94c-2.5-1.14-5.17-2.19-7.23-4.41,1.88-1.35,3.58-.79,5.15-.53,3.23.52,4.14-.83,3.65-3.82-3.18-19.69-5.94-39.42-6-59.42,0-3.08-1.11-4.14-4.21-2.23q-29.34,18.08-58.8,36c-1.25.76-3.17,1.25-3,3,.15,1.5,2,1.7,3.2,2.2,7.87,3.25,15.82,6.32,23.64,9.7,5.26,2.26,10.36,4.93,15.53,7.42-14.83-2.33-28.62-7.62-42.71-11.87-1.22-.36-2.71-1.75-3.71-.26s.66,2.47,1.46,3.51c7.43,9.63,15,19.18,22.34,28.86l89.26,117.37C165.51,317.5,166.05,319.09,168,319.45Zm24.37-18.28c2-1.3,2.86-3,3.91-4.6Q222.56,257,248.8,217.45c12.14-18.24,24.37-36.41,36.52-54.65.68-1,2.31-2.18,1.05-3.52-1-1.07-2.26.24-3.29.7-6.11,2.73-12.13,5.67-18.28,8.3-3.54,1.51-6.76,3.87-10.86,4.56.16-2.16,1.73-2.71,2.83-3.63,8.72-7.3,19.18-11.73,28.81-17.53,3.69-2.23,3.79-3,.22-5.17-4.66-2.88-9.39-5.64-14.15-8.34-5.28-3-5.31-2.95-7.18,2.48-1.94-3.27-1.81-7.42-5.18-9.49q-10.5-6.47-21-12.9c-1.38-.84-2.93-1.46-4,.26-2.1,3.32-4.44,6.54-3.65,10.93q3.48,19.31,6.74,38.65c1.1,6.52,2.2,12.72-.49,19.56-14,35.51-27.51,71.19-42.51,106.29-.92,2.1-2.56,4.18-2,7.22ZM209,41.92a86.33,86.33,0,0,1,2.52,14c.19,2,1.69,3,3.41,3.93,5.55,2.86,11,6,16.6,8.65a31.34,31.34,0,0,1,11.85,9.69c4.73,6.16,9.72,12.11,14.49,18.23,1.79,2.3,3.25,3,5.16.16a11.42,11.42,0,0,1,8.82-5c3-.28,3.86-1.16,2.72-4.34-3-8.37-1.66-12.41,5.56-17.5,1.9-1.35,1.85-2.48.56-4.08-3.66-4.51-3.43-9.53-1.79-14.7.27-.86.8-1.68-.15-2.8-2.6.71-4.42,2.9-6.76,4.19-8.24,4.55-15.62,3.17-21.46-4.22a33.43,33.43,0,0,1-3.45-5.35c-1.39-2.69-2.23-3.9-4.32-.27-6.38,11-16.35,12.71-26.48,4.87C214.12,45.72,212.48,43.41,209,41.92ZM222.82,145l-.92-.19c.6-6.12,1.37-12.24,1.74-18.38.34-5.79.21-11.63-3.18-16.74-2.73-4.11-5.27-4.65-9.07-2-8.66,6.19-17.58,12-26.65,17.58-4.31,2.66-4.33,3.17-.39,6.41q21,17.25,42,34.43c1.35,1.11,2.77,3.49,4.42,2.57,2.11-1.19.12-3.53,0-5.38a19,19,0,0,0-.5-3.61c-1.56-6.54-1.79-13.38-4.25-20.38Zm34.78-35.34a2.58,2.58,0,0,0-.16-3.08q-9.06-11.46-18.18-22.89c-1.52-1.92-3-1.6-4.55,0q-4.65,4.71-9.43,9.3c-.84.81-1.87,2.17-3.05,1.37-1.41-1,0-2.19.5-3.16a59,59,0,0,1,7.21-11.08c2.2-2.58,1.53-4.22-1.3-5.64-4.76-2.38-9.53-4.79-14.15-7.42-3.09-1.76-4.69-.91-5.8,2.23-1.69,4.77-5,8.28-9.08,11.13-1.29.89-3.7,1-3.54,3.09s2.59,1.74,4,2.32c7.84,3.19,8.69,5,5.22,12.35-1,2.08-.41,3,1.73,2.71,7.32-.84,13.27,1.29,18.5,6.74,2.33,2.42,6.79,5.32,9.77,2.57,7.52-6.91,14.57-8.2,22.31-.51Zm20.1,25.21,1.33-1.43c-4.87-6.06-9.71-12.15-14.65-18.15-.77-.94-1.87-1-2.39.55-.6,1.72,1.7,10.86,3.34,11.88,4,2.54,8.23,4.81,12.37,7.18Zm-32.14-25.6a7.79,7.79,0,0,0-4.69,1.57c-1.86,1.29-2.58,2.85-.14,4.17,4.41,2.4,8.9,4.64,13.39,6.9,1.31.65,2.39.71,2.26-1.34-.26-4.09-7-11.13-10.82-11.27Zm-16.17,10.12c1.51-2,3-3.36,1.44-5.53-.56-.78-1.73-1.53-2.3-.79-1.53,2-.15,3.87.86,6.35Z" transform="translate(0.02 -0.04)" style="fill:#474747"/><path d="M219.56,357.45c7.65,1.9,15.67.07,23.66,2.29-1.55,1.95-3.45,1.45-5.05,1.62-22.93,2.48-45.92,1.77-68.9,1.44-21-.31-42-.93-63-1.45a38.92,38.92,0,0,1-9.84-1.3c20.94-5.27,42.38-7,63.54-10.88-8.58,0-17.16-.05-25.73,0-9,.07-18,.24-26.94.37a143.42,143.42,0,0,1-26.58-1.94c1.46-.23,2.91-.56,4.37-.66,29.75-2.21,59.49-4.45,89.29-5.92,26.31-1.31,52.61-2.32,79-2.19,2.43,0,4.87,0,7.3.2,1.13.07,2.83-.28,3,1.28s-1.5,1.7-2.55,2.19c-12.55,6-25.13,11.78-39.13,13.24C221.16,355.83,220.09,355.75,219.56,357.45Z" transform="translate(0.02 -0.04)" style="fill:#474747"/><path d="M211.56,321.23c6.42-6.06,11.85-11.51,17.61-16.58A716,716,0,0,1,294,254.37a103.38,103.38,0,0,1,14.87-8.88,39.33,39.33,0,0,1,6.82-2.53c2.89-.74,6-1,7.72,2.12,1.84,3.35-.14,5.92-2.74,7.81C313.22,258.35,305.83,264,298,269c-26.41,16.84-53,33.42-79.53,50.07C216.86,320.06,215.33,321.47,211.56,321.23Zm33.25-23.49c1.3-.74,2.64-1.43,3.9-2.24,21.8-14.18,44.17-27.48,65.2-42.81,1.62-1.19,5-2.52,4-4.18-1.32-2.29-4,0-5.92.86-11.72,5.33-21.82,13.24-32.3,20.52-12.2,8.49-24.17,17.32-34.88,27.85Z" transform="translate(0.02 -0.04)" style="fill:#474747"/><path d="M140.64,327.89c-4.58-1.57-8.49-4.46-12.59-6.91Q91.6,299.26,55.29,277.32a105,105,0,0,1-10.63-7.87,13.3,13.3,0,0,1-4.57-6.14c-.74-2.2-.56-4.28,1.1-5.94a4.85,4.85,0,0,1,5.54-.82,23.29,23.29,0,0,1,4.42,2.32c29.68,20.23,58.63,41.43,86.23,64.43,1.37,1.14,2.61,2.43,3.91,3.64ZM88.13,292.45l.73-.9c-1.13-1-2.2-2-3.39-2.88-11.2-8.14-22.37-16.3-33.66-24.3-1.77-1.26-4.16-4.5-6-2.24-1.58,2,1.75,4.11,3.54,5.58C61.31,277.53,75.32,284,88.13,292.45Z" transform="translate(0.02 -0.04)" style="fill:#474747"/><path d="M118.74,333.29c-2.12,1.21-3.63.67-5.07.34-29.54-6.6-59.36-12-88.68-19.58a29.22,29.22,0,0,1-6-2.15c-2.84-1.45-6.27-3.14-5-7.06s5-3.39,8.19-2.71c4,.86,8,1.9,12,2.95q39.75,10.47,78.29,24.79A17.38,17.38,0,0,1,118.74,333.29ZM48.67,314c-8.9-3.06-17.75-6.45-27.32-6.82C29.85,311.9,39.46,312.14,48.67,314Z" transform="translate(0.02 -0.04)" style="fill:#474747"/><path d="M242.52,318c-.1-1.95,1.32-2.23,2.3-2.79a437.36,437.36,0,0,1,62.57-29.83c3.28-1.24,6.68-2.2,10.26-1.66,2.59.38,4.64,1.65,5.49,4.22.9,2.72-.6,4.74-2.48,6.39-2.83,2.49-6.46,3.39-9.94,4.44q-30.15,9.11-60.36,18C247.82,317.52,245.26,318.45,242.52,318Zm40.16-16.11a213.79,213.79,0,0,0,33.21-9.52c1.28-.48,2.73-1.34,2.37-2.95-.42-1.82-2.19-1.49-3.44-1.18a108.44,108.44,0,0,0-32.14,13.6Z" transform="translate(0.02 -0.04)" style="fill:#474747"/><path d="M204.76,322.59c-1.26-3.37-6.64-3.59-7.57.16a2,2,0,0,0,.25,1.63,3.77,3.77,0,0,0-.8,4.8,2.19,2.19,0,0,0,2.37,1,8.25,8.25,0,0,0,4.76-2.49A5.18,5.18,0,0,0,204.76,322.59Z" transform="translate(0.02 -0.04)" style="fill:#fff"/><path d="M239.73,323.27a16.06,16.06,0,0,0-3.78-.43,2.09,2.09,0,0,0-2-1.78,8.81,8.81,0,0,0-6.55,2.37,2,2,0,0,0-.4,2.33c-2,1.61.06,5.1,2.22,3.54a12.1,12.1,0,0,1,2-1.16,12.82,12.82,0,0,0,9-1,2.12,2.12,0,0,0-.49-3.87Z" transform="translate(0.02 -0.04)" style="fill:#fff"/></g></g></svg>