<svg id="Layer_1" data-name="Layer 1" xmlns="http://www.w3.org/2000/svg" viewBox="0 0 494 523"><title>fireworks</title><g id="Layer_2" data-name="Layer 2"><g style="opacity:0.12"><path d="M387.64,259.37a10.78,10.78,0,0,1-3.47,1.78,62,62,0,0,1-7.25,1.69,12.64,12.64,0,0,0-1.49.29,12.47,12.47,0,0,1-3.38.46,15.4,15.4,0,0,0-2.87.26,1.57,1.57,0,0,0-.86.43.87.87,0,0,0-.16.37,2.72,2.72,0,0,0-.05.49,1,1,0,0,0,0,.25,2.07,2.07,0,0,1,.32-.19,6.62,6.62,0,0,1,2.24-.49,21.67,21.67,0,0,0,4.68-.47,13.51,13.51,0,0,1,1.68-.34,50.85,50.85,0,0,0,7.68-1.86,6.5,6.5,0,0,0,3.59-2.69,6.63,6.63,0,0,0,.68-1.54A7.14,7.14,0,0,1,387.64,259.37Z" style="fill:#6a374f;stroke:#6a374f;stroke-linecap:round;stroke-linejoin:round;stroke-width:28px"/><path d="M371.57,362.59a150.7,150.7,0,0,0,48-13.49,13.44,13.44,0,0,0,1.17-1.63,152,152,0,0,1-52.05,14.33A26.71,26.71,0,0,0,371.57,362.59Z" style="fill:#6a374f;stroke:#6a374f;stroke-linecap:round;stroke-linejoin:round;stroke-width:28px"/><path d="M183.42,170.07a12.79,12.79,0,0,1,8.21-3.79c.78-.07,1.56-.11,2.32-.11a34.07,34.07,0,0,1,13.46,3.19,112.06,112.06,0,0,1,34.34,23,110.58,110.58,0,0,0-35.37-24.16,32.54,32.54,0,0,0-12.86-3.07,16,16,0,0,0-2.18.1,11.31,11.31,0,0,0-7.27,3.33,9.56,9.56,0,0,0-2,3.3A11.2,11.2,0,0,1,183.42,170.07Z" style="fill:#6a374f;stroke:#6a374f;stroke-linecap:round;stroke-linejoin:round;stroke-width:28px"/><path d="M64,246.25a2.33,2.33,0,0,0-.9.21,4.79,4.79,0,0,1,2.25,1.09,2.28,2.28,0,0,0-.57-1A1.08,1.08,0,0,0,64,246.25Z" style="fill:#6a374f;stroke:#6a374f;stroke-linecap:round;stroke-linejoin:round;stroke-width:28px"/><path d="M179.38,307.5c-9.23,8.69-16.93,18.77-24.75,28.82a3.92,3.92,0,0,0-.42.64.94.94,0,0,0-.13.43v.14a.69.69,0,0,0,.24.24c.22.15.3.15.35.15a.58.58,0,0,0,.37-.17,4.57,4.57,0,0,0,.68-.71c4.66-5.63,9.39-11.2,13.95-16.89C172.93,316.13,176.45,312.49,179.38,307.5Z" style="fill:#6a374f;stroke:#6a374f;stroke-linecap:round;stroke-linejoin:round;stroke-width:28px"/><path d="M200.92,153.36c-.37.27-.71.5-1,.72a1.86,1.86,0,0,0-.53.59,1,1,0,0,0-.08.37,1.5,1.5,0,0,0,0,.3.33.33,0,0,0,0,.14c.35-.3.72-.56,1-.8,1.93-1.42,3.89-2.8,5.86-4.15,24-16.39,48.15-32.49,72.72-48,.47-.3,1-.78,1.58-1.21a3.62,3.62,0,0,1,2-.82,2,2,0,0,1,.64.1,1.82,1.82,0,0,0-.11-.46,1.25,1.25,0,0,0-.5-.52.87.87,0,0,0-.47-.15,1.31,1.31,0,0,0-.48.12,4.62,4.62,0,0,0-.67.41c-.5.36-1,.86-1.66,1.26-24.55,15.48-48.71,31.57-72.67,48C204.71,150.59,202.83,152,200.92,153.36Z" style="fill:#6a374f;stroke:#6a374f;stroke-linecap:round;stroke-linejoin:round;stroke-width:28px"/><path d="M225.12,195.48c-6.48-2.48-12.92-5-19.41-7.4a48.8,48.8,0,0,0-8.79-2.53,4.74,4.74,0,0,0-.75-.06,3.39,3.39,0,0,0-2.52,1.07,7.2,7.2,0,0,0-1.48,2.59,6.4,6.4,0,0,1,.84-1.1,4.87,4.87,0,0,1,3.59-1.53,6.74,6.74,0,0,1,1,.08,49.9,49.9,0,0,1,9.06,2.6c6.38,2.34,12.71,4.83,19.05,7.27l.34-.56-.15-.13h0Z" style="fill:#6a374f;stroke:#6a374f;stroke-linecap:round;stroke-linejoin:round;stroke-width:28px"/><path d="M147.4,258.67a2.6,2.6,0,0,0-.62.11,31,31,0,0,1,4.39,1.57c11.58,5.54,20.87,13.85,28.51,24a16.23,16.23,0,0,1,1.08,1.53,3.8,3.8,0,0,1,.59,1.72,1,1,0,0,0,.34-.32,1.18,1.18,0,0,0,.29-.74,2.43,2.43,0,0,0-.39-1.1,16.83,16.83,0,0,0-1-1.39c-7.53-10-16.63-18.15-28-23.59A45.43,45.43,0,0,0,147.4,258.67Z" style="fill:#6a374f;stroke:#6a374f;stroke-linecap:round;stroke-linejoin:round;stroke-width:28px"/><path d="M316.15,42.41h0a2.29,2.29,0,0,1,.82-.15,2,2,0,0,1,.64.11h0a3.09,3.09,0,0,0-.71-1,.5.5,0,0,0-.33-.12,1,1,0,0,0-.34.06h0c-.31.11-.36.19-.45.35a2,2,0,0,0-.14.84v.18A2.49,2.49,0,0,1,316.15,42.41Z" style="fill:#6a374f;stroke:#6a374f;stroke-linecap:round;stroke-linejoin:round;stroke-width:28px"/><path d="M300.14,456.23a3.37,3.37,0,0,1,1.08,1.5,1.26,1.26,0,0,0,.34-.31.63.63,0,0,0,.07-.3,3.43,3.43,0,0,0-.76-1.73,18.8,18.8,0,0,1-3.55-10.65,10.37,10.37,0,0,1,.05-1.25C294.71,447.73,296.38,453.2,300.14,456.23Z" style="fill:#6a374f;stroke:#6a374f;stroke-linecap:round;stroke-linejoin:round;stroke-width:28px"/><path d="M300.23,435c.14-.24.28-.48.43-.72a3.71,3.71,0,0,0,.69-1.65v-.17s0-.06-.13-.12a3.3,3.3,0,0,0-1.55-.26h-2.13A5.05,5.05,0,0,1,300.23,435Z" style="fill:#6a374f;stroke:#6a374f;stroke-linecap:round;stroke-linejoin:round;stroke-width:28px"/><path d="M239.48,466.75h.07l.07-.24Z" style="fill:#6a374f;stroke:#6a374f;stroke-linecap:round;stroke-linejoin:round;stroke-width:28px"/><path d="M438.18,467.47a1.19,1.19,0,0,0,.81.26,3.61,3.61,0,0,0,1.13-.23,2.54,2.54,0,0,0,1.23-.8,1.75,1.75,0,0,0,.33-1.11,4.42,4.42,0,0,0-.21-1.25c-1.41-4.78-2.41-9.63-4-14.19-1.34-3.85-2.09-7.82-3.05-11.82a58.08,58.08,0,0,0-3.06-9.64h0c.24,12.72,4.16,25,6.33,37.66A1.74,1.74,0,0,0,438.18,467.47Z" style="fill:#6a374f;stroke:#6a374f;stroke-linecap:round;stroke-linejoin:round;stroke-width:28px"/><path d="M256,487.86q.15.33.3.6a4.72,4.72,0,0,0,.69,1.08,3.08,3.08,0,0,0,.52-.5c.45-.52,1.06-1.39,1.85-2.55a30.41,30.41,0,0,1,3.55-4.29A18.62,18.62,0,0,0,256,487.86Z" style="fill:#6a374f;stroke:#6a374f;stroke-linecap:round;stroke-linejoin:round;stroke-width:28px"/><path d="M259.83,433.52a5.3,5.3,0,0,0-.73-.51v.09a7.05,7.05,0,0,0,.64,2.75l1.15-1.31A14.55,14.55,0,0,0,259.83,433.52Z" style="fill:#6a374f;stroke:#6a374f;stroke-linecap:round;stroke-linejoin:round;stroke-width:28px"/><polygon points="316.14 42.41 316.15 42.41 316.15 42.41 316.14 42.41" style="fill:#6a374f;stroke:#6a374f;stroke-linecap:round;stroke-linejoin:round;stroke-width:28px"/><path d="M477.79,471.27c-3.36-1.76-6.62-1.87-9.66-2a21.61,21.61,0,0,1-4-.46,5,5,0,0,1-1.7-.71,3.69,3.69,0,0,1-1.35-2,19.87,19.87,0,0,1-.62-4.41c-.08-1.24-.1-2.49-.1-3.75v-3.6c0-1,0-2.07-.06-3.12a33.86,33.86,0,0,0-.22-3.9,11.29,11.29,0,0,0-1.72-4.58l-1-1.63-.73,1.8c-1.08,2.72-3,4.94-4.68,7.37a20.83,20.83,0,0,0-2.26,3.94,12.58,12.58,0,0,0-.93,4.14,4,4,0,0,1-.8-1,8.64,8.64,0,0,1-.69-2.16c-5.43-21.54-10.76-43.11-16.17-64.66a6.59,6.59,0,0,1-.23-1.71,4.79,4.79,0,0,1,.61-2.4,7.44,7.44,0,0,1,1.88-2.11,10.66,10.66,0,0,0,3-3.54,9.47,9.47,0,0,0,1-4.31,14.06,14.06,0,0,0-.32-2.89c-2.15-10.59-3.82-21.3-5.82-32q-8.42-45-17-89.89-7.14-37.63-14.42-75.25a15,15,0,0,1-.41-2.91,3.2,3.2,0,0,1,.66-2.13,10.79,10.79,0,0,0,2.71-6.94,12.27,12.27,0,0,0-.95-4.51,27.51,27.51,0,0,0-2.26-4.34c-17.64-28.41-35.08-57-52.74-85.36-9.4-15.12-18.56-30.49-29.78-44.53A18.67,18.67,0,0,0,315,23.37,4.84,4.84,0,0,0,311.73,22a5.17,5.17,0,0,0-1.78.35,4.3,4.3,0,0,0-1.59,1.07,4.47,4.47,0,0,0-1.06,2.26,12.32,12.32,0,0,0-.15,2.27V29c-.25,8.82-.55,17.65-.66,26.49-.36,28.37-.76,56.74-.76,85.13q0,19.78.3,39.59a49.34,49.34,0,0,0,.4,6.43,11.13,11.13,0,0,0,1,3.39,8.23,8.23,0,0,0,3.63,3.47,38.64,38.64,0,0,0,6.57,2.5,5.14,5.14,0,0,1,2.69,1.68,6.73,6.73,0,0,1,1.13,3c2.31,12.65,4.73,25.29,7.14,37.92q7.07,37.08,14.16,74.16c4.9,25.81,9.89,51.61,14.53,77.46a14,14,0,0,0,3.49,7.4,17.13,17.13,0,0,0,6.68,4.19,41.87,41.87,0,0,0,15.11,2.56,81.24,81.24,0,0,0,9.86-.67h0a9.76,9.76,0,0,1,1.32-.09,3.1,3.1,0,0,1,1.81.41,1.06,1.06,0,0,1,.32.43,2.23,2.23,0,0,1,.14.85,6.57,6.57,0,0,1-.23,1.59c-2.18,8.77-5.72,16.37-10.86,22.51a44.77,44.77,0,0,1-20.59,13.76,27.32,27.32,0,0,1-8.78,1.51A20.67,20.67,0,0,1,343.5,441a19,19,0,0,1-7.16-10.1,98.6,98.6,0,0,1-2.55-12.27c-2.46-14.81-4.05-29.91-8.83-44.43-2.74-8.31-6.2-16.15-11.09-22.94a50.93,50.93,0,0,0-19.66-16.52,44.36,44.36,0,0,0-19-4.68,31.55,31.55,0,0,0-16.06,4.26,36.45,36.45,0,0,0-12.48,12.57,73.72,73.72,0,0,0-11,39.66q0,4.2.39,8.5c1.37,15,5.71,29,11,42.78.11.27.19.56.28.84-.74,2.68-1.49,5.36-2.23,8a24.7,24.7,0,0,0-1.59-6.83,11.33,11.33,0,0,0-5.48-5.71l-2.14-1.07.74,2.28a42.43,42.43,0,0,1,2.21,13.22,38,38,0,0,1-4.13,17.1A62.52,62.52,0,0,1,223.59,481l-2.33,2.44,3.28-.77A43.91,43.91,0,0,0,232,480a15.73,15.73,0,0,1,6.14-1.44,10.28,10.28,0,0,1,4.68,1.12,16.12,16.12,0,0,1,4.47,3.53c2.5,2.69,3.81,6.16,5.38,9.74a27.92,27.92,0,0,1,1.54,5.89,30.26,30.26,0,0,0,2.3,7.38l1.11,2.32.75-2.46c1.61-5.33,3.17-10.34,5.5-14.47A20.61,20.61,0,0,1,274,482.2a16,16,0,0,1,3.71-1.08l2.4,1.11A30.71,30.71,0,0,1,291,484.67c3.18,1.84,6.45,4,10.06,5.81l3.87,1.9L302.26,489c-.62-.8-1.26-1.56-1.92-2.29a4.15,4.15,0,0,0,.24-3.11c-.78-2.7-1.53-5.4-2.27-8.11h.34l-.15-1.1a25,25,0,0,0-1.12-4.15,12.48,12.48,0,0,1-.79-3.62,3.38,3.38,0,0,1,.54-1.93,2.51,2.51,0,0,1,.32-.41,17.9,17.9,0,0,0,1.78-.95,4,4,0,0,0,.85-.68,6,6,0,0,1,1.84-.29A14.91,14.91,0,0,1,307,463.6a17.11,17.11,0,0,0,5.89,1.41h1.34l-.13-1.09a4.68,4.68,0,0,0-1.34-2.78c-.62-.64-1.27-1.06-1.71-1.46a39.4,39.4,0,0,1-6.6-7.23,9.88,9.88,0,0,1,0-12.18,39.69,39.69,0,0,1,6.61-7.33c.28-.27.78-.59,1.26-1a3.39,3.39,0,0,0,.68-.83,2.41,2.41,0,0,0,.33-1.23,3.12,3.12,0,0,0-.2-1,3.17,3.17,0,0,0-1.4-1.68,3.72,3.72,0,0,0-1.82-.42,9.61,9.61,0,0,0-1.69.19,20.23,20.23,0,0,0-3.77,1.37,17.8,17.8,0,0,1-6.56,1.34,13.22,13.22,0,0,1-9-3.39,15.89,15.89,0,0,1-4.77-9.45c-.11-.61,0-1.5-.11-2.51a5.16,5.16,0,0,0-.4-1.59,4.46,4.46,0,0,0-1.18-1.51l-1-.83-.55,1.18a15.86,15.86,0,0,0-1.49,6.64,14.11,14.11,0,0,0,3.75,9.66,13.83,13.83,0,0,0,9.72,4.33h1.6a3.81,3.81,0,0,0-.65.38,6.41,6.41,0,0,1-2.83,1.22,22,22,0,0,1-12.92-13.05,4.77,4.77,0,0,0-1-1.64,12.74,12.74,0,0,1-6.67,5.46h-.16a3.77,3.77,0,0,1-1.56-.3,4.28,4.28,0,0,1-1.45-1c-6.8-7-12.68-14.37-15.3-23.86a64.7,64.7,0,0,1-2.3-17.39,94.08,94.08,0,0,1,3-22.46c1.6-6.52,4.34-11.41,8-14.66A20.37,20.37,0,0,1,274.57,340h.77a36.82,36.82,0,0,1,26.27,11.78c7.46,7.7,11.78,17.2,14.85,27.42,4.58,15.25,6.26,31.15,8.76,47,1.37,8.69,4.89,15.73,10.06,20.6A28.23,28.23,0,0,0,355,454.2a39.71,39.71,0,0,0,10.05-1.36A51.28,51.28,0,0,0,388,440.25a62.41,62.41,0,0,0,14.33-21.89c2.11-5.23,2.27-10.69,3.66-15.65a6.36,6.36,0,0,1,1.43-2.64A7.85,7.85,0,0,1,411,398a28.57,28.57,0,0,1,4.31-.85h.46a1.25,1.25,0,0,1,1,.38,2.15,2.15,0,0,1,.45.86,12,12,0,0,1,.39,2.22,23.45,23.45,0,0,0,.32,2.52c4.43,20.66,9.05,41.27,14.37,61.73.16.59.35,1.12.5,1.6a4.84,4.84,0,0,1,.23,1.25,1.68,1.68,0,0,1-.12.63,1.92,1.92,0,0,1-.49.64,3.71,3.71,0,0,1-2.61,1,8.16,8.16,0,0,1-2.19-.36,13.56,13.56,0,0,1-6.53-4.8c-2.38-2.88-4.65-5.87-7.49-9.49l-1.41-1.79-.37,2.25a12.17,12.17,0,0,0-.16,2,21.66,21.66,0,0,0,.9,5.53,19.83,19.83,0,0,1,.83,4.64,6.76,6.76,0,0,1-.28,2,5.73,5.73,0,0,1-1.66,2.77,9.28,9.28,0,0,1-4.39,1.79,49.06,49.06,0,0,0-6,1.34l-2.85.93,2.84,1a26.48,26.48,0,0,0,8.2,1.7,10.71,10.71,0,0,0,4.82-1.07,11.84,11.84,0,0,0,4.11-3.56,4.74,4.74,0,0,1,1-1,1.3,1.3,0,0,1,.8-.28,3.53,3.53,0,0,1,1.54.49,28.53,28.53,0,0,0,13.28,3.61A22,22,0,0,0,445,475.19a30,30,0,0,0,8.22-6.42,21.64,21.64,0,0,0,5.65,5.1,14.68,14.68,0,0,0,7.62,2,30.78,30.78,0,0,0,11.32-2.69l2-.81ZM419.59,349.1a150.7,150.7,0,0,1-48,13.49,28.13,28.13,0,0,1-2.86-.79,152,152,0,0,0,52-14.33A12.58,12.58,0,0,1,419.59,349.1ZM395.35,213.57ZM384.75,262a50.85,50.85,0,0,1-7.68,1.86,13.51,13.51,0,0,0-1.68.34,21.67,21.67,0,0,1-4.68.47,6.62,6.62,0,0,0-2.24.49,2.07,2.07,0,0,0-.32.19,1,1,0,0,1,0-.25,2.72,2.72,0,0,1,.05-.49.87.87,0,0,1,.16-.37,1.57,1.57,0,0,1,.86-.43,15.4,15.4,0,0,1,2.87-.26,12.47,12.47,0,0,0,3.38-.46,12.64,12.64,0,0,1,1.49-.29,62,62,0,0,0,7.25-1.69,10.78,10.78,0,0,0,3.47-1.78,6.84,6.84,0,0,0,1.38-1.56,6.63,6.63,0,0,1-.68,1.54A6.55,6.55,0,0,1,384.75,262Zm-69-220.39c.09-.16.14-.24.45-.35h0a1,1,0,0,1,.34-.06.5.5,0,0,1,.33.12,3.09,3.09,0,0,1,.71,1h0a2,2,0,0,0-.64-.11,2.29,2.29,0,0,0-.82.15,2.61,2.61,0,0,0-.53.26v-.18a2,2,0,0,1,.16-.79ZM431.36,428.72h0a58.08,58.08,0,0,1,3.06,9.64c1,4,1.71,8,3.05,11.82,1.59,4.56,2.59,9.41,4,14.19a4.42,4.42,0,0,1,.21,1.25,1.75,1.75,0,0,1-.33,1.11,2.54,2.54,0,0,1-1.23.8,3.61,3.61,0,0,1-1.13.23,1.19,1.19,0,0,1-.81-.26,1.74,1.74,0,0,1-.49-1.08c-2.17-12.69-6.09-24.94-6.33-37.66Zm-172,57.77c-.79,1.16-1.4,2-1.85,2.55a3.08,3.08,0,0,1-.52.5,4.72,4.72,0,0,1-.69-1.08q-.15-.27-.3-.6a18.62,18.62,0,0,1,6.91-5.66,30.09,30.09,0,0,0-3.6,4.29Zm.43-50.64a7.05,7.05,0,0,1-.64-2.75V433a5.3,5.3,0,0,1,.73.51c.37.32.72.65,1.06,1Zm-20.26,30.9.14-.22-.07.24Zm61.39-11.36a3.43,3.43,0,0,1,.76,1.73.63.63,0,0,1-.07.3,1.26,1.26,0,0,1-.34.31,3.37,3.37,0,0,0-1.08-1.5c-3.76-3-5.43-8.5-2.77-12.74,0,.41-.05.83-.05,1.25a18.85,18.85,0,0,0,3.5,10.65ZM299.5,432h.13a3.3,3.3,0,0,1,1.55.26c.1.06.12.1.13.12a.81.81,0,0,1,0,.17,3.71,3.71,0,0,1-.69,1.65c-.15.24-.29.48-.43.72a5.07,5.07,0,0,0-2.75-2.87Z" style="fill:#6a374f;stroke:#6a374f;stroke-linecap:round;stroke-linejoin:round;stroke-width:28px"/><polyline points="395.35 213.56 395.35 213.56 395.35 213.56" style="fill:#6a374f;stroke:#6a374f;stroke-linecap:round;stroke-linejoin:round;stroke-width:28px"/><polygon points="140.89 332 140.89 331.99 140.89 331.99 140.89 332" style="fill:#6a374f;stroke:#6a374f;stroke-linecap:round;stroke-linejoin:round;stroke-width:28px"/><path d="M221.3,353.75a9.14,9.14,0,0,0-2.63-1.91,6,6,0,0,0-4.2-.34,9,9,0,0,1-2.42.33,10.06,10.06,0,0,1-4-.9,50.8,50.8,0,0,1-5.8-3.36,16.15,16.15,0,0,0-6.47-2.52,1.68,1.68,0,0,1-.27-.42,1.09,1.09,0,0,1-.1-.25v-.12a4,4,0,0,0-.78-2.48,2.45,2.45,0,0,0-.94-.65,3.08,3.08,0,0,0-1-.16,10.36,10.36,0,0,0-2.4.44c-4,.94-7.83,2.1-11.73,2.81-.58.1-1.16.25-1.73.37a7.4,7.4,0,0,1-1.55.2,2.29,2.29,0,0,1-1-.2,1.62,1.62,0,0,1-.71-.73,1.09,1.09,0,0,1-.17-.58,1.6,1.6,0,0,1,.18-.68,7.69,7.69,0,0,1,.95-1.38,14.09,14.09,0,0,0,1.21-1.66,22.8,22.8,0,0,1,2.8-3.4,11.49,11.49,0,0,0,2.76-4.9l.43-1.68L180,330c-3.47,1-6.26,2.84-9,4.52a25.7,25.7,0,0,1-7.21,3.43,4.53,4.53,0,0,1,.63-1.31,22.06,22.06,0,0,1,1.74-2q41.06-47.68,78.29-98.4a10.74,10.74,0,0,1,1.81-2,3.8,3.8,0,0,1,2.23-.87c7.75-.51,13.47-3.41,17.57-7.87s6.59-10.39,8.19-17c8-33.13,13-66.78,17.56-100.48.63-4.68,1.56-9.38,2.08-14.18a21.25,21.25,0,0,0,.15-2.25,7.88,7.88,0,0,0-.53-3A5.69,5.69,0,0,0,291.28,86a5.06,5.06,0,0,0-2.77-.86,6.1,6.1,0,0,0-3,.86c-.87.47-1.66,1-2.39,1.49-5,3.13-10,6.21-14.89,9.54-29.34,20-60.76,37.24-87.64,61.33A23.69,23.69,0,0,0,172.83,176a22.62,22.62,0,0,0,2.78,11,9,9,0,0,1,1.36,4.36,6.39,6.39,0,0,1-.55,2.55,14.79,14.79,0,0,1-1.69,2.84c-11.93,16.47-25.52,31.77-37,48.8a16.81,16.81,0,0,0-3.13,9.58,18.9,18.9,0,0,0,1.7,7.54c2.4,5.51,5.41,10.72,10,14.9a8.31,8.31,0,0,1,1.62,1.93,3.58,3.58,0,0,1,.5,1.77,5.56,5.56,0,0,1-1.24,3.14c-2.82,3.95-5.09,8.19-7.79,12a25.28,25.28,0,0,1-7.54,7.28,16.15,16.15,0,0,1-8.28,2.38c-5.21,0-10.58-2.71-15.31-8.39-3.75-4.52-7.45-9.08-10.91-13.79s-7.88-7.26-12.55-9.18c-2.35-1-4.76-1.76-7.14-2.56-.42-2.86-2-5.07-4.13-7.59a11,11,0,0,0,1.88.32l2,.17-1-1.68a96.54,96.54,0,0,1-6.82-13.6,9.34,9.34,0,0,1-.68-3.58,24,24,0,0,1,.67-4.85,26,26,0,0,0,.7-5.27,12.58,12.58,0,0,0-.1-1.62L70,233.29l-1.08.27a5,5,0,0,0-2.7,1.63,18.67,18.67,0,0,0-1.29,1.9,15.42,15.42,0,0,1-4.69,4.72,10.44,10.44,0,0,1-5.55,1.51,17.15,17.15,0,0,1-5.31-.94,27.1,27.1,0,0,1-10.8-6.57,24,24,0,0,0-2-1.91,5.25,5.25,0,0,0-3.31-1.15h-.74l-1.31.15.51,1.22c1.72,4.13,3.42,7.74,4.75,11.44a17.24,17.24,0,0,1,1.16,5.63,6.48,6.48,0,0,1-2,5,13.84,13.84,0,0,1-6.56,3,7.91,7.91,0,0,1-1.08.11,8.81,8.81,0,0,0-2.17.24,2.87,2.87,0,0,0-1.13.6,2.64,2.64,0,0,0-.77,1.24,3.21,3.21,0,0,0-.14.92,2.84,2.84,0,0,0,.5,1.62,6.26,6.26,0,0,0,1.56,1.52,10.36,10.36,0,0,1,1.31,1.07c3,3.27,4.43,6.58,4.43,9.76,0,3.44-1.66,6.87-5.19,10.09-.54.5-1.35,1-2.17,1.71a6,6,0,0,0-1.92,3.35L22,293.28l1.73-.67c.82-.33,1.6-.67,2.35-1a4.46,4.46,0,0,0,.6,1.4,9.29,9.29,0,0,1,2.52-.87,28.84,28.84,0,0,1,5-.41,7.16,7.16,0,0,1,3.8,1,11.08,11.08,0,0,1,1.16,4.79c0,2.64-1.07,5.1-2.46,7.63a51,51,0,0,0-4.07,8l-1,2.84,2.48-1.7c2.74-1.88,5.29-4,7.91-5.68A22.54,22.54,0,0,1,50.43,305a11.1,11.1,0,0,1,1.82-.17,7.35,7.35,0,0,1,3.8,1,15.4,15.4,0,0,1,4.47,4.59c1.42,2,2.85,4.33,4.61,6.58L67,319.4l-.11-3v-1.59a31.09,31.09,0,0,1,2.43-12.88,24.82,24.82,0,0,1,7.54-9.48l2.66-2.11-3.37.33a7.42,7.42,0,0,0-1,.13,9.17,9.17,0,0,0,.67-1.18,12.46,12.46,0,0,0,.93-5.43,14.11,14.11,0,0,1,2.43-.26,10,10,0,0,1,5,1.34,21.56,21.56,0,0,1,5.14,4.38c3.78,4.16,7.13,8.77,10.76,13.21a46.26,46.26,0,0,0,7.29,7.38,24.32,24.32,0,0,0,9.52,4.61,27.38,27.38,0,0,0,6.18.71c9.34,0,18.15-4.91,24.31-13.84,2.65-3.82,4.88-7.88,7.17-11.85A6.48,6.48,0,0,1,156,288a1.92,1.92,0,0,1,1.29-.51,4.41,4.41,0,0,1,2.46,1.06,54.6,54.6,0,0,0,13.32,7.18,6,6,0,0,1,2.08,1.16,1.33,1.33,0,0,1,.46,1,2.83,2.83,0,0,1-.34,1.17,9.74,9.74,0,0,1-1.16,1.69C168,308.18,162.47,316,156,322.89c-1.85,2-3.2,3.6-4.23,4.66a10.08,10.08,0,0,1-1.28,1.16,1.29,1.29,0,0,1-.61.27c-.08,0-.17,0-.41-.21A8.51,8.51,0,0,1,148,326.5c-.65-1.21-1.42-2.86-2.39-5a1.14,1.14,0,0,0-.31-.41,1.86,1.86,0,0,0-.49-.29l-.59-.17-.67-.21-1-.35-.31,1c-1.19,3.74-1,7.46-1.33,10.93,0,.26,0,.51,0,.77v.82a4,4,0,0,1-.16,1.34,1.34,1.34,0,0,1-.22.36,1.37,1.37,0,0,1-.44.28.76.76,0,0,1-.33.08.68.68,0,0,1-.34-.11,3.45,3.45,0,0,1-.84-.73,9.27,9.27,0,0,0-1.17-1.09c-3.47-2.51-6.92-5.08-11.29-8.3l-1.9-1.42.27,2.29a25.31,25.31,0,0,0,2.53,7.46c1,2.26,1.91,4.33,1.9,6.16a5.44,5.44,0,0,1-.68,2.67,9.29,9.29,0,0,1-2.58,2.86l-1.1.86,1.17.76a5.32,5.32,0,0,0,2.88.95,4.11,4.11,0,0,0,2.13-.61,5.09,5.09,0,0,0,1.52-1.44,6.27,6.27,0,0,1,1.37-1.49,1.62,1.62,0,0,1,.92-.36,1.75,1.75,0,0,1,1,.41A7.79,7.79,0,0,1,137,346a10.48,10.48,0,0,0,2.23,2.18,4.77,4.77,0,0,0,2.77,1,4.55,4.55,0,0,0,2.19-.59,8,8,0,0,0,2.09-1.75,1.39,1.39,0,0,1,.44-.36.68.68,0,0,1,.31-.08,2,2,0,0,1,.78.23c.33.16.72.4,1.14.65s1.22.77,1.93,1.15a5.19,5.19,0,0,0,2.39.71h.2c2.4-.15,4.67-.42,6.84-.42a15.05,15.05,0,0,1,9.55,3,4.92,4.92,0,0,0,2,.84,9.53,9.53,0,0,0,2.13.18c1.16,0,2.34-.09,3.49-.09a10.36,10.36,0,0,1,3.18.4,5.7,5.7,0,0,1,2.64,1.78,1.57,1.57,0,0,0,.88.52,2.84,2.84,0,0,0,.82.1,7.77,7.77,0,0,0,2.61-.52,13.09,13.09,0,0,1,4.87-.93c3.18,0,6.34,1.12,9.74,2.53a18.91,18.91,0,0,0,7.27,1.42A31.13,31.13,0,0,0,221,355.38l1.4-.56ZM155.75,337a4.57,4.57,0,0,1-.68.71.58.58,0,0,1-.37.17.71.71,0,0,1-.35-.15.69.69,0,0,1-.24-.24v-.14a.94.94,0,0,1,.13-.43,3.92,3.92,0,0,1,.42-.64c7.82-10,15.52-20.13,24.75-28.82-2.93,5-6.45,8.63-9.68,12.65C165.14,325.84,160.41,331.41,155.75,337Zm70.3-141.13-.34.56c-6.34-2.44-12.67-4.93-19.05-7.27a49.9,49.9,0,0,0-9.06-2.6,6.74,6.74,0,0,0-1-.08A4.87,4.87,0,0,0,193,188a6.4,6.4,0,0,0-.84,1.1,7.2,7.2,0,0,1,1.48-2.59,3.39,3.39,0,0,1,2.52-1.07,4.74,4.74,0,0,1,.75.06,48,48,0,0,1,8.79,2.53c6.49,2.37,12.93,4.92,19.41,7.4l.78.3h0ZM180.6,284.08a16.83,16.83,0,0,1,1,1.39,2.43,2.43,0,0,1,.39,1.1,1.18,1.18,0,0,1-.29.74,1,1,0,0,1-.34.32,3.8,3.8,0,0,0-.59-1.72,16.23,16.23,0,0,0-1.08-1.53c-7.64-10.18-16.93-18.49-28.51-24a31,31,0,0,0-4.39-1.57,2.6,2.6,0,0,1,.62-.11,46.38,46.38,0,0,1,5.24,1.82C164,265.93,173.07,274.05,180.6,284.08ZM281.07,100a4.62,4.62,0,0,1,.67-.41,1.31,1.31,0,0,1,.48-.12.87.87,0,0,1,.47.15,1.25,1.25,0,0,1,.5.52,1.82,1.82,0,0,1,.11.46,2,2,0,0,0-.64-.1,3.62,3.62,0,0,0-2,.82c-.58.43-1.11.91-1.58,1.21-24.57,15.49-48.74,31.59-72.72,48-2,1.35-3.93,2.73-5.86,4.15a10.3,10.3,0,0,0-1,.8.33.33,0,0,1,0-.14,1.5,1.5,0,0,1,0-.3,1,1,0,0,1,.08-.37,1.86,1.86,0,0,1,.53-.59c.27-.22.61-.45,1-.72,1.91-1.41,3.85-2.79,5.82-4.12,24-16.39,48.12-32.48,72.67-48C280,100.88,280.57,100.38,281.07,100Zm-89.73,65.22c.73-.07,1.46-.1,2.18-.1a32.54,32.54,0,0,1,12.86,3.07,110.58,110.58,0,0,1,35.37,24.16,112.06,112.06,0,0,0-34.34-23A34,34,0,0,0,194,166.17a16.53,16.53,0,0,0-2.32.11,12.79,12.79,0,0,0-8.21,3.79,11.46,11.46,0,0,0-1.38,1.8,9.56,9.56,0,0,1,2-3.3,11.31,11.31,0,0,1,7.25-3.33ZM63.09,246.46a2.33,2.33,0,0,1,.9-.21,1.1,1.1,0,0,1,.78.32,2.28,2.28,0,0,1,.57,1A4.78,4.78,0,0,0,63.09,246.46Z" style="fill:#6a374f;stroke:#6a374f;stroke-linecap:round;stroke-linejoin:round;stroke-width:28px"/><polygon points="24 261.43 24 261.43 24 261.42 24 261.43" style="fill:#6a374f;stroke:#6a374f;stroke-linecap:round;stroke-linejoin:round;stroke-width:28px"/><path d="M72.21,262.6a32.94,32.94,0,0,1-7.06-14.9c-.51-2.54-3.28-3.54-5.53-3.15a22.62,22.62,0,0,1-15.41-2.8,4.56,4.56,0,0,0-6.61,5.09,14.65,14.65,0,0,0,1.29,3.51l1,1.75.07.16c-.92,1-3.67,2.25-4.49,2.8l-4.75,3.18a4.61,4.61,0,0,0-1.62,6.16c2.85,5.1,5.94,13.35-.39,17.27a4.29,4.29,0,0,0-2,2.8,4.84,4.84,0,0,0-1.37,6.64,9.12,9.12,0,0,1,2.53-.86,27.89,27.89,0,0,1,5-.42,7.39,7.39,0,0,1,6.6,4.11c.47.13.94.26,1.41.41A4.38,4.38,0,0,0,42,298.66a5.75,5.75,0,0,0,6.15,1.49,27,27,0,0,1,10.35,3.21c3.29,1.78,6.33-.55,6.77-3.89.8-6,7-6.81,9.28-11.73a13.37,13.37,0,0,0,.92-6,41.7,41.7,0,0,1,.89-8.11C77.07,268.9,75.07,266.05,72.21,262.6Z" style="fill:#6a374f;stroke:#6a374f;stroke-miterlimit:10"/><path d="M273.58,479a4.47,4.47,0,0,0,2.12,0l3,1.4a34,34,0,0,1,18.16,6.4,4.12,4.12,0,0,0,2.34-5.06q-2.67-9.25-5.06-18.57a18.62,18.62,0,0,0,3.71-1.71c2.27-1.35,3.23-5.2.91-7.07-4-3.23-5.65-9.25-2.17-13.59a5.44,5.44,0,0,0,1.07-2.43c.31-.51.6-1,.91-1.54,2.25-3.68-2.39-8.8-6.16-6.16a6.1,6.1,0,0,1-2.82,1.22,21.92,21.92,0,0,1-12.92-13.05,4.77,4.77,0,0,0-1-1.64,13,13,0,0,1-9.3,6.15c-2.77,5.54-7.6,9.85-11.44,14.8.83-5.18-7.31-7.21-8.8-1.82l-7.92,28.61c-.33-.13-.65-.26-1-.37-5.49-1.91-7.84,6.78-2.4,8.67a16.36,16.36,0,0,1,4.75,2.58A15,15,0,0,1,252.73,486c.22.56.39,1.13.56,1.71a4.16,4.16,0,0,0,.6-.73A18.62,18.62,0,0,1,273.58,479Z" style="fill:#6a374f;stroke:#6a374f;stroke-miterlimit:10"/><path d="M397.41,214.9c-2.23-11.55-4.28-21.51-6-31.51-.72-4.13-2.12-4.16-5.43-2.25-16.08,9.27-33.57,13.86-52,15.28-7.78.58-7.94.84-6.42,8.44Q334,237,340.13,269.21C344.87,294.11,349.6,319,354,344c1,5.83,3.82,8,9.56,8,18.46.16,35.52-5,52-12.81,3.58-1.71,4.81-4.13,4-8-1.79-8.82-3.48-17.65-5.17-26.49-.66-3.45-2.84-5.83-5.22-8.21s-3.93-2.88-5.55.84a74.92,74.92,0,0,1-20.4,27c-1.52,1.25-3.44,2.36-5.56,1-1.71-1.07-1.57-2.77-1.3-4.44,1.56-9.43,2.79-18.92,4.79-28.25,2.08-9.63,2.28-9.68-6.31-14.85-6.13-3.69-12.65-6.92-17.33-12.56-3.12-3.76-2.3-5.61,2.42-6.73,5.9-1.39,11.72-3.16,17.65-4.41,4.59-1,6.28-3.5,6.4-8.09.27-10.11.86-20.21,1.53-30.29.17-2.62-.43-6.18,2.54-7.37,3.24-1.31,4.58,2.18,6.47,4A29,29,0,0,0,397.41,214.9ZM381.87,395.52a70,70,0,0,0,42-16c1.88-1.52,3.6-3.21,3.26-6-.48-3.82-.88-7.66-1.45-11.47-.65-4.39-2.17-5.31-6.5-2.72-17.17,10.28-35.36,16.3-55.66,11-2.26-.6-3.41-.36-3.63,2.31-1.22,14.71,5.67,22.5,20.36,22.86C380.77,395.53,381.32,395.52,381.87,395.52Z" style="fill:#6a374f;stroke:#6a374f;stroke-miterlimit:10"/><path d="M215.8,249.17c3.08-2.21,4.89-5.7,7.48-8.49s2.72-5.28.33-8.28c-8.05-10.15-17.18-19.05-28.7-25.22-13.79-7.39-15.86-6.73-23.74,6.74-1.86,3.19-1,4.48,2.34,5.45,16.15,4.72,29.68,13.25,39.23,27.45C213.44,247.85,214.1,249,215.8,249.17Zm-63.29-5.48c-1.85-.09-4-.35-4.28,2.19-.28,2.26,1.81,2.41,3.32,2.91,14.95,5,26.57,14.44,36.1,26.75,1.11,1.43,1.66,4.5,4.18,3.14,2.13-1.15.9-3.68.28-5.53-4.67-14-24.77-28.92-39.6-29.46Zm12.1-15.51c-3-.15-4.93.28-5.34,2.43-.56,2.93,2.06,3,3.9,3.49,16,3.86,28.87,12.22,38.44,25.65.78,1.09,1.6,3.15,3.23,2.24s.95-2.92.36-4.48c-4.77-12.65-28.08-29.09-40.59-29.33Z" style="fill:#6a374f;stroke:#6a374f;stroke-miterlimit:10"/><path d="M342.11,136.72c3.24,2.34,4,5,5.16,7.42a205.07,205.07,0,0,0,13.8,25.08,23,23,0,0,0,8.14,8.07,6,6,0,0,0,5.78.41c5.91-2.82,11-6.58,14.63-12.18,1.58-2.44,1.75-4.46.23-7.09Q355.74,99.18,318.32,42c-.81-1.23-1.39-3.62-3.37-2.94s-1.11,2.88-1.12,4.43q-.3,67.57-.52,135.15c0,2.67-.56,6.54,3.18,6.49s2.17-4,2.18-6.16c.18-25.38-.18-50.76,1.21-76.11.36-6.45.75-12.91,1.13-19.36l1.65-.07c1.61,10.2,3.36,20.38,4.78,30.61,2.46,17.65,4.65,35.33,7.13,53a47.65,47.65,0,0,0,2.7,9.52c.52,1.45,1.44,3.21,3.58,2.74,1.73-.38,2-2,2.3-3.41A47,47,0,0,0,344,163.2C343.5,154.79,342.81,146.39,342.11,136.72Zm50.15,83.78a12.77,12.77,0,0,0-1.15,2.72c-.67,7.32-1.45,14.64-1.87,22-.7,12.19-1.3,13-13.43,15.33a13,13,0,0,0-1.63.32c-2.71.92-7.43-.37-7.93,2.28-.69,3.62,4.14,4.46,6.76,6.13,17,10.72,16.81,10.65,12.6,30.42-1,4.56-3.43,9.13-2.19,14.24,2.51-.62,3.3-2.39,4.44-3.77a90.89,90.89,0,0,0,12.5-20.7c1.21-2.7,2.53-6,6-5.55,4.93.61,4.78-1.59,3.8-5.05a45.2,45.2,0,0,1-1.09-6c-2.57-18.05-7.53-35.38-16.81-52.37ZM363.78,359.75c14.87,9,53.92-1.52,58.08-15.68C403.18,353.15,384.08,358.6,363.78,359.75Z" style="fill:#6a374f;stroke:#6a374f;stroke-miterlimit:10"/><path d="M256.05,162c1,4,.44,6.67.16,9.34a71.51,71.51,0,0,0-.6,8.77c0,2,.43,4.56,2.83,4.77,2.73.23,2.66-2.46,3.07-4.39,2.24-10.79,4.31-21.61,6.82-32.33,1.41-6,2.6-12.23,5.64-17.85-1.66,25-5.63,49.66-9.78,74.31,3.95-10.54,5.66-21.54,7.79-32.42,4.51-23.06,7.62-46.37,10.9-69.64.25-1.71,1.29-3.91-.59-5.09-1.64-1-3,.81-4.34,1.64-24.57,15.49-48.73,31.59-72.7,48q-3,2-5.85,4.14c-1,.75-2.31,1.44-1.93,3s1.81,1.65,3,2c14.5,3.92,26.77,11.9,38.28,21.22,5.21,4.21,8.11,3.75,11.2-2.14C252,171.42,253.63,167.34,256.05,162Zm-30.71,30-.79,1.27c-6.47-2.48-12.92-5-19.43-7.41a48.46,48.46,0,0,0-9-2.58c-3.28-.52-5.06,1.77-6,4.59-.79,2.37.93,3.22,2.78,3.91,16,5.94,29.31,15.85,41.07,28,2.1,2.17,3.79,2.75,5.75,0,1.42-2,2.4-2.16,4.65-.26,3,2.54,7.06,1.79,10.3-.24s2.5-5.54,1.58-8.49a31.07,31.07,0,0,0-5.32-9.6A113.28,113.28,0,0,0,205.85,166c-4.92-2.11-10.06-3.56-15.53-3-8.59.83-13.07,8.49-9.69,16.42,1.54,3.58,3.34,5,6,1S193,175,197.55,175.8C208.89,177.68,217.18,184.72,225.34,192Z" style="fill:#6a374f;stroke:#6a374f;stroke-miterlimit:10"/><path d="M448.42,458.32c-.71-7.47,5.31-10.8,7.78-17,1.9,3,1.68,5.55,1.78,8,.15,3.49-.07,7,.14,10.48.41,7,1.75,8.26,8.61,8.57,3,.14,6.11.26,9.23,1.9-11.4,4.64-17.89,3.19-24.16-5.07-8.74,10-19.4,12.18-31.26,6-2.28-1.2-3.37-.49-4.57,1.1-4.07,5.39-9.21,4.89-16,2.59,5.33-1.75,11-.73,12.72-6.57,1.36-4.61-2.15-8.76-1.26-14.28,2.84,3.6,5.11,6.6,7.5,9.5a14.59,14.59,0,0,0,7,5.13c2,.57,4.09.68,5.75-.82s.64-3.34.18-5.11c-5.32-20.44-9.94-41-14.37-61.69-.57-2.68.09-7.29-3.76-6.73s-8.7,1.19-10.11,6.27S402,411.13,400,416.14c-6.92,17-18.48,29.16-36.54,33.89-20.07,5.24-35.42-5.44-38.66-26-2.5-15.77-4.18-31.72-8.8-47.09-3.09-10.3-7.47-20-15.08-27.83A37.85,37.85,0,0,0,274,337c-12.09-.33-20.38,6.73-23.73,20.35-3.28,13.35-4.44,26.8-.7,40.35,2.69,9.74,8.71,17.27,15.56,24.29,2.34,2.41,5.23,1.82,8.37.27-.85,3.42-2.58,5.42-5,5.56-5.58.34-6.42,2.77-3.25,7.54-4-.83-4.86-4.71-8.29-5.72-1.19,4.73,3.49,7.85,3.22,12.24-6.05-3.79-6-3.79-7.42,3.58-.27,1.42-.78,2.79-1.47,5.2-2.94-5.26-2.87-10.47-4.64-15.08-5.31-13.7-9.65-27.58-11-42.48-1.56-17.11,1.47-33,10.46-47.53,10.16-16.46,27.52-20.73,46.27-11.78,16.54,7.9,24.78,22.35,30.23,38.87,4.74,14.39,6.32,29.42,8.8,44.28A96.89,96.89,0,0,0,334,429.33c3.58,11.76,15.85,17.47,29.31,12.94,17.73-6,27.68-19.22,32.1-37,1-3.85-.8-4.86-4.46-4.42-8.26,1-16.49,1.23-24.5-1.83-5.15-2-8.48-4.92-9.54-10.83-4.64-25.86-9.63-51.66-14.53-77.47q-7-37.1-14.16-74.16c-2.41-12.64-4.83-25.27-7.13-37.92-.51-2.79-1.54-4.51-4.52-5.44-9.89-3.08-10.76-4.42-10.93-14.85-.68-41.57-.07-83.13.46-124.69.11-8.83.41-17.65.66-26.48.06-2.16-.35-4.78,2.18-5.77,2.78-1.09,4.43,1.16,5.91,3,11.16,14,20.3,29.3,29.71,44.44,17.66,28.4,35.1,56.94,52.74,85.36,3.05,4.91,4.74,9.5.58,14.63-1.37,1.68-.86,3.83-.47,5.86q7.24,37.61,14.43,75.24,8.54,44.93,17,89.89c2,10.66,3.66,21.37,5.82,32,.84,4.14-.09,7.23-3.26,9.76-2.38,1.91-3.38,4.17-2.6,7.25,5.4,21.55,10.74,43.12,16.17,64.66C445.32,455,445.47,456.8,448.42,458.32ZM397.53,213.43c-2.23-11.55-4.28-21.51-6-31.51-.72-4.13-2.12-4.15-5.43-2.24-16.1,9.26-33.57,13.88-52,15.32-7.78.58-7.94.84-6.42,8.44q6.4,32.15,12.53,64.35c4.74,24.9,9.47,49.8,13.91,74.75,1,5.83,3.83,7.95,9.56,8,18.46.16,35.52-5,52-12.81,3.58-1.71,4.81-4.13,4-8-1.79-8.82-3.48-17.65-5.17-26.49-.65-3.45-2.84-5.83-5.22-8.21s-3.93-2.88-5.54.84A75.12,75.12,0,0,1,383.38,323c-1.52,1.26-3.43,2.36-5.56,1-1.71-1.07-1.57-2.77-1.29-4.44,1.55-9.43,2.78-18.92,4.78-28.25,2.08-9.63,2.28-9.68-6.31-14.85-6.12-3.69-12.64-6.92-17.33-12.56-3.12-3.76-2.3-5.61,2.42-6.73,5.9-1.39,11.72-3.16,17.65-4.41,4.59-1,6.28-3.5,6.4-8.09.27-10.11.86-20.21,1.53-30.29.17-2.62-.43-6.18,2.54-7.37,3.24-1.31,4.58,2.18,6.47,4C395.16,211.45,395.69,211.86,397.53,213.43Zm-55.85-77.25c3.24,2.35,4,5,5.15,7.42a205.2,205.2,0,0,0,13.8,25.09,23,23,0,0,0,8.14,8.07,6,6,0,0,0,5.79.4c5.91-2.81,11-6.57,14.63-12.18a6,6,0,0,0,.23-7.08Q355.31,98.64,317.88,41.43c-.81-1.24-1.38-3.63-3.37-2.94s-1.1,2.88-1.11,4.43q-.31,67.57-.52,135.15c0,2.67-.56,6.54,3.17,6.49s2.18-4,2.19-6.17c.18-25.37-.18-50.75,1.21-76.1.35-6.46.75-12.91,1.13-19.37l1.65-.07c1.6,10.2,3.35,20.39,4.78,30.61,2.46,17.65,4.65,35.34,7.13,53a47.72,47.72,0,0,0,2.69,9.51c.53,1.45,1.44,3.22,3.58,2.75,1.74-.38,2-2,2.3-3.42a46.48,46.48,0,0,0,.86-12.62C343.06,154.26,342.38,145.86,341.68,136.18ZM382,394.05a70,70,0,0,0,42-16c1.88-1.52,3.61-3.21,3.26-6-.48-3.82-.88-7.66-1.45-11.47-.65-4.39-2.17-5.31-6.5-2.72-17.17,10.28-35.35,16.3-55.66,11-2.26-.6-3.4-.36-3.63,2.31-1.22,14.71,5.67,22.5,20.37,22.86C380.89,394.06,381.44,394.05,382,394.05Zm-18.65-34.84c14.88,9,53.92-1.52,58.08-15.67-18.68,9.07-37.79,14.53-58.09,15.67Zm66.38,64.68a19.27,19.27,0,0,0-.72,3c.25,12.92,4.19,25.22,6.34,37.82.37,2.15,2,2.52,3.76,1.88,2.06-.75,2.6-2.24,2-4.39-1.4-4.73-2.4-9.59-4-14.23-2.67-7.53-3.11-15.74-7.39-24.08Z" style="fill:#6a374f"/><path d="M161.26,337.4c6.85-1.09,11.09-6.43,17.66-8.26-1,3.85-4,5.45-5.46,8.06-1,1.68-3.28,3.28-2.18,5.28,1.3,2.35,4,1.22,6.06.85,4-.71,7.85-1.88,11.78-2.81,1.77-.42,3.76-1.24,3.89,1.91,0,.61.66,1.69,1.09,1.73,6.92.64,11.36,8.6,19.27,6.44,1.68-.46,3.68-.21,5.85,2-6.21,2.47-12.17,3.51-17.95,1.13-5.12-2.11-9.92-3.74-15.36-1.6-1,.38-2.76.68-3.18.18-3.95-4.67-10.5-1-13.6-3.27-5.78-4.26-11.16-3.1-17-2.74-1.29.08-2.71-1-4-1.72s-2.63-1.7-3.92-.24c-3,3.39-5.55,2-7.75-.75s-4.07-3.24-6.38,0c-1.07,1.49-2.85,2.35-5.16.85,8.21-6.43.1-12.49-.8-20,4.38,3.22,7.82,5.79,11.3,8.31,1.14.82,2,2.65,3.65,2,1.87-.78,1.32-2.82,1.45-4.41.29-3.56.16-7.19,1.29-10.71.86.32,1.38.34,1.48.56,5.23,11.52,4.86,9.41,12.1,1.65,6.51-7,12.09-14.8,18.18-22.17,2.46-3,2.57-5.09-1.47-6.58a53.61,53.61,0,0,1-13.07-7c-3.05-2.23-4.93-1.36-6.63,1.59-2.29,4-4.52,8-7.12,11.78-7.34,10.61-18.35,15.27-29.45,12.72-7-1.62-11.89-6.3-16.26-11.65-3.6-4.41-7-9-10.79-13.24-6-6.56-10.53-7.5-18.74-4.19-2.48,1-4.46,2.08-6-1.38a5.6,5.6,0,0,0-5.42-3.12,11.23,11.23,0,0,1-7.44-2.25,17.11,17.11,0,0,1,11.36-4.86c2.7-.12,3.4-3.94,6.49-2.66,9.18,3.82,19.68,5,26.22,13.91,3.49,4.74,7.19,9.31,11,13.84,10.08,12.13,23.61,11.6,32.71-1.33,2.75-3.91,5-8.14,7.79-12,2.29-3.21,1.73-5.63-1-8.15-4.41-4.05-7.35-9.12-9.72-14.56-2.47-5.65-2.2-10.9,1.34-16.17,11.4-17,25-32.25,36.95-48.77,2.66-3.67,3.38-6.45.94-10.83a22.67,22.67,0,0,1,4.78-27.4c26.76-24,58.13-41.17,87.54-61.24,4.85-3.32,9.88-6.39,14.86-9.53,2.14-1.35,4.31-3.24,7-1.49s2.43,4.47,2.16,7c-.52,4.74-1.44,9.43-2.08,14.16C285,139.73,280,173.35,272,206.42c-3.16,13-9.79,23.08-24.86,24.1-2.28.15-3.54,1.63-4.78,3.31q-37.23,50.67-78.24,98.34C162.93,333.49,161.32,334.66,161.26,337.4Zm94.36-175.94c1,4,.44,6.67.16,9.33a71.54,71.54,0,0,0-.6,8.78c0,2,.43,4.56,2.83,4.76,2.72.24,2.66-2.45,3.06-4.39,2.25-10.78,4.32-21.6,6.83-32.33,1.41-6,2.59-12.22,5.64-17.84-1.67,25-5.63,49.65-9.78,74.3,3.95-10.53,5.65-21.53,7.78-32.41,4.52-23.07,7.62-46.37,10.91-69.64.24-1.72,1.28-3.92-.59-5.09-1.64-1-3,.81-4.35,1.64-24.56,15.49-48.73,31.59-72.7,48-2,1.35-3.92,2.72-5.85,4.14-1,.75-2.3,1.44-1.93,3s1.81,1.64,3,2c14.51,3.93,26.77,11.9,38.29,21.22,5.21,4.22,8.1,3.75,11.2-2.14,2.06-3.9,3.68-8,6.1-13.33Zm-30.72,30-.78,1.27c-6.47-2.49-12.92-5-19.43-7.42a49.44,49.44,0,0,0-9-2.57c-3.27-.53-5.05,1.77-6,4.58-.78,2.38.93,3.22,2.78,3.91,16,6,29.32,15.85,41.07,28,2.1,2.17,3.8,2.75,5.75,0,1.43-2,2.4-2.17,4.66-.26,3,2.53,7.05,1.79,10.29-.24s2.51-5.54,1.58-8.5a30.68,30.68,0,0,0-5.31-9.59,113.13,113.13,0,0,0-45.14-35.19c-4.92-2.12-10.07-3.56-15.53-3-8.6.82-13.07,8.49-9.69,16.41,1.53,3.59,3.34,5,6,1s6.33-5.43,10.93-4.62c11.38,1.91,19.67,8.94,27.82,16.18Zm-9,56.28c3.08-2.21,4.89-5.7,7.48-8.49s2.72-5.27.33-8.28c-8-10.15-17.18-19.05-28.7-25.22-13.79-7.39-15.86-6.73-23.74,6.74-1.86,3.19-1,4.48,2.34,5.45,16.15,4.73,29.68,13.25,39.23,27.45.72,1,1.38,2.18,3.08,2.31Zm-63.29-5.48c-1.85-.09-4-.34-4.28,2.19-.28,2.26,1.81,2.41,3.32,2.92,15,5,26.57,14.43,36.1,26.74,1.11,1.43,1.66,4.5,4.18,3.14,2.13-1.14.9-3.68.28-5.53-4.65-14.05-24.75-29-39.58-29.5Zm12.1-15.51c-3-.15-4.93.28-5.34,2.43-.56,2.93,2.06,3,3.9,3.49,16,3.86,28.88,12.22,38.44,25.65.78,1.09,1.6,3.15,3.23,2.24s.95-2.92.36-4.48c-4.75-12.69-28.06-29.08-40.57-29.37Zm-18.59,29.08c-2.8.19-2.7,1.91-1.81,3.46a39.11,39.11,0,0,0,9,10.31c1.26,1,2.52,1.27,3.54-.64,2.11-4,4.55-1,6.19.28,2.08,1.61,6.32,3.66,3.81,6.63-3,3.59-.42,4.41,1.49,5.68a61.76,61.76,0,0,0,8.19,4.46c1.4.65,3.27,1.75,4.55.09S181,283,180,281.66c-7.61-10.14-16.83-18.38-28.33-23.89a47.27,47.27,0,0,0-5.53-2Zm34,48.15c-1.7.54-2.32.55-2.66.87-9.36,8.79-17.12,18.95-25,29-.66.84-1.29,2-.07,2.88s2,0,2.75-.91c4.66-5.63,9.39-11.2,14-16.9,3.6-4.53,7.74-8.69,11-15Z" style="fill:#6a374f"/><path d="M300.11,487.72c-9.61-4.71-17.13-12.9-27.89-8.3-9.9,4.22-12.93,13.83-16.17,24.51-2.48-5.17-2.16-9.47-3.82-13.25-1.57-3.53-2.9-7.13-5.57-10-4.83-5.21-9.87-6.25-16.41-3.44a43.72,43.72,0,0,1-7.3,2.6c12.65-13.22,19.33-28,13.27-46.61,5.23,2.63,5.95,7.35,6.54,11.82,1.06,8.15-2.48,15.07-6.95,21.5-2.23,3.22-2.85,4.87,2.16,5.44,7.48.85,11.88,5.84,14.82,12.49,2.46,5.57,2.69,5.56,6,.72C269.53,469.44,288.18,472.32,300.11,487.72Z" style="fill:#6a374f"/><path d="M22,289.81c.56-2.67,2.47-3.33,3.78-4.52,7.06-6.44,7.34-14.19.83-21.27-1.18-1.27-3.63-2.1-3-4.17.53-1.79,2.87-1.15,4.41-1.5,8.59-2,11.16-6.52,8.13-15-1.35-3.76-3.06-7.39-4.77-11.49,2.7-.32,3.91,1.46,5.19,2.74a28,28,0,0,0,11.2,6.8c7.19,2.36,12.49.54,16.69-5.67.79-1.18,1.31-2.61,3.4-3.12.69,5.27-2.73,10.19-.53,15.56A98.38,98.38,0,0,0,74.21,262c-5.23-.45-7.35-4.14-8.41-8.61-.75-3.17.14-7.69-1.72-9.38-2.37-2.15-5.46,2.32-8.83,2.36a22.94,22.94,0,0,1-11.09-2.76c-.93-.49-1.81-1.7-2.93-1-1.37.88-.55,2.3-.39,3.52,1,7.64-.1,10-7.22,13.41-3.23,1.53-2.61,3.15-1.31,5.63C38,276,34.29,285,22,289.81Z" style="fill:#6a374f"/><path d="M311.74,462.14c-4.93.13-9.3-4.37-14.21-2-6.12,3-2,8.11-1.38,12.46h-1.41c-.68-2.74-1.72-5.45-2-8.23-.34-3.77,1.62-6.21,5.5-7,2.62-.52,4.05-1.56,2.06-4.48-4.48-6.58-4.48-13.32-.2-20,1.53-2.42,1-3.77-2-3.73-2.21,0-4.41.14-6.61.06-9.57-.34-15.32-10-11.1-19.21,1.73,1.43,1.09,3.39,1.34,5,1.73,11,11.26,16.45,21.7,12.28A18.79,18.79,0,0,1,307,426c1.41-.26,3.11-.47,3.79,1.28.61,1.57-.91,2.21-1.81,3-12,11-12,17.41,0,28.23C310.05,459.46,311.51,460.16,311.74,462.14Z" style="fill:#6a374f"/><path d="M32.21,311.66c2.4-7.08,9.45-12.66,5.29-21.28,4.46.46,5.48,1.11,4.9,5.16-.84,5.82.93,6.19,5.73,4.08a10.1,10.1,0,0,1,10.92,1.57c3,2.55,4.81,3.7,5.9-1.78,1-4.88,3.88-9,9.93-9.62-7.47,5.91-10.68,13.75-10.33,24.76-5-6.37-7.44-13.83-15.66-12.37C42.39,303.34,37.6,308,32.21,311.66Z" style="fill:#6a374f"/><path d="M144,257c-2.8.19-2.7,1.92-1.81,3.47a39.07,39.07,0,0,0,9,10.3c1.25,1.05,2.52,1.28,3.53-.64,2.12-4,4.55-1,6.19.28,2.08,1.61,6.32,3.66,3.82,6.63-3,3.6-.42,4.41,1.48,5.68a61.76,61.76,0,0,0,8.19,4.46c1.41.65,3.27,1.75,4.56.09s-.12-3.14-1.09-4.44c-7.6-10.13-16.83-18.38-28.32-23.89A52.1,52.1,0,0,0,144,257Z" style="fill:#6a374f;stroke:#6a374f;stroke-miterlimit:10"/><path d="M392.82,220a12.77,12.77,0,0,0-1.15,2.72c-.67,7.32-1.45,14.64-1.87,22-.7,12.19-1.3,13-13.44,15.32a14.52,14.52,0,0,0-1.62.33c-2.72.92-7.43-.37-7.93,2.28-.69,3.62,4.13,4.46,6.75,6.13,17,10.76,16.82,10.66,12.61,30.44-1,4.56-3.43,9.12-2.2,14.24,2.52-.62,3.31-2.39,4.44-3.77A91.08,91.08,0,0,0,400.92,289c1.21-2.7,2.52-6,6-5.55,4.92.61,4.78-1.59,3.8-5.05a45.22,45.22,0,0,1-1.1-6C407.05,254.31,402.09,237,392.82,220Z" style="fill:#6a374f;stroke:#6a374f;stroke-miterlimit:10"/></g><g id="Layer_1-2" data-name="Layer 1-2"><path d="M379.64,251.37a10.78,10.78,0,0,1-3.47,1.78,62,62,0,0,1-7.25,1.69,12.64,12.64,0,0,0-1.49.29,12.47,12.47,0,0,1-3.38.46,15.4,15.4,0,0,0-2.87.26,1.57,1.57,0,0,0-.86.43.87.87,0,0,0-.16.37,2.72,2.72,0,0,0-.05.49,1,1,0,0,0,0,.25,2.07,2.07,0,0,1,.32-.19,6.62,6.62,0,0,1,2.24-.49,21.67,21.67,0,0,0,4.68-.47,13.51,13.51,0,0,1,1.68-.34,50.85,50.85,0,0,0,7.68-1.86,6.5,6.5,0,0,0,3.59-2.69,6.63,6.63,0,0,0,.68-1.54A7.14,7.14,0,0,1,379.64,251.37Z" style="fill:#fff;stroke:#fff;stroke-linecap:round;stroke-linejoin:round;stroke-width:28px"/><path d="M363.57,354.59a150.7,150.7,0,0,0,48-13.49,13.44,13.44,0,0,0,1.17-1.63,152,152,0,0,1-52.05,14.33A26.71,26.71,0,0,0,363.57,354.59Z" style="fill:#fff;stroke:#fff;stroke-linecap:round;stroke-linejoin:round;stroke-width:28px"/><path d="M175.42,162.07a12.79,12.79,0,0,1,8.21-3.79c.78-.07,1.56-.11,2.32-.11a34.07,34.07,0,0,1,13.46,3.19,112.06,112.06,0,0,1,34.34,23,110.58,110.58,0,0,0-35.37-24.16,32.54,32.54,0,0,0-12.86-3.07,16,16,0,0,0-2.18.1,11.31,11.31,0,0,0-7.27,3.33,9.56,9.56,0,0,0-2,3.3A11.2,11.2,0,0,1,175.42,162.07Z" style="fill:#fff;stroke:#fff;stroke-linecap:round;stroke-linejoin:round;stroke-width:28px"/><path d="M56,238.25a2.33,2.33,0,0,0-.9.21,4.79,4.79,0,0,1,2.25,1.09,2.28,2.28,0,0,0-.57-1A1.08,1.08,0,0,0,56,238.25Z" style="fill:#fff;stroke:#fff;stroke-linecap:round;stroke-linejoin:round;stroke-width:28px"/><path d="M171.38,299.5c-9.23,8.69-16.93,18.77-24.75,28.82a3.92,3.92,0,0,0-.42.64.94.94,0,0,0-.13.43v.14a.69.69,0,0,0,.24.24c.22.15.3.15.35.15a.58.58,0,0,0,.37-.17,4.57,4.57,0,0,0,.68-.71c4.66-5.63,9.39-11.2,13.95-16.89C164.93,308.13,168.45,304.49,171.38,299.5Z" style="fill:#fff;stroke:#fff;stroke-linecap:round;stroke-linejoin:round;stroke-width:28px"/><path d="M192.92,145.36c-.37.27-.71.5-1,.72a1.86,1.86,0,0,0-.53.59,1,1,0,0,0-.08.37,1.5,1.5,0,0,0,0,.3.33.33,0,0,0,0,.14c.35-.3.72-.56,1-.8,1.93-1.42,3.89-2.8,5.86-4.15,24-16.39,48.15-32.49,72.72-48,.47-.3,1-.78,1.58-1.21a3.62,3.62,0,0,1,2-.82,2,2,0,0,1,.64.1,1.82,1.82,0,0,0-.11-.46,1.25,1.25,0,0,0-.5-.52.87.87,0,0,0-.47-.15,1.31,1.31,0,0,0-.48.12,4.62,4.62,0,0,0-.67.41c-.5.36-1,.86-1.66,1.26-24.55,15.48-48.71,31.57-72.67,48C196.71,142.59,194.83,144,192.92,145.36Z" style="fill:#fff;stroke:#fff;stroke-linecap:round;stroke-linejoin:round;stroke-width:28px"/><path d="M217.12,187.48c-6.48-2.48-12.92-5-19.41-7.4a48.8,48.8,0,0,0-8.79-2.53,4.74,4.74,0,0,0-.75-.06,3.39,3.39,0,0,0-2.52,1.07,7.2,7.2,0,0,0-1.48,2.59,6.4,6.4,0,0,1,.84-1.1,4.87,4.87,0,0,1,3.59-1.53,6.74,6.74,0,0,1,1,.08,49.9,49.9,0,0,1,9.06,2.6c6.38,2.34,12.71,4.83,19.05,7.27l.34-.56-.15-.13h0Z" style="fill:#fff;stroke:#fff;stroke-linecap:round;stroke-linejoin:round;stroke-width:28px"/><path d="M139.4,250.67a2.6,2.6,0,0,0-.62.11,31,31,0,0,1,4.39,1.57c11.58,5.54,20.87,13.85,28.51,24a16.23,16.23,0,0,1,1.08,1.53,3.8,3.8,0,0,1,.59,1.72,1,1,0,0,0,.34-.32,1.18,1.18,0,0,0,.29-.74,2.43,2.43,0,0,0-.39-1.1,16.83,16.83,0,0,0-1-1.39c-7.53-10-16.63-18.15-28-23.59A45.43,45.43,0,0,0,139.4,250.67Z" style="fill:#fff;stroke:#fff;stroke-linecap:round;stroke-linejoin:round;stroke-width:28px"/><path d="M308.15,34.41h0a2.29,2.29,0,0,1,.82-.15,2,2,0,0,1,.64.11h0a3.09,3.09,0,0,0-.71-1,.5.5,0,0,0-.33-.12,1,1,0,0,0-.34.06h0c-.31.11-.36.19-.45.35a2,2,0,0,0-.14.84v.18A2.49,2.49,0,0,1,308.15,34.41Z" style="fill:#fff;stroke:#fff;stroke-linecap:round;stroke-linejoin:round;stroke-width:28px"/><path d="M292.14,448.23a3.37,3.37,0,0,1,1.08,1.5,1.26,1.26,0,0,0,.34-.31.63.63,0,0,0,.07-.3,3.43,3.43,0,0,0-.76-1.73,18.8,18.8,0,0,1-3.55-10.65,10.37,10.37,0,0,1,.05-1.25C286.71,439.73,288.38,445.2,292.14,448.23Z" style="fill:#fff;stroke:#fff;stroke-linecap:round;stroke-linejoin:round;stroke-width:28px"/><path d="M292.23,427c.14-.24.28-.48.43-.72a3.71,3.71,0,0,0,.69-1.65v-.17s0-.06-.13-.12a3.3,3.3,0,0,0-1.55-.26h-2.13A5.05,5.05,0,0,1,292.23,427Z" style="fill:#fff;stroke:#fff;stroke-linecap:round;stroke-linejoin:round;stroke-width:28px"/><path d="M231.48,458.75h.07l.07-.24Z" style="fill:#fff;stroke:#fff;stroke-linecap:round;stroke-linejoin:round;stroke-width:28px"/><path d="M430.18,459.47a1.19,1.19,0,0,0,.81.26,3.61,3.61,0,0,0,1.13-.23,2.54,2.54,0,0,0,1.23-.8,1.75,1.75,0,0,0,.33-1.11,4.42,4.42,0,0,0-.21-1.25c-1.41-4.78-2.41-9.63-4-14.19-1.34-3.85-2.09-7.82-3.05-11.82a58.08,58.08,0,0,0-3.06-9.64h0c.24,12.72,4.16,25,6.33,37.66A1.74,1.74,0,0,0,430.18,459.47Z" style="fill:#fff;stroke:#fff;stroke-linecap:round;stroke-linejoin:round;stroke-width:28px"/><path d="M248,479.86q.15.33.3.6a4.72,4.72,0,0,0,.69,1.08,3.08,3.08,0,0,0,.52-.5c.45-.52,1.06-1.39,1.85-2.55a30.41,30.41,0,0,1,3.55-4.29A18.62,18.62,0,0,0,248,479.86Z" style="fill:#fff;stroke:#fff;stroke-linecap:round;stroke-linejoin:round;stroke-width:28px"/><path d="M251.83,425.52a5.3,5.3,0,0,0-.73-.51v.09a7.05,7.05,0,0,0,.64,2.75l1.15-1.31A14.55,14.55,0,0,0,251.83,425.52Z" style="fill:#fff;stroke:#fff;stroke-linecap:round;stroke-linejoin:round;stroke-width:28px"/><polygon points="308.14 34.41 308.15 34.41 308.15 34.41 308.14 34.41" style="fill:#fff;stroke:#fff;stroke-linecap:round;stroke-linejoin:round;stroke-width:28px"/><path d="M469.79,463.27c-3.36-1.76-6.62-1.87-9.66-2a21.61,21.61,0,0,1-4-.46,5,5,0,0,1-1.7-.71,3.69,3.69,0,0,1-1.35-2,19.87,19.87,0,0,1-.62-4.41c-.08-1.24-.1-2.49-.1-3.75v-3.6c0-1,0-2.07-.06-3.12a33.86,33.86,0,0,0-.22-3.9,11.29,11.29,0,0,0-1.72-4.58l-1-1.63-.73,1.8c-1.08,2.72-3,4.94-4.68,7.37a20.83,20.83,0,0,0-2.26,3.94,12.58,12.58,0,0,0-.93,4.14,4,4,0,0,1-.8-1,8.64,8.64,0,0,1-.69-2.16c-5.43-21.54-10.76-43.11-16.17-64.66a6.59,6.59,0,0,1-.23-1.71,4.79,4.79,0,0,1,.61-2.4,7.44,7.44,0,0,1,1.88-2.11,10.66,10.66,0,0,0,3-3.54,9.47,9.47,0,0,0,1-4.31,14.06,14.06,0,0,0-.32-2.89c-2.15-10.59-3.82-21.3-5.82-32q-8.42-45-17-89.89-7.14-37.63-14.42-75.25a15,15,0,0,1-.41-2.91,3.2,3.2,0,0,1,.66-2.13,10.79,10.79,0,0,0,2.71-6.94,12.27,12.27,0,0,0-.95-4.51,27.51,27.51,0,0,0-2.26-4.34c-17.64-28.41-35.08-57-52.74-85.36-9.4-15.12-18.56-30.49-29.78-44.53A18.67,18.67,0,0,0,307,15.37,4.84,4.84,0,0,0,303.73,14a5.17,5.17,0,0,0-1.78.35,4.3,4.3,0,0,0-1.59,1.07,4.47,4.47,0,0,0-1.06,2.26,12.32,12.32,0,0,0-.15,2.27V21c-.25,8.82-.55,17.65-.66,26.49-.36,28.37-.76,56.74-.76,85.13q0,19.78.3,39.59a49.34,49.34,0,0,0,.4,6.43,11.13,11.13,0,0,0,1,3.39,8.23,8.23,0,0,0,3.63,3.47,38.64,38.64,0,0,0,6.57,2.5,5.14,5.14,0,0,1,2.69,1.68,6.73,6.73,0,0,1,1.13,3c2.31,12.65,4.73,25.29,7.14,37.92q7.07,37.08,14.16,74.16c4.9,25.81,9.89,51.61,14.53,77.46a14,14,0,0,0,3.49,7.4,17.13,17.13,0,0,0,6.68,4.19,41.87,41.87,0,0,0,15.11,2.56,81.24,81.24,0,0,0,9.86-.67h0a9.76,9.76,0,0,1,1.32-.09,3.1,3.1,0,0,1,1.81.41,1.06,1.06,0,0,1,.32.43,2.23,2.23,0,0,1,.14.85,6.57,6.57,0,0,1-.23,1.59c-2.18,8.77-5.72,16.37-10.86,22.51a44.77,44.77,0,0,1-20.59,13.76,27.32,27.32,0,0,1-8.78,1.51A20.67,20.67,0,0,1,335.5,433a19,19,0,0,1-7.16-10.1,98.6,98.6,0,0,1-2.55-12.27c-2.46-14.81-4.05-29.91-8.83-44.43-2.74-8.31-6.2-16.15-11.09-22.94a50.93,50.93,0,0,0-19.66-16.52,44.36,44.36,0,0,0-19-4.68,31.55,31.55,0,0,0-16.06,4.26,36.45,36.45,0,0,0-12.48,12.57,73.72,73.72,0,0,0-11,39.66q0,4.2.39,8.5c1.37,15,5.71,29,11,42.78.11.27.19.56.28.84-.74,2.68-1.49,5.36-2.23,8a24.7,24.7,0,0,0-1.59-6.83,11.33,11.33,0,0,0-5.48-5.71l-2.14-1.07.74,2.28a42.43,42.43,0,0,1,2.21,13.22,38,38,0,0,1-4.13,17.1A62.52,62.52,0,0,1,215.59,473l-2.33,2.44,3.28-.77A43.91,43.91,0,0,0,224,472a15.73,15.73,0,0,1,6.14-1.44,10.28,10.28,0,0,1,4.68,1.12,16.12,16.12,0,0,1,4.47,3.53c2.5,2.69,3.81,6.16,5.38,9.74a27.92,27.92,0,0,1,1.54,5.89,30.26,30.26,0,0,0,2.3,7.38l1.11,2.32.75-2.46c1.61-5.33,3.17-10.34,5.5-14.47A20.61,20.61,0,0,1,266,474.2a16,16,0,0,1,3.71-1.08l2.4,1.11A30.71,30.71,0,0,1,283,476.67c3.18,1.84,6.45,4,10.06,5.81l3.87,1.9L294.26,481c-.62-.8-1.26-1.56-1.92-2.29a4.15,4.15,0,0,0,.24-3.11c-.78-2.7-1.53-5.4-2.27-8.11h.34l-.15-1.1a25,25,0,0,0-1.12-4.15,12.48,12.48,0,0,1-.79-3.62,3.38,3.38,0,0,1,.54-1.93,2.51,2.51,0,0,1,.32-.41,17.9,17.9,0,0,0,1.78-.95,4,4,0,0,0,.85-.68,6,6,0,0,1,1.84-.29A14.91,14.91,0,0,1,299,455.6a17.11,17.11,0,0,0,5.89,1.41h1.34l-.13-1.09a4.68,4.68,0,0,0-1.34-2.78c-.62-.64-1.27-1.06-1.71-1.46a39.4,39.4,0,0,1-6.6-7.23,9.88,9.88,0,0,1,0-12.18,39.69,39.69,0,0,1,6.61-7.33c.28-.27.78-.59,1.26-1a3.39,3.39,0,0,0,.68-.83,2.41,2.41,0,0,0,.33-1.23,3.12,3.12,0,0,0-.2-1,3.17,3.17,0,0,0-1.4-1.68,3.72,3.72,0,0,0-1.82-.42,9.61,9.61,0,0,0-1.69.19,20.23,20.23,0,0,0-3.77,1.37,17.8,17.8,0,0,1-6.56,1.34,13.22,13.22,0,0,1-9-3.39,15.89,15.89,0,0,1-4.77-9.45c-.11-.61,0-1.5-.11-2.51a5.16,5.16,0,0,0-.4-1.59,4.46,4.46,0,0,0-1.18-1.51l-1-.83-.55,1.18a15.86,15.86,0,0,0-1.49,6.64,14.11,14.11,0,0,0,3.75,9.66,13.83,13.83,0,0,0,9.72,4.33h1.6a3.81,3.81,0,0,0-.65.38,6.41,6.41,0,0,1-2.83,1.22,22,22,0,0,1-12.92-13.05,4.77,4.77,0,0,0-1-1.64,12.74,12.74,0,0,1-6.67,5.46h-.16a3.77,3.77,0,0,1-1.56-.3,4.28,4.28,0,0,1-1.45-1c-6.8-7-12.68-14.37-15.3-23.86a64.7,64.7,0,0,1-2.3-17.39,94.08,94.08,0,0,1,3-22.46c1.6-6.52,4.34-11.41,8-14.66A20.37,20.37,0,0,1,266.57,332h.77a36.82,36.82,0,0,1,26.27,11.78c7.46,7.7,11.78,17.2,14.85,27.42,4.58,15.25,6.26,31.15,8.76,47,1.37,8.69,4.89,15.73,10.06,20.6A28.23,28.23,0,0,0,347,446.2a39.71,39.71,0,0,0,10.05-1.36A51.28,51.28,0,0,0,380,432.25a62.41,62.41,0,0,0,14.33-21.89c2.11-5.23,2.27-10.69,3.66-15.65a6.36,6.36,0,0,1,1.43-2.64A7.85,7.85,0,0,1,403,390a28.57,28.57,0,0,1,4.31-.85h.46a1.25,1.25,0,0,1,1,.38,2.15,2.15,0,0,1,.45.86,12,12,0,0,1,.39,2.22,23.45,23.45,0,0,0,.32,2.52c4.43,20.66,9.05,41.27,14.37,61.73.16.59.35,1.12.5,1.6a4.84,4.84,0,0,1,.23,1.25,1.68,1.68,0,0,1-.12.63,1.92,1.92,0,0,1-.49.64,3.71,3.71,0,0,1-2.61,1,8.16,8.16,0,0,1-2.19-.36,13.56,13.56,0,0,1-6.53-4.8c-2.38-2.88-4.65-5.87-7.49-9.49l-1.41-1.79-.37,2.25a12.17,12.17,0,0,0-.16,2,21.66,21.66,0,0,0,.9,5.53,19.83,19.83,0,0,1,.83,4.64,6.76,6.76,0,0,1-.28,2,5.73,5.73,0,0,1-1.66,2.77,9.28,9.28,0,0,1-4.39,1.79,49.06,49.06,0,0,0-6,1.34l-2.85.93,2.84,1a26.48,26.48,0,0,0,8.2,1.7,10.71,10.71,0,0,0,4.82-1.07,11.84,11.84,0,0,0,4.11-3.56,4.74,4.74,0,0,1,1-1,1.3,1.3,0,0,1,.8-.28,3.53,3.53,0,0,1,1.54.49,28.53,28.53,0,0,0,13.28,3.61A22,22,0,0,0,437,467.19a30,30,0,0,0,8.22-6.42,21.64,21.64,0,0,0,5.65,5.1,14.68,14.68,0,0,0,7.62,2,30.78,30.78,0,0,0,11.32-2.69l2-.81ZM411.59,341.1a150.7,150.7,0,0,1-48,13.49,28.13,28.13,0,0,1-2.86-.79,152,152,0,0,0,52-14.33A12.58,12.58,0,0,1,411.59,341.1ZM387.35,205.57ZM376.75,254a50.85,50.85,0,0,1-7.68,1.86,13.51,13.51,0,0,0-1.68.34,21.67,21.67,0,0,1-4.68.47,6.62,6.62,0,0,0-2.24.49,2.07,2.07,0,0,0-.32.19,1,1,0,0,1,0-.25,2.72,2.72,0,0,1,.05-.49.87.87,0,0,1,.16-.37,1.57,1.57,0,0,1,.86-.43,15.4,15.4,0,0,1,2.87-.26,12.47,12.47,0,0,0,3.38-.46,12.64,12.64,0,0,1,1.49-.29,62,62,0,0,0,7.25-1.69,10.78,10.78,0,0,0,3.47-1.78,6.84,6.84,0,0,0,1.38-1.56,6.63,6.63,0,0,1-.68,1.54A6.55,6.55,0,0,1,376.75,254Zm-69-220.39c.09-.16.14-.24.45-.35h0a1,1,0,0,1,.34-.06.5.5,0,0,1,.33.12,3.09,3.09,0,0,1,.71,1h0a2,2,0,0,0-.64-.11,2.29,2.29,0,0,0-.82.15,2.61,2.61,0,0,0-.53.26v-.18a2,2,0,0,1,.16-.79ZM423.36,420.72h0a58.08,58.08,0,0,1,3.06,9.64c1,4,1.71,8,3.05,11.82,1.59,4.56,2.59,9.41,4,14.19a4.42,4.42,0,0,1,.21,1.25,1.75,1.75,0,0,1-.33,1.11,2.54,2.54,0,0,1-1.23.8,3.61,3.61,0,0,1-1.13.23,1.19,1.19,0,0,1-.81-.26,1.74,1.74,0,0,1-.49-1.08c-2.17-12.69-6.09-24.94-6.33-37.66Zm-172,57.77c-.79,1.16-1.4,2-1.85,2.55a3.08,3.08,0,0,1-.52.5,4.72,4.72,0,0,1-.69-1.08q-.15-.27-.3-.6a18.62,18.62,0,0,1,6.91-5.66,30.09,30.09,0,0,0-3.6,4.29Zm.43-50.64a7.05,7.05,0,0,1-.64-2.75V425a5.3,5.3,0,0,1,.73.51c.37.32.72.65,1.06,1Zm-20.26,30.9.14-.22-.07.24Zm61.39-11.36a3.43,3.43,0,0,1,.76,1.73.63.63,0,0,1-.07.3,1.26,1.26,0,0,1-.34.31,3.37,3.37,0,0,0-1.08-1.5c-3.76-3-5.43-8.5-2.77-12.74,0,.41-.05.83-.05,1.25a18.85,18.85,0,0,0,3.5,10.65ZM291.5,424h.13a3.3,3.3,0,0,1,1.55.26c.1.06.12.1.13.12a.81.81,0,0,1,0,.17,3.71,3.71,0,0,1-.69,1.65c-.15.24-.29.48-.43.72a5.07,5.07,0,0,0-2.75-2.87Z" style="fill:#fff;stroke:#fff;stroke-linecap:round;stroke-linejoin:round;stroke-width:28px"/><polyline points="387.35 205.56 387.35 205.56 387.35 205.56" style="fill:#fff;stroke:#fff;stroke-linecap:round;stroke-linejoin:round;stroke-width:28px"/><polygon points="132.89 324 132.89 323.99 132.89 323.99 132.89 324" style="fill:#fff;stroke:#fff;stroke-linecap:round;stroke-linejoin:round;stroke-width:28px"/><path d="M213.3,345.75a9.14,9.14,0,0,0-2.63-1.91,6,6,0,0,0-4.2-.34,9,9,0,0,1-2.42.33,10.06,10.06,0,0,1-4-.9,50.8,50.8,0,0,1-5.8-3.36,16.15,16.15,0,0,0-6.47-2.52,1.68,1.68,0,0,1-.27-.42,1.09,1.09,0,0,1-.1-.25v-.12a4,4,0,0,0-.78-2.48,2.45,2.45,0,0,0-.94-.65,3.08,3.08,0,0,0-1-.16,10.36,10.36,0,0,0-2.4.44c-4,.94-7.83,2.1-11.73,2.81-.58.1-1.16.25-1.73.37a7.4,7.4,0,0,1-1.55.2,2.29,2.29,0,0,1-1-.2,1.62,1.62,0,0,1-.71-.73,1.09,1.09,0,0,1-.17-.58,1.6,1.6,0,0,1,.18-.68,7.69,7.69,0,0,1,.95-1.38,14.09,14.09,0,0,0,1.21-1.66,22.8,22.8,0,0,1,2.8-3.4,11.49,11.49,0,0,0,2.76-4.9l.43-1.68L172,322c-3.47,1-6.26,2.84-9,4.52a25.7,25.7,0,0,1-7.21,3.43,4.53,4.53,0,0,1,.63-1.31,22.06,22.06,0,0,1,1.74-2q41.06-47.68,78.29-98.4a10.74,10.74,0,0,1,1.81-2,3.8,3.8,0,0,1,2.23-.87c7.75-.51,13.47-3.41,17.57-7.87s6.59-10.39,8.19-17c8-33.13,13-66.78,17.56-100.48.63-4.68,1.56-9.38,2.08-14.18a21.25,21.25,0,0,0,.15-2.25,7.88,7.88,0,0,0-.53-3A5.69,5.69,0,0,0,283.28,78a5.06,5.06,0,0,0-2.77-.86,6.1,6.1,0,0,0-3,.86c-.87.47-1.66,1-2.39,1.49-5,3.13-10,6.21-14.89,9.54-29.34,20-60.76,37.24-87.64,61.33A23.69,23.69,0,0,0,164.83,168a22.62,22.62,0,0,0,2.78,11,9,9,0,0,1,1.36,4.36,6.39,6.39,0,0,1-.55,2.55,14.79,14.79,0,0,1-1.69,2.84c-11.93,16.47-25.52,31.77-37,48.8a16.81,16.81,0,0,0-3.13,9.58,18.9,18.9,0,0,0,1.7,7.54c2.4,5.51,5.41,10.72,10,14.9a8.31,8.31,0,0,1,1.62,1.93,3.58,3.58,0,0,1,.5,1.77,5.56,5.56,0,0,1-1.24,3.14c-2.82,3.95-5.09,8.19-7.79,12a25.28,25.28,0,0,1-7.54,7.28,16.15,16.15,0,0,1-8.28,2.38c-5.21,0-10.58-2.71-15.31-8.39-3.75-4.52-7.45-9.08-10.91-13.79s-7.88-7.26-12.55-9.18c-2.35-1-4.76-1.76-7.14-2.56-.42-2.86-2-5.07-4.13-7.59a11,11,0,0,0,1.88.32l2,.17-1-1.68a96.54,96.54,0,0,1-6.82-13.6,9.34,9.34,0,0,1-.68-3.58,24,24,0,0,1,.67-4.85,26,26,0,0,0,.7-5.27,12.58,12.58,0,0,0-.1-1.62L62,225.29l-1.08.27a5,5,0,0,0-2.7,1.63,18.67,18.67,0,0,0-1.29,1.9,15.42,15.42,0,0,1-4.69,4.72,10.44,10.44,0,0,1-5.55,1.51,17.15,17.15,0,0,1-5.31-.94,27.1,27.1,0,0,1-10.8-6.57,24,24,0,0,0-2-1.91,5.25,5.25,0,0,0-3.31-1.15h-.74l-1.31.15.51,1.22c1.72,4.13,3.42,7.74,4.75,11.44a17.24,17.24,0,0,1,1.16,5.63,6.48,6.48,0,0,1-2,5,13.84,13.84,0,0,1-6.56,3,7.91,7.91,0,0,1-1.08.11,8.81,8.81,0,0,0-2.17.24,2.87,2.87,0,0,0-1.13.6,2.64,2.64,0,0,0-.77,1.24,3.21,3.21,0,0,0-.14.92,2.84,2.84,0,0,0,.5,1.62,6.26,6.26,0,0,0,1.56,1.52,10.36,10.36,0,0,1,1.31,1.07c3,3.27,4.43,6.58,4.43,9.76,0,3.44-1.66,6.87-5.19,10.09-.54.5-1.35,1-2.17,1.71a6,6,0,0,0-1.92,3.35L14,285.28l1.73-.67c.82-.33,1.6-.67,2.35-1a4.46,4.46,0,0,0,.6,1.4,9.29,9.29,0,0,1,2.52-.87,28.84,28.84,0,0,1,5-.41,7.16,7.16,0,0,1,3.8,1,11.08,11.08,0,0,1,1.16,4.79c0,2.64-1.07,5.1-2.46,7.63a51,51,0,0,0-4.07,8l-1,2.84,2.48-1.7c2.74-1.88,5.29-4,7.91-5.68A22.54,22.54,0,0,1,42.43,297a11.1,11.1,0,0,1,1.82-.17,7.35,7.35,0,0,1,3.8,1,15.4,15.4,0,0,1,4.47,4.59c1.42,2,2.85,4.33,4.61,6.58L59,311.4l-.11-3v-1.59a31.09,31.09,0,0,1,2.43-12.88,24.82,24.82,0,0,1,7.54-9.48l2.66-2.11-3.37.33a7.42,7.42,0,0,0-1,.13,9.17,9.17,0,0,0,.67-1.18,12.46,12.46,0,0,0,.93-5.43,14.11,14.11,0,0,1,2.43-.26,10,10,0,0,1,5,1.34,21.56,21.56,0,0,1,5.14,4.38c3.78,4.16,7.13,8.77,10.76,13.21a46.26,46.26,0,0,0,7.29,7.38,24.32,24.32,0,0,0,9.52,4.61,27.38,27.38,0,0,0,6.18.71c9.34,0,18.15-4.91,24.31-13.84,2.65-3.82,4.88-7.88,7.17-11.85A6.48,6.48,0,0,1,148,280a1.92,1.92,0,0,1,1.29-.51,4.41,4.41,0,0,1,2.46,1.06,54.6,54.6,0,0,0,13.32,7.18,6,6,0,0,1,2.08,1.16,1.33,1.33,0,0,1,.46,1,2.83,2.83,0,0,1-.34,1.17,9.74,9.74,0,0,1-1.16,1.69C160,300.18,154.47,308,148,314.89c-1.85,2-3.2,3.6-4.23,4.66a10.08,10.08,0,0,1-1.28,1.16,1.29,1.29,0,0,1-.61.27c-.08,0-.17,0-.41-.21A8.51,8.51,0,0,1,140,318.5c-.65-1.21-1.42-2.86-2.39-5a1.14,1.14,0,0,0-.31-.41,1.86,1.86,0,0,0-.49-.29l-.59-.17-.67-.21-1-.35-.31,1c-1.19,3.74-1,7.46-1.33,10.93,0,.26,0,.51,0,.77v.82a4,4,0,0,1-.16,1.34,1.34,1.34,0,0,1-.22.36,1.37,1.37,0,0,1-.44.28.76.76,0,0,1-.33.08.68.68,0,0,1-.34-.11,3.45,3.45,0,0,1-.84-.73,9.27,9.27,0,0,0-1.17-1.09c-3.47-2.51-6.92-5.08-11.29-8.3l-1.9-1.42.27,2.29a25.31,25.31,0,0,0,2.53,7.46c1,2.26,1.91,4.33,1.9,6.16a5.44,5.44,0,0,1-.68,2.67,9.29,9.29,0,0,1-2.58,2.86l-1.1.86,1.17.76a5.32,5.32,0,0,0,2.88.95,4.11,4.11,0,0,0,2.13-.61,5.09,5.09,0,0,0,1.52-1.44,6.27,6.27,0,0,1,1.37-1.49,1.62,1.62,0,0,1,.92-.36,1.75,1.75,0,0,1,1,.41A7.79,7.79,0,0,1,129,338a10.48,10.48,0,0,0,2.23,2.18,4.77,4.77,0,0,0,2.77,1,4.55,4.55,0,0,0,2.19-.59,8,8,0,0,0,2.09-1.75,1.39,1.39,0,0,1,.44-.36.68.68,0,0,1,.31-.08,2,2,0,0,1,.78.23c.33.16.72.4,1.14.65s1.22.77,1.93,1.15a5.19,5.19,0,0,0,2.39.71h.2c2.4-.15,4.67-.42,6.84-.42a15.05,15.05,0,0,1,9.55,3,4.92,4.92,0,0,0,2,.84,9.53,9.53,0,0,0,2.13.18c1.16,0,2.34-.09,3.49-.09a10.36,10.36,0,0,1,3.18.4,5.7,5.7,0,0,1,2.64,1.78,1.57,1.57,0,0,0,.88.52,2.84,2.84,0,0,0,.82.1,7.77,7.77,0,0,0,2.61-.52,13.09,13.09,0,0,1,4.87-.93c3.18,0,6.34,1.12,9.74,2.53a18.91,18.91,0,0,0,7.27,1.42A31.13,31.13,0,0,0,213,347.38l1.4-.56ZM147.75,329a4.57,4.57,0,0,1-.68.71.58.58,0,0,1-.37.17.71.71,0,0,1-.35-.15.69.69,0,0,1-.24-.24v-.14a.94.94,0,0,1,.13-.43,3.92,3.92,0,0,1,.42-.64c7.82-10,15.52-20.13,24.75-28.82-2.93,5-6.45,8.63-9.68,12.65C157.14,317.84,152.41,323.41,147.75,329Zm70.3-141.13-.34.56c-6.34-2.44-12.67-4.93-19.05-7.27a49.9,49.9,0,0,0-9.06-2.6,6.74,6.74,0,0,0-1-.08A4.87,4.87,0,0,0,185,180a6.4,6.4,0,0,0-.84,1.1,7.2,7.2,0,0,1,1.48-2.59,3.39,3.39,0,0,1,2.52-1.07,4.74,4.74,0,0,1,.75.06,48,48,0,0,1,8.79,2.53c6.49,2.37,12.93,4.92,19.41,7.4l.78.3h0ZM172.6,276.08a16.83,16.83,0,0,1,1,1.39,2.43,2.43,0,0,1,.39,1.1,1.18,1.18,0,0,1-.29.74,1,1,0,0,1-.34.32,3.8,3.8,0,0,0-.59-1.72,16.23,16.23,0,0,0-1.08-1.53c-7.64-10.18-16.93-18.49-28.51-24a31,31,0,0,0-4.39-1.57,2.6,2.6,0,0,1,.62-.11,46.38,46.38,0,0,1,5.24,1.82C156,257.93,165.07,266.05,172.6,276.08ZM273.07,92a4.62,4.62,0,0,1,.67-.41,1.31,1.31,0,0,1,.48-.12.87.87,0,0,1,.47.15,1.25,1.25,0,0,1,.5.52,1.82,1.82,0,0,1,.11.46,2,2,0,0,0-.64-.1,3.62,3.62,0,0,0-2,.82c-.58.43-1.11.91-1.58,1.21-24.57,15.49-48.74,31.59-72.72,48-2,1.35-3.93,2.73-5.86,4.15a10.3,10.3,0,0,0-1,.8.33.33,0,0,1,0-.14,1.5,1.5,0,0,1,0-.3,1,1,0,0,1,.08-.37,1.86,1.86,0,0,1,.53-.59c.27-.22.61-.45,1-.72,1.91-1.41,3.85-2.79,5.82-4.12,24-16.39,48.12-32.48,72.67-48C272,92.88,272.57,92.38,273.07,92Zm-89.73,65.22c.73-.07,1.46-.1,2.18-.1a32.54,32.54,0,0,1,12.86,3.07,110.58,110.58,0,0,1,35.37,24.16,112.06,112.06,0,0,0-34.34-23A34,34,0,0,0,186,158.17a16.53,16.53,0,0,0-2.32.11,12.79,12.79,0,0,0-8.21,3.79,11.46,11.46,0,0,0-1.38,1.8,9.56,9.56,0,0,1,2-3.3,11.31,11.31,0,0,1,7.25-3.33ZM55.09,238.46a2.33,2.33,0,0,1,.9-.21,1.1,1.1,0,0,1,.78.32,2.28,2.28,0,0,1,.57,1A4.78,4.78,0,0,0,55.09,238.46Z" style="fill:#fff;stroke:#fff;stroke-linecap:round;stroke-linejoin:round;stroke-width:28px"/><polygon points="16 253.43 16 253.43 16 253.42 16 253.43" style="fill:#fff;stroke:#fff;stroke-linecap:round;stroke-linejoin:round;stroke-width:28px"/><path d="M64.21,254.6a32.94,32.94,0,0,1-7.06-14.9c-.51-2.54-3.28-3.54-5.53-3.15a22.62,22.62,0,0,1-15.41-2.8,4.56,4.56,0,0,0-6.61,5.09,14.65,14.65,0,0,0,1.29,3.51l1,1.75.07.16c-.92,1-3.67,2.25-4.49,2.8l-4.75,3.18a4.61,4.61,0,0,0-1.62,6.16c2.85,5.1,5.94,13.35-.39,17.27a4.29,4.29,0,0,0-2,2.8,4.84,4.84,0,0,0-1.37,6.64,9.12,9.12,0,0,1,2.53-.86,27.89,27.89,0,0,1,5-.42,7.39,7.39,0,0,1,6.6,4.11c.47.13.94.26,1.41.41A4.38,4.38,0,0,0,34,290.66a5.75,5.75,0,0,0,6.15,1.49,27,27,0,0,1,10.35,3.21c3.29,1.78,6.33-.55,6.77-3.89.8-6,7-6.81,9.28-11.73a13.37,13.37,0,0,0,.92-6,41.7,41.7,0,0,1,.89-8.11C69.07,260.9,67.07,258.05,64.21,254.6Z" style="fill:#eab9e5;stroke:#eab9e5;stroke-miterlimit:10"/><path d="M265.58,471a4.47,4.47,0,0,0,2.12,0l3,1.4a34,34,0,0,1,18.16,6.4,4.12,4.12,0,0,0,2.34-5.06q-2.67-9.25-5.06-18.57a18.62,18.62,0,0,0,3.71-1.71c2.27-1.35,3.23-5.2.91-7.07-4-3.23-5.65-9.25-2.17-13.59a5.44,5.44,0,0,0,1.07-2.43c.31-.51.6-1,.91-1.54,2.25-3.68-2.39-8.8-6.16-6.16a6.1,6.1,0,0,1-2.82,1.22,21.92,21.92,0,0,1-12.92-13.05,4.77,4.77,0,0,0-1-1.64,13,13,0,0,1-9.3,6.15c-2.77,5.54-7.6,9.85-11.44,14.8.83-5.18-7.31-7.21-8.8-1.82l-7.92,28.61c-.33-.13-.65-.26-1-.37-5.49-1.91-7.84,6.78-2.4,8.67a16.36,16.36,0,0,1,4.75,2.58A15,15,0,0,1,244.73,478c.22.56.39,1.13.56,1.71a4.16,4.16,0,0,0,.6-.73A18.62,18.62,0,0,1,265.58,471Z" style="fill:#eab9e5;stroke:#eab9e5;stroke-miterlimit:10"/><path d="M389.41,206.9c-2.23-11.55-4.28-21.51-6-31.51-.72-4.13-2.12-4.16-5.43-2.25-16.08,9.27-33.57,13.86-52,15.28-7.78.58-7.94.84-6.42,8.44Q326,229,332.13,261.21C336.87,286.11,341.6,311,346,336c1,5.83,3.82,8,9.56,8,18.46.16,35.52-5,52-12.81,3.58-1.71,4.81-4.13,4-8-1.79-8.82-3.48-17.65-5.17-26.49-.66-3.45-2.84-5.83-5.22-8.21s-3.93-2.88-5.55.84a74.92,74.92,0,0,1-20.4,27c-1.52,1.25-3.44,2.36-5.56,1-1.71-1.07-1.57-2.77-1.3-4.44,1.56-9.43,2.79-18.92,4.79-28.25,2.08-9.63,2.28-9.68-6.31-14.85-6.13-3.69-12.65-6.92-17.33-12.56-3.12-3.76-2.3-5.61,2.42-6.73,5.9-1.39,11.72-3.16,17.65-4.41,4.59-1,6.28-3.5,6.4-8.09.27-10.11.86-20.21,1.53-30.29.17-2.62-.43-6.18,2.54-7.37,3.24-1.31,4.58,2.18,6.47,4A29,29,0,0,0,389.41,206.9ZM373.87,387.52a70,70,0,0,0,42-16c1.88-1.52,3.6-3.21,3.26-6-.48-3.82-.88-7.66-1.45-11.47-.65-4.39-2.17-5.31-6.5-2.72-17.17,10.28-35.36,16.3-55.66,11-2.26-.6-3.41-.36-3.63,2.31-1.22,14.71,5.67,22.5,20.36,22.86C372.77,387.53,373.32,387.52,373.87,387.52Z" style="fill:#ace3fc;stroke:#ace3fc;stroke-miterlimit:10"/><path d="M207.8,241.17c3.08-2.21,4.89-5.7,7.48-8.49s2.72-5.28.33-8.28c-8.05-10.15-17.18-19.05-28.7-25.22-13.79-7.39-15.86-6.73-23.74,6.74-1.86,3.19-1,4.48,2.34,5.45,16.15,4.72,29.68,13.25,39.23,27.45C205.44,239.85,206.1,241,207.8,241.17Zm-63.29-5.48c-1.85-.09-4-.35-4.28,2.19-.28,2.26,1.81,2.41,3.32,2.91,14.95,5,26.57,14.44,36.1,26.75,1.11,1.43,1.66,4.5,4.18,3.14,2.13-1.15.9-3.68.28-5.53-4.67-14-24.77-28.92-39.6-29.46Zm12.1-15.51c-3-.15-4.93.28-5.34,2.43-.56,2.93,2.06,3,3.9,3.49,16,3.86,28.87,12.22,38.44,25.65.78,1.09,1.6,3.15,3.23,2.24s.95-2.92.36-4.48c-4.77-12.65-28.08-29.09-40.59-29.33Z" style="fill:#ace3fc;stroke:#ace3fc;stroke-miterlimit:10"/><path d="M334.11,128.72c3.24,2.34,4,5,5.16,7.42a205.07,205.07,0,0,0,13.8,25.08,23,23,0,0,0,8.14,8.07,6,6,0,0,0,5.78.41c5.91-2.82,11-6.58,14.63-12.18,1.58-2.44,1.75-4.46.23-7.09Q347.74,91.18,310.32,34c-.81-1.23-1.39-3.62-3.37-2.94s-1.11,2.88-1.12,4.43q-.3,67.57-.52,135.15c0,2.67-.56,6.54,3.18,6.49s2.17-4,2.18-6.16c.18-25.38-.18-50.76,1.21-76.11.36-6.45.75-12.91,1.13-19.36l1.65-.07c1.61,10.2,3.36,20.38,4.78,30.61,2.46,17.65,4.65,35.33,7.13,53a47.65,47.65,0,0,0,2.7,9.52c.52,1.45,1.44,3.21,3.58,2.74,1.73-.38,2-2,2.3-3.41A47,47,0,0,0,336,155.2C335.5,146.79,334.81,138.39,334.11,128.72Zm50.15,83.78a12.77,12.77,0,0,0-1.15,2.72c-.67,7.32-1.45,14.64-1.87,22-.7,12.19-1.3,13-13.43,15.33a13,13,0,0,0-1.63.32c-2.71.92-7.43-.37-7.93,2.28-.69,3.62,4.14,4.46,6.76,6.13,17,10.72,16.81,10.65,12.6,30.42-1,4.56-3.43,9.13-2.19,14.24,2.51-.62,3.3-2.39,4.44-3.77a90.89,90.89,0,0,0,12.5-20.7c1.21-2.7,2.53-6,6-5.55,4.93.61,4.78-1.59,3.8-5.05a45.2,45.2,0,0,1-1.09-6c-2.57-18.05-7.53-35.38-16.81-52.37ZM355.78,351.75c14.87,9,53.92-1.52,58.08-15.68C395.18,345.15,376.08,350.6,355.78,351.75Z" style="fill:#e077bd;stroke:#e077bd;stroke-miterlimit:10"/><path d="M248.05,154c1,4,.44,6.67.16,9.34a71.51,71.51,0,0,0-.6,8.77c0,2,.43,4.56,2.83,4.77,2.73.23,2.66-2.46,3.07-4.39,2.24-10.79,4.31-21.61,6.82-32.33,1.41-6,2.6-12.23,5.64-17.85-1.66,25-5.63,49.66-9.78,74.31,3.95-10.54,5.66-21.54,7.79-32.42,4.51-23.06,7.62-46.37,10.9-69.64.25-1.71,1.29-3.91-.59-5.09-1.64-1-3,.81-4.34,1.64-24.57,15.49-48.73,31.59-72.7,48q-3,2-5.85,4.14c-1,.75-2.31,1.44-1.93,3s1.81,1.65,3,2c14.5,3.92,26.77,11.9,38.28,21.22,5.21,4.21,8.11,3.75,11.2-2.14C244,163.42,245.63,159.34,248.05,154Zm-30.71,30-.79,1.27c-6.47-2.48-12.92-5-19.43-7.41a48.46,48.46,0,0,0-9-2.58c-3.28-.52-5.06,1.77-6,4.59-.79,2.37.93,3.22,2.78,3.91,16,5.94,29.31,15.85,41.07,28,2.1,2.17,3.79,2.75,5.75,0,1.42-2,2.4-2.16,4.65-.26,3,2.54,7.06,1.79,10.3-.24s2.5-5.54,1.58-8.49a31.07,31.07,0,0,0-5.32-9.6A113.28,113.28,0,0,0,197.85,158c-4.92-2.11-10.06-3.56-15.53-3-8.59.83-13.07,8.49-9.69,16.42,1.54,3.58,3.34,5,6,1S185,167,189.55,167.8C200.89,169.68,209.18,176.72,217.34,184Z" style="fill:#e077bd;stroke:#e077bd;stroke-miterlimit:10"/><path d="M440.42,450.32c-.71-7.47,5.31-10.8,7.78-17,1.9,3,1.68,5.55,1.78,8,.15,3.49-.07,7,.14,10.48.41,7,1.75,8.26,8.61,8.57,3,.14,6.11.26,9.23,1.9-11.4,4.64-17.89,3.19-24.16-5.07-8.74,10-19.4,12.18-31.26,6-2.28-1.2-3.37-.49-4.57,1.1-4.07,5.39-9.21,4.89-16,2.59,5.33-1.75,11-.73,12.72-6.57,1.36-4.61-2.15-8.76-1.26-14.28,2.84,3.6,5.11,6.6,7.5,9.5a14.59,14.59,0,0,0,7,5.13c2,.57,4.09.68,5.75-.82s.64-3.34.18-5.11c-5.32-20.44-9.94-41-14.37-61.69-.57-2.68.09-7.29-3.76-6.73s-8.7,1.19-10.11,6.27S394,403.13,392,408.14c-6.92,17-18.48,29.16-36.54,33.89-20.07,5.24-35.42-5.44-38.66-26-2.5-15.77-4.18-31.72-8.8-47.09-3.09-10.3-7.47-20-15.08-27.83A37.85,37.85,0,0,0,266,329c-12.09-.33-20.38,6.73-23.73,20.35-3.28,13.35-4.44,26.8-.7,40.35,2.69,9.74,8.71,17.27,15.56,24.29,2.34,2.41,5.23,1.82,8.37.27-.85,3.42-2.58,5.42-5,5.56-5.58.34-6.42,2.77-3.25,7.54-4-.83-4.86-4.71-8.29-5.72-1.19,4.73,3.49,7.85,3.22,12.24-6.05-3.79-6-3.79-7.42,3.58-.27,1.42-.78,2.79-1.47,5.2-2.94-5.26-2.87-10.47-4.64-15.08-5.31-13.7-9.65-27.58-11-42.48-1.56-17.11,1.47-33,10.46-47.53,10.16-16.46,27.52-20.73,46.27-11.78,16.54,7.9,24.78,22.35,30.23,38.87,4.74,14.39,6.32,29.42,8.8,44.28A96.89,96.89,0,0,0,326,421.33c3.58,11.76,15.85,17.47,29.31,12.94,17.73-6,27.68-19.22,32.1-37,1-3.85-.8-4.86-4.46-4.42-8.26,1-16.49,1.23-24.5-1.83-5.15-2-8.48-4.92-9.54-10.83-4.64-25.86-9.63-51.66-14.53-77.47q-7-37.1-14.16-74.16c-2.41-12.64-4.83-25.27-7.13-37.92-.51-2.79-1.54-4.51-4.52-5.44-9.89-3.08-10.76-4.42-10.93-14.85-.68-41.57-.07-83.13.46-124.69.11-8.83.41-17.65.66-26.48.06-2.16-.35-4.78,2.18-5.77,2.78-1.09,4.43,1.16,5.91,3,11.16,14,20.3,29.3,29.71,44.44,17.66,28.4,35.1,56.94,52.74,85.36,3.05,4.91,4.74,9.5.58,14.63-1.37,1.68-.86,3.83-.47,5.86q7.24,37.61,14.43,75.24,8.54,44.93,17,89.89c2,10.66,3.66,21.37,5.82,32,.84,4.14-.09,7.23-3.26,9.76-2.38,1.91-3.38,4.17-2.6,7.25,5.4,21.55,10.74,43.12,16.17,64.66C437.32,447,437.47,448.8,440.42,450.32ZM389.53,205.43c-2.23-11.55-4.28-21.51-6-31.51-.72-4.13-2.12-4.15-5.43-2.24-16.1,9.26-33.57,13.88-52,15.32-7.78.58-7.94.84-6.42,8.44q6.4,32.15,12.53,64.35c4.74,24.9,9.47,49.8,13.91,74.75,1,5.83,3.83,7.95,9.56,8,18.46.16,35.52-5,52-12.81,3.58-1.71,4.81-4.13,4-8-1.79-8.82-3.48-17.65-5.17-26.49-.65-3.45-2.84-5.83-5.22-8.21s-3.93-2.88-5.54.84A75.12,75.12,0,0,1,375.38,315c-1.52,1.26-3.43,2.36-5.56,1-1.71-1.07-1.57-2.77-1.29-4.44,1.55-9.43,2.78-18.92,4.78-28.25,2.08-9.63,2.28-9.68-6.31-14.85-6.12-3.69-12.64-6.92-17.33-12.56-3.12-3.76-2.3-5.61,2.42-6.73,5.9-1.39,11.72-3.16,17.65-4.41,4.59-1,6.28-3.5,6.4-8.09.27-10.11.86-20.21,1.53-30.29.17-2.62-.43-6.18,2.54-7.37,3.24-1.31,4.58,2.18,6.47,4C387.16,203.45,387.69,203.86,389.53,205.43Zm-55.85-77.25c3.24,2.35,4,5,5.15,7.42a205.2,205.2,0,0,0,13.8,25.09,23,23,0,0,0,8.14,8.07,6,6,0,0,0,5.79.4c5.91-2.81,11-6.57,14.63-12.18a6,6,0,0,0,.23-7.08Q347.31,90.64,309.88,33.43c-.81-1.24-1.38-3.63-3.37-2.94s-1.1,2.88-1.11,4.43q-.31,67.57-.52,135.15c0,2.67-.56,6.54,3.17,6.49s2.18-4,2.19-6.17c.18-25.37-.18-50.75,1.21-76.1.35-6.46.75-12.91,1.13-19.37l1.65-.07c1.6,10.2,3.35,20.39,4.78,30.61,2.46,17.65,4.65,35.34,7.13,53a47.72,47.72,0,0,0,2.69,9.51c.53,1.45,1.44,3.22,3.58,2.75,1.74-.38,2-2,2.3-3.42a46.48,46.48,0,0,0,.86-12.62C335.06,146.26,334.38,137.86,333.68,128.18ZM374,386.05a70,70,0,0,0,42-16c1.88-1.52,3.61-3.21,3.26-6-.48-3.82-.88-7.66-1.45-11.47-.65-4.39-2.17-5.31-6.5-2.72-17.17,10.28-35.35,16.3-55.66,11-2.26-.6-3.4-.36-3.63,2.31-1.22,14.71,5.67,22.5,20.37,22.86C372.89,386.06,373.44,386.05,374,386.05Zm-18.65-34.84c14.88,9,53.92-1.52,58.08-15.67-18.68,9.07-37.79,14.53-58.09,15.67Zm66.38,64.68a19.27,19.27,0,0,0-.72,3c.25,12.92,4.19,25.22,6.34,37.82.37,2.15,2,2.52,3.76,1.88,2.06-.75,2.6-2.24,2-4.39-1.4-4.73-2.4-9.59-4-14.23-2.67-7.53-3.11-15.74-7.39-24.08Z" style="fill:#474747"/><path d="M153.26,329.4c6.85-1.09,11.09-6.43,17.66-8.26-1,3.85-4,5.45-5.46,8.06-1,1.68-3.28,3.28-2.18,5.28,1.3,2.35,4,1.22,6.06.85,4-.71,7.85-1.88,11.78-2.81,1.77-.42,3.76-1.24,3.89,1.91,0,.61.66,1.69,1.09,1.73,6.92.64,11.36,8.6,19.27,6.44,1.68-.46,3.68-.21,5.85,2-6.21,2.47-12.17,3.51-17.95,1.13-5.12-2.11-9.92-3.74-15.36-1.6-1,.38-2.76.68-3.18.18-3.95-4.67-10.5-1-13.6-3.27-5.78-4.26-11.16-3.1-17-2.74-1.29.08-2.71-1-4-1.72s-2.63-1.7-3.92-.24c-3,3.39-5.55,2-7.75-.75s-4.07-3.24-6.38,0c-1.07,1.49-2.85,2.35-5.16.85,8.21-6.43.1-12.49-.8-20,4.38,3.22,7.82,5.79,11.3,8.31,1.14.82,2,2.65,3.65,2,1.87-.78,1.32-2.82,1.45-4.41.29-3.56.16-7.19,1.29-10.71.86.32,1.38.34,1.48.56,5.23,11.52,4.86,9.41,12.1,1.65,6.51-7,12.09-14.8,18.18-22.17,2.46-3,2.57-5.09-1.47-6.58a53.61,53.61,0,0,1-13.07-7c-3.05-2.23-4.93-1.36-6.63,1.59-2.29,4-4.52,8-7.12,11.78-7.34,10.61-18.35,15.27-29.45,12.72-7-1.62-11.89-6.3-16.26-11.65-3.6-4.41-7-9-10.79-13.24-6-6.56-10.53-7.5-18.74-4.19-2.48,1-4.46,2.08-6-1.38a5.6,5.6,0,0,0-5.42-3.12,11.23,11.23,0,0,1-7.44-2.25,17.11,17.11,0,0,1,11.36-4.86c2.7-.12,3.4-3.94,6.49-2.66,9.18,3.82,19.68,5,26.22,13.91,3.49,4.74,7.19,9.31,11,13.84,10.08,12.13,23.61,11.6,32.71-1.33,2.75-3.91,5-8.14,7.79-12,2.29-3.21,1.73-5.63-1-8.15-4.41-4.05-7.35-9.12-9.72-14.56-2.47-5.65-2.2-10.9,1.34-16.17,11.4-17,25-32.25,36.95-48.77,2.66-3.67,3.38-6.45.94-10.83a22.67,22.67,0,0,1,4.78-27.4c26.76-24,58.13-41.17,87.54-61.24,4.85-3.32,9.88-6.39,14.86-9.53,2.14-1.35,4.31-3.24,7-1.49s2.43,4.47,2.16,7c-.52,4.74-1.44,9.43-2.08,14.16C277,131.73,272,165.35,264,198.42c-3.16,13-9.79,23.08-24.86,24.1-2.28.15-3.54,1.63-4.78,3.31q-37.23,50.67-78.24,98.34C154.93,325.49,153.32,326.66,153.26,329.4Zm94.36-175.94c1,4,.44,6.67.16,9.33a71.54,71.54,0,0,0-.6,8.78c0,2,.43,4.56,2.83,4.76,2.72.24,2.66-2.45,3.06-4.39,2.25-10.78,4.32-21.6,6.83-32.33,1.41-6,2.59-12.22,5.64-17.84-1.67,25-5.63,49.65-9.78,74.3,3.95-10.53,5.65-21.53,7.78-32.41,4.52-23.07,7.62-46.37,10.91-69.64.24-1.72,1.28-3.92-.59-5.09-1.64-1-3,.81-4.35,1.64-24.56,15.49-48.73,31.59-72.7,48-2,1.35-3.92,2.72-5.85,4.14-1,.75-2.3,1.44-1.93,3s1.81,1.64,3,2c14.51,3.93,26.77,11.9,38.29,21.22,5.21,4.22,8.1,3.75,11.2-2.14,2.06-3.9,3.68-8,6.1-13.33Zm-30.72,30-.78,1.27c-6.47-2.49-12.92-5-19.43-7.42a49.44,49.44,0,0,0-9-2.57c-3.27-.53-5.05,1.77-6,4.58-.78,2.38.93,3.22,2.78,3.91,16,6,29.32,15.85,41.07,28,2.1,2.17,3.8,2.75,5.75,0,1.43-2,2.4-2.17,4.66-.26,3,2.53,7.05,1.79,10.29-.24s2.51-5.54,1.58-8.5a30.68,30.68,0,0,0-5.31-9.59,113.13,113.13,0,0,0-45.14-35.19c-4.92-2.12-10.07-3.56-15.53-3-8.6.82-13.07,8.49-9.69,16.41,1.53,3.59,3.34,5,6,1s6.33-5.43,10.93-4.62c11.38,1.91,19.67,8.94,27.82,16.18Zm-9,56.28c3.08-2.21,4.89-5.7,7.48-8.49s2.72-5.27.33-8.28c-8-10.15-17.18-19.05-28.7-25.22-13.79-7.39-15.86-6.73-23.74,6.74-1.86,3.19-1,4.48,2.34,5.45,16.15,4.73,29.68,13.25,39.23,27.45.72,1,1.38,2.18,3.08,2.31Zm-63.29-5.48c-1.85-.09-4-.34-4.28,2.19-.28,2.26,1.81,2.41,3.32,2.92,15,5,26.57,14.43,36.1,26.74,1.11,1.43,1.66,4.5,4.18,3.14,2.13-1.14.9-3.68.28-5.53-4.65-14.05-24.75-29-39.58-29.5Zm12.1-15.51c-3-.15-4.93.28-5.34,2.43-.56,2.93,2.06,3,3.9,3.49,16,3.86,28.88,12.22,38.44,25.65.78,1.09,1.6,3.15,3.23,2.24s.95-2.92.36-4.48c-4.75-12.69-28.06-29.08-40.57-29.37Zm-18.59,29.08c-2.8.19-2.7,1.91-1.81,3.46a39.11,39.11,0,0,0,9,10.31c1.26,1,2.52,1.27,3.54-.64,2.11-4,4.55-1,6.19.28,2.08,1.61,6.32,3.66,3.81,6.63-3,3.59-.42,4.41,1.49,5.68a61.76,61.76,0,0,0,8.19,4.46c1.4.65,3.27,1.75,4.55.09S173,275,172,273.66c-7.61-10.14-16.83-18.38-28.33-23.89a47.27,47.27,0,0,0-5.53-2Zm34,48.15c-1.7.54-2.32.55-2.66.87-9.36,8.79-17.12,18.95-25,29-.66.84-1.29,2-.07,2.88s2,0,2.75-.91c4.66-5.63,9.39-11.2,14-16.9,3.6-4.53,7.74-8.69,11-15Z" style="fill:#474747"/><path d="M292.11,479.72c-9.61-4.71-17.13-12.9-27.89-8.3-9.9,4.22-12.93,13.83-16.17,24.51-2.48-5.17-2.16-9.47-3.82-13.25-1.57-3.53-2.9-7.13-5.57-10-4.83-5.21-9.87-6.25-16.41-3.44a43.72,43.72,0,0,1-7.3,2.6c12.65-13.22,19.33-28,13.27-46.61,5.23,2.63,5.95,7.35,6.54,11.82,1.06,8.15-2.48,15.07-6.95,21.5-2.23,3.22-2.85,4.87,2.16,5.44,7.48.85,11.88,5.84,14.82,12.49,2.46,5.57,2.69,5.56,6,.72C261.53,461.44,280.18,464.32,292.11,479.72Z" style="fill:#474747"/><path d="M14,281.81c.56-2.67,2.47-3.33,3.78-4.52,7.06-6.44,7.34-14.19.83-21.27-1.18-1.27-3.63-2.1-3-4.17.53-1.79,2.87-1.15,4.41-1.5,8.59-2,11.16-6.52,8.13-14.95-1.35-3.76-3.06-7.39-4.77-11.49,2.7-.32,3.91,1.46,5.19,2.74a28,28,0,0,0,11.2,6.8c7.19,2.36,12.49.54,16.69-5.67.79-1.18,1.31-2.61,3.4-3.12.69,5.27-2.73,10.19-.53,15.56A98.38,98.38,0,0,0,66.21,254c-5.23-.45-7.35-4.14-8.41-8.61-.75-3.17.14-7.69-1.72-9.38-2.37-2.15-5.46,2.32-8.83,2.36a22.94,22.94,0,0,1-11.09-2.76c-.93-.49-1.81-1.7-2.93-1-1.37.88-.55,2.3-.39,3.52,1,7.64-.1,10-7.22,13.41-3.23,1.53-2.61,3.15-1.31,5.63C30,268,26.29,277,14,281.81Z" style="fill:#474747"/><path d="M303.74,454.14c-4.93.13-9.3-4.37-14.21-2-6.12,3-2,8.11-1.38,12.46h-1.41c-.68-2.74-1.72-5.45-2-8.23-.34-3.77,1.62-6.21,5.5-7,2.62-.52,4.05-1.56,2.06-4.48-4.48-6.58-4.48-13.32-.2-20,1.53-2.42,1-3.77-2-3.73-2.21,0-4.41.14-6.61.06-9.57-.34-15.32-10-11.1-19.21,1.73,1.43,1.09,3.39,1.34,5,1.73,11,11.26,16.45,21.7,12.28A18.79,18.79,0,0,1,299,418c1.41-.26,3.11-.47,3.79,1.28.61,1.57-.91,2.21-1.81,3-12,11-12,17.41,0,28.23C302.05,451.46,303.51,452.16,303.74,454.14Z" style="fill:#474747"/><path d="M24.21,303.66c2.4-7.08,9.45-12.66,5.29-21.28,4.46.46,5.48,1.11,4.9,5.16-.84,5.82.93,6.19,5.73,4.08a10.1,10.1,0,0,1,10.92,1.57c3,2.55,4.81,3.7,5.9-1.78,1-4.88,3.88-9,9.93-9.62-7.47,5.91-10.68,13.75-10.33,24.76-5-6.37-7.44-13.83-15.66-12.37C34.39,295.34,29.6,300,24.21,303.66Z" style="fill:#474747"/><path d="M136,249c-2.8.19-2.7,1.92-1.81,3.47a39.07,39.07,0,0,0,9,10.3c1.25,1.05,2.52,1.28,3.53-.64,2.12-4,4.55-1,6.19.28,2.08,1.61,6.32,3.66,3.82,6.63-3,3.6-.42,4.41,1.48,5.68a61.76,61.76,0,0,0,8.19,4.46c1.41.65,3.27,1.75,4.56.09s-.12-3.14-1.09-4.44c-7.6-10.13-16.83-18.38-28.32-23.89A52.1,52.1,0,0,0,136,249Z" style="fill:#ed40a9;stroke:#ed40a9;stroke-miterlimit:10"/><path d="M384.82,212a12.77,12.77,0,0,0-1.15,2.72c-.67,7.32-1.45,14.64-1.87,22-.7,12.19-1.3,13-13.44,15.32a14.52,14.52,0,0,0-1.62.33c-2.72.92-7.43-.37-7.93,2.28-.69,3.62,4.13,4.46,6.75,6.13,17,10.76,16.82,10.66,12.61,30.44-1,4.56-3.43,9.12-2.2,14.24,2.52-.62,3.31-2.39,4.44-3.77A91.08,91.08,0,0,0,392.92,281c1.21-2.7,2.52-6,6-5.55,4.92.61,4.78-1.59,3.8-5.05a45.22,45.22,0,0,1-1.1-6C399.05,246.31,394.09,229,384.82,212Z" style="fill:#ed40a9;stroke:#ed40a9;stroke-miterlimit:10"/></g></g></svg>