<svg id="Layer_1" data-name="Layer 1" xmlns="http://www.w3.org/2000/svg" viewBox="0 0 367 371"><title>gluten-free</title><g id="Layer_2" data-name="Layer 2"><g style="opacity:0.12"><path d="M243.36,47.4c1.84-8.84,1.15-17.68-4.65-25.4-19.31,13.26-26.31,51-16.9,66.17C232,76,240.15,62.91,243.36,47.4Z" transform="translate(0 0)" style="fill:#6a374f;stroke:#6a374f;stroke-linecap:round;stroke-linejoin:round;stroke-width:28px"/><path d="M307.8,39.62c-23.41-1.53-52.54,18.25-60,41.1C271.89,86.28,307.69,61.52,307.8,39.62Z" transform="translate(0 0)" style="fill:#6a374f;stroke:#6a374f;stroke-linecap:round;stroke-linejoin:round;stroke-width:28px"/><path d="M126.78,287.5c-4.08,19.67,12.74,49.57,45.14,53.35C175,311.74,151.94,285.28,126.78,287.5Z" transform="translate(0 0)" style="fill:#6a374f;stroke:#6a374f;stroke-linecap:round;stroke-linejoin:round;stroke-width:28px"/><path d="M62.91,270.29c1.31-4.19,2.5-8,3.7-11.89-19.79-5.4-46.84,19.06-44.46,39.79,14-.58,24.27-8.37,34-17.66-5.19,19.61-4.27,38.1,6.73,55.74,18.85-16.48,23.36-54,8.81-70.72Z" transform="translate(0 0)" style="fill:#6a374f;stroke:#6a374f;stroke-linecap:round;stroke-linejoin:round;stroke-width:28px"/><path d="M189.84,285.35q-1-5.64-1.93-11.27c-.75-4.37-4.95-9.07-8.64-11.22-4-2.36-10-3.36-14.47-1.9s-8.93,4.29-11.23,8.64c-2.49,4.71-2.79,9.23-1.89,14.47l1.93,11.27c.75,4.37,4.95,9.07,8.63,11.22,4,2.36,10,3.36,14.48,1.9s8.93-4.29,11.22-8.64C190.43,295.11,190.73,290.59,189.84,285.35Z" transform="translate(0 0)" style="fill:#6a374f"/><path d="M68.66,270.68c8.58,16.48,5.15,42.68-7.22,57.06C50.82,312.78,54.72,280.34,68.66,270.68Z" transform="translate(0 0)" style="fill:#6a374f"/><path d="M57.5,261.16c-4.44,13.46-17.76,26.48-32.08,31.67C25.37,280.06,43.7,261.71,57.5,261.16Z" transform="translate(0 0)" style="fill:#6a374f"/><path d="M129.53,292.39c18.66,1.56,35.23,21.15,36,42.57C146,332.16,131.1,310.58,129.53,292.39Z" transform="translate(0 0)" style="fill:#6a374f"/><path d="M250.52,76.57c10.38-19.39,27.4-28.49,47.86-33.24C294.39,61.39,268.16,76,250.52,76.57Z" transform="translate(0 0)" style="fill:#6a374f"/><path d="M220.28,79.82c-1.05-19.89,1.85-37.07,14.53-51.87C240.94,38.39,234.64,61.29,220.28,79.82Z" transform="translate(0 0)" style="fill:#6a374f"/><path d="M352.12,180.49c0-16.26.11-31.22-.18-46.16,0-1.35-2.42-3.51-4-3.82-3.75-.73-7.67-.57-11.8-.78.32-5.26.58-9.76.89-14.84-4.19-.38-7.86-.84-11.54-1q-19.32-1-38.63-1.81c-29.7-1.28-59.41-2.43-89.1-3.86-5-.24-6.62,1.5-6.52,6.31.09,4.28-.62,8.57-1,13.52l-37.77-2.23-.12-1.69c13-6.87,25.93-13.89,39.05-20.53,4.66-2.37,6.16-4.93,3.28-9.65-1.46-2.39-2.31-5.14-3.49-7.86l12.57-7.45a102.64,102.64,0,0,0-25.39-34.32c-31.43-27.8-74.24-28.81-105.63-1-34.85,30.91-44.59,71.24-39.28,116,4,34.28,22.47,61.68,44.24,86.94,6.74,7.81,16,13.93,25.1,19.13,24.18,13.84,60.8,8.95,78.61-9.15a14.15,14.15,0,0,1,3.15-1.77c-1.05,24.65-2.07,48.63-3.1,72.81l14.88,1.63v25.83L250.78,357V267.66l68.29,3.1c.72-18.7,1.4-36.45,2.09-54.48l-16.38-.88V199.05c-1.77-.14-3.16-.29-4.57-.37-14.53-.77-29.06-1.41-43.58-2.44-1.75-.12-4.67-2.14-4.82-3.53-.57-5.27-.23-10.65-.23-16.47Z" transform="translate(0 0)" style="fill:#6a374f;stroke:#6a374f;stroke-linecap:round;stroke-linejoin:round;stroke-width:28px"/><path d="M194.61,76.2l-42.69,23c-2.84-4.26-5.24-8.6-8.34-12.36-13.39-16.27-31-16.19-44.35.2-8.75,10.77-12.83,23.58-15.15,37-3.6,20.9-2.45,41.52,5.58,61.21a70.75,70.75,0,0,0,12.65,20.45c11.45,12.64,27,12.27,38.83-.06,10.05-10.45,14.33-23.53,16.75-38.43l-47.46-4.91c.83-10.88,1.64-21.51,2.5-32.93l96.86,6c5.37,38.57-20.29,88.23-54.17,105.49-28.92,14.73-62.05,9-86.43-15.41C49.75,206,39.6,182,36.66,155,32.67,118.4,40,84.41,65,56.23,106.86,8.83,168.28,25.37,194.61,76.2Z" transform="translate(0 0)" style="fill:#6a374f"/><path d="M216.65,129.66,199,128.4c-7.44-.53-3.35-6.17-4-9.54s.77-5.24,4.83-5q63.19,3.14,126.41,6a21.93,21.93,0,0,1,3,.64c-.59,13.09-1.18,26-1.79,39.47l-95.27-3.23c-1.11,15-2.16,29.15-3.29,44.33l68.37,3.25c-.64,14.1-1.25,27.7-1.9,42.15-2.06,0-3.83.07-5.6,0-18.89-.81-37.8-1.4-56.67-2.62-5.78-.38-7.09,1.66-7.27,6.84-.75,21.8-1.8,43.59-2.76,65.39-.09,2-.32,4.08-.56,7l-35.2-1.7c0-9.1-.3-17.75,0-26.37,1-24.28,2.2-48.56,3.47-72.84a13.76,13.76,0,0,1,2-6.92c15.43-21.8,21-46.64,23-72.66C216,138.52,216.29,134.43,216.65,129.66Z" transform="translate(0 0)" style="fill:#6a374f"/><path d="M54.29,280.06c-9.72,9.3-19.95,17.09-34,17.66C17.92,277,45,252.58,64.76,257.93c-1.2,3.86-2.4,7.7-3.7,11.89l8.77-4.73c14.55,16.71,10,54.23-8.81,70.71C50,318.16,49.1,299.68,54.29,280.06Zm14.37-9.38c-13.94,9.66-17.84,42.1-7.22,57.06C73.81,313.36,77.24,287.16,68.66,270.68ZM57.5,261.16c-13.8.55-32.13,18.9-32.08,31.67C39.74,287.64,53.06,274.62,57.5,261.16Z" transform="translate(0 0)" style="fill:#6a374f;stroke:#6a374f;stroke-miterlimit:10;stroke-width:0.75px"/><path d="M170.07,340.38c-32.4-3.78-49.22-33.68-45.15-53.35C150.08,284.81,173.13,311.27,170.07,340.38Zm-40.54-48c1.57,18.19,16.47,39.77,36,42.57-.77-21.41-17.34-40.95-36-42.56Z" transform="translate(0 0)" style="fill:#6a374f;stroke:#6a374f;stroke-miterlimit:10;stroke-width:0.75px"/><path d="M245.92,80.25c7.49-22.85,36.61-42.62,60-41.1C305.84,61.06,270,85.81,245.92,80.25Zm4.6-3.68c17.64-.54,43.87-15.18,47.86-33.24C277.92,48.08,260.9,57.18,250.52,76.57Z" transform="translate(0 0)" style="fill:#6a374f;stroke:#6a374f;stroke-miterlimit:10;stroke-width:0.75px"/><path d="M236.85,21.53c5.81,7.72,6.49,16.56,4.66,25.41C238.3,62.44,230.17,75.5,220,87.7,210.55,72.55,217.55,34.79,236.85,21.53ZM220.28,79.82C234.64,61.29,240.94,38.39,234.81,28,222.13,42.75,219.23,59.93,220.28,79.82Z" transform="translate(0 0)" style="fill:#6a374f;stroke:#6a374f;stroke-miterlimit:10;stroke-width:0.75px"/><path d="M135.41,124.4c-8.35-.42-15.18-.54-22-1.18-4.45-.41-6.25.71-6.41,5.56-.43,12.6-1.44,25.17-2.26,38.26,3.89.51,7.32,1.22,10.78,1.34,3.74.13,5.33,1.56,4.71,5.36-.27,1.63-.07,3.33-.34,5-.65,4,.84,5.62,4.93,5.84,7.17.4,14.32,1.26,22.39,2-4.35,8.82-8.86,16.09-16.84,20.49s-16,3-23.34-4c-9.73-9.28-14.1-21.34-16.76-34.09-3.75-18-4.26-35.93,4.47-52.85A44.2,44.2,0,0,1,104,103.72c7-6.38,16.33-5.37,21.69,2.36C129.37,111.39,131.84,117.55,135.41,124.4Z" transform="translate(0 0)" style="fill:#6a374f"/><path d="M316.43,137c-2.68-10.66-16.13-14.11-20.52-8.22a6.22,6.22,0,0,0-.92,4.8,5.75,5.75,0,0,0,6.5,4.06c8.54-.93,9,8,9.41,10.67.3,2.21,1.08,3,2.74,2.68C315.81,150.56,318.22,144.17,316.43,137Z" transform="translate(0 0)" style="fill:#6a374f"/><path d="M272.07,235.12c4.89,3.31,11.61-2.51,13.47-5.44,4.48-7.07-7.66-12.21-9.15-3.39C275.21,233.21,270.62,232.65,272.07,235.12Z" transform="translate(0 0)" style="fill:#6a374f"/><path d="M188.2,144.24c11.81,4.68,13.73,20.61,6.31,24.74a7.12,7.12,0,0,1-5.63.33c-2.61-1-4.64-4.1-3.67-8.06,2.36-9.64-7.8-11.57-10.79-12.39-2.48-.68-3.31-1.69-2.66-3.54C172.61,142.9,180.29,141.11,188.2,144.24Z" transform="translate(0 0)" style="fill:#6a374f"/><path d="M335.18,114.42c-.31,5.09-.58,9.58-.89,14.84,4.13.22,8,.06,11.8.78,1.58.31,4,2.47,4,3.82.29,15,.18,29.9.18,46.16l-100.54-4.24c0,5.81-.34,11.19.23,16.47.15,1.38,3.07,3.4,4.82,3.53,14.51,1,29,1.67,43.58,2.44,1.4.07,2.8.22,4.56.36v16.35l16.39.88c-.69,18-1.37,35.78-2.09,54.48l-68.29-3.1v89.32l-54.44-2.24V328.44l-14.88-1.63c1-24.18,2-48.16,3.1-72.81a14.22,14.22,0,0,0-3.16,1.77c-17.8,18.1-54.42,23-78.6,9.15-9.09-5.19-18.36-11.31-25.1-19.13-21.77-25.22-40.21-52.66-44.28-86.93-5.3-44.77,4.44-85.09,39.29-116,31.39-27.86,74.2-26.86,105.63,1a102.54,102.54,0,0,1,25.39,34.33L189.3,85.6c1.19,2.71,2,5.46,3.5,7.85,2.88,4.72,1.38,7.29-3.28,9.65-13.12,6.64-26.05,13.66-39.05,20.54l.12,1.69,37.77,2.23c.41-5,1.12-9.25,1-13.52-.1-4.82,1.5-6.56,6.52-6.32,29.69,1.43,59.4,2.58,89.1,3.86q19.32.84,38.62,1.81C327.32,113.58,331,114,335.18,114.42ZM194.61,76.2C168.28,25.37,106.86,8.83,65,56.23,40,84.41,32.67,118.4,36.66,155c2.94,27,13.09,51,32.53,70.47,24.38,24.36,57.51,30.14,86.43,15.41,33.88-17.26,59.54-66.92,54.17-105.49l-96.86-6c-.86,11.42-1.67,22-2.5,32.93l47.46,4.91c-2.42,14.9-6.7,28-16.75,38.43-11.86,12.33-27.38,12.7-38.83.06a70.75,70.75,0,0,1-12.65-20.45c-8-19.69-9.18-40.31-5.58-61.21,2.32-13.46,6.4-26.27,15.15-37,13.32-16.39,31-16.47,44.35-.2,3.1,3.76,5.5,8.1,8.34,12.36Zm22,53.46c-.36,4.77-.67,8.86-1,13-1.93,26-7.54,50.86-23,72.66a13.76,13.76,0,0,0-2,6.92c-1.27,24.28-2.48,48.56-3.47,72.84-.35,8.62,0,17.27,0,26.37l35.2,1.7c.24-2.94.47-5,.56-7,1-21.8,2-43.59,2.76-65.39.18-5.18,1.49-7.22,7.27-6.84,18.87,1.22,37.78,1.81,56.67,2.62,1.77.08,3.54,0,5.6,0,.65-14.45,1.26-28,1.9-42.15l-68.37-3.25c1.13-15.18,2.18-29.33,3.29-44.33L327.34,160c.61-13.44,1.2-26.38,1.79-39.47a21.93,21.93,0,0,0-3-.64l-126.41-6c-4.06-.21-5.54,1.58-4.83,5s-3.4,9,4,9.54Zm-81.24-5.26c-3.57-6.85-6-13-9.73-18.32-5.32-7.73-14.64-8.74-21.64-2.36a44.31,44.31,0,0,0-9.2,12.33c-8.73,16.92-8.22,34.83-4.47,52.85,2.66,12.75,7,24.81,16.76,34.09,7.34,7,15.49,8.37,23.34,4s12.49-11.67,16.84-20.49c-8.07-.75-15.22-1.61-22.39-2-4.09-.22-5.58-1.88-4.93-5.84.27-1.63.07-3.33.34-5,.62-3.8-1-5.23-4.71-5.36-3.46-.12-6.89-.83-10.78-1.34.82-13.09,1.83-25.66,2.26-38.26.16-4.85,2-6,6.41-5.56,6.76.72,13.59.86,21.94,1.26Z" transform="translate(0 0)" style="fill:#6a374f;stroke:#6a374f;stroke-miterlimit:10;stroke-width:0.75px"/></g><g id="Layer_1-2" data-name="Layer 1-2"><path d="M235.36,39.4c1.84-8.84,1.15-17.68-4.65-25.4-19.31,13.26-26.31,51-16.9,66.17C224,68,232.15,54.91,235.36,39.4Z" transform="translate(0 0)" style="fill:#fff;stroke:#fff;stroke-linecap:round;stroke-linejoin:round;stroke-width:28px"/><path d="M299.8,31.62c-23.41-1.53-52.54,18.25-60,41.1C263.89,78.28,299.69,53.52,299.8,31.62Z" transform="translate(0 0)" style="fill:#fff;stroke:#fff;stroke-linecap:round;stroke-linejoin:round;stroke-width:28px"/><path d="M118.78,279.5c-4.08,19.67,12.74,49.57,45.14,53.35C167,303.74,143.94,277.28,118.78,279.5Z" transform="translate(0 0)" style="fill:#fff;stroke:#fff;stroke-linecap:round;stroke-linejoin:round;stroke-width:28px"/><path d="M54.91,262.29c1.31-4.19,2.5-8,3.7-11.89-19.79-5.4-46.84,19.06-44.46,39.79,14-.58,24.27-8.37,34-17.66-5.19,19.61-4.27,38.1,6.73,55.74,18.85-16.48,23.36-54,8.81-70.72Z" transform="translate(0 0)" style="fill:#fff;stroke:#fff;stroke-linecap:round;stroke-linejoin:round;stroke-width:28px"/><path d="M181.84,277.35q-1-5.64-1.93-11.27c-.75-4.37-4.95-9.07-8.64-11.22-4-2.36-10-3.36-14.47-1.9s-8.93,4.29-11.23,8.64c-2.49,4.71-2.79,9.23-1.89,14.47l1.93,11.27c.75,4.37,4.95,9.07,8.63,11.22,4,2.36,10,3.36,14.48,1.9s8.93-4.29,11.22-8.64C182.43,287.11,182.73,282.59,181.84,277.35Z" transform="translate(0 0)" style="fill:#fff"/><path d="M60.66,262.68c8.58,16.48,5.15,42.68-7.22,57.06C42.82,304.78,46.72,272.34,60.66,262.68Z" transform="translate(0 0)" style="fill:#9ecc6d"/><path d="M49.5,253.16c-4.44,13.46-17.76,26.48-32.08,31.67C17.37,272.06,35.7,253.71,49.5,253.16Z" transform="translate(0 0)" style="fill:#9ecc6d"/><path d="M121.53,284.39c18.66,1.56,35.23,21.15,36,42.57C138,324.16,123.1,302.58,121.53,284.39Z" transform="translate(0 0)" style="fill:#9ecc6d"/><path d="M242.52,68.57c10.38-19.39,27.4-28.49,47.86-33.24C286.39,53.39,260.16,68,242.52,68.57Z" transform="translate(0 0)" style="fill:#9ecc6d"/><path d="M212.28,71.82c-1.05-19.89,1.85-37.07,14.53-51.87C232.94,30.39,226.64,53.29,212.28,71.82Z" transform="translate(0 0)" style="fill:#9ecc6d"/><path d="M344.12,172.49c0-16.26.11-31.22-.18-46.16,0-1.35-2.42-3.51-4-3.82-3.75-.73-7.67-.57-11.8-.78.32-5.26.58-9.76.89-14.84-4.19-.38-7.86-.84-11.54-1q-19.32-1-38.63-1.81c-29.7-1.28-59.41-2.43-89.1-3.86-5-.24-6.62,1.5-6.52,6.31.09,4.28-.62,8.57-1,13.52l-37.77-2.23-.12-1.69c13-6.87,25.93-13.89,39.05-20.53,4.66-2.37,6.16-4.93,3.28-9.65-1.46-2.39-2.31-5.14-3.49-7.86l12.57-7.45a102.64,102.64,0,0,0-25.39-34.32c-31.43-27.8-74.24-28.81-105.63-1-34.85,30.91-44.59,71.24-39.28,116,4,34.28,22.47,61.68,44.24,86.94,6.74,7.81,16,13.93,25.1,19.13,24.18,13.84,60.8,8.95,78.61-9.15a14.15,14.15,0,0,1,3.15-1.77c-1.05,24.65-2.07,48.63-3.1,72.81l14.88,1.63v25.83L242.78,349V259.66l68.29,3.1c.72-18.7,1.4-36.45,2.09-54.48l-16.38-.88V191.05c-1.77-.14-3.16-.29-4.57-.37-14.53-.77-29.06-1.41-43.58-2.44-1.75-.12-4.67-2.14-4.82-3.53-.57-5.27-.23-10.65-.23-16.47Z" transform="translate(0 0)" style="fill:#fff;stroke:#fff;stroke-linecap:round;stroke-linejoin:round;stroke-width:28px"/><path d="M186.61,68.2l-42.69,23c-2.84-4.26-5.24-8.6-8.34-12.36-13.39-16.27-31-16.19-44.35.2-8.75,10.77-12.83,23.58-15.15,37-3.6,20.9-2.45,41.52,5.58,61.21A70.75,70.75,0,0,0,94.31,197.7c11.45,12.64,27,12.27,38.83-.06,10.05-10.45,14.33-23.53,16.75-38.43l-47.46-4.91c.83-10.88,1.64-21.51,2.5-32.93l96.86,6c5.37,38.57-20.29,88.23-54.17,105.49-28.92,14.73-62.05,9-86.43-15.41C41.75,198,31.6,174,28.66,147,24.67,110.4,32,76.41,57,48.23,98.86.83,160.28,17.37,186.61,68.2Z" transform="translate(0 0)" style="fill:#e077bd"/><path d="M208.65,121.66,191,120.4c-7.44-.53-3.35-6.17-4-9.54s.77-5.24,4.83-5q63.19,3.14,126.41,6a21.93,21.93,0,0,1,3,.64c-.59,13.09-1.18,26-1.79,39.47l-95.27-3.23c-1.11,15-2.16,29.15-3.29,44.33l68.37,3.25c-.64,14.1-1.25,27.7-1.9,42.15-2.06,0-3.83.07-5.6,0-18.89-.81-37.8-1.4-56.67-2.62-5.78-.38-7.09,1.66-7.27,6.84-.75,21.8-1.8,43.59-2.76,65.39-.09,2-.32,4.08-.56,7l-35.2-1.7c0-9.1-.3-17.75,0-26.37,1-24.28,2.2-48.56,3.47-72.84a13.76,13.76,0,0,1,2-6.92c15.43-21.8,21-46.64,23-72.66C208,130.52,208.29,126.43,208.65,121.66Z" transform="translate(0 0)" style="fill:#ace3fc"/><path d="M46.29,272.06c-9.72,9.3-19.95,17.09-34,17.66C9.92,269,37,244.58,56.76,249.93c-1.2,3.86-2.4,7.7-3.7,11.89l8.77-4.73c14.55,16.71,10,54.23-8.81,70.71C42,310.16,41.1,291.68,46.29,272.06Zm14.37-9.38c-13.94,9.66-17.84,42.1-7.22,57.06C65.81,305.36,69.24,279.16,60.66,262.68ZM49.5,253.16c-13.8.55-32.13,18.9-32.08,31.67C31.74,279.64,45.06,266.62,49.5,253.16Z" transform="translate(0 0)" style="fill:#474747;stroke:#474747;stroke-miterlimit:10;stroke-width:0.75px"/><path d="M162.07,332.38c-32.4-3.78-49.22-33.68-45.15-53.35C142.08,276.81,165.13,303.27,162.07,332.38Zm-40.54-48c1.57,18.19,16.47,39.77,36,42.57-.77-21.41-17.34-40.95-36-42.56Z" transform="translate(0 0)" style="fill:#474747;stroke:#474747;stroke-miterlimit:10;stroke-width:0.75px"/><path d="M237.92,72.25c7.49-22.85,36.61-42.62,60-41.1C297.84,53.06,262,77.81,237.92,72.25Zm4.6-3.68c17.64-.54,43.87-15.18,47.86-33.24C269.92,40.08,252.9,49.18,242.52,68.57Z" transform="translate(0 0)" style="fill:#474747;stroke:#474747;stroke-miterlimit:10;stroke-width:0.75px"/><path d="M228.85,13.53c5.81,7.72,6.49,16.56,4.66,25.41C230.3,54.44,222.17,67.5,212,79.7,202.55,64.55,209.55,26.79,228.85,13.53ZM212.28,71.82C226.64,53.29,232.94,30.39,226.81,20,214.13,34.75,211.23,51.93,212.28,71.82Z" transform="translate(0 0)" style="fill:#474747;stroke:#474747;stroke-miterlimit:10;stroke-width:0.75px"/><path d="M127.41,116.4c-8.35-.42-15.18-.54-22-1.18-4.45-.41-6.25.71-6.41,5.56-.43,12.6-1.44,25.17-2.26,38.26,3.89.51,7.32,1.22,10.78,1.34,3.74.13,5.33,1.56,4.71,5.36-.27,1.63-.07,3.33-.34,5-.65,4,.84,5.62,4.93,5.84,7.17.4,14.32,1.26,22.39,2-4.35,8.82-8.86,16.09-16.84,20.49s-16,3-23.34-4c-9.73-9.28-14.1-21.34-16.76-34.09-3.75-18-4.26-35.93,4.47-52.85A44.2,44.2,0,0,1,96,95.72c7-6.38,16.33-5.37,21.69,2.36C121.37,103.39,123.84,109.55,127.41,116.4Z" transform="translate(0 0)" style="fill:#fff"/><path d="M308.43,129c-2.68-10.66-16.13-14.11-20.52-8.22a6.22,6.22,0,0,0-.92,4.8,5.75,5.75,0,0,0,6.5,4.06c8.54-.93,9,8,9.41,10.67.3,2.21,1.08,3,2.74,2.68C307.81,142.56,310.22,136.17,308.43,129Z" transform="translate(0 0)" style="fill:#e6fdff"/><path d="M264.07,227.12c4.89,3.31,11.61-2.51,13.47-5.44,4.48-7.07-7.66-12.21-9.15-3.39C267.21,225.21,262.62,224.65,264.07,227.12Z" transform="translate(0 0)" style="fill:#e6fdff"/><path d="M180.2,136.24c11.81,4.68,13.73,20.61,6.31,24.74a7.12,7.12,0,0,1-5.63.33c-2.61-1-4.64-4.1-3.67-8.06,2.36-9.64-7.8-11.57-10.79-12.39-2.48-.68-3.31-1.69-2.66-3.54C164.61,134.9,172.29,133.11,180.2,136.24Z" transform="translate(0 0)" style="fill:#eab9e5"/><path d="M327.18,106.42c-.31,5.09-.58,9.58-.89,14.84,4.13.22,8,.06,11.8.78,1.58.31,4,2.47,4,3.82.29,15,.18,29.9.18,46.16l-100.54-4.24c0,5.81-.34,11.19.23,16.47.15,1.38,3.07,3.4,4.82,3.53,14.51,1,29,1.67,43.58,2.44,1.4.07,2.8.22,4.56.36v16.35l16.39.88c-.69,18-1.37,35.78-2.09,54.48l-68.29-3.1v89.32l-54.44-2.24V320.44l-14.88-1.63c1-24.18,2-48.16,3.1-72.81a14.22,14.22,0,0,0-3.16,1.77c-17.8,18.1-54.42,23-78.6,9.15-9.09-5.19-18.36-11.31-25.1-19.13-21.77-25.22-40.21-52.66-44.28-86.93-5.3-44.77,4.44-85.09,39.29-116C94.25,7,137.06,8,168.49,35.82a102.54,102.54,0,0,1,25.39,34.33L181.3,77.6c1.19,2.71,2,5.46,3.5,7.85,2.88,4.72,1.38,7.29-3.28,9.65-13.12,6.64-26.05,13.66-39.05,20.54l.12,1.69,37.77,2.23c.41-5,1.12-9.25,1-13.52-.1-4.82,1.5-6.56,6.52-6.32,29.69,1.43,59.4,2.58,89.1,3.86q19.32.84,38.62,1.81C319.32,105.58,323,106,327.18,106.42ZM186.61,68.2C160.28,17.37,98.86.83,57,48.23,32,76.41,24.67,110.4,28.66,147c2.94,27,13.09,51,32.53,70.47,24.38,24.36,57.51,30.14,86.43,15.41,33.88-17.26,59.54-66.92,54.17-105.49l-96.86-6c-.86,11.42-1.67,22-2.5,32.93l47.46,4.91c-2.42,14.9-6.7,28-16.75,38.43-11.86,12.33-27.38,12.7-38.83.06a70.75,70.75,0,0,1-12.65-20.45c-8-19.69-9.18-40.31-5.58-61.21,2.32-13.46,6.4-26.27,15.15-37,13.32-16.39,31-16.47,44.35-.2,3.1,3.76,5.5,8.1,8.34,12.36Zm22,53.46c-.36,4.77-.67,8.86-1,13-1.93,26-7.54,50.86-23,72.66a13.76,13.76,0,0,0-2,6.92c-1.27,24.28-2.48,48.56-3.47,72.84-.35,8.62,0,17.27,0,26.37l35.2,1.7c.24-2.94.47-5,.56-7,1-21.8,2-43.59,2.76-65.39.18-5.18,1.49-7.22,7.27-6.84,18.87,1.22,37.78,1.81,56.67,2.62,1.77.08,3.54,0,5.6,0,.65-14.45,1.26-28,1.9-42.15l-68.37-3.25c1.13-15.18,2.18-29.33,3.29-44.33L319.34,152c.61-13.44,1.2-26.38,1.79-39.47a21.93,21.93,0,0,0-3-.64l-126.41-6c-4.06-.21-5.54,1.58-4.83,5s-3.4,9,4,9.54Zm-81.24-5.26c-3.57-6.85-6-13-9.73-18.32C112.32,90.35,103,89.34,96,95.72a44.31,44.31,0,0,0-9.2,12.33c-8.73,16.92-8.22,34.83-4.47,52.85,2.66,12.75,7,24.81,16.76,34.09,7.34,7,15.49,8.37,23.34,4s12.49-11.67,16.84-20.49c-8.07-.75-15.22-1.61-22.39-2-4.09-.22-5.58-1.88-4.93-5.84.27-1.63.07-3.33.34-5,.62-3.8-1-5.23-4.71-5.36-3.46-.12-6.89-.83-10.78-1.34.82-13.09,1.83-25.66,2.26-38.26.16-4.85,2-6,6.41-5.56,6.76.72,13.59.86,21.94,1.26Z" transform="translate(0 0)" style="fill:#474747;stroke:#474747;stroke-miterlimit:10;stroke-width:0.75px"/></g></g></svg>