<svg id="Layer_1" data-name="Layer 1" xmlns="http://www.w3.org/2000/svg" viewBox="0 0 418 357"><title>grapefruit</title><g id="Layer_2" data-name="Layer 2"><g style="opacity:0.12"><path d="M235.7,334.65a9.69,9.69,0,0,0,2.17-1.34,4.57,4.57,0,0,1,.47-.29,3,3,0,0,0-.6.35A10.76,10.76,0,0,1,235.7,334.65Z" transform="translate(0.02 0)" style="fill:#6a374f;stroke:#6a374f;stroke-linecap:round;stroke-linejoin:round;stroke-width:28px"/><path d="M159.4,317.15c-1.23.59-1,1.87-.62,3.06.57,1.72.36,2.53-.23,2.83.69-.25,1-1,.36-2.89C158.53,319,158.3,317.77,159.4,317.15Z" transform="translate(0.02 0)" style="fill:#6a374f;stroke:#6a374f;stroke-linecap:round;stroke-linejoin:round;stroke-width:28px"/><path d="M227.14,333.56a5.44,5.44,0,0,1-2.12,1.71,5.21,5.21,0,0,0,2.25-1.77,3.48,3.48,0,0,1,1.31-1A3.45,3.45,0,0,0,227.14,333.56Z" transform="translate(0.02 0)" style="fill:#6a374f;stroke:#6a374f;stroke-linecap:round;stroke-linejoin:round;stroke-width:28px"/><path d="M72.85,174.19c10.63,41.45,32.44,75.61,66.4,101.81,1.7,1.32,3.93,2.48,4.38,4.59,1.22,5.7,5.06,7.23,10.14,7,2.18-.08,3.78,1.07,5.46,2.06A190.25,190.25,0,0,0,198,307.25c2.07.66,4.19,1.21,4.67,3.83.31,1.7,1.69,2.43,3.09,2.92,2.35.83,4.12,1.76,5.41,4.38a4.58,4.58,0,0,0,5.94,2.09,4.6,4.6,0,0,1-5.81-2.15c-1.29-2.62-3-3.55-5.4-4.38-1.41-.49-2.79-1.22-3.1-2.92-.48-2.62-2.6-3.17-4.67-3.83a190.36,190.36,0,0,1-38.78-17.54c-1.69-1-3.29-2.14-5.47-2.06-5.08.2-8.92-1.33-10.14-7-.45-2.11-2.67-3.27-4.38-4.59-34-26.23-55.77-60.39-66.4-101.84-.42-1.63-.66-3.44-2.85-4.33v.11C72.19,170.82,72.44,172.59,72.85,174.19Z" transform="translate(0.02 0)" style="fill:#6a374f;stroke:#6a374f;stroke-linecap:round;stroke-linejoin:round;stroke-width:28px"/><path d="M32.8,60.2h0l-.29-.15Z" transform="translate(0.02 0)" style="fill:#6a374f;stroke:#6a374f;stroke-linecap:round;stroke-linejoin:round;stroke-width:28px"/><path d="M28.82,65.34c-1.35-1.54-2.42-3.53-1-5.37,1.23-1.55,2.83-.86,4.23-.14-1.4-.72-3-1.42-4.24.14-1.45,1.84-.38,3.82,1,5.37A34.13,34.13,0,0,0,39,73.16,33.8,33.8,0,0,1,28.82,65.34Z" transform="translate(0.02 0)" style="fill:#6a374f;stroke:#6a374f;stroke-linecap:round;stroke-linejoin:round;stroke-width:28px"/><path d="M58,47.09c1.21,1,2.23,2.4,3.94,3.24-1.7-.84-2.72-2.23-3.93-3.24-4.29-3.58-8.61-7.22-11.68-11.93-1.55-2.39-4.63-5.5-1.15-8.15a3.46,3.46,0,0,1,4.16-.23,3.45,3.45,0,0,0-4.17.22c-3.48,2.65-.4,5.77,1.15,8.16C49.43,39.87,53.75,43.51,58,47.09Z" transform="translate(0.02 0)" style="fill:#6a374f;stroke:#6a374f;stroke-linecap:round;stroke-linejoin:round;stroke-width:28px"/><path d="M245.92,333.81a2.08,2.08,0,0,0,.92-.56,11.69,11.69,0,0,1,3.74-2.76,11.37,11.37,0,0,0-3.87,2.82A2.17,2.17,0,0,1,245.92,333.81Z" transform="translate(0.02 0)" style="fill:#6a374f;stroke:#6a374f;stroke-linecap:round;stroke-linejoin:round;stroke-width:28px"/><path d="M392.51,60.4c-4.61.24-11.32,4.56-16.06,9.76,4.74-5.17,11.41-9.46,16-9.7,1.81-.1,3.84-.25,4.84,1.67a3.4,3.4,0,0,1-.75,4.11c1-1.13,1.68-2.48.8-4.17C396.35,60.15,394.33,60.3,392.51,60.4Z" transform="translate(0.02 0)" style="fill:#6a374f;stroke:#6a374f;stroke-linecap:round;stroke-linejoin:round;stroke-width:28px"/><path d="M294.28,313.25q-3.39.67-6.77,1.44c-17.06,3.87-34.44,4.38-51.77,3.82-4.11-.14-8,2.6-12,.49-1.6-.84-2.81-1-4.17-.26,1.31-.67,2.49-.49,4,.32,4,2.11,7.88-.63,12-.49,17.33.56,34.71,0,51.77-3.82,2.25-.51,4.5-1,6.77-1.44.27-.05.6.19,2,.66a81.54,81.54,0,0,1-13,7.42,81.18,81.18,0,0,0,13.18-7.48C294.89,313.44,294.55,313.2,294.28,313.25Z" transform="translate(0.02 0)" style="fill:#6a374f;stroke:#6a374f;stroke-linecap:round;stroke-linejoin:round;stroke-width:28px"/><path d="M317.07,83.23c19.49,16.22,35.65,37.49,47.88,64.61,7.76,17.2,11.91,34.51,11.87,51.69.09,19.43-5.16,38.69-16.63,57.39a107.14,107.14,0,0,1-25.33,28.63c.78-.85,1.53-1.71,2.27-2.59-16.4,13.61-36.43,21.67-58.9,25.21-50.3,7.92-102-8.19-140.54-40.12C176.36,300.4,228.36,316.78,279,308.8c34.51-5.43,63.26-21.52,81.95-52,21.46-35,21.18-71.94,4.77-108.32C353.32,121,336.91,99.53,317.07,83.23Z" transform="translate(0.02 0)" style="fill:#6a374f;stroke:#6a374f;stroke-linecap:round;stroke-linejoin:round;stroke-width:28px"/><path d="M322.76,83.58c-42.76-36.13-91.47-53-147.48-44.42-33.5,5.16-61.81,20.54-81.64,48.71C73,117.16,62.44,150,63.36,186c0,4.63-.4,9.3.07,13.88,1.78,17.58,3,35.36,11.06,51.56,20.07,40.42,50.86,68,94.38,82.21,32.3,10.52,64.14,12,96.49,2.57,28.73-8.4,52.42-25.54,74.61-44.93a125.48,125.48,0,0,0,23.53-27.93c23.32-36.9,24.06-75.23,8.33-114.79C361.45,122.45,344,101.55,322.76,83.58ZM70.13,169.8c2.19.89,2.43,2.7,2.85,4.33,10.63,41.45,32.44,75.61,66.4,101.84,1.71,1.32,3.93,2.48,4.38,4.59,1.22,5.7,5.06,7.23,10.14,7,2.18-.08,3.78,1.07,5.47,2.06a190.36,190.36,0,0,0,38.78,17.54c2.07.66,4.19,1.21,4.67,3.83.31,1.7,1.69,2.43,3.1,2.92,2.35.83,4.11,1.76,5.4,4.38a4.6,4.6,0,0,0,5.81,2.15,4.58,4.58,0,0,1-5.94-2.09c-1.29-2.62-3.06-3.55-5.41-4.38-1.4-.49-2.78-1.22-3.09-2.92-.48-2.62-2.6-3.17-4.67-3.83a190.44,190.44,0,0,1-38.79-17.54c-1.68-1-3.28-2.14-5.46-2.06-5.08.2-8.92-1.33-10.14-7-.45-2.11-2.68-3.27-4.38-4.59-34-26.23-55.77-60.39-66.4-101.84-.41-1.6-.66-3.37-2.75-4.28Zm88.78,150.35c.61,1.85.33,2.64-.36,2.89.59-.3.8-1.11.23-2.83-.39-1.19-.61-2.47.62-3.06-1.1.62-.87,1.85-.49,3Zm68.36,13.35a5.21,5.21,0,0,1-2.25,1.77,5.44,5.44,0,0,0,2.12-1.71,3.4,3.4,0,0,1,1.44-1.1,3.58,3.58,0,0,0-1.31,1Zm10.6-.19a9.69,9.69,0,0,1-2.17,1.34,10.78,10.78,0,0,0,2-1.28,3,3,0,0,1,.6-.35,4,4,0,0,0-.43.29Zm9-.06a2.08,2.08,0,0,1-.92.56,2.17,2.17,0,0,0,.79-.5,11.37,11.37,0,0,1,3.87-2.82,11.67,11.67,0,0,0-3.77,2.76Zm36.26-11.86a81.54,81.54,0,0,0,13-7.42c-1.4-.47-1.73-.71-2-.66-2.27.45-4.52.93-6.77,1.44-17.06,3.86-34.44,4.38-51.77,3.82-4.11-.14-8,2.6-12,.49-1.55-.81-2.73-1-4-.32,1.36-.75,2.57-.58,4.17.26,4,2.11,7.88-.63,12-.49,17.33.56,34.71.05,51.77-3.82q3.38-.76,6.77-1.44c.27-.05.61.19,2,.66a81.79,81.79,0,0,1-13.2,7.48ZM361,256.8c-18.69,30.48-47.44,46.57-81.95,52-50.64,8-102.64-8.4-141.31-40.75,38.59,31.93,90.24,48,140.54,40.12,22.47-3.54,42.5-11.6,58.9-25.21-.74.88-1.49,1.74-2.27,2.59a107.14,107.14,0,0,0,25.33-28.63c11.47-18.7,16.72-38,16.63-57.39,0-17.18-4.11-34.49-11.87-51.69-12.23-27.12-28.39-48.39-47.88-64.61C337,99.53,353.37,121,365.77,148.48,382.13,184.86,382.41,221.81,361,256.8Z" transform="translate(0.02 0)" style="fill:#6a374f;stroke:#6a374f;stroke-linecap:round;stroke-linejoin:round;stroke-width:28px"/><path d="M67.63,87.81c.72-1.18-.22-2.22-.86-3.13C58.9,73.71,49.65,64.15,38,57.1c-2.41-1.45-5-2.6-6.48-2.66-8-.48-11.41,4.7-8.52,10.77A22.74,22.74,0,0,0,29.73,73c10.35,8.3,22.71,11.91,35.19,15.25C65.86,88.51,67,88.79,67.63,87.81ZM32.8,60.2l-.3-.15.29.15Zm-4,5.14c-1.35-1.55-2.42-3.53-1-5.37,1.24-1.56,2.84-.86,4.24-.14-1.4-.72-3-1.41-4.23.14-1.45,1.84-.38,3.83,1,5.37A34,34,0,0,0,39,73.16a34.13,34.13,0,0,1-10.19-7.82Z" transform="translate(0.02 0)" style="fill:#6a374f;stroke:#6a374f;stroke-linecap:round;stroke-linejoin:round;stroke-width:28px"/><path d="M395.34,55c-5.76-.62-10.73,1.5-15.23,4.77-8.72,6.33-14.41,15.34-20.63,23.85-.57.77-1.17,1.8-.43,2.71s1.85.48,2.79.24c2.4-.61,4.79-1.25,7.16-2,9-2.7,18.05-5.4,26.19-10.27,4.34-2.59,8-5.92,8.29-11.33C403.4,58.61,400.18,55.49,395.34,55Zm1.21,11.28a3.4,3.4,0,0,0,.75-4.11c-1-1.92-3-1.77-4.84-1.67-4.6.24-11.27,4.53-16,9.7,4.74-5.2,11.45-9.52,16.06-9.76,1.82-.1,3.84-.25,4.84,1.67.87,1.65.21,3-.81,4.13Z" transform="translate(0.02 0)" style="fill:#6a374f;stroke:#6a374f;stroke-linecap:round;stroke-linejoin:round;stroke-width:28px"/><path d="M72.23,64c1.71,1.37,2.3-.39,1.87-1.89C70.35,49,65.91,36.26,56,26.27a13.73,13.73,0,0,0-7.72-4.17c-4.62-.7-8.37,2.28-8.6,7.27a12.07,12.07,0,0,0,.65,2.84C47,46.75,60.44,54.58,72.23,64Zm-27-37a3.45,3.45,0,0,1,4.17-.22,3.46,3.46,0,0,0-4.16.23c-3.48,2.65-.4,5.76,1.15,8.15,3.07,4.71,7.39,8.35,11.68,11.93,1.21,1,2.23,2.4,3.93,3.24-1.71-.84-2.73-2.24-3.94-3.24-4.29-3.58-8.61-7.22-11.68-11.93-1.57-2.39-4.65-5.51-1.17-8.16Z" transform="translate(0.02 0)" style="fill:#6a374f;stroke:#6a374f;stroke-linecap:round;stroke-linejoin:round;stroke-width:28px"/><path d="M320.57,184.59c-1.79,0-3.59-.08-5.37,0-1.1.07-2.47.15-2.57,1.68-.07,1.23,1.05,1.61,2,1.82a56.15,56.15,0,0,0,15.06,1.62,2.64,2.64,0,0,0,2-1.08c.5-1.18-.7-1.62-1.52-2.1C327.16,184.82,323.78,185.31,320.57,184.59Z" transform="translate(0.02 0)" style="fill:#6a374f;stroke:#6a374f;stroke-miterlimit:10"/><path d="M365.43,147.93C333.83,77.87,276.09,46.8,202.16,41.27c-10.38.47-20.43,1.18-30.34,3.25C134.17,52.37,105,71.86,88.2,107.21c-14.53,30.66-12.94,62.11-.43,92.92,30,74,112.13,120.54,190.94,108.12,34.51-5.43,63.27-21.52,82-52C382.13,221.25,381.85,184.31,365.43,147.93Z" transform="translate(0.02 0)" style="fill:#6a374f;stroke:#6a374f;stroke-miterlimit:10"/><path d="M140.71,221.08c11.59-4.43,24-6.77,34.38-14.33a133.3,133.3,0,0,0-21.23,5.88,30.85,30.85,0,0,0-13,8.57c-6.9,1.7-13.79,3.51-22-.46C125.74,229.15,134,228.76,140.71,221.08Zm88.29-98c-2.28-16.38-3.5-32.82-6.77-49-2-9.86-5.64-13.73-15.86-14s-20.16-.45-30.24-.77a44.4,44.4,0,0,0-12.78,1.42c-5.59,1.48-6.86,4-5.29,9.55,1.51,5.39,5,9.67,8.15,14.06,5.24,7.25,8.48,15.4,11.84,24-2.51-.06-3.44-1.45-4.48-2.68-5.12-6-10.09-12.24-15.4-18.12-6.93-7.65-15.58-10.78-25.55-7.3a41.47,41.47,0,0,0-23,19.45c-2.59,4.61-1.7,8.5,2.83,11,14.45,8,27.36,18.38,42,26,5.15,2.67,10.14,5.46,15.91,6.69,3.23.7,6.39,2,8,6.24-6-1.4-11.39-1.31-16.8-1.57-2.52-.13-5-.65-6.79-2.61s-4.23-3.05-6.69-4.09c-11.75-5-24.08-8.2-36.2-12.06a20.77,20.77,0,0,0-6.82-1c-9.5.29-13.5,7.4-9,15.77,1.17,2.18,2.61,4.29,2.8,6.83.34,4.77,3.27,7.12,7.57,7.83a82.17,82.17,0,0,0,10.85.94,188.06,188.06,0,0,1,53.08,8.94c9.66,3.18,19.49,6.47,29.88,6.76,2.37.06,5.29.54,6.13-2.77.78-3.08-1-5-3.52-6.38a15.68,15.68,0,0,1-7.17-6.79c2.83,1.32,4.59,2.19,6.38,3,5,2.14,6.86.75,6.19-4.61-.56-4.52-2.73-8.45-4.86-12.38q-5.2-9.62-10.44-19.23c5.63,3.55,9.55,8.34,12.8,13.78,3,5,6.12,9.9,11.17,13.08,4.42,2.79,7.49,1.63,9.1-3.34,1.11-3.45,2.43-6.86,2.41-10.6.3,1.6.49,3.18.7,4.77.23,1.8.39,3.62.76,5.39,1,4.93,5.46,7,9.71,4.42s8.29-5,11.4-8.69a440.89,440.89,0,0,1,42.32-43.15c7.94-7.16,7.32-12.68-1.31-19a145.4,145.4,0,0,0-22-13.25c-10-4.88-20.31-8.93-31.57-9.64C230.8,59.49,228,62.12,228,69.69c0,4.45.3,8.92.68,13.36a228.08,228.08,0,0,1,.3,40.06Zm121.84,26.2c.27-5.06-.18-10.15-3.15-14.28-6.43-9-13-17.91-20.07-26.36-5.27-6.27-12.4-7.77-20.27-4.87a67.13,67.13,0,0,0-13.11,6.94c-16.67,10.74-29.92,25.36-44,39.07A14,14,0,0,0,248,153c-2.72,5-1.42,9.37,3.57,12a15.58,15.58,0,0,0,7.14,2c15.38.18,30.7-.26,45.88-3.14,9.55-1.81,19.12-4,29-2.28a54.87,54.87,0,0,0,7.88.85c5.5.14,8.27-2.26,9.09-7.71.24-1.72.19-3.6.29-5.41ZM210.78,247.94c.26,8.81-.42,15.57.58,22.33.85,5.74,3.74,9.26,9.37,10.78,3.18.85,6.74,1.49,9.24,3.39,11.87,9,23,7.83,35.08-.11,8.25-5.43,9.51-6.8,5.48-16.07-8.54-19.63-17.34-39.16-25.21-59.09-2.4-6.06-4.65-12.43-9.35-17.31-3.59-3.73-6.59-3.78-10.21-.12s-6.79,7.55-8.61,12.54C211.75,219.09,209.53,234.29,210.78,247.94Zm-87.9-77.52c-4.16-.21-7.47-.36-10.77-.55-11.23-.63-17.78,8.69-12.53,18.61,4.08,7.7,8.35,15.41,13.9,22.24,9.43,11.61,15.34,12.66,28,4.76a64.08,64.08,0,0,1,19-8.22c16.32-3.87,31-11.13,44.67-20.75,2-1.41,3.91-3,2.93-5.63s-3.34-1.56-5.21-1.4a110.65,110.65,0,0,1-37.36-3.13c-14.19-3.72-28.57-6.91-42.63-5.93Zm92.89,23.86a3.43,3.43,0,0,0-1.21-3.27,3.28,3.28,0,0,0-4.14,0,23,23,0,0,0-4.28,3.34c-7.28,8-16.55,12.93-26.15,17.51a122.72,122.72,0,0,0-29.29,19.27c-10.39,9.3-9.3,16.18,3.52,21.57,6.52,2.73,12.37,6.17,17,11.54a17.6,17.6,0,0,0,12.09,6.07,36.55,36.55,0,0,1,11.06,2.53c3.83,1.62,5.55.09,6.06-3.71.49-3.6,1.1-7.18,1.74-10.75,2.71-15.25,3.47-30.85,8-45.78,1.92-6,3.7-12,5.6-18.32Zm108.65,63.81c6-.13,10.16-4.32,10.66-10.91.55-7.45,3-13.79,8.83-18.68a10.67,10.67,0,0,0,2.31-2.57c1.73-2.89,1.84-5.22-2.14-6.39-3.32-1-6.56-2.22-9.77-3.5-24.23-9.6-48.43-19.28-72.68-28.84-2.83-1.11-6.52-2.87-8.66.3s1.62,5,3.39,6.82c13.93,14.29,28.6,27.88,41.07,43.57,4.31,5.41,8.73,10.8,14.44,14.89a28.77,28.77,0,0,0,12.55,5.31ZM287,276.94c5.07-.06,8.92-2,12.75-3.94,12.08-6.21,12.62-9,4-19.48C288.57,235,272,217.74,255.84,200.07a75.59,75.59,0,0,0-6.94-6.33c-1-.85-2.23-1.52-3.62-.65a3,3,0,0,0-1.15,3.51,86.7,86.7,0,0,0,2.86,8.93c8.38,21.67,17.35,43.08,28.45,63.56A14.14,14.14,0,0,0,287,276.94Zm14.24-85.88c.18.7.17,1.19.35,1.27,11.64,5.44,22.85,12,35.64,14.53,13.57,2.68,13.59,2.55,16.17-11.35,1.79-9.64-5.32-21.21-15-22.95-7.43-1.33-15.19-2.28-22.65-1.64-15.49,1.33-30.94,2.58-46.49,2.28a23.08,23.08,0,0,0-10.56,2.27c-1.73.82-4.31,1-4.43,3.39s2.29,3.45,4.24,4.28c6.9,3,14.34,3.83,21.6,5.35,3.68.77,3.51-1.07,1.79-3.56-.87-1.26-1.27-3,.3-4,1.41-.91,2.29.38,3.22,1.4,3.32,3.65,11.21,5,16.25,2.76-1.22-2.93-5.45-1.2-6.63-4.15a2.84,2.84,0,0,1,3.24-.85c8.45,3.68,17.62,1.18,26.23,3.24a87.9,87.9,0,0,1,9,2.71c1.54.55,3.19,1.4,3,3.47-.19,1.79-1.8,2.23-3.21,2.67a23.77,23.77,0,0,1-17.88-1.39c-5.25-2.54-9.42-.51-14.19.27ZM156.57,168.28c-5.46-3.26-11.59-3.53-17.49-4.81-13.34-2.9-27.31-.08-40.71-4.76.07,2.77,1.82,3.92,3.79,4.73a24.55,24.55,0,0,0,8.67,1.83C126.11,165.71,141.48,164.74,156.57,168.28Zm180.09-2.19c3.22,2,6.4,4.06,10.21,2.85,1.1-.35,2.21-1.08,2.12-2.42-.13-1.77-1.51-1.28-2.62-1.19ZM105.48,110.24c.1,5.06,4.69,8,11.45,7.4Zm235,101.46c3,2,5,3.06,7.36,2.77,1.18-.14,2.4-.81,2.31-2.15s-1.42-1.06-2.36-1c-2,.05-4,.19-7.36.38ZM136.64,130.39c2.46,2.89,5.5,4.61,10.58,5A16.63,16.63,0,0,0,136.64,130.39Z" transform="translate(0.02 0)" style="fill:#6a374f"/><path d="M112.88,167.11H113c-3-.43-5.93-.88-8.9-1.34a4.7,4.7,0,0,1-1.73-.64,6.44,6.44,0,0,1,1.91,5.17A32.08,32.08,0,0,1,112.88,167.11Z" transform="translate(0.02 0)" style="fill:#6a374f"/><path d="M296.15,313.26c-1.4-.47-1.73-.71-2-.66-2.27.45-4.52.93-6.77,1.44-17.06,3.87-34.44,4.39-51.77,3.82-4.11-.13-8,2.61-12,.5-2.13-1.13-3.57-1.06-5.6.79-2.3,2.09-5.72.77-6.83-1.48-1.29-2.61-3.06-3.55-5.41-4.37-1.4-.5-2.78-1.23-3.09-2.93-.48-2.61-2.6-3.16-4.67-3.83A189.28,189.28,0,0,1,159.23,289c-1.68-1-3.28-2.14-5.46-2.05-5.08.19-8.92-1.33-10.14-7-.45-2.1-2.68-3.27-4.38-4.58-34-26.24-55.77-60.4-66.4-101.84-.42-1.64-.66-3.45-2.85-4.33a13.75,13.75,0,0,0-.6,2.2A157.5,157.5,0,0,0,76,233.09c5.78,18.5,15.89,34.81,27.22,50.36,11.69,16,27.75,26.71,45,35.82a43.62,43.62,0,0,0,7.43,2.76c2.14.68,4.31,1.08,3.12-2.52-.44-1.34-.68-2.77,1.08-3.25,1.6-.43,2.07.87,2.87,2,2.49,3.54,4.29,8.05,8.89,9.35,16,4.51,32.13,7.81,48.85,7.57,2.52,0,4.9,0,6.67-2.34,1-1.28,2.89-1.9,3.91-.55,2.28,3,4.3,2.16,6.69.36,1.31-1,2.82-.74,4.23,0,1.61.84,3.79,1,4.74-.07,3.83-4.17,8.43-4.11,13.55-3.94,3.14.1,6.39-1.53,9.5-2.65C278.71,322.77,287.58,319.3,296.15,313.26Z" transform="translate(0.02 0)" style="fill:#6a374f"/><path d="M54.5,77.94c-6.09-7.7-13.07-14.07-21.7-18.44-1.55-.79-3.5-2.06-4.95-.23s-.38,3.82,1,5.36C35.62,72.39,44.91,75.44,54.5,77.94Z" transform="translate(0.02 0)" style="fill:#6a374f"/><path d="M371.16,77.92c8.62-3.52,17.41-5.31,24.31-11.33,1.49-1.3,3-3,1.83-5.16-1-1.93-3-1.77-4.84-1.68C385.44,60.12,373.56,69.93,371.16,77.92Z" transform="translate(0.02 0)" style="fill:#6a374f"/><path d="M64.81,50.35C61.48,42.1,58.06,35,52.71,29.13c-1.89-2.08-4.48-5.12-7.49-2.83-3.48,2.65-.4,5.77,1.15,8.16,3.07,4.71,7.39,8.35,11.68,11.92C59.81,47.85,61.17,50.13,64.81,50.35Z" transform="translate(0.02 0)" style="fill:#6a374f"/><path d="M63.36,185.31c-.92-36.07,9.66-68.85,30.28-98.14C113.47,59,141.78,43.62,175.28,38.45c56-8.63,104.72,8.29,147.48,44.42,21.27,18,38.69,38.88,49.07,65,15.73,39.56,15,77.9-8.33,114.8A125.8,125.8,0,0,1,340,290.6c-22.19,19.39-45.88,36.52-74.61,44.93C233,345,201.17,343.47,168.87,333c-43.52-14.18-74.31-41.78-94.38-82.21-8-16.2-9.28-34-11.06-51.56C63,194.6,63.36,189.93,63.36,185.31ZM202.44,41.11c-10.37.48-20.42,1.19-30.34,3.25-37.65,7.86-66.87,27.35-83.61,62.69-14.49,30.67-12.95,62.12-.44,93,30,74,112.13,120.54,191,108.13,34.51-5.44,63.26-21.53,81.95-52,21.46-35,21.18-71.93,4.77-108.32C334.11,77.72,276.38,46.65,202.44,41.11Zm93.84,272.1c-1.39-.48-1.73-.72-2-.67q-3.39.68-6.77,1.44c-17.06,3.87-34.44,4.39-51.77,3.82-4.11-.13-8,2.61-12,.5-2.13-1.13-3.57-1.06-5.6.79-2.3,2.09-5.72.77-6.83-1.48-1.29-2.61-3-3.55-5.4-4.37-1.41-.5-2.79-1.23-3.1-2.92-.48-2.62-2.6-3.17-4.67-3.84a189.28,189.28,0,0,1-38.78-17.54c-1.69-1-3.29-2.14-5.47-2.05-5.08.19-8.92-1.33-10.14-7-.45-2.1-2.67-3.27-4.38-4.58C105.42,249,83.61,214.88,73,173.43c-.42-1.63-.66-3.45-2.85-4.33a13.75,13.75,0,0,0-.6,2.2A157.76,157.76,0,0,0,76.16,233c5.78,18.5,15.89,34.81,27.22,50.36,11.7,16,27.75,26.71,45,35.82a44.86,44.86,0,0,0,7.43,2.77c2.14.67,4.31,1.07,3.12-2.53-.44-1.33-.68-2.77,1.08-3.25,1.6-.43,2.07.87,2.87,2,2.49,3.54,4.29,8,8.89,9.35,16,4.51,32.14,7.81,48.85,7.57,2.52,0,4.9,0,6.67-2.34,1-1.28,2.9-1.9,3.91-.55,2.28,3,4.3,2.16,6.69.36,1.31-1,2.82-.74,4.23,0,1.61.84,3.79,1,4.74-.07,3.83-4.17,8.43-4.11,13.55-3.94,3.14.1,6.39-1.53,9.5-2.65,8.94-3.19,17.8-6.66,26.37-12.69Z" transform="translate(0.02 0)" style="fill:#6a374f"/><path d="M31.54,53.74c1.49.06,4.07,1.2,6.48,2.66C49.65,63.44,58.9,73,66.77,84c.64.91,1.58,2,.86,3.13s-1.77.7-2.71.45c-12.48-3.35-24.84-7-35.19-15.22A22.76,22.76,0,0,1,23,64.5C20.13,58.44,23.52,53.25,31.54,53.74Zm23,24.2c-6.09-7.7-13.07-14.08-21.7-18.45-1.55-.78-3.5-2.06-5-.23s-.38,3.83,1,5.37c6.72,7.76,16,10.8,25.6,13.31Z" transform="translate(0.02 0)" style="fill:#6a374f"/><path d="M403.48,62.26c-.29,5.41-4,8.74-8.29,11.34C387.05,78.46,378,81.17,369,83.87c-2.37.71-4.76,1.34-7.16,2-.94.24-2.06.63-2.79-.25s-.14-1.93.43-2.71c6.22-8.51,11.91-17.51,20.63-23.84,4.5-3.27,9.47-5.4,15.23-4.77C400.18,54.78,403.4,57.91,403.48,62.26Zm-32.26,15.6c8.62-3.52,17.41-5.31,24.31-11.33,1.49-1.3,3-3,1.82-5.16-1-1.93-3-1.77-4.84-1.68C385.49,60.06,373.62,69.87,371.22,77.86Z" transform="translate(0.02 0)" style="fill:#6a374f"/><path d="M39.69,28.67c.23-5,4-8,8.6-7.27A13.6,13.6,0,0,1,56,25.56c9.9,10,14.34,22.75,18.09,35.84.43,1.5-.16,3.26-1.87,1.9C60.44,53.88,47,46,40.34,31.5A11.87,11.87,0,0,1,39.69,28.67ZM64.8,50.35C61.47,42.09,58.05,35,52.7,29.13,50.81,27,48.22,24,45.21,26.3c-3.48,2.65-.4,5.76,1.15,8.15C49.43,39.16,53.75,42.8,58,46.38,59.8,47.85,61.16,50.12,64.8,50.35Z" transform="translate(0.02 0)" style="fill:#6a374f"/><path d="M225.32,289.09l7.22,6.69c-3.37,1.19-5.59-.58-7.88-1.27-8.4-2.5-16.12-6.07-20.78-14.11a2.53,2.53,0,0,0-2.36-1.56c-7.53,1.14-14-3.59-21.26-3.88-5.38-.2-9.57-3.47-13.09-7.36A35.77,35.77,0,0,0,153,257.92a38.9,38.9,0,0,1-7.48-3.85c-8-5.29-9.51-13-4-20.89,1.92-2.74,4.25-5.21,6.68-8.16-3.27-.21-4.77,1.8-6.58,3-9.06,6.24-18.53,5.56-26.59-2a36.53,36.53,0,0,1-8-11.74A164.16,164.16,0,0,0,96,193.2c-4.45-6.95-5.12-16.77,2.1-22.5,2.24-1.78,1.55-3.29-.46-4.69-3.73-2.6-5.2-6.31-5.06-10.71.15-4.87-1-9.52-2.18-14.16-1.87-7.16.1-12.26,6.72-15.71,3.08-1.6,4-3.26,3-6.61-2.76-9.14.88-16.77,6.11-24,9-12.41,19.85-21.72,36.39-21.24a3.11,3.11,0,0,0,3.27-1.7c6.52-13.35,18.16-17.26,31.88-17.29,9.59,0,19.18-.11,28.77.07,6.27.12,12.27,1.15,15.66,7.5,1.17,2.19,2.5,1.3,3.28-.21,3.44-6.63,9.43-7.23,15.76-6.58,21.28,2.2,39.23,12.2,56.09,24.53,5.21,3.81,7.47,9.18,6.09,15.7-.8,3.77.23,4.27,3.77,2.94,9.19-3.45,17.69-1.36,23.95,5.85,7.66,8.83,14.5,18.39,21.41,27.85,2.79,3.81,3.5,8.59,3.56,13.24.08,6-.23,11.9-.46,17.84-.12,3.21-.89,6.25-3.33,8.57-1.94,1.84-1.58,3.4.4,4.88,7,5.2,7.56,12.4,6.08,20.1-.81,4.23-.46,8.89-1.92,12.65-2.91,7.48-2.86,16.3-9,22.36a23.79,23.79,0,0,0-7.27,15.2c-1.18,11.08-9.28,18.5-20.91,19.65a9.56,9.56,0,0,0-7.39,4c-3.12,4-8,5.71-12.25,8.24-1.07.64-4.68,1.17-1,3.77,1.49,1-.77,1.67-1.63,2-5.07,2.13-10.47,2.67-15.46.54-4.37-1.87-7.51-1.3-11.21,1.43s-8,4.64-12.07,6.83c-7.93,4.27-15.79,4-23.67-.29C232.27,291.78,229.7,289.62,225.32,289.09ZM140.75,221c11.59-4.43,24-6.77,34.38-14.33a133.3,133.3,0,0,0-21.23,5.88,30.76,30.76,0,0,0-13,8.57c-6.89,1.7-13.78,3.51-21.94-.46C125.78,229.07,134,228.68,140.75,221ZM229,123c-2.29-16.38-3.5-32.82-6.78-49-2-9.86-5.63-13.73-15.85-14s-20.16-.45-30.25-.77a44.33,44.33,0,0,0-12.77,1.42c-5.59,1.48-6.86,4-5.29,9.55,1.51,5.39,5,9.67,8.14,14.06,5.25,7.25,8.48,15.4,11.85,24-2.51-.06-3.44-1.45-4.48-2.68-5.12-6-10.09-12.24-15.41-18.12-6.92-7.65-15.57-10.78-25.54-7.3a41.51,41.51,0,0,0-23,19.45c-2.59,4.61-1.7,8.5,2.84,11,14.45,8,27.36,18.38,42,26,5.15,2.67,10.14,5.46,15.91,6.69,3.23.7,6.39,2.06,8,6.24-5.94-1.39-11.38-1.3-16.8-1.57-2.51-.13-5-.65-6.78-2.61s-4.23-3-6.69-4.09c-11.75-5-24.08-8.2-36.2-12.06a20.77,20.77,0,0,0-6.82-1c-9.5.29-13.5,7.4-9,15.77,1.16,2.18,2.61,4.29,2.8,6.83.34,4.77,3.27,7.12,7.57,7.83a84,84,0,0,0,10.85,1,187.63,187.63,0,0,1,53.07,8.93c9.67,3.18,19.5,6.47,29.89,6.76,2.37.06,5.29.54,6.13-2.77.77-3.08-1-4.95-3.52-6.38s-5.17-3-7.17-6.79c2.83,1.32,4.58,2.19,6.38,3,5,2.14,6.85.76,6.19-4.61-.57-4.52-2.73-8.45-4.86-12.38q-5.21-9.61-10.44-19.23c5.63,3.55,9.55,8.34,12.8,13.78,3,5,6.12,9.9,11.17,13.08,4.42,2.79,7.49,1.63,9.09-3.34,1.12-3.45,2.44-6.86,2.42-10.6.3,1.6.48,3.18.69,4.77.24,1.8.4,3.62.77,5.4,1.05,4.92,5.46,7,9.7,4.41s8.29-5,11.41-8.69a442.36,442.36,0,0,1,42.44-43.28c7.94-7.16,7.32-12.68-1.31-19A144.66,144.66,0,0,0,270,69.53c-10-4.88-20.31-8.93-31.57-9.64C230.8,59.41,228,62,228,69.61c0,4.45.29,8.92.68,13.36A228.71,228.71,0,0,1,229,123Zm121.83,26.2c.27-5.06-.18-10.15-3.14-14.28-6.43-9-13-17.91-20.07-26.36-5.27-6.27-12.4-7.77-20.27-4.87a67.13,67.13,0,0,0-13.11,6.94c-16.67,10.74-29.92,25.37-44,39.07A14,14,0,0,0,248,153c-2.72,5-1.42,9.37,3.57,12a15.56,15.56,0,0,0,7.11,2c15.38.18,30.69-.26,45.88-3.14,9.55-1.81,19.12-4,29-2.28a54.87,54.87,0,0,0,7.88.85c5.49.14,8.27-2.26,9.08-7.71a41.46,41.46,0,0,0,.36-5.39Zm-140,98.63c.25,8.81-.42,15.57.58,22.33.85,5.74,3.74,9.27,9.37,10.78,3.17.85,6.74,1.49,9.24,3.39,11.87,9,23,7.83,35.08-.1,8.25-5.44,9.51-6.81,5.48-16.08-8.58-19.6-17.35-39.15-25.22-59.06-2.4-6.06-4.65-12.43-9.35-17.31-3.6-3.73-6.59-3.78-10.21-.11s-6.79,7.54-8.61,12.53c-5.4,14.8-7.62,30-6.37,43.66Zm-87.91-77.52c-4.15-.21-7.46-.36-10.76-.55-11.23-.63-17.79,8.69-12.54,18.61,4.09,7.7,8.36,15.41,13.9,22.24,9.44,11.61,15.35,12.66,28.05,4.76a64.08,64.08,0,0,1,19-8.22c16.32-3.87,31-11.13,44.67-20.75,2-1.41,3.9-3,2.93-5.63s-3.34-1.56-5.21-1.4a110.65,110.65,0,0,1-37.36-3.13c-14.24-3.69-28.6-6.88-42.69-5.9Zm92.9,23.86a3.43,3.43,0,0,0-1.21-3.27,3.27,3.27,0,0,0-4.14-.05,22.71,22.71,0,0,0-4.28,3.34c-7.28,8-16.55,12.93-26.15,17.51a122.9,122.9,0,0,0-29.3,19.3c-10.39,9.3-9.3,16.18,3.52,21.57,6.52,2.73,12.37,6.17,17,11.54a17.6,17.6,0,0,0,12.09,6.07,36.55,36.55,0,0,1,11.06,2.53c3.83,1.62,5.54.1,6.06-3.71.49-3.59,1.1-7.18,1.74-10.75,2.71-15.25,3.47-30.85,8-45.78,1.92-6,3.7-12,5.6-18.27ZM324.46,258c6-.13,10.16-4.32,10.65-10.91.56-7.45,3-13.79,8.84-18.68a10.67,10.67,0,0,0,2.31-2.57c1.73-2.89,1.84-5.22-2.14-6.39-3.32-1-6.56-2.22-9.77-3.5-24.23-9.6-48.43-19.28-72.68-28.84-2.84-1.11-6.52-2.87-8.66.3s1.62,5,3.39,6.82c13.93,14.29,28.59,27.89,41.07,43.57,4.31,5.41,8.73,10.8,14.44,14.89A28.49,28.49,0,0,0,324.46,258ZM287,276.86c5.07-.05,8.92-2,12.75-3.94,12.07-6.21,12.61-9,4-19.48C288.61,234.92,272,217.66,255.88,200a74.42,74.42,0,0,0-6.95-6.33c-1-.85-2.22-1.52-3.61-.65a2.93,2.93,0,0,0-1.15,3.52,89.8,89.8,0,0,0,2.85,8.92c8.39,21.68,17.36,43.08,28.46,63.56A14.16,14.16,0,0,0,287,276.86ZM301.27,191c.18.7.17,1.19.35,1.27,11.64,5.44,22.85,12,35.64,14.53,13.56,2.68,13.59,2.55,16.17-11.35,1.78-9.64-5.32-21.21-15-23-7.43-1.33-15.19-2.28-22.65-1.64-15.49,1.33-30.94,2.58-46.49,2.28a23.34,23.34,0,0,0-10.56,2.27c-1.73.82-4.31,1-4.43,3.39s2.29,3.45,4.24,4.28c6.9,2.95,14.34,3.83,21.59,5.35,3.69.78,3.52-1.07,1.8-3.56-.87-1.26-1.27-3,.29-4s2.3.37,3.23,1.4c3.32,3.64,11.21,4.95,16.25,2.75-1.22-2.93-5.45-1.2-6.63-4.15a2.84,2.84,0,0,1,3.24-.85c8.45,3.68,17.62,1.18,26.23,3.24a87.9,87.9,0,0,1,9,2.71c1.54.55,3.19,1.4,3,3.47-.19,1.79-1.8,2.23-3.21,2.67a23.77,23.77,0,0,1-17.88-1.39C310.21,188.17,306,190.2,301.27,191Zm-80.38-3c-2-3.8,0-4,3.1-3.77,6.74.58,13.74,1.66,18.21-5.49.15-.25.55-.57.77-.53,3.28.71,1.88-1.24,1.25-2.39A8.88,8.88,0,0,0,242,173.2c-6.25-5-21.51-5.06-27.86-.31-1.84,1.38-2.3,2.8-1.8,5.1,1,4.83,3.13,8.51,8.55,10Zm-64.28-19.8c-5.46-3.26-11.6-3.53-17.49-4.81-13.34-2.9-27.31-.08-40.71-4.76.06,2.77,1.81,3.92,3.79,4.73a24.55,24.55,0,0,0,8.67,1.83C126.15,165.63,141.51,164.66,156.61,168.2ZM320.5,184.57c-1.79,0-3.59-.08-5.37,0-1.1.07-2.47.15-2.57,1.68-.07,1.23,1.05,1.6,2,1.82a55.74,55.74,0,0,0,15.06,1.61,2.62,2.62,0,0,0,2-1.07c.5-1.18-.7-1.62-1.52-2.1C327.09,184.8,323.71,185.29,320.5,184.57ZM336.69,166c3.23,2,6.4,4.06,10.22,2.85,1.1-.35,2.21-1.08,2.11-2.42-.12-1.77-1.5-1.28-2.62-1.19ZM105.52,110.16c.1,5.06,4.69,8,11.45,7.4Zm235,101.46c3,2,5,3.06,7.36,2.77,1.18-.14,2.4-.81,2.31-2.15s-1.42-1.06-2.36-1c-2,0-4,.19-7.36.38ZM136.68,130.31c2.46,2.89,5.5,4.61,10.58,5A16.63,16.63,0,0,0,136.68,130.31Z" transform="translate(0.02 0)" style="fill:#6a374f"/><path d="M209.66,324.65c.1.71-.6,1.88-2.24,1.39-3.43-1-2.74-4.76-4-7.17-.53-1,1.09-1.9,2.34-1.67C209.43,317.89,209.07,321.07,209.66,324.65Z" transform="translate(0.02 0)" style="fill:#6a374f"/><path d="M214.5,128.74c-.8-3-1.63-6-2.39-9-.36-1.41-.16-3.37-1.84-3.74-2-.45-.88,2.67-3.33,3a48.09,48.09,0,0,1-2.88-12,38.45,38.45,0,0,0-2.79-12c-.37-.87-1.32-1.81-.35-2.67,1.19-1,2.08.09,2.94.81,1.09.89,2,3,3.51,2s.47-3-.07-4.54c-1.72-4.87-2.11-10.51-7.76-13.08-.88-.4-.94-1.29-.35-2.09a2.45,2.45,0,0,1,2.64-1,7.42,7.42,0,0,1,5.66,6.28c1,5.93,3.29,11.73,1.2,18-1.23,3.73-.13,7.39,3.07,10.33,6,5.52,5,12.54,4.4,19.41Z" transform="translate(0.02 0)" style="fill:#6a374f"/><path d="M247.15,133.62c8.06-13.29,13.26-28,23.86-39.75,1.2,1.21.51,3.26-.11,5.23-1.32,4.14-3.82,7.63-6.19,11.21-1.32,2-4,3.89-1.22,6.79.33.34,0,1.67-.4,2.28C259,125.44,253.05,129.4,247.15,133.62Z" transform="translate(0.02 0)" style="fill:#6a374f"/><path d="M178.62,137.54c-5.25-1.44-7.74-4.52-10.53-7.18q-3.56-3.39-7.15-6.76c-.79-.75-2.28-1.3-1.52-2.67s2.29-1,3.51-.46C170.27,123.62,174.74,129.43,178.62,137.54Z" transform="translate(0.02 0)" style="fill:#6a374f"/><path d="M169.33,119.09c-4.36-4.33-8.69-8.69-13.08-13-2.69-2.62-5.48-4.77-8.18.45-1.77-2.52-.94-4.21.47-5.7a4.25,4.25,0,0,1,5.48-.64C161.26,104.64,166.66,110.73,169.33,119.09Z" transform="translate(0.02 0)" style="fill:#6a374f"/><path d="M261.92,96.68c1.41-5.74,3.52-10.28-.36-15.1,3.79-.15,5.25,1.52,5.9,3.82C268.77,90.07,266.09,93.1,261.92,96.68Z" transform="translate(0.02 0)" style="fill:#6a374f"/><path d="M321.29,143.09c-.35-2.26-2.62-1.15-3.09-2.94,4.1-2.71,9.62-1.22,14-4-5.29,2.93-6.13,10.41-12.92,11.62-2.79.49-6.32-.13-5,4.94.48,1.79-1.87,3-3.61,3.55a42,42,0,0,1-23,.56c-1.86-.44-4-1.47-3.83-3.94.11-2.09,1.9-2.88,3.64-3.6,3.92-1.62,8-1.79,12.18-1.91,1.54-.05,3.12.37,3.14-2.45,0-3.11,3-2.31,5-2.35C312.26,142.44,316.59,144.38,321.29,143.09Zm-15,9.43c-5.32-1-10.68-2.78-15.86.39,5.37,2.4,10.66,2,15.91-.39Z" transform="translate(0.02 0)" style="fill:#6a374f"/><path d="M276.35,139c2.47-5.6,5.7-8.55,9.86-10.61.89-.44,2-.76,2.67.19.56.79-.14,1.57-.7,2.13C285.11,133.83,282.11,137.06,276.35,139Z" transform="translate(0.02 0)" style="fill:#6a374f"/><path d="M238.62,252.18c-1.06-2-2.06-3.05-2.2-4.25-.46-3.78-1.35-6.76-6.16-6.31-.75.07-1.74-.87-2.41-1.54-4.65-4.64-4.95-17.07-.26-22.66,1.29,4.44,0,8.64.28,12.76.19,2.86.4,5.6,2.37,7.86.86,1,1.85,2.08,3.34,1.41,1.22-.54,1.23-1.81,1.31-3,.14-2.06-1.16-4.16.1-6.24C238.7,233.36,240.44,243.07,238.62,252.18Z" transform="translate(0.02 0)" style="fill:#6a374f"/><path d="M246.78,267.72c.77.6,1.16.86,1.5,1.18,1.08,1,1.54,3.44,3.69,2.32,2-1,1.52-3.09,1.13-4.89-.93-4.17-1.95-8.33-2.84-12.52-.25-1.21-.94-2.94.55-3.52s2.2,1.15,2.61,2.29c1.8,4.95,3.63,9.94,3.7,15.28a8.08,8.08,0,0,1-11.46,7.4c-1.23-.57-1-1.37-.63-2.41C245.64,271.36,246.08,269.79,246.78,267.72Z" transform="translate(0.02 0)" style="fill:#6a374f"/><path d="M236,205.75c3,1.7,4.42,3.45,4.27,5.92-.05.93-1.3.71-2.05.41C235.38,211,235.92,208.66,236,205.75Z" transform="translate(0.02 0)" style="fill:#6a374f"/><path d="M131,206.82c4.28-3.95,8.42-3.84,12.46-3.5,3.39.28,5.85-.43,8.07-3.34,2.79-3.67,7-5.4,11.6-5.73,1-.06,2.21-.19,2.51,1s-1,1.56-1.85,1.79c-4,1-7.27,2.73-9.15,6.75-.8,1.72-3,1.91-4.81,2C143.94,206.18,138.06,206.44,131,206.82Z" transform="translate(0.02 0)" style="fill:#6a374f"/><path d="M145.79,184c6.54.48,11.91.86,17.27,1.31a2,2,0,0,1,1.51,1c.33,1-.65,1.32-1.35,1.69C159.33,190,150.33,188.38,145.79,184Z" transform="translate(0.02 0)" style="fill:#6a374f"/><path d="M187.81,235q-5.37,7.23-10.75,14.45c-.5.66-1.31,1.38-2,.72a2.65,2.65,0,0,1-.44-2.28c2.07-6.33,5.84-11.2,11.85-14Z" transform="translate(0.02 0)" style="fill:#6a374f"/><path d="M180.44,224.41c.31,6.09-3.08,10.63-6.83,15a1.57,1.57,0,0,1-2.16.49h0a1.66,1.66,0,0,1-.24-2.25c2.55-4.67,5.15-9.31,7.73-14Z" transform="translate(0.02 0)" style="fill:#6a374f"/><path d="M306.37,234.61c5.24,1.28,9.84,3.55,14.73.95,1-.52,1.53-.15,1.72.87.45,2.46-3.69,6-6.2,5.26C309.06,239.57,309.06,239.57,306.37,234.61Z" transform="translate(0.02 0)" style="fill:#6a374f"/><path d="M302.84,214.39c-5.54,3.38-9.53,2.1-13.38-4.3C294.33,212.67,298.87,211.47,302.84,214.39Z" transform="translate(0.02 0)" style="fill:#6a374f"/><path d="M320.57,184.59c-1.79,0-3.59-.08-5.37,0-1.1.07-2.47.15-2.57,1.68-.07,1.23,1.05,1.61,2,1.82a56.15,56.15,0,0,0,15.06,1.62,2.64,2.64,0,0,0,2-1.08c.5-1.18-.7-1.62-1.52-2.1C327.16,184.82,323.78,185.31,320.57,184.59Z" transform="translate(0.02 0)" style="fill:#6a374f"/></g><g id="Layer_1-2" data-name="Layer 1-2"><path d="M227.7,326.65a9.69,9.69,0,0,0,2.17-1.34,4.57,4.57,0,0,1,.47-.29,3,3,0,0,0-.6.35A10.76,10.76,0,0,1,227.7,326.65Z" transform="translate(0.02 0)" style="fill:#fff;stroke:#fff;stroke-linecap:round;stroke-linejoin:round;stroke-width:28px"/><path d="M151.4,309.15c-1.23.59-1,1.87-.62,3.06.57,1.72.36,2.53-.23,2.83.69-.25,1-1,.36-2.89C150.53,311,150.3,309.77,151.4,309.15Z" transform="translate(0.02 0)" style="fill:#fff;stroke:#fff;stroke-linecap:round;stroke-linejoin:round;stroke-width:28px"/><path d="M219.14,325.56a5.44,5.44,0,0,1-2.12,1.71,5.21,5.21,0,0,0,2.25-1.77,3.48,3.48,0,0,1,1.31-1A3.45,3.45,0,0,0,219.14,325.56Z" transform="translate(0.02 0)" style="fill:#fff;stroke:#fff;stroke-linecap:round;stroke-linejoin:round;stroke-width:28px"/><path d="M64.85,166.19C75.48,207.64,97.29,241.8,131.25,268c1.7,1.32,3.93,2.48,4.38,4.59,1.22,5.7,5.06,7.23,10.14,7,2.18-.08,3.78,1.07,5.46,2.06A190.25,190.25,0,0,0,190,299.25c2.07.66,4.19,1.21,4.67,3.83.31,1.7,1.69,2.43,3.09,2.92,2.35.83,4.12,1.76,5.41,4.38a4.58,4.58,0,0,0,5.94,2.09,4.6,4.6,0,0,1-5.81-2.15c-1.29-2.62-3-3.55-5.4-4.38-1.41-.49-2.79-1.22-3.1-2.92-.48-2.62-2.6-3.17-4.67-3.83a190.36,190.36,0,0,1-38.78-17.54c-1.69-1-3.29-2.14-5.47-2.06-5.08.2-8.92-1.33-10.14-7-.45-2.11-2.67-3.27-4.38-4.59-34-26.23-55.77-60.39-66.4-101.84-.42-1.63-.66-3.44-2.85-4.33v.11C64.19,162.82,64.44,164.59,64.85,166.19Z" transform="translate(0.02 0)" style="fill:#fff;stroke:#fff;stroke-linecap:round;stroke-linejoin:round;stroke-width:28px"/><path d="M24.8,52.2h0l-.29-.15Z" transform="translate(0.02 0)" style="fill:#fff;stroke:#fff;stroke-linecap:round;stroke-linejoin:round;stroke-width:28px"/><path d="M20.82,57.34c-1.35-1.54-2.42-3.53-1-5.37,1.23-1.55,2.83-.86,4.23-.14-1.4-.72-3-1.42-4.24.14-1.45,1.84-.38,3.82,1,5.37A34.13,34.13,0,0,0,31,65.16,33.8,33.8,0,0,1,20.82,57.34Z" transform="translate(0.02 0)" style="fill:#fff;stroke:#fff;stroke-linecap:round;stroke-linejoin:round;stroke-width:28px"/><path d="M50,39.09c1.21,1,2.23,2.4,3.94,3.24-1.7-.84-2.72-2.23-3.93-3.24-4.29-3.58-8.61-7.22-11.68-11.93-1.55-2.39-4.63-5.5-1.15-8.15a3.46,3.46,0,0,1,4.16-.23,3.45,3.45,0,0,0-4.17.22c-3.48,2.65-.4,5.77,1.15,8.16C41.43,31.87,45.75,35.51,50,39.09Z" transform="translate(0.02 0)" style="fill:#fff;stroke:#fff;stroke-linecap:round;stroke-linejoin:round;stroke-width:28px"/><path d="M237.92,325.81a2.08,2.08,0,0,0,.92-.56,11.69,11.69,0,0,1,3.74-2.76,11.37,11.37,0,0,0-3.87,2.82A2.17,2.17,0,0,1,237.92,325.81Z" transform="translate(0.02 0)" style="fill:#fff;stroke:#fff;stroke-linecap:round;stroke-linejoin:round;stroke-width:28px"/><path d="M384.51,52.4c-4.61.24-11.32,4.56-16.06,9.76,4.74-5.17,11.41-9.46,16-9.7,1.81-.1,3.84-.25,4.84,1.67a3.4,3.4,0,0,1-.75,4.11c1-1.13,1.68-2.48.8-4.17C388.35,52.15,386.33,52.3,384.51,52.4Z" transform="translate(0.02 0)" style="fill:#fff;stroke:#fff;stroke-linecap:round;stroke-linejoin:round;stroke-width:28px"/><path d="M286.28,305.25q-3.39.67-6.77,1.44c-17.06,3.87-34.44,4.38-51.77,3.82-4.11-.14-8,2.6-12,.49-1.6-.84-2.81-1-4.17-.26,1.31-.67,2.49-.49,4,.32,4,2.11,7.88-.63,12-.49,17.33.56,34.71,0,51.77-3.82,2.25-.51,4.5-1,6.77-1.44.27-.05.6.19,2,.66a81.54,81.54,0,0,1-13,7.42,81.18,81.18,0,0,0,13.18-7.48C286.89,305.44,286.55,305.2,286.28,305.25Z" transform="translate(0.02 0)" style="fill:#fff;stroke:#fff;stroke-linecap:round;stroke-linejoin:round;stroke-width:28px"/><path d="M309.07,75.23c19.49,16.22,35.65,37.49,47.88,64.61,7.76,17.2,11.91,34.51,11.87,51.69.09,19.43-5.16,38.69-16.63,57.39a107.14,107.14,0,0,1-25.33,28.63c.78-.85,1.53-1.71,2.27-2.59-16.4,13.61-36.43,21.67-58.9,25.21-50.3,7.92-102-8.19-140.54-40.12C168.36,292.4,220.36,308.78,271,300.8c34.51-5.43,63.26-21.52,81.95-52,21.46-35,21.18-71.94,4.77-108.32C345.32,113,328.91,91.53,309.07,75.23Z" transform="translate(0.02 0)" style="fill:#fff;stroke:#fff;stroke-linecap:round;stroke-linejoin:round;stroke-width:28px"/><path d="M314.76,75.58c-42.76-36.13-91.47-53-147.48-44.42-33.5,5.16-61.81,20.54-81.64,48.71C65,109.16,54.44,142,55.36,178c0,4.63-.4,9.3.07,13.88,1.78,17.58,3,35.36,11.06,51.56,20.07,40.42,50.86,68,94.38,82.21,32.3,10.52,64.14,12,96.49,2.57,28.73-8.4,52.42-25.54,74.61-44.93a125.48,125.48,0,0,0,23.53-27.93c23.32-36.9,24.06-75.23,8.33-114.79C353.45,114.45,336,93.55,314.76,75.58ZM62.13,161.8c2.19.89,2.43,2.7,2.85,4.33,10.63,41.45,32.44,75.61,66.4,101.84,1.71,1.32,3.93,2.48,4.38,4.59,1.22,5.7,5.06,7.23,10.14,7,2.18-.08,3.78,1.07,5.47,2.06a190.36,190.36,0,0,0,38.78,17.54c2.07.66,4.19,1.21,4.67,3.83.31,1.7,1.69,2.43,3.1,2.92,2.35.83,4.11,1.76,5.4,4.38a4.6,4.6,0,0,0,5.81,2.15,4.58,4.58,0,0,1-5.94-2.09c-1.29-2.62-3.06-3.55-5.41-4.38-1.4-.49-2.78-1.22-3.09-2.92-.48-2.62-2.6-3.17-4.67-3.83a190.44,190.44,0,0,1-38.79-17.54c-1.68-1-3.28-2.14-5.46-2.06-5.08.2-8.92-1.33-10.14-7-.45-2.11-2.68-3.27-4.38-4.59-34-26.23-55.77-60.39-66.4-101.84-.41-1.6-.66-3.37-2.75-4.28Zm88.78,150.35c.61,1.85.33,2.64-.36,2.89.59-.3.8-1.11.23-2.83-.39-1.19-.61-2.47.62-3.06-1.1.62-.87,1.85-.49,3Zm68.36,13.35a5.21,5.21,0,0,1-2.25,1.77,5.44,5.44,0,0,0,2.12-1.71,3.4,3.4,0,0,1,1.44-1.1,3.58,3.58,0,0,0-1.31,1Zm10.6-.19a9.69,9.69,0,0,1-2.17,1.34,10.78,10.78,0,0,0,2-1.28,3,3,0,0,1,.6-.35,4,4,0,0,0-.43.29Zm9-.06a2.08,2.08,0,0,1-.92.56,2.17,2.17,0,0,0,.79-.5,11.37,11.37,0,0,1,3.87-2.82,11.67,11.67,0,0,0-3.77,2.76Zm36.26-11.86a81.54,81.54,0,0,0,13-7.42c-1.4-.47-1.73-.71-2-.66-2.27.45-4.52.93-6.77,1.44-17.06,3.86-34.44,4.38-51.77,3.82-4.11-.14-8,2.6-12,.49-1.55-.81-2.73-1-4-.32,1.36-.75,2.57-.58,4.17.26,4,2.11,7.88-.63,12-.49,17.33.56,34.71.05,51.77-3.82q3.38-.76,6.77-1.44c.27-.05.61.19,2,.66a81.79,81.79,0,0,1-13.2,7.48ZM353,248.8c-18.69,30.48-47.44,46.57-81.95,52-50.64,8-102.64-8.4-141.31-40.75,38.59,31.93,90.24,48,140.54,40.12,22.47-3.54,42.5-11.6,58.9-25.21-.74.88-1.49,1.74-2.27,2.59a107.14,107.14,0,0,0,25.33-28.63c11.47-18.7,16.72-38,16.63-57.39,0-17.18-4.11-34.49-11.87-51.69-12.23-27.12-28.39-48.39-47.88-64.61C329,91.53,345.37,113,357.77,140.48,374.13,176.86,374.41,213.81,353,248.8Z" transform="translate(0.02 0)" style="fill:#fff;stroke:#fff;stroke-linecap:round;stroke-linejoin:round;stroke-width:28px"/><path d="M59.63,79.81c.72-1.18-.22-2.22-.86-3.13C50.9,65.71,41.65,56.15,30,49.1c-2.41-1.45-5-2.6-6.48-2.66-8-.48-11.41,4.7-8.52,10.77A22.74,22.74,0,0,0,21.73,65c10.35,8.3,22.71,11.91,35.19,15.25C57.86,80.51,59,80.79,59.63,79.81ZM24.8,52.2l-.3-.15.29.15Zm-4,5.14c-1.35-1.55-2.42-3.53-1-5.37,1.24-1.56,2.84-.86,4.24-.14-1.4-.72-3-1.41-4.23.14-1.45,1.84-.38,3.83,1,5.37A34,34,0,0,0,31,65.16a34.13,34.13,0,0,1-10.19-7.82Z" transform="translate(0.02 0)" style="fill:#fff;stroke:#fff;stroke-linecap:round;stroke-linejoin:round;stroke-width:28px"/><path d="M387.34,47c-5.76-.62-10.73,1.5-15.23,4.77-8.72,6.33-14.41,15.34-20.63,23.85-.57.77-1.17,1.8-.43,2.71s1.85.48,2.79.24c2.4-.61,4.79-1.25,7.16-2,9-2.7,18.05-5.4,26.19-10.27,4.34-2.59,8-5.92,8.29-11.33C395.4,50.61,392.18,47.49,387.34,47Zm1.21,11.28a3.4,3.4,0,0,0,.75-4.11c-1-1.92-3-1.77-4.84-1.67-4.6.24-11.27,4.53-16,9.7,4.74-5.2,11.45-9.52,16.06-9.76,1.82-.1,3.84-.25,4.84,1.67.87,1.65.21,3-.81,4.13Z" transform="translate(0.02 0)" style="fill:#fff;stroke:#fff;stroke-linecap:round;stroke-linejoin:round;stroke-width:28px"/><path d="M64.23,56c1.71,1.37,2.3-.39,1.87-1.89C62.35,41,57.91,28.26,48,18.27a13.73,13.73,0,0,0-7.72-4.17c-4.62-.7-8.37,2.28-8.6,7.27a12.07,12.07,0,0,0,.65,2.84C39,38.75,52.44,46.58,64.23,56Zm-27-37a3.45,3.45,0,0,1,4.17-.22,3.46,3.46,0,0,0-4.16.23c-3.48,2.65-.4,5.76,1.15,8.15,3.07,4.71,7.39,8.35,11.68,11.93,1.21,1,2.23,2.4,3.93,3.24-1.71-.84-2.73-2.24-3.94-3.24-4.29-3.58-8.61-7.22-11.68-11.93-1.57-2.39-4.65-5.51-1.17-8.16Z" transform="translate(0.02 0)" style="fill:#fff;stroke:#fff;stroke-linecap:round;stroke-linejoin:round;stroke-width:28px"/><path d="M312.57,176.59c-1.79,0-3.59-.08-5.37,0-1.1.07-2.47.15-2.57,1.68-.07,1.23,1.05,1.61,2,1.82a56.15,56.15,0,0,0,15.06,1.62,2.64,2.64,0,0,0,2-1.08c.5-1.18-.7-1.62-1.52-2.1C319.16,176.82,315.78,177.31,312.57,176.59Z" transform="translate(0.02 0)" style="fill:#f9dad9;stroke:#f9dad9;stroke-miterlimit:10"/><path d="M357.43,139.93C325.83,69.87,268.09,38.8,194.16,33.27c-10.38.47-20.43,1.18-30.34,3.25C126.17,44.37,97,63.86,80.2,99.21c-14.53,30.66-12.94,62.11-.43,92.92,30,74,112.13,120.54,190.94,108.12,34.51-5.43,63.27-21.52,82-52C374.13,213.25,373.85,176.31,357.43,139.93Z" transform="translate(0.02 0)" style="fill:#f9dad9;stroke:#f9dad9;stroke-miterlimit:10"/><path d="M132.71,213.08c11.59-4.43,24-6.77,34.38-14.33a133.3,133.3,0,0,0-21.23,5.88,30.85,30.85,0,0,0-13,8.57c-6.9,1.7-13.79,3.51-22-.46C117.74,221.15,126,220.76,132.71,213.08Zm88.29-98c-2.28-16.38-3.5-32.82-6.77-49-2-9.86-5.64-13.73-15.86-14s-20.16-.45-30.24-.77a44.4,44.4,0,0,0-12.78,1.42c-5.59,1.48-6.86,4-5.29,9.55,1.51,5.39,5,9.67,8.15,14.06,5.24,7.25,8.48,15.4,11.84,24-2.51-.06-3.44-1.45-4.48-2.68-5.12-6-10.09-12.24-15.4-18.12-6.93-7.65-15.58-10.78-25.55-7.3a41.47,41.47,0,0,0-23,19.45c-2.59,4.61-1.7,8.5,2.83,11,14.45,8,27.36,18.38,42,26,5.15,2.67,10.14,5.46,15.91,6.69,3.23.7,6.39,2,8,6.24-6-1.4-11.39-1.31-16.8-1.57-2.52-.13-5-.65-6.79-2.61s-4.23-3.05-6.69-4.09c-11.75-5-24.08-8.2-36.2-12.06a20.77,20.77,0,0,0-6.82-1c-9.5.29-13.5,7.4-9,15.77,1.17,2.18,2.61,4.29,2.8,6.83.34,4.77,3.27,7.12,7.57,7.83a82.17,82.17,0,0,0,10.85.94,188.06,188.06,0,0,1,53.08,8.94c9.66,3.18,19.49,6.47,29.88,6.76,2.37.06,5.29.54,6.13-2.77.78-3.08-1-5-3.52-6.38a15.68,15.68,0,0,1-7.17-6.79c2.83,1.32,4.59,2.19,6.38,3,5,2.14,6.86.75,6.19-4.61-.56-4.52-2.73-8.45-4.86-12.38q-5.2-9.61-10.44-19.23c5.63,3.55,9.55,8.34,12.8,13.78,3,5,6.12,9.9,11.17,13.08,4.42,2.79,7.49,1.63,9.1-3.34,1.11-3.45,2.43-6.86,2.41-10.6.3,1.6.49,3.18.7,4.77.23,1.8.39,3.62.76,5.39,1,4.93,5.46,7,9.71,4.42s8.29-5,11.4-8.69a440.89,440.89,0,0,1,42.32-43.15c7.94-7.16,7.32-12.68-1.31-19a145.4,145.4,0,0,0-22-13.25c-10-4.88-20.31-8.93-31.57-9.64C222.8,51.49,220,54.12,220,61.69c0,4.45.3,8.92.68,13.36a228.08,228.08,0,0,1,.3,40.06Zm121.84,26.2c.27-5.06-.18-10.15-3.15-14.28-6.43-9-13-17.91-20.07-26.36-5.27-6.27-12.4-7.77-20.27-4.87a67.13,67.13,0,0,0-13.11,6.94c-16.67,10.74-29.92,25.36-44,39.07A14,14,0,0,0,240,145c-2.72,5-1.42,9.37,3.57,12a15.58,15.58,0,0,0,7.14,2c15.38.18,30.7-.26,45.88-3.14,9.55-1.81,19.12-4,29-2.28a54.87,54.87,0,0,0,7.88.85c5.5.14,8.27-2.26,9.09-7.71.24-1.72.19-3.6.29-5.41ZM202.78,239.94c.26,8.81-.42,15.57.58,22.33.85,5.74,3.74,9.26,9.37,10.78,3.18.85,6.74,1.49,9.24,3.39,11.87,9,23,7.83,35.08-.11,8.25-5.43,9.51-6.8,5.48-16.07-8.54-19.63-17.34-39.16-25.21-59.09-2.4-6.06-4.65-12.43-9.35-17.31-3.59-3.73-6.59-3.78-10.21-.12s-6.79,7.55-8.61,12.54C203.75,211.09,201.53,226.29,202.78,239.94Zm-87.9-77.52c-4.16-.21-7.47-.36-10.77-.55-11.23-.63-17.78,8.69-12.53,18.61,4.08,7.7,8.35,15.41,13.9,22.24,9.43,11.61,15.34,12.66,28,4.76a64.08,64.08,0,0,1,19-8.22c16.32-3.87,31-11.13,44.67-20.75,2-1.41,3.91-3,2.93-5.63s-3.34-1.56-5.21-1.4a110.65,110.65,0,0,1-37.36-3.13c-14.19-3.72-28.57-6.91-42.63-5.93Zm92.89,23.86a3.43,3.43,0,0,0-1.21-3.27,3.28,3.28,0,0,0-4.14,0,23,23,0,0,0-4.28,3.34c-7.28,8-16.55,12.93-26.15,17.51a122.72,122.72,0,0,0-29.29,19.27c-10.39,9.3-9.3,16.18,3.52,21.57,6.52,2.73,12.37,6.17,17,11.54a17.6,17.6,0,0,0,12.09,6.07,36.55,36.55,0,0,1,11.06,2.53c3.83,1.62,5.55.09,6.06-3.71.49-3.6,1.1-7.18,1.74-10.75,2.71-15.25,3.47-30.85,8-45.78,1.92-6,3.7-12,5.6-18.32Zm108.65,63.81c6-.13,10.16-4.32,10.66-10.91.55-7.45,3-13.79,8.83-18.68a10.67,10.67,0,0,0,2.31-2.57c1.73-2.89,1.84-5.22-2.14-6.39-3.32-1-6.56-2.22-9.77-3.5-24.23-9.6-48.43-19.28-72.68-28.84-2.83-1.11-6.52-2.87-8.66.3s1.62,5,3.39,6.82c13.93,14.29,28.6,27.88,41.07,43.57,4.31,5.41,8.73,10.8,14.44,14.89a28.77,28.77,0,0,0,12.55,5.31ZM279,268.94c5.07-.06,8.92-2,12.75-3.94,12.08-6.21,12.62-9,4-19.48C280.57,227,264,209.74,247.84,192.07a75.59,75.59,0,0,0-6.94-6.33c-1-.85-2.23-1.52-3.62-.65a3,3,0,0,0-1.15,3.51,86.7,86.7,0,0,0,2.86,8.93c8.38,21.67,17.35,43.08,28.45,63.56A14.14,14.14,0,0,0,279,268.94Zm14.24-85.88c.18.7.17,1.19.35,1.27,11.64,5.44,22.85,12,35.64,14.53,13.57,2.68,13.59,2.55,16.17-11.35,1.79-9.64-5.32-21.21-15-22.95-7.43-1.33-15.19-2.28-22.65-1.64-15.49,1.33-30.94,2.58-46.49,2.28a23.08,23.08,0,0,0-10.56,2.27c-1.73.82-4.31,1-4.43,3.39s2.29,3.45,4.24,4.28c6.9,3,14.34,3.83,21.6,5.35,3.68.77,3.51-1.07,1.79-3.56-.87-1.26-1.27-3,.3-4,1.41-.91,2.29.38,3.22,1.4,3.32,3.65,11.21,5,16.25,2.76-1.22-2.93-5.45-1.2-6.63-4.15a2.84,2.84,0,0,1,3.24-.85c8.45,3.68,17.62,1.18,26.23,3.24a87.9,87.9,0,0,1,9,2.71c1.54.55,3.19,1.4,3,3.47-.19,1.79-1.8,2.23-3.21,2.67a23.77,23.77,0,0,1-17.88-1.39c-5.25-2.54-9.42-.51-14.19.27ZM148.57,160.28c-5.46-3.26-11.59-3.53-17.49-4.81-13.34-2.9-27.31-.08-40.71-4.76.07,2.77,1.82,3.92,3.79,4.73a24.55,24.55,0,0,0,8.67,1.83C118.11,157.71,133.48,156.74,148.57,160.28Zm180.09-2.19c3.22,2,6.4,4.06,10.21,2.85,1.1-.35,2.21-1.08,2.12-2.42-.13-1.77-1.51-1.28-2.62-1.19ZM97.48,102.24c.1,5.06,4.69,8,11.45,7.4Zm235,101.46c3,2,5,3.06,7.36,2.77,1.18-.14,2.4-.81,2.31-2.15s-1.42-1.06-2.36-1c-2,.05-4,.19-7.36.38ZM128.64,122.39c2.46,2.89,5.5,4.61,10.58,5A16.63,16.63,0,0,0,128.64,122.39Z" transform="translate(0.02 0)" style="fill:#fc97b9"/><path d="M104.88,159.11H105c-3-.43-5.93-.88-8.9-1.34a4.7,4.7,0,0,1-1.73-.64,6.44,6.44,0,0,1,1.91,5.17A32.08,32.08,0,0,1,104.88,159.11Z" transform="translate(0.02 0)" style="fill:#fc97b9"/><path d="M288.15,305.26c-1.4-.47-1.73-.71-2-.66-2.27.45-4.52.93-6.77,1.44-17.06,3.87-34.44,4.39-51.77,3.82-4.11-.13-8,2.61-12,.5-2.13-1.13-3.57-1.06-5.6.79-2.3,2.09-5.72.77-6.83-1.48-1.29-2.61-3.06-3.55-5.41-4.37-1.4-.5-2.78-1.23-3.09-2.93-.48-2.61-2.6-3.16-4.67-3.83A189.28,189.28,0,0,1,151.23,281c-1.68-1-3.28-2.14-5.46-2.05-5.08.19-8.92-1.33-10.14-7-.45-2.1-2.68-3.27-4.38-4.58-34-26.24-55.77-60.4-66.4-101.84-.42-1.64-.66-3.45-2.85-4.33a13.75,13.75,0,0,0-.6,2.2A157.5,157.5,0,0,0,68,225.09c5.78,18.5,15.89,34.81,27.22,50.36,11.69,16,27.75,26.71,45,35.82a43.62,43.62,0,0,0,7.43,2.76c2.14.68,4.31,1.08,3.12-2.52-.44-1.34-.68-2.77,1.08-3.25,1.6-.43,2.07.87,2.87,2,2.49,3.54,4.29,8.05,8.89,9.35,16,4.51,32.13,7.81,48.85,7.57,2.52,0,4.9,0,6.67-2.34,1-1.28,2.89-1.9,3.91-.55,2.28,3,4.3,2.16,6.69.36,1.31-1,2.82-.74,4.23,0,1.61.84,3.79,1,4.74-.07,3.83-4.17,8.43-4.11,13.55-3.94,3.14.1,6.39-1.53,9.5-2.65C270.71,314.77,279.58,311.3,288.15,305.26Z" transform="translate(0.02 0)" style="fill:#f7778c"/><path d="M46.5,69.94c-6.09-7.7-13.07-14.07-21.7-18.44-1.55-.79-3.5-2.06-4.95-.23s-.38,3.82,1,5.36C27.62,64.39,36.91,67.44,46.5,69.94Z" transform="translate(0.02 0)" style="fill:#fc97b9"/><path d="M363.16,69.92c8.62-3.52,17.41-5.31,24.31-11.33,1.49-1.3,3-3,1.83-5.16-1-1.93-3-1.77-4.84-1.68C377.44,52.12,365.56,61.93,363.16,69.92Z" transform="translate(0.02 0)" style="fill:#fc97b9"/><path d="M56.81,42.35C53.48,34.1,50.06,27,44.71,21.13c-1.89-2.08-4.48-5.12-7.49-2.83-3.48,2.65-.4,5.77,1.15,8.16,3.07,4.71,7.39,8.35,11.68,11.92C51.81,39.85,53.17,42.13,56.81,42.35Z" transform="translate(0.02 0)" style="fill:#fc97b9"/><path d="M55.36,177.31c-.92-36.07,9.66-68.85,30.28-98.14C105.47,51,133.78,35.62,167.28,30.45c56-8.63,104.72,8.29,147.48,44.42,21.27,18,38.69,38.88,49.07,65,15.73,39.56,15,77.9-8.33,114.8A125.8,125.8,0,0,1,332,282.6c-22.19,19.39-45.88,36.52-74.61,44.93C225,337,193.17,335.47,160.87,325c-43.52-14.18-74.31-41.78-94.38-82.21-8-16.2-9.28-34-11.06-51.56C55,186.6,55.36,181.93,55.36,177.31ZM194.44,33.11c-10.37.48-20.42,1.19-30.34,3.25-37.65,7.86-66.87,27.35-83.61,62.69-14.49,30.67-12.95,62.12-.44,93,30,74,112.13,120.54,191,108.13,34.51-5.44,63.26-21.53,81.95-52,21.46-35,21.18-71.93,4.77-108.32C326.11,69.72,268.38,38.65,194.44,33.11Zm93.84,272.1c-1.39-.48-1.73-.72-2-.67q-3.39.68-6.77,1.44c-17.06,3.87-34.44,4.39-51.77,3.82-4.11-.13-8,2.61-12,.5-2.13-1.13-3.57-1.06-5.6.79-2.3,2.09-5.72.77-6.83-1.48-1.29-2.61-3-3.55-5.4-4.37-1.41-.5-2.79-1.23-3.1-2.92-.48-2.62-2.6-3.17-4.67-3.84a189.28,189.28,0,0,1-38.78-17.54c-1.69-1-3.29-2.14-5.47-2.05-5.08.19-8.92-1.33-10.14-7-.45-2.1-2.67-3.27-4.38-4.58C97.42,241,75.61,206.88,65,165.43c-.42-1.63-.66-3.45-2.85-4.33a13.75,13.75,0,0,0-.6,2.2A157.76,157.76,0,0,0,68.16,225c5.78,18.5,15.89,34.81,27.22,50.36,11.7,16,27.75,26.71,45,35.82a44.86,44.86,0,0,0,7.43,2.77c2.14.67,4.31,1.07,3.12-2.53-.44-1.33-.68-2.77,1.08-3.25,1.6-.43,2.07.87,2.87,2,2.49,3.54,4.29,8,8.89,9.35,16,4.51,32.14,7.81,48.85,7.57,2.52,0,4.9,0,6.67-2.34,1-1.28,2.9-1.9,3.91-.55,2.28,3,4.3,2.16,6.69.36,1.31-1,2.82-.74,4.23,0,1.61.84,3.79,1,4.74-.07,3.83-4.17,8.43-4.11,13.55-3.94,3.14.1,6.39-1.53,9.5-2.65,8.94-3.19,17.8-6.66,26.37-12.69Z" transform="translate(0.02 0)" style="fill:#474747"/><path d="M23.54,45.74c1.49.06,4.07,1.2,6.48,2.66C41.65,55.44,50.9,65,58.77,76c.64.91,1.58,2,.86,3.13s-1.77.7-2.71.45c-12.48-3.35-24.84-7-35.19-15.22A22.76,22.76,0,0,1,15,56.5C12.13,50.44,15.52,45.25,23.54,45.74Zm23,24.2c-6.09-7.7-13.07-14.08-21.7-18.45-1.55-.78-3.5-2.06-4.95-.23s-.38,3.83,1,5.37c6.72,7.76,16,10.8,25.6,13.31Z" transform="translate(0.02 0)" style="fill:#474747"/><path d="M395.48,54.26c-.29,5.41-4,8.74-8.29,11.34C379.05,70.46,370,73.17,361,75.87c-2.37.71-4.76,1.34-7.16,2-.94.24-2.06.63-2.79-.25s-.14-1.93.43-2.71c6.22-8.51,11.91-17.51,20.63-23.84,4.5-3.27,9.47-5.4,15.23-4.77C392.18,46.78,395.4,49.91,395.48,54.26Zm-32.26,15.6c8.62-3.52,17.41-5.31,24.31-11.33,1.49-1.3,3-3,1.82-5.16-1-1.93-3-1.77-4.84-1.68C377.49,52.06,365.62,61.87,363.22,69.86Z" transform="translate(0.02 0)" style="fill:#474747"/><path d="M31.69,20.67c.23-5,4-8,8.6-7.27A13.6,13.6,0,0,1,48,17.56c9.9,10,14.34,22.75,18.09,35.84.43,1.5-.16,3.26-1.87,1.9C52.44,45.88,39,38,32.34,23.5A11.87,11.87,0,0,1,31.69,20.67ZM56.8,42.35C53.47,34.09,50.05,27,44.7,21.13,42.81,19,40.22,16,37.21,18.3c-3.48,2.65-.4,5.76,1.15,8.15C41.43,31.16,45.75,34.8,50,38.38,51.8,39.85,53.16,42.12,56.8,42.35Z" transform="translate(0.02 0)" style="fill:#474747"/><path d="M217.32,281.09l7.22,6.69c-3.37,1.19-5.59-.58-7.88-1.27-8.4-2.5-16.12-6.07-20.78-14.11a2.53,2.53,0,0,0-2.36-1.56c-7.53,1.14-14-3.59-21.26-3.88-5.38-.2-9.57-3.47-13.09-7.36A35.77,35.77,0,0,0,145,249.92a38.9,38.9,0,0,1-7.48-3.85c-8-5.29-9.51-13-4-20.89,1.92-2.74,4.25-5.21,6.68-8.16-3.27-.21-4.77,1.8-6.58,3-9.06,6.24-18.53,5.56-26.59-2a36.53,36.53,0,0,1-8-11.74A164.16,164.16,0,0,0,88,185.2c-4.45-6.95-5.12-16.77,2.1-22.5,2.24-1.78,1.55-3.29-.46-4.69-3.73-2.6-5.2-6.31-5.06-10.71.15-4.87-1-9.52-2.18-14.16-1.87-7.16.1-12.26,6.72-15.71,3.08-1.6,4-3.26,3-6.61-2.76-9.14.88-16.77,6.11-24,9-12.41,19.85-21.72,36.39-21.24a3.11,3.11,0,0,0,3.27-1.7c6.52-13.35,18.16-17.26,31.88-17.29,9.59,0,19.18-.11,28.77.07,6.27.12,12.27,1.15,15.66,7.5,1.17,2.19,2.5,1.3,3.28-.21,3.44-6.63,9.43-7.23,15.76-6.58,21.28,2.2,39.23,12.2,56.09,24.53,5.21,3.81,7.47,9.18,6.09,15.7-.8,3.77.23,4.27,3.77,2.94,9.19-3.45,17.69-1.36,23.95,5.85,7.66,8.83,14.5,18.39,21.41,27.85,2.79,3.81,3.5,8.59,3.56,13.24.08,6-.23,11.9-.46,17.84-.12,3.21-.89,6.25-3.33,8.57-1.94,1.84-1.58,3.4.4,4.88,7,5.2,7.56,12.4,6.08,20.1-.81,4.23-.46,8.89-1.92,12.65-2.91,7.48-2.86,16.3-9,22.36a23.79,23.79,0,0,0-7.27,15.2c-1.18,11.08-9.28,18.5-20.91,19.65a9.56,9.56,0,0,0-7.39,4c-3.12,4-8,5.71-12.25,8.24-1.07.64-4.68,1.17-1,3.77,1.49,1-.77,1.67-1.63,2-5.07,2.13-10.47,2.67-15.46.54-4.37-1.87-7.51-1.3-11.21,1.43s-8,4.64-12.07,6.83c-7.93,4.27-15.79,4-23.67-.29C224.27,283.78,221.7,281.62,217.32,281.09ZM132.75,213c11.59-4.43,24-6.77,34.38-14.33a133.3,133.3,0,0,0-21.23,5.88,30.76,30.76,0,0,0-13,8.57c-6.89,1.7-13.78,3.51-21.94-.46C117.78,221.07,126,220.68,132.75,213ZM221,115c-2.29-16.38-3.5-32.82-6.78-49-2-9.86-5.63-13.73-15.85-14s-20.16-.45-30.25-.77a44.33,44.33,0,0,0-12.77,1.42c-5.59,1.48-6.86,4-5.29,9.55,1.51,5.39,5,9.67,8.14,14.06,5.25,7.25,8.48,15.4,11.85,24-2.51-.06-3.44-1.45-4.48-2.68-5.12-6-10.09-12.24-15.41-18.12-6.92-7.65-15.57-10.78-25.54-7.3a41.51,41.51,0,0,0-23,19.45c-2.59,4.61-1.7,8.5,2.84,11,14.45,8,27.36,18.38,42,26,5.15,2.67,10.14,5.46,15.91,6.69,3.23.7,6.39,2.06,8,6.24-5.94-1.39-11.38-1.3-16.8-1.57-2.51-.13-5-.65-6.78-2.61s-4.23-3-6.69-4.09c-11.75-5-24.08-8.2-36.2-12.06a20.77,20.77,0,0,0-6.82-1c-9.5.29-13.5,7.4-9,15.77,1.16,2.18,2.61,4.29,2.8,6.83.34,4.77,3.27,7.12,7.57,7.83a84,84,0,0,0,10.85,1,187.63,187.63,0,0,1,53.07,8.93c9.67,3.18,19.5,6.47,29.89,6.76,2.37.06,5.29.54,6.13-2.77.77-3.08-1-4.95-3.52-6.38s-5.17-3-7.17-6.79c2.83,1.32,4.58,2.19,6.38,3,5,2.14,6.85.76,6.19-4.61-.57-4.52-2.73-8.45-4.86-12.38q-5.21-9.61-10.44-19.23c5.63,3.55,9.55,8.34,12.8,13.78,3,5,6.12,9.9,11.17,13.08,4.42,2.79,7.49,1.63,9.09-3.34,1.12-3.45,2.44-6.86,2.42-10.6.3,1.6.48,3.18.69,4.77.24,1.8.4,3.62.77,5.4,1.05,4.92,5.46,7,9.7,4.41s8.29-5,11.41-8.69A442.36,442.36,0,0,1,285.46,93.7c7.94-7.16,7.32-12.68-1.31-19A144.66,144.66,0,0,0,262,61.53c-10-4.88-20.31-8.93-31.57-9.64C222.8,51.41,220,54,220,61.61c0,4.45.29,8.92.68,13.36A228.71,228.71,0,0,1,221,115Zm121.83,26.2c.27-5.06-.18-10.15-3.14-14.28-6.43-9-13-17.91-20.07-26.36-5.27-6.27-12.4-7.77-20.27-4.87a67.13,67.13,0,0,0-13.11,6.94c-16.67,10.74-29.92,25.37-44,39.07A14,14,0,0,0,240,145c-2.72,5-1.42,9.37,3.57,12a15.56,15.56,0,0,0,7.11,2c15.38.18,30.69-.26,45.88-3.14,9.55-1.81,19.12-4,29-2.28a54.87,54.87,0,0,0,7.88.85c5.49.14,8.27-2.26,9.08-7.71a41.46,41.46,0,0,0,.36-5.39Zm-140,98.63c.25,8.81-.42,15.57.58,22.33.85,5.74,3.74,9.27,9.37,10.78,3.17.85,6.74,1.49,9.24,3.39,11.87,9,23,7.83,35.08-.1,8.25-5.44,9.51-6.81,5.48-16.08-8.58-19.6-17.35-39.15-25.22-59.06-2.4-6.06-4.65-12.43-9.35-17.31-3.6-3.73-6.59-3.78-10.21-.11s-6.79,7.54-8.61,12.53c-5.4,14.8-7.62,30-6.37,43.66Zm-87.91-77.52c-4.15-.21-7.46-.36-10.76-.55-11.23-.63-17.79,8.69-12.54,18.61,4.09,7.7,8.36,15.41,13.9,22.24,9.44,11.61,15.35,12.66,28.05,4.76a64.08,64.08,0,0,1,19-8.22c16.32-3.87,31-11.13,44.67-20.75,2-1.41,3.9-3,2.93-5.63s-3.34-1.56-5.21-1.4a110.65,110.65,0,0,1-37.36-3.13c-14.24-3.69-28.6-6.88-42.69-5.9Zm92.9,23.86a3.43,3.43,0,0,0-1.21-3.27,3.27,3.27,0,0,0-4.14-.05,22.71,22.71,0,0,0-4.28,3.34c-7.28,8-16.55,12.93-26.15,17.51a122.9,122.9,0,0,0-29.3,19.3c-10.39,9.3-9.3,16.18,3.52,21.57,6.52,2.73,12.37,6.17,17,11.54a17.6,17.6,0,0,0,12.09,6.07,36.55,36.55,0,0,1,11.06,2.53c3.83,1.62,5.54.1,6.06-3.71.49-3.59,1.1-7.18,1.74-10.75,2.71-15.25,3.47-30.85,8-45.78,1.92-6,3.7-12,5.6-18.27ZM316.46,250c6-.13,10.16-4.32,10.65-10.91.56-7.45,3-13.79,8.84-18.68a10.67,10.67,0,0,0,2.31-2.57c1.73-2.89,1.84-5.22-2.14-6.39-3.32-1-6.56-2.22-9.77-3.5-24.23-9.6-48.43-19.28-72.68-28.84-2.84-1.11-6.52-2.87-8.66.3s1.62,5,3.39,6.82c13.93,14.29,28.59,27.89,41.07,43.57,4.31,5.41,8.73,10.8,14.44,14.89A28.49,28.49,0,0,0,316.46,250ZM279,268.86c5.07-.05,8.92-2,12.75-3.94,12.07-6.21,12.61-9,4-19.48C280.61,226.92,264,209.66,247.88,192a74.42,74.42,0,0,0-6.95-6.33c-1-.85-2.22-1.52-3.61-.65a2.93,2.93,0,0,0-1.15,3.52,89.8,89.8,0,0,0,2.85,8.92c8.39,21.68,17.36,43.08,28.46,63.56A14.16,14.16,0,0,0,279,268.86ZM293.27,183c.18.7.17,1.19.35,1.27,11.64,5.44,22.85,12,35.64,14.53,13.56,2.68,13.59,2.55,16.17-11.35,1.78-9.64-5.32-21.21-15-23-7.43-1.33-15.19-2.28-22.65-1.64-15.49,1.33-30.94,2.58-46.49,2.28a23.34,23.34,0,0,0-10.56,2.27c-1.73.82-4.31,1-4.43,3.39s2.29,3.45,4.24,4.28c6.9,2.95,14.34,3.83,21.59,5.35,3.69.78,3.52-1.07,1.8-3.56-.87-1.26-1.27-3,.29-4s2.3.37,3.23,1.4c3.32,3.64,11.21,4.95,16.25,2.75-1.22-2.93-5.45-1.2-6.63-4.15a2.84,2.84,0,0,1,3.24-.85c8.45,3.68,17.62,1.18,26.23,3.24a87.9,87.9,0,0,1,9,2.71c1.54.55,3.19,1.4,3,3.47-.19,1.79-1.8,2.23-3.21,2.67a23.77,23.77,0,0,1-17.88-1.39C302.21,180.17,298,182.2,293.27,183Zm-80.38-3c-2-3.8,0-4,3.1-3.77,6.74.58,13.74,1.66,18.21-5.49.15-.25.55-.57.77-.53,3.28.71,1.88-1.24,1.25-2.39A8.88,8.88,0,0,0,234,165.2c-6.25-5-21.51-5.06-27.86-.31-1.84,1.38-2.3,2.8-1.8,5.1,1,4.83,3.13,8.51,8.55,10Zm-64.28-19.8c-5.46-3.26-11.6-3.53-17.49-4.81-13.34-2.9-27.31-.08-40.71-4.76.06,2.77,1.81,3.92,3.79,4.73a24.55,24.55,0,0,0,8.67,1.83C118.15,157.63,133.51,156.66,148.61,160.2ZM312.5,176.57c-1.79,0-3.59-.08-5.37,0-1.1.07-2.47.15-2.57,1.68-.07,1.23,1.05,1.6,2,1.82a55.74,55.74,0,0,0,15.06,1.61,2.62,2.62,0,0,0,2-1.07c.5-1.18-.7-1.62-1.52-2.1C319.09,176.8,315.71,177.29,312.5,176.57ZM328.69,158c3.23,2,6.4,4.06,10.22,2.85,1.1-.35,2.21-1.08,2.11-2.42-.12-1.77-1.5-1.28-2.62-1.19ZM97.52,102.16c.1,5.06,4.69,8,11.45,7.4Zm235,101.46c3,2,5,3.06,7.36,2.77,1.18-.14,2.4-.81,2.31-2.15s-1.42-1.06-2.36-1c-2,0-4,.19-7.36.38ZM128.68,122.31c2.46,2.89,5.5,4.61,10.58,5A16.63,16.63,0,0,0,128.68,122.31Z" transform="translate(0.02 0)" style="fill:#474747"/><path d="M201.66,316.65c.1.71-.6,1.88-2.24,1.39-3.43-1-2.74-4.76-4-7.17-.53-1,1.09-1.9,2.34-1.67C201.43,309.89,201.07,313.07,201.66,316.65Z" transform="translate(0.02 0)" style="fill:#474747"/><path d="M206.5,120.74c-.8-3-1.63-6-2.39-9-.36-1.41-.16-3.37-1.84-3.74-2-.45-.88,2.67-3.33,3a48.09,48.09,0,0,1-2.88-12,38.45,38.45,0,0,0-2.79-12c-.37-.87-1.32-1.81-.35-2.67,1.19-1,2.08.09,2.94.81,1.09.89,2,3,3.51,2s.47-3-.07-4.54c-1.72-4.87-2.11-10.51-7.76-13.08-.88-.4-.94-1.29-.35-2.09a2.45,2.45,0,0,1,2.64-1,7.42,7.42,0,0,1,5.66,6.28c1,5.93,3.29,11.73,1.2,18-1.23,3.73-.13,7.39,3.07,10.33,6,5.52,5,12.54,4.4,19.41Z" transform="translate(0.02 0)" style="fill:#474747"/><path d="M239.15,125.62c8.06-13.29,13.26-28,23.86-39.75,1.2,1.21.51,3.26-.11,5.23-1.32,4.14-3.82,7.63-6.19,11.21-1.32,2-4,3.89-1.22,6.79.33.34,0,1.67-.4,2.28C251,117.44,245.05,121.4,239.15,125.62Z" transform="translate(0.02 0)" style="fill:#474747"/><path d="M170.62,129.54c-5.25-1.44-7.74-4.52-10.53-7.18q-3.56-3.39-7.15-6.76c-.79-.75-2.28-1.3-1.52-2.67s2.29-1,3.51-.46C162.27,115.62,166.74,121.43,170.62,129.54Z" transform="translate(0.02 0)" style="fill:#474747"/><path d="M161.33,111.09c-4.36-4.33-8.69-8.69-13.08-13-2.69-2.62-5.48-4.77-8.18.45-1.77-2.52-.94-4.21.47-5.7A4.25,4.25,0,0,1,146,92.2C153.26,96.64,158.66,102.73,161.33,111.09Z" transform="translate(0.02 0)" style="fill:#474747"/><path d="M253.92,88.68c1.41-5.74,3.52-10.28-.36-15.1,3.79-.15,5.25,1.52,5.9,3.82C260.77,82.07,258.09,85.1,253.92,88.68Z" transform="translate(0.02 0)" style="fill:#474747"/><path d="M313.29,135.09c-.35-2.26-2.62-1.15-3.09-2.94,4.1-2.71,9.62-1.22,14-4-5.29,2.93-6.13,10.41-12.92,11.62-2.79.49-6.32-.13-5,4.94.48,1.79-1.87,3-3.61,3.55a42,42,0,0,1-23,.56c-1.86-.44-4-1.47-3.83-3.94.11-2.09,1.9-2.88,3.64-3.6,3.92-1.62,8-1.79,12.18-1.91,1.54-.05,3.12.37,3.14-2.45,0-3.11,3-2.31,5-2.35C304.26,134.44,308.59,136.38,313.29,135.09Zm-15,9.43c-5.32-1-10.68-2.78-15.86.39,5.37,2.4,10.66,2,15.91-.39Z" transform="translate(0.02 0)" style="fill:#474747"/><path d="M268.35,131c2.47-5.6,5.7-8.55,9.86-10.61.89-.44,2-.76,2.67.19.56.79-.14,1.57-.7,2.13C277.11,125.83,274.11,129.06,268.35,131Z" transform="translate(0.02 0)" style="fill:#474747"/><path d="M230.62,244.18c-1.06-2-2.06-3.05-2.2-4.25-.46-3.78-1.35-6.76-6.16-6.31-.75.07-1.74-.87-2.41-1.54-4.65-4.64-4.95-17.07-.26-22.66,1.29,4.44,0,8.64.28,12.76.19,2.86.4,5.6,2.37,7.86.86,1,1.85,2.08,3.34,1.41,1.22-.54,1.23-1.81,1.31-3,.14-2.06-1.16-4.16.1-6.24C230.7,225.36,232.44,235.07,230.62,244.18Z" transform="translate(0.02 0)" style="fill:#474747"/><path d="M238.78,259.72c.77.6,1.16.86,1.5,1.18,1.08,1,1.54,3.44,3.69,2.32,2-1,1.52-3.09,1.13-4.89-.93-4.17-1.95-8.33-2.84-12.52-.25-1.21-.94-2.94.55-3.52s2.2,1.15,2.61,2.29c1.8,4.95,3.63,9.94,3.7,15.28a8.08,8.08,0,0,1-11.46,7.4c-1.23-.57-1-1.37-.63-2.41C237.64,263.36,238.08,261.79,238.78,259.72Z" transform="translate(0.02 0)" style="fill:#474747"/><path d="M228,197.75c3,1.7,4.42,3.45,4.27,5.92-.05.93-1.3.71-2.05.41C227.38,203,227.92,200.66,228,197.75Z" transform="translate(0.02 0)" style="fill:#474747"/><path d="M123,198.82c4.28-3.95,8.42-3.84,12.46-3.5,3.39.28,5.85-.43,8.07-3.34,2.79-3.67,7-5.4,11.6-5.73,1-.06,2.21-.19,2.51,1s-1,1.56-1.85,1.79c-4,1-7.27,2.73-9.15,6.75-.8,1.72-3,1.91-4.81,2C135.94,198.18,130.06,198.44,123,198.82Z" transform="translate(0.02 0)" style="fill:#474747"/><path d="M137.79,176c6.54.48,11.91.86,17.27,1.31a2,2,0,0,1,1.51,1c.33,1-.65,1.32-1.35,1.69C151.33,182,142.33,180.38,137.79,176Z" transform="translate(0.02 0)" style="fill:#474747"/><path d="M179.81,227q-5.37,7.23-10.75,14.45c-.5.66-1.31,1.38-2,.72a2.65,2.65,0,0,1-.44-2.28c2.07-6.33,5.84-11.2,11.85-14Z" transform="translate(0.02 0)" style="fill:#474747"/><path d="M172.44,216.41c.31,6.09-3.08,10.63-6.83,15a1.57,1.57,0,0,1-2.16.49h0a1.66,1.66,0,0,1-.24-2.25c2.55-4.67,5.15-9.31,7.73-14Z" transform="translate(0.02 0)" style="fill:#474747"/><path d="M298.37,226.61c5.24,1.28,9.84,3.55,14.73.95,1-.52,1.53-.15,1.72.87.45,2.46-3.69,6-6.2,5.26C301.06,231.57,301.06,231.57,298.37,226.61Z" transform="translate(0.02 0)" style="fill:#474747"/><path d="M294.84,206.39c-5.54,3.38-9.53,2.1-13.38-4.3C286.33,204.67,290.87,203.47,294.84,206.39Z" transform="translate(0.02 0)" style="fill:#474747"/><path d="M312.57,176.59c-1.79,0-3.59-.08-5.37,0-1.1.07-2.47.15-2.57,1.68-.07,1.23,1.05,1.61,2,1.82a56.15,56.15,0,0,0,15.06,1.62,2.64,2.64,0,0,0,2-1.08c.5-1.18-.7-1.62-1.52-2.1C319.16,176.82,315.78,177.31,312.57,176.59Z" transform="translate(0.02 0)" style="fill:#fc97b9"/></g></g></svg>