<svg id="Layer_1" data-name="Layer 1" xmlns="http://www.w3.org/2000/svg" viewBox="0 0 468 529"><title>heart-flower</title><g id="Layer_2" data-name="Layer 2"><g style="opacity:0.12"><path d="M452.54,229.71c-.63.64-1.27,1.26-1.86,1.93-9.68,11.12-21.69,13.53-35.51,9.71a138.91,138.91,0,0,1-30.75-12.19,63.93,63.93,0,0,0-8.22-3.73c-14.86-5.74-29.43-4.43-43.45,2.58A34.59,34.59,0,0,0,315,248.47c-2.3,6.82-2.11,13.42,2.81,19.25.74.87,1.2,1.65.18,2.57L305.3,281.71c-.21-.54-.39-.76-.35-.93.28-1.31.61-2.6.91-3.9,5-21.8,5.19-43-7.58-62.64-5.2-8-4.47-15.76.42-23.5a65.34,65.34,0,0,1,8.94-10.83c6.34-6.46,13.28-12.27,20.06-18.26,14-12.39,27.19-25.59,36.68-41.92,11.25-19.46,16.22-40.39,12.2-62.73-3.8-21.09-18.4-34.5-39.78-35C307,21.38,284.9,36.41,268,60c-2.52,3.52-2.25,3.72-4.59-.14-6-9.92-13-19-22.47-25.89-9-6.64-19-10.91-30.43-10.59-13.82.38-24,7.72-32.34,17.91C163.67,59,161.72,79,167.77,100.37c5,17.78,14,33.54,25.75,47.71,15.16,18.35,31.63,35.24,53.21,46.25,8.86,4.53,18,8.45,27,12.58,3.85,1.76,7.84,3.41,10.73,6.68,5.91,6.72,10.56,14.21,12.38,23.06a78.71,78.71,0,0,1-7.08,53c-6.14,12-16.35,19.56-28.47,24.79-8.81,3.8-17.73,7.36-26.5,11.27C221,331.9,211,342.06,204.34,355.58a84.6,84.6,0,0,0-5.26,13c-.63,2.11-1.29,2.33-2.71.54a34.63,34.63,0,0,0-13.31-9.9c-5.39-2.43-10.91-4.57-16.34-6.92A45.84,45.84,0,0,1,147.58,337a5.5,5.5,0,0,1-.72-5.84c3.73-10.05,8.49-19.68,11.68-29.94,13.15-42.25-15.87-82.23-53.7-86.82-4.43-.54-8.86-1.05-13.3-1.59C81,211.55,71.05,209.3,62.22,202.13c-10.38-8.43-23-12.58-36.48-13.71-1.26-.1-2.66-.58-3.74.62.44.88,1.29.87,2,1.06,8.26,2.21,15.82,6,23.28,10.1C59.71,207,67,217.47,70.43,231.1c4.31,17,3.38,33.79-.39,50.73-2.72,12.23-4.33,24.66-2.43,37.24a44.08,44.08,0,0,0,13,25.49c11.21,11,25.81,13.1,39.73,5.85,4.93-2.57,9.44-6,15-7.23,2.39-.54,3.87-.12,5.4,1.89a51.07,51.07,0,0,0,19.71,15.71c5.08,2.32,10.3,4.31,15.42,6.52,13.49,5.81,19,14.54,18.15,29.16-.75,12.94-.78,25.88-.54,38.84.29,15.07.78,30.14.21,45.21-.45,12-5.37,18.23-16.65,21.9-3.73,1.22-7.56.9-11.29.4-16.6-2.22-33-.74-49.2,2.93-3.52.79-7.27,1-10.46,3a5.65,5.65,0,0,0,2.35.14,106.72,106.72,0,0,1,32.69,1.18c22.57,4.07,45.35,4.35,68.09,4.45,21.64.09,43.24-2.27,64.91-2.52,10.81-.12,21.65-.09,32.35-2.32a173.71,173.71,0,0,1,21.55-3c3.93-.33,7.84-.91,11.76-1.38v-.75c-1.28-.11-2.55-.27-3.82-.33-9.48-.41-19-.73-28.4-1.84a121.7,121.7,0,0,0-19.36-1.13c-21.53.93-43.06,1.42-64.59-.21-8-.61-12.9-5-15.77-12a46.64,46.64,0,0,1-3.25-17.32c-.33-24.12.61-48.24.32-72.35a87.19,87.19,0,0,1,2.81-23.85c5.09-19,15-33.92,33.93-41.75,12.88-5.34,25.82-10.49,38.13-17.21,6.54-3.57,12.79-7.21,18-12.51s10.8-10.71,16.21-16c.61-.61,1.2-1.67,2.12-1.4s.66,1.52.71,2.36c.56,9.49,5.49,16.1,13.7,20.37,7.89,4.12,16.37,5.07,25.09,3.81,12.73-1.84,23.05-8.33,31.6-17.55a83.77,83.77,0,0,1,31.34-21.76A43,43,0,0,0,436,260.65a93,93,0,0,0,14.81-25c.8-2,2.1-3.78,2.39-6.09C452.74,229.68,452.6,229.65,452.54,229.71Z" transform="translate(0 0.02)" style="fill:#6a374f;stroke:#6a374f;stroke-linecap:round;stroke-linejoin:round;stroke-width:28px"/><path d="M340.86,505.4c-3.92.47-7.83,1.05-11.76,1.38a173.71,173.71,0,0,0-21.55,3C296.85,512,286,512,275.2,512.1c-21.67.25-43.27,2.61-64.91,2.52-22.74-.1-45.52-.38-68.08-4.45A106.71,106.71,0,0,0,109.52,509a5.7,5.7,0,0,1-2.36-.14c3.19-2,6.94-2.25,10.46-3,16.23-3.67,32.6-5.15,49.2-2.93,3.73.5,7.56.82,11.29-.4,11.28-3.67,16.2-9.94,16.65-21.9.57-15.07.08-30.14-.21-45.21-.24-13-.21-25.9.54-38.84.84-14.62-4.66-23.35-18.15-29.16-5.12-2.21-10.34-4.2-15.42-6.52a51.07,51.07,0,0,1-19.71-15.71c-1.53-2-3-2.43-5.4-1.89-5.59,1.27-10.1,4.66-15,7.23-13.92,7.25-28.52,5.14-39.73-5.85a44,44,0,0,1-13-25.49c-1.91-12.58-.3-25,2.42-37.24,3.77-16.94,4.7-33.72.4-50.73-3.5-13.72-10.77-24.17-23.2-31-7.46-4.09-15-7.89-23.28-10.1-.73-.19-1.58-.18-2-1.06,1.08-1.2,2.48-.72,3.74-.62,13.45,1.13,26.1,5.28,36.48,13.71,8.83,7.17,18.73,9.42,29.32,10.71,4.44.54,8.87,1,13.3,1.59,37.83,4.59,66.85,44.57,53.7,86.82-3.19,10.26-7.95,19.89-11.68,29.94a5.5,5.5,0,0,0,.72,5.84,45.7,45.7,0,0,0,19.14,15.27c5.43,2.35,10.95,4.49,16.34,6.92a34.58,34.58,0,0,1,13.32,9.9c1.41,1.79,2.07,1.57,2.7-.54a84.6,84.6,0,0,1,5.26-13C212,342.06,222,331.9,235.81,325.75c8.77-3.91,17.69-7.47,26.51-11.27,12.11-5.23,22.32-12.78,28.46-24.79a78.71,78.71,0,0,0,7.08-53c-1.82-8.85-6.47-16.34-12.38-23.06-2.89-3.27-6.88-4.92-10.73-6.68-9-4.13-18.16-8-27-12.58-21.58-11-38-27.9-53.21-46.25-11.72-14.17-20.71-29.93-25.75-47.71C162.72,79,164.67,59,179.19,41.26c8.36-10.19,18.53-17.53,32.34-17.91C223,23,232.92,27.3,242,33.94c9.44,6.92,16.46,16,22.47,25.89,2.34,3.86,2.08,3.66,4.59.14C285.9,36.41,308,21.38,337.8,22c21.38.46,36,13.87,39.78,35,4,22.36-.95,43.29-12.25,62.75-9.49,16.33-22.65,29.53-36.68,41.92-6.78,6-13.71,11.8-20.06,18.26a65.34,65.34,0,0,0-8.94,10.83c-4.88,7.74-5.62,15.52-.42,23.5,12.77,19.62,12.6,40.84,7.58,62.64-.3,1.3-.63,2.59-.91,3.9a4.49,4.49,0,0,0,.35.93l12.69-11.42c1-.92.56-1.7-.18-2.57-4.92-5.83-5.1-12.43-2.81-19.25A34.57,34.57,0,0,1,333.75,228c14-7,28.59-8.32,43.45-2.58a64.81,64.81,0,0,1,8.23,3.73,138.15,138.15,0,0,0,30.74,12.19c13.82,3.82,25.83,1.41,35.51-9.71.59-.67,1.23-1.29,1.86-1.93.06-.06.21,0,.65-.1-.29,2.31-1.59,4.13-2.38,6.09a93.29,93.29,0,0,1-14.81,25,43.13,43.13,0,0,1-17.49,13.13,83.85,83.85,0,0,0-31.34,21.76c-8.55,9.22-18.87,15.71-31.6,17.55-8.72,1.26-17.2.31-25.09-3.81-8.21-4.27-13.14-10.88-13.7-20.37,0-.84.35-2.05-.71-2.36s-1.51.79-2.12,1.4q-8,8.07-16.05,16.17c-5.23,5.3-11.48,8.94-18,12.51-12.31,6.72-25.25,11.87-38.13,17.21-18.89,7.83-28.83,22.79-33.93,41.75A86.93,86.93,0,0,0,206,399.44c.29,24.11-.65,48.23-.32,72.35a46.64,46.64,0,0,0,3.25,17.32c2.87,7,7.75,11.42,15.77,12,21.53,1.63,43.06,1.14,64.59.21a121.7,121.7,0,0,1,19.36,1.13c9.44,1.11,18.92,1.43,28.4,1.84,1.27.06,2.55.22,3.82.33Z" transform="translate(0 0.02)" style="fill:#6a374f;stroke:#6a374f;stroke-miterlimit:10;stroke-width:2px"/><path d="M77.56,218.69a11.52,11.52,0,0,0,.16,1.76c6.94,18.75,7.78,37.85,3.65,57.33-2.24,10.59-4.22,21.25-4.09,32.15.12,10.45,3,19.83,10.71,27.28,8.15,7.85,17.66,9.17,27.65,3.93,4.44-2.33,8.6-5.23,13.37-6.9,1.66-.59,1.64-1.44,1-2.8a27.87,27.87,0,0,1-2.71-9.28c-.71-6.65-1.34-13.32-2-20-1.63-17.08-6.72-32.75-18.38-45.8-.55-.62-1.39-1.22-.83-2.35,1.86.44,3,1.92,4.38,3,14.29,10.85,23,25,25,43,.72,6.21,1.19,12.44,1.8,18.66a8.06,8.06,0,0,0,1.57,4.73c3.06-7.81,6.09-15.09,8.78-22.5a60.21,60.21,0,0,0,3.18-28c-2.56-21.63-19.88-41.78-40.66-46.72C99.49,223.61,88.3,223.26,77.56,218.69Z" transform="translate(0 0.02)" style="fill:#6a374f"/><path d="M438.49,246.59c-16.84,6.69-32.94,4.64-48.68-3.1-3.31-1.63-6.65-3.19-9.85-5-11.26-6.38-23.19-7.5-35.65-4.78-9.2,2-16.52,6.59-20.7,15.37-1.95,4.09-2.58,8.23-.82,12.62,1,2.57,2,2.88,4.27,1.06,7.18-5.81,15-10.34,24.3-12.11,12.6-2.4,24.44-1.11,35.22,6.31.92.63,2.11,1,2.58,3a45.14,45.14,0,0,0-13-3.06c-17.93-1.51-32.63,5.56-45.9,16.7a8.29,8.29,0,0,0-2.27,2.85c-4.86,10.31-.39,21.34,10.43,24.94,13.47,4.47,25.3.63,35.84-8A137.11,137.11,0,0,0,385.16,283a70.87,70.87,0,0,1,23-15.83,168.2,168.2,0,0,0,17.58-9A37.26,37.26,0,0,0,438.49,246.59Z" transform="translate(0 0.02)" style="fill:#6a374f"/><path d="M251.59,74.55c2,0,2.43,1.12,3.17,1.86a11.71,11.71,0,0,0,4.38,3c.73.25,1.6.45,2.17-.29s-.05-1.25-.35-1.83c-4.19-8.41-8.77-16.59-14.79-23.86-7.5-9-16.32-16.24-28.11-18.85a25.43,25.43,0,0,0-19,2.65c4.21.94,7.76,1.38,11.08,2.68a38.51,38.51,0,0,1,9.68,5.26c2.82,2.18,5.56,4.48,8.25,6.83s5.43,4.49,7.25,7.6c-4.72-2.49-9.06-5.45-13.8-7.7-5.75-2.74-11.58-5.44-18.06-5.79C192,45.48,180.23,54.18,177,65.47a50,50,0,0,0-1.66,18.58c1.44,15.25,7.24,29,15.28,41.77,21.29,33.8,50.48,58,88.16,71.83,2.27.83,2.46.23,2.11-1.81-1.08-6.34,0-12.43,2.31-18.37a73.59,73.59,0,0,1,9.27-16.62c7.88-10.9,17.22-20.51,26.56-30.11,7.15-7.36,14.66-14.42,19.86-23.44.42-.72.75-1.68,2-1.64.55,2-.4,3.69-1.07,5.4a98.91,98.91,0,0,1-9.77,18.26c-8,12-17.72,22.7-26.45,34.15a55,55,0,0,0-8,13.27c10.16-10.62,21.72-19.61,32.37-29.6a174.44,174.44,0,0,0,21.3-23.57c12.9-17.44,19.25-36.9,17.87-58.63-.57-9.12-3.25-17.58-10.09-24.16a26.75,26.75,0,0,0-14.75-7.15c15.27,16,13.38,33.6,5.5,52.2-.89-1.3-.37-2.12-.18-2.94A49.46,49.46,0,0,0,346,54.22a25.79,25.79,0,0,0-25-17.35,35.54,35.54,0,0,0-17.34,4.49c-13.87,7.93-25.92,17.55-30.41,34a17.18,17.18,0,0,1-4,7.27c-2.31,2.47-5.12,3.73-8.45,2.59C255.74,83.46,253.8,79.13,251.59,74.55Z" transform="translate(0 0.02)" style="fill:#6a374f"/><path d="M219.78,45.17c2.82,2.18,5.56,4.48,8.25,6.83s5.43,4.49,7.25,7.6c-4.72-2.49-9.06-5.45-13.8-7.7-5.67-2.71-11.42-5.35-17.79-5.76.23.07.46.14.69.23,13.38,4.79,25.19,12.47,37.4,19.55,5.57,3.23,11.09,6.06,16.78,6.69a109.08,109.08,0,0,0-12.39-19.18c-7.5-9-16.32-16.24-28.11-18.85a25.43,25.43,0,0,0-19,2.65c4.21.94,7.76,1.38,11.08,2.68A38.27,38.27,0,0,1,219.78,45.17Z" transform="translate(0 0.02)" style="fill:#6a374f"/><path d="M277,66.09a116.15,116.15,0,0,1,11.62-14.36A49.59,49.59,0,0,0,276.81,66.2Z" transform="translate(0 0.02)" style="fill:#6a374f"/><path d="M367.14,64.94c-.57-9.12-3.25-17.58-10.09-24.16a26.75,26.75,0,0,0-14.56-7.11c.54.61,1.05,1.26,1.54,1.93,9.67,11.25,11.25,23.23,8.51,35.77,0,11.8-4.88,23.5-11.63,34.37.5,1.94-.43,3.63-1.09,5.32a98.91,98.91,0,0,1-9.77,18.26c-8,12-17.72,22.7-26.45,34.15a54.66,54.66,0,0,0-8,13.27c10.15-10.62,21.71-19.61,32.36-29.6a174.44,174.44,0,0,0,21.3-23.57C362.17,106.13,368.52,86.67,367.14,64.94Z" transform="translate(0 0.02)" style="fill:#6a374f"/><path d="M94,320.17c-7.86-13.25-6.43-27.65-4.12-42.2,1.59-10,1.7-17.57-.71-26.7A47.92,47.92,0,0,0,84,238.05c-.42-.68-.8-1.28-1.19-1.85a104,104,0,0,1-.73,41.58C79.81,288.37,77.84,299,78,309.93c.12,10.45,3,19.83,10.71,27.28,8.15,7.85,17.66,9.17,27.65,3.93,2.71-1.42,5.31-3,8-4.48C111.78,338.71,100.32,330.84,94,320.17Z" transform="translate(0 0.02)" style="fill:#6a374f"/><path d="M333.56,282.18a41.64,41.64,0,0,1-5.1-5.27c-4.5,10.16,0,20.9,10.63,24.44,13.47,4.47,25.3.63,35.85-8l.26-.23C360.45,294.84,345.07,292.12,333.56,282.18Z" transform="translate(0 0.02)" style="fill:#6a374f"/><path d="M282.74,118.74c17,9.87,38.06-11.07,43.55-21.25C339.54,72.9,298,58.63,295.05,88.36,292.76,111.64,277.36,110.85,282.74,118.74Z" transform="translate(0 0.02)" style="fill:#6a374f"/><path d="M268.68,134.59c-9.11.64-8.13,14.81,1,14.17S277.81,134,268.68,134.59Z" transform="translate(0 0.02)" style="fill:#6a374f"/></g><g id="Layer_1-2" data-name="Layer 1-2"><path d="M444.54,221.71c-.63.64-1.27,1.26-1.86,1.93-9.68,11.12-21.69,13.53-35.51,9.71a138.91,138.91,0,0,1-30.75-12.19,63.93,63.93,0,0,0-8.22-3.73c-14.86-5.74-29.43-4.43-43.45,2.58A34.59,34.59,0,0,0,307,240.47c-2.3,6.82-2.11,13.42,2.81,19.25.74.87,1.2,1.65.18,2.57L297.3,273.71c-.21-.54-.39-.76-.35-.93.28-1.31.61-2.6.91-3.9,5-21.8,5.19-43-7.58-62.64-5.2-8-4.47-15.76.42-23.5a65.34,65.34,0,0,1,8.94-10.83c6.34-6.46,13.28-12.27,20.06-18.26,14-12.39,27.19-25.59,36.68-41.92C367.63,92.27,372.6,71.34,368.58,49c-3.8-21.09-18.4-34.5-39.78-35C299,13.38,276.9,28.41,260,52c-2.52,3.52-2.25,3.72-4.59-.14-6-9.92-13-19-22.47-25.89-9-6.64-19-10.91-30.43-10.59-13.82.38-24,7.72-32.34,17.91C155.67,51,153.72,71,159.77,92.37c5,17.78,14,33.54,25.75,47.71,15.16,18.35,31.63,35.24,53.21,46.25,8.86,4.53,18,8.45,27,12.58,3.85,1.76,7.84,3.41,10.73,6.68,5.91,6.72,10.56,14.21,12.38,23.06a78.71,78.71,0,0,1-7.08,53c-6.14,12-16.35,19.56-28.47,24.79-8.81,3.8-17.73,7.36-26.5,11.27C213,323.9,203,334.06,196.34,347.58a84.6,84.6,0,0,0-5.26,13c-.63,2.11-1.29,2.33-2.71.54a34.63,34.63,0,0,0-13.31-9.9c-5.39-2.43-10.91-4.57-16.34-6.92A45.84,45.84,0,0,1,139.58,329a5.5,5.5,0,0,1-.72-5.84c3.73-10.05,8.49-19.68,11.68-29.94C163.69,251,134.67,211,96.84,206.43c-4.43-.54-8.86-1.05-13.3-1.59C73,203.55,63.05,201.3,54.22,194.13c-10.38-8.43-23-12.58-36.48-13.71-1.26-.1-2.66-.58-3.74.62.44.88,1.29.87,2,1.06,8.26,2.21,15.82,6,23.28,10.1C51.71,199,59,209.47,62.43,223.1c4.31,17,3.38,33.79-.39,50.73-2.72,12.23-4.33,24.66-2.43,37.24a44.08,44.08,0,0,0,13,25.49c11.21,11,25.81,13.1,39.73,5.85,4.93-2.57,9.44-6,15-7.23,2.39-.54,3.87-.12,5.4,1.89a51.07,51.07,0,0,0,19.71,15.71c5.08,2.32,10.3,4.31,15.42,6.52,13.49,5.81,19,14.54,18.15,29.16-.75,12.94-.78,25.88-.54,38.84.29,15.07.78,30.14.21,45.21-.45,12-5.37,18.23-16.65,21.9-3.73,1.22-7.56.9-11.29.4-16.6-2.22-33-.74-49.2,2.93-3.52.79-7.27,1-10.46,3a5.65,5.65,0,0,0,2.35.14,106.72,106.72,0,0,1,32.69,1.18c22.57,4.07,45.35,4.35,68.09,4.45,21.64.09,43.24-2.27,64.91-2.52,10.81-.12,21.65-.09,32.35-2.32a173.71,173.71,0,0,1,21.55-3c3.93-.33,7.84-.91,11.76-1.38v-.75c-1.28-.11-2.55-.27-3.82-.33-9.48-.41-19-.73-28.4-1.84a121.7,121.7,0,0,0-19.36-1.13c-21.53.93-43.06,1.42-64.59-.21-8-.61-12.9-5-15.77-12a46.64,46.64,0,0,1-3.25-17.32c-.33-24.12.61-48.24.32-72.35a87.19,87.19,0,0,1,2.81-23.85c5.09-19,15-33.92,33.93-41.75,12.88-5.34,25.82-10.49,38.13-17.21,6.54-3.57,12.79-7.21,18-12.51s10.8-10.71,16.21-16c.61-.61,1.2-1.67,2.12-1.4s.66,1.52.71,2.36c.56,9.49,5.49,16.1,13.7,20.37,7.89,4.12,16.37,5.07,25.09,3.81,12.73-1.84,23.05-8.33,31.6-17.55a83.77,83.77,0,0,1,31.34-21.76A43,43,0,0,0,428,252.65a93,93,0,0,0,14.81-25c.8-2,2.1-3.78,2.39-6.09C444.74,221.68,444.6,221.65,444.54,221.71Z" transform="translate(0 0.02)" style="fill:#fff;stroke:#fff;stroke-linecap:round;stroke-linejoin:round;stroke-width:28px"/><g id="_5xcnZU.tif" data-name=" 5xcnZU.tif"><path d="M332.86,497.4c-3.92.47-7.83,1.05-11.76,1.38a173.71,173.71,0,0,0-21.55,3C288.85,504,278,504,267.2,504.1c-21.67.25-43.27,2.61-64.91,2.52-22.74-.1-45.52-.38-68.08-4.45A106.71,106.71,0,0,0,101.52,501a5.7,5.7,0,0,1-2.36-.14c3.19-2,6.94-2.25,10.46-3,16.23-3.67,32.6-5.15,49.2-2.93,3.73.5,7.56.82,11.29-.4,11.28-3.67,16.2-9.94,16.65-21.9.57-15.07.08-30.14-.21-45.21-.24-13-.21-25.9.54-38.84.84-14.62-4.66-23.35-18.15-29.16-5.12-2.21-10.34-4.2-15.42-6.52a51.07,51.07,0,0,1-19.71-15.71c-1.53-2-3-2.43-5.4-1.89-5.59,1.27-10.1,4.66-15,7.23-13.92,7.25-28.52,5.14-39.73-5.85a44,44,0,0,1-13-25.49c-1.91-12.58-.3-25,2.42-37.24,3.77-16.94,4.7-33.72.4-50.73-3.5-13.72-10.77-24.17-23.2-31-7.46-4.09-15-7.89-23.28-10.1-.73-.19-1.58-.18-2-1.06,1.08-1.2,2.48-.72,3.74-.62,13.45,1.13,26.1,5.28,36.48,13.71,8.83,7.17,18.73,9.42,29.32,10.71,4.44.54,8.87,1,13.3,1.59,37.83,4.59,66.85,44.57,53.7,86.82-3.19,10.26-7.95,19.89-11.68,29.94a5.5,5.5,0,0,0,.72,5.84,45.7,45.7,0,0,0,19.14,15.27c5.43,2.35,10.95,4.49,16.34,6.92a34.58,34.58,0,0,1,13.32,9.9c1.41,1.79,2.07,1.57,2.7-.54a84.6,84.6,0,0,1,5.26-13C204,334.06,214,323.9,227.81,317.75c8.77-3.91,17.69-7.47,26.51-11.27,12.11-5.23,22.32-12.78,28.46-24.79a78.71,78.71,0,0,0,7.08-53c-1.82-8.85-6.47-16.34-12.38-23.06-2.89-3.27-6.88-4.92-10.73-6.68-9-4.13-18.16-8-27-12.58-21.58-11-38-27.9-53.21-46.25-11.72-14.17-20.71-29.93-25.75-47.71C154.72,71,156.67,51,171.19,33.26c8.36-10.19,18.53-17.53,32.34-17.91C215,15,224.92,19.3,234,25.94c9.44,6.92,16.46,16,22.47,25.89,2.34,3.86,2.08,3.66,4.59.14C277.9,28.41,300,13.38,329.8,14c21.38.46,36,13.87,39.78,35,4,22.36-.95,43.29-12.25,62.75-9.49,16.33-22.65,29.53-36.68,41.92-6.78,6-13.71,11.8-20.06,18.26a65.34,65.34,0,0,0-8.94,10.83c-4.88,7.74-5.62,15.52-.42,23.5,12.77,19.62,12.6,40.84,7.58,62.64-.3,1.3-.63,2.59-.91,3.9a4.49,4.49,0,0,0,.35.93l12.69-11.42c1-.92.56-1.7-.18-2.57-4.92-5.83-5.1-12.43-2.81-19.25A34.57,34.57,0,0,1,325.75,220c14-7,28.59-8.32,43.45-2.58a64.81,64.81,0,0,1,8.23,3.73,138.15,138.15,0,0,0,30.74,12.19c13.82,3.82,25.83,1.41,35.51-9.71.59-.67,1.23-1.29,1.86-1.93.06-.06.21,0,.65-.1-.29,2.31-1.59,4.13-2.38,6.09a93.29,93.29,0,0,1-14.81,25,43.13,43.13,0,0,1-17.49,13.13,83.85,83.85,0,0,0-31.34,21.76c-8.55,9.22-18.87,15.71-31.6,17.55-8.72,1.26-17.2.31-25.09-3.81-8.21-4.27-13.14-10.88-13.7-20.37,0-.84.35-2.05-.71-2.36s-1.51.79-2.12,1.4q-8,8.07-16.05,16.17c-5.23,5.3-11.48,8.94-18,12.51-12.31,6.72-25.25,11.87-38.13,17.21-18.89,7.83-28.83,22.79-33.93,41.75A86.93,86.93,0,0,0,198,391.44c.29,24.11-.65,48.23-.32,72.35a46.64,46.64,0,0,0,3.25,17.32c2.87,7,7.75,11.42,15.77,12,21.53,1.63,43.06,1.14,64.59.21a121.7,121.7,0,0,1,19.36,1.13c9.44,1.11,18.92,1.43,28.4,1.84,1.27.06,2.55.22,3.82.33Z" transform="translate(0 0.02)" style="fill:#474747;stroke:#474747;stroke-miterlimit:10;stroke-width:2px"/></g><path d="M69.56,210.69a11.52,11.52,0,0,0,.16,1.76c6.94,18.75,7.78,37.85,3.65,57.33-2.24,10.59-4.22,21.25-4.09,32.15.12,10.45,3,19.83,10.71,27.28,8.15,7.85,17.66,9.17,27.65,3.93,4.44-2.33,8.6-5.23,13.37-6.9,1.66-.59,1.64-1.44,1-2.8a27.87,27.87,0,0,1-2.71-9.28c-.71-6.65-1.34-13.32-2-20-1.63-17.08-6.72-32.75-18.38-45.8-.55-.62-1.39-1.22-.83-2.35,1.86.44,3,1.92,4.38,3,14.29,10.85,23,25,25,43,.72,6.21,1.19,12.44,1.8,18.66a8.06,8.06,0,0,0,1.57,4.73c3.06-7.81,6.09-15.09,8.78-22.5a60.21,60.21,0,0,0,3.18-28c-2.56-21.63-19.88-41.78-40.66-46.72C91.49,215.61,80.3,215.26,69.56,210.69Z" transform="translate(0 0.02)" style="fill:#9ecc6d"/><path d="M430.49,238.59c-16.84,6.69-32.94,4.64-48.68-3.1-3.31-1.63-6.65-3.19-9.85-5-11.26-6.38-23.19-7.5-35.65-4.78-9.2,2-16.52,6.59-20.7,15.37-1.95,4.09-2.58,8.23-.82,12.62,1,2.57,2,2.88,4.27,1.06,7.18-5.81,15-10.34,24.3-12.11,12.6-2.4,24.44-1.11,35.22,6.31.92.63,2.11,1,2.58,3a45.14,45.14,0,0,0-13-3.06c-17.93-1.51-32.63,5.56-45.9,16.7a8.29,8.29,0,0,0-2.27,2.85c-4.86,10.31-.39,21.34,10.43,24.94,13.47,4.47,25.3.63,35.84-8A137.11,137.11,0,0,0,377.16,275a70.87,70.87,0,0,1,23-15.83,168.2,168.2,0,0,0,17.58-9A37.26,37.26,0,0,0,430.49,238.59Z" transform="translate(0 0.02)" style="fill:#9ecc6d"/><path d="M243.59,66.55c2,0,2.43,1.12,3.17,1.86a11.71,11.71,0,0,0,4.38,3c.73.25,1.6.45,2.17-.29s-.05-1.25-.35-1.83c-4.19-8.41-8.77-16.59-14.79-23.86-7.5-9-16.32-16.24-28.11-18.85a25.43,25.43,0,0,0-19,2.65c4.21.94,7.76,1.38,11.08,2.68a38.51,38.51,0,0,1,9.68,5.26c2.82,2.18,5.56,4.48,8.25,6.83s5.43,4.49,7.25,7.6c-4.72-2.49-9.06-5.45-13.8-7.7-5.75-2.74-11.58-5.44-18.06-5.79C184,37.48,172.23,46.18,169,57.47a50,50,0,0,0-1.66,18.58c1.44,15.25,7.24,29,15.28,41.77,21.29,33.8,50.48,58,88.16,71.83,2.27.83,2.46.23,2.11-1.81-1.08-6.34,0-12.43,2.31-18.37a73.59,73.59,0,0,1,9.27-16.62c7.88-10.9,17.22-20.51,26.56-30.11,7.15-7.36,14.66-14.42,19.86-23.44.42-.72.75-1.68,2-1.64.55,2-.4,3.69-1.07,5.4a98.91,98.91,0,0,1-9.77,18.26c-8,12-17.72,22.7-26.45,34.15a55,55,0,0,0-8,13.27c10.16-10.62,21.72-19.61,32.37-29.6a174.44,174.44,0,0,0,21.3-23.57c12.9-17.44,19.25-36.9,17.87-58.63-.57-9.12-3.25-17.58-10.09-24.16a26.75,26.75,0,0,0-14.75-7.15c15.27,16.05,13.38,33.6,5.5,52.2-.89-1.3-.37-2.12-.18-2.94A49.46,49.46,0,0,0,338,46.22a25.79,25.79,0,0,0-25-17.35,35.54,35.54,0,0,0-17.34,4.49c-13.87,7.93-25.92,17.55-30.41,34a17.18,17.18,0,0,1-4,7.27c-2.31,2.47-5.12,3.73-8.45,2.59C247.74,75.46,245.8,71.13,243.59,66.55Z" transform="translate(0 0.02)" style="fill:#eab9e5"/><path d="M211.78,37.17c2.82,2.18,5.56,4.48,8.25,6.83s5.43,4.49,7.25,7.6c-4.72-2.49-9.06-5.45-13.8-7.7-5.67-2.71-11.42-5.35-17.79-5.76.23.07.46.14.69.23,13.38,4.79,25.19,12.47,37.4,19.55,5.57,3.23,11.09,6.06,16.78,6.69a109.08,109.08,0,0,0-12.39-19.18c-7.5-9-16.32-16.24-28.11-18.85a25.43,25.43,0,0,0-19,2.65c4.21.94,7.76,1.38,11.08,2.68A38.27,38.27,0,0,1,211.78,37.17Z" transform="translate(0 0.02)" style="fill:#e077bd"/><path d="M269,58.09a116.15,116.15,0,0,1,11.62-14.36A49.59,49.59,0,0,0,268.81,58.2Z" transform="translate(0 0.02)" style="fill:#e077bd"/><path d="M359.14,56.94c-.57-9.12-3.25-17.58-10.09-24.16a26.75,26.75,0,0,0-14.56-7.11c.54.61,1.05,1.26,1.54,1.93,9.67,11.25,11.25,23.23,8.51,35.77,0,11.8-4.88,23.5-11.63,34.37.5,1.94-.43,3.63-1.09,5.32a98.91,98.91,0,0,1-9.77,18.26c-8,12-17.72,22.7-26.45,34.15a54.66,54.66,0,0,0-8,13.27c10.15-10.62,21.71-19.61,32.36-29.6a174.44,174.44,0,0,0,21.3-23.57C354.17,98.13,360.52,78.67,359.14,56.94Z" transform="translate(0 0.02)" style="fill:#e077bd"/><path d="M86,312.17c-7.86-13.25-6.43-27.65-4.12-42.2,1.59-10,1.7-17.57-.71-26.7A47.92,47.92,0,0,0,76,230.05c-.42-.68-.8-1.28-1.19-1.85a104,104,0,0,1-.73,41.58C71.81,280.37,69.84,291,70,301.93c.12,10.45,3,19.83,10.71,27.28,8.15,7.85,17.66,9.17,27.65,3.93,2.71-1.42,5.31-3,8-4.48C103.78,330.71,92.32,322.84,86,312.17Z" transform="translate(0 0.02)" style="fill:#79aa41"/><path d="M325.56,274.18a41.64,41.64,0,0,1-5.1-5.27c-4.5,10.16,0,20.9,10.63,24.44,13.47,4.47,25.3.63,35.85-8l.26-.23C352.45,286.84,337.07,284.12,325.56,274.18Z" transform="translate(0 0.02)" style="fill:#79aa41"/><path d="M274.74,110.74c17,9.87,38.06-11.07,43.55-21.25C331.54,64.9,290,50.63,287.05,80.36,284.76,103.64,269.36,102.85,274.74,110.74Z" transform="translate(0 0.02)" style="fill:#f4ddea"/><path d="M260.68,126.59c-9.11.64-8.13,14.81,1,14.17S269.81,126,260.68,126.59Z" transform="translate(0 0.02)" style="fill:#f4ddea"/></g></g></svg>