<svg id="Layer_1" data-name="Layer 1" xmlns="http://www.w3.org/2000/svg" viewBox="0 0 310 418"><title>ice-cream</title><g id="Layer_2" data-name="Layer 2"><g style="opacity:0.12"><path d="M295.61,394.28c-.94-12.41-3.74-24.54-5.74-36.79-5.14-31.52-10.58-63-15.7-94.51s-9.83-63.1-15.17-94.57c-.86-5.08.87-7.6,4.55-9.89,1.91-1.2,3.93-2.25,5.75-3.58,4.74-3.44,7.22-8.19,5.5-13.88-1.15-3.77-.16-6.27,1.74-9.29,5.31-8.41,1-18.85-8.63-21.44-5.57-1.5-11.28-1.88-16.68.28-4.06,1.63-5.68.63-6.9-3.44A139.92,139.92,0,0,0,224,65.59c-16.32-22.76-37.1-38.93-65.89-42.46a113.89,113.89,0,0,0-43.32,2.14c-19.86,5-39.14,11.43-54.35,26.14C43.83,67.49,32.2,86.72,26.37,109c-10.08,38.62-3,73.78,24.15,103.61,6.29,6.9,9.5,12.16,6,21.73-3.85,10.44,3.72,21.57,13.91,22.23A66.42,66.42,0,0,0,88,255.33a10.17,10.17,0,0,1,9.26,2q64.26,49.14,128.66,98.11,29.29,22.31,58.6,44.59c2.52,1.91,5.32,4.35,8.77,2.54S295.83,397.19,295.61,394.28Z" transform="translate(0 0.02)" style="fill:#6a374f;stroke:#6a374f;stroke-linecap:round;stroke-linejoin:round;stroke-width:28px"/><path d="M212.07,169.93a18.21,18.21,0,0,1,8.57-4.87c14-4.59,20.64-13.95,20.09-32.57s-7.26-35.9-16.22-52.22a117.54,117.54,0,0,0-29-35.3C178,30.67,157.7,25.75,135.74,27c-25.32,1.4-49.61,7.62-69.22,24.22-32.42,27.44-51.19,76-34,122.85,6.86,18.68,17.6,34.4,34.6,45.35,1.64,1.05,3,2.09.33,3.79-5.37,3.39-8.15,14.31-5.09,19.79,1.48,2.65,3.64,4.86,6.88,4.5s2.17-3.5,2.83-5.47a36.12,36.12,0,0,1,4.83-10c.75-1,1.36-2.17,2.08-3.23s-.42-3.56,1.7-3.36c1.67.15,1.89,2.28,2.4,3.85,1.32,4.13-1.06,7.52-1.91,11.23-.43,1.83-1.29,4,.4,5.49,2,1.73,4.12.33,5.78-.78,9.33-6.29,19.56-7,30.24-5.17,2.7.46,5.39,1,8.08,1.57,22.2,4.36,47.59-8.61,56.77-29.17,3.36-7.5,8.32-13,16.51-15a11.65,11.65,0,0,0,7.66-5.5c1.23-2.17,1.86-4.59.6-6.94s-3.8-2.17-6-2.08c-3.48.13-6.48,1.83-9.57,3.21-2.27,1-4.27,2.81-7.68,2.94,3.83-6.29,9.78-8.28,15.46-10.65,5.33-2.22,9.77-1,13.33,3.54,1,1.27,2,2.88,3.86,2.45,6.1-1.42,12.21-2.87,18.21-4.67,2-.58,3.32-2.49,4.14-4.53s.94-3.74-.47-5.46a4.6,4.6,0,0,0-5.18-1.52C226.66,169.84,219.86,169,212.07,169.93Z" transform="translate(0 0.02)" style="fill:#6a374f;stroke:#6a374f;stroke-miterlimit:10"/><path d="M165,128.13c2.56-7.3,6.93-13.15,7.67-21.1s-.94-15.69-3.21-23.16c-.72-2.39-1.44-5.65-2.53-8.73a11,11,0,0,0-4.64-1.56c-4.5-.36-7.09,2.84-7.85,6.84s-.41,8.19-1.28,12.21a33.35,33.35,0,0,1-6,13.37,14.27,14.27,0,0,1-9.07,5.49,25.6,25.6,0,0,1-4.55.05c-.57,0-1.14-.1-1.7-.1h-.2l-.4.07c-3.08.56-8.17,4.72-7.49,8.69a14.43,14.43,0,0,0,4.26,4.67c5.24,3.8,12.11,3.8,17.4,7.37,5.78,3.89,6.89,12.66,9.84,18.59a75,75,0,0,0,11.54,16.81,2.6,2.6,0,0,0,3.65.35,2.89,2.89,0,0,0,.35-.35c3.64-5.16,2.19-10.87-.94-15.91C165.21,144.12,161.79,137.17,165,128.13Z" transform="translate(0 0.02)" style="fill:#6a374f"/><path d="M216,321.48c-1.67-1.13-3.36-2.23-5-3.4-22.38-15.91-43.71-33.21-65.72-49.6-.49-.43-1-.83-1.52-1.21-1-.62-2-2.12-3.34-1.07-1.09.83-.28,2.13,0,3.16.82,3.29,1.91,6.51,2.6,9.82a11.24,11.24,0,0,0,4.5,7.13q36.49,27.26,72.9,54.62c1,.75,2.06,2.14,3.34,1.46,1.54-.82.82-2.58.76-4-.3-6.94-3.09-13.36-3.65-20.42a223,223,0,0,0-5.33-34.38,10.35,10.35,0,0,1,1.13-6.92c1.08,7,6.17,6.14,10.87,6.2,3,.05,4.14-1.25,3.63-4.15-.95-5.57-2-11.12-2.79-16.71-.48-3.48-2.18-5-5.66-5.25-9.82-.83-19.62-1.86-29.42-2.87-1.81-.19-3.74-.17-6.2-2,3.08-.16,5.14-.39,7.2-.34,8.71.25,17.43.59,26.15.87,5.75.18,6.46-.8,5.33-6.41-.46-2.26-1.53-3.41-3.78-3.66-2.63-.3-5.25-.7-7.88-1.05v-1.36c2.15-.24,4.29-.52,6.44-.71,2.54-.21,3.82-1.28,3.4-4.06-2-12.76-3.84-25.53-5.79-38.28-.19-1.24-.44-2.75-2-3-1.36-.19-1.88,1.17-2.37,2.1-2.69,5.14-7.22,7.64-12.56,9.06-3.72,1-7.37,2.71-8.86,6.24-3.8,9-10.57,16.31-14.16,25.4a2.13,2.13,0,0,1-2.31,1.36c-4-.24-7.07,2-10.38,3.61-7.85,3.84-15.8,7.34-24.56,8.7-2,.32-5.16-.77-5.68,2.32-.44,2.58,1.66,4.38,3.64,5.88,1,.78,2.07,1.55,3.09,2.35q32.92,25.92,65.82,51.87C210.88,315.21,214.1,317.57,216,321.48Zm24.51-5.72c-2-1-2.1-2.66-2.44-4.24-1.25-5.83-2.57-11.65-3.84-17.48-1.66-7.64-1.68-7.44-9.52-8.74-4.41-.73-5.12,1-4.38,4.71,1.75,8.69,3.7,17.36,5,26.13,1.09,7.42,4.11,14.43,4,22.12-.13,7.47,3.62,12.64,10,16.95,11.73,8,22.86,16.87,34.24,25.37l7,5.22c2.2,1.64,3.25,1,3.16-1.65a29.5,29.5,0,0,0-.32-3.38c-4.48-28.52-9-57-13.39-85.56-.55-3.54-2.13-5-5.6-5.26-7.08-.61-14.13-1.52-21.2-2.29-5.36-.59-5.54-.25-4.92,5,.7,7.6,2.7,15.13,2.16,23.1ZM249,171.12c-3.11,9.08-3.2,10.25-10,15.76-1.68,1.37-1.4,3-1.13,4.81,1.87,12.59,3.74,25.17,5.41,37.78,1.64,12.38.79,9.92,11.49,10.15,5.48.12,6.26-.81,5.41-6.19q-4.42-27.9-9-55.78C250.84,175.58,251.64,173,249,171.12Zm-2.62,93.11c-2.53-5.54-3.2-5.76-9.45-6.06-3.3-.16-4.49,1.07-3.91,4.25,1,5.71,2.18,11.4,3,17.14.44,3,1.9,4.08,4.79,4.23,7.58.38,15.16.84,22.71,1.49,3.42.3,4.44-1.21,4-4.22-.48-3.35-1.11-6.68-1.65-10-2-12.43.36-10.47-13.43-11.6-3-.27-5.35.16-6,4.77Zm-12.95-24.75c5.6.63,7.26-.46,6.55-4.47q-3.71-21.16-7.52-42.32c-.39-2.19-1-4.22-4-3.63-2.38.47-4.38,1.33-4.11,4.34.08,1,.09,1.94.21,2.9q2.35,19.41,4.72,38.83c.34,2.47,1.23,4.39,4.18,4.35Zm-119.6,7.9a41.58,41.58,0,0,0-10.69,0c-1.12.15-2.35.35-2.69,1.65s.56,2.08,1.49,2.78q15.59,11.83,31.18,23.64c.74.57,1.63,1.34,2.58.54s.37-1.82.09-2.69c-1.13-3.52-2.46-7-3.5-10.54-2.69-9.37-9.7-13.4-18.43-15.38ZM253.08,254c2.36.11,4.44.25,6.52.3,1.55,0,2.83-.32,3.23-2.14,1-4.62-1.27-7.72-6.08-8.11-1.59-.13-3.2-.14-4.8-.3-7.19-.7-7.07.76-5.49,7.48C247.35,255,251,253.22,253.08,254ZM236,253c2-.67,5.81,2.21,6.54-2.58.64-4.11-1.6-7.41-5.19-7.47-2.41,0-5.83-1.63-6.63,2.53C229.88,250,231.6,252.47,236,253Z" transform="translate(0 0.02)" style="fill:#6a374f;stroke:#6a374f;stroke-miterlimit:10"/><path d="M220.54,239.19c2.37-.2,3.63-1.16,3.44-3.55-1.44,1-2.84,2-4.18,3.08-.24.2-.47.42-.7.62Z" transform="translate(0 0.02)" style="fill:#6a374f"/><path d="M223.12,330c-6.82-4.76-13.59-9.59-20.13-14.74a121.61,121.61,0,0,1-17.06-15.65c-13.58-10.35-27-20.9-40.7-31.09-.49-.43-1-.83-1.52-1.21-1-.62-2-2.12-3.34-1.07-1.09.83-.28,2.13,0,3.16.82,3.29,1.91,6.51,2.6,9.82a11.24,11.24,0,0,0,4.5,7.13Q184,313.6,220.37,341c1,.76,2.06,2.15,3.34,1.47,1.54-.82.82-2.58.76-4A45.3,45.3,0,0,0,223.12,330Z" transform="translate(0 0.02)" style="fill:#6a374f"/><path d="M132.32,262.74c-2.72-9.35-9.73-13.38-18.46-15.36a41.58,41.58,0,0,0-10.69,0c-1.12.15-2.35.35-2.69,1.65s.52,2.06,1.52,2.77l31.18,23.64c.74.56,1.63,1.33,2.58.53s.37-1.82.09-2.69C134.69,269.76,133.36,266.29,132.32,262.74Z" transform="translate(0 0.02)" style="fill:#6a374f"/><path d="M179,290c-4.14-6.43-8.14-14.29-3.69-21.15,2.26-3.49,5.19-6.58,7.55-10,1.53-2.24,3.17-4.41,4.83-6.56-.22-.14-.43-.28-.66-.45l1.06-.06,2.22-2.83c5.92-7.46,12.05-15.32,19.25-21.59a64.3,64.3,0,0,1,12-8q-1.69-11.28-3.41-22.56c-.19-1.24-.44-2.75-2-3-1.36-.19-1.88,1.17-2.37,2.1-2.69,5.14-7.22,7.64-12.56,9.06-3.72,1-7.37,2.71-8.86,6.24-3.8,9-10.57,16.31-14.16,25.4a2.13,2.13,0,0,1-2.31,1.36c-4-.24-7.07,2-10.38,3.61-7.85,3.84-15.8,7.34-24.56,8.7-2,.32-5.16-.77-5.68,2.32-.44,2.58,1.66,4.38,3.64,5.88,1,.78,2.07,1.55,3.09,2.35Z" transform="translate(0 0.02)" style="fill:#6a374f"/><path d="M283.25,380.77l-1.5-9.49q-14.17-9.16-27.64-19.37c-8.17-6.22-16.64-12-25.1-17.87a31.32,31.32,0,0,1,.22,4.22c-.13,7.47,3.62,12.64,10,16.95,11.73,8,22.86,16.87,34.24,25.37l7,5.22c2.2,1.64,3.25,1,3.16-1.65A29.62,29.62,0,0,0,283.25,380.77Z" transform="translate(0 0.02)" style="fill:#6a374f"/><path d="M240.52,209.48c5.4-3.3,10.26-7.21,13.81-12.62q-1.56-9.6-3.14-19.21c-.35-2.07.45-4.61-2.16-6.53-3.11,9.08-3.2,10.25-10,15.76-1.68,1.37-1.4,3-1.13,4.81Q239.22,200.59,240.52,209.48Z" transform="translate(0 0.02)" style="fill:#6a374f"/><path d="M224.6,196.3q1.23,10.14,2.47,20.28c3-1.48,6-3,8.89-4.51q-1.72-9.69-3.47-19.38c-.39-2.19-1-4.22-4-3.63-2.38.47-4.38,1.33-4.11,4.34C224.47,194.37,224.48,195.34,224.6,196.3Z" transform="translate(0 0.02)" style="fill:#6a374f"/><path d="M257.68,114.55a28.44,28.44,0,0,0-4.79.34c-5.91,1.23-6.68,2.45-6,8.77,1.25,12.32,1.13,24.45-4.55,35.91-.55,1.12-1.08,2.54.18,3.5s2.39.05,3.29-.78a17,17,0,0,0,3.08-3.57,20.61,20.61,0,0,1,9.09-7.87c8.71-4.32,9.29-11.33,1.67-17.13-1.39-1.06-4.63-1.51-3.42-4,.92-1.92,3.58-.35,5.45,0a3.57,3.57,0,0,1,1.25.54c3.22,2,4.75.21,5.7-2.9C270.62,120.76,266.71,115.72,257.68,114.55Z" transform="translate(0 0.02)" style="fill:#6a374f;stroke:#6a374f;stroke-miterlimit:10"/><path d="M156.33,22.89c28.79,3.53,49.57,19.7,65.89,42.46a139.92,139.92,0,0,1,20.33,41.58c1.22,4.07,2.84,5.06,6.89,3.44,5.4-2.16,11.12-1.78,16.69-.28,9.65,2.59,13.94,13,8.63,21.44-1.9,3-2.89,5.52-1.75,9.29,1.73,5.68-.75,10.44-5.49,13.88-1.82,1.33-3.84,2.38-5.75,3.58-3.68,2.29-5.41,4.81-4.55,9.89,5.34,31.47,10,63.06,15.17,94.57s10.56,63,15.7,94.51c2,12.25,4.8,24.38,5.74,36.79.22,2.91,1.08,6.53-2.31,8.31s-6.25-.63-8.77-2.54q-29.35-22.23-58.6-44.59-64.35-49-128.66-98.11a10.17,10.17,0,0,0-9.26-2,66.64,66.64,0,0,1-17.6,1.28c-10.19-.66-17.76-11.79-13.91-22.23,3.52-9.57.3-14.83-6-21.73-27.17-29.83-34.23-65-24.15-103.61A122,122,0,0,1,58.66,51.17C73.87,36.45,93.15,30.06,113,25A113.93,113.93,0,0,1,156.33,22.89Zm56.16,148.3c3-3.13,5.88-4,8.57-4.87,14-4.59,20.65-13.95,20.09-32.57s-7.26-35.9-16.22-52.22a117.54,117.54,0,0,0-29-35.3c-17.55-14.3-37.81-19.22-59.77-18-25.33,1.4-49.62,7.62-69.23,24.22-32.41,27.43-51.19,76-34,122.85,6.87,18.7,17.61,34.4,34.61,45.35,1.64,1,3,2.09.34,3.79-5.38,3.38-8.15,14.31-5.1,19.79,1.48,2.65,3.64,4.86,6.89,4.5s2.17-3.5,2.82-5.47a36.12,36.12,0,0,1,4.83-10c.75-1,1.37-2.17,2.08-3.23s-.42-3.56,1.7-3.36c1.67.15,1.9,2.28,2.4,3.85,1.33,4.13-1,7.52-1.91,11.23-.42,1.83-1.28,4,.41,5.49,2,1.73,4.12.33,5.78-.78,9.33-6.29,19.56-7,30.23-5.17,2.71.46,5.39,1.05,8.08,1.57,22.2,4.36,47.59-8.61,56.78-29.17,3.35-7.5,8.31-13,16.51-15.05a11.67,11.67,0,0,0,7.66-5.5c1.22-2.17,1.86-4.59.59-6.94s-3.8-2.17-6-2.08c-3.48.13-6.47,1.83-9.57,3.21-2.27,1-4.27,2.81-7.67,2.94,3.82-6.29,9.78-8.28,15.46-10.65,5.33-2.22,9.77-1,13.33,3.54,1,1.27,2,2.88,3.85,2.45,6.11-1.42,12.21-2.87,18.21-4.67,2-.59,3.32-2.49,4.15-4.53s.94-3.74-.48-5.46a4.58,4.58,0,0,0-5.18-1.52C227.09,171.1,220.29,170.29,212.49,171.19ZM216,322.36c-1.67-1.13-3.36-2.23-5-3.4-22.38-15.91-43.71-33.22-65.72-49.61-.52-.38-1-.87-1.52-1.2-1-.62-2-2.12-3.34-1.07-1.09.83-.28,2.13,0,3.16.82,3.29,1.91,6.51,2.6,9.82a11.24,11.24,0,0,0,4.5,7.13Q184,314.45,220.43,341.8c1,.76,2,2.15,3.33,1.46,1.54-.81.83-2.57.76-4-.3-6.95-3.09-13.36-3.65-20.43a224.1,224.1,0,0,0-5.32-34.37,10.29,10.29,0,0,1,1.12-6.92c1.08,7,6.18,6.14,10.87,6.2,3,0,4.14-1.25,3.64-4.16-1-5.56-2-11.11-2.8-16.7-.48-3.48-2.18-5-5.66-5.25-9.82-.83-19.61-1.87-29.42-2.87-1.81-.19-3.74-.18-6.2-2.06,3.08-.15,5.14-.38,7.2-.33,8.72.24,17.43.59,26.15.86,5.75.19,6.46-.79,5.33-6.4-.46-2.26-1.53-3.41-3.77-3.67-2.64-.29-5.26-.69-7.89-1v-1.35c2.15-.24,4.29-.52,6.44-.71,2.54-.22,3.83-1.28,3.4-4.07-2-12.75-3.84-25.52-5.79-38.27-.19-1.24-.44-2.75-2-3-1.36-.19-1.88,1.16-2.37,2.1-2.68,5.14-7.22,7.63-12.56,9.06-3.72,1-7.37,2.71-8.86,6.24-3.8,9-10.57,16.31-14.16,25.39a2.1,2.1,0,0,1-2.31,1.37c-4-.24-7.07,2-10.38,3.6-7.85,3.85-15.8,7.35-24.56,8.71-2,.32-5.16-.77-5.68,2.32-.44,2.58,1.66,4.38,3.64,5.88,1,.78,2.07,1.55,3.09,2.35q32.92,25.92,65.82,51.87C211,316.09,214.17,318.45,216,322.36Zm24.51-5.73c-1.94-1-2.1-2.66-2.44-4.23-1.25-5.84-2.57-11.65-3.84-17.48-1.66-7.64-1.68-7.44-9.52-8.74-4.41-.73-5.12,1-4.38,4.71,1.75,8.69,3.7,17.36,5,26.13,1.08,7.42,4.11,14.43,4,22.11-.13,7.48,3.62,12.65,9.95,17,11.73,8,22.86,16.87,34.25,25.37l7,5.22c2.2,1.64,3.25,1,3.16-1.66a29.33,29.33,0,0,0-.32-3.37c-4.48-28.52-9-57-13.39-85.56-.54-3.55-2.13-5-5.6-5.27-7.08-.6-14.13-1.51-21.2-2.28-5.36-.59-5.54-.25-4.92,5,.85,7.56,2.83,15.09,2.27,23.05ZM249.1,172c-3.11,9.08-3.2,10.25-10,15.76-1.68,1.36-1.4,3-1.13,4.81,1.87,12.58,3.74,25.17,5.41,37.78,1.64,12.38.79,9.91,11.49,10.15,5.48.11,6.26-.81,5.41-6.19q-4.42-27.92-9-55.78C250.91,176.45,251.71,173.92,249.1,172Zm-2.62,93.1c-2.53-5.54-3.2-5.76-9.44-6.06-3.31-.16-4.49,1.08-3.91,4.26,1,5.7,2.17,11.4,3,17.14.44,3,1.91,4.08,4.8,4.23,7.57.38,15.15.84,22.71,1.49,3.41.29,4.43-1.22,4-4.22-.48-3.35-1.1-6.68-1.65-10-2-12.44.36-10.48-13.42-11.6-3-.28-5.41.16-6.09,4.76ZM257.8,114.5a29.92,29.92,0,0,0-5.09.29c-6.27,1.18-7.08,2.4-6.34,8.73,1.44,12.34,1.41,24.49-4.53,35.91-.58,1.12-1.13,2.54.23,3.51s2.53.07,3.48-.75a17.69,17.69,0,0,0,3.25-3.55c2.35-3.7,5.68-6,9.6-7.8,9.23-4.25,9.79-11.27,1.63-17.14-1.49-1.07-4.94-1.54-3.68-4,1-1.92,3.81-.33,5.81,0a4.33,4.33,0,0,1,1.33.56c3.44,2,5.05.25,6-2.86C271.62,120.82,267.41,115.75,257.8,114.5ZM233.53,240.36c5.6.63,7.26-.46,6.55-4.47q-3.71-21.18-7.52-42.33c-.39-2.18-1-4.21-4-3.62-2.38.47-4.38,1.33-4.11,4.34.09,1,.1,1.94.21,2.9Q227,216.59,229.39,236C229.69,238.48,230.58,240.4,233.53,240.36Zm-119.59,7.89a42.57,42.57,0,0,0-10.7,0c-1.12.16-2.35.36-2.69,1.66s.56,2.08,1.49,2.78l31.18,23.64c.74.56,1.63,1.34,2.58.54s.37-1.82.09-2.69c-1.13-3.53-2.46-7-3.49-10.54C129.67,254.27,122.66,250.24,113.94,248.25Zm139.21,6.65c2.36.11,4.44.25,6.53.3,1.54.05,2.82-.33,3.22-2.15,1-4.62-1.27-7.71-6.08-8.11-1.59-.13-3.2-.13-4.8-.29-7.19-.71-7.07.76-5.49,7.47.9,3.79,4.54,2,6.62,2.78Zm-17.05-1c2-.67,5.81,2.21,6.55-2.58.63-4.12-1.61-7.41-5.2-7.47-2.41,0-5.83-1.63-6.63,2.53-.82,4.51.85,7,5.28,7.48Z" transform="translate(0 0.02)" style="fill:#6a374f"/><path d="M121.33,115.89c4,1.78,5.72,4.09,7.47,6.26a16.25,16.25,0,0,0,11.44,6.48c6.68.69,11.11,4.31,14,10.4,2.67,5.55,4.55,11.36,6.66,17.11,1.35,3.64,2.83,7.24,5.46,10.17,1.25,1.39,2.6,3.14,4.9,2.11,2.48-1.11,3-3.32,2.57-5.7a27.47,27.47,0,0,0-4-9.28,63.7,63.7,0,0,1-7.71-17.65c-2-8.2.64-15.26,5.83-21.07,5.93-6.63,6.88-13.36,3.62-21.35-1.59-3.89-3.39-8-1-13.36,2.16,5.69,5.34,9.88,7.85,14.46,3.35,6.09,3,12.09-1,17.76-1.86,2.63-4,5.07-6,7.6-6,7.55-7,15.78-3,24.49,1.74,3.8,4,7.39,6,11.07a16.42,16.42,0,0,1,2.4,9.71c-.6,5.78-5,8-10.08,5.12-3.33-1.92-5.52-4.93-7.34-8.19a32.83,32.83,0,0,1-3.21-7c-2.84-10.44-9-17.58-19.46-21-3.61-1.16-6.23-4-8.3-7.15S124.25,120.42,121.33,115.89Z" transform="translate(0 0.02)" style="fill:#6a374f"/><path d="M98.66,221.1a16.49,16.49,0,0,1,14.07-4.44c9.32,1.18,17.12-1.46,24.09-7.48a10.18,10.18,0,0,1,4.68-2.37c4.43-.72,8.81-1.19,12.16-4.78,1-1,2.71-.93,4.17-.61,1.24.28,2.72.51,2.91,2.07s-1.21,1.66-2.25,2c-.16.06-.38,0-.45.16-6.14,8.27-17.8,4.68-24.89,11.88-3.89,3.95-10.71,2.82-16.28,3.25C111.14,221.25,105.36,221,98.66,221.1Z" transform="translate(0 0.02)" style="fill:#6a374f"/><path d="M181.86,53.73c13.68,1.07,35.51,32.36,32.76,46.51-4.83-8.53-9.44-16.78-14.15-25A79.39,79.39,0,0,0,181.86,53.73Z" transform="translate(0 0.02)" style="fill:#6a374f"/><path d="M73.31,108.37c3.92,3.22,4.32,7,5.29,10.42.66,2.36,1.34,4.66,3,6.49,1.43,1.54,3.21,2.35,5.2,1.33a4,4,0,0,0,2-5c-.66-2.32-1.53-4.58-2.33-6.85-.64-1.82-1.47-3.62.18-6.25,2.82,4.58,6.17,8.46,6.91,13.6.62,4.22-1,7.68-5.3,9.21-3.73,1.33-8-.46-10.18-4.5C75.17,121.39,74.91,115.22,73.31,108.37Z" transform="translate(0 0.02)" style="fill:#6a374f"/><path d="M49.26,155.81a23.7,23.7,0,0,1,9.8,7.05c4.16,4.73,8.86,7.95,15.68,6a11.64,11.64,0,0,1,6.68.59c.9.29,2,.56,1.94,1.78,0,1-1,1.15-1.72,1.45C68.35,178,54,170.81,49.26,155.81Z" transform="translate(0 0.02)" style="fill:#6a374f"/><path d="M98.48,55.33c-4.32,5.72-4.49,13-7.77,19-1.85,3.4-4.35,6-8.38,6.58-1.48.22-3.06-.08-3.53-1.78-.42-1.54,1.1-1.68,2-2.18,4.1-2.16,5.2-6.32,6.76-10.18C89.68,61.67,92.19,56.93,98.48,55.33Z" transform="translate(0 0.02)" style="fill:#6a374f"/><path d="M198.49,93.82c4.82,6.43,8.83,13.29,8.34,21.67a7.56,7.56,0,0,1-7.06,7.41,8.12,8.12,0,0,0-6.84,4.42,9.13,9.13,0,0,1,4.93-8.08c3.93-2.39,4.71-5.55,3.89-9.87C200.77,104.2,199.05,99.22,198.49,93.82Z" transform="translate(0 0.02)" style="fill:#6a374f"/><path d="M102.74,124.6c2.46,8.85-4.39,20.21-13,21.14-1.54.17-3.62.95-4.26-.94s1.65-2,2.8-2.61c6.17-3.42,10.58-8.3,12.72-15.11C101.31,126.21,101.22,125.09,102.74,124.6Z" transform="translate(0 0.02)" style="fill:#6a374f"/><path d="M67,75.17c-2,5.72-2.8,10.42-5.13,14.59-1.15,2-3,3.45-5.59,2.94-1.27-.26-2.72-1-2.7-2.38,0-1.91,1.65-.75,2.59-.9,2.28-.35,2.9-2.19,3.75-4C61.53,82.15,62.07,78.1,67,75.17Z" transform="translate(0 0.02)" style="fill:#6a374f"/><path d="M198,153.35c11,8.55,27.77-4.17,32.59-10.8,11.63-16-16.21-30-21.07-9.36C205.7,149.31,195,147.3,198,153.35Z" transform="translate(0 0.02)" style="fill:#6a374f"/><path d="M188.59,157.91c-6.46-.41-7.12,9.62-.65,10S195.06,158.32,188.59,157.91Z" transform="translate(0 0.02)" style="fill:#6a374f"/><path d="M87.78,122.9a24.65,24.65,0,0,0-8.33-17.73,2.12,2.12,0,0,0-2.59-.34A2.87,2.87,0,0,0,74,108.38a39.14,39.14,0,0,0,9.25,16.41,2.58,2.58,0,0,0,4.53-1.89Z" transform="translate(0 0.02)" style="fill:#6a374f"/><path d="M168.52,211l-.44.31c-1.27.94-2.63,1.8-3.89,2.79a102.4,102.4,0,0,1-8.64,6.76,20.2,20.2,0,0,1-8.89,3.07,16.55,16.55,0,0,1-5.51.63c-8.24-1.19-9.38,5-9.2,6C135.58,250.63,173.41,219.16,168.52,211Z" transform="translate(0 0.02)" style="fill:#6a374f"/><path d="M116.28,226.81c-3.12-.87-20-2-19,4.9C99.14,244.4,121.46,228.24,116.28,226.81Z" transform="translate(0 0.02)" style="fill:#6a374f"/></g><g id="Layer_1-2" data-name="Layer 1-2"><path d="M287.61,386.28c-.94-12.41-3.74-24.54-5.74-36.79-5.14-31.52-10.58-63-15.7-94.51s-9.83-63.1-15.17-94.57c-.86-5.08.87-7.6,4.55-9.89,1.91-1.2,3.93-2.25,5.75-3.58,4.74-3.44,7.22-8.19,5.5-13.88-1.15-3.77-.16-6.27,1.74-9.29,5.31-8.41,1-18.85-8.63-21.44-5.57-1.5-11.28-1.88-16.68.28-4.06,1.63-5.68.63-6.9-3.44A139.92,139.92,0,0,0,216,57.59c-16.32-22.76-37.1-38.93-65.89-42.46a113.89,113.89,0,0,0-43.32,2.14c-19.86,5-39.14,11.43-54.35,26.14C35.83,59.49,24.2,78.72,18.37,101c-10.08,38.62-3,73.78,24.15,103.61,6.29,6.9,9.5,12.16,6,21.73-3.85,10.44,3.72,21.57,13.91,22.23A66.42,66.42,0,0,0,80,247.33a10.17,10.17,0,0,1,9.26,2q64.26,49.14,128.66,98.11,29.29,22.31,58.6,44.59c2.52,1.91,5.32,4.35,8.77,2.54S287.83,389.19,287.61,386.28Z" transform="translate(0 0.02)" style="fill:#fff;stroke:#fff;stroke-linecap:round;stroke-linejoin:round;stroke-width:28px"/><path d="M204.07,161.93a18.21,18.21,0,0,1,8.57-4.87c14-4.59,20.64-13.95,20.09-32.57s-7.26-35.9-16.22-52.22a117.54,117.54,0,0,0-29-35.3C170,22.67,149.7,17.75,127.74,19c-25.32,1.4-49.61,7.62-69.22,24.22-32.42,27.44-51.19,76-34,122.85,6.86,18.68,17.6,34.4,34.6,45.35,1.64,1.05,3,2.09.33,3.79-5.37,3.39-8.15,14.31-5.09,19.79,1.48,2.65,3.64,4.86,6.88,4.5s2.17-3.5,2.83-5.47a36.12,36.12,0,0,1,4.83-10c.75-1,1.36-2.17,2.08-3.23s-.42-3.56,1.7-3.36c1.67.15,1.89,2.28,2.4,3.85,1.32,4.13-1.06,7.52-1.91,11.23-.43,1.83-1.29,4,.4,5.49,2,1.73,4.12.33,5.78-.78,9.33-6.29,19.56-7,30.24-5.17,2.7.46,5.39,1,8.08,1.57,22.2,4.36,47.59-8.61,56.77-29.17,3.36-7.5,8.32-13,16.51-15a11.65,11.65,0,0,0,7.66-5.5c1.23-2.17,1.86-4.59.6-6.94s-3.8-2.17-6-2.08c-3.48.13-6.48,1.83-9.57,3.21-2.27,1-4.27,2.81-7.68,2.94,3.83-6.29,9.78-8.28,15.46-10.65,5.33-2.22,9.77-1,13.33,3.54,1,1.27,2,2.88,3.86,2.45,6.1-1.42,12.21-2.87,18.21-4.67,2-.58,3.32-2.49,4.14-4.53s.94-3.74-.47-5.46a4.6,4.6,0,0,0-5.18-1.52C218.66,161.84,211.86,161,204.07,161.93Z" transform="translate(0 0.02)" style="fill:#eab9e5;stroke:#eab9e5;stroke-miterlimit:10"/><path d="M157,120.13c2.56-7.3,6.93-13.15,7.67-21.1s-.94-15.69-3.21-23.16c-.72-2.39-1.44-5.65-2.53-8.73a11,11,0,0,0-4.64-1.56c-4.5-.36-7.09,2.84-7.85,6.84s-.41,8.19-1.28,12.21a33.35,33.35,0,0,1-6,13.37,14.27,14.27,0,0,1-9.07,5.49,25.6,25.6,0,0,1-4.55.05c-.57,0-1.14-.1-1.7-.1h-.2l-.4.07c-3.08.56-8.17,4.72-7.49,8.69a14.43,14.43,0,0,0,4.26,4.67c5.24,3.8,12.11,3.8,17.4,7.37,5.78,3.89,6.89,12.66,9.84,18.59a75,75,0,0,0,11.54,16.81,2.6,2.6,0,0,0,3.65.35,2.89,2.89,0,0,0,.35-.35c3.64-5.16,2.19-10.87-.94-15.91C157.21,136.12,153.79,129.17,157,120.13Z" transform="translate(0 0.02)" style="fill:#f4ddea"/><path d="M208,313.48c-1.67-1.13-3.36-2.23-5-3.4-22.38-15.91-43.71-33.21-65.72-49.6-.49-.43-1-.83-1.52-1.21-1-.62-2-2.12-3.34-1.07-1.09.83-.28,2.13,0,3.16.82,3.29,1.91,6.51,2.6,9.82a11.24,11.24,0,0,0,4.5,7.13q36.49,27.26,72.9,54.62c1,.75,2.06,2.14,3.34,1.46,1.54-.82.82-2.58.76-4-.3-6.94-3.09-13.36-3.65-20.42a223,223,0,0,0-5.33-34.38,10.35,10.35,0,0,1,1.13-6.92c1.08,7,6.17,6.14,10.87,6.2,3,.05,4.14-1.25,3.63-4.15-.95-5.57-2-11.12-2.79-16.71-.48-3.48-2.18-5-5.66-5.25-9.82-.83-19.62-1.86-29.42-2.87-1.81-.19-3.74-.17-6.2-2,3.08-.16,5.14-.39,7.2-.34,8.71.25,17.43.59,26.15.87,5.75.18,6.46-.8,5.33-6.41-.46-2.26-1.53-3.41-3.78-3.66-2.63-.3-5.25-.7-7.88-1.05v-1.36c2.15-.24,4.29-.52,6.44-.71,2.54-.21,3.82-1.28,3.4-4.06-2-12.76-3.84-25.53-5.79-38.28-.19-1.24-.44-2.75-2-3-1.36-.19-1.88,1.17-2.37,2.1-2.69,5.14-7.22,7.64-12.56,9.06-3.72,1-7.37,2.71-8.86,6.24-3.8,9-10.57,16.31-14.16,25.4a2.13,2.13,0,0,1-2.31,1.36c-4-.24-7.07,2-10.38,3.61-7.85,3.84-15.8,7.34-24.56,8.7-2,.32-5.16-.77-5.68,2.32-.44,2.58,1.66,4.38,3.64,5.88,1,.78,2.07,1.55,3.09,2.35q32.92,25.92,65.82,51.87C202.88,307.21,206.1,309.57,208,313.48Zm24.51-5.72c-2-1-2.1-2.66-2.44-4.24-1.25-5.83-2.57-11.65-3.84-17.48-1.66-7.64-1.68-7.44-9.52-8.74-4.41-.73-5.12,1-4.38,4.71,1.75,8.69,3.7,17.36,5,26.13,1.09,7.42,4.11,14.43,4,22.12-.13,7.47,3.62,12.64,10,16.95,11.73,8,22.86,16.87,34.24,25.37l7,5.22c2.2,1.64,3.25,1,3.16-1.65a29.5,29.5,0,0,0-.32-3.38c-4.48-28.52-9-57-13.39-85.56-.55-3.54-2.13-5-5.6-5.26-7.08-.61-14.13-1.52-21.2-2.29-5.36-.59-5.54-.25-4.92,5,.7,7.6,2.7,15.13,2.16,23.1ZM241,163.12c-3.11,9.08-3.2,10.25-10,15.76-1.68,1.37-1.4,3-1.13,4.81,1.87,12.59,3.74,25.17,5.41,37.78,1.64,12.38.79,9.92,11.49,10.15,5.48.12,6.26-.81,5.41-6.19q-4.43-27.9-9-55.78C242.84,167.58,243.64,165,241,163.12Zm-2.62,93.11c-2.53-5.54-3.2-5.76-9.45-6.06-3.3-.16-4.49,1.07-3.91,4.25,1,5.71,2.18,11.4,3,17.14.44,3,1.9,4.08,4.79,4.23,7.58.38,15.16.84,22.71,1.49,3.42.3,4.44-1.21,4-4.22-.48-3.35-1.11-6.68-1.65-10-2-12.43.36-10.47-13.43-11.6-3-.27-5.35.16-6,4.77Zm-12.95-24.75c5.6.63,7.26-.46,6.55-4.47q-3.71-21.16-7.52-42.32c-.39-2.19-1-4.22-4-3.63-2.38.47-4.38,1.33-4.11,4.34.08,1,.09,1.94.21,2.9q2.35,19.41,4.72,38.83c.34,2.47,1.23,4.39,4.18,4.35Zm-119.6,7.9a41.58,41.58,0,0,0-10.69,0c-1.12.15-2.35.35-2.69,1.65s.56,2.08,1.49,2.78q15.59,11.83,31.18,23.64c.74.57,1.63,1.34,2.58.54s.37-1.82.09-2.69c-1.13-3.52-2.46-7-3.5-10.54-2.69-9.37-9.7-13.4-18.43-15.38ZM245.08,246c2.36.11,4.44.25,6.52.3,1.55,0,2.83-.32,3.23-2.14,1-4.62-1.27-7.72-6.08-8.11-1.59-.13-3.2-.14-4.8-.3-7.19-.7-7.07.76-5.49,7.48C239.35,247,243,245.22,245.08,246ZM228,245c2-.67,5.81,2.21,6.54-2.58.64-4.11-1.6-7.41-5.19-7.47-2.41,0-5.83-1.63-6.63,2.53C221.88,242,223.6,244.47,228,245Z" transform="translate(0 0.02)" style="fill:#fee9a9;stroke:#fee9a9;stroke-miterlimit:10"/><path d="M212.54,231.19c2.37-.2,3.63-1.16,3.44-3.55-1.44,1-2.84,2-4.18,3.08-.24.2-.47.42-.7.62Z" transform="translate(0 0.02)" style="fill:#e8cf83"/><path d="M215.12,322c-6.82-4.76-13.59-9.59-20.13-14.74a121.61,121.61,0,0,1-17.06-15.65c-13.58-10.35-27-20.9-40.7-31.09-.49-.43-1-.83-1.52-1.21-1-.62-2-2.12-3.34-1.07-1.09.83-.28,2.13,0,3.16.82,3.29,1.91,6.51,2.6,9.82a11.24,11.24,0,0,0,4.5,7.13Q176,305.6,212.37,333c1,.76,2.06,2.15,3.34,1.47,1.54-.82.82-2.58.76-4A45.3,45.3,0,0,0,215.12,322Z" transform="translate(0 0.02)" style="fill:#e8cf83"/><path d="M124.32,254.74c-2.72-9.35-9.73-13.38-18.46-15.36a41.58,41.58,0,0,0-10.69,0c-1.12.15-2.35.35-2.69,1.65S93,243.09,94,243.8l31.18,23.64c.74.56,1.63,1.33,2.58.53s.37-1.82.09-2.69C126.69,261.76,125.36,258.29,124.32,254.74Z" transform="translate(0 0.02)" style="fill:#e8cf83"/><path d="M171,282c-4.14-6.43-8.14-14.29-3.69-21.15,2.26-3.49,5.19-6.58,7.55-10,1.53-2.24,3.17-4.41,4.83-6.56-.22-.14-.43-.28-.66-.45l1.06-.06,2.22-2.83c5.92-7.46,12.05-15.32,19.25-21.59a64.3,64.3,0,0,1,12-8q-1.69-11.28-3.41-22.56c-.19-1.24-.44-2.75-2-3-1.36-.19-1.88,1.17-2.37,2.1-2.69,5.14-7.22,7.64-12.56,9.06-3.72,1-7.37,2.71-8.86,6.24-3.8,9-10.57,16.31-14.16,25.4a2.13,2.13,0,0,1-2.31,1.36c-4-.24-7.07,2-10.38,3.61-7.85,3.84-15.8,7.34-24.56,8.7-2,.32-5.16-.77-5.68,2.32-.44,2.58,1.66,4.38,3.64,5.88,1,.78,2.07,1.55,3.09,2.35Z" transform="translate(0 0.02)" style="fill:#e8cf83"/><path d="M275.25,372.77l-1.5-9.49q-14.17-9.16-27.64-19.37c-8.17-6.22-16.64-12-25.1-17.87a31.32,31.32,0,0,1,.22,4.22c-.13,7.47,3.62,12.64,10,16.95,11.73,8,22.86,16.87,34.24,25.37l7,5.22c2.2,1.64,3.25,1,3.16-1.65A29.62,29.62,0,0,0,275.25,372.77Z" transform="translate(0 0.02)" style="fill:#e8cf83"/><path d="M232.52,201.48c5.4-3.3,10.26-7.21,13.81-12.62q-1.56-9.6-3.14-19.21c-.35-2.07.45-4.61-2.16-6.53-3.11,9.08-3.2,10.25-10,15.76-1.68,1.37-1.4,3-1.13,4.81Q231.22,192.59,232.52,201.48Z" transform="translate(0 0.02)" style="fill:#e8cf83"/><path d="M216.6,188.3q1.23,10.14,2.47,20.28c3-1.48,6-3,8.89-4.51q-1.72-9.69-3.47-19.38c-.39-2.19-1-4.22-4-3.63-2.38.47-4.38,1.33-4.11,4.34C216.47,186.37,216.48,187.34,216.6,188.3Z" transform="translate(0 0.02)" style="fill:#e8cf83"/><path d="M249.68,106.55a28.44,28.44,0,0,0-4.79.34c-5.91,1.23-6.68,2.45-6,8.77,1.25,12.32,1.13,24.45-4.55,35.91-.55,1.12-1.08,2.54.18,3.5s2.39.05,3.29-.78a17,17,0,0,0,3.08-3.57,20.61,20.61,0,0,1,9.09-7.87c8.71-4.32,9.29-11.33,1.67-17.13-1.39-1.06-4.63-1.51-3.42-4,.92-1.92,3.58-.35,5.45,0a3.57,3.57,0,0,1,1.25.54c3.22,2,4.75.21,5.7-2.9C262.62,112.76,258.71,107.72,249.68,106.55Z" transform="translate(0 0.02)" style="fill:#eab9e5;stroke:#eab9e5;stroke-miterlimit:10"/><path d="M148.33,14.89c28.79,3.53,49.57,19.7,65.89,42.46a139.92,139.92,0,0,1,20.33,41.58c1.22,4.07,2.84,5.06,6.89,3.44,5.4-2.16,11.12-1.78,16.69-.28,9.65,2.59,13.94,13,8.63,21.44-1.9,3-2.89,5.52-1.75,9.29,1.73,5.68-.75,10.44-5.49,13.88-1.82,1.33-3.84,2.38-5.75,3.58-3.68,2.29-5.41,4.81-4.55,9.89,5.34,31.47,10,63.06,15.17,94.57s10.56,63,15.7,94.51c2,12.25,4.8,24.38,5.74,36.79.22,2.91,1.08,6.53-2.31,8.31s-6.25-.63-8.77-2.54q-29.35-22.23-58.6-44.59-64.35-49-128.66-98.11a10.17,10.17,0,0,0-9.26-2,66.64,66.64,0,0,1-17.6,1.28c-10.19-.66-17.76-11.79-13.91-22.23,3.52-9.57.3-14.83-6-21.73-27.17-29.83-34.23-65-24.15-103.61A122,122,0,0,1,50.66,43.17C65.87,28.45,85.15,22.06,105,17A113.93,113.93,0,0,1,148.33,14.89Zm56.16,148.3c3-3.13,5.88-4,8.57-4.87,14-4.59,20.65-13.95,20.09-32.57s-7.26-35.9-16.22-52.22a117.54,117.54,0,0,0-29-35.3c-17.55-14.3-37.81-19.22-59.77-18-25.33,1.4-49.62,7.62-69.23,24.22-32.41,27.43-51.19,76-34,122.85,6.87,18.7,17.61,34.4,34.61,45.35,1.64,1,3,2.09.34,3.79-5.38,3.38-8.15,14.31-5.1,19.79,1.48,2.65,3.64,4.86,6.89,4.5s2.17-3.5,2.82-5.47a36.12,36.12,0,0,1,4.83-10c.75-1,1.37-2.17,2.08-3.23s-.42-3.56,1.7-3.36c1.67.15,1.9,2.28,2.4,3.85,1.33,4.13-1,7.52-1.91,11.23-.42,1.83-1.28,4,.41,5.49,2,1.73,4.12.33,5.78-.78,9.33-6.29,19.56-7,30.23-5.17,2.71.46,5.39,1.05,8.08,1.57,22.2,4.36,47.59-8.61,56.78-29.17,3.35-7.5,8.31-13,16.51-15.05a11.67,11.67,0,0,0,7.66-5.5c1.22-2.17,1.86-4.59.59-6.94s-3.8-2.17-6-2.08c-3.48.13-6.47,1.83-9.57,3.21-2.27,1-4.27,2.81-7.67,2.94,3.82-6.29,9.78-8.28,15.46-10.65,5.33-2.22,9.77-1,13.33,3.54,1,1.27,2,2.88,3.85,2.45,6.11-1.42,12.21-2.87,18.21-4.67,2-.59,3.32-2.49,4.15-4.53s.94-3.74-.48-5.46a4.58,4.58,0,0,0-5.18-1.52C219.09,163.1,212.29,162.29,204.49,163.19ZM208,314.36c-1.67-1.13-3.36-2.23-5-3.4-22.38-15.91-43.71-33.22-65.72-49.61-.52-.38-1-.87-1.52-1.2-1-.62-2-2.12-3.34-1.07-1.09.83-.28,2.13,0,3.16.82,3.29,1.91,6.51,2.6,9.82a11.24,11.24,0,0,0,4.5,7.13Q176,306.45,212.43,333.8c1,.76,2,2.15,3.33,1.46,1.54-.81.83-2.57.76-4-.3-6.95-3.09-13.36-3.65-20.43a224.1,224.1,0,0,0-5.32-34.37,10.29,10.29,0,0,1,1.12-6.92c1.08,7,6.18,6.14,10.87,6.2,3,0,4.14-1.25,3.64-4.16-1-5.56-2-11.11-2.8-16.7-.48-3.48-2.18-5-5.66-5.25-9.82-.83-19.61-1.87-29.42-2.87-1.81-.19-3.74-.18-6.2-2.06,3.08-.15,5.14-.38,7.2-.33,8.72.24,17.43.59,26.15.86,5.75.19,6.46-.79,5.33-6.4-.46-2.26-1.53-3.41-3.77-3.67-2.64-.29-5.26-.69-7.89-1v-1.35c2.15-.24,4.29-.52,6.44-.71,2.54-.22,3.83-1.28,3.4-4.07-2-12.75-3.84-25.52-5.79-38.27-.19-1.24-.44-2.75-2-3-1.36-.19-1.88,1.16-2.37,2.1-2.68,5.14-7.22,7.63-12.56,9.06-3.72,1-7.37,2.71-8.86,6.24-3.8,9-10.57,16.31-14.16,25.39a2.1,2.1,0,0,1-2.31,1.37c-4-.24-7.07,2-10.38,3.6-7.85,3.85-15.8,7.35-24.56,8.71-2,.32-5.16-.77-5.68,2.32-.44,2.58,1.66,4.38,3.64,5.88,1,.78,2.07,1.55,3.09,2.35q32.92,25.92,65.82,51.87C203,308.09,206.17,310.45,208,314.36Zm24.51-5.73c-1.94-1-2.1-2.66-2.44-4.23-1.25-5.84-2.57-11.65-3.84-17.48-1.66-7.64-1.68-7.44-9.52-8.74-4.41-.73-5.12,1-4.38,4.71,1.75,8.69,3.7,17.36,5,26.13,1.08,7.42,4.11,14.43,4,22.11-.13,7.48,3.62,12.65,9.95,17,11.73,8,22.86,16.87,34.25,25.37l7,5.22c2.2,1.64,3.25,1,3.16-1.66a29.33,29.33,0,0,0-.32-3.37c-4.48-28.52-9-57-13.39-85.56-.54-3.55-2.13-5-5.6-5.27-7.08-.6-14.13-1.51-21.2-2.28-5.36-.59-5.54-.25-4.92,5,.85,7.56,2.83,15.09,2.27,23.05ZM241.1,164c-3.11,9.08-3.2,10.25-10,15.76-1.68,1.36-1.4,3-1.13,4.81,1.87,12.58,3.74,25.17,5.41,37.78,1.64,12.38.79,9.91,11.49,10.15,5.48.11,6.26-.81,5.41-6.19q-4.42-27.92-9-55.78C242.91,168.45,243.71,165.92,241.1,164Zm-2.62,93.1c-2.53-5.54-3.2-5.76-9.44-6.06-3.31-.16-4.49,1.08-3.91,4.26,1,5.7,2.17,11.4,3,17.14.44,3,1.91,4.08,4.8,4.23,7.57.38,15.15.84,22.71,1.49,3.41.29,4.43-1.22,4-4.22-.48-3.35-1.1-6.68-1.65-10-2-12.44.36-10.48-13.42-11.6-3-.28-5.41.16-6.09,4.76ZM249.8,106.5a29.92,29.92,0,0,0-5.09.29c-6.27,1.18-7.08,2.4-6.34,8.73,1.44,12.34,1.41,24.49-4.53,35.91-.58,1.12-1.13,2.54.23,3.51s2.53.07,3.48-.75a17.69,17.69,0,0,0,3.25-3.55c2.35-3.7,5.68-6,9.6-7.8,9.23-4.25,9.79-11.27,1.63-17.14-1.49-1.07-4.94-1.54-3.68-4,1-1.92,3.81-.33,5.81,0a4.33,4.33,0,0,1,1.33.56c3.44,2,5.05.25,6-2.86C263.62,112.82,259.41,107.75,249.8,106.5ZM225.53,232.36c5.6.63,7.26-.46,6.55-4.47q-3.71-21.18-7.52-42.33c-.39-2.18-1-4.21-4-3.62-2.38.47-4.38,1.33-4.11,4.34.09,1,.1,1.94.21,2.9Q219,208.59,221.39,228C221.69,230.48,222.58,232.4,225.53,232.36Zm-119.59,7.89a42.57,42.57,0,0,0-10.7,0c-1.12.16-2.35.36-2.69,1.66s.56,2.08,1.49,2.78l31.18,23.64c.74.56,1.63,1.34,2.58.54s.37-1.82.09-2.69c-1.13-3.53-2.46-7-3.49-10.54C121.67,246.27,114.66,242.24,105.94,240.25Zm139.21,6.65c2.36.11,4.44.25,6.53.3,1.54.05,2.82-.33,3.22-2.15,1-4.62-1.27-7.71-6.08-8.11-1.59-.13-3.2-.13-4.8-.29-7.19-.71-7.07.76-5.49,7.47.9,3.79,4.54,2,6.62,2.78Zm-17.05-1c2-.67,5.81,2.21,6.55-2.58.63-4.12-1.61-7.41-5.2-7.47-2.41,0-5.83-1.63-6.63,2.53-.82,4.51.85,7,5.28,7.48Z" transform="translate(0 0.02)" style="fill:#474747"/><path d="M113.33,107.89c4,1.78,5.72,4.09,7.47,6.26a16.25,16.25,0,0,0,11.44,6.48c6.68.69,11.11,4.31,14,10.4,2.67,5.55,4.55,11.36,6.66,17.11,1.35,3.64,2.83,7.24,5.46,10.17,1.25,1.39,2.6,3.14,4.9,2.11,2.48-1.11,3-3.32,2.57-5.7a27.47,27.47,0,0,0-4-9.28,63.7,63.7,0,0,1-7.71-17.65c-2-8.2.64-15.26,5.83-21.07,5.93-6.63,6.88-13.36,3.62-21.35-1.59-3.89-3.39-8-1-13.36,2.16,5.69,5.34,9.88,7.85,14.46,3.35,6.09,3,12.09-1,17.76-1.86,2.63-4,5.07-6,7.6-6,7.55-7,15.78-3,24.49,1.74,3.8,4,7.39,6,11.07a16.42,16.42,0,0,1,2.4,9.71c-.6,5.78-5,8-10.08,5.12-3.33-1.92-5.52-4.93-7.34-8.19a32.83,32.83,0,0,1-3.21-7c-2.84-10.44-9-17.58-19.46-21-3.61-1.16-6.23-4-8.3-7.15S116.25,112.42,113.33,107.89Z" transform="translate(0 0.02)" style="fill:#474747"/><path d="M90.66,213.1a16.49,16.49,0,0,1,14.07-4.44c9.32,1.18,17.12-1.46,24.09-7.48a10.18,10.18,0,0,1,4.68-2.37c4.43-.72,8.81-1.19,12.16-4.78,1-1,2.71-.93,4.17-.61,1.24.28,2.72.51,2.91,2.07s-1.21,1.66-2.25,2c-.16.06-.38,0-.45.16-6.14,8.27-17.8,4.68-24.89,11.88-3.89,3.95-10.71,2.82-16.28,3.25C103.14,213.25,97.36,213,90.66,213.1Z" transform="translate(0 0.02)" style="fill:#474747"/><path d="M173.86,45.73c13.68,1.07,35.51,32.36,32.76,46.51-4.83-8.53-9.44-16.78-14.15-25A79.39,79.39,0,0,0,173.86,45.73Z" transform="translate(0 0.02)" style="fill:#474747"/><path d="M65.31,100.37c3.92,3.22,4.32,7,5.29,10.42.66,2.36,1.34,4.66,3,6.49,1.43,1.54,3.21,2.35,5.2,1.33a4,4,0,0,0,2-5c-.66-2.32-1.53-4.58-2.33-6.85-.64-1.82-1.47-3.62.18-6.25,2.82,4.58,6.17,8.46,6.91,13.6.62,4.22-1,7.68-5.3,9.21-3.73,1.33-8-.46-10.18-4.5C67.17,113.39,66.91,107.22,65.31,100.37Z" transform="translate(0 0.02)" style="fill:#474747"/><path d="M41.26,147.81a23.7,23.7,0,0,1,9.8,7.05c4.16,4.73,8.86,7.95,15.68,6a11.64,11.64,0,0,1,6.68.59c.9.29,2,.56,1.94,1.78,0,1-1,1.15-1.72,1.45C60.35,170,46,162.81,41.26,147.81Z" transform="translate(0 0.02)" style="fill:#474747"/><path d="M90.48,47.33c-4.32,5.72-4.49,13-7.77,19-1.85,3.4-4.35,6-8.38,6.58-1.48.22-3.06-.08-3.53-1.78-.42-1.54,1.1-1.68,2-2.18,4.1-2.16,5.2-6.32,6.76-10.18C81.68,53.67,84.19,48.93,90.48,47.33Z" transform="translate(0 0.02)" style="fill:#474747"/><path d="M190.49,85.82c4.82,6.43,8.83,13.29,8.34,21.67a7.56,7.56,0,0,1-7.06,7.41,8.12,8.12,0,0,0-6.84,4.42,9.13,9.13,0,0,1,4.93-8.08c3.93-2.39,4.71-5.55,3.89-9.87C192.77,96.2,191.05,91.22,190.49,85.82Z" transform="translate(0 0.02)" style="fill:#474747"/><path d="M94.74,116.6c2.46,8.85-4.39,20.21-13,21.14-1.54.17-3.62.95-4.26-.94s1.65-2,2.8-2.61c6.17-3.42,10.58-8.3,12.72-15.11C93.31,118.21,93.22,117.09,94.74,116.6Z" transform="translate(0 0.02)" style="fill:#474747"/><path d="M59,67.17c-2,5.72-2.8,10.42-5.13,14.59-1.15,2-3,3.45-5.59,2.94-1.27-.26-2.72-1-2.7-2.38,0-1.91,1.65-.75,2.59-.9,2.28-.35,2.9-2.19,3.75-4C53.53,74.15,54.07,70.1,59,67.17Z" transform="translate(0 0.02)" style="fill:#474747"/><path d="M190,145.35c11,8.55,27.77-4.17,32.59-10.8,11.63-16-16.21-30-21.07-9.36C197.7,141.31,187,139.3,190,145.35Z" transform="translate(0 0.02)" style="fill:#f4ddea"/><path d="M180.59,149.91c-6.46-.41-7.12,9.62-.65,10S187.06,150.32,180.59,149.91Z" transform="translate(0 0.02)" style="fill:#f4ddea"/><path d="M79.78,114.9a24.65,24.65,0,0,0-8.33-17.73,2.12,2.12,0,0,0-2.59-.34A2.87,2.87,0,0,0,66,100.38a39.14,39.14,0,0,0,9.25,16.41,2.58,2.58,0,0,0,4.53-1.89Z" transform="translate(0 0.02)" style="fill:#f4ddea"/><path d="M160.52,203l-.44.31c-1.27.94-2.63,1.8-3.89,2.79a102.4,102.4,0,0,1-8.64,6.76,20.2,20.2,0,0,1-8.89,3.07,16.55,16.55,0,0,1-5.51.63c-8.24-1.19-9.38,5-9.2,6C127.58,242.63,165.41,211.16,160.52,203Z" transform="translate(0 0.02)" style="fill:#f4ddea"/><path d="M108.28,218.81c-3.12-.87-20-2-19,4.9C91.14,236.4,113.46,220.24,108.28,218.81Z" transform="translate(0 0.02)" style="fill:#f4ddea"/></g></g></svg>