<svg id="Layer_1" data-name="Layer 1" xmlns="http://www.w3.org/2000/svg" viewBox="0 0 539 454"><title>la</title><g id="Layer_2" data-name="Layer 2"><g style="opacity:0.12"><path d="M29.33,358c1.72-1.83,4.36-2.09,6.8-2.44a57.25,57.25,0,0,0,6-1.51,13.12,13.12,0,0,1,3.69-.43h0l7.88-1.49c7.65-1.56,14.69-4.36,20.35-10a8.43,8.43,0,0,0,2.68-6.55,276,276,0,0,1,1.71-37.48,96.31,96.31,0,0,0-.15-26.81,69.69,69.69,0,0,1-.61-15c.51-9.22,4.38-16.34,12.78-20.7a113.87,113.87,0,0,1,17.86-7.26c4.33-1.38,8.62-3.23,13.2-3.35s8.88-1.69,13.06-3.54A29.07,29.07,0,0,1,146.35,219a52.79,52.79,0,0,1,17.5,2.67,5,5,0,0,0,5.15-.83c11.1-7.92,23.13-10.63,36.28-5.73,1.2.44,1.68,0,2.22-.92a38.91,38.91,0,0,0,4.4-11.95c1.9-9.58,3.54-19.22,8.19-28a44.75,44.75,0,0,0,3.91-10.8,98.13,98.13,0,0,1,8.84-23,61.17,61.17,0,0,0,4.33-9.46,135.39,135.39,0,0,0,6.08-30.34c.46-5.62.77-11.28,3-16.59,4-9.73,13.39-12.52,22-6.43C274,81.76,276,88,276.61,94.73a154.16,154.16,0,0,1-.17,24.5c-.65,9.84-3.48,19.36-4.42,29.17a103.6,103.6,0,0,1-4.94,23.29,69.93,69.93,0,0,0-2.94,13.1,84.73,84.73,0,0,1-5.85,21.94c-1.91,4.46-3.8,9-4.24,13.85-1.07,12-3.79,23.8-3.59,36,.15,9.78,1.51,19.16,5.35,28.12,2.27,5.27,5.22,10.15,10,13.61,2.14-.25,3.91,1.22,6,1.32.46-2.86,1-5.7,1.36-8.57.93-8,1.24-16,2.37-24q3.4-24,7.18-47.85c1.47-9.41,2.16-18.88,4.35-28.25a200.73,200.73,0,0,1,11.86-36.65c9-20.06,17.87-40.18,25.41-60.83,5-13.57,10.53-26.75,18.73-38.74,6.93-10.1,14.83-19,26.15-24.44,17.25-8.26,35.38-9.68,54-7.22,18.19,2.39,35.3,8.17,51.77,16.09A316.18,316.18,0,0,1,512.84,60.3a13,13,0,0,1,4,3.88c.26.42.73.84.39,1.36s-1,.15-1.55,0a10.76,10.76,0,0,1-2.31-1,39.14,39.14,0,0,0-3.65-2,3.47,3.47,0,0,0,.06.64,3.41,3.41,0,0,0,.86,1.7A16.89,16.89,0,0,1,514,70.12c1.48,3.91,1.61,7.65-1.39,11.12a9.14,9.14,0,0,0-2.43,6.52c.15,3.43,1.84,6.16,3.58,8.9,7.16,11.29,11.51,23.38,10.8,37-.28,5.34-1.32,10.39-4.71,14.74a12.69,12.69,0,0,1-5.4,4.12c-2.72,1.08-5.48.77-8.3.54a32.42,32.42,0,0,1-4.84-1.24,9.11,9.11,0,0,0-1.65-.23,4.92,4.92,0,0,1,.11.77.81.81,0,0,1,0,.31.59.59,0,0,1-.25.43c-.21.13-.58.13-1.17-.09s-1.39-.4-2.05-.69c-13.61-5.87-26.95-12.32-40.11-19.15-.61-.32-1.25-1-2-.62s-.24,1.33-.19,2c.91,11.17,2.19,22.33,2.24,33.56,0,7.56-1.12,14.9-5.27,21.41a50,50,0,0,0-6.78,17.71c-1.39,7.19-3.8,13.91-8.63,19.63-7,8.3-14.53,9.91-24.12,4.94-.68-.35-1-.27-1.37.32-3.66,5.31-8.94,8.33-14.88,10.33-8.94,3-17.14,1.91-23.28-6.26-.31-.42-.53-1-1.49-.93-.32,2.53-.73,5.08-1,7.66-.59,6.47.38,12.86,1.33,19.22,1.45,9.81,1.71,19.76,3.54,29.52.23,1.19,0,2.73,1,3.45.56.43,1.89-.22,2.88-.27,10.79-.54,20.68,8.45,21.26,19.27a10,10,0,0,1-4.23,9,19.07,19.07,0,0,1-5.37,2.79c-3,1-6,2.16-9,3.06-1.45.42-1.74,1.11-1.55,2.5,1.2,8.89,2.42,17.78,3.45,26.68,1.43,12.31,4.24,24.37,6.15,36.59.7,4.54.36,9.08.48,13.61.11,3.93-5.91,9-10.38,9-7.19.05-12.5-3-16.13-9.44a105.93,105.93,0,0,1-9.49-24.16c-4-14.43-8-28.85-12.21-43.21-.42-1.43-.77-1.88-2.47-1.48-12.41,2.85-24.78,5.86-37.39,7.71a2,2,0,0,0-1.95,1.6,83.7,83.7,0,0,0-2.85,10.91c-1.53,8.17-3,16.38-6.52,24-2.14,4.65-4.71,8.71-10.22,10.46s-12.35.65-16.3-3.7a10.22,10.22,0,0,1-2.71-4.82,49.78,49.78,0,0,1-.45-15.55c.22-2.23.45-4.46.72-7-5.18,3.87-10,7.41-14.76,11-13.83,10.62-28.87,18.72-46.11,22.22A105.58,105.58,0,0,0,166.91,409a74.89,74.89,0,0,1-26.46,9.94c-11.79,1.92-22.94,5.81-34,10.09-6.54,2.54-12.87,5.61-19.58,7.7-7.66,2.38-15.42,3.6-23.33,2.43-1.13-.17-2.26-.39-3.4-.65a12.63,12.63,0,0,1-2.3.12,9.2,9.2,0,0,1-3.18-.72A10.3,10.3,0,0,1,51.77,436c-4.56-4.26-4.59-9.73-4.16-15.21.35-4.36,1.3-8.71-2.91-11.82-1.79-1.33-3.61-2.61-5.37-4a40.38,40.38,0,0,1-12.8-16.5c-2.2-5.31-4.82-10.38-4.5-16.49S25.62,361.91,29.33,358Z" transform="translate(0 0.01)" style="fill:#6a374f;stroke:#6a374f;stroke-linecap:round;stroke-linejoin:round;stroke-width:28px"/><path d="M266.84,298.29c-4.81-3.46-7.76-8.34-10-13.61-3.84-9-5.2-18.34-5.35-28.12-.2-12.18,2.52-24,3.59-36,.44-4.86,2.33-9.39,4.24-13.85a84.73,84.73,0,0,0,5.85-21.94,69.93,69.93,0,0,1,2.94-13.1A103.34,103.34,0,0,0,273,148.4c.94-9.81,3.77-19.33,4.42-29.17a154.16,154.16,0,0,0,.17-24.5C277,88,275,81.76,269.14,77.6c-8.57-6.09-17.94-3.3-22,6.43-2.19,5.31-2.5,11-3,16.59a134.48,134.48,0,0,1-6,30.38,60.74,60.74,0,0,1-4.33,9.46,98.3,98.3,0,0,0-8.84,23,44,44,0,0,1-3.88,10.79c-4.65,8.77-6.29,18.41-8.19,28a38.91,38.91,0,0,1-4.4,11.95c-.54.94-1,1.36-2.22.92-13.15-4.9-25.18-2.19-36.28,5.73a5,5,0,0,1-5.14.83,53.05,53.05,0,0,0-17.5-2.67,29.22,29.22,0,0,0-11.8,2.52c-4.18,1.85-8.34,3.42-13.06,3.54s-8.87,2-13.2,3.35a113.87,113.87,0,0,0-17.86,7.26C83,240,79.17,247.13,78.66,256.35a69.69,69.69,0,0,0,.61,15,96.31,96.31,0,0,1,.15,26.81,276,276,0,0,0-1.71,37.48,8.37,8.37,0,0,1-2.71,6.5c-5.66,5.61-12.7,8.41-20.35,10-2.62.53-5.25,1-7.88,1.49-3.38-.15-6.41,1.49-9.67,1.94-2.44.35-5.08.61-6.8,2.44-3.71,3.93-7,8-7.3,14s2.3,11.18,4.5,16.49A40.38,40.38,0,0,0,40.3,405c1.76,1.38,3.58,2.66,5.37,4,4.21,3.11,3.26,7.46,2.91,11.82-.43,5.48-.4,10.95,4.16,15.21a9.54,9.54,0,0,0,8.36,2.52c9.09,2.14,18,.94,26.73-1.78,6.71-2.09,13-5.16,19.58-7.7,11.07-4.28,22.22-8.17,34-10.09a74.89,74.89,0,0,0,26.5-10,105.34,105.34,0,0,1,33.36-13.1c17.24-3.5,32.28-11.6,46.11-22.22,4.75-3.64,9.58-7.18,14.76-11-.26,2.58-.5,4.81-.72,7a50.08,50.08,0,0,0,.45,15.55,10.22,10.22,0,0,0,2.71,4.82c3.95,4.35,10.76,5.46,16.3,3.7s8.08-5.81,10.22-10.46c3.51-7.63,5-15.84,6.52-24a85.33,85.33,0,0,1,2.85-10.91,2.06,2.06,0,0,1,1.95-1.6c12.61-1.85,25-4.86,37.39-7.71,1.7-.4,2.05.05,2.47,1.48,4.24,14.36,8.24,28.78,12.21,43.21A106.08,106.08,0,0,0,364,407.87c3.63,6.47,8.94,9.49,16.13,9.44,4.47,0,10.49-5.07,10.39-9-.13-4.53.21-9.07-.49-13.61-1.91-12.22-4.72-24.28-6.15-36.59-1-8.9-2.25-17.79-3.45-26.68-.18-1.39.1-2.08,1.55-2.5,3-.9,6-2,9-3.06a19.07,19.07,0,0,0,5.37-2.79,10,10,0,0,0,4.23-9c-.58-10.82-10.47-19.81-21.26-19.27-1,0-2.32.7-2.88.27-.94-.72-.75-2.26-1-3.45-1.83-9.76-2.09-19.71-3.54-29.52-.95-6.36-1.92-12.75-1.33-19.22.23-2.58.64-5.13,1-7.65.95-.13,1.17.5,1.49.92,6.13,8.17,14.33,9.27,23.27,6.26,6-2,11.22-5,14.88-10.33.41-.59.69-.67,1.37-.32,9.59,5,17.11,3.36,24.12-4.94,4.83-5.72,7.24-12.44,8.63-19.63a50,50,0,0,1,6.78-17.71c4.15-6.51,5.3-13.85,5.27-21.41-.05-11.23-1.33-22.39-2.24-33.56,0-.67-.56-1.54.19-2s1.34.3,2,.62c13.16,6.83,26.5,13.28,40.11,19.15.66.29,1.37.45,2.05.69,1.57.57,1.56-.32,1.32-1.42,2.26.06,4.23,1.28,6.49,1.47,2.82.23,5.58.54,8.3-.54a12.69,12.69,0,0,0,5.4-4.12c3.39-4.35,4.43-9.4,4.71-14.74.71-13.6-3.64-25.69-10.8-37-1.74-2.74-3.43-5.47-3.58-8.9a9.14,9.14,0,0,1,2.43-6.52c3-3.47,2.87-7.21,1.39-11.12a16.89,16.89,0,0,0-3.38-5.24,3.34,3.34,0,0,1-.92-2.34c2,.88,3.77,2.42,6,3,.52.15,1.09.67,1.55,0s-.13-.94-.39-1.36a13,13,0,0,0-4-3.88,315.17,315.17,0,0,0-38-21.09c-16.47-7.92-33.58-13.7-51.76-16.09-18.68-2.46-36.8-1-54.06,7.22C358.9,35.72,351,44.65,344.07,54.75c-8.2,12-13.77,25.17-18.73,38.74-7.54,20.65-16.41,40.77-25.4,60.83A200.29,200.29,0,0,0,288.07,191c-2.19,9.37-2.88,18.84-4.35,28.25q-3.75,23.9-7.18,47.85c-1.13,8-1.44,16-2.37,24-.33,2.87-.9,5.71-1.36,8.57C270.75,299.51,269,298,266.84,298.29Z" transform="translate(0 0.01)" style="fill:#6a374f"/><path d="M491.55,146.91q-16.29-9.34-33.16-17.57c-1.44-.7-1.64-1.21-.95-2.69,2.95-6.33,3.8-13.17,4.57-20,1.12-10,.83-19.8-2.56-29.36C459,76.14,458.52,75,458,73.9c-.25-.55-.48-1.45-1.3-1.08-.6.27-.26,1-.08,1.57a47.58,47.58,0,0,1,2.28,13.44,110.68,110.68,0,0,1-4.21,34.1c-.16.57-.19,1.26-1.06,1.7-.41-2.68.08-5.21.34-7.73.16-1.51.32-3,.52-4.52.06-.51.24-1.09-.33-1.35-.79-.35-1,.42-1.24.87-2.4,3.95-3,8.41-3.42,12.88-.75,7.82.18,15.61.63,23.41.46,8,1.12,16,.78,24.06a34.91,34.91,0,0,1-5,17.11A54,54,0,0,0,439.47,206c-1.37,6.59-3.68,12.77-8.45,17.79-8,8.47-19,7.46-25.25-2.39-.31-.49-.48-1.49-1.3-1-.52.3-.07,1,.16,1.58a39,39,0,0,0,3.09,5.72c.4.59.84,1.07.14,1.87-5.21,6-20,12.61-30.81,6.18-4.69-2.8-7.3-7.31-9.86-11.85-.71-1.26-1.27-2.6-1.95-3.88-.25-.45-.32-1.36-1.08-1.07s-.27,1-.08,1.5c1.14,2.82,2.22,5.66,3.53,8.4a5.42,5.42,0,0,1,.31,4.76,41.16,41.16,0,0,0-2.07,16c.42,9.27,2.37,18.37,3.06,27.61.82,11,3.43,21.7,5.6,32.47a41.15,41.15,0,0,1,1,9.05c-.22,12.08,2,23.92,3.37,35.83,1.29,10.93,3.14,21.76,5.31,32.55.15.77.21,1.55.32,2.36-1,.12-1.11-.68-1.46-1.13a11.56,11.56,0,0,0-8.35-4.51c-6.29-.6-10.79,3.3-11.25,9.59-.22,3.05.49,6,.79,9.43a11.66,11.66,0,0,1-2.38-4.37c-3.81-11-6.41-22.38-9.44-33.62q-6.62-24.5-13.33-49c-1.73-6.25-1.75-12.75-3-19.07-2.61-13.56-3.49-27.42-7.31-40.76a90,90,0,0,0-11.31-25,21.61,21.61,0,0,0-1.77-2.18c-.28-.33-.67-.68-1.1-.34s-.25.79,0,1.19c.69,1.27,1.37,2.54,2.08,3.8,2.76,5,4.42,10.36,6.25,15.69.2.57.58,1.14-.21,1.71-5.53,4-8.14,9.89-9.62,16.25-4.43,19.11-8.18,38.34-10.85,57.78A81.77,81.77,0,0,1,297,344.8c-3.28,8-4.42,16.61-6.45,25-1.3,5.35-2.82,10.63-5.59,15.45-.18.31-.3.67-.84.69-.07-1.91.74-3.66,1-5.49a26.32,26.32,0,0,0,.35-6.69,11.24,11.24,0,0,0-12-10.43,10.46,10.46,0,0,0-1.68.24c-3.44.66-5.28,3.06-6.43,6.13-.55,1.47-1,3-1.62,4.46a69.22,69.22,0,0,1,1-11.22c1.27-10.14,4-20,6-30,1.15-5.61,1.23-11.36,1.7-17.05.59-7.1,2.67-13.92,3.77-20.92,1.3-8.3,1.32-16.73,2.51-25,2.3-16,4.18-32.13,7.2-48.06,1.15-6.06,1.08-12.25,1.78-18.36,1.05-9.22,4.35-17.79,7.45-26.43,5.29-14.73,12.07-28.8,18.34-43.1,7-15.89,13.21-32.08,19.15-48.39a132.8,132.8,0,0,1,20-35.37c9.36-12.21,22.18-18.43,37-21.16,21.72-4,42.67-.12,63.15,6.8,16.67,5.63,32.53,13.25,48.11,21.42,3.06,1.6,6,3.48,9,5.23a3.34,3.34,0,0,0,.92,2.34,16.89,16.89,0,0,1,3.38,5.24c1.48,3.91,1.61,7.65-1.39,11.12a9.14,9.14,0,0,0-2.43,6.52c.15,3.43,1.84,6.16,3.58,8.9,7.16,11.29,11.51,23.38,10.8,37-.28,5.34-1.32,10.39-4.71,14.74a12.69,12.69,0,0,1-5.4,4.12c-2.72,1.08-5.48.77-8.3.54-2.26-.19-4.23-1.41-6.49-1.47C497,150,494.28,148.47,491.55,146.91Zm-161.47,72.2c.24.44.61.95,1.19.59s.16-.79,0-1.17c-4.75-9.68-2.75-19.44-.35-29.2.14-.59.84-1.31.06-1.75-1-.53-1.18.5-1.49,1.08a36,36,0,0,0-4.31,17.09C324.46,210.38,327.71,214.6,330.08,219.11Zm33.13,96.55a6.32,6.32,0,0,0,3.43-1.2c.44-.3.8-.72.62-1.26a.91.91,0,0,0-1.05-.59c-5.13.65-10.39-.35-15.45,1.13-1,.27-2.68.19-2.47,1.47s1.82,1.36,3.11,1.36A111.15,111.15,0,0,1,363.21,315.66Zm55.13-156.32c-1-2.75-1.73-5.64-2.58-8.47-.17-.57-.1-1.52-1-1.32-.71.17-.34,1-.24,1.51,1.53,7.32,3.06,14.65,4.66,21.95.13.58,0,1.78,1,1.62s.77-1.21.72-2V172A47.89,47.89,0,0,0,418.34,159.34ZM295.79,295.58c.18-.89-.68-1.24-1.34-1.43-3.94-1.15-7.65-2.9-11.44-4.43-.4-.16-.9-.31-1.19.1s0,.81.39,1.08c3.56,2.6,7.14,5.14,11.79,5.39C294.66,296.21,295.61,296.54,295.79,295.58Zm66.86,27.87c.5-.5,1.2-1.16.71-1.85s-1.09.11-1.62.37a11.6,11.6,0,0,1-6.78.8c-1.78-.23-3.55-.62-5.33-.91-.55-.09-1.28-.4-1.54.29-.33.9.62,1,1.14,1.24a19.51,19.51,0,0,0,7,1.71c2.94-.1,4.91-.1,6.42-1.65ZM350.84,307c-.43.24-1.08.36-.81,1s.76.3,1.16.24c4.29-.58,8.58-1.17,12.86-1.81.59-.09,1.45-.18,1.34-1.08s-.79-1-1.49-1H362C358.63,305,354.51,305,350.84,307Zm-63.06,41.39c.37-1.09-.76-1-1.31-1.31-3.06-1.8-6.69-2.25-9.74-4.08-.25-.15-.54-.27-.79,0s-.12.66.08,1c1,1.46,1.91,2.88,3.7,3.47a35.66,35.66,0,0,0,6,1.78c1,0,1.8-.09,2.06-.87Zm-3.9-61.4c-.11.75.75.72,1.25.91a55,55,0,0,1,9,4.12c.67.41,1.66,1.26,2.28.28s-.42-1.72-1.16-2.24a20.29,20.29,0,0,0-9.66-3.68c-.69.11-1.59-.31-1.71.62Zm88.57,83.8c.55-.41,1.37-.92.93-1.73s-1.17-.13-1.71.08c-2,.75-4.11.74-6.1,1.38-.73.23-2.14-.18-2,1s1.4,1,2.34,1.06c2.2-.4,4.58-.36,6.54-1.8Z" transform="translate(0 0.01)" style="fill:#6a374f"/><path d="M48.32,355.16c11,1.2,20.82-1.38,28.59-9.79.15-.15.32-.28.45-.4.43,0,.45.31.47.6L79,365.93a25.32,25.32,0,0,1-.14,5c-.15,1.08-.59,2.68.89,2.92s1.69-1.4,1.93-2.47a43.3,43.3,0,0,0,1.22-11.62c-.84-18.95-1.29-37.9.22-56.85.34-4.25.82-8.49,1.24-12.74.6-6.09-.13-12.13-.61-18.19-.6-7.64-1.23-15.33,1.06-22.84A19.17,19.17,0,0,1,96.55,236.6a105.77,105.77,0,0,1,24.34-7c10-1.47,19.58.71,27.16,7.88,4.9,4.62,6.89,11,7.85,17.53,1.39,9.38,2.71,18.75,5.27,27.91,1.48,5.3,1,10.61-.43,15.87-.73,2.64-1.41,5.31-2,8-.2.87-.26,1.27-1.33.68-5.8-3.18-12.21-.2-13.94,6.41-.38,1.46-.69,2.93-1.08,4.62a7.48,7.48,0,0,1-2.57-3.21,24.31,24.31,0,0,1-3.15-11.19c-.15-12.18-4.14-23.07-10.26-33.4a92.78,92.78,0,0,1-7.22-14.79c-.19-.51-.28-1.34-1-1.08s-.36,1-.23,1.53c.81,3.26,1.67,6.52,2.61,10.16-1.82-.79-3.33-1.41-4.82-2.08a164.53,164.53,0,0,1-17.89-8.77c-.43-.26-.94-.72-1.3-.11s.24.9.57,1.28a33.62,33.62,0,0,0,10.06,7.44c3.21,1.68,6.44,3.29,9.68,4.9a7.27,7.27,0,0,0,2.62,1c4.93.21,4.5,4.87,6.3,7.61.66,1-.67.74-1.17.69a68.78,68.78,0,0,1-18.69-4.6A80.53,80.53,0,0,1,97,269.24c-.46-.26-1.06-.88-1.54-.28s.25,1,.65,1.36c7.81,6.85,17,10.54,27.21,11.9a15.4,15.4,0,0,0,3.46,0,1.32,1.32,0,0,1,1.56.71c1.38,2.49,1.21,2.77-1.65,2.91-4.11.22-8.22.59-12.34.8-5.25.25-10.41-.16-15.32-2.28-.54-.24-1.31-.84-1.73-.07s.49,1.07,1,1.43a26.12,26.12,0,0,0,14.63,4.76,74.66,74.66,0,0,0,16-1.34c1.41-.25,1.78.13,1.91,1.36.56,5.47,1.16,10.93,1.73,16.4s2.51,10.48,7.09,13.85a4,4,0,0,1,1.89,4.4,10.59,10.59,0,0,0,.69,5.54c1.95,4.89,7.06,6.17,11.12,2.79.43-.35.69-1,1.48-1,.23,1.57.34,3.14.68,4.67,1.33,6,4.31,10.86,10.3,13.28,1,.42.8,1,.61,1.7a9,9,0,0,0,0,5.34A5.23,5.23,0,0,0,170,361c5,1.59,15.53-4,15.83-10,.21-4.15,2.08-8.15,2.73-12.39,1.4,2.39,2.11,5.09,4.4,6.83.25.18,0,1.09-.1,1.65-1.35,6.81,1.72,10.87,8.63,11.68,4.14.49,8-.71,12-1.36.86-.14,1-.93,1.28-1.6,1.61-4.63,4.18-8.85,5.49-13.63.52-1.91,2.32-3.45,3.43-5.22a58,58,0,0,0,7.27-16.17c2.2-8.59,6-16.58,9.24-24.77,2.74-6.84,5.32-13.75,7.69-20.73.23-.67.49-1.34.78-2.14a3.54,3.54,0,0,1,.78,2.18c2.07,10.84,6.57,20.33,15.29,27.46,1.63,1.34,3.34,2.59,5.54,2.8.8.08,1.17.35,1,1.23-2.16,10.65-1.41,21.68-4.34,32.23a147.24,147.24,0,0,0-3.63,17.4A3.06,3.06,0,0,1,261.1,359c-5.3,2.55-10,6-14.81,9.43-9.37,6.71-18.87,13.14-29.71,17.34a127.44,127.44,0,0,1-19.18,5.44,100.92,100.92,0,0,0-31.89,12.72c-9.7,6-20.39,9.47-31.14,13-15.25,5-30.75,9.19-45.63,15.3a69.6,69.6,0,0,1-26,5.13c-.7,0-2-.49-1.56,1.16A9.52,9.52,0,0,1,52.77,436c-4.56-4.26-4.59-9.73-4.16-15.21.35-4.36,1.3-8.71-2.91-11.82-1.79-1.33-3.61-2.61-5.37-4a40.38,40.38,0,0,1-12.8-16.5c-2.2-5.31-4.82-10.38-4.5-16.49.3-5.93,3.59-10,7.3-14,1.72-1.83,4.36-2.09,6.8-2.44,3.26-.45,6.29-2.09,9.67-1.94C46.13,355.25,47.59,355.08,48.32,355.16Zm77.87,42.63c-3,.4-6,1.17-9,1.56a30.42,30.42,0,0,1-15.49-1.75c-.45-.19-1-.66-1.33-.1s.22.93.62,1.2c5.08,3.4,10.53,6,16.78,5.28,6.66-.72,13.26-2,19.9-3,3.64-.53,7.3-.87,10.94-1.34.56-.08,1.5.12,1.52-.81,0-.74-.73-1-1.36-1.21a9.62,9.62,0,0,0-4.06-.39A77.05,77.05,0,0,0,126.19,397.79Z" transform="translate(0 0.01)" style="fill:#6a374f"/><path d="M53.68,352.11c7.65-1.56,14.69-4.36,20.35-10a8.43,8.43,0,0,0,2.68-6.55,276,276,0,0,1,1.71-37.48,96.31,96.31,0,0,0-.15-26.81,69.69,69.69,0,0,1-.61-15c.51-9.22,4.38-16.34,12.78-20.7a113.87,113.87,0,0,1,17.86-7.26c4.33-1.38,8.62-3.23,13.2-3.35s8.88-1.69,13.06-3.54A29.14,29.14,0,0,1,146.35,219a52.79,52.79,0,0,1,17.5,2.67,5,5,0,0,0,5.15-.83c11.1-7.92,23.13-10.63,36.28-5.73,1.2.44,1.68,0,2.22-.92a38.91,38.91,0,0,0,4.4-11.95c1.9-9.58,3.54-19.22,8.19-28a44.75,44.75,0,0,0,3.91-10.8,98.13,98.13,0,0,1,8.84-23,61.17,61.17,0,0,0,4.33-9.46,135.39,135.39,0,0,0,6.08-30.34c.46-5.62.77-11.28,3-16.59,4-9.73,13.39-12.52,22-6.43C274,81.76,276,88,276.61,94.73a154.16,154.16,0,0,1-.17,24.5c-.65,9.84-3.48,19.36-4.42,29.17a103.6,103.6,0,0,1-4.94,23.29,70.75,70.75,0,0,0-2.95,13.1,84.32,84.32,0,0,1-5.84,21.94c-1.91,4.46-3.8,9-4.24,13.85-1.07,12-3.79,23.8-3.59,36,.15,9.78,1.51,19.16,5.35,28.12,2.27,5.27,5.22,10.15,10,13.61,1.4,1.61,3.44,2.31,5.21,3.77.34-.9.91-1.54.76-2.45.46-2.86,1-5.7,1.36-8.57.93-8,1.24-16,2.37-24q3.4-24,7.18-47.85c1.47-9.41,2.16-18.88,4.35-28.25a200.73,200.73,0,0,1,11.86-36.65c9-20.06,17.87-40.18,25.41-60.83,5-13.57,10.53-26.75,18.73-38.74,6.93-10.1,14.83-19,26.15-24.44,17.25-8.26,35.38-9.68,54-7.22,18.19,2.39,35.3,8.17,51.77,16.09A316.18,316.18,0,0,1,512.81,60.3a13,13,0,0,1,4,3.88c.26.42.73.84.39,1.36s-1,.15-1.55,0c-2.19-.62-3.91-2.16-6-3-3-1.75-5.9-3.63-9-5.23-15.58-8.17-31.44-15.79-48.11-21.42-20.48-6.92-41.43-10.82-63.15-6.8-14.78,2.73-27.6,9-37,21.16a132.8,132.8,0,0,0-20,35.37c-5.94,16.31-12.17,32.5-19.15,48.39-6.27,14.3-13.05,28.37-18.34,43.1-3.1,8.64-6.4,17.21-7.45,26.43-.7,6.11-.63,12.3-1.78,18.36-3,15.93-4.9,32-7.2,48.06-1.19,8.31-1.21,16.74-2.51,25-1.1,7-3.18,13.82-3.77,20.92-.47,5.69-.55,11.44-1.7,17.05-2,10-4.77,19.83-6,30a69.22,69.22,0,0,0-1,11.22c.64-1.47,1.07-3,1.62-4.46,1.15-3.07,3-5.47,6.43-6.13A11.24,11.24,0,0,1,285,372.07a11.72,11.72,0,0,1,.24,1.68,26.32,26.32,0,0,1-.35,6.69c-.28,1.83-1.09,3.58-1,5.49.54,0,.66-.38.84-.69,2.77-4.82,4.29-10.1,5.59-15.45,2-8.36,3.17-16.93,6.45-25a81.3,81.3,0,0,0,5.3-19.86c2.67-19.44,6.42-38.67,10.85-57.78,1.48-6.36,4.09-12.22,9.62-16.25.79-.57.41-1.14.21-1.71-1.83-5.33-3.49-10.73-6.25-15.69-.71-1.26-1.39-2.53-2.08-3.8-.22-.4-.37-.87,0-1.19s.82,0,1.1.34a21.61,21.61,0,0,1,1.77,2.18,90,90,0,0,1,11.31,25c3.82,13.34,4.7,27.2,7.31,40.76,1.21,6.32,1.23,12.82,3,19.07q6.74,24.48,13.33,49c3,11.24,5.63,22.6,9.44,33.62a11.66,11.66,0,0,0,2.38,4.37c-.3-3.41-1-6.38-.79-9.43.46-6.29,5-10.19,11.25-9.59a11.56,11.56,0,0,1,8.35,4.51c.35.45.48,1.25,1.46,1.13-.11-.81-.17-1.59-.32-2.36-2.17-10.79-4-21.62-5.31-32.55-1.41-11.91-3.59-23.75-3.37-35.83a41.15,41.15,0,0,0-1-9.05c-2.17-10.77-4.78-21.47-5.6-32.47-.69-9.24-2.64-18.34-3.06-27.61a41.16,41.16,0,0,1,2.07-16,5.42,5.42,0,0,0-.31-4.76c-1.31-2.74-2.39-5.58-3.53-8.4-.19-.48-.66-1.22.08-1.5s.83.62,1.08,1.07c.68,1.28,1.24,2.62,2,3.88,2.56,4.54,5.17,9.05,9.86,11.85,10.77,6.43,25.6-.23,30.81-6.18.7-.8.26-1.28-.14-1.87a39,39,0,0,1-3.09-5.72c-.23-.53-.68-1.28-.16-1.58.82-.47,1,.53,1.3,1C412,231.22,423,232.23,431,223.76c4.77-5,7.08-11.2,8.45-17.79A54.15,54.15,0,0,1,446,188.36a34.91,34.91,0,0,0,5-17.11c.34-8-.32-16.05-.78-24.06-.45-7.8-1.38-15.59-.63-23.41.43-4.47,1-8.93,3.42-12.88.27-.45.45-1.22,1.24-.87.57.26.39.84.33,1.35-.2,1.5-.36,3-.52,4.52-.26,2.52-.75,5-.34,7.73.87-.44.9-1.13,1.06-1.7A110.68,110.68,0,0,0,459,87.83a47.58,47.58,0,0,0-2.28-13.44c-.18-.53-.52-1.3.08-1.57.82-.37,1,.53,1.3,1.08.52,1.12,1,2.24,1.45,3.39,3.39,9.56,3.68,19.41,2.56,29.36-.77,6.83-1.62,13.67-4.57,20-.69,1.48-.49,2,1,2.69q16.86,8.25,33.16,17.57c2.73,1.56,5.48,3.09,8.22,4.63.24,1.1.25,2-1.32,1.42-.68-.24-1.39-.4-2.05-.69-13.61-5.87-26.95-12.32-40.11-19.15-.61-.32-1.25-1.05-2-.62s-.24,1.33-.19,2c.91,11.17,2.19,22.33,2.24,33.56,0,7.56-1.12,14.9-5.27,21.41a50,50,0,0,0-6.78,17.71c-1.39,7.19-3.8,13.91-8.63,19.63-7,8.3-14.53,9.91-24.12,4.94-.68-.35-1-.27-1.37.32-3.66,5.31-8.94,8.33-14.88,10.33-8.94,3-17.14,1.91-23.28-6.26-.31-.42-.53-1-1.49-.92-.32,2.52-.73,5.07-1,7.65-.59,6.47.38,12.86,1.33,19.22,1.45,9.81,1.71,19.76,3.54,29.52.23,1.19,0,2.73,1,3.45.56.43,1.89-.22,2.88-.27,10.79-.54,20.68,8.45,21.26,19.27a10,10,0,0,1-4.23,9,19.07,19.07,0,0,1-5.37,2.79c-3,1-6,2.16-9,3.06-1.45.42-1.74,1.11-1.55,2.5,1.2,8.89,2.42,17.78,3.45,26.68,1.43,12.31,4.24,24.37,6.15,36.59.7,4.54.36,9.08.48,13.61.11,3.93-5.91,9-10.38,9-7.19,0-12.5-3-16.13-9.44a105.93,105.93,0,0,1-9.49-24.16c-4-14.43-8-28.85-12.21-43.21-.42-1.43-.77-1.88-2.47-1.48-12.41,2.85-24.78,5.86-37.39,7.71a2,2,0,0,0-2,1.6,83.7,83.7,0,0,0-2.85,10.91c-1.53,8.17-3,16.38-6.52,24-2.14,4.65-4.71,8.72-10.22,10.46s-12.35.65-16.3-3.7a10.22,10.22,0,0,1-2.71-4.82,49.78,49.78,0,0,1-.45-15.55c.22-2.23.45-4.46.72-7-5.18,3.87-10,7.41-14.76,11-13.83,10.62-28.87,18.72-46.11,22.22A105.57,105.57,0,0,0,166.91,409a74.89,74.89,0,0,1-26.46,9.94c-11.79,1.92-22.94,5.81-34,10.09-6.54,2.54-12.87,5.61-19.58,7.7-8.76,2.72-17.64,3.92-26.73,1.78-.43-1.65.86-1.16,1.56-1.16a69.46,69.46,0,0,0,26.05-5.13c14.88-6.11,30.38-10.33,45.63-15.3,10.75-3.5,21.44-7,31.14-13A100.87,100.87,0,0,1,196.4,391.2a127.44,127.44,0,0,0,19.18-5.44c10.84-4.2,20.34-10.63,29.71-17.34,4.76-3.41,9.51-6.88,14.81-9.43a3.06,3.06,0,0,0,2.12-2.57,147.24,147.24,0,0,1,3.63-17.4c2.93-10.55,2.17-21.58,4.34-32.23.18-.88-.2-1.15-1-1.23-2.2-.21-3.91-1.46-5.54-2.8-8.72-7.13-13.22-16.62-15.29-27.46a3.6,3.6,0,0,0-.78-2.18c-.29.8-.55,1.47-.78,2.14-2.37,7-5,13.89-7.69,20.73-3.28,8.19-7,16.18-9.24,24.77a58,58,0,0,1-7.27,16.17c-1.11,1.77-2.91,3.31-3.43,5.22-1.31,4.78-3.88,9-5.49,13.63-.23.67-.42,1.46-1.28,1.6-4,.65-7.86,1.85-12,1.36-6.91-.81-10-4.87-8.63-11.68.11-.56.35-1.47.1-1.65-2.29-1.74-3-4.44-4.41-6.83-.64,4.24-2.51,8.24-2.72,12.39-.3,6-10.82,11.64-15.84,10a5.24,5.24,0,0,1-3.53-3.52,9,9,0,0,1,0-5.34c.19-.69.43-1.28-.61-1.7-6-2.42-9-7.25-10.3-13.28-.34-1.53-.46-3.1-.68-4.67-.79,0-1,.62-1.48,1-4.06,3.38-9.17,2.1-11.12-2.79a10.59,10.59,0,0,1-.69-5.54,4,4,0,0,0-1.89-4.4c-4.58-3.37-6.51-8.32-7.09-13.85s-1.17-10.93-1.73-16.4c-.13-1.23-.5-1.61-1.91-1.36a74.66,74.66,0,0,1-16,1.34,26.12,26.12,0,0,1-14.63-4.76c-.5-.36-1.41-.66-1-1.43s1.19-.17,1.73.07c4.91,2.12,10.07,2.53,15.32,2.28,4.12-.21,8.23-.58,12.34-.8,2.86-.14,3-.42,1.65-2.91a1.32,1.32,0,0,0-1.56-.71,15.4,15.4,0,0,1-3.46,0c-10.21-1.36-19.4-5.05-27.21-11.9-.4-.36-1.15-.73-.65-1.36s1.08,0,1.54.28a80.49,80.49,0,0,0,8.83,4.61,68.78,68.78,0,0,0,18.69,4.6c.5.05,1.83.31,1.17-.69-1.81-2.74-1.37-7.4-6.31-7.61a7.22,7.22,0,0,1-2.61-1c-3.24-1.61-6.47-3.22-9.68-4.9a33.63,33.63,0,0,1-10-7.43c-.33-.38-.86-.79-.57-1.28s.87-.15,1.29.11a165.59,165.59,0,0,0,17.9,8.77c1.49.67,3,1.29,4.82,2.08-.94-3.64-1.8-6.9-2.61-10.16-.13-.51-.49-1.28.23-1.53s.86.57,1,1.08a92.78,92.78,0,0,0,7.22,14.79c6.12,10.33,10.11,21.22,10.26,33.4a24.31,24.31,0,0,0,3.15,11.19,7.48,7.48,0,0,0,2.57,3.21c.39-1.69.7-3.16,1.08-4.62,1.73-6.61,8.14-9.59,13.94-6.41,1.07.59,1.12.19,1.33-.68.63-2.67,1.31-5.34,2-8,1.45-5.26,1.91-10.57.43-15.87-2.56-9.16-3.88-18.53-5.27-27.91-1-6.54-3-12.91-7.85-17.53-7.58-7.17-17.11-9.35-27.16-7.88a105.77,105.77,0,0,0-24.34,7A19.17,19.17,0,0,0,83.73,249.1c-2.29,7.51-1.66,15.2-1.06,22.84.48,6.06,1.21,12.1.61,18.19-.42,4.25-.9,8.49-1.24,12.74-1.51,19-1.06,37.9-.22,56.85a43.3,43.3,0,0,1-1.22,11.62c-.24,1.07-.52,2.71-1.93,2.47s-1-1.84-.89-2.92a26.11,26.11,0,0,0,.14-5q-.57-10.18-1.17-20.36c0-.29,0-.58-.47-.6-.13.12-.31.25-.45.4-7.77,8.41-17.54,11-28.59,9.79-.73-.08-2.19.09-1.52-1.56C48.43,353.1,51.06,352.64,53.68,352.11Zm194.64-119a71.85,71.85,0,0,1,5.94-28.69,58.67,58.67,0,0,0,4.58-16.8c-2.32.41-4.48.82-6.66,1.16a15.72,15.72,0,0,1-10.32-1.53c-.55-.3-1.44-.41-1.28-1.22.19-1,1.16-.71,1.81-.65a53.54,53.54,0,0,0,14.68-.84c1.68-.3,2.61-.86,2.88-2.79.88-6.17,3-12.07,4.68-18,2.12-7.43,2.45-15.13,3.75-22.67.25-1.49-.51-1.26-1.46-1.13A34.76,34.76,0,0,1,253.8,139a5.93,5.93,0,0,1-1.24-.38c-.56-.29-1.3-.61-1-1.41s.94-.57,1.51-.58c3.32-.07,6.65-.08,10-.2,6.09-.22,6.14-.24,7.2-6.15a144.42,144.42,0,0,0,1.61-37.83c-.33-3.92-1.33-7.73-4.28-10.66-5-4.88-11.77-4.19-15.63,1.56-2.82,4.19-3.44,9-3.88,13.85a172,172,0,0,1-5.55,32.25,68.08,68.08,0,0,1-5.72,13.1,83,83,0,0,0-8,20.56,59.89,59.89,0,0,1-4.67,13.26c-3.77,7.62-5.06,15.94-6.9,24.12a34.58,34.58,0,0,1-7,15c-1.17,1.39,0,1.48.73,1.85,9.51,4.5,18.39,10.06,27.21,15.75a56.56,56.56,0,0,1,10.2,8.71c-.08-2.9-.1-5.8-.07-8.73Zm-55.18.35c7.7,4,13.53,9.63,15.49,18.45a22.26,22.26,0,0,1-.67,12.21c-3.6,10.47-5.75,21.35-9,31.92-1.27,4.14-2.51,8.3-4,12.38-2.71,7.48-3.79,15.26-4.41,23.11a16.84,16.84,0,0,0,2.58,11.12A54.12,54.12,0,0,1,198,333.9c3.35-4.67,8.05-6.78,12.9-5.6,4.37,1.07,7.15,3.89,8.53,8.53a47.31,47.31,0,0,0,5.46-12c4.47-15.9,11-31,16.71-46.5a80.72,80.72,0,0,0,5.23-23.4c.37-6.65-1.86-12-7.34-15.73-12.32-8.28-25.09-15.82-39.16-20.77-7-2.46-14.11-1.77-21,1a65.58,65.58,0,0,0-8.35,4.26,184.19,184.19,0,0,1,22.18,9.68Zm-1,72A251.17,251.17,0,0,0,200.23,274c.8-4.47,2.55-8.76,3.44-13.21,1.49-7.45-.72-13.76-6.81-18.45S183.9,235,177,232.2c-8-3.32-16-6.73-24.7-7.91a36.84,36.84,0,0,0-17.47,1.36,8.2,8.2,0,0,0,3.34,1.24c10.9,3.13,16.59,11,19.44,21.39a120.25,120.25,0,0,1,2.64,15c.16,1.19.34,2.37.59,4.12,1.34-1.41,2.3-2.46,3.29-3.45a13.13,13.13,0,0,1,1.94-1.71c.73-.48,1.78-.89,2.35-.1s-.62,1.09-1,1.62c-1.8,2.44-3.56,4.9-5.36,7.33a2.55,2.55,0,0,0-.22,2.28c.79,3.45,1.66,6.89,2.3,10.37,1.68,9.1-1,17.48-4.53,25.66-.29.66-.82,1.24-.72,2,.6,4.31-1,8.28-1.74,12.39-1.29,7.18-.34,13.95,4.25,19.91a16.12,16.12,0,0,0,3.88,3.44c1,.65,1.34.5,1.5-.68A32.3,32.3,0,0,1,169,337.6c2.08-4.78,6.12-7.49,10.78-7.28a8.8,8.8,0,0,1,5.86,2.91,182.8,182.8,0,0,1,6.53-27.8Zm110.91,37.2c5.35-1.24,10.69-2.56,16.05-3.76,6.21-1.39,12.42-2.77,18.67-4,1.62-.31,1.75-.81,1.38-2.23-1.9-7.19-4.3-14.27-5.41-21.66-.32-2.14-.6-4.3-.75-6.46-.11-1.63-.62-2.14-2.28-1.55a77.14,77.14,0,0,1-16.43,3.79c-.58.07-1.15.16-1.72.2-3.95.28-3.9.28-4.57,4.28-1.48,8.76-2.14,17.67-4.68,26.24-.46,1.52-1,3-1.5,4.6-.09,1.24.77.64,1.27.52Zm12.69-71.15c-2,9.77-4.22,19.5-5.95,29.33-.3,1.7,0,2,1.74,1.82,6.65-.58,13.05-2.49,19.61-3.48,1.6-.24,1-1.34.84-2.16-1.14-7.58-2.67-15.1-3.54-22.72a136.25,136.25,0,0,0-3.26-17.69c-.21-.82-.47-1.64-.77-2.69-5,5.08-7.29,11.08-8.64,17.56ZM210.55,354.75c.61-.06.82-.41,1-.91A84.77,84.77,0,0,0,215.94,343c1.72-6.27-1.28-11.15-7.05-11.57a9.13,9.13,0,0,0-7.35,3.05c-4.39,4.39-6.38,9.84-6.95,15.9a3.78,3.78,0,0,0,2.7,4.18,17.12,17.12,0,0,0,6.26,1C205.68,355.31,208.11,355,210.55,354.75Zm158.2,54.68c0,.74.54,1.15,1.07,1.53a12.58,12.58,0,0,0,9.41,2.41c3.13-.39,6.72-3.81,5.94-7.92s-1.32-8.56-3.44-12.46a9.21,9.21,0,0,0-8.81-5.19c-3.4,0-5.05,1.46-5.47,4.83-.13,1.08-.14,2.16-.2,3.24C367.25,400.45,368.88,404.85,368.75,409.43ZM275,366.73c-3.24-.59-5.31.58-6.6,3.82-1.2,3-1.58,6.15-2.23,9.25a15.44,15.44,0,0,1-1.08,4.17c-.9,1.67-.29,2.57.91,3.63a13.81,13.81,0,0,0,12.52,3.13,1.53,1.53,0,0,0,1.32-1.24c1.05-4.35,2.21-8.68,2.48-12.48C282.48,370.77,280.09,367.64,275,366.73Zm117.29-46.91a4.74,4.74,0,0,0,2.52-4.87,18.26,18.26,0,0,0-17.68-16.7c-1.88,0-1.12,1-1,1.78,1.11,5.37,2.48,10.7,2.76,16.2.15,2.93,0,5.87,0,9.3,4.71-2.44,9.34-3.42,13.43-5.71ZM180.56,354.11a3,3,0,0,0,1.13-1.79c.71-3.9,1.88-7.71,2.3-11.67.39-3.68-.55-5.92-2.82-6.85-2.43-1-5.82.23-7.82,2.81a11.68,11.68,0,0,0-2.12,4c-1.18,4.31-2.35,8.63-3.3,13-.67,3.05.54,4.42,3.7,4.33A16.78,16.78,0,0,0,180.56,354.11ZM143.64,329c.71,2.85,2.6,3.89,5.32,2.82a6.67,6.67,0,0,0,3.83-4.19c1.36-3.7,1.69-7.61,2.19-11.47.11-.79.17-1.59.28-2.37.4-2.82-1.23-4.41-4.07-3.9a7,7,0,0,0-5.3,4.36,27.81,27.81,0,0,0-2.57,11.31A15.25,15.25,0,0,0,143.64,329Z" transform="translate(0 0.01)" style="fill:#6a374f;stroke:#6a374f;stroke-miterlimit:10;stroke-width:2px"/><path d="M325.15,205.75c-.69,4.63,2.56,8.85,4.93,13.36.24.44.61.95,1.19.59s.16-.79,0-1.17c-4.75-9.68-2.75-19.44-.35-29.2.14-.59.84-1.31.06-1.75-1-.53-1.18.5-1.49,1.08A36,36,0,0,0,325.15,205.75Z" transform="translate(0 0.01)" style="fill:#6a374f;stroke:#6a374f;stroke-miterlimit:10"/><path d="M351.4,316.57a111.15,111.15,0,0,1,11.81-.91,6.32,6.32,0,0,0,3.43-1.2c.44-.3.8-.72.62-1.26a.91.91,0,0,0-1.05-.59c-5.13.65-10.39-.35-15.45,1.13-1,.27-2.68.19-2.47,1.47S350.11,316.57,351.4,316.57Z" transform="translate(0 0.01)" style="fill:#6a374f"/><path d="M420.89,172a48.35,48.35,0,0,0-2.55-12.65c-1-2.75-1.73-5.64-2.58-8.47-.17-.57-.1-1.52-1-1.32-.71.17-.34,1-.24,1.51,1.53,7.32,3.06,14.65,4.66,22,.13.58,0,1.78,1,1.62s.77-1.21.72-2Z" transform="translate(0 0.01)" style="fill:#6a374f;stroke:#6a374f;stroke-miterlimit:10"/><path d="M294,296.29c.66-.08,1.61.25,1.79-.71s-.68-1.24-1.34-1.43c-3.94-1.15-7.65-2.9-11.44-4.43-.4-.16-.9-.31-1.19.1s0,.81.39,1.08C285.77,293.5,289.35,296,294,296.29Z" transform="translate(0 0.01)" style="fill:#6a374f"/><path d="M356.28,325.1c2.89-.07,4.86-.13,6.37-1.65.5-.5,1.2-1.16.71-1.85s-1.09.11-1.62.37a11.6,11.6,0,0,1-6.78.8c-1.78-.23-3.55-.62-5.33-.91-.55-.09-1.28-.4-1.54.29-.33.9.62,1,1.14,1.24A19.31,19.31,0,0,0,356.28,325.1Z" transform="translate(0 0.01)" style="fill:#6a374f"/><path d="M362,304.39c-3.33.63-7.45.6-11.12,2.6-.43.24-1.08.36-.81,1s.76.3,1.16.24c4.29-.58,8.58-1.17,12.86-1.81.59-.09,1.45-.18,1.34-1.08s-.79-1-1.49-1C363.47,304.38,363,304.39,362,304.39Z" transform="translate(0 0.01)" style="fill:#6a374f"/><path d="M285.76,349.18c.93,0,1.76,0,2-.8.37-1.09-.76-1-1.31-1.31-3.06-1.8-6.69-2.25-9.74-4.08-.25-.15-.54-.27-.79,0s-.12.66.08,1c1,1.46,1.91,2.88,3.7,3.47A35.22,35.22,0,0,0,285.76,349.18Z" transform="translate(0 0.01)" style="fill:#6a374f"/><path d="M285.62,286.37c-.72.12-1.61-.3-1.74.61-.11.75.75.72,1.25.91a55,55,0,0,1,9,4.12c.67.41,1.66,1.26,2.28.28s-.42-1.72-1.16-2.24A20.29,20.29,0,0,0,285.62,286.37Z" transform="translate(0 0.01)" style="fill:#6a374f"/><path d="M365.88,372.59c2.23-.41,4.61-.37,6.57-1.81.55-.41,1.37-.92.93-1.73s-1.17-.13-1.71.08c-2,.75-4.11.74-6.1,1.38-.73.23-2.14-.18-2,1S364.94,372.49,365.88,372.59Z" transform="translate(0 0.01)" style="fill:#6a374f"/><path d="M143.76,397.27a77,77,0,0,0-18.57.52c-3,.4-6,1.17-9,1.56a30.42,30.42,0,0,1-15.49-1.75c-.45-.19-1-.66-1.33-.1s.21.93.62,1.2c5.07,3.4,10.53,6,16.78,5.28,6.66-.72,13.26-2,19.9-3,3.63-.53,7.29-.87,10.94-1.34.56-.08,1.5.12,1.52-.81,0-.74-.73-1-1.36-1.21A9.55,9.55,0,0,0,143.76,397.27Z" transform="translate(0 0.01)" style="fill:#6a374f"/><path d="M238.11,233.11c-8.82-5.69-17.7-11.25-27.21-15.75-.77-.37-1.9-.46-.73-1.85a34.58,34.58,0,0,0,7-15c1.84-8.18,3.13-16.5,6.9-24.12a59.89,59.89,0,0,0,4.67-13.26,83,83,0,0,1,8-20.56,68.08,68.08,0,0,0,5.72-13.1A171.91,171.91,0,0,0,248,97.23c.44-4.84,1.06-9.66,3.88-13.85,3.86-5.75,10.68-6.44,15.63-1.56,3,2.93,4,6.74,4.28,10.66a144.42,144.42,0,0,1-1.61,37.83c-1.06,5.91-1.11,5.93-7.2,6.15-3.32.12-6.65.13-10,.2-.57,0-1.3-.08-1.51.58s.48,1.12,1,1.41a5.93,5.93,0,0,0,1.24.38,34.74,34.74,0,0,0,13.12.84c.95-.13,1.71-.36,1.46,1.13-1.3,7.54-1.63,15.24-3.75,22.67-1.71,6-3.8,11.87-4.68,18-.27,1.93-1.2,2.49-2.88,2.79a53.54,53.54,0,0,1-14.68.84c-.65-.06-1.62-.34-1.81.65-.16.81.73.92,1.28,1.22a15.72,15.72,0,0,0,10.32,1.53c2.18-.34,4.34-.75,6.66-1.16a58.67,58.67,0,0,1-4.58,16.8A71.85,71.85,0,0,0,248.23,233v8.75A56.58,56.58,0,0,0,238.11,233.11Zm17.49-52a8.12,8.12,0,0,0,1.7.33c.56,0,1.24.14,1.52-.51s-.18-1.11-.54-1.55c-1.07-1.3-2.66-1.7-4.17-2.11a24.63,24.63,0,0,0-6.82-1c-4.33.07-8.65.2-13,.32-.47,0-1.11-.21-1.22.52s.43.86.86,1.11a10.58,10.58,0,0,0,5.13,1.53h5a32.43,32.43,0,0,1,11.54,1.32Z" transform="translate(0 0.01)" style="fill:#6a374f"/><path d="M179.32,219.47c6.88-2.82,14-3.51,21-1.05,14.07,5,26.84,12.49,39.16,20.77,5.48,3.69,7.71,9.08,7.34,15.73a80.72,80.72,0,0,1-5.23,23.4c-5.69,15.46-12.24,30.6-16.71,46.5a47.31,47.31,0,0,1-5.46,12c-1.38-4.64-4.16-7.46-8.53-8.53-4.85-1.18-9.55.93-12.9,5.6a54.12,54.12,0,0,0-4.85,8.75,16.84,16.84,0,0,1-2.58-11.12c.62-7.85,1.7-15.63,4.41-23.11,1.48-4.08,2.72-8.24,4-12.38,3.26-10.57,5.41-21.45,9-31.92a22.26,22.26,0,0,0,.67-12.21c-2-8.82-7.79-14.41-15.49-18.45A184,184,0,0,0,171,223.73,65.21,65.21,0,0,1,179.32,219.47Zm61.8,39c.9-.57,2.23-1,1.63-2.34-.49-1.12-1.75-1-2.69-.6-4.52,1.8-9.41,1.16-14,2.21a8.31,8.31,0,0,1-3.87-.16c-.5-.13-1.19-.64-1.56,0s.4,1.14.83,1.55c1.56,1.5,3.53,1.84,6.26,1.86,4-1,9,.21,13.4-2.56Zm-19.06,54.4c.21-1.79-1.65-1.8-3-2.11-3.25-.77-6.59-.59-9.88-1-.52-.06-1.27-.24-1.43.54-.12.6.53.78.93,1.06,3,2.15,6.53,2.5,10.25,2.58,1-.36,2.91.77,3.13-1.11Z" transform="translate(0 0.01)" style="fill:#6a374f"/><path d="M179.76,330.32c-4.66-.21-8.7,2.5-10.78,7.28a32.25,32.25,0,0,0-2.19,8.81c-.16,1.18-.55,1.33-1.5.68a16.12,16.12,0,0,1-3.88-3.44c-4.59-6-5.54-12.73-4.25-19.91.73-4.11,2.34-8.08,1.74-12.39-.1-.76.43-1.34.72-2,3.57-8.18,6.21-16.56,4.53-25.66-.64-3.48-1.51-6.92-2.3-10.37a2.55,2.55,0,0,1,.22-2.28c1.8-2.43,3.56-4.89,5.36-7.33.39-.53,1.58-.83,1-1.62s-1.62-.38-2.35.1a13.13,13.13,0,0,0-1.94,1.71c-1,1-2,2-3.29,3.45-.25-1.75-.43-2.93-.59-4.12a120.25,120.25,0,0,0-2.64-15c-2.85-10.41-8.54-18.26-19.44-21.39a8.2,8.2,0,0,1-3.34-1.24,36.84,36.84,0,0,1,17.47-1.36c8.7,1.18,16.7,4.59,24.7,7.91,6.88,2.84,13.89,5.47,19.87,10.08s8.3,11,6.81,18.45c-.89,4.45-2.64,8.74-3.44,13.21a251.17,251.17,0,0,1-8.09,31.49,184.05,184.05,0,0,0-6.55,27.8A8.8,8.8,0,0,0,179.76,330.32Zm16-71.11c.76-.51,1.76-1.12,1.31-2.2s-1.47-.48-2.15-.32c-3.58.86-7.15,1.64-10.87,1.32a4.12,4.12,0,0,0-1.47.36c-.4.13-.86.28-.92.78s.39.71.79.87a14.73,14.73,0,0,0,6,1.21c2.27-.3,5-.49,7.27-2Z" transform="translate(0 0.01)" style="fill:#6a374f"/><path d="M301.84,342.1c-.12,1.25.74.65,1.24.53,5.35-1.24,10.69-2.56,16.05-3.76,6.21-1.39,12.42-2.77,18.67-4,1.62-.31,1.75-.81,1.38-2.23-1.9-7.19-4.3-14.27-5.41-21.66-.32-2.14-.6-4.3-.75-6.46-.11-1.63-.62-2.14-2.28-1.55a77.14,77.14,0,0,1-16.43,3.79c-.58.07-1.15.16-1.72.2-3.95.28-3.9.28-4.57,4.28-1.48,8.76-2.14,17.67-4.68,26.24C302.88,339,302.36,340.52,301.84,342.1Z" transform="translate(0 0.01)" style="fill:#6a374f;stroke:#6a374f;stroke-miterlimit:10"/><path d="M324.44,253.89c-5,5.12-7.32,11.12-8.67,17.59-2,9.77-4.22,19.5-5.95,29.33-.3,1.7,0,2,1.74,1.82,6.65-.58,13.05-2.49,19.61-3.48,1.6-.24,1-1.34.84-2.16-1.14-7.58-2.67-15.1-3.54-22.72a136.25,136.25,0,0,0-3.26-17.69C325,255.76,324.74,254.94,324.44,253.89Z" transform="translate(0 0.01)" style="fill:none;stroke:#6a374f;stroke-miterlimit:10;stroke-width:4px"/><path d="M203.55,355.56c2.13-.25,4.56-.55,7-.81.61-.06.82-.41,1-.91A84.77,84.77,0,0,0,215.94,343c1.72-6.27-1.28-11.15-7.05-11.57a9.13,9.13,0,0,0-7.35,3.05c-4.39,4.39-6.38,9.84-6.95,15.9a3.78,3.78,0,0,0,2.7,4.18A17.12,17.12,0,0,0,203.55,355.56Z" transform="translate(0 0.01)" style="fill:#6a374f"/><path d="M367.25,395.87c0,4.58,1.63,9,1.5,13.56,0,.74.54,1.15,1.07,1.53a12.58,12.58,0,0,0,9.41,2.41c3.13-.39,6.72-3.81,5.94-7.92s-1.32-8.56-3.44-12.46a9.21,9.21,0,0,0-8.81-5.19c-3.4,0-5.05,1.46-5.47,4.83C367.32,393.71,367.31,394.79,367.25,395.87Z" transform="translate(0 0.01)" style="fill:#6a374f"/><path d="M282.35,377c.13-6.24-2.26-9.37-7.32-10.28-3.24-.59-5.31.58-6.6,3.82-1.2,3-1.58,6.15-2.23,9.25a15.44,15.44,0,0,1-1.08,4.17c-.9,1.67-.29,2.57.91,3.63a13.81,13.81,0,0,0,12.52,3.13,1.53,1.53,0,0,0,1.32-1.24C280.92,385.14,282.08,380.81,282.35,377Z" transform="translate(0 0.01)" style="fill:#6a374f"/><path d="M379,325.53c4.63-2.44,9.26-3.42,13.35-5.71a4.74,4.74,0,0,0,2.52-4.87,18.26,18.26,0,0,0-17.68-16.7c-1.88,0-1.12,1-1,1.78,1.11,5.37,2.48,10.7,2.76,16.2C379.1,319.16,379,322.1,379,325.53Z" transform="translate(0 0.01)" style="fill:#6a374f;stroke:#6a374f;stroke-miterlimit:10"/><path d="M171.63,357.94a16.78,16.78,0,0,0,8.93-3.83,3,3,0,0,0,1.13-1.79c.71-3.9,1.88-7.71,2.3-11.67.39-3.68-.55-5.92-2.82-6.85-2.43-1-5.82.23-7.82,2.81a11.68,11.68,0,0,0-2.12,4c-1.18,4.31-2.35,8.63-3.3,13C167.26,356.66,168.47,358,171.63,357.94Z" transform="translate(0 0.01)" style="fill:#6a374f"/><path d="M143.32,325.6a15.25,15.25,0,0,0,.32,3.44c.71,2.85,2.6,3.89,5.32,2.82a6.67,6.67,0,0,0,3.83-4.19c1.36-3.7,1.69-7.61,2.19-11.47.11-.79.17-1.59.28-2.37.4-2.82-1.23-4.41-4.07-3.9a7,7,0,0,0-5.3,4.36A27.81,27.81,0,0,0,143.32,325.6Z" transform="translate(0 0.01)" style="fill:#6a374f"/><path d="M244.06,179.71a32.18,32.18,0,0,1,11.54,1.36,8.12,8.12,0,0,0,1.7.33c.56,0,1.24.14,1.52-.51s-.18-1.11-.54-1.55c-1.07-1.3-2.66-1.7-4.17-2.11a24.63,24.63,0,0,0-6.82-1c-4.33.07-8.65.2-13,.32-.47,0-1.11-.21-1.22.52s.43.86.86,1.11a10.58,10.58,0,0,0,5.13,1.53C240.74,179.74,242.4,179.71,244.06,179.71Z" transform="translate(0 0.01)" style="fill:#6a374f"/><path d="M227.68,261c4-1,9.08.21,13.44-2.56.9-.57,2.23-1,1.63-2.34-.49-1.12-1.75-1-2.69-.6-4.52,1.8-9.41,1.16-14,2.21a8.31,8.31,0,0,1-3.87-.16c-.5-.13-1.19-.64-1.56,0s.4,1.14.83,1.55C223,260.63,225,261,227.68,261Z" transform="translate(0 0.01)" style="fill:#6a374f"/><path d="M219,313.88c1-.3,2.88.83,3.1-1.05s-1.65-1.8-3-2.11c-3.25-.77-6.59-.59-9.88-1-.52-.06-1.27-.24-1.43.54-.12.6.53.78.93,1.06C211.75,313.45,215.24,313.8,219,313.88Z" transform="translate(0 0.01)" style="fill:#6a374f"/><path d="M188.36,261.23c2.36-.3,5-.49,7.36-2,.76-.51,1.76-1.12,1.31-2.2-.4-.93-1.47-.48-2.15-.32-3.58.86-7.15,1.64-10.87,1.32a4.12,4.12,0,0,0-1.47.36c-.4.13-.86.28-.92.78s.39.71.79.87A14.85,14.85,0,0,0,188.36,261.23Z" transform="translate(0 0.01)" style="fill:#6a374f"/></g><g id="Layer_1-2" data-name="Layer 1-2"><path d="M21.33,350c1.72-1.83,4.36-2.09,6.8-2.44a57.25,57.25,0,0,0,6-1.51,13.12,13.12,0,0,1,3.69-.43h0l7.88-1.49c7.65-1.56,14.69-4.36,20.35-10a8.43,8.43,0,0,0,2.68-6.55,276,276,0,0,1,1.71-37.48,96.31,96.31,0,0,0-.15-26.81,69.69,69.69,0,0,1-.61-15c.51-9.22,4.38-16.34,12.78-20.7a113.87,113.87,0,0,1,17.86-7.26c4.33-1.38,8.62-3.23,13.2-3.35s8.88-1.69,13.06-3.54A29.07,29.07,0,0,1,138.35,211a52.79,52.79,0,0,1,17.5,2.67,5,5,0,0,0,5.15-.83c11.1-7.92,23.13-10.63,36.28-5.73,1.2.44,1.68,0,2.22-.92a38.91,38.91,0,0,0,4.4-11.95c1.9-9.58,3.54-19.22,8.19-28a44.75,44.75,0,0,0,3.91-10.8,98.13,98.13,0,0,1,8.84-23,61.17,61.17,0,0,0,4.33-9.46,135.39,135.39,0,0,0,6.08-30.34c.46-5.62.77-11.28,3-16.59,4-9.73,13.39-12.52,22-6.43C266,73.76,268,80,268.61,86.73a154.16,154.16,0,0,1-.17,24.5c-.65,9.84-3.48,19.36-4.42,29.17a103.6,103.6,0,0,1-4.94,23.29,69.93,69.93,0,0,0-2.94,13.1,84.73,84.73,0,0,1-5.85,21.94c-1.91,4.46-3.8,9-4.24,13.85-1.07,12-3.79,23.8-3.59,36,.15,9.78,1.51,19.16,5.35,28.12,2.27,5.27,5.22,10.15,10,13.61,2.14-.25,3.91,1.22,6,1.32.46-2.86,1-5.7,1.36-8.57.93-8,1.24-16,2.37-24q3.4-24,7.18-47.85c1.47-9.41,2.16-18.88,4.35-28.25a200.73,200.73,0,0,1,11.86-36.65c9-20.06,17.87-40.18,25.41-60.83,5-13.57,10.53-26.75,18.73-38.74,6.93-10.1,14.83-19,26.15-24.44,17.25-8.26,35.38-9.68,54-7.22,18.19,2.39,35.3,8.17,51.77,16.09A316.18,316.18,0,0,1,504.84,52.3a13,13,0,0,1,4,3.88c.26.42.73.84.39,1.36-.46.67-1,.15-1.55,0a10.76,10.76,0,0,1-2.31-1,39.14,39.14,0,0,0-3.65-2,3.47,3.47,0,0,0,.06.64,3.41,3.41,0,0,0,.86,1.7A16.89,16.89,0,0,1,506,62.12c1.48,3.91,1.61,7.65-1.39,11.12a9.14,9.14,0,0,0-2.43,6.52c.15,3.43,1.84,6.16,3.58,8.9,7.16,11.29,11.51,23.38,10.8,37-.28,5.34-1.32,10.39-4.71,14.74a12.69,12.69,0,0,1-5.4,4.12c-2.72,1.08-5.48.77-8.3.54a32.42,32.42,0,0,1-4.84-1.24,9.11,9.11,0,0,0-1.65-.23,4.92,4.92,0,0,1,.11.77.81.81,0,0,1,0,.31.59.59,0,0,1-.25.43c-.21.13-.58.13-1.17-.09s-1.39-.4-2.05-.69c-13.61-5.87-26.95-12.32-40.11-19.15-.61-.32-1.25-1-2-.62s-.24,1.33-.19,2c.91,11.17,2.19,22.33,2.24,33.56,0,7.56-1.12,14.9-5.27,21.41a50,50,0,0,0-6.78,17.71c-1.39,7.19-3.8,13.91-8.63,19.63-7,8.3-14.53,9.91-24.12,4.94-.68-.35-1-.27-1.37.32-3.66,5.31-8.94,8.33-14.88,10.33-8.94,3-17.14,1.91-23.28-6.26-.31-.42-.53-1-1.49-.93-.32,2.53-.73,5.08-1,7.66-.59,6.47.38,12.86,1.33,19.22,1.45,9.81,1.71,19.76,3.54,29.52.23,1.19,0,2.73,1,3.45.56.43,1.89-.22,2.88-.27,10.79-.54,20.68,8.45,21.26,19.27a10,10,0,0,1-4.23,9,19.07,19.07,0,0,1-5.37,2.79c-3,1-6,2.16-9,3.06-1.45.42-1.74,1.11-1.55,2.5,1.2,8.89,2.42,17.78,3.45,26.68,1.43,12.31,4.24,24.37,6.15,36.59.7,4.54.36,9.08.48,13.61.11,3.93-5.91,9-10.38,9-7.19.05-12.5-3-16.13-9.44a105.93,105.93,0,0,1-9.49-24.16c-4-14.43-8-28.85-12.21-43.21-.42-1.43-.77-1.88-2.47-1.48-12.41,2.85-24.78,5.86-37.39,7.71a2,2,0,0,0-1.95,1.6,83.7,83.7,0,0,0-2.85,10.91c-1.53,8.17-3,16.38-6.52,24-2.14,4.65-4.71,8.71-10.22,10.46s-12.35.65-16.3-3.7a10.22,10.22,0,0,1-2.71-4.82,49.78,49.78,0,0,1-.45-15.55c.22-2.23.45-4.46.72-7-5.18,3.87-10,7.41-14.76,11-13.83,10.62-28.87,18.72-46.11,22.22A105.58,105.58,0,0,0,158.91,401a74.89,74.89,0,0,1-26.46,9.94c-11.79,1.92-22.94,5.81-34,10.09-6.54,2.54-12.87,5.61-19.58,7.7-7.66,2.38-15.42,3.6-23.33,2.43-1.13-.17-2.26-.39-3.4-.65a12.63,12.63,0,0,1-2.3.12,9.2,9.2,0,0,1-3.18-.72A10.3,10.3,0,0,1,43.77,428c-4.56-4.26-4.59-9.73-4.16-15.21.35-4.36,1.3-8.71-2.91-11.82-1.79-1.33-3.61-2.61-5.37-4a40.38,40.38,0,0,1-12.8-16.5c-2.2-5.31-4.82-10.38-4.5-16.49S17.62,353.91,21.33,350Z" transform="translate(0 0.01)" style="fill:#fff;stroke:#fff;stroke-linecap:round;stroke-linejoin:round;stroke-width:28px"/><g id="anNPlk.tif"><path d="M258.84,290.29c-4.81-3.46-7.76-8.34-10-13.61-3.84-9-5.2-18.34-5.35-28.12-.2-12.18,2.52-24,3.59-36,.44-4.86,2.33-9.39,4.24-13.85a84.73,84.73,0,0,0,5.85-21.94,69.93,69.93,0,0,1,2.94-13.1A103.34,103.34,0,0,0,265,140.4c.94-9.81,3.77-19.33,4.42-29.17a154.16,154.16,0,0,0,.17-24.5C269,80,267,73.76,261.14,69.6c-8.57-6.09-17.94-3.3-22,6.43-2.19,5.31-2.5,11-3,16.59a134.48,134.48,0,0,1-6,30.38,60.74,60.74,0,0,1-4.33,9.46,98.3,98.3,0,0,0-8.84,23,44,44,0,0,1-3.88,10.79c-4.65,8.77-6.29,18.41-8.19,28a38.91,38.91,0,0,1-4.4,11.95c-.54.94-1,1.36-2.22.92-13.15-4.9-25.18-2.19-36.28,5.73a5,5,0,0,1-5.14.83,53.05,53.05,0,0,0-17.5-2.67,29.22,29.22,0,0,0-11.8,2.52c-4.18,1.85-8.34,3.42-13.06,3.54s-8.87,2-13.2,3.35a113.87,113.87,0,0,0-17.86,7.26C75,232,71.17,239.13,70.66,248.35a69.69,69.69,0,0,0,.61,15,96.31,96.31,0,0,1,.15,26.81,276,276,0,0,0-1.71,37.48,8.37,8.37,0,0,1-2.71,6.5c-5.66,5.61-12.7,8.41-20.35,10-2.62.53-5.25,1-7.88,1.49-3.38-.15-6.41,1.49-9.67,1.94-2.44.35-5.08.61-6.8,2.44-3.71,3.93-7,8-7.3,14s2.3,11.18,4.5,16.49A40.38,40.38,0,0,0,32.3,397c1.76,1.38,3.58,2.66,5.37,4,4.21,3.11,3.26,7.46,2.91,11.82-.43,5.48-.4,10.95,4.16,15.21a9.54,9.54,0,0,0,8.36,2.52c9.09,2.14,18,.94,26.73-1.78,6.71-2.09,13-5.16,19.58-7.7,11.07-4.28,22.22-8.17,34-10.09a74.89,74.89,0,0,0,26.5-10,105.34,105.34,0,0,1,33.36-13.1c17.24-3.5,32.28-11.6,46.11-22.22,4.75-3.64,9.58-7.18,14.76-11-.26,2.58-.5,4.81-.72,7a50.08,50.08,0,0,0,.45,15.55,10.22,10.22,0,0,0,2.71,4.82c3.95,4.35,10.76,5.46,16.3,3.7s8.08-5.81,10.22-10.46c3.51-7.63,5-15.84,6.52-24a85.33,85.33,0,0,1,2.85-10.91,2.06,2.06,0,0,1,1.95-1.6c12.61-1.85,25-4.86,37.39-7.71,1.7-.4,2.05.05,2.47,1.48,4.24,14.36,8.24,28.78,12.21,43.21A106.08,106.08,0,0,0,356,399.87c3.63,6.47,8.94,9.49,16.13,9.44,4.47,0,10.49-5.07,10.39-9-.13-4.53.21-9.07-.49-13.61-1.91-12.22-4.72-24.28-6.15-36.59-1-8.9-2.25-17.79-3.45-26.68-.18-1.39.1-2.08,1.55-2.5,3-.9,6-2,9-3.06a19.07,19.07,0,0,0,5.37-2.79,10,10,0,0,0,4.23-9c-.58-10.82-10.47-19.81-21.26-19.27-1,0-2.32.7-2.88.27-.94-.72-.75-2.26-1-3.45-1.83-9.76-2.09-19.71-3.54-29.52-.95-6.36-1.92-12.75-1.33-19.22.23-2.58.64-5.13,1-7.65.95-.13,1.17.5,1.49.92,6.13,8.17,14.33,9.27,23.27,6.26,6-2,11.22-5,14.88-10.33.41-.59.69-.67,1.37-.32,9.59,5,17.11,3.36,24.12-4.94,4.83-5.72,7.24-12.44,8.63-19.63a50,50,0,0,1,6.78-17.71c4.15-6.51,5.3-13.85,5.27-21.41-.05-11.23-1.33-22.39-2.24-33.56,0-.67-.56-1.54.19-2s1.34.3,2,.62c13.16,6.83,26.5,13.28,40.11,19.15.66.29,1.37.45,2.05.69,1.57.57,1.56-.32,1.32-1.42,2.26.06,4.23,1.28,6.49,1.47,2.82.23,5.58.54,8.3-.54a12.69,12.69,0,0,0,5.4-4.12c3.39-4.35,4.43-9.4,4.71-14.74.71-13.6-3.64-25.69-10.8-37-1.74-2.74-3.43-5.47-3.58-8.9a9.14,9.14,0,0,1,2.43-6.52c3-3.47,2.87-7.21,1.39-11.12a16.89,16.89,0,0,0-3.38-5.24,3.34,3.34,0,0,1-.92-2.34c2,.88,3.77,2.42,6,3,.52.15,1.09.67,1.55,0,.34-.52-.13-.94-.39-1.36a13,13,0,0,0-4-3.88,315.17,315.17,0,0,0-38-21.09c-16.47-7.92-33.58-13.7-51.76-16.09-18.68-2.46-36.8-1-54.06,7.22C350.9,27.72,343,36.65,336.07,46.75c-8.2,12-13.77,25.17-18.73,38.74-7.54,20.65-16.41,40.77-25.4,60.83A200.29,200.29,0,0,0,280.07,183c-2.19,9.37-2.88,18.84-4.35,28.25q-3.75,23.9-7.18,47.85c-1.13,8-1.44,16-2.37,24-.33,2.87-.9,5.71-1.36,8.57C262.75,291.51,261,290,258.84,290.29Z" transform="translate(0 0.01)" style="fill:#fff"/><path d="M483.55,138.91q-16.29-9.34-33.16-17.57c-1.44-.7-1.64-1.21-.95-2.69,2.95-6.33,3.8-13.17,4.57-20,1.12-10,.83-19.8-2.56-29.36C451,68.14,450.52,67,450,65.9c-.25-.55-.48-1.45-1.3-1.08-.6.27-.26,1-.08,1.57a47.58,47.58,0,0,1,2.28,13.44,110.68,110.68,0,0,1-4.21,34.1c-.16.57-.19,1.26-1.06,1.7-.41-2.68.08-5.21.34-7.73.16-1.51.32-3,.52-4.52.06-.51.24-1.09-.33-1.35-.79-.35-1,.42-1.24.87-2.4,3.95-3,8.41-3.42,12.88-.75,7.82.18,15.61.63,23.41.46,8,1.12,16,.78,24.06a34.91,34.91,0,0,1-5,17.11A54,54,0,0,0,431.47,198c-1.37,6.59-3.68,12.77-8.45,17.79-8,8.47-19,7.46-25.25-2.39-.31-.49-.48-1.49-1.3-1-.52.3-.07,1,.16,1.58a39,39,0,0,0,3.09,5.72c.4.59.84,1.07.14,1.87-5.21,6-20,12.61-30.81,6.18-4.69-2.8-7.3-7.31-9.86-11.85-.71-1.26-1.27-2.6-1.95-3.88-.25-.45-.32-1.36-1.08-1.07s-.27,1-.08,1.5c1.14,2.82,2.22,5.66,3.53,8.4a5.42,5.42,0,0,1,.31,4.76,41.16,41.16,0,0,0-2.07,16c.42,9.27,2.37,18.37,3.06,27.61.82,11,3.43,21.7,5.6,32.47a41.15,41.15,0,0,1,1,9.05c-.22,12.08,2,23.92,3.37,35.83,1.29,10.93,3.14,21.76,5.31,32.55.15.77.21,1.55.32,2.36-1,.12-1.11-.68-1.46-1.13a11.56,11.56,0,0,0-8.35-4.51c-6.29-.6-10.79,3.3-11.25,9.59-.22,3.05.49,6,.79,9.43a11.66,11.66,0,0,1-2.38-4.37c-3.81-11-6.41-22.38-9.44-33.62q-6.62-24.5-13.33-49c-1.73-6.25-1.75-12.75-3-19.07-2.61-13.56-3.49-27.42-7.31-40.76a90,90,0,0,0-11.31-25,21.61,21.61,0,0,0-1.77-2.18c-.28-.33-.67-.68-1.1-.34s-.25.79,0,1.19c.69,1.27,1.37,2.54,2.08,3.8,2.76,5,4.42,10.36,6.25,15.69.2.57.58,1.14-.21,1.71-5.53,4-8.14,9.89-9.62,16.25-4.43,19.11-8.18,38.34-10.85,57.78A81.77,81.77,0,0,1,289,336.8c-3.28,8-4.42,16.61-6.45,25-1.3,5.35-2.82,10.63-5.59,15.45-.18.31-.3.67-.84.69-.07-1.91.74-3.66,1-5.49a26.32,26.32,0,0,0,.35-6.69,11.24,11.24,0,0,0-12-10.43,10.46,10.46,0,0,0-1.68.24c-3.44.66-5.28,3.06-6.43,6.13-.55,1.47-1,3-1.62,4.46a69.22,69.22,0,0,1,1-11.22c1.27-10.14,4-20,6-30,1.15-5.61,1.23-11.36,1.7-17.05.59-7.1,2.67-13.92,3.77-20.92,1.3-8.3,1.32-16.73,2.51-25,2.3-16,4.18-32.13,7.2-48.06,1.15-6.06,1.08-12.25,1.78-18.36,1.05-9.22,4.35-17.79,7.45-26.43,5.29-14.73,12.07-28.8,18.34-43.1,7-15.89,13.21-32.08,19.15-48.39a132.8,132.8,0,0,1,20-35.37c9.36-12.21,22.18-18.43,37-21.16,21.72-4,42.67-.12,63.15,6.8,16.67,5.63,32.53,13.25,48.11,21.42,3.06,1.6,6,3.48,9,5.23a3.34,3.34,0,0,0,.92,2.34,16.89,16.89,0,0,1,3.38,5.24c1.48,3.91,1.61,7.65-1.39,11.12a9.14,9.14,0,0,0-2.43,6.52c.15,3.43,1.84,6.16,3.58,8.9,7.16,11.29,11.51,23.38,10.8,37-.28,5.34-1.32,10.39-4.71,14.74a12.69,12.69,0,0,1-5.4,4.12c-2.72,1.08-5.48.77-8.3.54-2.26-.19-4.23-1.41-6.49-1.47C489,142,486.28,140.47,483.55,138.91Zm-161.47,72.2c.24.44.61.95,1.19.59s.16-.79,0-1.17c-4.75-9.68-2.75-19.44-.35-29.2.14-.59.84-1.31.06-1.75-1-.53-1.18.5-1.49,1.08a36,36,0,0,0-4.31,17.09C316.46,202.38,319.71,206.6,322.08,211.11Zm33.13,96.55a6.32,6.32,0,0,0,3.43-1.2c.44-.3.8-.72.62-1.26a.91.91,0,0,0-1.05-.59c-5.13.65-10.39-.35-15.45,1.13-1,.27-2.68.19-2.47,1.47s1.82,1.36,3.11,1.36A111.15,111.15,0,0,1,355.21,307.66Zm55.13-156.32c-1-2.75-1.73-5.64-2.58-8.47-.17-.57-.1-1.52-1-1.32-.71.17-.34,1-.24,1.51,1.53,7.32,3.06,14.65,4.66,21.95.13.58,0,1.78,1,1.62s.77-1.21.72-2V164A47.89,47.89,0,0,0,410.34,151.34ZM287.79,287.58c.18-.89-.68-1.24-1.34-1.43-3.94-1.15-7.65-2.9-11.44-4.43-.4-.16-.9-.31-1.19.1s0,.81.39,1.08c3.56,2.6,7.14,5.14,11.79,5.39C286.66,288.21,287.61,288.54,287.79,287.58Zm66.86,27.87c.5-.5,1.2-1.16.71-1.85s-1.09.11-1.62.37a11.6,11.6,0,0,1-6.78.8c-1.78-.23-3.55-.62-5.33-.91-.55-.09-1.28-.4-1.54.29-.33.9.62,1,1.14,1.24a19.51,19.51,0,0,0,7,1.71c2.94-.1,4.91-.1,6.42-1.65ZM342.84,299c-.43.24-1.08.36-.81,1s.76.3,1.16.24c4.29-.58,8.58-1.17,12.86-1.81.59-.09,1.45-.18,1.34-1.08s-.79-1-1.49-1H354C350.63,297,346.51,297,342.84,299Zm-63.06,41.39c.37-1.09-.76-1-1.31-1.31-3.06-1.8-6.69-2.25-9.74-4.08-.25-.15-.54-.27-.79,0s-.12.66.08,1c1,1.46,1.91,2.88,3.7,3.47a35.66,35.66,0,0,0,6,1.78c1,0,1.8-.09,2.06-.87Zm-3.9-61.4c-.11.75.75.72,1.25.91a55,55,0,0,1,9,4.12c.67.41,1.66,1.26,2.28.28s-.42-1.72-1.16-2.24a20.29,20.29,0,0,0-9.66-3.68c-.69.11-1.59-.31-1.71.62Zm88.57,83.8c.55-.41,1.37-.92.93-1.73s-1.17-.13-1.71.08c-2,.75-4.11.74-6.1,1.38-.73.23-2.14-.18-2,1s1.4,1,2.34,1.06c2.2-.4,4.58-.36,6.54-1.8Z" transform="translate(0 0.01)" style="fill:#efe2e8"/><path d="M40.32,347.16c11,1.2,20.82-1.38,28.59-9.79.15-.15.32-.28.45-.4.43,0,.45.31.47.6L71,357.93a25.32,25.32,0,0,1-.14,5c-.15,1.08-.59,2.68.89,2.92s1.69-1.4,1.93-2.47a43.3,43.3,0,0,0,1.22-11.62c-.84-18.95-1.29-37.9.22-56.85.34-4.25.82-8.49,1.24-12.74.6-6.09-.13-12.13-.61-18.19-.6-7.64-1.23-15.33,1.06-22.84A19.17,19.17,0,0,1,88.55,228.6a105.77,105.77,0,0,1,24.34-7c10-1.47,19.58.71,27.16,7.88,4.9,4.62,6.89,11,7.85,17.53,1.39,9.38,2.71,18.75,5.27,27.91,1.48,5.3,1,10.61-.43,15.87-.73,2.64-1.41,5.31-2,8-.2.87-.26,1.27-1.33.68-5.8-3.18-12.21-.2-13.94,6.41-.38,1.46-.69,2.93-1.08,4.62a7.48,7.48,0,0,1-2.57-3.21,24.31,24.31,0,0,1-3.15-11.19c-.15-12.18-4.14-23.07-10.26-33.4a92.78,92.78,0,0,1-7.22-14.79c-.19-.51-.28-1.34-1-1.08s-.36,1-.23,1.53c.81,3.26,1.67,6.52,2.61,10.16-1.82-.79-3.33-1.41-4.82-2.08a164.53,164.53,0,0,1-17.89-8.77c-.43-.26-.94-.72-1.3-.11s.24.9.57,1.28a33.62,33.62,0,0,0,10.06,7.44c3.21,1.68,6.44,3.29,9.68,4.9a7.27,7.27,0,0,0,2.62,1c4.93.21,4.5,4.87,6.3,7.61.66,1-.67.74-1.17.69a68.78,68.78,0,0,1-18.69-4.6A80.53,80.53,0,0,1,89,261.24c-.46-.26-1.06-.88-1.54-.28s.25,1,.65,1.36c7.81,6.85,17,10.54,27.21,11.9a15.4,15.4,0,0,0,3.46,0,1.32,1.32,0,0,1,1.56.71c1.38,2.49,1.21,2.77-1.65,2.91-4.11.22-8.22.59-12.34.8-5.25.25-10.41-.16-15.32-2.28-.54-.24-1.31-.84-1.73-.07s.49,1.07,1,1.43a26.12,26.12,0,0,0,14.63,4.76,74.66,74.66,0,0,0,16-1.34c1.41-.25,1.78.13,1.91,1.36.56,5.47,1.16,10.93,1.73,16.4s2.51,10.48,7.09,13.85a4,4,0,0,1,1.89,4.4,10.59,10.59,0,0,0,.69,5.54c1.95,4.89,7.06,6.17,11.12,2.79.43-.35.69-1,1.48-1,.23,1.57.34,3.14.68,4.67,1.33,6,4.31,10.86,10.3,13.28,1,.42.8,1,.61,1.7a9,9,0,0,0,0,5.34A5.23,5.23,0,0,0,162,353c5,1.59,15.53-4,15.83-10,.21-4.15,2.08-8.15,2.73-12.39,1.4,2.39,2.11,5.09,4.4,6.83.25.18,0,1.09-.1,1.65-1.35,6.81,1.72,10.87,8.63,11.68,4.14.49,8-.71,12-1.36.86-.14,1-.93,1.28-1.6,1.61-4.63,4.18-8.85,5.49-13.63.52-1.91,2.32-3.45,3.43-5.22a58,58,0,0,0,7.27-16.17c2.2-8.59,6-16.58,9.24-24.77,2.74-6.84,5.32-13.75,7.69-20.73.23-.67.49-1.34.78-2.14a3.54,3.54,0,0,1,.78,2.18c2.07,10.84,6.57,20.33,15.29,27.46,1.63,1.34,3.34,2.59,5.54,2.8.8.08,1.17.35,1,1.23-2.16,10.65-1.41,21.68-4.34,32.23a147.24,147.24,0,0,0-3.63,17.4A3.06,3.06,0,0,1,253.1,351c-5.3,2.55-10,6-14.81,9.43-9.37,6.71-18.87,13.14-29.71,17.34a127.44,127.44,0,0,1-19.18,5.44,100.92,100.92,0,0,0-31.89,12.72c-9.7,6-20.39,9.47-31.14,13-15.25,5-30.75,9.19-45.63,15.3a69.6,69.6,0,0,1-26,5.13c-.7,0-2-.49-1.56,1.16A9.52,9.52,0,0,1,44.77,428c-4.56-4.26-4.59-9.73-4.16-15.21.35-4.36,1.3-8.71-2.91-11.82-1.79-1.33-3.61-2.61-5.37-4a40.38,40.38,0,0,1-12.8-16.5c-2.2-5.31-4.82-10.38-4.5-16.49.3-5.93,3.59-10,7.3-14,1.72-1.83,4.36-2.09,6.8-2.44,3.26-.45,6.29-2.09,9.67-1.94C38.13,347.25,39.59,347.08,40.32,347.16Zm77.87,42.63c-3,.4-6,1.17-9,1.56A30.42,30.42,0,0,1,93.7,389.6c-.45-.19-1-.66-1.33-.1s.22.93.62,1.2c5.08,3.4,10.53,6,16.78,5.28,6.66-.72,13.26-2,19.9-3,3.64-.53,7.3-.87,10.94-1.34.56-.08,1.5.12,1.52-.81,0-.74-.73-1-1.36-1.21a9.62,9.62,0,0,0-4.06-.39A77.05,77.05,0,0,0,118.19,389.79Z" transform="translate(0 0.01)" style="fill:#efe2e8"/><path d="M45.68,344.11c7.65-1.56,14.69-4.36,20.35-10a8.43,8.43,0,0,0,2.68-6.55,276,276,0,0,1,1.71-37.48,96.31,96.31,0,0,0-.15-26.81,69.69,69.69,0,0,1-.61-15c.51-9.22,4.38-16.34,12.78-20.7a113.87,113.87,0,0,1,17.86-7.26c4.33-1.38,8.62-3.23,13.2-3.35s8.88-1.69,13.06-3.54A29.14,29.14,0,0,1,138.35,211a52.79,52.79,0,0,1,17.5,2.67,5,5,0,0,0,5.15-.83c11.1-7.92,23.13-10.63,36.28-5.73,1.2.44,1.68,0,2.22-.92a38.91,38.91,0,0,0,4.4-11.95c1.9-9.58,3.54-19.22,8.19-28a44.75,44.75,0,0,0,3.91-10.8,98.13,98.13,0,0,1,8.84-23,61.17,61.17,0,0,0,4.33-9.46,135.39,135.39,0,0,0,6.08-30.34c.46-5.62.77-11.28,3-16.59,4-9.73,13.39-12.52,22-6.43C266,73.76,268,80,268.61,86.73a154.16,154.16,0,0,1-.17,24.5c-.65,9.84-3.48,19.36-4.42,29.17a103.6,103.6,0,0,1-4.94,23.29,70.75,70.75,0,0,0-2.95,13.1,84.32,84.32,0,0,1-5.84,21.94c-1.91,4.46-3.8,9-4.24,13.85-1.07,12-3.79,23.8-3.59,36,.15,9.78,1.51,19.16,5.35,28.12,2.27,5.27,5.22,10.15,10,13.61,1.4,1.61,3.44,2.31,5.21,3.77.34-.9.91-1.54.76-2.45.46-2.86,1-5.7,1.36-8.57.93-8,1.24-16,2.37-24q3.4-24,7.18-47.85c1.47-9.41,2.16-18.88,4.35-28.25a200.73,200.73,0,0,1,11.86-36.65c9-20.06,17.87-40.18,25.41-60.83,5-13.57,10.53-26.75,18.73-38.74,6.93-10.1,14.83-19,26.15-24.44,17.25-8.26,35.38-9.68,54-7.22,18.19,2.39,35.3,8.17,51.77,16.09A316.18,316.18,0,0,1,504.81,52.3a13,13,0,0,1,4,3.88c.26.42.73.84.39,1.36-.46.67-1,.15-1.55,0-2.19-.62-3.91-2.16-6-3-3-1.75-5.9-3.63-9-5.23-15.58-8.17-31.44-15.79-48.11-21.42-20.48-6.92-41.43-10.82-63.15-6.8-14.78,2.73-27.6,9-37,21.16a132.8,132.8,0,0,0-20,35.37c-5.94,16.31-12.17,32.5-19.15,48.39-6.27,14.3-13.05,28.37-18.34,43.1-3.1,8.64-6.4,17.21-7.45,26.43-.7,6.11-.63,12.3-1.78,18.36-3,15.93-4.9,32-7.2,48.06-1.19,8.31-1.21,16.74-2.51,25-1.1,7-3.18,13.82-3.77,20.92-.47,5.69-.55,11.44-1.7,17.05-2,10-4.77,19.83-6,30a69.22,69.22,0,0,0-1,11.22c.64-1.47,1.07-3,1.62-4.46,1.15-3.07,3-5.47,6.43-6.13A11.24,11.24,0,0,1,277,364.07a11.72,11.72,0,0,1,.24,1.68,26.32,26.32,0,0,1-.35,6.69c-.28,1.83-1.09,3.58-1,5.49.54,0,.66-.38.84-.69,2.77-4.82,4.29-10.1,5.59-15.45,2-8.36,3.17-16.93,6.45-25a81.3,81.3,0,0,0,5.3-19.86c2.67-19.44,6.42-38.67,10.85-57.78,1.48-6.36,4.09-12.22,9.62-16.25.79-.57.41-1.14.21-1.71-1.83-5.33-3.49-10.73-6.25-15.69-.71-1.26-1.39-2.53-2.08-3.8-.22-.4-.37-.87,0-1.19s.82,0,1.1.34a21.61,21.61,0,0,1,1.77,2.18,90,90,0,0,1,11.31,25c3.82,13.34,4.7,27.2,7.31,40.76,1.21,6.32,1.23,12.82,3,19.07q6.74,24.48,13.33,49c3,11.24,5.63,22.6,9.44,33.62a11.66,11.66,0,0,0,2.38,4.37c-.3-3.41-1-6.38-.79-9.43.46-6.29,5-10.19,11.25-9.59a11.56,11.56,0,0,1,8.35,4.51c.35.45.48,1.25,1.46,1.13-.11-.81-.17-1.59-.32-2.36-2.17-10.79-4-21.62-5.31-32.55-1.41-11.91-3.59-23.75-3.37-35.83a41.15,41.15,0,0,0-1-9.05c-2.17-10.77-4.78-21.47-5.6-32.47-.69-9.24-2.64-18.34-3.06-27.61a41.16,41.16,0,0,1,2.07-16,5.42,5.42,0,0,0-.31-4.76c-1.31-2.74-2.39-5.58-3.53-8.4-.19-.48-.66-1.22.08-1.5s.83.62,1.08,1.07c.68,1.28,1.24,2.62,2,3.88,2.56,4.54,5.17,9.05,9.86,11.85,10.77,6.43,25.6-.23,30.81-6.18.7-.8.26-1.28-.14-1.87a39,39,0,0,1-3.09-5.72c-.23-.53-.68-1.28-.16-1.58.82-.47,1,.53,1.3,1C404,223.22,415,224.23,423,215.76c4.77-5,7.08-11.2,8.45-17.79A54.15,54.15,0,0,1,438,180.36a34.91,34.91,0,0,0,5-17.11c.34-8-.32-16.05-.78-24.06-.45-7.8-1.38-15.59-.63-23.41.43-4.47,1-8.93,3.42-12.88.27-.45.45-1.22,1.24-.87.57.26.39.84.33,1.35-.2,1.5-.36,3-.52,4.52-.26,2.52-.75,5-.34,7.73.87-.44.9-1.13,1.06-1.7A110.68,110.68,0,0,0,451,79.83a47.58,47.58,0,0,0-2.28-13.44c-.18-.53-.52-1.3.08-1.57.82-.37,1,.53,1.3,1.08.52,1.12,1,2.24,1.45,3.39,3.39,9.56,3.68,19.41,2.56,29.36-.77,6.83-1.62,13.67-4.57,20-.69,1.48-.49,2,1,2.69q16.86,8.25,33.16,17.57c2.73,1.56,5.48,3.09,8.22,4.63.24,1.1.25,2-1.32,1.42-.68-.24-1.39-.4-2.05-.69-13.61-5.87-26.95-12.32-40.11-19.15-.61-.32-1.25-1.05-2-.62s-.24,1.33-.19,2c.91,11.17,2.19,22.33,2.24,33.56,0,7.56-1.12,14.9-5.27,21.41a50,50,0,0,0-6.78,17.71c-1.39,7.19-3.8,13.91-8.63,19.63-7,8.3-14.53,9.91-24.12,4.94-.68-.35-1-.27-1.37.32-3.66,5.31-8.94,8.33-14.88,10.33-8.94,3-17.14,1.91-23.28-6.26-.31-.42-.53-1-1.49-.92-.32,2.52-.73,5.07-1,7.65-.59,6.47.38,12.86,1.33,19.22,1.45,9.81,1.71,19.76,3.54,29.52.23,1.19,0,2.73,1,3.45.56.43,1.89-.22,2.88-.27,10.79-.54,20.68,8.45,21.26,19.27a10,10,0,0,1-4.23,9,19.07,19.07,0,0,1-5.37,2.79c-3,1-6,2.16-9,3.06-1.45.42-1.74,1.11-1.55,2.5,1.2,8.89,2.42,17.78,3.45,26.68,1.43,12.31,4.24,24.37,6.15,36.59.7,4.54.36,9.08.48,13.61.11,3.93-5.91,9-10.38,9-7.19,0-12.5-3-16.13-9.44a105.93,105.93,0,0,1-9.49-24.16c-4-14.43-8-28.85-12.21-43.21-.42-1.43-.77-1.88-2.47-1.48-12.41,2.85-24.78,5.86-37.39,7.71a2,2,0,0,0-2,1.6,83.7,83.7,0,0,0-2.85,10.91c-1.53,8.17-3,16.38-6.52,24-2.14,4.65-4.71,8.72-10.22,10.46s-12.35.65-16.3-3.7a10.22,10.22,0,0,1-2.71-4.82,49.78,49.78,0,0,1-.45-15.55c.22-2.23.45-4.46.72-7-5.18,3.87-10,7.41-14.76,11-13.83,10.62-28.87,18.72-46.11,22.22A105.57,105.57,0,0,0,158.91,401a74.89,74.89,0,0,1-26.46,9.94c-11.79,1.92-22.94,5.81-34,10.09-6.54,2.54-12.87,5.61-19.58,7.7-8.76,2.72-17.64,3.92-26.73,1.78-.43-1.65.86-1.16,1.56-1.16a69.46,69.46,0,0,0,26.05-5.13c14.88-6.11,30.38-10.33,45.63-15.3,10.75-3.5,21.44-7,31.14-13A100.87,100.87,0,0,1,188.4,383.2a127.44,127.44,0,0,0,19.18-5.44c10.84-4.2,20.34-10.63,29.71-17.34,4.76-3.41,9.51-6.88,14.81-9.43a3.06,3.06,0,0,0,2.12-2.57,147.24,147.24,0,0,1,3.63-17.4c2.93-10.55,2.17-21.58,4.34-32.23.18-.88-.2-1.15-1-1.23-2.2-.21-3.91-1.46-5.54-2.8-8.72-7.13-13.22-16.62-15.29-27.46a3.6,3.6,0,0,0-.78-2.18c-.29.8-.55,1.47-.78,2.14-2.37,7-5,13.89-7.69,20.73-3.28,8.19-7,16.18-9.24,24.77a58,58,0,0,1-7.27,16.17c-1.11,1.77-2.91,3.31-3.43,5.22-1.31,4.78-3.88,9-5.49,13.63-.23.67-.42,1.46-1.28,1.6-4,.65-7.86,1.85-12,1.36-6.91-.81-10-4.87-8.63-11.68.11-.56.35-1.47.1-1.65-2.29-1.74-3-4.44-4.41-6.83-.64,4.24-2.51,8.24-2.72,12.39-.3,6-10.82,11.64-15.84,10a5.24,5.24,0,0,1-3.53-3.52,9,9,0,0,1,0-5.34c.19-.69.43-1.28-.61-1.7-6-2.42-9-7.25-10.3-13.28-.34-1.53-.46-3.1-.68-4.67-.79,0-1,.62-1.48,1-4.06,3.38-9.17,2.1-11.12-2.79a10.59,10.59,0,0,1-.69-5.54,4,4,0,0,0-1.89-4.4c-4.58-3.37-6.51-8.32-7.09-13.85s-1.17-10.93-1.73-16.4c-.13-1.23-.5-1.61-1.91-1.36a74.66,74.66,0,0,1-16,1.34,26.12,26.12,0,0,1-14.63-4.76c-.5-.36-1.41-.66-1-1.43s1.19-.17,1.73.07c4.91,2.12,10.07,2.53,15.32,2.28,4.12-.21,8.23-.58,12.34-.8,2.86-.14,3-.42,1.65-2.91a1.32,1.32,0,0,0-1.56-.71,15.4,15.4,0,0,1-3.46,0c-10.21-1.36-19.4-5.05-27.21-11.9-.4-.36-1.15-.73-.65-1.36s1.08,0,1.54.28a80.49,80.49,0,0,0,8.83,4.61,68.78,68.78,0,0,0,18.69,4.6c.5.05,1.83.31,1.17-.69-1.81-2.74-1.37-7.4-6.31-7.61a7.22,7.22,0,0,1-2.61-1c-3.24-1.61-6.47-3.22-9.68-4.9a33.63,33.63,0,0,1-10-7.43c-.33-.38-.86-.79-.57-1.28s.87-.15,1.29.11a165.59,165.59,0,0,0,17.9,8.77c1.49.67,3,1.29,4.82,2.08-.94-3.64-1.8-6.9-2.61-10.16-.13-.51-.49-1.28.23-1.53s.86.57,1,1.08a92.78,92.78,0,0,0,7.22,14.79c6.12,10.33,10.11,21.22,10.26,33.4a24.31,24.31,0,0,0,3.15,11.19,7.48,7.48,0,0,0,2.57,3.21c.39-1.69.7-3.16,1.08-4.62,1.73-6.61,8.14-9.59,13.94-6.41,1.07.59,1.12.19,1.33-.68.63-2.67,1.31-5.34,2-8,1.45-5.26,1.91-10.57.43-15.87-2.56-9.16-3.88-18.53-5.27-27.91-1-6.54-3-12.91-7.85-17.53-7.58-7.17-17.11-9.35-27.16-7.88a105.77,105.77,0,0,0-24.34,7A19.17,19.17,0,0,0,75.73,241.1c-2.29,7.51-1.66,15.2-1.06,22.84.48,6.06,1.21,12.1.61,18.19-.42,4.25-.9,8.49-1.24,12.74-1.51,19-1.06,37.9-.22,56.85a43.3,43.3,0,0,1-1.22,11.62c-.24,1.07-.52,2.71-1.93,2.47s-1-1.84-.89-2.92a26.11,26.11,0,0,0,.14-5q-.57-10.18-1.17-20.36c0-.29,0-.58-.47-.6-.13.12-.31.25-.45.4-7.77,8.41-17.54,11-28.59,9.79-.73-.08-2.19.09-1.52-1.56C40.43,345.1,43.06,344.64,45.68,344.11Zm194.64-119a71.85,71.85,0,0,1,5.94-28.69,58.67,58.67,0,0,0,4.58-16.8c-2.32.41-4.48.82-6.66,1.16a15.72,15.72,0,0,1-10.32-1.53c-.55-.3-1.44-.41-1.28-1.22.19-1,1.16-.71,1.81-.65a53.54,53.54,0,0,0,14.68-.84c1.68-.3,2.61-.86,2.88-2.79.88-6.17,3-12.07,4.68-18,2.12-7.43,2.45-15.13,3.75-22.67.25-1.49-.51-1.26-1.46-1.13A34.76,34.76,0,0,1,245.8,131a5.93,5.93,0,0,1-1.24-.38c-.56-.29-1.3-.61-1-1.41s.94-.57,1.51-.58c3.32-.07,6.65-.08,10-.2,6.09-.22,6.14-.24,7.2-6.15a144.42,144.42,0,0,0,1.61-37.83c-.33-3.92-1.33-7.73-4.28-10.66-5-4.88-11.77-4.19-15.63,1.56-2.82,4.19-3.44,9-3.88,13.85a172,172,0,0,1-5.55,32.25,68.08,68.08,0,0,1-5.72,13.1,83,83,0,0,0-8,20.56,59.89,59.89,0,0,1-4.67,13.26c-3.77,7.62-5.06,15.94-6.9,24.12a34.58,34.58,0,0,1-7,15c-1.17,1.39,0,1.48.73,1.85,9.51,4.5,18.39,10.06,27.21,15.75a56.56,56.56,0,0,1,10.2,8.71c-.08-2.9-.1-5.8-.07-8.73Zm-55.18.35c7.7,4,13.53,9.63,15.49,18.45a22.26,22.26,0,0,1-.67,12.21c-3.6,10.47-5.75,21.35-9,31.92-1.27,4.14-2.51,8.3-4,12.38-2.71,7.48-3.79,15.26-4.41,23.11a16.84,16.84,0,0,0,2.58,11.12A54.12,54.12,0,0,1,190,325.9c3.35-4.67,8.05-6.78,12.9-5.6,4.37,1.07,7.15,3.89,8.53,8.53a47.31,47.31,0,0,0,5.46-12c4.47-15.9,11-31,16.71-46.5a80.72,80.72,0,0,0,5.23-23.4c.37-6.65-1.86-12-7.34-15.73-12.32-8.28-25.09-15.82-39.16-20.77-7-2.46-14.11-1.77-21,1a65.58,65.58,0,0,0-8.35,4.26,184.19,184.19,0,0,1,22.18,9.68Zm-1,72A251.17,251.17,0,0,0,192.23,266c.8-4.47,2.55-8.76,3.44-13.21,1.49-7.45-.72-13.76-6.81-18.45S175.9,227,169,224.2c-8-3.32-16-6.73-24.7-7.91a36.84,36.84,0,0,0-17.47,1.36,8.2,8.2,0,0,0,3.34,1.24c10.9,3.13,16.59,11,19.44,21.39a120.25,120.25,0,0,1,2.64,14.95c.16,1.19.34,2.37.59,4.12,1.34-1.41,2.3-2.46,3.29-3.45a13.13,13.13,0,0,1,1.94-1.71c.73-.48,1.78-.89,2.35-.1s-.62,1.09-1,1.62c-1.8,2.44-3.56,4.9-5.36,7.33a2.55,2.55,0,0,0-.22,2.28c.79,3.45,1.66,6.89,2.3,10.37,1.68,9.1-1,17.48-4.53,25.66-.29.66-.82,1.24-.72,2,.6,4.31-1,8.28-1.74,12.39-1.29,7.18-.34,13.95,4.25,19.91a16.12,16.12,0,0,0,3.88,3.44c1,.65,1.34.5,1.5-.68A32.3,32.3,0,0,1,161,329.6c2.08-4.78,6.12-7.49,10.78-7.28a8.8,8.8,0,0,1,5.86,2.91,182.8,182.8,0,0,1,6.53-27.8Zm110.91,37.2c5.35-1.24,10.69-2.56,16.05-3.76,6.21-1.39,12.42-2.77,18.67-4,1.62-.31,1.75-.81,1.38-2.23-1.9-7.19-4.3-14.27-5.41-21.66-.32-2.14-.6-4.3-.75-6.46-.11-1.63-.62-2.14-2.28-1.55a77.14,77.14,0,0,1-16.43,3.79c-.58.07-1.15.16-1.72.2-3.95.28-3.9.28-4.57,4.28-1.48,8.76-2.14,17.67-4.68,26.24-.46,1.52-1,3-1.5,4.6-.09,1.24.77.64,1.27.52Zm12.69-71.15c-2,9.77-4.22,19.5-5.95,29.33-.3,1.7,0,2,1.74,1.82,6.65-.58,13.05-2.49,19.61-3.48,1.6-.24,1-1.34.84-2.16-1.14-7.58-2.67-15.1-3.54-22.72a136.25,136.25,0,0,0-3.26-17.69c-.21-.82-.47-1.64-.77-2.69-5,5.08-7.29,11.08-8.64,17.56ZM202.55,346.75c.61-.06.82-.41,1-.91A84.77,84.77,0,0,0,207.94,335c1.72-6.27-1.28-11.15-7.05-11.57a9.13,9.13,0,0,0-7.35,3.05c-4.39,4.39-6.38,9.84-6.95,15.9a3.78,3.78,0,0,0,2.7,4.18,17.12,17.12,0,0,0,6.26,1C197.68,347.31,200.11,347,202.55,346.75Zm158.2,54.68c0,.74.54,1.15,1.07,1.53a12.58,12.58,0,0,0,9.41,2.41c3.13-.39,6.72-3.81,5.94-7.92s-1.32-8.56-3.44-12.46a9.21,9.21,0,0,0-8.81-5.19c-3.4,0-5.05,1.46-5.47,4.83-.13,1.08-.14,2.16-.2,3.24C359.25,392.45,360.88,396.85,360.75,401.43ZM267,358.73c-3.24-.59-5.31.58-6.6,3.82-1.2,3-1.58,6.15-2.23,9.25a15.44,15.44,0,0,1-1.08,4.17c-.9,1.67-.29,2.57.91,3.63a13.81,13.81,0,0,0,12.52,3.13,1.53,1.53,0,0,0,1.32-1.24c1.05-4.35,2.21-8.68,2.48-12.48C274.48,362.77,272.09,359.64,267,358.73Zm117.29-46.91a4.74,4.74,0,0,0,2.52-4.87,18.26,18.26,0,0,0-17.68-16.7c-1.88,0-1.12,1-1,1.78,1.11,5.37,2.48,10.7,2.76,16.2.15,2.93,0,5.87,0,9.3,4.71-2.44,9.34-3.42,13.43-5.71ZM172.56,346.11a3,3,0,0,0,1.13-1.79c.71-3.9,1.88-7.71,2.3-11.67.39-3.68-.55-5.92-2.82-6.85-2.43-1-5.82.23-7.82,2.81a11.68,11.68,0,0,0-2.12,4c-1.18,4.31-2.35,8.63-3.3,13-.67,3.05.54,4.42,3.7,4.33A16.78,16.78,0,0,0,172.56,346.11ZM135.64,321c.71,2.85,2.6,3.89,5.32,2.82a6.67,6.67,0,0,0,3.83-4.19c1.36-3.7,1.69-7.61,2.19-11.47.11-.79.17-1.59.28-2.37.4-2.82-1.23-4.41-4.07-3.9a7,7,0,0,0-5.3,4.36,27.81,27.81,0,0,0-2.57,11.31A15.25,15.25,0,0,0,135.64,321Z" transform="translate(0 0.01)" style="fill:#474747;stroke:#474747;stroke-miterlimit:10;stroke-width:2px"/><path d="M317.15,197.75c-.69,4.63,2.56,8.85,4.93,13.36.24.44.61.95,1.19.59s.16-.79,0-1.17c-4.75-9.68-2.75-19.44-.35-29.2.14-.59.84-1.31.06-1.75-1-.53-1.18.5-1.49,1.08A36,36,0,0,0,317.15,197.75Z" transform="translate(0 0.01)" style="fill:#474747;stroke:#646464;stroke-miterlimit:10"/><path d="M343.4,308.57a111.15,111.15,0,0,1,11.81-.91,6.32,6.32,0,0,0,3.43-1.2c.44-.3.8-.72.62-1.26a.91.91,0,0,0-1.05-.59c-5.13.65-10.39-.35-15.45,1.13-1,.27-2.68.19-2.47,1.47S342.11,308.57,343.4,308.57Z" transform="translate(0 0.01)" style="fill:#474747"/><path d="M412.89,164a48.35,48.35,0,0,0-2.55-12.65c-1-2.75-1.73-5.64-2.58-8.47-.17-.57-.1-1.52-1-1.32-.71.17-.34,1-.24,1.51,1.53,7.32,3.06,14.65,4.66,22,.13.58,0,1.78,1,1.62s.77-1.21.72-2Z" transform="translate(0 0.01)" style="fill:#474747;stroke:#646464;stroke-miterlimit:10"/><path d="M286,288.29c.66-.08,1.61.25,1.79-.71s-.68-1.24-1.34-1.43c-3.94-1.15-7.65-2.9-11.44-4.43-.4-.16-.9-.31-1.19.1s0,.81.39,1.08C277.77,285.5,281.35,288,286,288.29Z" transform="translate(0 0.01)" style="fill:#474747"/><path d="M348.28,317.1c2.89-.07,4.86-.13,6.37-1.65.5-.5,1.2-1.16.71-1.85s-1.09.11-1.62.37a11.6,11.6,0,0,1-6.78.8c-1.78-.23-3.55-.62-5.33-.91-.55-.09-1.28-.4-1.54.29-.33.9.62,1,1.14,1.24A19.31,19.31,0,0,0,348.28,317.1Z" transform="translate(0 0.01)" style="fill:#474747"/><path d="M354,296.39c-3.33.63-7.45.6-11.12,2.6-.43.24-1.08.36-.81,1s.76.3,1.16.24c4.29-.58,8.58-1.17,12.86-1.81.59-.09,1.45-.18,1.34-1.08s-.79-1-1.49-1C355.47,296.38,355,296.39,354,296.39Z" transform="translate(0 0.01)" style="fill:#474747"/><path d="M277.76,341.18c.93,0,1.76,0,2-.8.37-1.09-.76-1-1.31-1.31-3.06-1.8-6.69-2.25-9.74-4.08-.25-.15-.54-.27-.79,0s-.12.66.08,1c1,1.46,1.91,2.88,3.7,3.47A35.22,35.22,0,0,0,277.76,341.18Z" transform="translate(0 0.01)" style="fill:#474747"/><path d="M277.62,278.37c-.72.12-1.61-.3-1.74.61-.11.75.75.72,1.25.91a55,55,0,0,1,9,4.12c.67.41,1.66,1.26,2.28.28s-.42-1.72-1.16-2.24A20.29,20.29,0,0,0,277.62,278.37Z" transform="translate(0 0.01)" style="fill:#474747"/><path d="M357.88,364.59c2.23-.41,4.61-.37,6.57-1.81.55-.41,1.37-.92.93-1.73s-1.17-.13-1.71.08c-2,.75-4.11.74-6.1,1.38-.73.23-2.14-.18-2,1S356.94,364.49,357.88,364.59Z" transform="translate(0 0.01)" style="fill:#474747"/><path d="M135.76,389.27a77,77,0,0,0-18.57.52c-3,.4-6,1.17-9,1.56A30.42,30.42,0,0,1,92.7,389.6c-.45-.19-1-.66-1.33-.1s.21.93.62,1.2c5.07,3.4,10.53,6,16.78,5.28,6.66-.72,13.26-2,19.9-3,3.63-.53,7.29-.87,10.94-1.34.56-.08,1.5.12,1.52-.81,0-.74-.73-1-1.36-1.21A9.55,9.55,0,0,0,135.76,389.27Z" transform="translate(0 0.01)" style="fill:#474747"/><path d="M230.11,225.11c-8.82-5.69-17.7-11.25-27.21-15.75-.77-.37-1.9-.46-.73-1.85a34.58,34.58,0,0,0,7-15c1.84-8.18,3.13-16.5,6.9-24.12a59.89,59.89,0,0,0,4.67-13.26,83,83,0,0,1,8-20.56,68.08,68.08,0,0,0,5.72-13.1A171.91,171.91,0,0,0,240,89.23c.44-4.84,1.06-9.66,3.88-13.85,3.86-5.75,10.68-6.44,15.63-1.56,3,2.93,4,6.74,4.28,10.66a144.42,144.42,0,0,1-1.61,37.83c-1.06,5.91-1.11,5.93-7.2,6.15-3.32.12-6.65.13-10,.2-.57,0-1.3-.08-1.51.58s.48,1.12,1,1.41a5.93,5.93,0,0,0,1.24.38,34.74,34.74,0,0,0,13.12.84c.95-.13,1.71-.36,1.46,1.13-1.3,7.54-1.63,15.24-3.75,22.67-1.71,6-3.8,11.87-4.68,18-.27,1.93-1.2,2.49-2.88,2.79a53.54,53.54,0,0,1-14.68.84c-.65-.06-1.62-.34-1.81.65-.16.81.73.92,1.28,1.22a15.72,15.72,0,0,0,10.32,1.53c2.18-.34,4.34-.75,6.66-1.16a58.67,58.67,0,0,1-4.58,16.8A71.85,71.85,0,0,0,240.23,225v8.75A56.58,56.58,0,0,0,230.11,225.11Zm17.49-52a8.12,8.12,0,0,0,1.7.33c.56,0,1.24.14,1.52-.51s-.18-1.11-.54-1.55c-1.07-1.3-2.66-1.7-4.17-2.11a24.63,24.63,0,0,0-6.82-1c-4.33.07-8.65.2-13,.32-.47,0-1.11-.21-1.22.52s.43.86.86,1.11a10.58,10.58,0,0,0,5.13,1.53h5a32.43,32.43,0,0,1,11.54,1.32Z" transform="translate(0 0.01)" style="fill:#efe2e8"/><path d="M171.32,211.47c6.88-2.82,14-3.51,21-1.05,14.07,5,26.84,12.49,39.16,20.77,5.48,3.69,7.71,9.08,7.34,15.73a80.72,80.72,0,0,1-5.23,23.4c-5.69,15.46-12.24,30.6-16.71,46.5a47.31,47.31,0,0,1-5.46,12c-1.38-4.64-4.16-7.46-8.53-8.53-4.85-1.18-9.55.93-12.9,5.6a54.12,54.12,0,0,0-4.85,8.75,16.84,16.84,0,0,1-2.58-11.12c.62-7.85,1.7-15.63,4.41-23.11,1.48-4.08,2.72-8.24,4-12.38,3.26-10.57,5.41-21.45,9-31.92a22.26,22.26,0,0,0,.67-12.21c-2-8.82-7.79-14.41-15.49-18.45A184,184,0,0,0,163,215.73,65.21,65.21,0,0,1,171.32,211.47Zm61.8,39c.9-.57,2.23-1,1.63-2.34-.49-1.12-1.75-1-2.69-.6-4.52,1.8-9.41,1.16-14,2.21a8.31,8.31,0,0,1-3.87-.16c-.5-.13-1.19-.64-1.56,0s.4,1.14.83,1.55c1.56,1.5,3.53,1.84,6.26,1.86,4-1,9,.21,13.4-2.56Zm-19.06,54.4c.21-1.79-1.65-1.8-3-2.11-3.25-.77-6.59-.59-9.88-1-.52-.06-1.27-.24-1.43.54-.12.6.53.78.93,1.06,3,2.15,6.53,2.5,10.25,2.58,1-.36,2.91.77,3.13-1.11Z" transform="translate(0 0.01)" style="fill:#efe2e8"/><path d="M171.76,322.32c-4.66-.21-8.7,2.5-10.78,7.28a32.25,32.25,0,0,0-2.19,8.81c-.16,1.18-.55,1.33-1.5.68a16.12,16.12,0,0,1-3.88-3.44c-4.59-6-5.54-12.73-4.25-19.91.73-4.11,2.34-8.08,1.74-12.39-.1-.76.43-1.34.72-2,3.57-8.18,6.21-16.56,4.53-25.66-.64-3.48-1.51-6.92-2.3-10.37a2.55,2.55,0,0,1,.22-2.28c1.8-2.43,3.56-4.89,5.36-7.33.39-.53,1.58-.83,1-1.62s-1.62-.38-2.35.1a13.13,13.13,0,0,0-1.94,1.71c-1,1-2,2-3.29,3.45-.25-1.75-.43-2.93-.59-4.12a120.25,120.25,0,0,0-2.64-14.95c-2.85-10.41-8.54-18.26-19.44-21.39a8.2,8.2,0,0,1-3.34-1.24,36.84,36.84,0,0,1,17.47-1.36c8.7,1.18,16.7,4.59,24.7,7.91,6.88,2.84,13.89,5.47,19.87,10.08s8.3,11,6.81,18.45c-.89,4.45-2.64,8.74-3.44,13.21a251.17,251.17,0,0,1-8.09,31.49,184.05,184.05,0,0,0-6.55,27.8A8.8,8.8,0,0,0,171.76,322.32Zm16-71.11c.76-.51,1.76-1.12,1.31-2.2-.4-.93-1.47-.48-2.15-.32-3.58.86-7.15,1.64-10.87,1.32a4.12,4.12,0,0,0-1.47.36c-.4.13-.86.28-.92.78s.39.71.79.87a14.73,14.73,0,0,0,6,1.21c2.27-.3,5-.49,7.27-2Z" transform="translate(0 0.01)" style="fill:#efe2e8"/><path d="M293.84,334.1c-.12,1.25.74.65,1.24.53,5.35-1.24,10.69-2.56,16.05-3.76,6.21-1.39,12.42-2.77,18.67-4,1.62-.31,1.75-.81,1.38-2.23-1.9-7.19-4.3-14.27-5.41-21.66-.32-2.14-.6-4.3-.75-6.46-.11-1.63-.62-2.14-2.28-1.55a77.14,77.14,0,0,1-16.43,3.79c-.58.07-1.15.16-1.72.2-3.95.28-3.9.28-4.57,4.28-1.48,8.76-2.14,17.67-4.68,26.24C294.88,331,294.36,332.52,293.84,334.1Z" transform="translate(0 0.01)" style="fill:#efe2e8;stroke:#646464;stroke-miterlimit:10"/><path d="M316.44,245.89c-5,5.12-7.32,11.12-8.67,17.59-2,9.77-4.22,19.5-5.95,29.33-.3,1.7,0,2,1.74,1.82,6.65-.58,13.05-2.49,19.61-3.48,1.6-.24,1-1.34.84-2.16-1.14-7.58-2.67-15.1-3.54-22.72a136.25,136.25,0,0,0-3.26-17.69C317,247.76,316.74,246.94,316.44,245.89Z" transform="translate(0 0.01)" style="fill:none;stroke:#474747;stroke-miterlimit:10;stroke-width:4px"/><path d="M195.55,347.56c2.13-.25,4.56-.55,7-.81.61-.06.82-.41,1-.91A84.77,84.77,0,0,0,207.94,335c1.72-6.27-1.28-11.15-7.05-11.57a9.13,9.13,0,0,0-7.35,3.05c-4.39,4.39-6.38,9.84-6.95,15.9a3.78,3.78,0,0,0,2.7,4.18A17.12,17.12,0,0,0,195.55,347.56Z" transform="translate(0 0.01)" style="fill:#ed40a9"/><path d="M359.25,387.87c0,4.58,1.63,9,1.5,13.56,0,.74.54,1.15,1.07,1.53a12.58,12.58,0,0,0,9.41,2.41c3.13-.39,6.72-3.81,5.94-7.92s-1.32-8.56-3.44-12.46a9.21,9.21,0,0,0-8.81-5.19c-3.4,0-5.05,1.46-5.47,4.83C359.32,385.71,359.31,386.79,359.25,387.87Z" transform="translate(0 0.01)" style="fill:#ed40a9"/><path d="M274.35,369c.13-6.24-2.26-9.37-7.32-10.28-3.24-.59-5.31.58-6.6,3.82-1.2,3-1.58,6.15-2.23,9.25a15.44,15.44,0,0,1-1.08,4.17c-.9,1.67-.29,2.57.91,3.63a13.81,13.81,0,0,0,12.52,3.13,1.53,1.53,0,0,0,1.32-1.24C272.92,377.14,274.08,372.81,274.35,369Z" transform="translate(0 0.01)" style="fill:#ed40a9"/><path d="M371,317.53c4.63-2.44,9.26-3.42,13.35-5.71a4.74,4.74,0,0,0,2.52-4.87,18.26,18.26,0,0,0-17.68-16.7c-1.88,0-1.12,1-1,1.78,1.11,5.37,2.48,10.7,2.76,16.2C371.1,311.16,371,314.1,371,317.53Z" transform="translate(0 0.01)" style="fill:#efe2e8;stroke:#646464;stroke-miterlimit:10"/><path d="M163.63,349.94a16.78,16.78,0,0,0,8.93-3.83,3,3,0,0,0,1.13-1.79c.71-3.9,1.88-7.71,2.3-11.67.39-3.68-.55-5.92-2.82-6.85-2.43-1-5.82.23-7.82,2.81a11.68,11.68,0,0,0-2.12,4c-1.18,4.31-2.35,8.63-3.3,13C159.26,348.66,160.47,350,163.63,349.94Z" transform="translate(0 0.01)" style="fill:#ed40a9"/><path d="M135.32,317.6a15.25,15.25,0,0,0,.32,3.44c.71,2.85,2.6,3.89,5.32,2.82a6.67,6.67,0,0,0,3.83-4.19c1.36-3.7,1.69-7.61,2.19-11.47.11-.79.17-1.59.28-2.37.4-2.82-1.23-4.41-4.07-3.9a7,7,0,0,0-5.3,4.36A27.81,27.81,0,0,0,135.32,317.6Z" transform="translate(0 0.01)" style="fill:#ed40a9"/><path d="M236.06,171.71a32.18,32.18,0,0,1,11.54,1.36,8.12,8.12,0,0,0,1.7.33c.56,0,1.24.14,1.52-.51s-.18-1.11-.54-1.55c-1.07-1.3-2.66-1.7-4.17-2.11a24.63,24.63,0,0,0-6.82-1c-4.33.07-8.65.2-13,.32-.47,0-1.11-.21-1.22.52s.43.86.86,1.11a10.58,10.58,0,0,0,5.13,1.53C232.74,171.74,234.4,171.71,236.06,171.71Z" transform="translate(0 0.01)" style="fill:#474747"/><path d="M219.68,253c4-1,9.08.21,13.44-2.56.9-.57,2.23-1,1.63-2.34-.49-1.12-1.75-1-2.69-.6-4.52,1.8-9.41,1.16-14,2.21a8.31,8.31,0,0,1-3.87-.16c-.5-.13-1.19-.64-1.56,0s.4,1.14.83,1.55C215,252.63,217,253,219.68,253Z" transform="translate(0 0.01)" style="fill:#474747"/><path d="M211,305.88c1-.3,2.88.83,3.1-1.05s-1.65-1.8-3-2.11c-3.25-.77-6.59-.59-9.88-1-.52-.06-1.27-.24-1.43.54-.12.6.53.78.93,1.06C203.75,305.45,207.24,305.8,211,305.88Z" transform="translate(0 0.01)" style="fill:#474747"/><path d="M180.36,253.23c2.36-.3,5-.49,7.36-2,.76-.51,1.76-1.12,1.31-2.2-.4-.93-1.47-.48-2.15-.32-3.58.86-7.15,1.64-10.87,1.32a4.12,4.12,0,0,0-1.47.36c-.4.13-.86.28-.92.78s.39.71.79.87A14.85,14.85,0,0,0,180.36,253.23Z" transform="translate(0 0.01)" style="fill:#474747"/></g></g></g></svg>