<svg id="Layer_1" data-name="Layer 1" xmlns="http://www.w3.org/2000/svg" viewBox="0 0 597 331"><title>license-plate</title><g id="Layer_2" data-name="Layer 2"><g style="opacity:0.12"><path d="M582.11,255c-.36-59.35-.48-118.75-1.24-178.14V69.07a143.57,143.57,0,0,0-.49-14.6,51.32,51.32,0,0,0-2-10.35,30.43,30.43,0,0,0-3.2-7.1,25.25,25.25,0,0,0-8.76-8.49A37.26,37.26,0,0,0,552.54,24c-1-.13-2.16-.23-3.78-.33-6-.37-17.38-.65-33-.87C470,22.16,388.47,22,305.84,22h-6.76c-57.87,0-115.44.05-160.48.31-23.18.13-43,.32-57.92.59-7.44.14-13.64.29-18.4.47-2.38.1-4.4.19-6.06.3s-2.92.21-3.93.35c-6.54.93-11.79,2.9-15.89,5.83a25.36,25.36,0,0,0-7.21,7.94,38.79,38.79,0,0,0-4.52,14.92A137.8,137.8,0,0,0,24,69.09v7.77c-.76,59.39-.88,118.79-1.24,178.14,0,6.48-.72,13.55-.73,20.56a67.06,67.06,0,0,0,.65,9.91,32.13,32.13,0,0,0,5.23,13.87,29.19,29.19,0,0,0,13.23,10.13,14,14,0,0,0,2,.62,47.05,47.05,0,0,0,5,.86c3.71.48,8.65.91,14.73,1.31,21.28,1.37,56.59,2.28,98.88,2.87s91.48.85,140.41.92h.73c61.57-.08,123.59-.48,171.67-1.44,24.05-.48,44.61-1.11,59.92-1.91,7.66-.4,14-.84,18.87-1.34,2.43-.25,4.49-.51,6.19-.8.86-.15,1.62-.3,2.32-.47a12.85,12.85,0,0,0,2-.62,31.23,31.23,0,0,0,9.8-6.16,26.12,26.12,0,0,0,4.8-6.12,32.74,32.74,0,0,0,3.66-10.5,63.83,63.83,0,0,0,.85-11.13C582.83,268.57,582.14,261.5,582.11,255Z" transform="translate(-0.03)" style="fill:#6a374f;stroke:#6a374f;stroke-miterlimit:10;stroke-width:28px"/><line x1="298.97" y1="30" x2="298.97" y2="30" style="fill:none;stroke:#6a374f;stroke-miterlimit:10;stroke-width:24px"/><path d="M582.69,256.08c-.35-59.36-.48-118.75-1.24-178.14V70.15a143.57,143.57,0,0,0-.49-14.6,50,50,0,0,0-2-10.35,30.28,30.28,0,0,0-3.21-7.1A25.22,25.22,0,0,0,567,29.61a37.35,37.35,0,0,0-13.9-4.53c-1-.14-2.16-.24-3.77-.33-6-.37-17.39-.65-33-.87-45.71-.66-127.28-.81-209.92-.82h-6.76c-57.86,0-115.44,0-160.48.31-23.18.13-43,.32-57.92.59-7.44.14-13.63.29-18.39.47-2.39.09-4.41.18-6.06.29s-2.93.22-3.93.36C46.34,26,41.09,28,37,30.91a25.21,25.21,0,0,0-7.2,7.94,38.58,38.58,0,0,0-4.53,14.92,140,140,0,0,0-.68,16.38v7.79c-.76,59.39-.88,118.78-1.24,178.14,0,6.47-.72,13.55-.72,20.55a64.37,64.37,0,0,0,.65,9.91,31.92,31.92,0,0,0,5.23,13.88A29.08,29.08,0,0,0,41.7,310.55a15.43,15.43,0,0,0,2,.62,48.77,48.77,0,0,0,4.95.86c3.7.48,8.64.91,14.73,1.3,21.28,1.38,56.59,2.29,98.87,2.88s91.49.85,140.42.92h.73c61.57-.08,123.58-.48,171.67-1.44,24-.49,44.6-1.11,59.92-1.91,7.66-.4,14-.84,18.86-1.34,2.43-.25,4.49-.51,6.2-.81.85-.14,1.62-.29,2.32-.46a15.43,15.43,0,0,0,2-.62,31.52,31.52,0,0,0,9.8-6.16,26.35,26.35,0,0,0,4.79-6.12,32.71,32.71,0,0,0,3.66-10.51,61.84,61.84,0,0,0,.86-11.12C583.41,269.63,582.72,262.55,582.69,256.08Z" transform="translate(-0.03)" style="fill:#6a374f"/><path d="M130.17,54.12c0,4.65-2.21,7.68-6.59,9-1.15.36-2.3.71-3.48,1a8.73,8.73,0,0,1-7.1-1.65c-4.16-3.06-6-9.71-4.08-14.53,1.86-4.63,6.49-6.7,11.48-5.64,2.65.55,5,1,6.79,3.34A13.56,13.56,0,0,1,130.17,54.12Z" transform="translate(-0.03)" style="fill:#6a374f"/><path d="M119.1,276.72c6.73.09,11.49,4.55,11.33,10.6a11,11,0,0,1-10.94,10.55c-6.33-.1-11.7-4.44-11.36-9.59C108.5,282.57,111.25,275.86,119.1,276.72Z" transform="translate(-0.03)" style="fill:#6a374f"/><path d="M483.41,274.77c8.19,0,13.2,6.58,10.77,14a7.91,7.91,0,0,1-5.21,5.5c-5,1.59-9.58.93-13.55-2.53-3.51-3.05-3.86-6.94-2.42-11.13,1.33-3.84,4.6-5,8.11-5.84A11.05,11.05,0,0,1,483.41,274.77Z" transform="translate(-0.03)" style="fill:#6a374f"/><path d="M494.8,58.12c0,4.65-2.21,7.68-6.59,9-1.15.36-2.3.71-3.48,1a8.77,8.77,0,0,1-7.15-1.65c-4.16-3.06-6-9.71-4.07-14.53,1.86-4.63,6.49-6.7,11.48-5.64,2.64.55,5,1,6.78,3.34A13.57,13.57,0,0,1,494.8,58.12Z" transform="translate(-0.03)" style="fill:#6a374f"/><path d="M325.12,247.89a18.77,18.77,0,0,0-2.58-.43c-5.6-.26-11.2-.48-16.81-.69-6.91-.25-13.83-.47-21.12-.72.08-11.79.16-23.08.24-34.68,1.38-.07,2.67-.17,4-.18,8.91,0,17.82,0,26.73-.08,3.53,0,4.23-.62,4.4-4.18a66.55,66.55,0,0,0-.18-6.92c-.23-4-1.05-4.81-5-4.79-8.25.05-16.49.17-24.74.24-1.26,0-2.52-.09-3.88-.14-.22-9.95-.43-19.47-.65-29.14,1-.08,1.68-.17,2.32-.17,6.49,0,13,0,19.47-.06,4.29,0,8.58-.07,12.87-.18,4-.11,5.23-1.09,5.36-5,.14-4.38-.07-8.78-.3-13.16,0-.61-.92-1.33-1.58-1.7a4.11,4.11,0,0,0-1.94-.1q-25.25.69-50.47,1.41c-3.28.1-3.75.54-4.41,3.66a12.69,12.69,0,0,0-.25,2.61q-.11,54.12-.18,108.24c0,3.41.36,3.76,3.64,4.1q.82.07,1.65.09l51.78,1.55a9.69,9.69,0,0,0,1.32,0c2.13-.25,2.93-1,3-3.17,0-4.4-.05-8.8,0-13.2C327.69,249.28,326.94,248.2,325.12,247.89Z" transform="translate(-0.03)" style="fill:#6a374f;stroke:#6a374f;stroke-miterlimit:10;stroke-width:8px"/><path d="M548.78,142.9c-3.52-.11-7,0-10.56-.21-2.89-.21-5.22,0-5.77,3.51a5.32,5.32,0,0,1-.77,1.45q-7.93,14.44-15.86,28.91c-.51.92-1.08,1.82-1.89,3.19-1.09-2-2-3.62-2.86-5.23q-7.15-13-14.34-26c-.85-1.55-1.69-3.36-3.7-3.38-4.92,0-9.84.15-14.37.24-2.06,2.59-1.5,4.54-.21,6.75,8.24,14.16,16.33,28.4,24.54,42.57a11.42,11.42,0,0,1,1.61,5.89q.33,33.15.82,66.31c0,3.15.55,3.86,3.79,4.07,4.17.26,8.35.25,12.53.24,1.92,0,2.55-.69,2.71-2.54a23.25,23.25,0,0,0,0-2.64q0-33.48-.09-67a9.84,9.84,0,0,1,1.29-5q12.44-22.51,24.74-45.1a16.68,16.68,0,0,0,1.07-2C552.51,144.24,551.7,143,548.78,142.9Z" transform="translate(-0.03)" style="fill:#6a374f;stroke:#6a374f;stroke-miterlimit:10;stroke-width:8px"/><path d="M474.56,148c-.12-3.3-1.38-4.67-4.64-5a16.68,16.68,0,0,0-2,0c-2.86.09-5.72.2-8.58.27-16,.38-32.08.8-48.13,1.08-3.65.06-5.42,1.26-5,5.41.47,4.36.69,8.75.91,13.14a1.79,1.79,0,0,0,1.58,2,2,2,0,0,0,.49,0c2.19,0,4.39-.12,6.59-.2l14.23-.53c1.1,34.94,2.19,69.4,3.28,104.13a28.49,28.49,0,0,0,4,.55c3.4-.06,6.79-.37,10.19-.42,4.26-.05,5.66.8,5.44-6-.52-16.15-.93-32.3-1.4-48.45q-.47-16.15-.95-32.31c-.19-6.36-.38-12.72-.57-19.35,1.25-.07,2.44-.16,3.62-.21,5.61-.2,11.21-.36,16.81-.6,3.71-.16,4.44-.94,4.36-4.57C474.82,153.94,474.66,151,474.56,148Z" transform="translate(-0.03)" style="fill:#6a374f;stroke:#6a374f;stroke-miterlimit:10;stroke-width:8px"/><path d="M396.84,147.85a2.29,2.29,0,0,0-1.29-1.61,9,9,0,0,0-2.92-.27q-16.83-.1-33.66-.15H338.52c-3.18,0-4.49,1.48-4.29,4.69.09,1.31.19,2.63.3,3.94.25,3.07.56,6.13.76,9.2a2.48,2.48,0,0,0,2.29,2.64H338l2.64.09,14.78.76c.06,1.32.12,2.18.12,3q.14,48.5.23,97c0,1.41.61,2.13,1.87,2.18,4.94.19,9.88.39,14.82.38,2.25,0,2.83-.68,2.95-3.08.16-3.29.15-6.59.12-9.89q-.36-40.08-.75-80.16c0-3.05,0-6.1.06-9.34,1.42-.17,2.6-.37,3.79-.44,4.72-.26,9.44-.49,14.17-.73,3-.15,4.07-1.17,4.38-4.12a15.14,15.14,0,0,0,0-1.65C397.09,156.16,397,152,396.84,147.85Z" transform="translate(-0.03)" style="fill:#6a374f;stroke:#6a374f;stroke-miterlimit:10;stroke-width:8px"/><path d="M175.51,146.14c-4.85-3.77-10.48-5.43-16.34-6.32-8.22-1.75-34-2.18-35-1.18-1.47,1.47-1.49,14.89-1.49,15-.13,5.72-.16,8.44-.27,14.16l-1.77,92.39a22.72,22.72,0,0,0,0,3.3c.27,2.3,1.37,3.24,3.67,3.24h9.57a5.84,5.84,0,0,0,2.28-.19c.59-.26,1.48-1.22,1.36-1.51-.9-2.2.1-4.32.13-6.46.26-17.71.65-35.42,1-53.13,0-.84.17-1.68.29-2.81,5.22,0,10.26.11,15.3.1a44.63,44.63,0,0,0,14.56-2.57c11.07-3.79,17.09-14,16.88-25a61.74,61.74,0,0,0-4.32-21.22A17.68,17.68,0,0,0,175.51,146.14ZM163.63,181c-7.45,4.54-15.58,5.35-24.12,4.56.06-9.15.12-18,.19-27.63,6,.9,11.64,1.34,17.05,2.63A13,13,0,0,1,167.2,174C167.15,176.86,166.23,179.4,163.63,181Z" transform="translate(-0.03)" style="fill:#6a374f;stroke:#6a374f;stroke-miterlimit:10;stroke-width:8px"/><path d="M256.12,256.05l-19.44-49.41c-.43-1.11-.82-2.23-1.29-3.53.42-.27.69-.47,1-.63.67-.38,1.34-.76,2-1.1,6.75-3.3,11.15-8.6,12.68-15.93a40,40,0,0,0-2.3-23.63c-3.39-8.3-9.37-14-18.47-15.8a35.25,35.25,0,0,0-5.86-.86c-8.47-.18-16.94-.26-25.41-.3-4.48,0-5.39.85-5.56,5.4q-.63,16.81-1.16,33.64l-2.49,74.88c-.22,6.63.22,6.29,5.93,6.71,3.8.28,7.63.1,11.26.13,2.08-3.44,1.8-6.87,1.9-10.26q.61-22.77,1.27-45.53c0-1.05.15-2.09.24-3.11l8.31.05c.49,1.21,1,2.31,1.39,3.43l19.2,50.22a16.42,16.42,0,0,0,1.53,3.26,2.77,2.77,0,0,0,3.07,1.4c3.45-.72,6.93-1.25,10.36-2,2.65-.58,3.45-2,2.77-4.55A22.47,22.47,0,0,0,256.12,256.05Zm-28-71a16.67,16.67,0,0,1-3.58.55c-3.93,0-7.87,0-11.87-.06.06-8.3.11-16.17.17-24.29,6.09-.2,11.68.21,17,2.71,2.59,1.21,3.62,3.45,4.09,6a44.93,44.93,0,0,1,.71,6.55c.17,4.74-2,7.49-6.52,8.58Z" transform="translate(-0.03)" style="fill:#6a374f;stroke:#6a374f;stroke-miterlimit:10;stroke-width:8px"/><path d="M171.28,119.56c-13.9-16.91-32.15-20.16-38.16-20.46,13.76-6.74,29.76-2.93,30.68-5.74.32-1,0-4-4.25-5.92a84.4,84.4,0,0,0-36.25-8.28A27.51,27.51,0,0,1,136,71a10.83,10.83,0,0,0,2.49-.81,2.45,2.45,0,0,0,1.15-1.74A2.22,2.22,0,0,0,138.2,67a16.72,16.72,0,0,0-4.57-.42C119.38,67.55,106.55,72,96,82a13.87,13.87,0,0,1-1.15.87C82.54,75,70.05,75.92,57.4,81c-1.39.56-3.59,1.14-3,3.27s2.6,1.19,4,1.08c5.55-.42,10.68,1,15.65,3.27A11.25,11.25,0,0,1,75.88,90a8.56,8.56,0,0,1-1,.24C59.88,91.11,48,97.6,39.38,110a5.76,5.76,0,0,0-.9,1.74c-.5,1.84.63,3.14,2.49,2.71a16.91,16.91,0,0,0,3.61-1.54,50.21,50.21,0,0,1,27.1-5.64,22.38,22.38,0,0,1,2.68.56c-1.4.79-2.27,1.21-3.06,1.74-3.81,2.6-7.89,4.9-11.3,7.94-2.91,2.59-5.07,6-7.48,9.16-.74,1-1.33,2.17-.25,3.3s2.24.61,3.37.13S58,129,59.23,128.46c3.45-1.41,6.9-2.83,10.4-4.14a19.51,19.51,0,0,1,3.48-.61,18.78,18.78,0,0,1-.61,1.93,47.18,47.18,0,0,0-2.74,5.63,71.76,71.76,0,0,0-2.22,8.92,3,3,0,0,0,1,2.53,3.17,3.17,0,0,0,2.65-.34A14.28,14.28,0,0,0,73.84,140a30.83,30.83,0,0,1,11.08-7,16.11,16.11,0,0,1,2.58-.5c-.18,1-.26,1.48-.38,2A273.59,273.59,0,0,0,81,180.19a329.12,329.12,0,0,0,.83,44.52c.84,11.2,1.54,22.38.64,33.61-.23,2.85-.49,5.7-.63,8.55-.2,4,1.18,5.5,5.16,5.49a26.42,26.42,0,0,0,7.2-.66,32.93,32.93,0,0,0,7.06-3.37c1.48-.85,1.8-2.17,1.14-4a72.53,72.53,0,0,1-2.82-9.47c-3.35-15.2-4.45-30.67-5-46.19-.67-20.49-.11-40.92,3.72-61.14.77-4.07,1.71-8.11,2.55-12a75,75,0,0,1,15.68,8A74.64,74.64,0,0,1,129,154.75c1.38,1,1.28-1.56,1.1-2.18a52.79,52.79,0,0,0-7.92-16.21c-.69-.94-1.3-1.93-2-3,5-.73,25.11,2.46,33.77,11.14,1.1,1.1,3.83,1.46,3.53-.62-.24-1.64-3.56-6.2-4-6.83a55.47,55.47,0,0,0-19.66-18.21,8.1,8.1,0,0,1-1.29-1.12c.31-.27.38-.38.46-.4a4.24,4.24,0,0,1,1-.15c12-.08,24,.08,35.22,5.36,1,.49,2.33.87,2.85-.43A3.27,3.27,0,0,0,171.28,119.56Z" transform="translate(-0.03)" style="fill:#6a374f"/><path d="M582.11,255.87c-.36-59.36-.48-118.75-1.24-178.14V69.94a143.76,143.76,0,0,0-.49-14.61,51.32,51.32,0,0,0-2-10.35,30.36,30.36,0,0,0-3.2-7.09,25.37,25.37,0,0,0-8.76-8.5,37.73,37.73,0,0,0-13.89-4.53c-1-.13-2.16-.23-3.78-.33-6-.36-17.38-.64-33-.87C470,23,388.47,22.85,305.84,22.84h-6.76c-57.87,0-115.44.05-160.48.31-23.18.14-43,.33-57.92.6-7.44.13-13.64.29-18.4.47-2.38.09-4.4.18-6.06.29s-2.92.21-3.93.35c-6.54.94-11.79,2.9-15.89,5.84a25.33,25.33,0,0,0-7.21,7.93,39,39,0,0,0-4.52,14.93A137.8,137.8,0,0,0,24,69.94v7.79c-.76,59.39-.88,118.78-1.24,178.14,0,6.47-.72,13.55-.73,20.55a67.06,67.06,0,0,0,.65,9.91,32.22,32.22,0,0,0,5.23,13.88,29.19,29.19,0,0,0,13.23,10.13,14,14,0,0,0,2,.61,47.05,47.05,0,0,0,5,.86c3.71.49,8.65.92,14.73,1.31,21.28,1.37,56.59,2.29,98.88,2.88s91.48.85,140.41.91h.73c61.57-.08,123.59-.47,171.67-1.44,24.05-.48,44.61-1.1,59.92-1.9,7.66-.4,14-.85,18.87-1.34,2.43-.26,4.49-.52,6.19-.81.86-.14,1.62-.3,2.32-.47a12.81,12.81,0,0,0,2-.61,31.26,31.26,0,0,0,9.8-6.17,26.55,26.55,0,0,0,4.8-6.11A32.89,32.89,0,0,0,582,287.55a63.83,63.83,0,0,0,.85-11.13C582.83,269.42,582.14,262.34,582.11,255.87Zm-7.84,29.26a24.1,24.1,0,0,1-3.86,10.47,21.12,21.12,0,0,1-9.72,7.34,6,6,0,0,1-.83.24,37.74,37.74,0,0,1-4.1.7c-3.4.45-8.22.87-14.2,1.26-21,1.35-56.26,2.27-98.47,2.86s-91.41.85-140.32.91h-.71c-61.54-.08-123.52-.47-171.52-1.44-24-.48-44.49-1.1-59.66-1.89-7.58-.4-13.83-.84-18.46-1.31-2.32-.24-4.24-.49-5.68-.73-.71-.13-1.31-.25-1.76-.36a6,6,0,0,1-.83-.24,23.41,23.41,0,0,1-7.34-4.57,18.23,18.23,0,0,1-3.34-4.28,24.73,24.73,0,0,1-2.74-8,55.42,55.42,0,0,1-.73-9.71c0-6.47.68-13.53.73-20.5.35-59.38.48-118.76,1.24-178.09V69.94a135.76,135.76,0,0,1,.45-13.84,43.92,43.92,0,0,1,1.63-8.73,22.45,22.45,0,0,1,2.36-5.24,17.32,17.32,0,0,1,6-5.85,29.85,29.85,0,0,1,11-3.5c.59-.08,1.75-.19,3.3-.29,5.84-.37,17.36-.66,33-.89,45.85-.66,127.3-.75,209.32-.76h2.68c59.59,0,118.93.08,165,.36,23.24.14,43.09.34,57.84.6,7.37.14,13.48.28,18.08.45,2.3.09,4.22.18,5.73.27s2.61.19,3.13.26c5.61.81,9.54,2.39,12.37,4.42a17.18,17.18,0,0,1,4.94,5.45,30.75,30.75,0,0,1,3.5,11.87,132.27,132.27,0,0,1,.63,15.42v7.93c.76,59.33.88,118.71,1.24,178.09,0,7,.73,14,.72,20.5a58.51,58.51,0,0,1-.62,8.67Z" transform="translate(-0.03)" style="fill:#6a374f"/><path d="M130.17,54q0,7-6.59,9c-1.15.35-2.3.71-3.48,1a8.69,8.69,0,0,1-7.1-1.63c-4.16-3-6-9.71-4.08-14.52,1.86-4.64,6.49-6.7,11.48-5.65,2.65.56,5,1,6.79,3.35A13.6,13.6,0,0,1,130.17,54Zm-5-.23c0-4.19-3.16-7.44-7-7.27-3.52.16-5.31,2-5.32,5.4,0,3.92,2.66,7.26,5.76,7.18,4.39-.08,6.55-1.84,6.52-5.28Z" transform="translate(-0.03)" style="fill:#6a374f"/><path d="M119.1,276.63c6.73.09,11.49,4.55,11.33,10.6a11,11,0,0,1-10.94,10.55c-6.33-.11-11.7-4.45-11.36-9.59C108.5,282.47,111.25,275.77,119.1,276.63Zm-.66,4.9c-3-.62-4,.35-5.09,3.7-.1.31-.14.64-.22,1-.73,3.25.18,5,3.32,6a9.53,9.53,0,0,0,3.86.44c4.52-.5,6.48-4.9,4.09-8.74C122.93,281.55,120.75,281.42,118.44,281.53Z" transform="translate(-0.03)" style="fill:#6a374f"/><path d="M483.41,274.68c8.19,0,13.2,6.57,10.77,14A7.92,7.92,0,0,1,489,294.2c-5,1.59-9.58.92-13.55-2.53-3.51-3.05-3.86-6.94-2.42-11.14,1.33-3.83,4.6-5,8.11-5.83A10.13,10.13,0,0,1,483.41,274.68Zm-.25,4.77a10.09,10.09,0,0,0-1.82.16,7.11,7.11,0,0,0-4.53,4.77,4.94,4.94,0,0,0,3,4.73,9.66,9.66,0,0,0,7,.66,3.76,3.76,0,0,0,2.68-2.65c1.38-4.12-1.22-7.52-6.33-7.67Z" transform="translate(-0.03)" style="fill:#6a374f"/><path d="M391.89,81.14c-2-1.69-4-.62-5.79.5-4.56,2.77-9.06,5.62-13.64,8.36a57.57,57.57,0,0,1-5.6,2.83,7.13,7.13,0,0,1-2.11.19c.36-1.43.64-2.52.89-3.61,1.08-4.68-1.9-7.44-6.53-6A29.5,29.5,0,0,0,356,84.76c-.67.3-1.32.63-2.13,1a14,14,0,0,0-.21-1.83c-.58-2.35-2.47-3.15-4.61-2a9.69,9.69,0,0,0-1.59,1.19c-2.52,2.19-5,4.45-7.55,6.56s-5.07,4-7.69,5.92a5.36,5.36,0,0,1-3.93,1.4,4.25,4.25,0,0,1,.41-3.61c.75-1.44,1.63-2.82,2.26-4.3a9.5,9.5,0,0,0,1-3.72,19.83,19.83,0,0,0-1.07-5,3,3,0,0,0-3.67-2,11.54,11.54,0,0,0-2.66,1c-3,1.44-6,3-9,4.37-2.75,1.24-4,.89-6.13-1.23-.81-.82-1.54-1.7-2.41-2.45-1.59-1.37-3.05-1.4-4.57,0-3.2,3-6.33,6-9.49,9.08-1.51,1.44-3,2.93-4.59,4.28A7.88,7.88,0,0,1,283,95c1.93-4.27,3.54-8.27,6.25-11.83,3.22-4.23,5.89-8.88,8.73-13.39a18.56,18.56,0,0,0,1.65-3.63c.73-2,.41-3.57-.78-4.44a3.64,3.64,0,0,0-4.67.72,24.77,24.77,0,0,0-4,4.78c-2.46,4.17-4.67,8.5-7,12.77a19.78,19.78,0,0,1-1.83,3.54,71.72,71.72,0,0,1-15.83,14.33,11.13,11.13,0,0,1-5.71,1.91c.89-2.44,1.6-4.47,2.37-6.47.58-1.51,1.32-3,1.83-4.5a3.5,3.5,0,0,0-1-4.14,3.46,3.46,0,0,0-4.26-.21C256.8,85.7,255,87,253.28,88.3c-2.88,2.2-5.64,4.54-8.54,6.7a19.63,19.63,0,0,1-4.23,2.34c-1.08.45-2.39.75-3.23-.54.11-.31.12-.54.24-.66.53-.54,1.08-1.06,1.64-1.57A172.94,172.94,0,0,0,260,71.47a16.57,16.57,0,0,0,3.58-7.39c.58-3.8-2.26-6.47-5.88-5.3a18.17,18.17,0,0,0-5.48,2.95,83.65,83.65,0,0,0-15.73,16.49A27,27,0,0,0,231,92.41,3,3,0,0,1,229.5,95c-2.19,1.33-4.39,2.66-6.62,3.93a6.63,6.63,0,0,1-1.75.45,14.38,14.38,0,0,1,2.4-4c1.08-1.33,2.26-2.58,3.3-3.94a3.21,3.21,0,0,0,.32-4c-.86-1.34-1.78-2.63-2.63-4a6.52,6.52,0,0,0-5.15-3.19,14.89,14.89,0,0,0-5.64.33A70.29,70.29,0,0,0,203.53,85c-4.63,2.43-9.06,5.25-13.64,7.79-2.58,1.43-5.27,2.64-7.95,3.89-1.51.71-3.35,1.24-4.71.19-1.84-1.4-.13-5.79.62-7.67,4.27-10.8,12.15-18.52,21.47-24.92.17-.12.49,0,1.28,0-2.26,3.19-4.23,6.08-6.33,8.87a3.56,3.56,0,0,1-3.64,1.75,1.91,1.91,0,0,0-2.29,1.46l0,.18a4.42,4.42,0,0,0,.65,2.88,3.4,3.4,0,0,0,4.15,1,10.17,10.17,0,0,0,3.21-1.8A41.9,41.9,0,0,0,206.93,63.9c1.86-4.15-.72-7.29-5.28-6.63a13.26,13.26,0,0,0-5.3,1.94c-10.57,7.07-19.28,15.8-24,27.92-.23.59-1.88,5.61-1.9,8.62,0,4.25,2.28,6.26,6.42,7.23a12.06,12.06,0,0,0,8.31-1.22c4.26-2.11,8.43-4.42,12.63-6.65L201,93.4c-.61,1.66-1,2.6-1.3,3.58a6.28,6.28,0,0,0,4.17,7.83,6.45,6.45,0,0,0,2.93.17,20.85,20.85,0,0,0,4.09-1.2c1.31-.5,2.55-1.21,4-1.93,1.43,3.34,4.12,4.1,7.32,3.5a11.39,11.39,0,0,0,3-1c2.38-1.19,4.71-2.47,7-3.66a27,27,0,0,0,4.1,2.47,8.79,8.79,0,0,0,7.71-.88c2.87-1.66,5.54-3.66,8.29-5.54.82-.57,1.6-1.21,2.82-2.14-.38,1.76-.7,3-.89,4.15-.7,4.51,2,7.41,6.55,7a14.7,14.7,0,0,0,2.79-.57,24.8,24.8,0,0,0,8.42-4.56c.76-.6,1.54-1.19,2.31-1.78a5.26,5.26,0,0,1-.49,2.44c-2,5.34-4.17,10.63-6,16a22.56,22.56,0,0,0-1,7.3c.06,4.23,3.51,6,7.2,3.87a13.59,13.59,0,0,0,2.51-1.88c6.37-6,10.43-13.29,11.25-22.15.12-1.31,0-2.64.05-3.82,1.42-.82,2.69-1.47,3.87-2.26s2.36-1.79,3.61-2.76c.28,1.57.41,2.91.77,4.17A7.32,7.32,0,0,0,305,105c4.82-1,8.44-6.6,7.51-11.59-.18-1-.44-1.92-.72-3.16,5.54.45,9.34-3.14,14.44-4.87a50.39,50.39,0,0,0-2.33,4.5,23,23,0,0,0-1.8,5.67c-.64,5.47,3.34,8.8,8.58,7.24a32.61,32.61,0,0,0,5.14-2.43c.83-.42,1.58-1,2.57-1.61,0,.67.1,1,.08,1.39a2.87,2.87,0,0,0,1.76,3,3,3,0,0,0,3.41-.75c.78-.69,1.43-1.54,2.22-2.22,3.48-3,7-5.91,10.49-8.8A18,18,0,0,1,359,89.9c0,1.34-.08,2.2,0,3,.31,4.83,3.6,7.29,8.22,5.94a31.69,31.69,0,0,0,6.28-2.69c3.33-1.84,6.53-3.92,9.8-5.87.59-.35,1.23-.6,2.21-1.07-.4,1.55-.7,2.63-1,3.73-.53,2.22-1.13,4.43-1.54,6.67a2.94,2.94,0,0,0,2.07,3.58c1.45.38,2.86-.46,3.54-2.17a14.47,14.47,0,0,0,.55-1.92c1.07-4.15,2.1-8.3,3.21-12.44C392.91,84.75,393.77,82.74,391.89,81.14ZM255.6,67.21a150.33,150.33,0,0,1-16.28,19C239.63,82.37,250.25,69.91,255.6,67.21Zm-50,31.6c1-4.83,8.05-9.79,14.32-9.87-3,4.93-10.47,10-14.29,9.87ZM273.11,121a114.89,114.89,0,0,1,8-21.38C283.36,105.56,279.29,116.47,273.11,121Zm31.36-22.06c-1.34.74-2.44.34-2.8-1.17a5.12,5.12,0,0,1-.05-2.49c.6-2.06,1.39-4.07,2.1-6.09h.89a50.56,50.56,0,0,1,1.91,5.2,4.25,4.25,0,0,1-2,4.52Z" transform="translate(-0.03)" style="fill:#6a374f"/><path d="M413,97.06a64.12,64.12,0,0,1-5.3,3.82,18.53,18.53,0,0,1-5.2,2.21c-4.14.88-7.17-2.26-6.24-6.38A11.13,11.13,0,0,1,398,92.87a32.53,32.53,0,0,1,14.22-11.09,11.8,11.8,0,0,1,3.33-.67,3.21,3.21,0,0,1,3,1.2,5.49,5.49,0,0,0,1.78,1.24c1.85,1,2.44,2.18,1.71,4.21-.65,1.79-1.59,3.47-2.22,5.26-.52,1.48-1.51,3.14-.21,4.58s3.08.8,4.58.34c2.91-.87,5.79-1.87,8.61-3,6.89-2.77,13.7-5.71,20.6-8.44a80.38,80.38,0,0,1,8.68-2.78,12.22,12.22,0,0,1,4-.24,2.35,2.35,0,0,1,2.29,2.17,2.54,2.54,0,0,1-1.71,2.94,3.94,3.94,0,0,1-.82.27c-7.82,1.54-14.92,5.08-22.24,8-4.06,1.62-8.07,3.38-12.15,5-1.94.76-4,1.29-6,1.91a10.62,10.62,0,0,1-1.12.24C418.35,105.1,415,103.1,413,97.06Zm-10-.67c4.6-2.22,8-5.78,11.42-9.42A23,23,0,0,0,403,96.39Z" transform="translate(-0.03)" style="fill:#6a374f"/><path d="M393.68,64.52c1.11-.78,2.22-1.65,3.41-2.39a10.86,10.86,0,0,1,2.8-1.37,3.46,3.46,0,0,1,4.38,4.4,14.12,14.12,0,0,1-1.88,3.48c-1.5,2.3-3.11,4.53-4.64,6.81-1.11,1.66-2.1,2.23-3.44,1.87s-1.94-1.31-2-3.32v-.53c-2.14-2.22-4-4.07-5.76-6a5.72,5.72,0,0,1-1.08-2,3,3,0,0,1,.85-3.38,2.74,2.74,0,0,1,3.42-.48A46.52,46.52,0,0,1,393.68,64.52Z" transform="translate(-0.03)" style="fill:#6a374f"/><path d="M268.32,75.45c-1.05-2.09-2.07-4-3-6a3,3,0,0,1,.64-3.88,3.07,3.07,0,0,1,4-.14c.72.44,1.37,1,2.19,1.62.68-.4,1.36-.89,2.11-1.24a14.18,14.18,0,0,1,3.39-1.4,3.38,3.38,0,0,1,4,2.55,3.32,3.32,0,0,1-.09,1.82,6.42,6.42,0,0,1-1.29,2.5c-2.77,3.13-5.56,6.25-8.47,9.24-1.52,1.56-3.78,1.35-4.59-.34a4.45,4.45,0,0,1-.13-2.7A7.72,7.72,0,0,1,268.32,75.45Z" transform="translate(-0.03)" style="fill:#6a374f"/><path d="M139.84,138.71a.52.52,0,0,1-.19-.2h-7.26a22.44,22.44,0,0,0-3.28.14c-1.06.15-2,.78-1.66,1.95a2.53,2.53,0,0,0,1.94,1.24c4.72.12,8.45,0,13.18.11a16.81,16.81,0,0,1,2,.08A43.18,43.18,0,0,0,139.84,138.71Z" transform="translate(-0.03)" style="fill:#6a374f;stroke:#6a374f;stroke-miterlimit:10;stroke-width:2px"/><path d="M181.51,153.76a17.68,17.68,0,0,0-5.84-7.79c-4.85-3.77-10.47-5.43-16.33-6.32.72,1.31,1.37,2.66,2,4a31,31,0,0,1,10.81,4.17,15.88,15.88,0,0,1,6.49,8.43A61.23,61.23,0,0,1,182.19,175c.19,9.32-4.68,18.15-14.25,21.56A42.4,42.4,0,0,1,154.37,199c-4.72.08-9.45.06-14.17,0-2.59-.05-5.06,1.22-5.06,4.53,0,12.31-.35,24.62-.53,36.93-.1,6.82-.14,13.63-.21,20.45,0,.63-.09,1.26-.16,2.15l-10.1-.07c.74-36.23,1.47-69.35,2.21-105.66a33.74,33.74,0,0,0-3.55-3.82c-.13,5.72-.16,8.44-.27,14.16q-.89,46.2-1.78,92.39a22.72,22.72,0,0,0,0,3.3c.27,2.3,1.37,3.23,3.67,3.24H134a5.84,5.84,0,0,0,2.28-.19c.59-.26,1.48-1.22,1.36-1.51-.9-2.2.1-4.32.13-6.46.26-17.71.65-35.42,1-53.13,0-.84.17-1.68.28-2.81,5.23,0,10.27.1,15.31.1a44.53,44.53,0,0,0,14.59-2.6c11.08-3.79,17.09-14,16.88-25A62.08,62.08,0,0,0,181.51,153.76Z" transform="translate(-0.03)" style="fill:#6a374f;stroke:#6a374f;stroke-miterlimit:10;stroke-width:2px"/><path d="M171.28,119.15c-13.9-16.92-32.15-20.15-38.16-20.46,13.76-6.75,29.76-2.93,30.68-5.75.32-1,0-4-4.25-5.92a84.4,84.4,0,0,0-36.25-8.28A27.48,27.48,0,0,1,136,70.62a9.94,9.94,0,0,0,2.49-.81,2.46,2.46,0,0,0,1.15-1.73,2.2,2.2,0,0,0-1.43-1.5,16.34,16.34,0,0,0-4.57-.43c-14.25,1-27.08,5.48-37.68,15.41a13.87,13.87,0,0,1-1.15.87c-12.26-7.88-24.75-6.92-37.4-1.84-1.39.56-3.59,1.14-3,3.27s2.6,1.19,4,1.09c5.55-.42,10.68,1,15.65,3.26a11.6,11.6,0,0,1,1.84,1.35,7,7,0,0,1-1,.25c-15,.86-26.92,7.36-35.5,19.78a6.05,6.05,0,0,0-.9,1.75c-.5,1.84.63,3.14,2.49,2.71a16.45,16.45,0,0,0,3.61-1.55,50.13,50.13,0,0,1,27.11-5.61,22.38,22.38,0,0,1,2.68.56c-1.4.79-2.27,1.2-3.06,1.74-3.81,2.59-7.89,4.89-11.3,7.94-2.91,2.59-5.07,6-7.48,9.16-.74.95-1.33,2.16-.25,3.29s2.24.62,3.37.14,2.37-1.17,3.59-1.67c3.45-1.42,6.9-2.83,10.4-4.15a21.48,21.48,0,0,1,3.48-.61,16.61,16.61,0,0,1-.61,1.93,49.56,49.56,0,0,0-2.74,5.63,72.35,72.35,0,0,0-2.22,8.93,3,3,0,0,0,1,2.53,3.21,3.21,0,0,0,2.65-.34,15,15,0,0,0,2.68-2.42,30.83,30.83,0,0,1,11.08-7,17.51,17.51,0,0,1,2.58-.49c-.18.94-.26,1.47-.38,2A273,273,0,0,0,81,179.78a329,329,0,0,0,.83,44.51c.84,11.2,1.54,22.39.64,33.61-.23,2.85-.49,5.7-.63,8.56-.2,4,1.18,5.5,5.16,5.48a26.81,26.81,0,0,0,7.2-.65,34.4,34.4,0,0,0,7.06-3.37c1.48-.85,1.8-2.18,1.14-4a74.11,74.11,0,0,1-2.82-9.47c-3.35-15.21-4.45-30.68-5-46.19-.67-20.49-.11-40.92,3.72-61.14.77-4.07,1.71-8.11,2.55-12a75.73,75.73,0,0,1,15.68,8A75,75,0,0,1,129,154.33c1.38,1,1.28-1.56,1.1-2.17A52.81,52.81,0,0,0,122.2,136c-.69-.94-1.3-1.94-2-3,5-.73,25.11,2.47,33.77,11.15,1.1,1.1,3.83,1.46,3.53-.63-.24-1.64-3.56-6.2-4-6.82a55.58,55.58,0,0,0-19.66-18.22,7.57,7.57,0,0,1-1.29-1.11c.31-.28.38-.39.46-.4a4.24,4.24,0,0,1,1-.15c12-.08,24,.08,35.22,5.35,1,.49,2.33.87,2.85-.43A3.22,3.22,0,0,0,171.28,119.15Zm-36.09-6a67.32,67.32,0,0,0-8.49,1c-1.4.22-3,.61-3,2.46,0,1.62,1.4,2.11,2.66,2.53a41.41,41.41,0,0,1,14.13,8.3,99.21,99.21,0,0,1,8.15,9c-1-.41-2-.79-2.92-1.23A75.56,75.56,0,0,0,120.86,129a15.2,15.2,0,0,0-4.26.07,3.21,3.21,0,0,0-2.23,1.55c-.22.65.45,1.76,1,2.47,1.7,2.27,5,7.12,4.79,7.34-2.15-1.05-4.31-2.06-6.43-3.16-2.44-1.27-4.81-2.66-7.25-3.94a23.85,23.85,0,0,0-3.33-1.43c-3.67-1.3-5.41-.42-6.29,3.36-1,4.17-2,8.35-2.59,12.58A304.68,304.68,0,0,0,91,207.66c.5,9.87,1,19.77,2,29.59,1,9.26,2.23,18.57,5.69,27.36a1.67,1.67,0,0,1,0,.63c-3.39,2.89-8.9,4.19-14,3.1.17-2.18.19-4.46.53-6.69,1.83-11.83,1.42-23.66.51-35.54-1.4-18.21-2-36.46-.52-54.7.59-7.32,1.89-14.59,3-21.87q1-6.67,2.45-13.27c.39-1.78,1.41-3.41,2-5.16.3-.85.75-2.18.36-2.63a3.69,3.69,0,0,0-2.81-1.09,22.7,22.7,0,0,0-10.5,3.6c-2.62,1.78-5.22,3.59-8.14,5.6.15-.85,2.66-9.9,8.81-12.94,1.2-.6,2.53-1.22,2.16-2.87s-1.84-1.89-3.15-1.84a46.76,46.76,0,0,0-8.18.72,79.06,79.06,0,0,0-8.75,2.85,8.32,8.32,0,0,1-3.37.71,24.64,24.64,0,0,1,2.69-3c4.1-3.34,8.28-6.6,13.23-8.61a56.6,56.6,0,0,1,6.28-1.86c1.37-.36,3-.39,3-2.39,0-1.85-1.52-2.19-3-2.49-11.93-2.44-23.61-1.78-35,2.85a3.64,3.64,0,0,1-.66,0A11.28,11.28,0,0,1,47,105.86c9.38-9,20.28-13.7,33.53-11.57a6.37,6.37,0,0,0,1.63.18,2.11,2.11,0,0,0,2.21-2,2.08,2.08,0,0,0-.55-1.52,12.16,12.16,0,0,0-2.1-2.08A34,34,0,0,0,68.79,82.5c-.72-.2-1.44-.43-2.16-.64,7.58-2.58,15.12-2.6,22.44.81a18.27,18.27,0,0,1,3.49,2.42c2,1.6,3.26,1.52,5-.37a38,38,0,0,1,13.81-9.37c4.27-1.75,14.48-4.73,15.37-4.41a25,25,0,0,0-2.59,1.87c-2.47,2.33-4.92,4.69-7.3,7.12-.86.88-1.44,2-.54,3.27s2,1.17,3.26.82c16.28-4.56,38.28,5.8,39.63,7-.75.09-4.77-.18-5.52-.15a69.25,69.25,0,0,0-27.11,6.3c-1.24.58-3,.92-2.66,2.83s2.07,1.94,3.64,2.08c3,.26,5.92.5,8.85.91,9.13,1.29,16.57,6.18,23.84,11.4.13.09.11.38.22.79a107.14,107.14,0,0,0-25.27-2Z" transform="translate(-0.03)" style="fill:#6a374f"/><path d="M284.77,245.88c7.3.25,14.21.47,21.13.72q8.4.32,16.81.68a20.44,20.44,0,0,1,2.58.44c1.81.31,2.57,1.39,2.55,3.22,0,4.4.07,8.8,0,13.2,0,2.15-.83,2.92-2.95,3.17a9.69,9.69,0,0,1-1.32,0l-51.79-1.55a10,10,0,0,1-1.64-.09c-3.29-.34-3.65-.7-3.64-4.1q.06-54.12.18-108.24a12.68,12.68,0,0,1,.24-2.61c.67-3.12,1.14-3.56,4.42-3.66q25.23-.74,50.46-1.41a4.15,4.15,0,0,1,1.95.1c.66.37,1.55,1.09,1.58,1.7.22,4.38.44,8.78.29,13.16-.12,3.87-1.35,4.85-5.36,5-4.28.11-8.57.15-12.86.18-6.49,0-13,0-19.47.06-.64,0-1.28.09-2.32.16.21,9.67.43,19.19.65,29.15,1.36,0,2.62.14,3.87.13,8.25-.07,16.5-.18,24.75-.23,4,0,4.8.78,5,4.79a66.55,66.55,0,0,1,.18,6.92c-.17,3.56-.88,4.16-4.41,4.18-8.91,0-17.82,0-26.73.08-1.29,0-2.57.11-4,.18Zm37-96.52H319.1l-33,.66c-4.29.08-8.58.08-12.87.19-2.61.07-2.82.35-2.94,2.85v2q-.1,28.55-.24,57.07c-.08,15.51-.23,31-.34,46.52,0,3.52.31,4,3.23,4q24.57.6,49.14,1.13a13,13,0,0,0,2.16-.29l.08-12.42c-1.19-.12-2.15-.25-3.11-.3L287,249.2c-4.17-.19-5.5-1.47-5.53-5.58q-.12-15.18-.12-30.35c0-3.53,1.63-5.28,5.11-5.36,8.79-.2,17.59-.31,26.38-.47,1.27,0,2.53-.16,3.71-.23l.06-8.61h-3.87c-8.36,0-16.71,0-25.07-.06-3.37,0-4.5-1.16-4.69-4.52v-1c-.26-8.24-.51-16.48-.8-24.72-.2-5.56-.23-5.6,5.52-5.71q15.33-.27,30.67-.47H322c.67-4.41.25-8.41-.25-12.76Z" transform="translate(-0.03)" style="fill:#6a374f;stroke:#6a374f;stroke-miterlimit:10;stroke-width:2px"/><path d="M207.18,265.45c-3.63,0-7.46.15-11.26-.13-5.71-.42-6.16-.08-5.93-6.71q1.29-37.44,2.49-74.88c.37-11.21.73-22.43,1.16-33.64.17-4.55,1.08-5.43,5.56-5.4,8.47,0,16.94.12,25.4.3a35.21,35.21,0,0,1,5.87.86c9.1,1.81,15.08,7.5,18.47,15.8a40,40,0,0,1,2.3,23.63c-1.54,7.33-5.94,12.62-12.68,15.93-.69.34-1.36.72-2,1.1-.29.16-.55.36-1,.63.47,1.3.85,2.42,1.29,3.53q9.71,24.71,19.44,49.41a21.58,21.58,0,0,1,.93,2.47c.67,2.55-.12,4-2.77,4.55-3.44.76-6.92,1.28-10.36,2a2.75,2.75,0,0,1-3.07-1.39,17.13,17.13,0,0,1-1.54-3.27q-9.61-25.1-19.2-50.21c-.42-1.12-.89-2.22-1.38-3.43h-8.32c-.08,1-.21,2.06-.24,3.11q-.65,22.77-1.27,45.53C209,258.58,209.26,262,207.18,265.45Zm46.59-5.67c-.49-1.45-.84-2.57-1.26-3.67Q242.76,230.9,233,205.69c-1.81-4.68-1.81-4.7,2.76-6.9,7.17-3.45,11.7-9,12.46-17a51.33,51.33,0,0,0-.64-11.81c-1.49-10.62-8.44-20.48-21.93-21.25-8.45-.48-16.92-.53-25.38-.68a15.05,15.05,0,0,0-3,.23c-1.35,37.71-2.66,75.71-4,113.17a57,57,0,0,0,12.38.85v-3.94q.57-24.74,1.16-49.48c.14-5.72.46-6,6.08-5.74a31.4,31.4,0,0,0,3.63,0c4.27-.26,4.57-.12,6.09,3.81q10,25.82,20.07,51.63c.35.9.77,1.77,1.23,2.83Z" transform="translate(-0.03)" style="fill:#6a374f;stroke:#6a374f;stroke-miterlimit:10;stroke-width:2px"/><path d="M478.83,145.22c4.53-.09,9.45-.28,14.37-.24,2,0,2.85,1.83,3.7,3.38l14.34,26c.89,1.61,1.76,3.23,2.86,5.22.81-1.36,1.38-2.26,1.89-3.18l15.86-28.92a5.26,5.26,0,0,0,.77-1.44c.54-3.5,2.88-3.72,5.77-3.51,3.51.25,7,.09,10.55.21,2.93.09,3.74,1.33,2.7,4a17.34,17.34,0,0,1-1.07,2q-12.35,22.56-24.73,45.1a9.84,9.84,0,0,0-1.29,5q.09,33.48.09,67c0,.88.06,1.76,0,2.64-.17,1.85-.79,2.54-2.71,2.54-4.18,0-8.36,0-12.53-.24-3.25-.21-3.76-.92-3.8-4.08q-.44-33.15-.81-66.3a11.42,11.42,0,0,0-1.61-5.89C495,180.37,486.85,166.13,478.62,152,477.33,149.76,476.77,147.81,478.83,145.22ZM521.1,266.46V262.2c0-21.44.11-42.88.1-64.32a11.57,11.57,0,0,1,1.6-5.88q12-21.42,23.86-42.93c.45-.81.78-1.68,1.33-2.89l-11.6-.08c-.53.94-1.06,1.9-1.58,2.86L518,180.29a23.11,23.11,0,0,1-1.62,2.86c-1.42,2.1-2.12,2.19-3.76.33A19.87,19.87,0,0,1,510.2,180q-7-12.88-13.93-25.82c-3.23-6-3.22-6-9.95-5.84-1.78,0-3.56.18-5.6.29.41.88.57,1.29.78,1.67l24.06,41.31a5.63,5.63,0,0,0,1.11,1.62,4.18,4.18,0,0,1,1.35,3.54c.11,5.72.3,11.43.39,17.15q.4,24.39.76,48.8c0,1.16.18,2.32.29,3.7Z" transform="translate(-0.03)" style="fill:#6a374f;stroke:#6a374f;stroke-miterlimit:10;stroke-width:2px"/><path d="M430.24,164l-14.24.54c-2.19.08-4.39.17-6.59.2-1.27,0-2-.5-2.06-2-.23-4.38-.44-8.77-.92-13.13-.45-4.15,1.33-5.35,5-5.41,16-.28,32.09-.7,48.13-1.08,2.86-.07,5.71-.18,8.57-.27a16.68,16.68,0,0,1,2,0c3.25.3,4.51,1.67,4.63,5,.11,3,.27,5.93.34,8.9.08,3.63-.65,4.41-4.36,4.57-5.6.24-11.21.4-16.81.6-1.19.05-2.37.14-3.63.21.2,6.63.38,13,.57,19.35q.48,16.16,1,32.3c.46,16.16.88,32.31,1.4,48.46.22,6.83-1.18,6-5.44,6-3.4,0-6.8.36-10.2.41a26.89,26.89,0,0,1-4-.54C432.42,233.39,431.34,198.94,430.24,164Zm17.38-4.68c7.91-1.34,15.95-.65,23.67-1.75l.08-11-61.82,1.13c.47,4.8.89,9.14,1.33,13.63,1.52,0,2.71.08,3.9,0,4.72-.27,9.44-.6,14.16-.87a30.57,30.57,0,0,1,4.28,0c1.56.14,2.36,1.42,1.43,2.48-1.19,1.38-1,2.81-.95,4.31.48,13.19,1,26.38,1.47,39.57.64,19,1.19,38,1.8,57.07a9.92,9.92,0,0,0,.29,1.44c4.11.65,8-.29,12.19-.71v-3.46q-.24-9.72-.52-19.46c-.47-17.71-1-35.41-1.39-53.12-.18-9.65-.79-19.27.08-29.22Z" transform="translate(-0.03)" style="fill:#6a374f;stroke:#6a374f;stroke-miterlimit:10;stroke-width:2px"/><path d="M355.58,167l-14.78-.76-2.64-.09a2.46,2.46,0,0,1-2.69-2.22,1.88,1.88,0,0,1,0-.41c-.2-3.07-.51-6.14-.77-9.2-.11-1.32-.21-2.63-.29-3.94-.21-3.21,1.11-4.68,4.28-4.69h20.46q16.83.06,33.65.15a9,9,0,0,1,2.93.28,2.28,2.28,0,0,1,1.28,1.61c.21,4.15.26,8.3.35,12.46a15.14,15.14,0,0,1,0,1.65c-.31,2.94-1.41,4-4.39,4.12-4.72.24-9.44.47-14.16.73-1.19.07-2.37.27-3.79.44,0,3.24-.09,6.29-.06,9.33q.36,40.1.75,80.17c0,3.3,0,6.6-.13,9.89-.11,2.4-.7,3.08-2.94,3.08-4.94,0-9.89-.19-14.82-.38-1.26-.05-1.87-.77-1.87-2.18q-.07-48.49-.23-97C355.7,169.14,355.63,168.28,355.58,167Zm37.82-17.38-55.47-.38A74.66,74.66,0,0,0,339.06,163c2.46,0,4.65,0,6.85.06,3,.08,5.93.17,8.89.38,3.67.27,4.13.78,4.19,4.4.14,7.59.31,15.18.35,22.77q.23,35.79.36,71.59v3.43c4.38.81,8.46.53,12.53.56-.21-32.16-.43-63.84-.62-95.51a21.56,21.56,0,0,1,.24-3.93c.46-2.54.6-2.75,3.13-3,4.93-.46,9.87-.74,14.8-1.13,1.37-.11,2.73-.34,4.34-.55Z" transform="translate(-0.03)" style="fill:#6a374f;stroke:#6a374f;stroke-miterlimit:10;stroke-width:2px"/><path d="M143.52,189.35c-2-.15-3.94-.23-5.89-.48-1.21-.15-1.8-.85-1.77-2.27.17-6,.22-12,.26-18,0-3.08-.07-6.15-.05-9.22,0-3.64.94-4.72,4.45-4.46a127.93,127.93,0,0,1,16.32,1.83c7.17,1.46,14.11,6.51,14.07,16.93,0,5.09-2.15,8.81-6.71,11.17C158.06,188,151.7,189.38,143.52,189.35Zm-3.65-31.61-.2,27.63c8.55.79,16.68,0,24.13-4.56,2.59-1.58,3.52-4.12,3.56-7a13,13,0,0,0-10.44-13.42c-5.41-1.31-11-1.76-17-2.65Z" transform="translate(-0.03)" style="fill:#6a374f;stroke:#6a374f;stroke-miterlimit:10;stroke-width:2px"/><path d="M209.32,172.44c0-3.85,0-7.7.1-11.55.08-3,.59-3.43,3.58-3.27,3.73.2,7.45.52,11.18.79a6.67,6.67,0,0,1,1,.13c9.06,2.22,12.16,4.61,13,14.36.11,1.42.28,2.85.25,4.28-.08,5.81-3.11,9.86-8.88,11.07a82.94,82.94,0,0,1-11.13,1,39.57,39.57,0,0,1-4.62-.06c-2.94-.15-4.43-1.6-4.48-4.56-.06-4.06,0-8.13.06-12.2Zm3.52,13c4,0,7.93.1,11.87.06a17.23,17.23,0,0,0,3.57-.55c4.54-1.07,6.69-3.84,6.52-8.54a47.88,47.88,0,0,0-.71-6.55c-.47-2.55-1.5-4.79-4.09-6-5.31-2.49-10.91-2.9-17-2.7Z" transform="translate(-0.03)" style="fill:#6a374f;stroke:#6a374f;stroke-miterlimit:10;stroke-width:2px"/><path d="M494.8,58q0,7-6.59,9c-1.15.35-2.3.71-3.48,1a8.74,8.74,0,0,1-7.15-1.65c-4.16-3-6-9.71-4.07-14.52,1.86-4.64,6.49-6.7,11.48-5.65,2.64.56,5,1,6.78,3.35A13.6,13.6,0,0,1,494.8,58Zm-5-.23c0-4.19-3.16-7.44-7-7.27-3.52.16-5.31,2-5.32,5.4,0,3.92,2.66,7.26,5.76,7.18,4.39-.08,6.55-1.84,6.52-5.28Z" transform="translate(-0.03)" style="fill:#6a374f"/><path d="M557.63,70.45c-5-20-30.28-26.5-38.52-15.44a11.69,11.69,0,0,0-1.73,9c1.12,4.44,5.63,8.35,12.21,7.64,16-1.75,17,15,17.67,20,.56,4.14,2,5.69,5.13,5C556.48,95.86,561,83.86,557.63,70.45Z" transform="translate(-0.03)" style="fill:#6a374f"/><path d="M552.29,111.76c-7.71.54-6.89,12.53.84,12S560,111.22,552.29,111.76Z" transform="translate(-0.03)" style="fill:#6a374f"/><path d="M55.89,289.11c-16.33-7.62-17.72-30.35-6.87-35.58a10.11,10.11,0,0,1,8,0c3.62,1.69,6.23,6.2,4.53,11.73-4.14,13.46,10.08,17,14.26,18.46,3.45,1.17,4.54,2.67,3.47,5.23C77.87,292.32,66.83,294.21,55.89,289.11Z" transform="translate(-0.03)" style="fill:#6a374f"/><polygon points="615.72 274.51 615.72 274.51 615.72 274.51 615.72 274.51" style="fill:#6a374f"/></g><g id="Layer_1-2" data-name="Layer 1-2"><path d="M574.11,247c-.36-59.35-.48-118.75-1.24-178.14V61.07a143.57,143.57,0,0,0-.49-14.6,51.32,51.32,0,0,0-2-10.35,30.43,30.43,0,0,0-3.2-7.1,25.25,25.25,0,0,0-8.76-8.49A37.26,37.26,0,0,0,544.54,16c-1-.13-2.16-.23-3.78-.33-6-.37-17.38-.65-33-.87C462,14.16,380.47,14,297.84,14h-6.76c-57.87,0-115.44.05-160.48.31-23.18.13-43,.32-57.92.59-7.44.14-13.64.29-18.4.47-2.38.1-4.4.19-6.06.3s-2.92.21-3.93.35c-6.54.93-11.79,2.9-15.89,5.83a25.36,25.36,0,0,0-7.21,7.94,38.79,38.79,0,0,0-4.52,14.92A137.8,137.8,0,0,0,16,61.09v7.77c-.76,59.39-.88,118.79-1.24,178.14,0,6.48-.72,13.55-.73,20.56a67.06,67.06,0,0,0,.65,9.91,32.13,32.13,0,0,0,5.23,13.87,29.19,29.19,0,0,0,13.23,10.13,14,14,0,0,0,2,.62,47.05,47.05,0,0,0,5,.86c3.71.48,8.65.91,14.73,1.31,21.28,1.37,56.59,2.28,98.88,2.87s91.48.85,140.41.92h.73c61.57-.08,123.59-.48,171.67-1.44,24.05-.48,44.61-1.11,59.92-1.91,7.66-.4,14-.84,18.87-1.34,2.43-.25,4.49-.51,6.19-.8.86-.15,1.62-.3,2.32-.47a12.85,12.85,0,0,0,2-.62,31.23,31.23,0,0,0,9.8-6.16,26.12,26.12,0,0,0,4.8-6.12,32.74,32.74,0,0,0,3.66-10.5,63.83,63.83,0,0,0,.85-11.13C574.83,260.57,574.14,253.5,574.11,247Z" transform="translate(-0.03)" style="fill:#fff;stroke:#fff;stroke-miterlimit:10;stroke-width:28px"/><line x1="290.97" y1="22" x2="290.97" y2="22" style="fill:none;stroke:#fff;stroke-miterlimit:10;stroke-width:24px"/><path d="M574.69,248.08c-.35-59.36-.48-118.75-1.24-178.14V62.15a143.57,143.57,0,0,0-.49-14.6,50,50,0,0,0-2-10.35,30.28,30.28,0,0,0-3.21-7.1A25.22,25.22,0,0,0,559,21.61a37.35,37.35,0,0,0-13.9-4.53c-1-.14-2.16-.24-3.77-.33-6-.37-17.39-.65-33-.87-45.71-.66-127.28-.81-209.92-.82h-6.76c-57.86,0-115.44,0-160.48.31-23.18.13-43,.32-57.92.59-7.44.14-13.63.29-18.39.47-2.39.09-4.41.18-6.06.29s-2.93.22-3.93.36C38.34,18,33.09,20,29,22.91a25.21,25.21,0,0,0-7.2,7.94,38.58,38.58,0,0,0-4.53,14.92,140,140,0,0,0-.68,16.38v7.79c-.76,59.39-.88,118.78-1.24,178.14,0,6.47-.72,13.55-.72,20.55a64.37,64.37,0,0,0,.65,9.91,31.92,31.92,0,0,0,5.23,13.88A29.08,29.08,0,0,0,33.7,302.55a15.43,15.43,0,0,0,2,.62,48.77,48.77,0,0,0,4.95.86c3.7.48,8.64.91,14.73,1.3,21.28,1.38,56.59,2.29,98.87,2.88s91.49.85,140.42.92h.73c61.57-.08,123.58-.48,171.67-1.44,24-.49,44.6-1.11,59.92-1.91,7.66-.4,14-.84,18.86-1.34,2.43-.25,4.49-.51,6.2-.81.85-.14,1.62-.29,2.32-.46a15.43,15.43,0,0,0,2-.62,31.52,31.52,0,0,0,9.8-6.16,26.35,26.35,0,0,0,4.79-6.12,32.71,32.71,0,0,0,3.66-10.51,61.84,61.84,0,0,0,.86-11.12C575.41,261.63,574.72,254.55,574.69,248.08Z" transform="translate(-0.03)" style="fill:#eab9e5"/><path d="M122.17,46.12c0,4.65-2.21,7.68-6.59,9-1.15.36-2.3.71-3.48,1a8.73,8.73,0,0,1-7.1-1.65c-4.16-3.06-6-9.71-4.08-14.53,1.86-4.63,6.49-6.7,11.48-5.64,2.65.55,5,1,6.79,3.34A13.56,13.56,0,0,1,122.17,46.12Z" transform="translate(-0.03)" style="fill:#fff"/><path d="M111.1,268.72c6.73.09,11.49,4.55,11.33,10.6a11,11,0,0,1-10.94,10.55c-6.33-.1-11.7-4.44-11.36-9.59C100.5,274.57,103.25,267.86,111.1,268.72Z" transform="translate(-0.03)" style="fill:#fff"/><path d="M475.41,266.77c8.19,0,13.2,6.58,10.77,14a7.91,7.91,0,0,1-5.21,5.5c-5,1.59-9.58.93-13.55-2.53-3.51-3.05-3.86-6.94-2.42-11.13,1.33-3.84,4.6-5,8.11-5.84A11.05,11.05,0,0,1,475.41,266.77Z" transform="translate(-0.03)" style="fill:#fff"/><path d="M486.8,50.12c0,4.65-2.21,7.68-6.59,9-1.15.36-2.3.71-3.48,1a8.77,8.77,0,0,1-7.15-1.65c-4.16-3.06-6-9.71-4.07-14.53,1.86-4.63,6.49-6.7,11.48-5.64,2.64.55,5,1,6.78,3.34A13.57,13.57,0,0,1,486.8,50.12Z" transform="translate(-0.03)" style="fill:#fff"/><path d="M317.12,239.89a18.77,18.77,0,0,0-2.58-.43c-5.6-.26-11.2-.48-16.81-.69-6.91-.25-13.83-.47-21.12-.72.08-11.79.16-23.08.24-34.68,1.38-.07,2.67-.17,4-.18,8.91,0,17.82,0,26.73-.08,3.53,0,4.23-.62,4.4-4.18a66.55,66.55,0,0,0-.18-6.92c-.23-4-1.05-4.81-5-4.79-8.25.05-16.49.17-24.74.24-1.26,0-2.52-.09-3.88-.14-.22-9.95-.43-19.47-.65-29.14,1-.08,1.68-.17,2.32-.17,6.49,0,13,0,19.47-.06,4.29,0,8.58-.07,12.87-.18,4-.11,5.23-1.09,5.36-5,.14-4.38-.07-8.78-.3-13.16,0-.61-.92-1.33-1.58-1.7a4.11,4.11,0,0,0-1.94-.1q-25.25.69-50.47,1.41c-3.28.1-3.75.54-4.41,3.66a12.69,12.69,0,0,0-.25,2.61q-.11,54.12-.18,108.24c0,3.41.36,3.76,3.64,4.1q.82.07,1.65.09l51.78,1.55a9.69,9.69,0,0,0,1.32,0c2.13-.25,2.93-1,3-3.17,0-4.4-.05-8.8,0-13.2C319.69,241.28,318.94,240.2,317.12,239.89Z" transform="translate(-0.03)" style="fill:#fff;stroke:#fff;stroke-miterlimit:10;stroke-width:8px"/><path d="M540.78,134.9c-3.52-.11-7,0-10.56-.21-2.89-.21-5.22,0-5.77,3.51a5.32,5.32,0,0,1-.77,1.45q-7.93,14.44-15.86,28.91c-.51.92-1.08,1.82-1.89,3.19-1.09-2-2-3.62-2.86-5.23q-7.15-13-14.34-26c-.85-1.55-1.69-3.36-3.7-3.38-4.92,0-9.84.15-14.37.24-2.06,2.59-1.5,4.54-.21,6.75,8.24,14.16,16.33,28.4,24.54,42.57a11.42,11.42,0,0,1,1.61,5.89q.33,33.15.82,66.31c0,3.15.55,3.86,3.79,4.07,4.17.26,8.35.25,12.53.24,1.92,0,2.55-.69,2.71-2.54a23.25,23.25,0,0,0,0-2.64q0-33.48-.09-67a9.84,9.84,0,0,1,1.29-5q12.44-22.51,24.74-45.1a16.68,16.68,0,0,0,1.07-2C544.51,136.24,543.7,135,540.78,134.9Z" transform="translate(-0.03)" style="fill:#fff;stroke:#fff;stroke-miterlimit:10;stroke-width:8px"/><path d="M466.56,140c-.12-3.3-1.38-4.67-4.64-5a16.68,16.68,0,0,0-2,0c-2.86.09-5.72.2-8.58.27-16,.38-32.08.8-48.13,1.08-3.65.06-5.42,1.26-5,5.41.47,4.36.69,8.75.91,13.14a1.79,1.79,0,0,0,1.58,2,2,2,0,0,0,.49,0c2.19,0,4.39-.12,6.59-.2l14.23-.53c1.1,34.94,2.19,69.4,3.28,104.13a28.49,28.49,0,0,0,4,.55c3.4-.06,6.79-.37,10.19-.42,4.26-.05,5.66.8,5.44-6-.52-16.15-.93-32.3-1.4-48.45q-.47-16.15-.95-32.31c-.19-6.36-.38-12.72-.57-19.35,1.25-.07,2.44-.16,3.62-.21,5.61-.2,11.21-.36,16.81-.6,3.71-.16,4.44-.94,4.36-4.57C466.82,145.94,466.66,143,466.56,140Z" transform="translate(-0.03)" style="fill:#fff;stroke:#fff;stroke-miterlimit:10;stroke-width:8px"/><path d="M388.84,139.85a2.29,2.29,0,0,0-1.29-1.61,9,9,0,0,0-2.92-.27q-16.83-.1-33.66-.15H330.52c-3.18,0-4.49,1.48-4.29,4.69.09,1.31.19,2.63.3,3.94.25,3.07.56,6.13.76,9.2a2.48,2.48,0,0,0,2.29,2.64H330l2.64.09,14.78.76c.06,1.32.12,2.18.12,3q.14,48.5.23,97c0,1.41.61,2.13,1.87,2.18,4.94.19,9.88.39,14.82.38,2.25,0,2.83-.68,2.95-3.08.16-3.29.15-6.59.12-9.89q-.36-40.08-.75-80.16c0-3.05,0-6.1.06-9.34,1.42-.17,2.6-.37,3.79-.44,4.72-.26,9.44-.49,14.17-.73,3-.15,4.07-1.17,4.38-4.12a15.14,15.14,0,0,0,0-1.65C389.09,148.16,389,144,388.84,139.85Z" transform="translate(-0.03)" style="fill:#fff;stroke:#fff;stroke-miterlimit:10;stroke-width:8px"/><path d="M167.51,138.14c-4.85-3.77-10.48-5.43-16.34-6.32-8.22-1.75-34-2.18-35-1.18-1.47,1.47-1.49,14.89-1.49,15-.13,5.72-.16,8.44-.27,14.16l-1.77,92.39a22.72,22.72,0,0,0,0,3.3c.27,2.3,1.37,3.24,3.67,3.24h9.57a5.84,5.84,0,0,0,2.28-.19c.59-.26,1.48-1.22,1.36-1.51-.9-2.2.1-4.32.13-6.46.26-17.71.65-35.42,1-53.13,0-.84.17-1.68.29-2.81,5.22,0,10.26.11,15.3.1a44.63,44.63,0,0,0,14.56-2.57c11.07-3.79,17.09-14,16.88-25a61.74,61.74,0,0,0-4.32-21.22A17.68,17.68,0,0,0,167.51,138.14ZM155.63,173c-7.45,4.54-15.58,5.35-24.12,4.56.06-9.15.12-18,.19-27.63,6,.9,11.64,1.34,17.05,2.63A13,13,0,0,1,159.2,166C159.15,168.86,158.23,171.4,155.63,173Z" transform="translate(-0.03)" style="fill:#fff;stroke:#fff;stroke-miterlimit:10;stroke-width:8px"/><path d="M248.12,248.05l-19.44-49.41c-.43-1.11-.82-2.23-1.29-3.53.42-.27.69-.47,1-.63.67-.38,1.34-.76,2-1.1,6.75-3.3,11.15-8.6,12.68-15.93a40,40,0,0,0-2.3-23.63c-3.39-8.3-9.37-14-18.47-15.8a35.25,35.25,0,0,0-5.86-.86c-8.47-.18-16.94-.26-25.41-.3-4.48,0-5.39.85-5.56,5.4q-.63,16.81-1.16,33.64l-2.49,74.88c-.22,6.63.22,6.29,5.93,6.71,3.8.28,7.63.1,11.26.13,2.08-3.44,1.8-6.87,1.9-10.26q.61-22.77,1.27-45.53c0-1.05.15-2.09.24-3.11l8.31.05c.49,1.21,1,2.31,1.39,3.43l19.2,50.22a16.42,16.42,0,0,0,1.53,3.26,2.77,2.77,0,0,0,3.07,1.4c3.45-.72,6.93-1.25,10.36-2,2.65-.58,3.45-2,2.77-4.55A22.47,22.47,0,0,0,248.12,248.05Zm-28-71a16.67,16.67,0,0,1-3.58.55c-3.93,0-7.87,0-11.87-.06.06-8.3.11-16.17.17-24.29,6.09-.2,11.68.21,17,2.71,2.59,1.21,3.62,3.45,4.09,6a44.93,44.93,0,0,1,.71,6.55c.17,4.74-2,7.49-6.52,8.58Z" transform="translate(-0.03)" style="fill:#fff;stroke:#fff;stroke-miterlimit:10;stroke-width:8px"/><path d="M163.28,111.56c-13.9-16.91-32.15-20.16-38.16-20.46,13.76-6.74,29.76-2.93,30.68-5.74.32-1,0-4-4.25-5.92a84.4,84.4,0,0,0-36.25-8.28A27.51,27.51,0,0,1,128,63a10.83,10.83,0,0,0,2.49-.81,2.45,2.45,0,0,0,1.15-1.74A2.22,2.22,0,0,0,130.2,59a16.72,16.72,0,0,0-4.57-.42C111.38,59.55,98.55,64,88,74a13.87,13.87,0,0,1-1.15.87C74.54,67,62.05,67.92,49.4,73c-1.39.56-3.59,1.14-3,3.27s2.6,1.19,4,1.08c5.55-.42,10.68,1,15.65,3.27A11.25,11.25,0,0,1,67.88,82a8.56,8.56,0,0,1-1,.24C51.88,83.11,40,89.6,31.38,102a5.76,5.76,0,0,0-.9,1.74c-.5,1.84.63,3.14,2.49,2.71a16.91,16.91,0,0,0,3.61-1.54,50.21,50.21,0,0,1,27.1-5.64,22.38,22.38,0,0,1,2.68.56c-1.4.79-2.27,1.21-3.06,1.74-3.81,2.6-7.89,4.9-11.3,7.94-2.91,2.59-5.07,6-7.48,9.16-.74,1-1.33,2.17-.25,3.3s2.24.61,3.37.13S50,121,51.23,120.46c3.45-1.41,6.9-2.83,10.4-4.14a19.51,19.51,0,0,1,3.48-.61,18.78,18.78,0,0,1-.61,1.93,47.18,47.18,0,0,0-2.74,5.63,71.76,71.76,0,0,0-2.22,8.92,3,3,0,0,0,1,2.53,3.17,3.17,0,0,0,2.65-.34A14.28,14.28,0,0,0,65.84,132a30.83,30.83,0,0,1,11.08-7,16.11,16.11,0,0,1,2.58-.5c-.18,1-.26,1.48-.38,2A273.59,273.59,0,0,0,73,172.19a329.12,329.12,0,0,0,.83,44.52c.84,11.2,1.54,22.38.64,33.61-.23,2.85-.49,5.7-.63,8.55-.2,4,1.18,5.5,5.16,5.49a26.42,26.42,0,0,0,7.2-.66,32.93,32.93,0,0,0,7.06-3.37c1.48-.85,1.8-2.17,1.14-4a72.53,72.53,0,0,1-2.82-9.47c-3.35-15.2-4.45-30.67-5-46.19-.67-20.49-.11-40.92,3.72-61.14.77-4.07,1.71-8.11,2.55-12a75,75,0,0,1,15.68,8A74.64,74.64,0,0,1,121,146.75c1.38,1,1.28-1.56,1.1-2.18a52.79,52.79,0,0,0-7.92-16.21c-.69-.94-1.3-1.93-2-3,5-.73,25.11,2.46,33.77,11.14,1.1,1.1,3.83,1.46,3.53-.62-.24-1.64-3.56-6.2-4-6.83a55.47,55.47,0,0,0-19.66-18.21,8.1,8.1,0,0,1-1.29-1.12c.31-.27.38-.38.46-.4a4.24,4.24,0,0,1,1-.15c12-.08,24,.08,35.22,5.36,1,.49,2.33.87,2.85-.43A3.27,3.27,0,0,0,163.28,111.56Z" transform="translate(-0.03)" style="fill:#e077bd"/><path d="M574.11,247.87c-.36-59.36-.48-118.75-1.24-178.14V61.94a143.76,143.76,0,0,0-.49-14.61,51.32,51.32,0,0,0-2-10.35,30.36,30.36,0,0,0-3.2-7.09,25.37,25.37,0,0,0-8.76-8.5,37.73,37.73,0,0,0-13.89-4.53c-1-.13-2.16-.23-3.78-.33-6-.36-17.38-.64-33-.87C462,15,380.47,14.85,297.84,14.84h-6.76c-57.87,0-115.44.05-160.48.31-23.18.14-43,.33-57.92.6-7.44.13-13.64.29-18.4.47-2.38.09-4.4.18-6.06.29s-2.92.21-3.93.35c-6.54.94-11.79,2.9-15.89,5.84a25.33,25.33,0,0,0-7.21,7.93,39,39,0,0,0-4.52,14.93A137.8,137.8,0,0,0,16,61.94v7.79c-.76,59.39-.88,118.78-1.24,178.14,0,6.47-.72,13.55-.73,20.55a67.06,67.06,0,0,0,.65,9.91,32.22,32.22,0,0,0,5.23,13.88,29.19,29.19,0,0,0,13.23,10.13,14,14,0,0,0,2,.61,47.05,47.05,0,0,0,5,.86c3.71.49,8.65.92,14.73,1.31,21.28,1.37,56.59,2.29,98.88,2.88s91.48.85,140.41.91h.73c61.57-.08,123.59-.47,171.67-1.44,24.05-.48,44.61-1.1,59.92-1.9,7.66-.4,14-.85,18.87-1.34,2.43-.26,4.49-.52,6.19-.81.86-.14,1.62-.3,2.32-.47a12.81,12.81,0,0,0,2-.61,31.26,31.26,0,0,0,9.8-6.17,26.55,26.55,0,0,0,4.8-6.11A32.89,32.89,0,0,0,574,279.55a63.83,63.83,0,0,0,.85-11.13C574.83,261.42,574.14,254.34,574.11,247.87Zm-7.84,29.26a24.1,24.1,0,0,1-3.86,10.47,21.12,21.12,0,0,1-9.72,7.34,6,6,0,0,1-.83.24,37.74,37.74,0,0,1-4.1.7c-3.4.45-8.22.87-14.2,1.26-21,1.35-56.26,2.27-98.47,2.86s-91.41.85-140.32.91h-.71c-61.54-.08-123.52-.47-171.52-1.44-24-.48-44.49-1.1-59.66-1.89-7.58-.4-13.83-.84-18.46-1.31-2.32-.24-4.24-.49-5.68-.73-.71-.13-1.31-.25-1.76-.36a6,6,0,0,1-.83-.24,23.41,23.41,0,0,1-7.34-4.57,18.23,18.23,0,0,1-3.34-4.28,24.73,24.73,0,0,1-2.74-8,55.42,55.42,0,0,1-.73-9.71c0-6.47.68-13.53.73-20.5.35-59.38.48-118.76,1.24-178.09V61.94a135.76,135.76,0,0,1,.45-13.84,43.92,43.92,0,0,1,1.63-8.73,22.45,22.45,0,0,1,2.36-5.24,17.32,17.32,0,0,1,6-5.85,29.85,29.85,0,0,1,11-3.5c.59-.08,1.75-.19,3.3-.29,5.84-.37,17.36-.66,33-.89,45.85-.66,127.3-.75,209.32-.76h2.68c59.59,0,118.93.08,165,.36,23.24.14,43.09.34,57.84.6,7.37.14,13.48.28,18.08.45,2.3.09,4.22.18,5.73.27s2.61.19,3.13.26c5.61.81,9.54,2.39,12.37,4.42a17.18,17.18,0,0,1,4.94,5.45,30.75,30.75,0,0,1,3.5,11.87,132.27,132.27,0,0,1,.63,15.42v7.93c.76,59.33.88,118.71,1.24,178.09,0,7,.73,14,.72,20.5a58.51,58.51,0,0,1-.62,8.67Z" transform="translate(-0.03)" style="fill:#474747"/><path d="M122.17,46q0,7-6.59,9c-1.15.35-2.3.71-3.48,1a8.69,8.69,0,0,1-7.1-1.63c-4.16-3-6-9.71-4.08-14.52,1.86-4.64,6.49-6.7,11.48-5.65,2.65.56,5,1,6.79,3.35A13.6,13.6,0,0,1,122.17,46Zm-5-.23c0-4.19-3.16-7.44-7-7.27-3.52.16-5.31,2-5.32,5.4,0,3.92,2.66,7.26,5.76,7.18,4.39-.08,6.55-1.84,6.52-5.28Z" transform="translate(-0.03)" style="fill:#474747"/><path d="M111.1,268.63c6.73.09,11.49,4.55,11.33,10.6a11,11,0,0,1-10.94,10.55c-6.33-.11-11.7-4.45-11.36-9.59C100.5,274.47,103.25,267.77,111.1,268.63Zm-.66,4.9c-3-.62-4,.35-5.09,3.7-.1.31-.14.64-.22,1-.73,3.25.18,5,3.32,6a9.53,9.53,0,0,0,3.86.44c4.52-.5,6.48-4.9,4.09-8.74C114.93,273.55,112.75,273.42,110.44,273.53Z" transform="translate(-0.03)" style="fill:#474747"/><path d="M475.41,266.68c8.19,0,13.2,6.57,10.77,14A7.92,7.92,0,0,1,481,286.2c-5,1.59-9.58.92-13.55-2.53-3.51-3.05-3.86-6.94-2.42-11.14,1.33-3.83,4.6-5,8.11-5.83A10.13,10.13,0,0,1,475.41,266.68Zm-.25,4.77a10.09,10.09,0,0,0-1.82.16,7.11,7.11,0,0,0-4.53,4.77,4.94,4.94,0,0,0,3,4.73,9.66,9.66,0,0,0,7,.66,3.76,3.76,0,0,0,2.68-2.65c1.38-4.12-1.22-7.52-6.33-7.67Z" transform="translate(-0.03)" style="fill:#474747"/><path d="M383.89,73.14c-2-1.69-4-.62-5.79.5-4.56,2.77-9.06,5.62-13.64,8.36a57.57,57.57,0,0,1-5.6,2.83,7.13,7.13,0,0,1-2.11.19c.36-1.43.64-2.52.89-3.61,1.08-4.68-1.9-7.44-6.53-6A29.5,29.5,0,0,0,348,76.76c-.67.3-1.32.63-2.13,1a14,14,0,0,0-.21-1.83c-.58-2.35-2.47-3.15-4.61-2a9.69,9.69,0,0,0-1.59,1.19c-2.52,2.19-5,4.45-7.55,6.56s-5.07,4-7.69,5.92a5.36,5.36,0,0,1-3.93,1.4,4.25,4.25,0,0,1,.41-3.61c.75-1.44,1.63-2.82,2.26-4.3a9.5,9.5,0,0,0,1-3.72,19.83,19.83,0,0,0-1.07-5,3,3,0,0,0-3.67-2,11.54,11.54,0,0,0-2.66,1c-3,1.44-6,3-9,4.37-2.75,1.24-4,.89-6.13-1.23-.81-.82-1.54-1.7-2.41-2.45-1.59-1.37-3.05-1.4-4.57,0-3.2,3-6.33,6-9.49,9.08-1.51,1.44-3,2.93-4.59,4.28A7.88,7.88,0,0,1,275,87c1.93-4.27,3.54-8.27,6.25-11.83,3.22-4.23,5.89-8.88,8.73-13.39a18.56,18.56,0,0,0,1.65-3.63c.73-2,.41-3.57-.78-4.44a3.64,3.64,0,0,0-4.67.72,24.77,24.77,0,0,0-4,4.78c-2.46,4.17-4.67,8.5-7,12.77a19.78,19.78,0,0,1-1.83,3.54,71.72,71.72,0,0,1-15.83,14.33,11.13,11.13,0,0,1-5.71,1.91c.89-2.44,1.6-4.47,2.37-6.47.58-1.51,1.32-3,1.83-4.5a3.5,3.5,0,0,0-1.05-4.14,3.46,3.46,0,0,0-4.26-.21C248.8,77.7,247,79,245.28,80.3c-2.88,2.2-5.64,4.54-8.54,6.7a19.63,19.63,0,0,1-4.23,2.34c-1.08.45-2.39.75-3.23-.54.11-.31.12-.54.24-.66.53-.54,1.08-1.06,1.64-1.57A172.94,172.94,0,0,0,252,63.47a16.57,16.57,0,0,0,3.58-7.39c.58-3.8-2.26-6.47-5.88-5.3a18.17,18.17,0,0,0-5.48,2.95,83.65,83.65,0,0,0-15.73,16.49A27,27,0,0,0,223,84.41,3,3,0,0,1,221.5,87c-2.19,1.33-4.39,2.66-6.62,3.93a6.63,6.63,0,0,1-1.75.45,14.38,14.38,0,0,1,2.4-4c1.08-1.33,2.26-2.58,3.3-3.94a3.21,3.21,0,0,0,.32-4c-.86-1.34-1.78-2.63-2.63-4a6.52,6.52,0,0,0-5.15-3.19,14.89,14.89,0,0,0-5.64.33A70.29,70.29,0,0,0,195.53,77c-4.63,2.43-9.06,5.25-13.64,7.79-2.58,1.43-5.27,2.64-7.95,3.89-1.51.71-3.35,1.24-4.71.19-1.84-1.4-.13-5.79.62-7.67,4.27-10.8,12.15-18.52,21.47-24.92.17-.12.49,0,1.28,0-2.26,3.19-4.23,6.08-6.33,8.87a3.56,3.56,0,0,1-3.64,1.75,1.91,1.91,0,0,0-2.29,1.46l0,.18a4.42,4.42,0,0,0,.65,2.88,3.4,3.4,0,0,0,4.15,1,10.17,10.17,0,0,0,3.21-1.8A41.9,41.9,0,0,0,198.93,55.9c1.86-4.15-.72-7.29-5.28-6.63a13.26,13.26,0,0,0-5.3,1.94c-10.57,7.07-19.28,15.8-24,27.92-.23.59-1.88,5.61-1.9,8.62,0,4.25,2.28,6.26,6.42,7.23a12.06,12.06,0,0,0,8.31-1.22c4.26-2.11,8.43-4.42,12.63-6.65L193,85.4c-.61,1.66-1,2.6-1.3,3.58a6.28,6.28,0,0,0,4.17,7.83,6.45,6.45,0,0,0,2.93.17,20.85,20.85,0,0,0,4.09-1.2c1.31-.5,2.55-1.21,4-1.93,1.43,3.34,4.12,4.1,7.32,3.5a11.39,11.39,0,0,0,3-1c2.38-1.19,4.71-2.47,7-3.66a27,27,0,0,0,4.1,2.47,8.79,8.79,0,0,0,7.71-.88c2.87-1.66,5.54-3.66,8.29-5.54.82-.57,1.6-1.21,2.82-2.14-.38,1.76-.7,3-.89,4.15-.7,4.51,2,7.41,6.55,7a14.7,14.7,0,0,0,2.79-.57A24.8,24.8,0,0,0,264,92.62c.76-.6,1.54-1.19,2.31-1.78a5.26,5.26,0,0,1-.49,2.44c-2,5.34-4.17,10.63-6,16a22.56,22.56,0,0,0-1,7.3c.06,4.23,3.51,6,7.2,3.87a13.59,13.59,0,0,0,2.51-1.88c6.37-6,10.43-13.29,11.25-22.15.12-1.31,0-2.64.05-3.82,1.42-.82,2.69-1.47,3.87-2.26s2.36-1.79,3.61-2.76c.28,1.57.41,2.91.77,4.17A7.32,7.32,0,0,0,297,97c4.82-1,8.44-6.6,7.51-11.59-.18-1-.44-1.92-.72-3.16,5.54.45,9.34-3.14,14.44-4.87a50.39,50.39,0,0,0-2.33,4.5,23,23,0,0,0-1.8,5.67c-.64,5.47,3.34,8.8,8.58,7.24a32.61,32.61,0,0,0,5.14-2.43c.83-.42,1.58-1,2.57-1.61,0,.67.1,1,.08,1.39a2.87,2.87,0,0,0,1.76,3,3,3,0,0,0,3.41-.75c.78-.69,1.43-1.54,2.22-2.22,3.48-3,7-5.91,10.49-8.8A18,18,0,0,1,351,81.9c0,1.34-.08,2.2,0,3,.31,4.83,3.6,7.29,8.22,5.94a31.69,31.69,0,0,0,6.28-2.69c3.33-1.84,6.53-3.92,9.8-5.87.59-.35,1.23-.6,2.21-1.07-.4,1.55-.7,2.63-1,3.73-.53,2.22-1.13,4.43-1.54,6.67A2.94,2.94,0,0,0,377,95.19c1.45.38,2.86-.46,3.54-2.17a14.47,14.47,0,0,0,.55-1.92c1.07-4.15,2.1-8.3,3.21-12.44C384.91,76.75,385.77,74.74,383.89,73.14ZM247.6,59.21a150.33,150.33,0,0,1-16.28,19C231.63,74.37,242.25,61.91,247.6,59.21Zm-50,31.6c1-4.83,8.05-9.79,14.32-9.87-3,4.93-10.47,10-14.29,9.87ZM265.11,113a114.89,114.89,0,0,1,8-21.38C275.36,97.56,271.29,108.47,265.11,113Zm31.36-22.06c-1.34.74-2.44.34-2.8-1.17a5.12,5.12,0,0,1-.05-2.49c.6-2.06,1.39-4.07,2.1-6.09h.89a50.56,50.56,0,0,1,1.91,5.2,4.25,4.25,0,0,1-2,4.52Z" transform="translate(-0.03)" style="fill:#ed40a9"/><path d="M405,89.06a64.12,64.12,0,0,1-5.3,3.82,18.53,18.53,0,0,1-5.2,2.21c-4.14.88-7.17-2.26-6.24-6.38A11.13,11.13,0,0,1,390,84.87a32.53,32.53,0,0,1,14.22-11.09,11.8,11.8,0,0,1,3.33-.67,3.21,3.21,0,0,1,3,1.2,5.49,5.49,0,0,0,1.78,1.24c1.85,1,2.44,2.18,1.71,4.21-.65,1.79-1.59,3.47-2.22,5.26-.52,1.48-1.51,3.14-.21,4.58s3.08.8,4.58.34c2.91-.87,5.79-1.87,8.61-3,6.89-2.77,13.7-5.71,20.6-8.44a80.38,80.38,0,0,1,8.68-2.78,12.22,12.22,0,0,1,4-.24,2.35,2.35,0,0,1,2.29,2.17,2.54,2.54,0,0,1-1.71,2.94,3.94,3.94,0,0,1-.82.27c-7.82,1.54-14.92,5.08-22.24,8-4.06,1.62-8.07,3.38-12.15,5-1.94.76-4,1.29-6,1.91a10.62,10.62,0,0,1-1.12.24C410.35,97.1,407,95.1,405,89.06Zm-10-.67c4.6-2.22,8-5.78,11.42-9.42A23,23,0,0,0,395,88.39Z" transform="translate(-0.03)" style="fill:#ed40a9"/><path d="M385.68,56.52c1.11-.78,2.22-1.65,3.41-2.39a10.86,10.86,0,0,1,2.8-1.37,3.46,3.46,0,0,1,4.38,4.4,14.12,14.12,0,0,1-1.88,3.48c-1.5,2.3-3.11,4.53-4.64,6.81-1.11,1.66-2.1,2.23-3.44,1.87s-1.94-1.31-2-3.32v-.53c-2.14-2.22-4-4.07-5.76-6a5.72,5.72,0,0,1-1.08-2,3,3,0,0,1,.85-3.38,2.74,2.74,0,0,1,3.42-.48A46.52,46.52,0,0,1,385.68,56.52Z" transform="translate(-0.03)" style="fill:#ed40a9"/><path d="M260.32,67.45c-1.05-2.09-2.07-4-3-6a3,3,0,0,1,.64-3.88,3.07,3.07,0,0,1,4-.14c.72.44,1.37,1,2.19,1.62.68-.4,1.36-.89,2.11-1.24a14.18,14.18,0,0,1,3.39-1.4,3.38,3.38,0,0,1,4,2.55,3.32,3.32,0,0,1-.09,1.82,6.42,6.42,0,0,1-1.29,2.5c-2.77,3.13-5.56,6.25-8.47,9.24-1.52,1.56-3.78,1.35-4.59-.34a4.45,4.45,0,0,1-.13-2.7A7.72,7.72,0,0,1,260.32,67.45Z" transform="translate(-0.03)" style="fill:#ed40a9"/><path d="M131.84,130.71a.52.52,0,0,1-.19-.2h-7.26a22.44,22.44,0,0,0-3.28.14c-1.06.15-2,.78-1.66,1.95a2.53,2.53,0,0,0,1.94,1.24c4.72.12,8.45,0,13.18.11a16.81,16.81,0,0,1,2,.08A43.18,43.18,0,0,0,131.84,130.71Z" transform="translate(-0.03)" style="fill:#474747;stroke:#474747;stroke-miterlimit:10;stroke-width:2px"/><path d="M173.51,145.76a17.68,17.68,0,0,0-5.84-7.79c-4.85-3.77-10.47-5.43-16.33-6.32.72,1.31,1.37,2.66,2,4a31,31,0,0,1,10.81,4.17,15.88,15.88,0,0,1,6.49,8.43A61.23,61.23,0,0,1,174.19,167c.19,9.32-4.68,18.15-14.25,21.56A42.4,42.4,0,0,1,146.37,191c-4.72.08-9.45.06-14.17,0-2.59-.05-5.06,1.22-5.06,4.53,0,12.31-.35,24.62-.53,36.93-.1,6.82-.14,13.63-.21,20.45,0,.63-.09,1.26-.16,2.15l-10.1-.07c.74-36.23,1.47-69.35,2.21-105.66a33.74,33.74,0,0,0-3.55-3.82c-.13,5.72-.16,8.44-.27,14.16q-.89,46.2-1.78,92.39a22.72,22.72,0,0,0,0,3.3c.27,2.3,1.37,3.23,3.67,3.24H126a5.84,5.84,0,0,0,2.28-.19c.59-.26,1.48-1.22,1.36-1.51-.9-2.2.1-4.32.13-6.46.26-17.71.65-35.42,1-53.13,0-.84.17-1.68.28-2.81,5.23,0,10.27.1,15.31.1a44.53,44.53,0,0,0,14.59-2.6c11.08-3.79,17.09-14,16.88-25A62.08,62.08,0,0,0,173.51,145.76Z" transform="translate(-0.03)" style="fill:#474747;stroke:#474747;stroke-miterlimit:10;stroke-width:2px"/><path d="M163.28,111.15C149.38,94.23,131.13,91,125.12,90.69c13.76-6.75,29.76-2.93,30.68-5.75.32-1,0-4-4.25-5.92a84.4,84.4,0,0,0-36.25-8.28A27.48,27.48,0,0,1,128,62.62a9.94,9.94,0,0,0,2.49-.81,2.46,2.46,0,0,0,1.15-1.73,2.2,2.2,0,0,0-1.43-1.5,16.34,16.34,0,0,0-4.57-.43c-14.25,1-27.08,5.48-37.68,15.41a13.87,13.87,0,0,1-1.15.87c-12.26-7.88-24.75-6.92-37.4-1.84-1.39.56-3.59,1.14-3,3.27s2.6,1.19,4,1.09c5.55-.42,10.68,1,15.65,3.26a11.6,11.6,0,0,1,1.84,1.35,7,7,0,0,1-1,.25c-15,.86-26.92,7.36-35.5,19.78a6.05,6.05,0,0,0-.9,1.75c-.5,1.84.63,3.14,2.49,2.71a16.45,16.45,0,0,0,3.61-1.55,50.13,50.13,0,0,1,27.11-5.61,22.38,22.38,0,0,1,2.68.56c-1.4.79-2.27,1.2-3.06,1.74-3.81,2.59-7.89,4.89-11.3,7.94-2.91,2.59-5.07,6-7.48,9.16-.74.95-1.33,2.16-.25,3.29s2.24.62,3.37.14,2.37-1.17,3.59-1.67c3.45-1.42,6.9-2.83,10.4-4.15a21.48,21.48,0,0,1,3.48-.61,16.61,16.61,0,0,1-.61,1.93,49.56,49.56,0,0,0-2.74,5.63,72.35,72.35,0,0,0-2.22,8.93,3,3,0,0,0,1,2.53,3.21,3.21,0,0,0,2.65-.34,15,15,0,0,0,2.68-2.42,30.83,30.83,0,0,1,11.08-7,17.51,17.51,0,0,1,2.58-.49c-.18.94-.26,1.47-.38,2A273,273,0,0,0,73,171.78a329,329,0,0,0,.83,44.51c.84,11.2,1.54,22.39.64,33.61-.23,2.85-.49,5.7-.63,8.56-.2,4,1.18,5.5,5.16,5.48a26.81,26.81,0,0,0,7.2-.65,34.4,34.4,0,0,0,7.06-3.37c1.48-.85,1.8-2.18,1.14-4a74.11,74.11,0,0,1-2.82-9.47c-3.35-15.21-4.45-30.68-5-46.19-.67-20.49-.11-40.92,3.72-61.14.77-4.07,1.71-8.11,2.55-12a75.73,75.73,0,0,1,15.68,8A75,75,0,0,1,121,146.33c1.38,1,1.28-1.56,1.1-2.17A52.81,52.81,0,0,0,114.2,128c-.69-.94-1.3-1.94-2-3,5-.73,25.11,2.47,33.77,11.15,1.1,1.1,3.83,1.46,3.53-.63-.24-1.64-3.56-6.2-4-6.82a55.58,55.58,0,0,0-19.66-18.22,7.57,7.57,0,0,1-1.29-1.11c.31-.28.38-.39.46-.4a4.24,4.24,0,0,1,1-.15c12-.08,24,.08,35.22,5.35,1,.49,2.33.87,2.85-.43A3.22,3.22,0,0,0,163.28,111.15Zm-36.09-6a67.32,67.32,0,0,0-8.49,1c-1.4.22-3,.61-3,2.46,0,1.62,1.4,2.11,2.66,2.53a41.41,41.41,0,0,1,14.13,8.3,99.21,99.21,0,0,1,8.15,9c-1-.41-2-.79-2.92-1.23A75.56,75.56,0,0,0,112.86,121a15.2,15.2,0,0,0-4.26.07,3.21,3.21,0,0,0-2.23,1.55c-.22.65.45,1.76,1,2.47,1.7,2.27,5,7.12,4.79,7.34-2.15-1.05-4.31-2.06-6.43-3.16-2.44-1.27-4.81-2.66-7.25-3.94a23.85,23.85,0,0,0-3.33-1.43c-3.67-1.3-5.41-.42-6.29,3.36-1,4.17-2,8.35-2.59,12.58A304.68,304.68,0,0,0,83,199.66c.5,9.87,1,19.77,2,29.59,1,9.26,2.23,18.57,5.69,27.36a1.67,1.67,0,0,1,0,.63c-3.39,2.89-8.9,4.19-14,3.1.17-2.18.19-4.46.53-6.69,1.83-11.83,1.42-23.66.51-35.54-1.4-18.21-2-36.46-.52-54.7.59-7.32,1.89-14.59,3-21.87q1-6.67,2.45-13.27c.39-1.78,1.41-3.41,2-5.16.3-.85.75-2.18.36-2.63a3.69,3.69,0,0,0-2.81-1.09,22.7,22.7,0,0,0-10.5,3.6c-2.62,1.78-5.22,3.59-8.14,5.6.15-.85,2.66-9.9,8.81-12.94,1.2-.6,2.53-1.22,2.16-2.87s-1.84-1.89-3.15-1.84a46.76,46.76,0,0,0-8.18.72,79.06,79.06,0,0,0-8.75,2.85,8.32,8.32,0,0,1-3.37.71,24.64,24.64,0,0,1,2.69-3c4.1-3.34,8.28-6.6,13.23-8.61a56.6,56.6,0,0,1,6.28-1.86c1.37-.36,3-.39,3-2.39,0-1.85-1.52-2.19-3-2.49-11.93-2.44-23.61-1.78-35,2.85a3.64,3.64,0,0,1-.66,0A11.28,11.28,0,0,1,39,97.86c9.38-9,20.28-13.7,33.53-11.57a6.37,6.37,0,0,0,1.63.18,2.11,2.11,0,0,0,2.21-2,2.08,2.08,0,0,0-.55-1.52,12.16,12.16,0,0,0-2.1-2.08A34,34,0,0,0,60.79,74.5c-.72-.2-1.44-.43-2.16-.64,7.58-2.58,15.12-2.6,22.44.81a18.27,18.27,0,0,1,3.49,2.42c2,1.6,3.26,1.52,5-.37a38,38,0,0,1,13.81-9.37c4.27-1.75,14.48-4.73,15.37-4.41a25,25,0,0,0-2.59,1.87c-2.47,2.33-4.92,4.69-7.3,7.12-.86.88-1.44,2-.54,3.27s2,1.17,3.26.82c16.28-4.56,38.28,5.8,39.63,7-.75.09-4.77-.18-5.52-.15a69.25,69.25,0,0,0-27.11,6.3c-1.24.58-3,.92-2.66,2.83s2.07,1.94,3.64,2.08c3,.26,5.92.5,8.85.91,9.13,1.29,16.57,6.18,23.84,11.4.13.09.11.38.22.79a107.14,107.14,0,0,0-25.27-2Z" transform="translate(-0.03)" style="fill:#474747"/><path d="M276.77,237.88c7.3.25,14.21.47,21.13.72q8.4.32,16.81.68a20.44,20.44,0,0,1,2.58.44c1.81.31,2.57,1.39,2.55,3.22,0,4.4.07,8.8,0,13.2,0,2.15-.83,2.92-2.95,3.17a9.69,9.69,0,0,1-1.32,0l-51.79-1.55a10,10,0,0,1-1.64-.09c-3.29-.34-3.65-.7-3.64-4.1q.06-54.12.18-108.24a12.68,12.68,0,0,1,.24-2.61c.67-3.12,1.14-3.56,4.42-3.66q25.23-.74,50.46-1.41a4.15,4.15,0,0,1,1.95.1c.66.37,1.55,1.09,1.58,1.7.22,4.38.44,8.78.29,13.16-.12,3.87-1.35,4.85-5.36,5-4.28.11-8.57.15-12.86.18-6.49,0-13,0-19.47.06-.64,0-1.28.09-2.32.16.21,9.67.43,19.19.65,29.15,1.36,0,2.62.14,3.87.13,8.25-.07,16.5-.18,24.75-.23,4,0,4.8.78,5,4.79a66.55,66.55,0,0,1,.18,6.92c-.17,3.56-.88,4.16-4.41,4.18-8.91,0-17.82,0-26.73.08-1.29,0-2.57.11-4,.18Zm37-96.52H311.1l-33,.66c-4.29.08-8.58.08-12.87.19-2.61.07-2.82.35-2.94,2.85v2q-.1,28.55-.24,57.07c-.08,15.51-.23,31-.34,46.52,0,3.52.31,3.95,3.23,4q24.57.6,49.14,1.13a13,13,0,0,0,2.16-.29l.08-12.42c-1.19-.12-2.15-.25-3.11-.3L279,241.2c-4.17-.19-5.5-1.47-5.53-5.58q-.12-15.18-.12-30.35c0-3.53,1.63-5.28,5.11-5.36,8.79-.2,17.59-.31,26.38-.47,1.27,0,2.53-.16,3.71-.23l.06-8.61h-3.87c-8.36,0-16.71,0-25.07-.06-3.37,0-4.5-1.16-4.69-4.52v-1c-.26-8.24-.51-16.48-.8-24.72-.2-5.56-.23-5.6,5.52-5.71q15.33-.27,30.67-.47H314c.67-4.41.25-8.41-.25-12.76Z" transform="translate(-0.03)" style="fill:#474747;stroke:#474747;stroke-miterlimit:10;stroke-width:2px"/><path d="M199.18,257.45c-3.63,0-7.46.15-11.26-.13-5.71-.42-6.16-.08-5.93-6.71q1.29-37.44,2.49-74.88c.37-11.21.73-22.43,1.16-33.64.17-4.55,1.08-5.43,5.56-5.4,8.47,0,16.94.12,25.4.3a35.21,35.21,0,0,1,5.87.86c9.1,1.81,15.08,7.5,18.47,15.8a40,40,0,0,1,2.3,23.63c-1.54,7.33-5.94,12.62-12.68,15.93-.69.34-1.36.72-2,1.1-.29.16-.55.36-1,.63.47,1.3.85,2.42,1.29,3.53q9.71,24.71,19.44,49.41a21.58,21.58,0,0,1,.93,2.47c.67,2.55-.12,4-2.77,4.55-3.44.76-6.92,1.28-10.36,2a2.75,2.75,0,0,1-3.07-1.39,17.13,17.13,0,0,1-1.54-3.27q-9.61-25.1-19.2-50.21c-.42-1.12-.89-2.22-1.38-3.43h-8.32c-.08,1-.21,2.06-.24,3.11q-.65,22.77-1.27,45.53C201,250.58,201.26,254,199.18,257.45Zm46.59-5.67c-.49-1.45-.84-2.57-1.26-3.67Q234.76,222.9,225,197.69c-1.81-4.68-1.81-4.7,2.76-6.9,7.17-3.45,11.7-9,12.46-17a51.33,51.33,0,0,0-.64-11.81c-1.49-10.62-8.44-20.48-21.93-21.25-8.45-.48-16.92-.53-25.38-.68a15.05,15.05,0,0,0-3,.23c-1.35,37.71-2.66,75.71-4,113.17a57,57,0,0,0,12.38.85v-3.94q.57-24.74,1.16-49.48c.14-5.72.46-6,6.08-5.74a31.4,31.4,0,0,0,3.63,0c4.27-.26,4.57-.12,6.09,3.81q10,25.82,20.07,51.63c.35.9.77,1.77,1.23,2.83Z" transform="translate(-0.03)" style="fill:#474747;stroke:#474747;stroke-miterlimit:10;stroke-width:2px"/><path d="M470.83,137.22c4.53-.09,9.45-.28,14.37-.24,2,0,2.85,1.83,3.7,3.38l14.34,26c.89,1.61,1.76,3.23,2.86,5.22.81-1.36,1.38-2.26,1.89-3.18l15.86-28.92a5.26,5.26,0,0,0,.77-1.44c.54-3.5,2.88-3.72,5.77-3.51,3.51.25,7,.09,10.55.21,2.93.09,3.74,1.33,2.7,4a17.34,17.34,0,0,1-1.07,2q-12.35,22.56-24.73,45.1a9.84,9.84,0,0,0-1.29,5q.09,33.48.09,67c0,.88.06,1.76,0,2.64-.17,1.85-.79,2.54-2.71,2.54-4.18,0-8.36,0-12.53-.24-3.25-.21-3.76-.92-3.8-4.08q-.44-33.15-.81-66.3a11.42,11.42,0,0,0-1.61-5.89C487,172.37,478.85,158.13,470.62,144,469.33,141.76,468.77,139.81,470.83,137.22ZM513.1,258.46V254.2c0-21.44.11-42.88.1-64.32a11.57,11.57,0,0,1,1.6-5.88q12-21.42,23.86-42.93c.45-.81.78-1.68,1.33-2.89l-11.6-.08c-.53.94-1.06,1.9-1.58,2.86L510,172.29a23.11,23.11,0,0,1-1.62,2.86c-1.42,2.1-2.12,2.19-3.76.33A19.87,19.87,0,0,1,502.2,172q-7-12.88-13.93-25.82c-3.23-6-3.22-6-9.95-5.84-1.78,0-3.56.18-5.6.29.41.88.57,1.29.78,1.67l24.06,41.31a5.63,5.63,0,0,0,1.11,1.62,4.18,4.18,0,0,1,1.35,3.54c.11,5.72.3,11.43.39,17.15q.4,24.39.76,48.8c0,1.16.18,2.32.29,3.7Z" transform="translate(-0.03)" style="fill:#474747;stroke:#474747;stroke-miterlimit:10;stroke-width:2px"/><path d="M422.24,156l-14.24.54c-2.19.08-4.39.17-6.59.2-1.27,0-2-.5-2.06-2-.23-4.38-.44-8.77-.92-13.13-.45-4.15,1.33-5.35,5-5.41,16-.28,32.09-.7,48.13-1.08,2.86-.07,5.71-.18,8.57-.27a16.68,16.68,0,0,1,2,0c3.25.3,4.51,1.67,4.63,5,.11,3,.27,5.93.34,8.9.08,3.63-.65,4.41-4.36,4.57-5.6.24-11.21.4-16.81.6-1.19.05-2.37.14-3.63.21.2,6.63.38,13,.57,19.35q.48,16.16,1,32.3c.46,16.16.88,32.31,1.4,48.46.22,6.83-1.18,6-5.44,6-3.4,0-6.8.36-10.2.41a26.89,26.89,0,0,1-4-.54C424.42,225.39,423.34,190.94,422.24,156Zm17.38-4.68c7.91-1.34,15.95-.65,23.67-1.75l.08-11-61.82,1.13c.47,4.8.89,9.14,1.33,13.63,1.52,0,2.71.08,3.9,0,4.72-.27,9.44-.6,14.16-.87a30.57,30.57,0,0,1,4.28,0c1.56.14,2.36,1.42,1.43,2.48-1.19,1.38-1,2.81-.95,4.31.48,13.19,1,26.38,1.47,39.57.64,19,1.19,38,1.8,57.07a9.92,9.92,0,0,0,.29,1.44c4.11.65,8-.29,12.19-.71v-3.46q-.24-9.72-.52-19.46c-.47-17.71-1-35.41-1.39-53.12-.18-9.65-.79-19.27.08-29.22Z" transform="translate(-0.03)" style="fill:#474747;stroke:#474747;stroke-miterlimit:10;stroke-width:2px"/><path d="M347.58,159l-14.78-.76-2.64-.09a2.46,2.46,0,0,1-2.69-2.22,1.88,1.88,0,0,1,0-.41c-.2-3.07-.51-6.14-.77-9.2-.11-1.32-.21-2.63-.29-3.94-.21-3.21,1.11-4.68,4.28-4.69h20.46q16.83.06,33.65.15a9,9,0,0,1,2.93.28,2.28,2.28,0,0,1,1.28,1.61c.21,4.15.26,8.3.35,12.46a15.14,15.14,0,0,1,0,1.65c-.31,2.94-1.41,4-4.39,4.12-4.72.24-9.44.47-14.16.73-1.19.07-2.37.27-3.79.44,0,3.24-.09,6.29-.06,9.33q.36,40.1.75,80.17c0,3.3,0,6.6-.13,9.89-.11,2.4-.7,3.08-2.94,3.08-4.94,0-9.89-.19-14.82-.38-1.26-.05-1.87-.77-1.87-2.18q-.07-48.49-.23-97C347.7,161.14,347.63,160.28,347.58,159Zm37.82-17.38-55.47-.38A74.66,74.66,0,0,0,331.06,155c2.46,0,4.65,0,6.85.06,3,.08,5.93.17,8.89.38,3.67.27,4.13.78,4.19,4.4.14,7.59.31,15.18.35,22.77q.23,35.79.36,71.59v3.43c4.38.81,8.46.53,12.53.56-.21-32.16-.43-63.84-.62-95.51a21.56,21.56,0,0,1,.24-3.93c.46-2.54.6-2.75,3.13-3,4.93-.46,9.87-.74,14.8-1.13,1.37-.11,2.73-.34,4.34-.55Z" transform="translate(-0.03)" style="fill:#474747;stroke:#474747;stroke-miterlimit:10;stroke-width:2px"/><path d="M135.52,181.35c-2-.15-3.94-.23-5.89-.48-1.21-.15-1.8-.85-1.77-2.27.17-6,.22-12,.26-18,0-3.08-.07-6.15-.05-9.22,0-3.64.94-4.72,4.45-4.46a127.93,127.93,0,0,1,16.32,1.83c7.17,1.46,14.11,6.51,14.07,16.93,0,5.09-2.15,8.81-6.71,11.17C150.06,180,143.7,181.38,135.52,181.35Zm-3.65-31.61-.2,27.63c8.55.79,16.68,0,24.13-4.56,2.59-1.58,3.52-4.12,3.56-7a13,13,0,0,0-10.44-13.42c-5.41-1.31-11-1.76-17-2.65Z" transform="translate(-0.03)" style="fill:#474747;stroke:#474747;stroke-miterlimit:10;stroke-width:2px"/><path d="M201.32,164.44c0-3.85,0-7.7.1-11.55.08-3,.59-3.43,3.58-3.27,3.73.2,7.45.52,11.18.79a6.67,6.67,0,0,1,1,.13c9.06,2.22,12.16,4.61,13,14.36.11,1.42.28,2.85.25,4.28-.08,5.81-3.11,9.86-8.88,11.07a82.94,82.94,0,0,1-11.13,1,39.57,39.57,0,0,1-4.62-.06c-2.94-.15-4.43-1.6-4.48-4.56-.06-4.06,0-8.13.06-12.2Zm3.52,13c4,0,7.93.1,11.87.06a17.23,17.23,0,0,0,3.57-.55c4.54-1.07,6.69-3.84,6.52-8.54a47.88,47.88,0,0,0-.71-6.55c-.47-2.55-1.5-4.79-4.09-6-5.31-2.49-10.91-2.9-17-2.7Z" transform="translate(-0.03)" style="fill:#474747;stroke:#474747;stroke-miterlimit:10;stroke-width:2px"/><path d="M486.8,50q0,7-6.59,9c-1.15.35-2.3.71-3.48,1a8.74,8.74,0,0,1-7.15-1.65c-4.16-3-6-9.71-4.07-14.52,1.86-4.64,6.49-6.7,11.48-5.65,2.64.56,5,1,6.78,3.35A13.6,13.6,0,0,1,486.8,50Zm-5-.23c0-4.19-3.16-7.44-7-7.27-3.52.16-5.31,2-5.32,5.4,0,3.92,2.66,7.26,5.76,7.18,4.39-.08,6.55-1.84,6.52-5.28Z" transform="translate(-0.03)" style="fill:#474747"/><path d="M549.63,62.45c-5-20-30.28-26.5-38.52-15.44a11.69,11.69,0,0,0-1.73,9c1.12,4.44,5.63,8.35,12.21,7.64,16-1.75,17,15,17.67,20,.56,4.14,2,5.69,5.13,5C548.48,87.86,553,75.86,549.63,62.45Z" transform="translate(-0.03)" style="fill:#f4ddea"/><path d="M544.29,103.76c-7.71.54-6.89,12.53.84,12S552,103.22,544.29,103.76Z" transform="translate(-0.03)" style="fill:#f4ddea"/><path d="M47.89,281.11c-16.33-7.62-17.72-30.35-6.87-35.58a10.11,10.11,0,0,1,8,0c3.62,1.69,6.23,6.2,4.53,11.73-4.14,13.46,10.08,17,14.26,18.46,3.45,1.17,4.54,2.67,3.47,5.23C69.87,284.32,58.83,286.21,47.89,281.11Z" transform="translate(-0.03)" style="fill:#f4ddea"/><polygon points="607.72 266.51 607.72 266.51 607.72 266.51 607.72 266.51" style="fill:#474747"/></g></g></svg>