<svg id="Layer_1" data-name="Layer 1" xmlns="http://www.w3.org/2000/svg" viewBox="0 0 440 435"><title>megaphone</title><g id="Layer_2" data-name="Layer 2"><g style="opacity:0.12"><path d="M403.19,23c-2.76,3.05-5.46,6.17-8.3,9.15C375.22,52.78,353.55,71.3,332.5,90.47c-4,3.66-4.79,6.51-1.82,11a68,68,0,0,1,5.61,11.23c1.2,2.85,3,3.6,5.79,2.85,14.52-3.91,29.27-6.72,44.05-9.41,2.3-.42,5.15-2,6.53,1,1.52,3.33-1.69,4.6-3.79,5.9-12.61,7.85-25.21,15.7-38,23.26-3.73,2.21-4.61,4.67-3.4,8.62a96.36,96.36,0,0,1,4,19.46c.4,4.19,2.3,5.88,6.74,6,20.6.75,41.22,1.26,61.7,4,1.8.24,3.85-.26,5.67,1.79-3.14,1.49-6.26,1.19-9.28,1.29-18.88.65-37.73-.62-56.6-1.05-5-.11-6.69,1.09-6.43,6.34.93,19.24-1,38.08-10.13,55.51-9,17.22-22.57,26.55-42.77,26.7-12.5.09-25,2.81-37.47,4.13-24.16,2.55-48.33,4.91-72.49,7.42-6.68.69-6.88,1.28-4.69,7.4,6.22,17.41,12.25,34.89,18.59,52.26,1.65,4.52.67,7-3.64,9.18-10,5-10.12,5.25-8.82,15.9,1.18,9.57-.16,18.81-2.61,28a15.17,15.17,0,0,1-5.34,8.16c-8.21,6.52-16.3,13.18-24.42,19.81a13.2,13.2,0,0,1-9.76,3c-11.44-.9-22.54-3.4-32.8-8.47-12.91-6.37-20.76-16.6-22.23-31.4-1-10-.3-19.89.07-29.84.43-11.88.62-23.76,1.08-35.63.17-4.33-1.07-6.43-5.89-6.2-7.76.37-15.27-1.31-22.63-3.78-5.25-1.76-10.24-4.33-16-4.6-2.76-.13-5.2-2-7.2-4C25,277.22,16.48,247.59,25.78,222c.59-1.62,1.18-3.57,2.41-4.57,6.21-5,9.65-12.31,15-18A28.09,28.09,0,0,1,57.36,191c10.71-2.61,21.16-6,31.56-9.66a31.08,31.08,0,0,0,12.17-7.83c32.63-33.1,66-65.39,100.69-96.39,6-5.36,12.32-10.32,18.42-15.55a35,35,0,0,0,5.1-5.22c12.7-16.8,32.45-21.67,51.85-13,18.93,8.46,32.62,22.45,43,40C324.06,90,324,90,329.8,84.77,351.42,65.46,372,45,395,27.24c2.33-1.8,4.73-3.5,7.1-5.24Z" transform="translate(0)" style="fill:#6a374f;stroke:#6a374f;stroke-linecap:round;stroke-linejoin:round;stroke-width:28px"/><path d="M261.44,51.45c-10.83.09-19.21,5.08-24.29,14.49-8.24,15.25-11.24,31.8-11.12,49,0,3.77,1.63,3.63,4.15,1.75a255.39,255.39,0,0,1,24.37-16.31,22,22,0,0,1,19.12-1.86,40.62,40.62,0,0,1,17.87,12.39c3.12,3.68,5.28,3.33,8.42.18,4.69-4.69,9.64-9.12,14.69-13.44,2.87-2.45,2.93-4.72.89-7.66C310,81.93,304.1,74.08,296.65,67.65,286.09,58.53,273.93,52.79,261.44,51.45ZM345.89,191c0-3.14-.15-6.3,0-9.43.24-4-1.34-5.7-5.41-5.74a168.55,168.55,0,0,1-17.26-.94c-5.1-.59-6.89.92-7.33,6.32-1.65,20.3-10.7,30.06-30.7,34-6.68,1.34-13.41,2.4-20.09,3.73-4.62.91-5.18,2.25-2.44,5.82C271.24,236,282,244.47,295.2,249.5c16.86,6.41,34.61-.91,42.08-17.37A96.67,96.67,0,0,0,345.89,191ZM247,135.46c.67,21.27,7.44,40.3,21.11,56.75,4.63,5.56,10,10.25,17,12.69,7.68,2.68,14.18.62,18.83-6.05,4-5.77,5.48-12.4,6-19.26.15-1.94.83-4.65-2.34-4.87-2.8-.2-3.1,2.2-3.54,4.3-3.32,15.71-15.25,19.73-27.24,9.07a60.8,60.8,0,0,1-16.44-24.57c-4.66-12.45-7.57-25.21-3.23-38.34,3.61-10.93,13.08-13.67,22.34-6.9a25.71,25.71,0,0,1,3.18,2.71c1.82,1.87,3.62,2.77,5.76.49,1.88-2,1.16-3.8-.43-5.52-4.18-4.52-8.72-8.55-14.53-10.91-9.43-3.82-17.28-1-22,8C247.82,120.07,246.73,127.62,247,135.46Zm14.57,1.83a72.39,72.39,0,0,0,11.54,36.38,38.3,38.3,0,0,0,12,12.2c2.83,1.76,5.85,2.6,8.77.32a10.69,10.69,0,0,0,4.11-9.76c-.49-3.94-4.46-2.15-6.95-2.69-1.91-.42-4-.58-4.6-2.8s1.16-3.43,2.75-4.57c8.73-6.22,8.75-6.23,6-16.63a40,40,0,0,0-1.92-5.41c-3.58-8.37-3.93-9.79-11.87-6-2.06,1-4.63,1.31-6.13-1s.58-3.86,1.93-5.39c.91-1,2-1.93,3-2.9s1.64-2.09.82-3.26a13.85,13.85,0,0,0-10-6c-3.36-.42-5.57,1.3-7.2,4.13-2.25,3.83-2.17,8.06-2.25,13.35ZM226.3,132c2.74,22,8.24,47.7,24.54,74.43,4.9,8,4.76,8.11,13.7,6.39,2.74-.53,5.51-1,8.24-1.53,1.47-.31,3.54,0,4-1.83s-1.51-2.51-2.73-3.38a60.67,60.67,0,0,1-15.2-15.74c-14.08-20.87-21-43.52-16.79-68.86.16-1,.75-2.16-.31-2.88s-2,0-2.85.65c-3.27,2.33-6.47,4.76-9.78,7C226.85,127.85,225.85,129.83,226.3,132Zm104.53,37.31v.38c3.14,0,6.28-.07,9.41,0,2.83.09,4.26-.93,4-4-.58-6.27-2.14-12.35-3.54-18.46-.82-3.62-2.76-3.79-5.66-1.9-5.11,3.34-10.21,6.74-15.61,9.56-4.6,2.39-4.65,5.61-3.72,10,1,4.69,4.42,3.57,7.32,3.88,2.57.34,5.19.4,7.8.56Zm-16-19c.79-.4,1.92-.85,2.95-1.48,5.19-3.17,10.35-6.38,15.53-9.57,1.77-1.09,4.22-2.09,3.47-4.57-1-3.4-1.27-7.32-4.42-9.74a3.45,3.45,0,0,0-2.49-.08c-6.9,1.75-13.78,3.61-20.69,5.37-2.34.6-3.17,1.74-2.22,4.15,1.85,4.68,3.55,9.42,5.29,14.14a2.34,2.34,0,0,0,2.62,1.77ZM304.5,125c7.58-1.94,15.16-3.84,22.71-5.85,2.39-.64,2.84-2.46,1.86-4.52-1.85-3.92-3.83-7.77-5.78-11.64-1.17-2.33-2.79-2.38-4.59-.75q-8.67,7.89-17.31,15.84c-1.22,1.12-2,2.51-1,4.17S302.28,125.3,304.5,125Zm2.34,27.49a74,74,0,0,0-6.32-17.16c-.85-1.66-2.18-2.71-4.24-1.56s-1.69,2.71-.85,4.41A105,105,0,0,1,302.08,154c.42,1.38,1.24,2.68,3,2.22s1.92-1.86,1.76-3.7Z" transform="translate(0)" style="fill:#6a374f"/><path d="M248.22,134.32c.67,21.26,7.44,40.3,21.11,56.74,4.63,5.57,10,10.25,17,12.7,7.68,2.68,14.18.62,18.83-6.06,4-5.76,5.48-12.39,6-19.25.15-1.95.83-4.65-2.34-4.88-2.8-.2-3.09,2.21-3.54,4.31C302,193.58,290,197.6,278,186.94a60.66,60.66,0,0,1-16.44-24.56c-4.66-12.45-7.57-25.22-3.23-38.35,3.61-10.93,13.08-13.66,22.34-6.89a24.88,24.88,0,0,1,3.18,2.71c1.82,1.87,3.62,2.77,5.76.48,1.88-2,1.16-3.79-.43-5.51-4.18-4.53-8.72-8.56-14.53-10.91-9.43-3.83-17.28-1-22,8C249.06,118.93,248,126.48,248.22,134.32Zm14.57,1.82a72.39,72.39,0,0,0,11.54,36.38,38.23,38.23,0,0,0,12,12.21c2.83,1.76,5.85,2.6,8.77.31a10.66,10.66,0,0,0,4.11-9.75c-.48-3.95-4.46-2.15-6.95-2.7-1.91-.42-4-.57-4.6-2.8s1.16-3.43,2.76-4.56c8.72-6.23,8.74-6.24,6-16.63a40.11,40.11,0,0,0-1.92-5.42c-3.58-8.37-3.93-9.78-11.87-6-2.06,1-4.63,1.31-6.13-1s.58-3.86,1.93-5.39c.91-1,2-1.93,3-2.91s1.64-2.09.82-3.26a13.81,13.81,0,0,0-10.05-5.87c-3.36-.42-5.57,1.3-7.2,4.13-2.21,3.75-2.13,7.93-2.21,13.26Zm-35.25-5.26c2.74,22.05,8.24,47.69,24.54,74.43,4.9,8,4.76,8.11,13.7,6.38,2.74-.53,5.51-.94,8.24-1.52,1.47-.31,3.54-.06,4-1.83s-1.51-2.52-2.73-3.38a61.16,61.16,0,0,1-15.2-15.74c-14.08-20.87-21-43.52-16.79-68.86.17-1,.75-2.16-.31-2.88s-2,0-2.85.65c-3.27,2.32-6.47,4.75-9.78,7-2.27,1.58-3.27,3.56-2.82,5.75Zm80.54,20.49a74,74,0,0,0-6.32-17.16c-.85-1.65-2.18-2.7-4.24-1.56s-1.69,2.72-.85,4.41a105.72,105.72,0,0,1,6.65,15.75c.42,1.37,1.24,2.68,3,2.21s1.9-1.8,1.76-3.65Z" transform="translate(0)" style="fill:#6a374f;stroke:#6a374f;stroke-miterlimit:10"/><path d="M34.17,241.68a102,102,0,0,0,3.29,20.77c6.39,24.91,24.91,38.71,50.32,37.48,3-.14,4.8-.87,4.09-4.27s1.59-4.64,3.87-6.09c6.59-4.18,6.52-4.16.25-8.57-21.82-15.33-32-36.16-29.71-62.94a52.57,52.57,0,0,1,6.06-19.85c.87-1.68,1.77-4.71-1.38-3.81-8.08,2.3-16.9,2.72-23.38,9.46C37.72,214.11,34.39,226.55,34.17,241.68Zm41.41-33c-11.1,16.74,4.23,59.32,23.1,64.93C79.79,256,74.45,233.92,75.58,208.68Z" transform="translate(0)" style="fill:#6a374f;stroke:#6a374f;stroke-miterlimit:10"/><path d="M291.58,255.35C257.52,237.62,242,206,230.37,172.27,218.7,138.39,217,103.63,229.19,69c-12.4,20.24-16,42.61-17,65.73a3.79,3.79,0,0,1-1.17-2.44A174.78,174.78,0,0,1,216.1,79.8c.44-1.81,2.26-4.2.55-5.32-2.08-1.36-3.59,1.42-5,2.7q-15.08,13.39-30,27c-26.4,24.2-51.58,49.65-77.22,74.65-4.57,4.46-9,9-11.25,15.48-5.89,17.43-3.56,34.09,3.67,50.42,2.15,4.86,5,9.42,7.5,14.12-7.42-4.77-11.27-12.37-16.33-19,3.78,13,10.37,24,22,31.59,6.34,4.13,12.89,6.15,20.78,5,14-2,28.14-3,42.23-4.4q51.38-5,102.75-10.15c1.79-.18,4.55.51,5-1.74s-2.42-2.62-4-3.53a91.11,91.11,0,0,1-19.48-15.79c-18.55-19.35-29.94-42.72-37.92-68-.89-2.81-3.18-5.71-.76-10.19,3.72,10.34,7.24,19.56,11.4,28.52,9.22,19.89,20.93,37.92,38.1,51.91C275,248.73,282.37,253.69,291.58,255.35Z" transform="translate(0)" style="fill:#6a374f;stroke:#6a374f;stroke-miterlimit:10"/><path d="M155.06,382.12a71,71,0,0,1,1.31,22.94c-.1,1.14-.62,2.59.81,3.27,1.14.54,1.92-.52,2.7-1.14q8.85-7,17.67-14a10.87,10.87,0,0,0,3.73-4.94c3.28-9.5,3.28-19.22,1.88-29-.5-3.45-2.3-5-5.86-3-8.54,4.59-7.51,2.07-9.63-4.5-.27-.83-.44-1.69-.66-2.54q-8-31.38-16.08-62.77c-.54-2.12-.76-4.71-4.13-4.26-3.59.47-3.79,3.15-3.82,5.82-.06,5.09,2.57,9.08,5.93,12.45,7.54,7.55,8.28,16,4.27,25.46a28,28,0,0,0-1.64,16.44c.38,2,1.29,4.22-.42,6.37-6.62-7.45-7.76-15.5-4-24.11,3.53-8.06,2.83-15.12-3.41-21.63a19.75,19.75,0,0,1-5.87-15.21c.23-3.65-1.37-4.15-4.66-4.28C121,283,111.52,289.26,101.75,295c-2,1.17-2.17,2.9-2.06,5,.9,17.47.24,34.92-.71,52.37-.54,9.93-1.2,19.86.25,29.81a30.59,30.59,0,0,0,13,21.22c7.34,5.31,15.68,8.35,24.42,10.43,11.49,2.74,11.15,2.68,13.56-8.8C151.87,397.36,151.82,389.42,155.06,382.12ZM184,342c-.69-2.19-1.55-5-2.46-7.82-5.47-16.69-10.67-33.47-16.84-49.93-1.09-2.91-2.81-4.28-6-3.5-3.69.91-2.64,3.56-2,5.85,1.2,4.54,2.66,9,3.88,13.54q6.4,23.69,12.72,47.38c.41,1.52.74,3.2,2.76,3.29S184,344.91,184,342Z" transform="translate(0)" style="fill:#6a374f"/><path d="M402,23c-2.76,3.05-5.46,6.17-8.3,9.15C374,52.78,352.37,71.3,331.32,90.47c-4,3.66-4.79,6.51-1.82,11a68,68,0,0,1,5.61,11.23c1.2,2.85,3,3.6,5.79,2.85,14.52-3.91,29.27-6.72,44.05-9.41,2.3-.42,5.14-2,6.52,1,1.52,3.33-1.68,4.6-3.78,5.9-12.61,7.85-25.21,15.7-38,23.26-3.73,2.21-4.61,4.67-3.4,8.62a96.36,96.36,0,0,1,4,19.46c.39,4.19,2.3,5.88,6.73,6,20.61.75,41.23,1.26,61.71,4,1.8.24,3.85-.26,5.67,1.79-3.14,1.49-6.26,1.19-9.28,1.29-18.88.65-37.73-.62-56.6-1.05-5-.11-6.69,1.09-6.43,6.34.93,19.24-1,38.08-10.13,55.51-9,17.22-22.57,26.55-42.77,26.7-12.5.09-25,2.81-37.47,4.13-24.16,2.55-48.33,4.91-72.49,7.42-6.68.69-6.88,1.28-4.69,7.4,6.22,17.41,12.25,34.89,18.59,52.26,1.65,4.52.67,7-3.64,9.18-10,5-10.12,5.25-8.82,15.9,1.18,9.57-.16,18.81-2.61,28a15.17,15.17,0,0,1-5.34,8.16c-8.21,6.52-16.31,13.18-24.42,19.81a13.2,13.2,0,0,1-9.76,3c-11.44-.9-22.54-3.4-32.8-8.47-12.91-6.37-20.76-16.6-22.23-31.4-1-10-.3-19.89.07-29.84.43-11.88.62-23.76,1.08-35.63.17-4.33-1.07-6.43-5.89-6.2-7.76.37-15.27-1.31-22.63-3.78-5.26-1.76-10.24-4.33-16-4.6-2.77-.13-5.2-2-7.2-4C23.82,277.22,15.3,247.59,24.6,222c.59-1.62,1.18-3.57,2.41-4.57,6.21-5,9.65-12.31,15-18A28.09,28.09,0,0,1,56.18,191c10.71-2.61,21.16-6,31.56-9.66a31.15,31.15,0,0,0,12.17-7.83C132.54,140.32,166,108,200.6,77c6-5.36,12.32-10.32,18.42-15.55a35,35,0,0,0,5.1-5.22C236.8,39.52,256.57,34.65,276,43.31c18.93,8.46,32.62,22.45,43,40,3.92,6.65,3.83,6.64,9.65,1.44,21.59-19.29,42.2-39.75,65.19-57.51,2.33-1.8,4.74-3.5,7.11-5.24ZM290,255.3c-34.06-17.73-49.62-49.4-61.22-83.09-11.67-33.88-13.35-68.64-1.18-103.28-12.4,20.23-16,42.61-17,65.73a3.76,3.76,0,0,1-1.17-2.45,174.57,174.57,0,0,1,5.07-52.46c.45-1.81,2.26-4.2.56-5.32-2.09-1.37-3.6,1.41-5,2.69q-15.09,13.41-30,27c-26.4,24.19-51.59,49.65-77.22,74.64-4.58,4.46-9,9-11.25,15.49C85.65,211.7,88,228.36,95.2,244.69c2.16,4.86,5,9.42,7.51,14.11-7.42-4.76-11.27-12.37-16.34-19,3.78,13,10.37,24,22,31.59,6.34,4.12,12.9,6.14,20.79,5,14-2,28.14-3,42.22-4.39l102.76-10.18c1.8-.18,4.56.5,5-1.74s-2.42-2.62-4-3.53a90.86,90.86,0,0,1-19.47-15.8c-18.56-19.34-30-42.71-37.92-68-.89-2.82-3.19-5.72-.77-10.2,3.72,10.34,7.25,19.56,11.41,28.53C237.6,211,249.32,229,266.49,243,273.39,248.67,280.73,253.64,290,255.3ZM155.71,381.67A71.31,71.31,0,0,1,157,404.61c-.1,1.13-.63,2.59.81,3.27,1.14.53,1.91-.52,2.7-1.14q8.85-7,17.66-14a10.86,10.86,0,0,0,3.74-4.95c3.28-9.49,3.27-19.21,1.87-29-.49-3.45-2.29-5-5.86-3.05-8.53,4.59-7.5,2.06-9.62-4.51-.27-.83-.44-1.68-.66-2.53q-8-31.4-16.08-62.77c-.55-2.12-.76-4.71-4.13-4.27-3.6.47-3.8,3.15-3.83,5.83,0,5.09,2.57,9.07,5.94,12.45,7.53,7.55,8.27,16,4.26,25.45a28,28,0,0,0-1.63,16.45c.38,2,1.28,4.22-.42,6.37-6.63-7.45-7.76-15.5-4-24.11,3.53-8.06,2.83-15.13-3.41-21.64a19.72,19.72,0,0,1-5.87-15.21c.23-3.65-1.37-4.14-4.66-4.28-12.16-.49-21.67,5.78-31.43,11.55-2,1.17-2.17,2.9-2.06,5,.89,17.47.23,34.92-.72,52.37-.54,9.93-1.19,19.85.26,29.81a30.67,30.67,0,0,0,13,21.22c7.35,5.3,15.69,8.34,24.42,10.43,11.5,2.74,11.15,2.67,13.57-8.81C152.52,396.91,152.47,389,155.71,381.67ZM261.45,51.36c-10.83.09-19.2,5.08-24.29,14.49-8.24,15.25-11.24,31.8-11.12,49,0,3.77,1.63,3.63,4.16,1.75a253.28,253.28,0,0,1,24.36-16.3,22,22,0,0,1,19.12-1.86,40.62,40.62,0,0,1,17.87,12.39c3.12,3.68,5.28,3.33,8.42.18,4.69-4.69,9.65-9.12,14.69-13.43,2.87-2.46,2.93-4.73.9-7.67C310,81.84,304.11,74,296.66,67.56,286.11,58.45,274,52.7,261.45,51.36ZM345.9,190.94c0-3.14-.15-6.3,0-9.43.24-4-1.34-5.7-5.41-5.74a168.55,168.55,0,0,1-17.26-.94c-5.1-.59-6.89.92-7.33,6.32-1.65,20.3-10.7,30.06-30.7,34.06-6.68,1.33-13.41,2.39-20.09,3.72-4.61.91-5.18,2.25-2.44,5.83,8.58,11.2,19.32,19.71,32.54,24.73,16.86,6.41,34.61-.91,42.08-17.37A96.63,96.63,0,0,0,345.9,190.94ZM34.25,242.2A102.32,102.32,0,0,0,37.53,263c6.39,24.91,24.91,38.71,50.33,37.48,3-.14,4.79-.87,4.09-4.28s1.58-4.64,3.86-6.08c6.59-4.18,6.52-4.16.25-8.57-21.81-15.34-32-36.16-29.71-62.94a52.75,52.75,0,0,1,6.07-19.86c.86-1.68,1.76-4.7-1.39-3.81-8.07,2.3-16.9,2.73-23.38,9.47C37.79,214.63,34.46,227.07,34.25,242.2ZM247,135.37c.67,21.27,7.45,40.3,21.11,56.75,4.63,5.56,10,10.25,17,12.69,7.68,2.69,14.19.62,18.83-6.05,4-5.77,5.48-12.39,6-19.26.14-1.94.82-4.65-2.34-4.87-2.81-.2-3.1,2.2-3.55,4.31-3.32,15.7-15.25,19.72-27.23,9.06a60.72,60.72,0,0,1-16.45-24.57c-4.66-12.45-7.57-25.21-3.23-38.34,3.61-10.93,13.08-13.67,22.34-6.9a25.71,25.71,0,0,1,3.18,2.71c1.82,1.87,3.63,2.77,5.76.49,1.88-2,1.16-3.8-.43-5.52-4.17-4.52-8.72-8.55-14.53-10.91-9.43-3.82-17.28-1-22,8C247.83,120,246.74,127.54,247,135.37Zm14.57,1.83a72.49,72.49,0,0,0,11.54,36.38,38.3,38.3,0,0,0,12,12.2c2.82,1.76,5.84,2.6,8.76.32a10.69,10.69,0,0,0,4.11-9.76c-.48-3.94-4.46-2.15-7-2.69-1.9-.42-4-.58-4.6-2.8s1.16-3.43,2.76-4.57c8.72-6.22,8.74-6.23,6-16.63a39.5,39.5,0,0,0-1.92-5.41c-3.58-8.37-3.93-9.79-11.86-6-2.07,1-4.64,1.31-6.14-1s.59-3.86,1.93-5.39c.92-1,2-1.93,3-2.9s1.64-2.09.83-3.26a13.92,13.92,0,0,0-10-5.88c-3.37-.42-5.57,1.3-7.21,4.13-2.26,3.74-2.18,7.93-2.26,13.26Zm-35.25-5.27c2.74,22,8.25,47.7,24.54,74.43,4.9,8,4.76,8.11,13.7,6.39,2.74-.53,5.51-.95,8.24-1.53,1.47-.31,3.54-.05,4-1.83s-1.51-2.51-2.73-3.38a61.16,61.16,0,0,1-15.2-15.74c-14.07-20.87-21-43.52-16.79-68.86.17-1,.75-2.16-.31-2.88s-2,0-2.85.65c-3.27,2.33-6.47,4.76-9.78,7-2.27,1.58-3.28,3.56-2.83,5.75ZM184.67,341.52c-.69-2.18-1.55-5-2.47-7.81-5.46-16.69-10.66-33.47-16.84-49.93-1.09-2.91-2.81-4.28-6-3.5-3.7.91-2.64,3.55-2,5.85,1.2,4.54,2.66,9,3.89,13.54q6.41,23.68,12.72,47.38c.41,1.52.74,3.2,2.76,3.29S184.67,344.46,184.67,341.52ZM330.84,169.24v.38c3.14,0,6.28-.07,9.41,0,2.84.09,4.26-.93,4-4-.58-6.27-2.15-12.35-3.54-18.46-.83-3.62-2.77-3.79-5.67-1.89-5.11,3.33-10.21,6.74-15.6,9.55-4.61,2.39-4.66,5.61-3.73,10,1,4.69,4.42,3.57,7.32,3.88C325.61,169,328.23,169.08,330.84,169.24Zm-16-19c.8-.4,1.92-.85,3-1.48,5.19-3.17,10.35-6.38,15.53-9.57,1.77-1.09,4.22-2.09,3.47-4.57-1-3.4-1.27-7.32-4.42-9.73a3.38,3.38,0,0,0-2.48-.09c-6.91,1.76-13.79,3.61-20.69,5.37-2.35.6-3.18,1.74-2.23,4.15,1.85,4.68,3.55,9.42,5.3,14.14a2.31,2.31,0,0,0,2.61,1.75ZM304.48,125c7.57-1.94,15.15-3.83,22.71-5.85,2.38-.64,2.83-2.46,1.86-4.52-1.86-3.92-3.84-7.77-5.79-11.64-1.17-2.33-2.79-2.38-4.58-.75Q310,110.07,301.4,118c-1.22,1.12-2,2.51-1,4.17s1.89,3,4.12,2.77ZM75.66,209.2c-11.11,16.73,4.23,59.32,23.09,64.92C79.87,256.47,74.53,234.44,75.66,209.2Zm292.67-91.5-.72-1.88c-8.66,1.69-17.46,3-25.71,6.17-4.45,1.72-.23,5.07,0,7.62.17,1.91,1.78,3.16,3.85,1.91,7.56-4.52,15.06-9.2,22.58-13.82Zm-61.48,34.73a73.38,73.38,0,0,0-6.32-17.16c-.85-1.66-2.18-2.71-4.24-1.56s-1.69,2.71-.85,4.41a105.6,105.6,0,0,1,6.65,15.74c.43,1.38,1.24,2.69,3,2.22S307,154.27,306.85,152.43Z" transform="translate(0)" style="fill:#6a374f"/><path d="M210.12,209.55c-31.53-76.45-10.82-85.72-28.69-85.66-6.63,0-30,26.44-36.79,32.36-5.35,4.69-24.87,18.39-18.7,25.59s28.45-10.62,36-12.22c14.38-3.06,21,4.07,28,17.56,2.46,4.77,5.69,23.41,10.78,26.32C204.06,215.4,212.19,217.52,210.12,209.55Z" transform="translate(0)" style="fill:#6a374f"/><path d="M223.06,235.48a55.24,55.24,0,0,1-6.53-12.37,5.26,5.26,0,0,0-6.31-3.58c-2.5.68-4.54,3.69-3.58,6.31a65.55,65.55,0,0,0,7.56,14.82,5.25,5.25,0,0,0,7,1.84C223.47,241.18,224.64,237.78,223.06,235.48Z" transform="translate(0)" style="fill:#6a374f"/><path d="M112.53,182.79c-6.61,0-6.62,10.27,0,10.27S119.14,182.79,112.53,182.79Z" transform="translate(0)" style="fill:#6a374f"/></g><g id="Layer_1-2" data-name="Layer 1-2"><path d="M395.19,15c-2.76,3.05-5.46,6.17-8.3,9.15C367.22,44.78,345.55,63.3,324.5,82.47c-4,3.66-4.79,6.51-1.82,11a68,68,0,0,1,5.61,11.23c1.2,2.85,3,3.6,5.79,2.85,14.52-3.91,29.27-6.72,44.05-9.41,2.3-.42,5.15-2,6.53,1,1.52,3.33-1.69,4.6-3.79,5.9-12.61,7.85-25.21,15.7-38,23.26-3.73,2.21-4.61,4.67-3.4,8.62a96.36,96.36,0,0,1,4,19.46c.4,4.19,2.3,5.88,6.74,6,20.6.75,41.22,1.26,61.7,4,1.8.24,3.85-.26,5.67,1.79-3.14,1.49-6.26,1.19-9.28,1.29-18.88.65-37.73-.62-56.6-1.05-5-.11-6.69,1.09-6.43,6.34.93,19.24-1,38.08-10.13,55.51-9,17.22-22.57,26.55-42.77,26.7-12.5.09-25,2.81-37.47,4.13-24.16,2.55-48.33,4.91-72.49,7.42-6.68.69-6.88,1.28-4.69,7.4,6.22,17.41,12.25,34.89,18.59,52.26,1.65,4.52.67,7-3.64,9.18-10,5-10.12,5.25-8.82,15.9,1.18,9.57-.16,18.81-2.61,28a15.17,15.17,0,0,1-5.34,8.16c-8.21,6.52-16.3,13.18-24.42,19.81a13.2,13.2,0,0,1-9.76,3c-11.44-.9-22.54-3.4-32.8-8.47-12.91-6.37-20.76-16.6-22.23-31.4-1-10-.3-19.89.07-29.84.43-11.88.62-23.76,1.08-35.63.17-4.33-1.07-6.43-5.89-6.2-7.76.37-15.27-1.31-22.63-3.78-5.25-1.76-10.24-4.33-16-4.6-2.76-.13-5.2-2-7.2-4C17,269.22,8.48,239.59,17.78,214c.59-1.62,1.18-3.57,2.41-4.57,6.21-5,9.65-12.31,15-18A28.09,28.09,0,0,1,49.36,183c10.71-2.61,21.16-6,31.56-9.66a31.08,31.08,0,0,0,12.17-7.83c32.63-33.1,66-65.39,100.69-96.39,6-5.36,12.32-10.32,18.42-15.55a35,35,0,0,0,5.1-5.22c12.7-16.8,32.45-21.67,51.85-13,18.93,8.46,32.62,22.45,43,40C316.06,82,316,82,321.8,76.77,343.42,57.46,364,37,387,19.24c2.33-1.8,4.73-3.5,7.1-5.24Z" transform="translate(0)" style="fill:#fff;stroke:#fff;stroke-linecap:round;stroke-linejoin:round;stroke-width:28px"/><path d="M253.44,43.45c-10.83.09-19.21,5.08-24.29,14.49-8.24,15.25-11.24,31.8-11.12,49,0,3.77,1.63,3.63,4.15,1.75a255.39,255.39,0,0,1,24.37-16.31,22,22,0,0,1,19.12-1.86,40.62,40.62,0,0,1,17.87,12.39c3.12,3.68,5.28,3.33,8.42.18,4.69-4.69,9.64-9.12,14.69-13.44,2.87-2.45,2.93-4.72.89-7.66C302,73.93,296.1,66.08,288.65,59.65,278.09,50.53,265.93,44.79,253.44,43.45ZM337.89,183c0-3.14-.15-6.3,0-9.43.24-4-1.34-5.7-5.41-5.74a168.55,168.55,0,0,1-17.26-.94c-5.1-.59-6.89.92-7.33,6.32-1.65,20.3-10.7,30.06-30.7,34-6.68,1.34-13.41,2.4-20.09,3.73-4.62.91-5.18,2.25-2.44,5.82C263.24,228,274,236.47,287.2,241.5c16.86,6.41,34.61-.91,42.08-17.37A96.67,96.67,0,0,0,337.89,183ZM239,127.46c.67,21.27,7.44,40.3,21.11,56.75,4.63,5.56,10,10.25,17,12.69,7.68,2.68,14.18.62,18.83-6.05,4-5.77,5.48-12.4,6-19.26.15-1.94.83-4.65-2.34-4.87-2.8-.2-3.1,2.2-3.54,4.3-3.32,15.71-15.25,19.73-27.24,9.07a60.8,60.8,0,0,1-16.44-24.57c-4.66-12.45-7.57-25.21-3.23-38.34,3.61-10.93,13.08-13.67,22.34-6.9a25.71,25.71,0,0,1,3.18,2.71c1.82,1.87,3.62,2.77,5.76.49,1.88-2,1.16-3.8-.43-5.52-4.18-4.52-8.72-8.55-14.53-10.91-9.43-3.82-17.28-1-22,8C239.82,112.07,238.73,119.62,239,127.46Zm14.57,1.83a72.39,72.39,0,0,0,11.54,36.38,38.3,38.3,0,0,0,12,12.2c2.83,1.76,5.85,2.6,8.77.32a10.69,10.69,0,0,0,4.11-9.76c-.49-3.94-4.46-2.15-6.95-2.69-1.91-.42-4-.58-4.6-2.8s1.16-3.43,2.75-4.57c8.73-6.22,8.75-6.23,6-16.63a40,40,0,0,0-1.92-5.41c-3.58-8.37-3.93-9.79-11.87-6-2.06,1-4.63,1.31-6.13-1s.58-3.86,1.93-5.39c.91-1,2-1.93,3-2.9s1.64-2.09.82-3.26a13.85,13.85,0,0,0-10-6c-3.36-.42-5.57,1.3-7.2,4.13-2.25,3.83-2.17,8.06-2.25,13.35ZM218.3,124c2.74,22,8.24,47.7,24.54,74.43,4.9,8,4.76,8.11,13.7,6.39,2.74-.53,5.51-1,8.24-1.53,1.47-.31,3.54,0,4-1.83s-1.51-2.51-2.73-3.38a60.67,60.67,0,0,1-15.2-15.74c-14.08-20.87-21-43.52-16.79-68.86.16-1,.75-2.16-.31-2.88s-2,0-2.85.65c-3.27,2.33-6.47,4.76-9.78,7C218.85,119.85,217.85,121.83,218.3,124Zm104.53,37.31v.38c3.14,0,6.28-.07,9.41,0,2.83.09,4.26-.93,4-4-.58-6.27-2.14-12.35-3.54-18.46-.82-3.62-2.76-3.79-5.66-1.9-5.11,3.34-10.21,6.74-15.61,9.56-4.6,2.39-4.65,5.61-3.72,10,1,4.69,4.42,3.57,7.32,3.88,2.57.34,5.19.4,7.8.56Zm-16-19c.79-.4,1.92-.85,2.95-1.48,5.19-3.17,10.35-6.38,15.53-9.57,1.77-1.09,4.22-2.09,3.47-4.57-1-3.4-1.27-7.32-4.42-9.74a3.45,3.45,0,0,0-2.49-.08c-6.9,1.75-13.78,3.61-20.69,5.37-2.34.6-3.17,1.74-2.22,4.15,1.85,4.68,3.55,9.42,5.29,14.14a2.34,2.34,0,0,0,2.62,1.77ZM296.5,117c7.58-1.94,15.16-3.84,22.71-5.85,2.39-.64,2.84-2.46,1.86-4.52-1.85-3.92-3.83-7.77-5.78-11.64-1.17-2.33-2.79-2.38-4.59-.75q-8.67,7.89-17.31,15.84c-1.22,1.12-2,2.51-1,4.17S294.28,117.3,296.5,117Zm2.34,27.49a74,74,0,0,0-6.32-17.16c-.85-1.66-2.18-2.71-4.24-1.56s-1.69,2.71-.85,4.41A105,105,0,0,1,294.08,146c.42,1.38,1.24,2.68,3,2.22s1.92-1.86,1.76-3.7Z" transform="translate(0)" style="fill:#e077bd"/><path d="M240.22,126.32c.67,21.26,7.44,40.3,21.11,56.74,4.63,5.57,10,10.25,17,12.7,7.68,2.68,14.18.62,18.83-6.06,4-5.76,5.48-12.39,6-19.25.15-1.95.83-4.65-2.34-4.88-2.8-.2-3.09,2.21-3.54,4.31C294,185.58,282,189.6,270,178.94a60.66,60.66,0,0,1-16.44-24.56c-4.66-12.45-7.57-25.22-3.23-38.35,3.61-10.93,13.08-13.66,22.34-6.89a24.88,24.88,0,0,1,3.18,2.71c1.82,1.87,3.62,2.77,5.76.48,1.88-2,1.16-3.79-.43-5.51-4.18-4.53-8.72-8.56-14.53-10.91-9.43-3.83-17.28-1-22,8C241.06,110.93,240,118.48,240.22,126.32Zm14.57,1.82a72.39,72.39,0,0,0,11.54,36.38,38.23,38.23,0,0,0,12,12.21c2.83,1.76,5.85,2.6,8.77.31a10.66,10.66,0,0,0,4.11-9.75c-.48-3.95-4.46-2.15-6.95-2.7-1.91-.42-4-.57-4.6-2.8s1.16-3.43,2.76-4.56c8.72-6.23,8.74-6.24,6-16.63a40.11,40.11,0,0,0-1.92-5.42c-3.58-8.37-3.93-9.78-11.87-6-2.06,1-4.63,1.31-6.13-1s.58-3.86,1.93-5.39c.91-1,2-1.93,3-2.91s1.64-2.09.82-3.26a13.81,13.81,0,0,0-10.05-5.87c-3.36-.42-5.57,1.3-7.2,4.13-2.21,3.75-2.13,7.93-2.21,13.26Zm-35.25-5.26c2.74,22.05,8.24,47.69,24.54,74.43,4.9,8,4.76,8.11,13.7,6.38,2.74-.53,5.51-.94,8.24-1.52,1.47-.31,3.54-.06,4-1.83s-1.51-2.52-2.73-3.38a61.16,61.16,0,0,1-15.2-15.74c-14.08-20.87-21-43.52-16.79-68.86.17-1,.75-2.16-.31-2.88s-2,0-2.85.65c-3.27,2.32-6.47,4.75-9.78,7-2.27,1.58-3.27,3.56-2.82,5.75Zm80.54,20.49a74,74,0,0,0-6.32-17.16c-.85-1.65-2.18-2.7-4.24-1.56s-1.69,2.72-.85,4.41a105.72,105.72,0,0,1,6.65,15.75c.42,1.37,1.24,2.68,3,2.21s1.9-1.8,1.76-3.65Z" transform="translate(0)" style="fill:#c683dd;stroke:#c683dd;stroke-miterlimit:10"/><path d="M26.17,233.68a102,102,0,0,0,3.29,20.77c6.39,24.91,24.91,38.71,50.32,37.48,3-.14,4.8-.87,4.09-4.27s1.59-4.64,3.87-6.09c6.59-4.18,6.52-4.16.25-8.57-21.82-15.33-32-36.16-29.71-62.94a52.57,52.57,0,0,1,6.06-19.85c.87-1.68,1.77-4.71-1.38-3.81-8.08,2.3-16.9,2.72-23.38,9.46C29.72,206.11,26.39,218.55,26.17,233.68Zm41.41-33c-11.1,16.74,4.23,59.32,23.1,64.93C71.79,248,66.45,225.92,67.58,200.68Z" transform="translate(0)" style="fill:#c683dd;stroke:#c683dd;stroke-miterlimit:10"/><path d="M283.58,247.35C249.52,229.62,234,198,222.37,164.27,210.7,130.39,209,95.63,221.19,61c-12.4,20.24-16,42.61-17,65.73a3.79,3.79,0,0,1-1.17-2.44A174.78,174.78,0,0,1,208.1,71.8c.44-1.81,2.26-4.2.55-5.32-2.08-1.36-3.59,1.42-5,2.7q-15.08,13.39-30,27c-26.4,24.2-51.58,49.65-77.22,74.65-4.57,4.46-9,9-11.25,15.48-5.89,17.43-3.56,34.09,3.67,50.42,2.15,4.86,5,9.42,7.5,14.12-7.42-4.77-11.27-12.37-16.33-19,3.78,13,10.37,24,22,31.59,6.34,4.13,12.89,6.15,20.78,5,14-2,28.14-3,42.23-4.4q51.38-5,102.75-10.15c1.79-.18,4.55.51,5-1.74s-2.42-2.62-4-3.53a91.11,91.11,0,0,1-19.48-15.79c-18.55-19.35-29.94-42.72-37.92-68-.89-2.81-3.18-5.71-.76-10.19,3.72,10.34,7.24,19.56,11.4,28.52,9.22,19.89,20.93,37.92,38.1,51.91C267,240.73,274.37,245.69,283.58,247.35Z" transform="translate(0)" style="fill:#eab9e5;stroke:#eab9e5;stroke-miterlimit:10"/><path d="M147.06,374.12a71,71,0,0,1,1.31,22.94c-.1,1.14-.62,2.59.81,3.27,1.14.54,1.92-.52,2.7-1.14q8.85-7,17.67-14a10.87,10.87,0,0,0,3.73-4.94c3.28-9.5,3.28-19.22,1.88-29-.5-3.45-2.3-5-5.86-3-8.54,4.59-7.51,2.07-9.63-4.5-.27-.83-.44-1.69-.66-2.54q-8-31.38-16.08-62.77c-.54-2.12-.76-4.71-4.13-4.26-3.59.47-3.79,3.15-3.82,5.82-.06,5.09,2.57,9.08,5.93,12.45,7.54,7.55,8.28,16,4.27,25.46a28,28,0,0,0-1.64,16.44c.38,2,1.29,4.22-.42,6.37-6.62-7.45-7.76-15.5-4-24.11,3.53-8.06,2.83-15.12-3.41-21.63a19.75,19.75,0,0,1-5.87-15.21c.23-3.65-1.37-4.15-4.66-4.28C113,275,103.52,281.26,93.75,287c-2,1.17-2.17,2.9-2.06,5,.9,17.47.24,34.92-.71,52.37-.54,9.93-1.2,19.86.25,29.81a30.59,30.59,0,0,0,13,21.22c7.34,5.31,15.68,8.35,24.42,10.43,11.49,2.74,11.15,2.68,13.56-8.8C143.87,389.36,143.82,381.42,147.06,374.12ZM176,334c-.69-2.19-1.55-5-2.46-7.82-5.47-16.69-10.67-33.47-16.84-49.93-1.09-2.91-2.81-4.28-6-3.5-3.69.91-2.64,3.56-2,5.85,1.2,4.54,2.66,9,3.88,13.54q6.4,23.69,12.72,47.38c.41,1.52.74,3.2,2.76,3.29S176,336.91,176,334Z" transform="translate(0)" style="fill:#e077bd"/><path d="M394,15c-2.76,3.05-5.46,6.17-8.3,9.15C366,44.78,344.37,63.3,323.32,82.47c-4,3.66-4.79,6.51-1.82,11a68,68,0,0,1,5.61,11.23c1.2,2.85,3,3.6,5.79,2.85,14.52-3.91,29.27-6.72,44.05-9.41,2.3-.42,5.14-2,6.52,1,1.52,3.33-1.68,4.6-3.78,5.9-12.61,7.85-25.21,15.7-38,23.26-3.73,2.21-4.61,4.67-3.4,8.62a96.36,96.36,0,0,1,4,19.46c.39,4.19,2.3,5.88,6.73,6,20.61.75,41.23,1.26,61.71,4,1.8.24,3.85-.26,5.67,1.79-3.14,1.49-6.26,1.19-9.28,1.29-18.88.65-37.73-.62-56.6-1.05-5-.11-6.69,1.09-6.43,6.34.93,19.24-1,38.08-10.13,55.51-9,17.22-22.57,26.55-42.77,26.7-12.5.09-25,2.81-37.47,4.13-24.16,2.55-48.33,4.91-72.49,7.42-6.68.69-6.88,1.28-4.69,7.4,6.22,17.41,12.25,34.89,18.59,52.26,1.65,4.52.67,7-3.64,9.18-10,5-10.12,5.25-8.82,15.9,1.18,9.57-.16,18.81-2.61,28a15.17,15.17,0,0,1-5.34,8.16c-8.21,6.52-16.31,13.18-24.42,19.81a13.2,13.2,0,0,1-9.76,3c-11.44-.9-22.54-3.4-32.8-8.47-12.91-6.37-20.76-16.6-22.23-31.4-1-10-.3-19.89.07-29.84.43-11.88.62-23.76,1.08-35.63.17-4.33-1.07-6.43-5.89-6.2-7.76.37-15.27-1.31-22.63-3.78-5.26-1.76-10.24-4.33-16-4.6-2.77-.13-5.2-2-7.2-4C15.82,269.22,7.3,239.59,16.6,214c.59-1.62,1.18-3.57,2.41-4.57,6.21-5,9.65-12.31,15-18A28.09,28.09,0,0,1,48.18,183c10.71-2.61,21.16-6,31.56-9.66a31.15,31.15,0,0,0,12.17-7.83C124.54,132.32,158,100,192.6,69c6-5.36,12.32-10.32,18.42-15.55a35,35,0,0,0,5.1-5.22C228.8,31.52,248.57,26.65,268,35.31c18.93,8.46,32.62,22.45,43,40,3.92,6.65,3.83,6.64,9.65,1.44,21.59-19.29,42.2-39.75,65.19-57.51,2.33-1.8,4.74-3.5,7.11-5.24ZM282,247.3c-34.06-17.73-49.62-49.4-61.22-83.09-11.67-33.88-13.35-68.64-1.18-103.28-12.4,20.23-16,42.61-17,65.73a3.76,3.76,0,0,1-1.17-2.45,174.57,174.57,0,0,1,5.07-52.46c.45-1.81,2.26-4.2.56-5.32-2.09-1.37-3.6,1.41-5,2.69q-15.09,13.41-30,27c-26.4,24.19-51.59,49.65-77.22,74.64-4.58,4.46-9,9-11.25,15.49C77.65,203.7,80,220.36,87.2,236.69c2.16,4.86,5,9.42,7.51,14.11-7.42-4.76-11.27-12.37-16.34-19,3.78,13,10.37,24,22,31.59,6.34,4.12,12.9,6.14,20.79,5,14-2,28.14-3,42.22-4.39l102.76-10.18c1.8-.18,4.56.5,5-1.74s-2.42-2.62-4-3.53a90.86,90.86,0,0,1-19.47-15.8c-18.56-19.34-30-42.71-37.92-68-.89-2.82-3.19-5.72-.77-10.2,3.72,10.34,7.25,19.56,11.41,28.53C229.6,203,241.32,221,258.49,235,265.39,240.67,272.73,245.64,282,247.3ZM147.71,373.67A71.31,71.31,0,0,1,149,396.61c-.1,1.13-.63,2.59.81,3.27,1.14.53,1.91-.52,2.7-1.14q8.85-7,17.66-14a10.86,10.86,0,0,0,3.74-4.95c3.28-9.49,3.27-19.21,1.87-29-.49-3.45-2.29-5-5.86-3.05-8.53,4.59-7.5,2.06-9.62-4.51-.27-.83-.44-1.68-.66-2.53q-8-31.4-16.08-62.77c-.55-2.12-.76-4.71-4.13-4.27-3.6.47-3.8,3.15-3.83,5.83,0,5.09,2.57,9.07,5.94,12.45,7.53,7.55,8.27,16,4.26,25.45a28,28,0,0,0-1.63,16.45c.38,2,1.28,4.22-.42,6.37-6.63-7.45-7.76-15.5-4-24.11,3.53-8.06,2.83-15.13-3.41-21.64a19.72,19.72,0,0,1-5.87-15.21c.23-3.65-1.37-4.14-4.66-4.28-12.16-.49-21.67,5.78-31.43,11.55-2,1.17-2.17,2.9-2.06,5,.89,17.47.23,34.92-.72,52.37-.54,9.93-1.19,19.85.26,29.81a30.67,30.67,0,0,0,13,21.22c7.35,5.3,15.69,8.34,24.42,10.43,11.5,2.74,11.15,2.67,13.57-8.81C144.52,388.91,144.47,381,147.71,373.67ZM253.45,43.36c-10.83.09-19.2,5.08-24.29,14.49-8.24,15.25-11.24,31.8-11.12,49,0,3.77,1.63,3.63,4.16,1.75a253.28,253.28,0,0,1,24.36-16.3,22,22,0,0,1,19.12-1.86,40.62,40.62,0,0,1,17.87,12.39c3.12,3.68,5.28,3.33,8.42.18,4.69-4.69,9.65-9.12,14.69-13.43,2.87-2.46,2.93-4.73.9-7.67C302,73.84,296.11,66,288.66,59.56,278.11,50.45,266,44.7,253.45,43.36ZM337.9,182.94c0-3.14-.15-6.3,0-9.43.24-4-1.34-5.7-5.41-5.74a168.55,168.55,0,0,1-17.26-.94c-5.1-.59-6.89.92-7.33,6.32-1.65,20.3-10.7,30.06-30.7,34.06-6.68,1.33-13.41,2.39-20.09,3.72-4.61.91-5.18,2.25-2.44,5.83,8.58,11.2,19.32,19.71,32.54,24.73,16.86,6.41,34.61-.91,42.08-17.37A96.63,96.63,0,0,0,337.9,182.94ZM26.25,234.2A102.32,102.32,0,0,0,29.53,255c6.39,24.91,24.91,38.71,50.33,37.48,3-.14,4.79-.87,4.09-4.28s1.58-4.64,3.86-6.08c6.59-4.18,6.52-4.16.25-8.57-21.81-15.34-32-36.16-29.71-62.94a52.75,52.75,0,0,1,6.07-19.86c.86-1.68,1.76-4.7-1.39-3.81-8.07,2.3-16.9,2.73-23.38,9.47C29.79,206.63,26.46,219.07,26.25,234.2ZM239,127.37c.67,21.27,7.45,40.3,21.11,56.75,4.63,5.56,10,10.25,17,12.69,7.68,2.69,14.19.62,18.83-6.05,4-5.77,5.48-12.39,6-19.26.14-1.94.82-4.65-2.34-4.87-2.81-.2-3.1,2.2-3.55,4.31-3.32,15.7-15.25,19.72-27.23,9.06a60.72,60.72,0,0,1-16.45-24.57c-4.66-12.45-7.57-25.21-3.23-38.34,3.61-10.93,13.08-13.67,22.34-6.9a25.71,25.71,0,0,1,3.18,2.71c1.82,1.87,3.63,2.77,5.76.49,1.88-2,1.16-3.8-.43-5.52-4.17-4.52-8.72-8.55-14.53-10.91-9.43-3.82-17.28-1-22,8C239.83,112,238.74,119.54,239,127.37Zm14.57,1.83a72.49,72.49,0,0,0,11.54,36.38,38.3,38.3,0,0,0,12,12.2c2.82,1.76,5.84,2.6,8.76.32a10.69,10.69,0,0,0,4.11-9.76c-.48-3.94-4.46-2.15-7-2.69-1.9-.42-4-.58-4.6-2.8s1.16-3.43,2.76-4.57c8.72-6.22,8.74-6.23,6-16.63a39.5,39.5,0,0,0-1.92-5.41c-3.58-8.37-3.93-9.79-11.86-6-2.07,1-4.64,1.31-6.14-1s.59-3.86,1.93-5.39c.92-1,2-1.93,3-2.9s1.64-2.09.83-3.26a13.92,13.92,0,0,0-10-5.88c-3.37-.42-5.57,1.3-7.21,4.13-2.26,3.74-2.18,7.93-2.26,13.26Zm-35.25-5.27c2.74,22,8.25,47.7,24.54,74.43,4.9,8,4.76,8.11,13.7,6.39,2.74-.53,5.51-.95,8.24-1.53,1.47-.31,3.54-.05,4-1.83s-1.51-2.51-2.73-3.38a61.16,61.16,0,0,1-15.2-15.74c-14.07-20.87-21-43.52-16.79-68.86.17-1,.75-2.16-.31-2.88s-2,0-2.85.65c-3.27,2.33-6.47,4.76-9.78,7-2.27,1.58-3.28,3.56-2.83,5.75ZM176.67,333.52c-.69-2.18-1.55-5-2.47-7.81-5.46-16.69-10.66-33.47-16.84-49.93-1.09-2.91-2.81-4.28-6-3.5-3.7.91-2.64,3.55-2,5.85,1.2,4.54,2.66,9,3.89,13.54q6.41,23.68,12.72,47.38c.41,1.52.74,3.2,2.76,3.29S176.67,336.46,176.67,333.52ZM322.84,161.24v.38c3.14,0,6.28-.07,9.41,0,2.84.09,4.26-.93,4-4-.58-6.27-2.15-12.35-3.54-18.46-.83-3.62-2.77-3.79-5.67-1.89-5.11,3.33-10.21,6.74-15.6,9.55-4.61,2.39-4.66,5.61-3.73,10,1,4.69,4.42,3.57,7.32,3.88C317.61,161,320.23,161.08,322.84,161.24Zm-16-19c.8-.4,1.92-.85,3-1.48,5.19-3.17,10.35-6.38,15.53-9.57,1.77-1.09,4.22-2.09,3.47-4.57-1-3.4-1.27-7.32-4.42-9.73a3.38,3.38,0,0,0-2.48-.09c-6.91,1.76-13.79,3.61-20.69,5.37-2.35.6-3.18,1.74-2.23,4.15,1.85,4.68,3.55,9.42,5.3,14.14a2.31,2.31,0,0,0,2.61,1.75ZM296.48,117c7.57-1.94,15.15-3.83,22.71-5.85,2.38-.64,2.83-2.46,1.86-4.52-1.86-3.92-3.84-7.77-5.79-11.64-1.17-2.33-2.79-2.38-4.58-.75Q302,102.07,293.4,110c-1.22,1.12-2,2.51-1,4.17s1.89,3,4.12,2.77ZM67.66,201.2c-11.11,16.73,4.23,59.32,23.09,64.92C71.87,248.47,66.53,226.44,67.66,201.2Zm292.67-91.5-.72-1.88c-8.66,1.69-17.46,3-25.71,6.17-4.45,1.72-.23,5.07,0,7.62.17,1.91,1.78,3.16,3.85,1.91,7.56-4.52,15.06-9.2,22.58-13.82Zm-61.48,34.73a73.38,73.38,0,0,0-6.32-17.16c-.85-1.66-2.18-2.71-4.24-1.56s-1.69,2.71-.85,4.41a105.6,105.6,0,0,1,6.65,15.74c.43,1.38,1.24,2.69,3,2.22S299,146.27,298.85,144.43Z" transform="translate(0)" style="fill:#474747"/><path d="M202.12,201.55c-31.53-76.45-10.82-85.72-28.69-85.66-6.63,0-30,26.44-36.79,32.36-5.35,4.69-24.87,18.39-18.7,25.59s28.45-10.62,36-12.22c14.38-3.06,21,4.07,28,17.56,2.46,4.77,5.69,23.41,10.78,26.32C196.06,207.4,204.19,209.52,202.12,201.55Z" transform="translate(0)" style="fill:#f4ddea"/><path d="M215.06,227.48a55.24,55.24,0,0,1-6.53-12.37,5.26,5.26,0,0,0-6.31-3.58c-2.5.68-4.54,3.69-3.58,6.31a65.55,65.55,0,0,0,7.56,14.82,5.25,5.25,0,0,0,7,1.84C215.47,233.18,216.64,229.78,215.06,227.48Z" transform="translate(0)" style="fill:#f4ddea"/><path d="M104.53,174.79c-6.61,0-6.62,10.27,0,10.27S111.14,174.79,104.53,174.79Z" transform="translate(0)" style="fill:#f4ddea"/></g></g></svg>