<svg id="Layer_1" data-name="Layer 1" xmlns="http://www.w3.org/2000/svg" viewBox="0 0 444 310"><title>nut-cracked-flat</title><g id="Page-1"><g style="opacity:0.12"><path id="Shape" d="M234.49,162.84c7,.75,14.24.77,20.33,5.23a1.29,1.29,0,0,0,1.48.22c-7.07-11.76-18.31-17.81-30.8-22.06.58-1.09,1.47-.83,2.19-1a95.11,95.11,0,0,0,26.94-9.14c4.65-2.49,8.44-5.94,10.54-11.55a64.26,64.26,0,0,1-25,2.68c-8.53-.74-16.61-3.24-25.44-5.84a21.92,21.92,0,0,0,7-3.9,50.62,50.62,0,0,0,16.7-26C240,86,240,80.37,239.78,74.75c0-1.06-.08-2.6-1.24-2.89-.92-.23-1.22,1.22-1.66,2a39.68,39.68,0,0,1-10.77,12.8c-7,5.2-14.88,8.73-22.75,12.41-.3.14-.64.27-.93-.17a3.77,3.77,0,0,1,.23-.64c7.72-12.86,8.5-25.89.9-39.12C200.49,53.8,196.3,50,190,48.74c.14,1.54,1.18,2.63,1.88,3.88a16.31,16.31,0,0,1-2.5,19.2c-5.76,6.14-13,6.59-20.63,5.72-5.7-.66-11.18-2.37-16.7-3.78C113.58,64,78.83,72.59,47,95.23c-11.62,8.3-19.54,19.39-22.76,33.42-3.94,17.06-2.44,33.93,3.22,50.43C32.37,193.45,39.16,206.6,51,216.73c13.3,11.38,28.35,17.69,46.05,15.73s33.4-9.58,46.75-21.4c11.32-10,22-20.81,33.87-30.25C194.33,167.51,212.91,160.52,234.49,162.84Z" transform="translate(-0.07 -0.45)" style="fill:#6a374f;stroke:#6a374f;stroke-linecap:round;stroke-linejoin:round;stroke-width:28px"/><path id="Shape-2" data-name="Shape" d="M354.05,102.46a38.8,38.8,0,0,1-6.31,11.26,37.91,37.91,0,0,0-8.52,19.77c-.3,2.27-.9,2.28-2.59.88a70.38,70.38,0,0,0-26.24-13.55c7.58,8.35,9.35,19.25,13.28,29.3a7,7,0,0,1-1.12-.07c-9.84-2.7-19.65-5.57-28.75-10.36-.48-.28-1-.84-1.62-.28s-.29,1.13,0,1.69c.73,1.66,1.42,3.35,2.26,5,3.67,7,7.8,13.74,10,21.36.24.84,1.26,1.82.33,2.57-.74.58-1.57-.43-2.27-.85-10.79-6.32-22.28-4.78-34-3.12.48,1.17,1.23,1.21,1.79,1.57,3.36,2.17,6.86,4.11,9.64,7,6.91,7.18,10,16.07,11.26,25.71a101.83,101.83,0,0,1-.06,22.82,83.13,83.13,0,0,0,3,32.63c5.16,16.69,14.88,29.88,30.95,37.19,19.18,8.77,38.74,9.13,57.81-1,26.28-13.91,43.65-34.74,49.22-64.45,2.16-11.53,2.45-23.11-1.63-34.37C423.33,173.5,409.15,160.34,391,151c-6.39-3.3-13.17-5.81-19.25-9.71-11.58-7.41-17.36-17.94-16.93-31.82a82.42,82.42,0,0,1,1-9C354.51,100.76,354.34,101.65,354.05,102.46Z" transform="translate(-0.07 -0.45)" style="fill:#6a374f;stroke:#6a374f;stroke-linecap:round;stroke-linejoin:round;stroke-width:20px"/><path id="Shape-3" data-name="Shape" d="M291,22.89c-10.36,26.63-18,58.1-16.19,66.24C280.9,81.76,292.22,35.88,291,22.89Z" transform="translate(-0.07 -0.45)" style="fill:#6a374f;stroke:#6a374f;stroke-linecap:round;stroke-linejoin:round;stroke-width:18px"/><path id="Shape-4" data-name="Shape" d="M258.42,67.49c-.82-12.09-2.24-24.11-3.79-36.14-.54-4.22-1.27-8.4-2-12.6-.08-.51.06-1.42-.82-1.29-.52.08-.44.85-.5,1.34,0,11.94.19,23.87.75,35.79q.3,6,.69,12a81.86,81.86,0,0,0,4.13,19.13A69.41,69.41,0,0,0,258.42,67.49Z" transform="translate(-0.07 -0.45)" style="fill:#6a374f;stroke:#6a374f;stroke-linecap:round;stroke-linejoin:round;stroke-width:18px"/><path id="Shape-5" data-name="Shape" d="M295.56,84.45c14.74-9.53,23.59-24.07,32.95-38.18C315.9,57.59,302.82,68.53,295.56,84.45Z" transform="translate(-0.07 -0.45)" style="fill:#6a374f;stroke:#6a374f;stroke-linecap:round;stroke-linejoin:round;stroke-width:18px"/><path id="Shape-6" data-name="Shape" d="M305.19,97.4c.73,1.45,3,.33,4.48-.23a197.13,197.13,0,0,0,34.7-17.39c1.92-1.2,4.29-2,5.7-4.59-15.07,4.43-28.76,11.11-42,18.92C306.82,94.86,304.49,96,305.19,97.4Z" transform="translate(-0.07 -0.45)" style="fill:#6a374f;stroke:#6a374f;stroke-linecap:round;stroke-linejoin:round;stroke-width:18px"/><path id="Shape-7" data-name="Shape" d="M251.88,18c0,15.92.35,31.82,1.46,47.71a80.86,80.86,0,0,0,4.13,19.13,69.44,69.44,0,0,0,1.45-18.19c-.82-12.09-2.24-24.1-3.79-36.14-.54-4.21-1.27-8.39-2-12.6-.08-.51.06-1.42-.82-1.29-.52.09-.44.85-.5,1.35ZM190.53,47.85c.14,1.53,1.17,2.63,1.87,3.87a16.31,16.31,0,0,1-2.5,19.21c-5.76,6.14-13,6.59-20.62,5.72-5.7-.67-11.18-2.37-16.71-3.78-38.47-9.72-73.23-1.17-105,21.47-11.62,8.3-19.55,19.39-22.76,33.41-3.94,17.07-2.44,33.94,3.22,50.43,4.88,14.37,11.67,27.52,23.46,37.66,13.31,11.37,28.36,17.68,46.06,15.73s33.39-9.58,46.74-21.4c11.33-10,22-20.81,33.87-30.25,16.75-13.24,35.33-20.24,56.93-17.94,7,.75,14.24.77,20.33,5.23a1.28,1.28,0,0,0,1.47.22c-7.06-11.76-18.3-17.82-30.79-22.06.57-1.09,1.47-.83,2.19-1a95,95,0,0,0,26.86-9.15c4.65-2.49,8.44-5.94,10.54-11.55a64.46,64.46,0,0,1-25,2.69c-8.53-.75-16.61-3.24-25.44-5.85a21.92,21.92,0,0,0,7-3.9,50.54,50.54,0,0,0,16.7-26c1.51-5.52,1.52-11.11,1.34-16.74,0-1.06-.08-2.6-1.24-2.88-.92-.23-1.22,1.21-1.66,2a39.71,39.71,0,0,1-10.77,12.81c-7,5.19-14.88,8.73-22.75,12.4-.3.14-.64.28-.93-.16a3.58,3.58,0,0,1,.23-.65c7.72-12.86,8.5-25.88.9-39.12C201,52.9,196.81,49.06,190.53,47.85ZM268.45,166c.49,1.16,1.23,1.2,1.79,1.56,3.37,2.17,6.87,4.11,9.64,7,6.91,7.17,10,16.06,11.27,25.7a102.43,102.43,0,0,1-.07,22.82,83.18,83.18,0,0,0,3,32.64c5.16,16.68,14.88,29.88,31,37.18,19.18,8.77,38.75,9.13,57.81-1,26.28-13.91,43.65-34.74,49.22-64.45,2.16-11.53,2.45-23.1-1.63-34.37C423.31,173.52,409.13,160.35,391,151c-6.39-3.3-13.17-5.81-19.25-9.7-11.58-7.41-17.35-17.94-16.92-31.83a80.26,80.26,0,0,1,1-9c-1.27.34-1.44,1.23-1.75,2a38.31,38.31,0,0,1-6.31,11.26,38.06,38.06,0,0,0-8.52,19.77c-.3,2.28-.9,2.29-2.59.89a70.58,70.58,0,0,0-26.23-13.56c7.58,8.35,9.34,19.26,13.27,29.31a8.27,8.27,0,0,1-1.11-.07c-9.85-2.7-19.66-5.57-28.75-10.36-.49-.28-1-.85-1.63-.28s-.28,1.13,0,1.69c.74,1.66,1.42,3.35,2.26,4.95,3.67,7,7.8,13.74,10,21.37.24.84,1.26,1.82.33,2.57-.74.57-1.56-.43-2.27-.85C291.62,162.79,280.15,164.32,268.45,166Zm23-144c-10.37,26.64-18,58.1-16.2,66.25C281.4,80.89,292.72,35,291.46,22Zm4.61,61.55C310.8,74.05,319.65,59.51,329,45.4,316.4,56.73,303.32,67.66,296.06,83.58Zm54.51-9.25c-15.07,4.42-28.76,11.11-41.95,18.9-1.3.77-3.63,1.92-2.93,3.3s3,.33,4.48-.23a196.58,196.58,0,0,0,34.71-17.4C346.81,77.69,349.18,76.9,350.57,74.33Z" transform="translate(-0.07 -0.45)" style="fill:#6a374f"/><path id="Shape-8" data-name="Shape" d="M190,48.71c6.24,1.19,10.47,5.06,13.55,10.41,7.6,13.24,6.79,26.24-.9,39.13a2.71,2.71,0,0,0-.23.64c.28.44.6.35.93.16,7.87-3.63,15.71-7.21,22.75-12.4a39.81,39.81,0,0,0,10.76-12.81c.46-.78.75-2.23,1.67-2,1.15.28,1.23,1.86,1.23,2.88.21,5.64.18,11.22-1.34,16.74a50.52,50.52,0,0,1-16.69,26,22,22,0,0,1-7,3.9c8.87,2.63,16.88,5.14,25.43,5.85a64.44,64.44,0,0,0,25-2.69c-2.09,5.62-5.89,9.06-10.53,11.55a95.57,95.57,0,0,1-26.93,9.19c-.72.14-1.62-.13-2.19,1,12.49,4.25,23.71,10.3,30.79,22.06a1.27,1.27,0,0,1-1.47-.21c-6.09-4.46-13.31-4.48-20.33-5.24-21.58-2.32-40.17,4.67-56.93,17.94-11.9,9.42-22.54,20.21-33.87,30.25-13.35,11.82-28.88,19.44-46.74,21.4s-32.75-4.35-46.06-15.73C39.1,206.56,32.34,193.35,27.44,179c-5.64-16.49-7.13-33.36-3.21-50.43,3.24-14,11.19-25.15,22.76-33.42C78.77,72.52,113.5,64,152,73.7c5.53,1.41,11,3.11,16.71,3.78,7.56.91,14.88.43,20.62-5.72a16.32,16.32,0,0,0,2.58-19.2C191.2,51.34,190.19,50.27,190,48.71Zm9.12,14.6a3.82,3.82,0,0,0-.25,1.89c.43,8.6-3.56,15.08-11.41,18.61a33.09,33.09,0,0,1-13.63,2.74c-7.81,0-15.23-2.18-22.67-4.13C115.12,73,82.42,80.71,52.49,102c-13,9.26-20.1,22.12-21.34,38.12a84.43,84.43,0,0,0,2.65,30.1c4.69,16.41,11.58,31.53,25.68,42.3,13.62,10.42,28.63,14.28,45.44,9.74a83.13,83.13,0,0,0,36.8-21C153.19,190,164.85,179,178,169.76c17.24-12.09,36.14-17.59,57.24-13.14.43.09,1,.42,1.5-.28a158.76,158.76,0,0,0-26-11.58c12.39-2.43,24-6.66,36-11.45a4.65,4.65,0,0,0-3.28-.74c-10.81-.54-21.09-2.79-30.2-9-3.75-2.56-3.83-2.61-.33-5.67,8.16-7.13,13.93-16,18.89-25.51.42-.73,1.52-1.78.58-2.48s-1.56.71-2.27,1.24c-2.06,1.57-4.26,3-6.5,4.33-9,5.47-19.16,7.35-29.34,9.09-.51.07-1.14.26-1.46-.21-.51-.75.4-1,.72-1.4,8.45-10.75,10.54-22.89,7.76-36C201,65.59,200.91,64.07,199.15,63.31Z" transform="translate(-0.07 -0.45)" style="fill:#6a374f;stroke:#6a374f;stroke-width:2px"/><path id="Shape-9" data-name="Shape" d="M268,166.9c11.69-1.69,23.16-3.23,34,3.13.71.41,1.5,1.39,2.27.84.95-.74-.09-1.73-.33-2.57-2.19-7.65-6.33-14.4-10-21.36-.82-1.64-1.55-3.31-2.26-5-.26-.56-.48-1.18,0-1.69s1.14,0,1.62.28c9.11,4.76,18.91,7.66,28.75,10.36a8.42,8.42,0,0,0,1.12.07c-3.91-10.09-5.7-21-13.28-29.3a70.38,70.38,0,0,1,26.24,13.55c1.69,1.4,2.29,1.39,2.59-.88a38.07,38.07,0,0,1,8.54-19.84,38.47,38.47,0,0,0,6.32-11.26c.31-.79.48-1.69,1.74-2a84.94,84.94,0,0,0-1,9c-.44,13.88,5.33,24.46,16.9,31.87,6.08,3.89,12.86,6.4,19.25,9.7,18.17,9.34,32.32,22.53,39.46,42.19,4.08,11.26,3.79,22.84,1.63,34.37-5.59,29.69-22.94,50.54-49.22,64.45-19.06,10.09-38.59,9.71-57.82,1-16.06-7.31-25.78-20.51-30.94-37.19a83.19,83.19,0,0,1-3-32.64,103,103,0,0,0,.07-22.82c-1.27-9.64-4.33-18.51-11.27-25.7-2.79-2.91-6.32-4.81-9.64-7C269.19,168.09,268.4,168,268,166.9Zm61.33-28.22a5,5,0,0,0,.42,3.16c2.1,6.69,4.4,13.3,8.14,19.32.64,1,2.21,2.43,1.44,3.28-1,1.08-2.18-.71-3.34-1.11a8.83,8.83,0,0,0-1.23-.4,162.08,162.08,0,0,1-26.2-7.37c-.37-.13-.9-.45-1.12,0a1.8,1.8,0,0,0,.11,1.23c.66,1.88,1.41,3.73,2,5.62,2.08,6.4,3.1,13.17,6.62,19.07a1,1,0,0,1,0,1.18c-.41.52-.95.32-1.4.07a39.15,39.15,0,0,0-4-2.32c-5.42-2.3-11-4.19-16.6-6-2.36-.76-4.65-1.81-7.46-2a9.64,9.64,0,0,0,.87,1.15c6.73,6.82,10,15.23,11.43,24.53a103.91,103.91,0,0,1,.29,25.17,80.11,80.11,0,0,0,2.22,29.61c9.74,34.68,42.75,44.16,66.41,36.24,30-10,49.07-31.26,55.19-62.92,2.19-11.3,2-22.56-2.91-33.37-6.52-14.33-17.44-24.34-30.9-31.89-6.8-3.82-14.2-6.44-20.91-10.43-8.72-5.19-16-11.63-18.77-21.89-.06-.19-.36-.31-.66-.56a23,23,0,0,0-3.18,7.92c-.86,3.87-1.58,7.78-2.28,11.68-.32,1.69-1.12,1.49-2.12.68-1.94-1.58-3.86-3.19-5.79-4.79a43.21,43.21,0,0,0-6.28-4.92Z" transform="translate(-0.07 -0.45)" style="fill:#6a374f;stroke:#6a374f;stroke-width:2px"/><path id="Shape-10" data-name="Shape" d="M291,22.89c1.27,13-10,58.86-16.19,66.24C272.91,81,280.6,49.5,291,22.89Z" transform="translate(-0.07 -0.45)" style="fill:#6a374f;stroke:#6a374f;stroke-width:2px"/><path id="Shape-11" data-name="Shape" d="M251.39,18.77c.06-.49,0-1.26.5-1.34.88-.13,2.23,9.66,2.76,13.87,1.52,12,3,24.05,3.8,36.14A69.88,69.88,0,0,1,257,85.63a81.25,81.25,0,0,1-4.13-19.13C251.73,50.66,251.39,18.77,251.39,18.77Z" transform="translate(-0.07 -0.45)" style="fill:#6a374f;stroke:#6a374f;stroke-width:2px"/><path id="Shape-12" data-name="Shape" d="M295.56,84.45c7.26-15.92,20.34-26.86,32.95-38.18C319.15,60.38,310.32,74.93,295.56,84.45Z" transform="translate(-0.07 -0.45)" style="fill:#6a374f;stroke:#6a374f;stroke-width:2px"/><path id="Shape-13" data-name="Shape" d="M350.07,75.19c-1.41,2.56-3.77,3.37-5.7,4.59a197.13,197.13,0,0,1-34.7,17.39c-1.47.55-3.75,1.68-4.48.23s1.63-2.53,2.92-3.29C321.3,86.32,335,79.62,350.07,75.19Z" transform="translate(-0.07 -0.45)" style="fill:#6a374f;stroke:#6a374f;stroke-width:2px"/><path id="Shape-14" data-name="Shape" d="M199.15,63.31c1.76.76,1.84,2.29,2.13,3.54,2.79,13.16.68,25.29-7.77,36.05-.32.4-1.22.64-.72,1.39.32.48,1,.3,1.46.21,10.22-1.71,20.31-3.62,29.34-9.09a71.23,71.23,0,0,0,6.5-4.33c.7-.53,1.38-1.89,2.28-1.24s-.19,1.74-.58,2.49c-5,9.49-10.74,18.37-18.9,25.51-3.5,3.06-3.42,3.1.33,5.66,9.11,6.22,19.37,8.46,30.2,9a4.54,4.54,0,0,1,3.28.74c-12,4.76-23.59,9-36,11.44a159.13,159.13,0,0,1,26.05,11.58c-.52.73-1.08.39-1.51.29-21.1-4.46-40,1-57.24,13.14-13.14,9.22-24.79,20.23-36.26,31.41a83.22,83.22,0,0,1-36.81,21c-16.85,4.6-31.79.78-45.48-9.68-14.1-10.77-21-25.89-25.68-42.3a84.53,84.53,0,0,1-2.68-30.12c1.24-16,8.31-28.85,21.35-38.11,29.93-21.27,62.62-29,98.69-19.55,7.43,2,14.91,4.19,22.68,4.13a33,33,0,0,0,13.65-2.73c7.83-3.56,11.84-10,11.41-18.61A3.82,3.82,0,0,1,199.15,63.31Zm-30.16,90c-.8-4.36-2.56-5.86-7-5.83-2,0-4.11.23-6.16.34-3.33-.05-6.17,1.4-8.77,3.19-3.13,2.1-3.58,5.55-1.31,8.57,2.76,3.68,6.53,3.77,10.55,2.89,6.21-1.32,10.55-6.28,16.77-8.1-1.45-1.38-2.88-.58-4-1.07Zm-35.16,6.61q4.08-7.52-4.45-8a8.85,8.85,0,0,1-1.07-.15c-.39-.06-.46-.39-.61-.35-4.86,1.63-9.59,3.61-13.22,7.38s-2.45,8.86,2.3,10.7c5.66,2.21,15.32-2,17.64-7.7C134.82,160.9,135.11,160.15,133.83,159.9Zm16.87,18c-1.68-.79-2.14-2.94-4-3.49-2.54-.82-4.94-.3-7.35.49-.48-.09.14-2.23-1.22-.7-1.66,1.8-3.91,2.44-6.16,3.1a30.7,30.7,0,0,0-4.39,1.5,7,7,0,0,0-4.22,7.1,7.94,7.94,0,0,0,5.6,6.51,12,12,0,0,0,7.63-.51c6.95-2.54,12.09-7.59,17.24-12.6a2.34,2.34,0,0,0,.86-2.14c-1.48-.55-2.61.74-4,.7Zm-42.91-1.68c-2.1-.06-2.85-1.18-3.18-3.23-.62-3.93-3.45-6.2-7.52-6.5-4.88-1.73-9.72-3.6-15-3.94a14.53,14.53,0,0,0-3.36.13c-5.14.91-7.13,5.31-3.94,9.41,2.58,3.32,5.43,6.59,9.4,8.35a27.87,27.87,0,0,0,21.49.79,15,15,0,0,0,7.28-5c-1.9-.63-3.58.47-5.22,0ZM88.61,190.54c-.36-.21-.72-.63-1.07-.62-4.28,0-8.06-1.78-12-3.27-3.23-1.2-6.33-2.86-9.9-2.85-4.87,0-7.61,4.09-5.72,8.58a14.88,14.88,0,0,0,3.92,5.4,52.18,52.18,0,0,0,7,4.88c11.78,7.38,23.76,7.09,35.7.72a20.52,20.52,0,0,0,8-6.67c-3.57.18-6.3,2-9.39,1.95a9.85,9.85,0,0,0-2.29-.3c-1.7.17-2.78,0-3.28-2.1-.59-2.53-2.76-3.9-5.26-4.49-1.91-.46-3.87-.81-5.79-1.2Zm-37.06-14c.69.4,1.72,1.21,2.67.39s.27-2.06-.3-3a14.43,14.43,0,0,0-1.7-2.61c-2.86-3.05-3.26-6.65-2.38-10.42.75-3.18-1-5.61-1.91-8.29A2.89,2.89,0,0,0,45,150.84c-1.16,0-1.23,1.36-1.53,2.18C40.74,160.22,44.82,172.22,51.55,176.57ZM49.08,138.5a13.85,13.85,0,0,0-1.3,5.37c-.33,6.74,3.81,11.64,7,16.91a.86.86,0,0,0,1.09.46c.76-.36.45-1,.26-1.58a98.67,98.67,0,0,1-2.54-10.58,3.45,3.45,0,0,1,.38-2.93c1.36-2,3-3.9,2-6.63a.92.92,0,0,1,.16-.65c1.62-.1,1.47-1,.91-2a3.17,3.17,0,0,0-3.25-1.7C51.72,135.33,50.26,136.64,49.08,138.5Zm20.46,13.15a6.88,6.88,0,0,0-7.33,6.91,18.49,18.49,0,0,0,2.59,9.65c.48.87.86,2.38,2,2,1.36-.37.28-1.78.25-2.71C66.91,162.16,65.44,156.63,69.54,151.65ZM53.06,123.28c-2-1.22-3.85-2.07-5.85-.72a11.55,11.55,0,0,0-4.9,7.67c-.14.79-.19,1.63.61,2.08s1.37-.37,1.93-.84C47.62,128.89,49.79,125.72,53.06,123.28Z" transform="translate(-0.07 -0.45)" style="fill:#6a374f"/><path id="Shape-15" data-name="Shape" d="M329.81,137.8a43.6,43.6,0,0,1,6.31,4.94c1.93,1.6,3.85,3.21,5.79,4.78,1,.82,1.79,1,2.11-.67.71-3.91,1.43-7.81,2.29-11.68a22.92,22.92,0,0,1,3.17-7.92c.31.25.62.36.66.56,2.81,10.26,10.06,16.7,18.77,21.89,6.72,4,14.12,6.61,20.92,10.43,13.46,7.55,24.38,17.54,30.89,31.89,4.9,10.81,5.1,22.07,2.92,33.37-6.12,31.66-25.18,52.87-55.2,62.92-23.66,7.92-56.68-1.55-66.41-36.24a80.44,80.44,0,0,1-2.24-29.63,104.08,104.08,0,0,0-.31-25.13c-1.39-9.3-4.69-17.72-11.43-24.53a8.75,8.75,0,0,1-.83-1.25c2.79.23,5,1.26,7.46,2,5.6,1.8,11.18,3.69,16.6,6a41.18,41.18,0,0,1,4,2.33c.45.25,1,.44,1.41-.07a1,1,0,0,0,0-1.18c-3.52-5.91-4.54-12.67-6.62-19.08-.6-1.89-1.36-3.74-2-5.62a1.77,1.77,0,0,1-.11-1.22c.27-.47.75-.18,1.12,0A162.93,162.93,0,0,0,335.24,162a9.15,9.15,0,0,1,1.22.4c1.16.4,2.36,2.19,3.34,1.1.76-.82-.8-2.25-1.44-3.28-3.74-6-6-12.62-8.14-19.32A5,5,0,0,1,329.81,137.8Zm80.73,79.43c-3.06-1.31-5.22-1-6.55.83s-.89,3.94,1.09,6.27c-.34,2.79.24,3.27,2.83,2.2a23.59,23.59,0,0,0,4.15-2.06,3.51,3.51,0,0,0,1.66-4C413.3,218.81,412.61,217.27,410.54,217.23Zm-21.93,21.2c-.13.79-1.64,1.37-.32,2.39,2.54,2,7.87,2.24,10.64.54s3.21-4.45.93-6.87a10.77,10.77,0,0,0-7.69-2.13C388.56,232.68,387.19,235.05,388.61,238.43Zm-.9,6.51a15,15,0,0,0-10.91-3c-3.54.41-4.8,2-4.32,5.5-.45.77-3.78-.1-1.57,2,3.27,3,7.07,5.24,12,4.15,3.89-.85,6.25-3.74,5.83-7.6C388.7,245.35,388.53,244.85,387.71,244.94Zm-46-17.71c-1.15,0-1.47-1.76-2.58-1.32-.78.3-.59,1.41-.45,2.12,1.2,6.34,3.72,11.83,9.93,14.79,4.26,2,8,1.63,9.93-1,2.06-2.78,1.4-5.8-2.11-9.63a21.73,21.73,0,0,0-4.76-6.07C348,223.15,344.18,223.55,341.7,227.23Zm-27.18-15.56c-1.08-.92-.82-2.4-1.46-3.47-.23-.38-.45-.8-.94-.77a1,1,0,0,0-.84.86,9.77,9.77,0,0,0-.32,1.78c-.35,6.51,5.15,15.45,11.13,18.12,3.52,1.57,6.76-.09,7.3-3.87.81-5.49-1.18-10.17-4.46-14.4a1.7,1.7,0,0,0-2-.83C318.67,206.84,316.54,206.5,314.52,211.67Zm41,47.45-2.34-1c-.56-.25-1.28-.62-1.71-.22-.62.59,0,1.26.33,1.84a19.8,19.8,0,0,0,22.18,10c2.49-.57,6.45-4.58,6.37-6.9-.11-3.07-2-5-4.85-6.09-2-.78-4-1.65-6-2.33-.64-.21-1.62-.93-2.1.41a16.11,16.11,0,0,0-4.75-1C358.37,253.6,356.35,255.12,355.55,259.12Zm-27.86-17.57c-5.07-3.21-6.78-3-9.72,1.24-2.31-2.72-3.56-6-5.09-9.19-.53-1.08-.74-2.35-2.13-3.27-.22,3.84.61,7.28.87,10.65.7,9.64,4.06,18.18,11,25.1a23.05,23.05,0,0,0,10.23,6.38c6.43,1.74,11.72-3.22,10.43-9.75a13.65,13.65,0,0,0-2.23-5.21q-6.06-8.56-12.16-17.09c-.22-.3-.47-.75-1-.58C327.52,240.4,328.22,241.05,327.69,241.55ZM411.2,230c-.2,2.9-2.29,4.29-3.51,6.25-3,4.78-6.46,9.18-11.9,11.48a5.37,5.37,0,0,0-1.09.68c-.39.31-.95.61-.54,1.23.28.43.77.36,1.18.21,4.37-1.56,8.83-3,12.53-6C412.2,240.28,413.44,234.33,411.2,230Z" transform="translate(-0.07 -0.45)" style="fill:#6a374f"/><path id="Shape-16" data-name="Shape" d="M105.19,198.66c3.09.05,5.83-1.77,9.39-1.95a20.52,20.52,0,0,1-8,6.67c-11.94,6.37-23.92,6.66-35.71-.68a52.18,52.18,0,0,1-7-4.88,14.88,14.88,0,0,1-3.92-5.4c-1.89-4.49.85-8.55,5.72-8.58,3.57,0,6.68,1.65,9.9,2.85,3.88,1.47,7.65,3.26,12,3.27.36,0,.71.41,1.08.62-5.25,3.09-10.71,2.55-16.43.74C79.18,198.71,93,203.64,105.19,198.66Z" transform="translate(-0.07 -0.45)" style="fill:#6a374f;stroke:#6a374f;stroke-width:2px"/><path id="Shape-17" data-name="Shape" d="M107.78,176.2c1.64.46,3.32-.64,5.2,0a15.08,15.08,0,0,1-7.29,5,27.89,27.89,0,0,1-21.48-.79c-4-1.87-6.82-5.09-9.36-8.44-3.17-4.14-1.21-8.5,3.94-9.4a14.54,14.54,0,0,1,3.36-.14c5.24.35,10.08,2.22,15,3.95-2.66,2.83-6.22,3.24-9.93,3.58C92.7,177.13,99.71,178.41,107.78,176.2Z" transform="translate(-0.07 -0.45)" style="fill:#6a374f;stroke:#6a374f;stroke-width:2px"/><path id="Shape-18" data-name="Shape" d="M150.7,177.85c1.34,0,2.47-1.25,3.89-.73a2.33,2.33,0,0,1-.86,2.13c-5.15,5-10.29,10.07-17.24,12.6a11.85,11.85,0,0,1-7.57.55,7.93,7.93,0,0,1-5.59-6.5,7,7,0,0,1,4.22-7.11,30.2,30.2,0,0,1,4.34-1.53c2.25-.67,4.5-1.31,6.17-3.11,1.38-1.51.75.58,1.22.71a13.56,13.56,0,0,1-5.82,7.67,33.91,33.91,0,0,0,6.52.55C144.43,183,147.3,179.94,150.7,177.85Z" transform="translate(-0.07 -0.45)" style="fill:#6a374f;stroke:#6a374f;stroke-width:2px"/><path id="Shape-19" data-name="Shape" d="M133.83,159.9c1.29.28,1,1,.63,1.92-2.31,5.67-12,9.91-17.64,7.71-4.72-1.83-5.95-6.9-2.29-10.7s8.35-5.75,13.21-7.39c.15-.05.41.24.61.36-1,1.47-1.69,3.15-3,4.47-2.34,2.4-2,3.22,1.06,4.74,2.1,1,3.92,1.39,5.82-.26A7.68,7.68,0,0,1,133.83,159.9Z" transform="translate(-0.07 -0.45)" style="fill:#6a374f;stroke:#6a374f;stroke-width:2px"/><path id="Shape-20" data-name="Shape" d="M169,153.28c1.16.49,2.59-.31,4,1.05-6.22,1.81-10.56,6.77-16.77,8.09-4,.88-7.79.79-10.55-2.89-2.27-3-1.82-6.47,1.31-8.57,2.64-1.77,5.47-3.22,8.77-3.18l-5.62,4.95C156.65,155.1,162.79,154.68,169,153.28Z" transform="translate(-0.07 -0.45)" style="fill:#6a374f;stroke:#6a374f;stroke-width:2px"/><path id="Shape-21" data-name="Shape" d="M105.19,198.66c-12.2,5-26,0-33.06-7.35,5.77,1.84,11.22,2.36,16.44-.74,1.93.4,3.88.74,5.79,1.2,2.49.6,4.65,1.95,5.26,4.49.5,2.14,1.57,2.29,3.28,2.1A9.85,9.85,0,0,1,105.19,198.66Z" transform="translate(-0.07 -0.45)" style="fill:#6a374f"/><path id="Shape-22" data-name="Shape" d="M51.55,176.57c-6.73-4.35-10.81-16.35-8.11-23.52.31-.83.4-2.15,1.54-2.18a2.9,2.9,0,0,1,3,1.8c.92,2.68,2.65,5.11,1.9,8.29-.88,3.76-.44,7.39,2.38,10.42a14.36,14.36,0,0,1,1.7,2.6c.59,1,1.4,2.08.3,3C53.27,177.78,52.24,177,51.55,176.57Z" transform="translate(-0.07 -0.45)" style="fill:#6a374f;stroke:#6a374f;stroke-width:2px"/><path id="Shape-23" data-name="Shape" d="M49.08,138.5c1.21-1.84,2.64-3.17,4.81-3.35a3.17,3.17,0,0,1,3.25,1.7c.57,1,.71,1.91-.91,2a.91.91,0,0,0-.16.66c1,2.73-.68,4.64-2.06,6.64a3.44,3.44,0,0,0-.4,2.94,98.1,98.1,0,0,0,2.54,10.58c.19.55.46,1.2-.26,1.58a.85.85,0,0,1-1.08-.48c-3.24-5.27-7.4-10.13-7-16.91A13.81,13.81,0,0,1,49.08,138.5Z" transform="translate(-0.07 -0.45)" style="fill:#6a374f;stroke:#6a374f;stroke-width:2px"/><path id="Shape-24" data-name="Shape" d="M107.78,176.2c-8.1,2.25-15.11.92-20.64-6.14,3.67-.35,7.27-.75,9.93-3.58,4.07.3,6.9,2.57,7.52,6.49C104.92,175,105.68,176.13,107.78,176.2Z" transform="translate(-0.07 -0.45)" style="fill:#6a374f"/><path id="Shape-25" data-name="Shape" d="M169,153.28c-6.19,1.37-12.35,1.82-18.78-.51l5.62-5c2-.12,4.11-.32,6.16-.35C166.43,147.42,168.2,148.93,169,153.28Z" transform="translate(-0.07 -0.45)" style="fill:#6a374f"/><path id="Shape-26" data-name="Shape" d="M150.7,177.85c-3.4,2.09-6.27,5.12-10.72,5.22a33.54,33.54,0,0,1-6.48-.6,13.54,13.54,0,0,0,5.81-7.67c2.41-.79,4.81-1.31,7.34-.5C148.56,174.92,149,177.07,150.7,177.85Z" transform="translate(-0.07 -0.45)" style="fill:#6a374f"/><path id="Shape-27" data-name="Shape" d="M133.83,159.9a7.68,7.68,0,0,0-1.57.85c-1.9,1.65-3.73,1.31-5.82.26-3.09-1.52-3.4-2.34-1.06-4.74,1.28-1.32,2-3,3-4.47.35,0,.68.1,1.07.14Q137.89,152.33,133.83,159.9Z" transform="translate(-0.07 -0.45)" style="fill:#6a374f"/><path id="Shape-28" data-name="Shape" d="M69.54,151.65c-4.11,5-2.62,10.53-2.49,15.89,0,.92,1.1,2.28-.25,2.7-1.15.36-1.52-1.15-2-2a18.52,18.52,0,0,1-2.6-9.65,6.88,6.88,0,0,1,7.34-6.92Z" transform="translate(-0.07 -0.45)" style="fill:#6a374f;stroke:#6a374f;stroke-width:2px"/><path id="Shape-29" data-name="Shape" d="M53.06,123.28c-3.27,2.44-5.44,5.61-8.2,8.2-.57.51-1,1.34-1.93.84s-.76-1.29-.61-2.09a11.52,11.52,0,0,1,4.9-7.67C49.21,121.21,51.1,122.06,53.06,123.28Z" transform="translate(-0.07 -0.45)" style="fill:#6a374f;stroke:#6a374f;stroke-width:2px"/><path id="Shape-30" data-name="Shape" d="M327.19,242.42c.53-.51-.17-1.15.18-1.69.55-.2.8.24,1,.58q6.11,8.53,12.16,17.09a13.65,13.65,0,0,1,2.23,5.21c1.29,6.52-4,11.53-10.43,9.75A23,23,0,0,1,322.1,267c-6.94-6.92-10.32-15.43-11-25.1-.24-3.42-1.09-6.8-.87-10.65,1.39.92,1.63,2.21,2.13,3.27,1.51,3.19,2.78,6.47,5.09,9.19A34.71,34.71,0,0,0,337.88,265a19.54,19.54,0,0,0-3-8C331.91,252.39,328.75,247.81,327.19,242.42Z" transform="translate(-0.07 -0.45)" style="fill:#6a374f;stroke:#6a374f;stroke-width:2px"/><path id="Shape-31" data-name="Shape" d="M327.19,242.42c1.52,5.37,4.72,10,7.7,14.66a19.64,19.64,0,0,1,3,8,34.67,34.67,0,0,1-20.39-21.38C320.41,239.45,322.16,239.23,327.19,242.42Z" transform="translate(-0.07 -0.45)" style="fill:#6a374f"/><path id="Shape-32" data-name="Shape" d="M366.93,255.61c.45-1.3,1.46-.62,2.09-.4,2,.68,4,1.55,6,2.33,2.83,1.09,4.73,3,4.84,6.09.06,2.35-3.87,6.32-6.36,6.9a19.81,19.81,0,0,1-22.2-10c-.33-.58-.95-1.25-.34-1.84.43-.4,1.17,0,1.71.22l2.34,1c4.71,4.16,10.17,4.39,15.95,3.06.95-.23,2.34-.05,2.62-1.26.32-1.38-1-2-1.86-2.78C370.24,257.72,368.11,257.34,366.93,255.61Z" transform="translate(-0.07 -0.45)" style="fill:#6a374f;stroke:#6a374f;stroke-width:2px"/><path id="Shape-33" data-name="Shape" d="M322.42,209.9a1.7,1.7,0,0,1,2,.82c3.33,4.24,5.25,8.9,4.46,14.41-.55,3.79-3.79,5.45-7.3,3.86-6-2.67-11.48-11.6-11.13-18.12a9.77,9.77,0,0,1,.32-1.78,1,1,0,0,1,.84-.85c.49,0,.7.4.94.76.67,1.09.43,2.56,1.46,3.47a1.2,1.2,0,0,0,0,.5c2.28,5.22,7.23,7.64,11.42,10.82.8.61,1.07-.19,1.08-.81a14,14,0,0,0-.19-2.82C325.67,216.55,324,213.24,322.42,209.9Z" transform="translate(-0.07 -0.45)" style="fill:#6a374f;stroke:#6a374f;stroke-width:2px"/><path id="Shape-34" data-name="Shape" d="M355.92,233.07c3.55,3.85,4.15,6.83,2.12,9.63-2,2.62-5.67,3-9.93,1-6.22-3-8.72-8.5-9.94-14.8-.13-.71-.32-1.82.45-2.11,1.12-.45,1.47,1.32,2.59,1.31,2.74,5.43,7.45,8.61,12.72,11.18,2.12,1,2.42.78,2.52-1.53C356.54,236.15,355.19,234.72,355.92,233.07Z" transform="translate(-0.07 -0.45)" style="fill:#6a374f;stroke:#6a374f;stroke-width:2px"/><path id="Shape-35" data-name="Shape" d="M355.92,233.07c-.73,1.65.56,3.05.52,4.67-.08,2.27-.4,2.56-2.51,1.53-5.27-2.57-10-5.76-12.73-11.18,2.49-3.66,6.27-4.08,10-1.09A21.88,21.88,0,0,1,355.92,233.07Z" transform="translate(-0.07 -0.45)" style="fill:#6a374f"/><path id="Shape-36" data-name="Shape" d="M366.93,255.61c1.18,1.73,3.31,2.11,4.81,3.39.89.77,2.2,1.41,1.86,2.78-.27,1.21-1.67,1-2.62,1.25-5.73,1.31-11.24,1.11-16-3,.8-4,2.82-5.52,7.12-5.38A16.58,16.58,0,0,1,366.93,255.61Z" transform="translate(-0.07 -0.45)" style="fill:#6a374f"/><path id="Shape-37" data-name="Shape" d="M322.42,209.9c1.56,3.3,3.27,6.63,3.91,10.33a14.85,14.85,0,0,1,.18,2.82c0,.62-.28,1.42-1.08.81-4.16-3.22-9.14-5.6-11.42-10.82a1.6,1.6,0,0,1,0-.49C316,207.36,318.17,207.71,322.42,209.9Z" transform="translate(-0.07 -0.45)" style="fill:#6a374f"/><path id="Shape-38" data-name="Shape" d="M410.7,230.84c2.25,4.34,1,10.28-3.36,13.82-3.7,3-8.15,4.45-12.54,6-.4.15-.9.23-1.18-.21-.4-.63.16-.93.55-1.23a5.58,5.58,0,0,1,1.09-.69c5.45-2.29,8.9-6.69,11.89-11.48C408.4,235.15,410.49,233.76,410.7,230.84Z" transform="translate(-0.07 -0.45)" style="fill:#6a374f;stroke:#6a374f;stroke-width:2px"/><path id="Shape-39" data-name="Shape" d="M372,248.35c-.51-3.5.75-5.1,4.33-5.49a15,15,0,0,1,10.9,3,5.41,5.41,0,0,1-5.51,3.75C378.37,249.71,375.23,248.76,372,248.35Z" transform="translate(-0.07 -0.45)" style="fill:#6a374f"/><path id="Shape-40" data-name="Shape" d="M372,248.35c3.23.41,6.36,1.36,9.67,1.25,2.71-.08,4.59-1.2,5.51-3.74.83-.09,1,.41,1.06,1.1.43,3.86-1.93,6.74-5.82,7.59-4.91,1.06-8.75-1.07-12-4.14C368.23,248.26,371.54,249.11,372,248.35Z" transform="translate(-0.07 -0.45)" style="fill:#6a374f;stroke:#6a374f;stroke-width:2px"/><path id="Shape-41" data-name="Shape" d="M399.36,235.36c2.26,2.45,1.92,5.12-.93,6.86s-8.1,1.42-10.64-.53c-1.32-1,.19-1.6.32-2.39,1.94-.24,3.89-.42,5.82-.73C396.15,238.22,398.34,237.75,399.36,235.36Z" transform="translate(-0.07 -0.45)" style="fill:#6a374f;stroke:#6a374f;stroke-width:2px"/><path id="Shape-42" data-name="Shape" d="M399.36,235.36c-1,2.38-3.21,2.86-5.43,3.21-1.93.31-3.88.49-5.82.73-1.41-3.38,0-5.8,3.5-6.06A10.67,10.67,0,0,1,399.36,235.36Z" transform="translate(-0.07 -0.45)" style="fill:#6a374f"/><path id="Shape-43" data-name="Shape" d="M410,218.1c2.07,0,2.76,1.59,3.21,3.16a3.53,3.53,0,0,1-1.67,4,23.84,23.84,0,0,1-4.14,2.06c-2.59,1.07-3.18.6-2.83-2.2C406.12,222.57,409.46,221.4,410,218.1Z" transform="translate(-0.07 -0.45)" style="fill:#6a374f;stroke:#6a374f;stroke-width:2px"/><path id="Shape-44" data-name="Shape" d="M410,218.1c-.58,3.3-3.92,4.47-5.43,7.05-2-2.3-2.36-4.5-1.1-6.26S407,216.79,410,218.1Z" transform="translate(-0.07 -0.45)" style="fill:#6a374f"/><path id="Shape-45" data-name="Shape" d="M125.15,175.8a107.07,107.07,0,0,1-15.23,3.51,19.21,19.21,0,0,1-3.9,1.88,27.89,27.89,0,0,1-21.48-.79,16.3,16.3,0,0,1-1.5-.77,78.84,78.84,0,0,1-29-9.84c-1.28-.74-2.57-1.55-3.75-2.35a10.09,10.09,0,0,0,2.3,3.88,15.77,15.77,0,0,1,1.58,2.61c.59,1,1.4,2.08.29,3-.92.78-2,0-2.67-.39-4.31-2.78-7.52-8.71-8.57-14.5a60.34,60.34,0,0,1-12.12-15,81.43,81.43,0,0,0,3,23.08c4.7,16.41,11.57,31.52,25.68,42.3,13.61,10.41,28.66,14.24,45.44,9.73a83,83,0,0,0,36.8-21c11.47-11.19,23.13-22.2,36.27-31.42,17.23-12.09,36.13-17.59,57.24-13.14.43.09,1,.42,1.49-.29-5.28-2.85-10.56-5.5-16.06-7.84C188.19,152,156.27,166.21,125.15,175.8Zm-18.3,27.54c-12,6.33-23.91,6.69-35.69-.7a50.94,50.94,0,0,1-7-4.88,15,15,0,0,1-3.94-5.41c-1.88-4.48.85-8.55,5.73-8.56,3.58,0,6.69,1.64,9.9,2.85,3.89,1.46,7.65,3.26,12,3.26.35,0,.71.41,1.07.62,1.93.39,3.89.74,5.8,1.2,2.49.61,4.65,1.95,5.26,4.49.5,2.13,1.56,2.28,3.28,2.1a9.77,9.77,0,0,1,2.28.3c3.09.06,5.83-1.77,9.39-2a20.41,20.41,0,0,1-8,6.67ZM154,179.24c-5.15,5-10.29,10.06-17.24,12.6a12,12,0,0,1-7.63.52,8,8,0,0,1-5.59-6.5,7,7,0,0,1,4.22-7.11,29.91,29.91,0,0,1,4.41-1.54c2.24-.67,4.51-1.3,6.16-3.11,1.39-1.5.76.59,1.22.71,2.4-.78,4.81-1.3,7.35-.49,1.88.6,2.33,2.75,4,3.54,1.34,0,2.48-1.26,3.89-.74a2.32,2.32,0,0,1-.78,2.09Z" transform="translate(-0.07 -0.45)" style="fill:#6a374f"/><path id="Shape-46" data-name="Shape" d="M382,264.32c-.66,0-1.32-.08-2-.13-.5,2.35-4,5.78-6.27,6.28a19.8,19.8,0,0,1-22.19-10c-.33-.58-1-1.26-.34-1.85.42-.4,1.16,0,1.71.23l2.34,1a9.23,9.23,0,0,1,.92-2.66c-12-6.37-22-16.5-29.6-28.26a5.33,5.33,0,0,1-4.81,0c-6-2.66-11.48-11.6-11.13-18.11a10.06,10.06,0,0,1,.28-1.8,1,1,0,0,1,.83-.86c.5,0,.71.41.95.76.67,1.09.44,2.56,1.5,3.5a8.74,8.74,0,0,1,2.06-3.43c-6.48-14.78-13-30.52-28.49-36.65-.28,0-.54-.07-.83-.09a7.5,7.5,0,0,0,.84,1.24c6.73,6.83,10,15.24,11.43,24.53a103.74,103.74,0,0,1,.32,25.21,80.16,80.16,0,0,0,2.25,29.62c9.73,34.68,42.74,44.17,66.4,36.25,17.58-5.92,31.41-15.66,41.07-29.08A68,68,0,0,1,382,264.32Zm-39-.8c1.31,6.53-4,11.48-10.42,9.74a23.17,23.17,0,0,1-10.2-6.34c-6.93-6.93-10.31-15.45-11-25.1-.24-3.43-1.1-6.82-.87-10.66,1.38.92,1.62,2.21,2.13,3.27,1.52,3.18,2.78,6.46,5.09,9.19,2.94-4.2,4.7-4.43,9.72-1.25.52-.5-.17-1.14.17-1.68.55-.21.81.24,1,.57q6.1,8.53,12.17,17.11A13.33,13.33,0,0,1,343,263.52Z" transform="translate(-0.07 -0.45)" style="fill:#6a374f"/></g><g id="nut-cracked"><path id="Shape-47" data-name="Shape" d="M226.49,154.84c7,.75,14.24.77,20.33,5.23a1.29,1.29,0,0,0,1.48.22c-7.07-11.76-18.31-17.81-30.8-22.06.58-1.09,1.47-.83,2.19-1a95.11,95.11,0,0,0,26.94-9.14c4.65-2.49,8.44-5.94,10.54-11.55a64.26,64.26,0,0,1-25,2.68c-8.53-.74-16.61-3.24-25.44-5.84a21.92,21.92,0,0,0,7-3.9,50.62,50.62,0,0,0,16.7-26C232,78,232,72.37,231.78,66.75c0-1.06-.08-2.6-1.24-2.89-.92-.23-1.22,1.22-1.66,2a39.68,39.68,0,0,1-10.77,12.8c-7,5.2-14.88,8.73-22.75,12.41-.3.14-.64.27-.93-.17a3.77,3.77,0,0,1,.23-.64c7.72-12.86,8.5-25.89.9-39.12C192.49,45.8,188.3,42,182,40.74c.14,1.54,1.18,2.63,1.88,3.88a16.31,16.31,0,0,1-2.5,19.2c-5.76,6.14-13,6.59-20.63,5.72-5.7-.66-11.18-2.37-16.7-3.78C105.58,56,70.83,64.59,39,87.23c-11.62,8.3-19.54,19.39-22.76,33.42-3.94,17.06-2.44,33.93,3.22,50.43C24.37,185.45,31.16,198.6,43,208.73c13.3,11.38,28.35,17.69,46.05,15.73s33.4-9.58,46.75-21.4c11.32-10,22-20.81,33.87-30.25C186.33,159.51,204.91,152.52,226.49,154.84Z" transform="translate(-0.07 -0.45)" style="fill:#fff;stroke:#fff;stroke-linecap:round;stroke-linejoin:round;stroke-width:28px"/><path id="Shape-48" data-name="Shape" d="M346.05,94.46a38.8,38.8,0,0,1-6.31,11.26,37.91,37.91,0,0,0-8.52,19.77c-.3,2.27-.9,2.28-2.59.88a70.38,70.38,0,0,0-26.24-13.55c7.58,8.35,9.35,19.25,13.28,29.3a7,7,0,0,1-1.12-.07c-9.84-2.7-19.65-5.57-28.75-10.36-.48-.28-1-.84-1.62-.28s-.29,1.13,0,1.69c.73,1.66,1.42,3.35,2.26,5,3.67,7,7.8,13.74,10,21.36.24.84,1.26,1.82.33,2.57-.74.58-1.57-.43-2.27-.85-10.79-6.32-22.28-4.78-34-3.12.48,1.17,1.23,1.21,1.79,1.57,3.36,2.17,6.86,4.11,9.64,7,6.91,7.18,10,16.07,11.26,25.71a101.83,101.83,0,0,1-.06,22.82,83.13,83.13,0,0,0,3,32.63c5.16,16.69,14.88,29.88,30.95,37.19,19.18,8.77,38.74,9.13,57.81-1,26.28-13.91,43.65-34.74,49.22-64.45,2.16-11.53,2.45-23.11-1.63-34.37C415.33,165.5,401.15,152.34,383,143c-6.39-3.3-13.17-5.81-19.25-9.71-11.58-7.41-17.36-17.94-16.93-31.82a82.42,82.42,0,0,1,1-9C346.51,92.76,346.34,93.65,346.05,94.46Z" transform="translate(-0.07 -0.45)" style="fill:#fff;stroke:#fff;stroke-linecap:round;stroke-linejoin:round;stroke-width:20px"/><path id="Shape-49" data-name="Shape" d="M283,14.89c-10.36,26.63-18,58.1-16.19,66.24C272.9,73.76,284.22,27.88,283,14.89Z" transform="translate(-0.07 -0.45)" style="fill:#fff;stroke:#fff;stroke-linecap:round;stroke-linejoin:round;stroke-width:18px"/><path id="Shape-50" data-name="Shape" d="M250.42,59.49c-.82-12.09-2.24-24.11-3.79-36.14-.54-4.22-1.27-8.4-2-12.6-.08-.51.06-1.42-.82-1.29-.52.08-.44.85-.5,1.34,0,11.94.19,23.87.75,35.79q.3,6,.69,11.95a81.86,81.86,0,0,0,4.13,19.13A69.41,69.41,0,0,0,250.42,59.49Z" transform="translate(-0.07 -0.45)" style="fill:#fff;stroke:#fff;stroke-linecap:round;stroke-linejoin:round;stroke-width:18px"/><path id="Shape-51" data-name="Shape" d="M287.56,76.45c14.74-9.53,23.59-24.07,32.95-38.18C307.9,49.59,294.82,60.53,287.56,76.45Z" transform="translate(-0.07 -0.45)" style="fill:#fff;stroke:#fff;stroke-linecap:round;stroke-linejoin:round;stroke-width:18px"/><path id="Shape-52" data-name="Shape" d="M297.19,89.4c.73,1.45,3,.33,4.48-.23a197.13,197.13,0,0,0,34.7-17.39c1.92-1.2,4.29-2,5.7-4.59-15.07,4.43-28.76,11.11-42,18.92C298.82,86.86,296.49,88,297.19,89.4Z" transform="translate(-0.07 -0.45)" style="fill:#fff;stroke:#fff;stroke-linecap:round;stroke-linejoin:round;stroke-width:18px"/><g id="_2dsjMW.tif" data-name=" 2dsjMW.tif"><path id="Shape-53" data-name="Shape" d="M243.88,10c0,15.92.35,31.82,1.46,47.71a80.86,80.86,0,0,0,4.13,19.13,69.44,69.44,0,0,0,1.45-18.19c-.82-12.09-2.24-24.1-3.79-36.14-.54-4.21-1.27-8.39-2-12.6-.08-.51.06-1.42-.82-1.29-.52.09-.44.85-.5,1.35ZM182.53,39.85c.14,1.53,1.17,2.63,1.87,3.87a16.31,16.31,0,0,1-2.5,19.21c-5.76,6.14-13,6.59-20.62,5.72-5.7-.67-11.18-2.37-16.71-3.78-38.47-9.72-73.23-1.17-105,21.47C27.93,94.64,20,105.73,16.79,119.75c-3.94,17.07-2.44,33.94,3.22,50.43,4.88,14.37,11.67,27.52,23.46,37.66,13.31,11.37,28.36,17.68,46.06,15.73s33.39-9.58,46.74-21.4c11.33-10,22-20.81,33.87-30.25,16.75-13.24,35.33-20.24,56.93-17.94,7,.75,14.24.77,20.33,5.23a1.28,1.28,0,0,0,1.47.22c-7.06-11.76-18.3-17.82-30.79-22.06.57-1.09,1.47-.83,2.19-1a95,95,0,0,0,26.86-9.15c4.65-2.49,8.44-5.94,10.54-11.55a64.46,64.46,0,0,1-25,2.69c-8.53-.75-16.61-3.24-25.44-5.85a21.92,21.92,0,0,0,7-3.9,50.54,50.54,0,0,0,16.7-26c1.51-5.52,1.52-11.11,1.34-16.74,0-1.06-.08-2.6-1.24-2.88-.92-.23-1.22,1.21-1.66,2a39.71,39.71,0,0,1-10.77,12.81c-7,5.19-14.88,8.73-22.75,12.4-.3.14-.64.28-.93-.16a3.58,3.58,0,0,1,.23-.65c7.72-12.86,8.5-25.88.9-39.12C193,44.9,188.81,41.06,182.53,39.85ZM260.45,158c.49,1.16,1.23,1.2,1.79,1.56,3.37,2.17,6.87,4.11,9.64,7,6.91,7.17,10,16.06,11.27,25.7a102.43,102.43,0,0,1-.07,22.82,83.18,83.18,0,0,0,3,32.64c5.16,16.68,14.88,29.88,31,37.18,19.18,8.77,38.75,9.13,57.81-1,26.28-13.91,43.65-34.74,49.22-64.45,2.16-11.53,2.45-23.1-1.63-34.37C415.31,165.52,401.13,152.35,383,143c-6.39-3.3-13.17-5.81-19.25-9.7-11.58-7.41-17.35-17.94-16.92-31.83a80.26,80.26,0,0,1,1-9c-1.27.34-1.44,1.23-1.75,2a38.31,38.31,0,0,1-6.31,11.26,38.06,38.06,0,0,0-8.52,19.77c-.3,2.28-.9,2.29-2.59.89a70.58,70.58,0,0,0-26.23-13.56c7.58,8.35,9.34,19.26,13.27,29.31a8.27,8.27,0,0,1-1.11-.07c-9.85-2.7-19.66-5.57-28.75-10.36-.49-.28-1-.85-1.63-.28s-.28,1.13,0,1.69c.74,1.66,1.42,3.35,2.26,4.95,3.67,7,7.8,13.74,10,21.37.24.84,1.26,1.82.33,2.57-.74.57-1.56-.43-2.27-.85C283.62,154.79,272.15,156.32,260.45,158Zm23-144c-10.37,26.64-18,58.1-16.2,66.25C273.4,72.89,284.72,27,283.46,14Zm4.61,61.55C302.8,66.05,311.65,51.51,321,37.4,308.4,48.73,295.32,59.66,288.06,75.58Zm54.51-9.25c-15.07,4.42-28.76,11.11-41.95,18.9-1.3.77-3.63,1.92-2.93,3.3s3,.33,4.48-.23a196.58,196.58,0,0,0,34.71-17.4C338.81,69.69,341.18,68.9,342.57,66.33Z" transform="translate(-0.07 -0.45)" style="fill:#fffffe"/><path id="Shape-54" data-name="Shape" d="M182,40.71c6.24,1.19,10.47,5.06,13.55,10.41,7.6,13.24,6.79,26.24-.9,39.13a2.71,2.71,0,0,0-.23.64c.28.44.6.35.93.16,7.87-3.63,15.71-7.21,22.75-12.4a39.81,39.81,0,0,0,10.76-12.81c.46-.78.75-2.23,1.67-2,1.15.28,1.23,1.86,1.23,2.88.21,5.64.18,11.22-1.34,16.74a50.52,50.52,0,0,1-16.69,26,22,22,0,0,1-7,3.9c8.87,2.63,16.88,5.14,25.43,5.85a64.44,64.44,0,0,0,25-2.69c-2.09,5.62-5.89,9.06-10.53,11.55a95.57,95.57,0,0,1-26.93,9.19c-.72.14-1.62-.13-2.19,1,12.49,4.25,23.71,10.3,30.79,22.06a1.27,1.27,0,0,1-1.47-.21c-6.09-4.46-13.31-4.48-20.33-5.24-21.58-2.32-40.17,4.67-56.93,17.94-11.9,9.42-22.54,20.21-33.87,30.25-13.35,11.82-28.88,19.44-46.74,21.4s-32.75-4.35-46.06-15.73C31.1,198.56,24.34,185.35,19.44,171c-5.64-16.49-7.13-33.36-3.21-50.43,3.24-14,11.19-25.15,22.76-33.42C70.77,64.52,105.5,56,144,65.7c5.53,1.41,11,3.11,16.71,3.78,7.56.91,14.88.43,20.62-5.72a16.32,16.32,0,0,0,2.58-19.2C183.2,43.34,182.19,42.27,182,40.71Zm9.12,14.6a3.82,3.82,0,0,0-.25,1.89c.43,8.6-3.56,15.08-11.41,18.61a33.09,33.09,0,0,1-13.63,2.74c-7.81,0-15.23-2.18-22.67-4.13C107.12,65,74.42,72.71,44.49,94c-13,9.26-20.1,22.12-21.34,38.12a84.43,84.43,0,0,0,2.65,30.1c4.69,16.41,11.58,31.53,25.68,42.3,13.62,10.42,28.63,14.28,45.44,9.74a83.13,83.13,0,0,0,36.8-21C145.19,182,156.85,171,170,161.76c17.24-12.09,36.14-17.59,57.24-13.14.43.09,1,.42,1.5-.28a158.76,158.76,0,0,0-26-11.58c12.39-2.43,24-6.66,36-11.45a4.65,4.65,0,0,0-3.28-.74c-10.81-.54-21.09-2.79-30.2-9-3.75-2.56-3.83-2.61-.33-5.67,8.16-7.13,13.93-16,18.89-25.51.42-.73,1.52-1.78.58-2.48s-1.56.71-2.27,1.24c-2.06,1.57-4.26,3-6.5,4.33-9,5.47-19.16,7.35-29.34,9.09-.51.07-1.14.26-1.46-.21-.51-.75.4-1,.72-1.4C193.92,84.2,196,72.06,193.23,58.9,193,57.59,192.91,56.07,191.15,55.31Z" transform="translate(-0.07 -0.45)" style="fill:#474747;stroke:#474747;stroke-width:2px"/><path id="Shape-55" data-name="Shape" d="M260,158.9c11.69-1.69,23.16-3.23,34,3.13.71.41,1.5,1.39,2.27.84.95-.74-.09-1.73-.33-2.57-2.19-7.65-6.33-14.4-10-21.36-.82-1.64-1.55-3.31-2.26-5-.26-.56-.48-1.18,0-1.69s1.14,0,1.62.28c9.11,4.76,18.91,7.66,28.75,10.36a8.42,8.42,0,0,0,1.12.07c-3.91-10.09-5.7-21-13.28-29.3a70.38,70.38,0,0,1,26.24,13.55c1.69,1.4,2.29,1.39,2.59-.88a38.07,38.07,0,0,1,8.54-19.84,38.47,38.47,0,0,0,6.32-11.26c.31-.79.48-1.69,1.74-2a84.94,84.94,0,0,0-1,9c-.44,13.88,5.33,24.46,16.9,31.87,6.08,3.89,12.86,6.4,19.25,9.7,18.17,9.34,32.32,22.53,39.46,42.19,4.08,11.26,3.79,22.84,1.63,34.37-5.59,29.69-22.94,50.54-49.22,64.45-19.06,10.09-38.59,9.71-57.82,1-16.06-7.31-25.78-20.51-30.94-37.19a83.19,83.19,0,0,1-3-32.64,103,103,0,0,0,.07-22.82c-1.27-9.64-4.33-18.51-11.27-25.7-2.79-2.91-6.32-4.81-9.64-7C261.19,160.09,260.4,160,260,158.9Zm61.33-28.22a5,5,0,0,0,.42,3.16c2.1,6.69,4.4,13.3,8.14,19.32.64,1,2.21,2.43,1.44,3.28-1,1.08-2.18-.71-3.34-1.11a8.83,8.83,0,0,0-1.23-.4,162.08,162.08,0,0,1-26.2-7.37c-.37-.13-.9-.45-1.12,0a1.8,1.8,0,0,0,.11,1.23c.66,1.88,1.41,3.73,2,5.62,2.08,6.4,3.1,13.17,6.62,19.07a1,1,0,0,1,0,1.18c-.41.52-.95.32-1.4.07a39.15,39.15,0,0,0-4-2.32c-5.42-2.3-11-4.19-16.6-6-2.36-.76-4.65-1.81-7.46-2a9.64,9.64,0,0,0,.87,1.15c6.73,6.82,10,15.23,11.43,24.53a103.91,103.91,0,0,1,.29,25.17,80.11,80.11,0,0,0,2.22,29.61c9.74,34.68,42.75,44.16,66.41,36.24,30-10,49.07-31.26,55.19-62.92,2.19-11.3,2-22.56-2.91-33.37-6.52-14.33-17.44-24.34-30.9-31.89-6.8-3.82-14.2-6.44-20.91-10.43-8.72-5.19-16-11.63-18.77-21.89-.06-.19-.36-.31-.66-.56a23,23,0,0,0-3.18,7.92c-.86,3.87-1.58,7.78-2.28,11.68-.32,1.69-1.12,1.49-2.12.68-1.94-1.58-3.86-3.19-5.79-4.79a43.21,43.21,0,0,0-6.28-4.92Z" transform="translate(-0.07 -0.45)" style="fill:#474747;stroke:#474747;stroke-width:2px"/><path id="Shape-56" data-name="Shape" d="M283,14.89c1.27,13-10,58.86-16.19,66.24C264.91,73,272.6,41.5,283,14.89Z" transform="translate(-0.07 -0.45)" style="fill:#474747;stroke:#474747;stroke-width:2px"/><path id="Shape-57" data-name="Shape" d="M243.39,10.77c.06-.49,0-1.26.5-1.34.88-.13,2.23,9.66,2.76,13.87,1.52,12,3,24.05,3.8,36.14A69.88,69.88,0,0,1,249,77.63a81.25,81.25,0,0,1-4.13-19.13C243.73,42.66,243.39,10.77,243.39,10.77Z" transform="translate(-0.07 -0.45)" style="fill:#474747;stroke:#474747;stroke-width:2px"/><path id="Shape-58" data-name="Shape" d="M287.56,76.45c7.26-15.92,20.34-26.86,32.95-38.18C311.15,52.38,302.32,66.93,287.56,76.45Z" transform="translate(-0.07 -0.45)" style="fill:#474747;stroke:#474747;stroke-width:2px"/><path id="Shape-59" data-name="Shape" d="M342.07,67.19c-1.41,2.56-3.77,3.37-5.7,4.59a197.13,197.13,0,0,1-34.7,17.39c-1.47.55-3.75,1.68-4.48.23s1.63-2.53,2.92-3.29C313.3,78.32,327,71.62,342.07,67.19Z" transform="translate(-0.07 -0.45)" style="fill:#474747;stroke:#474747;stroke-width:2px"/><path id="Shape-60" data-name="Shape" d="M191.15,55.31c1.76.76,1.84,2.29,2.13,3.54,2.79,13.16.68,25.29-7.77,36.05-.32.4-1.22.64-.72,1.39.32.48,1,.3,1.46.21,10.22-1.71,20.31-3.62,29.34-9.09a71.23,71.23,0,0,0,6.5-4.33c.7-.53,1.38-1.89,2.28-1.24s-.19,1.74-.58,2.49c-5,9.49-10.74,18.37-18.9,25.51-3.5,3.06-3.42,3.1.33,5.66,9.11,6.22,19.37,8.46,30.2,9a4.54,4.54,0,0,1,3.28.74c-12,4.76-23.59,9-36,11.44a159.13,159.13,0,0,1,26.05,11.58c-.52.73-1.08.39-1.51.29-21.1-4.46-40,1-57.24,13.14-13.14,9.22-24.79,20.23-36.26,31.41a83.22,83.22,0,0,1-36.81,21c-16.85,4.6-31.79.78-45.48-9.68-14.1-10.77-21-25.89-25.68-42.3a84.53,84.53,0,0,1-2.68-30.12c1.24-16,8.31-28.85,21.35-38.11,29.93-21.27,62.62-29,98.69-19.55,7.43,2,14.91,4.19,22.68,4.13a33,33,0,0,0,13.65-2.73c7.83-3.56,11.84-10,11.41-18.61A3.82,3.82,0,0,1,191.15,55.31Zm-30.16,90c-.8-4.36-2.56-5.86-7-5.83-2,0-4.11.23-6.16.34-3.33-.05-6.17,1.4-8.77,3.19-3.13,2.1-3.58,5.55-1.31,8.57,2.76,3.68,6.53,3.77,10.55,2.89,6.21-1.32,10.55-6.28,16.77-8.1-1.45-1.38-2.88-.58-4-1.07Zm-35.16,6.61q4.08-7.52-4.45-8a8.85,8.85,0,0,1-1.07-.15c-.39-.06-.46-.39-.61-.35-4.86,1.63-9.59,3.61-13.22,7.38s-2.45,8.86,2.3,10.7c5.66,2.21,15.32-2,17.64-7.7C126.82,152.9,127.11,152.15,125.83,151.9Zm16.87,18c-1.68-.79-2.14-2.94-4-3.49-2.54-.82-4.94-.3-7.35.49-.48-.09.14-2.23-1.22-.7-1.66,1.8-3.91,2.44-6.16,3.1a30.7,30.7,0,0,0-4.39,1.5,7,7,0,0,0-4.22,7.1,7.94,7.94,0,0,0,5.6,6.51,12,12,0,0,0,7.63-.51c6.95-2.54,12.09-7.59,17.24-12.6a2.34,2.34,0,0,0,.86-2.14c-1.48-.55-2.61.74-4,.7Zm-42.91-1.68c-2.1-.06-2.85-1.18-3.18-3.23-.62-3.93-3.45-6.2-7.52-6.5-4.88-1.73-9.72-3.6-15-3.94a14.53,14.53,0,0,0-3.36.13c-5.14.91-7.13,5.31-3.94,9.41,2.58,3.32,5.43,6.59,9.4,8.35a27.87,27.87,0,0,0,21.49.79,15,15,0,0,0,7.28-5c-1.9-.63-3.58.47-5.22,0ZM80.61,182.54c-.36-.21-.72-.63-1.07-.62-4.28,0-8.06-1.78-12-3.27-3.23-1.2-6.33-2.86-9.9-2.85-4.87,0-7.61,4.09-5.72,8.58a14.88,14.88,0,0,0,3.92,5.4,52.18,52.18,0,0,0,7,4.88c11.78,7.38,23.76,7.09,35.7.72a20.52,20.52,0,0,0,8-6.67c-3.57.18-6.3,2-9.39,1.95a9.85,9.85,0,0,0-2.29-.3c-1.7.17-2.78,0-3.28-2.1-.59-2.53-2.76-3.9-5.26-4.49-1.91-.46-3.87-.81-5.79-1.2Zm-37.06-14c.69.4,1.72,1.21,2.67.39s.27-2.06-.3-3a14.43,14.43,0,0,0-1.7-2.61c-2.86-3.05-3.26-6.65-2.38-10.42.75-3.18-1-5.61-1.91-8.29A2.89,2.89,0,0,0,37,142.84c-1.16,0-1.23,1.36-1.53,2.18C32.74,152.22,36.82,164.22,43.55,168.57ZM41.08,130.5a13.85,13.85,0,0,0-1.3,5.37c-.33,6.74,3.81,11.64,7,16.91a.86.86,0,0,0,1.09.46c.76-.36.45-1,.26-1.58a98.67,98.67,0,0,1-2.54-10.58,3.45,3.45,0,0,1,.38-2.93c1.36-2,3-3.9,2-6.63a.92.92,0,0,1,.16-.65c1.62-.1,1.47-1,.91-2a3.17,3.17,0,0,0-3.25-1.7C43.72,127.33,42.26,128.64,41.08,130.5Zm20.46,13.15a6.88,6.88,0,0,0-7.33,6.91,18.49,18.49,0,0,0,2.59,9.65c.48.87.86,2.38,2,2,1.36-.37.28-1.78.25-2.71C58.91,154.16,57.44,148.63,61.54,143.65ZM45.06,115.28c-2-1.22-3.85-2.07-5.85-.72a11.55,11.55,0,0,0-4.9,7.67c-.14.79-.19,1.63.61,2.08s1.37-.37,1.93-.84C39.62,120.89,41.79,117.72,45.06,115.28Z" transform="translate(-0.07 -0.45)" style="fill:#fee9a9"/><path id="Shape-61" data-name="Shape" d="M321.81,129.8a43.6,43.6,0,0,1,6.31,4.94c1.93,1.6,3.85,3.21,5.79,4.78,1,.82,1.79,1,2.11-.67.71-3.91,1.43-7.81,2.29-11.68a22.92,22.92,0,0,1,3.17-7.92c.31.25.62.36.66.56,2.81,10.26,10.06,16.7,18.77,21.89,6.72,4,14.12,6.61,20.92,10.43,13.46,7.55,24.38,17.54,30.89,31.89,4.9,10.81,5.1,22.07,2.92,33.37-6.12,31.66-25.18,52.87-55.2,62.92-23.66,7.92-56.68-1.55-66.41-36.24a80.44,80.44,0,0,1-2.24-29.63,104.08,104.08,0,0,0-.31-25.13c-1.39-9.3-4.69-17.72-11.43-24.53a8.75,8.75,0,0,1-.83-1.25c2.79.23,5,1.26,7.46,2,5.6,1.8,11.18,3.69,16.6,6a41.18,41.18,0,0,1,4,2.33c.45.25,1,.44,1.41-.07a1,1,0,0,0,0-1.18c-3.52-5.91-4.54-12.67-6.62-19.08-.6-1.89-1.36-3.74-2-5.62a1.77,1.77,0,0,1-.11-1.22c.27-.47.75-.18,1.12,0A162.93,162.93,0,0,0,327.24,154a9.15,9.15,0,0,1,1.22.4c1.16.4,2.36,2.19,3.34,1.1.76-.82-.8-2.25-1.44-3.28-3.74-6-6-12.62-8.14-19.32A5,5,0,0,1,321.81,129.8Zm80.73,79.43c-3.06-1.31-5.22-1-6.55.83s-.89,3.94,1.09,6.27c-.34,2.79.24,3.27,2.83,2.2a23.59,23.59,0,0,0,4.15-2.06,3.51,3.51,0,0,0,1.66-4C405.3,210.81,404.61,209.27,402.54,209.23Zm-21.93,21.2c-.13.79-1.64,1.37-.32,2.39,2.54,2,7.87,2.24,10.64.54s3.21-4.45.93-6.87a10.77,10.77,0,0,0-7.69-2.13C380.56,224.68,379.19,227.05,380.61,230.43Zm-.9,6.51a15,15,0,0,0-10.91-3c-3.54.41-4.8,2-4.32,5.5-.45.77-3.78-.1-1.57,2,3.27,3,7.07,5.24,12,4.15,3.89-.85,6.25-3.74,5.83-7.6C380.7,237.35,380.53,236.85,379.71,236.94Zm-46-17.71c-1.15,0-1.47-1.76-2.58-1.32-.78.3-.59,1.41-.45,2.12,1.2,6.34,3.72,11.83,9.93,14.79,4.26,2,8,1.63,9.93-1,2.06-2.78,1.4-5.8-2.11-9.63a21.73,21.73,0,0,0-4.76-6.07C340,215.15,336.18,215.55,333.7,219.23Zm-27.18-15.56c-1.08-.92-.82-2.4-1.46-3.47-.23-.38-.45-.8-.94-.77a1,1,0,0,0-.84.86,9.77,9.77,0,0,0-.32,1.78c-.35,6.51,5.15,15.45,11.13,18.12,3.52,1.57,6.76-.09,7.3-3.87.81-5.49-1.18-10.17-4.46-14.4a1.7,1.7,0,0,0-2-.83C310.67,198.84,308.54,198.5,306.52,203.67Zm41,47.45-2.34-1c-.56-.25-1.28-.62-1.71-.22-.62.59,0,1.26.33,1.84a19.8,19.8,0,0,0,22.18,10c2.49-.57,6.45-4.58,6.37-6.9-.11-3.07-2-5-4.85-6.09-2-.78-4-1.65-6-2.33-.64-.21-1.62-.93-2.1.41a16.11,16.11,0,0,0-4.75-1C350.37,245.6,348.35,247.12,347.55,251.12Zm-27.86-17.57c-5.07-3.21-6.78-3-9.72,1.24-2.31-2.72-3.56-6-5.09-9.19-.53-1.08-.74-2.35-2.13-3.27-.22,3.84.61,7.28.87,10.65.7,9.64,4.06,18.18,11,25.1a23.05,23.05,0,0,0,10.23,6.38c6.43,1.74,11.72-3.22,10.43-9.75a13.65,13.65,0,0,0-2.23-5.21q-6.06-8.56-12.16-17.09c-.22-.3-.47-.75-1-.58C319.52,232.4,320.22,233.05,319.69,233.55ZM403.2,222c-.2,2.9-2.29,4.29-3.51,6.25-3,4.78-6.46,9.18-11.9,11.48a5.37,5.37,0,0,0-1.09.68c-.39.31-.95.61-.54,1.23.28.43.77.36,1.18.21,4.37-1.56,8.83-3,12.53-6C404.2,232.28,405.44,226.33,403.2,222Z" transform="translate(-0.07 -0.45)" style="fill:#fee9a9"/><path id="Shape-62" data-name="Shape" d="M97.19,190.66c3.09.05,5.83-1.77,9.39-1.95a20.52,20.52,0,0,1-8,6.67c-11.94,6.37-23.92,6.66-35.71-.68a52.18,52.18,0,0,1-7-4.88,14.88,14.88,0,0,1-3.92-5.4c-1.89-4.49.85-8.55,5.72-8.58,3.57,0,6.68,1.65,9.9,2.85,3.88,1.47,7.65,3.26,12,3.27.36,0,.71.41,1.08.62-5.25,3.09-10.71,2.55-16.43.74C71.18,190.71,85,195.64,97.19,190.66Z" transform="translate(-0.07 -0.45)" style="fill:#474747;stroke:#474747;stroke-width:2px"/><path id="Shape-63" data-name="Shape" d="M99.78,168.2c1.64.46,3.32-.64,5.2,0a15.08,15.08,0,0,1-7.29,5,27.89,27.89,0,0,1-21.48-.79c-4-1.87-6.82-5.09-9.36-8.44-3.17-4.14-1.21-8.5,3.94-9.4a14.54,14.54,0,0,1,3.36-.14c5.24.35,10.08,2.22,15,3.95-2.66,2.83-6.22,3.24-9.93,3.58C84.7,169.13,91.71,170.41,99.78,168.2Z" transform="translate(-0.07 -0.45)" style="fill:#474747;stroke:#474747;stroke-width:2px"/><path id="Shape-64" data-name="Shape" d="M142.7,169.85c1.34,0,2.47-1.25,3.89-.73a2.33,2.33,0,0,1-.86,2.13c-5.15,5-10.29,10.07-17.24,12.6a11.85,11.85,0,0,1-7.57.55,7.93,7.93,0,0,1-5.59-6.5,7,7,0,0,1,4.22-7.11,30.2,30.2,0,0,1,4.34-1.53c2.25-.67,4.5-1.31,6.17-3.11,1.38-1.51.75.58,1.22.71a13.56,13.56,0,0,1-5.82,7.67,33.91,33.91,0,0,0,6.52.55C136.43,175,139.3,171.94,142.7,169.85Z" transform="translate(-0.07 -0.45)" style="fill:#474747;stroke:#474747;stroke-width:2px"/><path id="Shape-65" data-name="Shape" d="M125.83,151.9c1.29.28,1,1,.63,1.92-2.31,5.67-12,9.91-17.64,7.71-4.72-1.83-5.95-6.9-2.29-10.7s8.35-5.75,13.21-7.39c.15-.05.41.24.61.36-1,1.47-1.69,3.15-3,4.47-2.34,2.4-2,3.22,1.06,4.74,2.1,1,3.92,1.39,5.82-.26A7.68,7.68,0,0,1,125.83,151.9Z" transform="translate(-0.07 -0.45)" style="fill:#474747;stroke:#474747;stroke-width:2px"/><path id="Shape-66" data-name="Shape" d="M161,145.28c1.16.49,2.59-.31,4,1.05-6.22,1.81-10.56,6.77-16.77,8.09-4,.88-7.79.79-10.55-2.89-2.27-3-1.82-6.47,1.31-8.57,2.64-1.77,5.47-3.22,8.77-3.18l-5.62,4.95C148.65,147.1,154.79,146.68,161,145.28Z" transform="translate(-0.07 -0.45)" style="fill:#474747;stroke:#474747;stroke-width:2px"/><path id="Shape-67" data-name="Shape" d="M97.19,190.66c-12.2,5-26,0-33.06-7.35,5.77,1.84,11.22,2.36,16.44-.74,1.93.4,3.88.74,5.79,1.2,2.49.6,4.65,1.95,5.26,4.49.5,2.14,1.57,2.29,3.28,2.1A9.85,9.85,0,0,1,97.19,190.66Z" transform="translate(-0.07 -0.45)" style="fill:#fffffe"/><path id="Shape-68" data-name="Shape" d="M43.55,168.57c-6.73-4.35-10.81-16.35-8.11-23.52.31-.83.4-2.15,1.54-2.18a2.9,2.9,0,0,1,3,1.8c.92,2.68,2.65,5.11,1.9,8.29-.88,3.76-.44,7.39,2.38,10.42a14.36,14.36,0,0,1,1.7,2.6c.59,1,1.4,2.08.3,3C45.27,169.78,44.24,169,43.55,168.57Z" transform="translate(-0.07 -0.45)" style="fill:#474747;stroke:#474747;stroke-width:2px"/><path id="Shape-69" data-name="Shape" d="M41.08,130.5c1.21-1.84,2.64-3.17,4.81-3.35a3.17,3.17,0,0,1,3.25,1.7c.57,1,.71,1.91-.91,2a.91.91,0,0,0-.16.66c1,2.73-.68,4.64-2.06,6.64a3.44,3.44,0,0,0-.4,2.94,98.1,98.1,0,0,0,2.54,10.58c.19.55.46,1.2-.26,1.58a.85.85,0,0,1-1.08-.48c-3.24-5.27-7.4-10.13-7-16.91A13.81,13.81,0,0,1,41.08,130.5Z" transform="translate(-0.07 -0.45)" style="fill:#474747;stroke:#474747;stroke-width:2px"/><path id="Shape-70" data-name="Shape" d="M99.78,168.2c-8.1,2.25-15.11.92-20.64-6.14,3.67-.35,7.27-.75,9.93-3.58,4.07.3,6.9,2.57,7.52,6.49C96.92,167,97.68,168.13,99.78,168.2Z" transform="translate(-0.07 -0.45)" style="fill:#fffffe"/><path id="Shape-71" data-name="Shape" d="M161,145.28c-6.19,1.37-12.35,1.82-18.78-.51l5.62-5c2-.12,4.11-.32,6.16-.35C158.43,139.42,160.2,140.93,161,145.28Z" transform="translate(-0.07 -0.45)" style="fill:#fffffe"/><path id="Shape-72" data-name="Shape" d="M142.7,169.85c-3.4,2.09-6.27,5.12-10.72,5.22a33.54,33.54,0,0,1-6.48-.6,13.54,13.54,0,0,0,5.81-7.67c2.41-.79,4.81-1.31,7.34-.5C140.56,166.92,141,169.07,142.7,169.85Z" transform="translate(-0.07 -0.45)" style="fill:#fffffe"/><path id="Shape-73" data-name="Shape" d="M125.83,151.9a7.68,7.68,0,0,0-1.57.85c-1.9,1.65-3.73,1.31-5.82.26-3.09-1.52-3.4-2.34-1.06-4.74,1.28-1.32,2-3,3-4.47.35,0,.68.1,1.07.14Q129.89,144.33,125.83,151.9Z" transform="translate(-0.07 -0.45)" style="fill:#fffffe"/><path id="Shape-74" data-name="Shape" d="M61.54,143.65c-4.11,5-2.62,10.53-2.49,15.89,0,.92,1.1,2.28-.25,2.7-1.15.36-1.52-1.15-2-2a18.52,18.52,0,0,1-2.6-9.65,6.88,6.88,0,0,1,7.34-6.92Z" transform="translate(-0.07 -0.45)" style="fill:#474747;stroke:#474747;stroke-width:2px"/><path id="Shape-75" data-name="Shape" d="M45.06,115.28c-3.27,2.44-5.44,5.61-8.2,8.2-.57.51-1,1.34-1.93.84s-.76-1.29-.61-2.09a11.52,11.52,0,0,1,4.9-7.67C41.21,113.21,43.1,114.06,45.06,115.28Z" transform="translate(-0.07 -0.45)" style="fill:#474747;stroke:#474747;stroke-width:2px"/><path id="Shape-76" data-name="Shape" d="M319.19,234.42c.53-.51-.17-1.15.18-1.69.55-.2.8.24,1,.58q6.11,8.53,12.16,17.09a13.65,13.65,0,0,1,2.23,5.21c1.29,6.52-4,11.53-10.43,9.75A23,23,0,0,1,314.1,259c-6.94-6.92-10.32-15.43-11-25.1-.24-3.42-1.09-6.8-.87-10.65,1.39.92,1.63,2.21,2.13,3.27,1.51,3.19,2.78,6.47,5.09,9.19A34.71,34.71,0,0,0,329.88,257a19.54,19.54,0,0,0-3-8C323.91,244.39,320.75,239.81,319.19,234.42Z" transform="translate(-0.07 -0.45)" style="fill:#474747;stroke:#474747;stroke-width:2px"/><path id="Shape-77" data-name="Shape" d="M319.19,234.42c1.52,5.37,4.72,10,7.7,14.66a19.64,19.64,0,0,1,3,8,34.67,34.67,0,0,1-20.39-21.38C312.41,231.45,314.16,231.23,319.19,234.42Z" transform="translate(-0.07 -0.45)" style="fill:#fffffe"/><path id="Shape-78" data-name="Shape" d="M358.93,247.61c.45-1.3,1.46-.62,2.09-.4,2,.68,4,1.55,6,2.33,2.83,1.09,4.73,3,4.84,6.09.06,2.35-3.87,6.32-6.36,6.9a19.81,19.81,0,0,1-22.2-10c-.33-.58-.95-1.25-.34-1.84.43-.4,1.17,0,1.71.22l2.34,1c4.71,4.16,10.17,4.39,15.95,3.06.95-.23,2.34,0,2.62-1.26.32-1.38-1-2-1.86-2.78C362.24,249.72,360.11,249.34,358.93,247.61Z" transform="translate(-0.07 -0.45)" style="fill:#474747;stroke:#474747;stroke-width:2px"/><path id="Shape-79" data-name="Shape" d="M314.42,201.9a1.7,1.7,0,0,1,2,.82c3.33,4.24,5.25,8.9,4.46,14.41-.55,3.79-3.79,5.45-7.3,3.86-6-2.67-11.48-11.6-11.13-18.12a9.77,9.77,0,0,1,.32-1.78,1,1,0,0,1,.84-.85c.49,0,.7.4.94.76.67,1.09.43,2.56,1.46,3.47a1.2,1.2,0,0,0,0,.5c2.28,5.22,7.23,7.64,11.42,10.82.8.61,1.07-.19,1.08-.81a14,14,0,0,0-.19-2.82C317.67,208.55,316,205.24,314.42,201.9Z" transform="translate(-0.07 -0.45)" style="fill:#474747;stroke:#474747;stroke-width:2px"/><path id="Shape-80" data-name="Shape" d="M347.92,225.07c3.55,3.85,4.15,6.83,2.12,9.63-2,2.62-5.67,3-9.93,1-6.22-3-8.72-8.5-9.94-14.8-.13-.71-.32-1.82.45-2.11,1.12-.45,1.47,1.32,2.59,1.31,2.74,5.43,7.45,8.61,12.72,11.18,2.12,1,2.42.78,2.52-1.53C348.54,228.15,347.19,226.72,347.92,225.07Z" transform="translate(-0.07 -0.45)" style="fill:#474747;stroke:#474747;stroke-width:2px"/><path id="Shape-81" data-name="Shape" d="M347.92,225.07c-.73,1.65.56,3.05.52,4.67-.08,2.27-.4,2.56-2.51,1.53-5.27-2.57-10-5.76-12.73-11.18,2.49-3.66,6.27-4.08,10-1.09A21.88,21.88,0,0,1,347.92,225.07Z" transform="translate(-0.07 -0.45)" style="fill:#fffffe"/><path id="Shape-82" data-name="Shape" d="M358.93,247.61c1.18,1.73,3.31,2.11,4.81,3.39.89.77,2.2,1.41,1.86,2.78-.27,1.21-1.67,1-2.62,1.25-5.73,1.31-11.24,1.11-16-3.05.8-4,2.82-5.52,7.12-5.38A16.58,16.58,0,0,1,358.93,247.61Z" transform="translate(-0.07 -0.45)" style="fill:#fffffe"/><path id="Shape-83" data-name="Shape" d="M314.42,201.9c1.56,3.3,3.27,6.63,3.91,10.33a14.85,14.85,0,0,1,.18,2.82c0,.62-.28,1.42-1.08.81-4.16-3.22-9.14-5.6-11.42-10.82a1.6,1.6,0,0,1,0-.49C308,199.36,310.17,199.71,314.42,201.9Z" transform="translate(-0.07 -0.45)" style="fill:#fffffe"/><path id="Shape-84" data-name="Shape" d="M402.7,222.84c2.25,4.34,1,10.28-3.36,13.82-3.7,3-8.15,4.45-12.54,6-.4.15-.9.23-1.18-.21-.4-.63.16-.93.55-1.23a5.58,5.58,0,0,1,1.09-.69c5.45-2.29,8.9-6.69,11.89-11.48C400.4,227.15,402.49,225.76,402.7,222.84Z" transform="translate(-0.07 -0.45)" style="fill:#474747;stroke:#474747;stroke-width:2px"/><path id="Shape-85" data-name="Shape" d="M364,240.35c-.51-3.5.75-5.1,4.33-5.49a15,15,0,0,1,10.9,3,5.41,5.41,0,0,1-5.51,3.75C370.37,241.71,367.23,240.76,364,240.35Z" transform="translate(-0.07 -0.45)" style="fill:#fffffe"/><path id="Shape-86" data-name="Shape" d="M364,240.35c3.23.41,6.36,1.36,9.67,1.25,2.71-.08,4.59-1.2,5.51-3.74.83-.09,1,.41,1.06,1.1.43,3.86-1.93,6.74-5.82,7.59-4.91,1.06-8.75-1.07-12-4.14C360.23,240.26,363.54,241.11,364,240.35Z" transform="translate(-0.07 -0.45)" style="fill:#474747;stroke:#474747;stroke-width:2px"/><path id="Shape-87" data-name="Shape" d="M391.36,227.36c2.26,2.45,1.92,5.12-.93,6.86s-8.1,1.42-10.64-.53c-1.32-1,.19-1.6.32-2.39,1.94-.24,3.89-.42,5.82-.73C388.15,230.22,390.34,229.75,391.36,227.36Z" transform="translate(-0.07 -0.45)" style="fill:#474747;stroke:#474747;stroke-width:2px"/><path id="Shape-88" data-name="Shape" d="M391.36,227.36c-1,2.38-3.21,2.86-5.43,3.21-1.93.31-3.88.49-5.82.73-1.41-3.38,0-5.8,3.5-6.06A10.67,10.67,0,0,1,391.36,227.36Z" transform="translate(-0.07 -0.45)" style="fill:#fffffe"/><path id="Shape-89" data-name="Shape" d="M402,210.1c2.07,0,2.76,1.59,3.21,3.16a3.53,3.53,0,0,1-1.67,4,23.84,23.84,0,0,1-4.14,2.06c-2.59,1.07-3.18.6-2.83-2.2C398.12,214.57,401.46,213.4,402,210.1Z" transform="translate(-0.07 -0.45)" style="fill:#474747;stroke:#474747;stroke-width:2px"/><path id="Shape-90" data-name="Shape" d="M402,210.1c-.58,3.3-3.92,4.47-5.43,7.05-2-2.3-2.36-4.5-1.1-6.26S399,208.79,402,210.1Z" transform="translate(-0.07 -0.45)" style="fill:#fffffe"/></g><path id="Shape-91" data-name="Shape" d="M117.15,167.8a107.07,107.07,0,0,1-15.23,3.51,19.21,19.21,0,0,1-3.9,1.88,27.89,27.89,0,0,1-21.48-.79,16.3,16.3,0,0,1-1.5-.77,78.84,78.84,0,0,1-29-9.84c-1.28-.74-2.57-1.55-3.75-2.35a10.09,10.09,0,0,0,2.3,3.88,15.77,15.77,0,0,1,1.58,2.61c.59,1,1.4,2.08.29,3-.92.78-2,0-2.67-.39-4.31-2.78-7.52-8.71-8.57-14.5a60.34,60.34,0,0,1-12.12-15,81.43,81.43,0,0,0,3,23.08c4.7,16.41,11.57,31.52,25.68,42.3,13.61,10.41,28.66,14.24,45.44,9.73a83,83,0,0,0,36.8-21c11.47-11.19,23.13-22.2,36.27-31.42,17.23-12.09,36.13-17.59,57.24-13.14.43.09,1,.42,1.49-.29-5.28-2.85-10.56-5.5-16.06-7.84C180.19,144,148.27,158.21,117.15,167.8Zm-18.3,27.54c-12,6.33-23.91,6.69-35.69-.7a50.94,50.94,0,0,1-7-4.88,15,15,0,0,1-3.94-5.41c-1.88-4.48.85-8.55,5.73-8.56,3.58,0,6.69,1.64,9.9,2.85,3.89,1.46,7.65,3.26,12,3.26.35,0,.71.41,1.07.62,1.93.39,3.89.74,5.8,1.2,2.49.61,4.65,1.95,5.26,4.49.5,2.13,1.56,2.28,3.28,2.1a9.77,9.77,0,0,1,2.28.3c3.09.06,5.83-1.77,9.39-2a20.41,20.41,0,0,1-8,6.67ZM146,171.24c-5.15,5-10.29,10.06-17.24,12.6a12,12,0,0,1-7.63.52,8,8,0,0,1-5.59-6.5,7,7,0,0,1,4.22-7.11,29.91,29.91,0,0,1,4.41-1.54c2.24-.67,4.51-1.3,6.16-3.11,1.39-1.5.76.59,1.22.71,2.4-.78,4.81-1.3,7.35-.49,1.88.6,2.33,2.75,4,3.54,1.34,0,2.48-1.26,3.89-.74a2.32,2.32,0,0,1-.78,2.09Z" transform="translate(-0.07 -0.45)" style="fill:#e8cf83"/><path id="Shape-92" data-name="Shape" d="M374,256.32c-.66,0-1.32-.08-2-.13-.5,2.35-4,5.78-6.27,6.28a19.8,19.8,0,0,1-22.19-10c-.33-.58-1-1.26-.34-1.85.42-.4,1.16,0,1.71.23l2.34,1a9.23,9.23,0,0,1,.92-2.66c-12-6.37-22-16.5-29.6-28.26a5.33,5.33,0,0,1-4.81,0c-6-2.66-11.48-11.6-11.13-18.11a10.06,10.06,0,0,1,.28-1.8,1,1,0,0,1,.83-.86c.5,0,.71.41.95.76.67,1.09.44,2.56,1.5,3.5a8.74,8.74,0,0,1,2.06-3.43c-6.48-14.78-13-30.52-28.49-36.65-.28,0-.54-.07-.83-.09a7.5,7.5,0,0,0,.84,1.24c6.73,6.83,10,15.24,11.43,24.53a103.74,103.74,0,0,1,.32,25.21,80.16,80.16,0,0,0,2.25,29.62c9.73,34.68,42.74,44.17,66.4,36.25,17.58-5.92,31.41-15.66,41.07-29.08A68,68,0,0,1,374,256.32Zm-39-.8c1.31,6.53-4,11.48-10.42,9.74a23.17,23.17,0,0,1-10.2-6.34c-6.93-6.93-10.31-15.45-11-25.1-.24-3.43-1.1-6.82-.87-10.66,1.38.92,1.62,2.21,2.13,3.27,1.52,3.18,2.78,6.46,5.09,9.19,2.94-4.2,4.7-4.43,9.72-1.25.52-.5-.17-1.14.17-1.68.55-.21.81.24,1,.57q6.1,8.53,12.17,17.11A13.33,13.33,0,0,1,335,255.52Z" transform="translate(-0.07 -0.45)" style="fill:#e8cf83"/></g></g></svg>