<svg id="Layer_1" data-name="Layer 1" xmlns="http://www.w3.org/2000/svg" viewBox="0 0 321 443"><title>nut-cracked</title><g id="Layer_2" data-name="Layer 2"><g style="opacity:0.12"><path d="M161.79,223.65c2.86,6.46,6.45,12.72,5.63,20.22a1.3,1.3,0,0,0,.55,1.39c6.65-12,6.27-24.76,3.71-37.7,1.23-.05,1.45.86,1.93,1.41A95.26,95.26,0,0,0,195,227.73c4.48,2.78,9.36,4.34,15.27,3.35a64.31,64.31,0,0,1-14.82-20.3c-3.62-7.76-5.5-16-7.66-24.95a22,22,0,0,0,6.88,4.11,50.55,50.55,0,0,0,30.88,1.45c5.54-1.45,10.39-4.24,15.17-7.21.9-.56,2.21-1.37,1.88-2.51-.26-.91-1.66-.45-2.57-.44a39.7,39.7,0,0,1-16.47-2.92c-8-3.46-15-8.52-22.12-13.5-.27-.19-.56-.42-.32-.89a3.76,3.76,0,0,1,.67-.12c15,.25,26.67-5.58,34.33-18.78,3.1-5.34,4.33-10.89,2.24-16.94-1.26.89-1.69,2.33-2.42,3.56a16.31,16.31,0,0,1-17.88,7.44c-8.2-1.92-12.23-8-15.27-15-2.27-5.27-3.53-10.87-5.08-16.36-10.82-38.18-35.6-64-71.1-80.22-13-5.91-26.57-7.23-40.32-3-16.75,5.12-30.61,14.85-42.07,28-10,11.41-18,23.87-20.87,39.15-3.2,17.21-1.14,33.4,9.4,47.75s25,24.13,41.91,29.78c14.36,4.79,29,8.61,43.13,14.21C137.66,191.2,153,203.8,161.79,223.65Z" transform="translate(0.03 -0.03)" style="fill:#6a374f;stroke:#6a374f;stroke-linecap:round;stroke-linejoin:round;stroke-width:28px"/><path d="M273.86,297a38.59,38.59,0,0,1-12.91.16,38,38,0,0,0-21.38,2.51c-2.12.88-2.43.36-2.06-1.8a70.43,70.43,0,0,0-1.38-29.5c-3.44,10.74-12,17.72-18.74,26.15a7.77,7.77,0,0,1-.5-1c-2.58-9.88-5-19.81-5.4-30.08,0-.56.22-1.31-.57-1.55s-1.12.32-1.48.82c-1.07,1.47-2.19,2.91-3.16,4.44-4.2,6.66-8,13.62-13.5,19.34-.61.63-.95,2-2.06,1.57-.87-.35-.41-1.57-.4-2.39.08-12.51-7-21.68-14.3-31-.77,1-.43,1.66-.46,2.33-.2,4-.13,8-1.25,11.85-2.76,9.57-8.91,16.69-16.63,22.61a102,102,0,0,1-19.79,11.35,83.08,83.08,0,0,0-26.76,18.93c-11.87,12.81-18.44,27.82-16.73,45.39,2,21,11.47,38.12,29.74,49.59,25.18,15.8,51.91,20.43,80.42,10.4,11.07-3.9,21.24-9.43,28.95-18.6,13.46-16,17.77-34.86,16.81-55.27-.34-7.18-1.55-14.31-1.22-21.52.63-13.73,6.86-24,19.1-30.57a82.67,82.67,0,0,1,8.28-3.67C275.56,296.55,274.7,296.85,273.86,297Z" transform="translate(0.03 -0.03)" style="fill:#6a374f;stroke:#6a374f;stroke-linecap:round;stroke-linejoin:round;stroke-width:20px"/><path d="M311.22,202.57c-28.25,4.34-59.34,13.43-65.46,19.1C255.21,223.3,300.6,210.16,311.22,202.57Z" transform="translate(0.03 -0.03)" style="fill:#6a374f;stroke:#6a374f;stroke-linecap:round;stroke-linejoin:round;stroke-width:18px"/><path d="M256.33,196.7c10.06-6.76,19.75-14,29.4-21.36,3.38-2.57,6.64-5.29,9.93-8,.4-.33,1.26-.66.7-1.36-.33-.41-.95.05-1.41.24h0c-10.35,5.95-20.58,12.1-30.62,18.55q-5,3.22-10,6.57a81.49,81.49,0,0,0-14.5,13.14A69.56,69.56,0,0,0,256.33,196.7Z" transform="translate(0.03 -0.03)" style="fill:#6a374f;stroke:#6a374f;stroke-linecap:round;stroke-linejoin:round;stroke-width:18px"/><path d="M260.21,237.34c15.62,8,32.64,8.39,49.54,9.45C293.64,241.53,277.63,235.67,260.21,237.34Z" transform="translate(0.03 -0.03)" style="fill:#6a374f;stroke:#6a374f;stroke-linecap:round;stroke-linejoin:round;stroke-width:18px"/><path d="M253.81,252.16c-.89,1.35,1.23,2.78,2.44,3.76a197.09,197.09,0,0,0,32.41,21.36c2,1.06,3.9,2.7,6.82,2.64-11.37-10.84-24-19.35-37.36-26.88C256.82,252.3,254.66,250.86,253.81,252.16Z" transform="translate(0.03 -0.03)" style="fill:#6a374f;stroke:#6a374f;stroke-linecap:round;stroke-linejoin:round;stroke-width:18px"/><path d="M295.94,166.27c-13.8,7.93-27.38,16.22-40.59,25.12a81.49,81.49,0,0,0-14.5,13.14,70,70,0,0,0,16.48-7.83c10.06-6.76,19.75-14,29.4-21.36,3.38-2.57,6.64-5.29,9.93-8,.4-.33,1.26-.66.7-1.36-.33-.41-.95.05-1.41.24Zm-56.55-38.19c-1.26.89-1.69,2.33-2.42,3.56a16.31,16.31,0,0,1-17.88,7.44c-8.2-1.92-12.23-8-15.27-15-2.27-5.27-3.53-10.87-5.08-16.36-10.82-38.18-35.6-64-71.1-80.22-13-5.91-26.57-7.23-40.32-3-16.75,5.12-30.61,14.85-42.06,28-10,11.41-18,23.87-20.88,39.15-3.2,17.21-1.14,33.4,9.4,47.75s25,24.13,41.91,29.78c14.36,4.79,29,8.61,43.13,14.21,19.84,7.88,35.19,20.48,44,40.33,2.86,6.46,6.45,12.72,5.63,20.22a1.3,1.3,0,0,0,.55,1.39c6.66-12,6.28-24.76,3.71-37.7,1.23,0,1.45.86,1.93,1.41A95.49,95.49,0,0,0,196,227.73c4.48,2.78,9.36,4.34,15.27,3.35a64.31,64.31,0,0,1-14.82-20.3c-3.62-7.76-5.5-16-7.66-24.95a22,22,0,0,0,6.88,4.11,50.55,50.55,0,0,0,30.88,1.45c5.54-1.45,10.39-4.24,15.17-7.21.9-.56,2.21-1.37,1.88-2.51-.26-.91-1.66-.45-2.57-.44a39.7,39.7,0,0,1-16.47-2.92c-8-3.46-15-8.52-22.12-13.5-.27-.19-.56-.42-.32-.89a3.76,3.76,0,0,1,.67-.12c15,.25,26.67-5.58,34.33-18.78C240.25,139.68,241.48,134.13,239.39,128.08ZM176,254.66c-.77,1-.43,1.66-.46,2.33-.2,4-.13,8-1.25,11.85-2.76,9.57-8.91,16.69-16.63,22.61a102,102,0,0,1-19.79,11.35,83.08,83.08,0,0,0-26.76,18.93c-11.87,12.81-18.44,27.82-16.73,45.39,2,21,11.47,38.13,29.74,49.59,25.18,15.8,51.91,20.43,80.42,10.4,11.07-3.9,21.24-9.43,29-18.6,13.46-16,17.77-34.86,16.81-55.27-.34-7.18-1.55-14.31-1.22-21.52.63-13.73,6.86-24,19.1-30.57a82.67,82.67,0,0,1,8.28-3.67c-.92-.93-1.78-.63-2.62-.5a38.59,38.59,0,0,1-12.91.16,38,38,0,0,0-21.38,2.51c-2.12.88-2.43.36-2.06-1.8a70.43,70.43,0,0,0-1.38-29.5c-3.44,10.74-12,17.72-18.74,26.15a7.77,7.77,0,0,1-.5-1c-2.58-9.88-5-19.81-5.4-30.08,0-.56.22-1.31-.57-1.55s-1.12.32-1.48.82c-1.07,1.47-2.19,2.91-3.16,4.44-4.2,6.66-8,13.62-13.5,19.34-.61.63-.95,2-2.06,1.57-.87-.35-.41-1.57-.4-2.39C190.4,273.1,183.33,263.93,176,254.66Zm136.21-52.09c-28.26,4.34-59.34,13.43-65.47,19.1,9.47,1.63,54.86-11.51,65.49-19.1Zm-51,34.77c15.62,8,32.64,8.39,49.54,9.45-16.11-5.26-32.12-11.12-49.54-9.45Zm35.27,42.58c-11.37-10.84-24-19.35-37.35-26.88-1.31-.74-3.47-2.18-4.32-.88s1.23,2.78,2.44,3.76a196.53,196.53,0,0,0,32.42,21.36C291.69,278.34,293.56,280,296.48,279.92Z" transform="translate(0.03 -0.03)" style="fill:#6a374f"/><path d="M238.39,128.08c2.09,6,.86,11.6-2.24,16.94-7.66,13.2-19.32,19-34.33,18.78a3.76,3.76,0,0,0-.67.12c-.24.47,0,.7.32.89,7.08,5,14.1,10,22.12,13.5a39.7,39.7,0,0,0,16.47,2.92c.91,0,2.31-.47,2.57.44.33,1.14-1,2-1.88,2.51-4.78,3-9.63,5.76-15.17,7.21a50.55,50.55,0,0,1-30.88-1.45,22,22,0,0,1-6.88-4.11c2.16,9,4,17.19,7.66,24.95a64.31,64.31,0,0,0,14.82,20.3c-5.91,1-10.79-.57-15.27-3.35A95,95,0,0,1,173.61,209c-.48-.55-.7-1.46-1.93-1.41,2.56,12.94,2.94,25.68-3.71,37.7a1.3,1.3,0,0,1-.55-1.39c.82-7.5-2.77-13.76-5.63-20.22-8.78-19.85-24.13-32.45-44-40.33-14.11-5.6-28.77-9.42-43.13-14.21-16.91-5.65-31.28-15.29-41.91-29.78s-12.6-30.54-9.4-47.75c2.88-15.31,10.94-27.77,20.9-39.18,11.46-13.13,25.32-22.86,42.07-28,13.75-4.2,27.37-2.88,40.32,3,35.5,16.2,60.28,42,71.1,80.22,1.55,5.49,2.81,11.09,5.08,16.36,3,7,7.07,13.1,15.27,15A16.31,16.31,0,0,0,236,131.64C236.7,130.41,237.13,129,238.39,128.08Zm-8.08,15.2a3.76,3.76,0,0,0-1.76.73c-7.23,4.67-14.84,4.45-21.82-.58A33.07,33.07,0,0,1,197.54,133c-3.94-6.75-5.73-14.28-7.76-21.7-9.88-35.95-32.9-60.41-66.28-75.7-14.54-6.66-29.21-6.35-43.68.57A84.67,84.67,0,0,0,55.07,53.52C43.21,65.79,33.56,79.31,31.28,96.91c-2.21,17,1.95,31.93,14.29,44.22A83.15,83.15,0,0,0,82.2,162.48c15.42,4.34,30.78,8.93,45.34,15.7,19.09,8.88,33.3,22.5,40,43,.14.42.13,1.07,1,1.16a158.79,158.79,0,0,0-3-28.35c8.3,9.51,17.78,17.48,27.9,25.43a4.59,4.59,0,0,0-1-3.21c-4.93-9.63-8.12-19.66-7.29-30.66.34-4.53.34-4.62,4.74-3.12,10.26,3.5,20.84,4.06,31.54,3.61.84,0,2.3.42,2.44-.74s-1.4-1-2.21-1.35c-2.39-1-4.69-2.21-7-3.46-9.25-5.09-15.95-12.92-22.54-20.87-.32-.4-.8-.85-.55-1.37.4-.81,1.06-.15,1.57-.07,13.54,1.94,25.09-2.32,35.1-11.3C229.25,146,230.53,145.18,230.31,143.28Z" transform="translate(0.03 -0.03)" style="fill:#6a374f;stroke:#6a374f;stroke-miterlimit:10;stroke-width:2px"/><path d="M175,254.66c7.31,9.27,14.38,18.44,14.29,31,0,.82-.46,2,.41,2.39,1.11.46,1.45-.94,2.06-1.57,5.53-5.72,9.3-12.68,13.5-19.34,1-1.53,2.09-3,3.16-4.44.36-.5.78-1,1.48-.82s.55,1,.57,1.55c.43,10.27,2.82,20.2,5.4,30.08a7.77,7.77,0,0,0,.5,1c6.78-8.43,15.3-15.41,18.74-26.15a70.43,70.43,0,0,1,1.38,29.5c-.37,2.16-.06,2.68,2.06,1.8A38,38,0,0,1,260,297.14a38.59,38.59,0,0,0,12.91-.16c.84-.13,1.7-.43,2.62.5a83.69,83.69,0,0,0-8.28,3.67C255,307.71,248.73,318,248.1,331.72c-.33,7.21.88,14.34,1.22,21.52,1,20.41-3.35,39.26-16.81,55.27-7.71,9.17-17.88,14.7-28.95,18.6-28.51,10-55.24,5.4-80.42-10.4-18.27-11.46-27.71-28.57-29.75-49.59-1.7-17.57,4.87-32.58,16.74-45.39a83.08,83.08,0,0,1,26.76-18.93,102,102,0,0,0,19.79-11.35c7.72-5.92,13.87-13,16.63-22.61,1.12-3.87,1-7.88,1.24-11.85C174.59,256.32,174.25,255.61,175,254.66Zm55.11,39a5,5,0,0,0-2.53,1.94c-4.75,5.17-9.32,10.46-12.66,16.71-.57,1.07-1,3.13-2.13,2.89-1.42-.31-.47-2.24-.71-3.45a8.8,8.8,0,0,0-.26-1.26,162,162,0,0,1-6.72-26.38c-.07-.39-.06-1-.6-.95a1.76,1.76,0,0,0-1,.71c-1.3,1.51-2.53,3.09-3.86,4.56-4.51,5-9.86,9.27-13.21,15.27a1,1,0,0,1-1,.63c-.65-.1-.75-.67-.76-1.18a40.08,40.08,0,0,0,0-4.65c-.72-5.84-1.87-11.62-3.11-17.37-.52-2.42-.76-4.93-2-7.46A9.13,9.13,0,0,0,179,275c-2.54,9.24-8.17,16.31-15.53,22.17A104.09,104.09,0,0,1,141.82,310a80.34,80.34,0,0,0-24.54,16.73c-25.16,25.77-16.87,59.1,1.82,75.63,23.71,21,51.61,26.87,82.09,16.34,10.88-3.76,20.53-9.56,27.44-19.21,9.15-12.81,12.36-27.27,12.17-42.7-.09-7.8-1.52-15.52-1.42-23.33.13-10.14,2.09-19.64,9.57-27.2.14-.14.09-.46.15-.85a22.84,22.84,0,0,0-8.44,1.21c-3.78,1.19-7.53,2.52-11.26,3.86-1.62.57-1.85-.22-1.65-1.49.4-2.47.84-4.94,1.26-7.41a43.84,43.84,0,0,0,1.12-7.9Z" transform="translate(0.03 -0.03)" style="fill:#6a374f;stroke:#6a374f;stroke-miterlimit:10;stroke-width:2px"/><path d="M311.22,202.57c-10.62,7.59-56,20.73-65.46,19.1C251.88,216,283,206.91,311.22,202.57Z" transform="translate(0.03 -0.03)" style="fill:#6a374f;stroke:#6a374f;stroke-miterlimit:10;stroke-width:2px"/><path d="M295,166.25c.46-.19,1.08-.65,1.41-.24.56.7-7.25,6.76-10.63,9.33-9.65,7.32-19.34,14.6-29.4,21.36a70,70,0,0,1-16.48,7.83,81.49,81.49,0,0,1,14.5-13.14C267.56,182.49,295,166.25,295,166.25Z" transform="translate(0.03 -0.03)" style="fill:#6a374f;stroke:#6a374f;stroke-miterlimit:10;stroke-width:2px"/><path d="M260.21,237.34c17.42-1.67,33.43,4.19,49.54,9.45C292.85,245.73,275.83,245.36,260.21,237.34Z" transform="translate(0.03 -0.03)" style="fill:#6a374f;stroke:#6a374f;stroke-miterlimit:10;stroke-width:2px"/><path d="M295.48,279.92c-2.92.06-4.8-1.58-6.82-2.64a197.09,197.09,0,0,1-32.41-21.36c-1.21-1-3.33-2.41-2.44-3.76s3,.14,4.31.88C271.46,260.57,284.11,269.08,295.48,279.92Z" transform="translate(0.03 -0.03)" style="fill:#6a374f;stroke:#6a374f;stroke-miterlimit:10;stroke-width:2px"/><path d="M230.31,143.28c.22,1.9-1.06,2.74-2,3.61-10,9-21.56,13.24-35.1,11.3-.51-.08-1.17-.74-1.57.07-.25.52.23,1,.55,1.37,6.59,8,13.29,15.78,22.54,20.87a75.82,75.82,0,0,0,7,3.46c.81.34,2.33.25,2.21,1.35s-1.6.71-2.44.74c-10.7.45-21.28-.11-31.54-3.61-4.4-1.5-4.4-1.41-4.74,3.12-.83,11,2.36,21,7.29,30.66a4.6,4.6,0,0,1,1,3.21c-10.12-8-19.6-15.92-27.9-25.43a158.79,158.79,0,0,1,3,28.35c-.89-.09-.88-.74-1-1.16-6.69-20.51-20.9-34.13-40-43-14.56-6.77-29.92-11.36-45.34-15.7a83.15,83.15,0,0,1-36.63-21.35C33.23,128.84,29.07,114,31.28,96.91c2.28-17.6,11.93-31.12,23.79-43.39A84.63,84.63,0,0,1,79.82,36.14c14.47-6.92,29.14-7.23,43.68-.57,33.38,15.29,56.4,39.75,66.28,75.7,2,7.42,3.82,15,7.76,21.7a33.07,33.07,0,0,0,9.19,10.46c7,5,14.59,5.25,21.82.58A3.76,3.76,0,0,1,230.31,143.28Zm-93,18.87c3.37-2.87,3.79-5.15,1.53-9-1-1.77-2.25-3.45-3.38-5.17-1.62-2.91-4.29-4.64-7.14-6-3.38-1.66-6.6-.32-8.08,3.15-1.81,4.23,0,7.54,2.77,10.58,4.25,4.72,10.72,6,15.4,10.48.47-1.95-.94-2.79-1.09-4ZM114,135c5.7-.15,7.26-2.75,4.69-7.84a9.43,9.43,0,0,1-.41-1c-.14-.37.11-.6,0-.71-3.84-3.39-7.92-6.49-13-7.75s-8.9,2.3-8.12,7.34c.92,6,9.43,12.25,15.49,11.42C113.63,136.36,114.43,136.24,114,135Zm-7.14,23.61c-.16-1.85,1.47-3.32,1-5.25-.56-2.6-2.21-4.42-4.1-6.11-.16-.47,2-1,0-1.41-2.39-.54-4.07-2.17-5.77-3.79A31.63,31.63,0,0,0,94.5,139a7,7,0,0,0-8.26-.1A7.94,7.94,0,0,0,83.4,147a11.87,11.87,0,0,0,4.26,6.35c5.67,4.75,12.61,6.68,19.53,8.63a2.34,2.34,0,0,0,2.28-.32c-.26-1.56-1.94-1.89-2.58-3.07Zm-20-38c-1-1.85-.41-3.06,1.21-4.37,3.09-2.5,3.64-6.09,1.86-9.76-.94-5.09-1.74-10.22-4.06-14.93a14.5,14.5,0,0,0-1.8-2.84c-3.35-4-8.16-3.53-10.11,1.29-1.59,3.89-3,8-2.54,12.32a27.88,27.88,0,0,0,10.06,19,15,15,0,0,0,8,3.79c-.4-2-2.2-2.86-2.62-4.52Zm-22-9.45c0-.42.18-.93,0-1.24-2.12-3.71-2.49-7.87-3.16-12-.57-3.4-.69-6.92-2.48-10-2.46-4.21-7.35-4.55-10.29-.67a14.82,14.82,0,0,0-2.72,6.1,51.86,51.86,0,0,0-.71,8.53C45,115.77,51.24,126,62.73,133.15a20.4,20.4,0,0,0,9.77,3.59c-1.94-3-4.89-4.46-6.39-7.16a9.21,9.21,0,0,0-.88-2.13c-1-1.39-1.42-2.39.18-3.89,1.89-1.78,2-4.34,1.26-6.8-.56-1.89-1.24-3.76-1.86-5.62ZM58.42,72.08c0,.8-.18,2.1,1,2.51,1.36.48,1.92-.79,2.46-1.77a14.44,14.44,0,0,0,1.41-2.77c1.21-4,4.13-6.15,7.83-7.27,3.13-.94,4.37-3.66,6.23-5.8a2.9,2.9,0,0,0,.08-3.44c-.6-1-1.79-.39-2.66-.24C67.18,54.54,58.83,64.08,58.42,72.08ZM90.16,50.91a13.88,13.88,0,0,0-5.3,1.56c-6,3.08-8.18,9.12-11.12,14.55a.85.85,0,0,0,.14,1.17c.69.48,1.12-.12,1.5-.56a97.94,97.94,0,0,1,7.89-7.49A3.44,3.44,0,0,1,86,59c2.4.19,4.89.67,6.76-1.54a.85.85,0,0,1,.65-.19c.89,1.35,1.61.76,2.19-.22a3.17,3.17,0,0,0-.15-3.66C94.22,51.61,92.36,51,90.16,50.91ZM89,75.2a6.86,6.86,0,0,0-9.2-3.13l-.45.24a18.44,18.44,0,0,0-7.06,7.07c-.51.85-1.63,1.93-.75,2.75,1,1,1.68-.65,2.47-1.14C78.58,78.18,82.64,74.14,89,75.2Zm16.33-28.46c.08-2.3-.13-4.36-2.3-5.42a11.5,11.5,0,0,0-9.09-.41c-.76.27-1.51.65-1.5,1.57s1,1,1.69,1.25C97.75,44.84,101.58,45.13,105.33,46.74Z" transform="translate(0.03 -0.03)" style="fill:#6a374f"/><path d="M231.13,293.68a44.17,44.17,0,0,1-1.12,7.93c-.42,2.47-.86,4.94-1.25,7.41-.21,1.27,0,2.06,1.64,1.49,3.74-1.34,7.48-2.67,11.26-3.86a22.84,22.84,0,0,1,8.44-1.21c-.06.39,0,.71-.15.85-7.48,7.56-9.44,17.06-9.57,27.2-.1,7.81,1.33,15.53,1.42,23.33.19,15.43-3,29.89-12.17,42.7-6.91,9.65-16.56,15.45-27.44,19.21-30.48,10.53-58.38,4.63-82.09-16.34-18.69-16.53-27-49.86-1.82-75.63A80.43,80.43,0,0,1,142.82,310a104.24,104.24,0,0,0,21.61-12.83c7.36-5.86,13-12.93,15.53-22.17a8.76,8.76,0,0,1,.66-1.34c1.2,2.53,1.44,5,2,7.46,1.24,5.75,2.4,11.53,3.11,17.37a40.08,40.08,0,0,1,0,4.65c0,.51.11,1.08.76,1.18a1,1,0,0,0,1-.63c3.36-6,8.7-10.27,13.21-15.27,1.34-1.47,2.56-3.05,3.86-4.56a1.76,1.76,0,0,1,1-.71c.54,0,.53.56.6,1a162,162,0,0,0,6.72,26.38,8.8,8.8,0,0,1,.26,1.26c.24,1.21-.71,3.14.72,3.45,1.09.24,1.55-1.82,2.12-2.89,3.35-6.25,7.91-11.54,12.66-16.71A5,5,0,0,1,231.13,293.68ZM202.71,403.31c-.4-3.31-1.7-5.05-4-5.26s-3.85,1.2-4.88,4.08c-2.59,1.1-2.71,1.84-.49,3.55a23.71,23.71,0,0,0,3.86,2.56,3.52,3.52,0,0,0,4.32-.57C202.72,406.49,203.71,405.12,202.71,403.31Zm-29.33-8.39c-.75.28-2-.74-2.23.91-.42,3.18,2,7.94,4.86,9.49s5.45.55,6.41-2.63a10.78,10.78,0,0,0-2-7.73c-2.08-3-4.82-3-7,0Zm-6.09,2.47a15,15,0,0,0-2.88-10.93c-2.12-2.86-4.14-3.15-6.92-1-.89,0-1.81-3.32-2.52-.35-1,4.35-1,8.74,2.41,12.46,2.68,2.95,6.36,3.55,9.49,1.25.56-.37.91-.76.42-1.43Zm-7.66-48.7c-.57-1,.79-2.15-.15-2.9-.65-.52-1.51.2-2.06.67-4.89,4.21-8.39,9.14-7.85,16,.38,4.7,2.58,7.72,5.83,8.1,3.44.4,5.72-1.68,7.28-6.64a21.72,21.72,0,0,0,2.88-7.15c.74-4.69-1.51-7.77-5.93-8.08Zm-.12-31.32c.26-1.39,1.67-1.91,2.28-3,.21-.39.46-.79.19-1.2a1,1,0,0,0-1.16-.3,9.63,9.63,0,0,0-1.7.62c-5.82,2.95-10.81,12.18-10.13,18.7.4,3.83,3.46,5.8,7,4.39,5.16-2.05,8.22-6.11,10.24-11.07a1.68,1.68,0,0,0-.28-2.14c-.18-4.82-.95-6.84-6.44-6Zm-20.58,59.26-.27-2.55c-.06-.61-.1-1.42-.66-1.59-.82-.24-1.09.64-1.43,1.21A19.81,19.81,0,0,0,139,397.91c1.74,1.87,7.19,3.29,9.16,2.06,2.61-1.63,3.32-4.26,2.85-7.24-.33-2.13-.56-4.28-1-6.39-.13-.66,0-1.87-1.4-1.61a16.37,16.37,0,0,0-1.51-4.62c-2-3.8-4.3-4.79-8.17-3.48Zm1.29-32.91c.25-6-.82-7.36-5.93-7.8,1.2-3.36,3.44-6.1,5.41-9,.67-1,1.67-1.82,1.77-3.48-3.44,1.73-6,4.16-8.79,6.08-8,5.42-13.71,12.6-16.24,22.07a23.14,23.14,0,0,0-.41,12.05c1.71,6.44,8.65,8.54,13.66,4.16a13.65,13.65,0,0,0,3.4-4.54q4.38-9.52,8.72-19.08c.15-.34.41-.78,0-1.15-.68,0-.89.89-1.59.69ZM192,410.25c-2.61,1.28-4.86.16-7.16.08-5.64-.2-11.18-1-15.89-4.56a5.39,5.39,0,0,0-1.14-.6c-.46-.19-1-.52-1.34.14-.23.46.08.85.41,1.13,3.54,3,7,6.16,11.47,7.85C183.58,416.27,189.35,414.37,192,410.25Z" transform="translate(0.03 -0.03)" style="fill:#6a374f"/><path d="M66.11,129.58c1.5,2.7,4.45,4.17,6.39,7.16a20.4,20.4,0,0,1-9.77-3.59C51.24,126,45,115.77,45.46,101.89a51.86,51.86,0,0,1,.71-8.53,14.82,14.82,0,0,1,2.72-6.1c2.94-3.88,7.83-3.54,10.29.67,1.79,3.09,1.91,6.61,2.48,10,.67,4.09,1,8.25,3.16,12,.17.31,0,.82,0,1.24-5.3-3-7.57-8-8.86-13.86C53.06,107.08,55.7,121.51,66.11,129.58Z" transform="translate(0.03 -0.03)" style="fill:#6a374f;stroke:#6a374f;stroke-miterlimit:10;stroke-width:2px"/><path d="M86.86,120.59c.42,1.66,2.22,2.56,2.57,4.52a15,15,0,0,1-8-3.79,27.88,27.88,0,0,1-10.06-19C71,97.94,72.37,93.87,74,90c2-4.82,6.76-5.3,10.11-1.29a14.5,14.5,0,0,1,1.8,2.84c2.32,4.71,3.12,9.84,4.06,14.93-3.78-.89-5.92-3.77-8.06-6.81C78.51,108,80.91,114.71,86.86,120.59Z" transform="translate(0.03 -0.03)" style="fill:#6a374f;stroke:#6a374f;stroke-miterlimit:10;stroke-width:2px"/><path d="M106.89,158.59c.64,1.18,2.32,1.51,2.58,3a2.34,2.34,0,0,1-2.28.32c-6.92-1.95-13.86-3.88-19.53-8.63A11.85,11.85,0,0,1,83.4,147a7.93,7.93,0,0,1,2.84-8.09,7,7,0,0,1,8.26.1,31.2,31.2,0,0,1,3.5,3c1.7,1.62,3.38,3.25,5.77,3.79,2,.44-.12.94,0,1.41a13.49,13.49,0,0,1-9.55-1.2A34,34,0,0,0,97,151.92C99.32,155.72,103.38,156.69,106.89,158.59Z" transform="translate(0.03 -0.03)" style="fill:#6a374f;stroke:#6a374f;stroke-miterlimit:10;stroke-width:2px"/><path d="M114,135c.4,1.26-.4,1.38-1.35,1.51-6.06.83-14.57-5.43-15.49-11.42-.78-5,3-8.61,8.12-7.34s9.15,4.36,13,7.75c.12.11,0,.47,0,.71-1.78-.13-3.58.11-5.36-.34-3.25-.82-3.8-.15-3.57,3.29.15,2.33.75,4.09,3.13,4.91A7.65,7.65,0,0,1,114,135Z" transform="translate(0.03 -0.03)" style="fill:#6a374f;stroke:#6a374f;stroke-miterlimit:10;stroke-width:2px"/><path d="M137.32,162.15c.15,1.25,1.56,2.09,1.1,4-4.68-4.48-11.15-5.76-15.4-10.48-2.75-3-4.58-6.35-2.77-10.58,1.48-3.47,4.7-4.81,8.08-3.15,2.85,1.4,5.52,3.13,7.14,6l-7.1-2.39C129.57,152.37,133,157.47,137.32,162.15Z" transform="translate(0.03 -0.03)" style="fill:#6a374f;stroke:#6a374f;stroke-miterlimit:10;stroke-width:2px"/><path d="M66.11,129.58c-10.41-8.07-13-22.5-10.16-32.3,1.29,5.91,3.56,10.89,8.86,13.86.62,1.87,1.3,3.73,1.86,5.62.72,2.46.63,5-1.26,6.8-1.6,1.5-1.2,2.5-.18,3.89A9.21,9.21,0,0,1,66.11,129.58Z" transform="translate(0.03 -0.03)" style="fill:#6a374f"/><path d="M58.42,72.08c.41-8,8.76-17.54,16.32-18.78.87-.15,2.06-.73,2.66.24A2.9,2.9,0,0,1,77.32,57c-1.86,2.14-3.1,4.86-6.23,5.8-3.7,1.12-6.62,3.31-7.83,7.27a14.44,14.44,0,0,1-1.41,2.77c-.54,1-1.1,2.25-2.46,1.77C58.24,74.18,58.43,72.88,58.42,72.08Z" transform="translate(0.03 -0.03)" style="fill:#6a374f;stroke:#6a374f;stroke-miterlimit:10;stroke-width:2px"/><path d="M90.16,50.91c2.2.12,4.06.7,5.31,2.49a3.17,3.17,0,0,1,.15,3.66c-.58,1-1.3,1.57-2.19.22a.85.85,0,0,0-.65.19C90.91,59.68,88.42,59.2,86,59a3.45,3.45,0,0,0-2.75,1.13,97.94,97.94,0,0,0-7.89,7.49c-.38.44-.81,1-1.5.56A.85.85,0,0,1,73.74,67c2.94-5.43,5.07-11.47,11.12-14.55A13.9,13.9,0,0,1,90.16,50.91Z" transform="translate(0.03 -0.03)" style="fill:#6a374f;stroke:#6a374f;stroke-miterlimit:10;stroke-width:2px"/><path d="M86.86,120.59c-6-5.88-8.35-12.62-5-20.94,2.14,3,4.28,5.92,8.06,6.81,1.78,3.67,1.23,7.26-1.86,9.76C86.45,117.53,85.87,118.74,86.86,120.59Z" transform="translate(0.03 -0.03)" style="fill:#6a374f"/><path d="M137.32,162.15c-4.28-4.68-7.75-9.78-8.95-16.52l7.1,2.39c1.13,1.72,2.33,3.4,3.38,5.17C141.11,157,140.69,159.28,137.32,162.15Z" transform="translate(0.03 -0.03)" style="fill:#6a374f"/><path d="M106.89,158.59c-3.51-1.9-7.57-2.87-9.88-6.67A34.47,34.47,0,0,1,94.29,146a13.49,13.49,0,0,0,9.55,1.2c1.89,1.69,3.54,3.51,4.1,6.11C108.36,155.27,106.73,156.74,106.89,158.59Z" transform="translate(0.03 -0.03)" style="fill:#6a374f"/><path d="M114,135a7.65,7.65,0,0,0-1.52-.93c-2.38-.82-3-2.58-3.13-4.91-.23-3.44.32-4.11,3.57-3.29,1.78.45,3.58.21,5.36.34.14.32.25.64.41,1Q122.59,134.74,114,135Z" transform="translate(0.03 -0.03)" style="fill:#6a374f"/><path d="M89,75.2c-6.37-1.06-10.43,3-15,5.79-.79.49-1.43,2.09-2.47,1.14-.88-.82.24-1.9.75-2.75a18.44,18.44,0,0,1,7.06-7.07,6.88,6.88,0,0,1,9.41,2.42Z" transform="translate(0.03 -0.03)" style="fill:#6a374f;stroke:#6a374f;stroke-miterlimit:10;stroke-width:2px"/><path d="M105.33,46.74c-3.75-1.61-7.58-1.9-11.2-3-.73-.23-1.67-.21-1.69-1.25s.74-1.3,1.5-1.57a11.5,11.5,0,0,1,9.09.41C105.2,42.38,105.41,44.44,105.33,46.74Z" transform="translate(0.03 -0.03)" style="fill:#6a374f;stroke:#6a374f;stroke-miterlimit:10;stroke-width:2px"/><path d="M139.22,343.72c.7.2.91-.73,1.55-.69.45.37.19.81,0,1.15q-4.34,9.56-8.72,19.08a13.65,13.65,0,0,1-3.4,4.54c-5,4.38-12,2.28-13.66-4.16a23.14,23.14,0,0,1,.41-12.05c2.53-9.47,8.21-16.65,16.24-22.07,2.84-1.92,5.34-4.35,8.79-6.08-.1,1.66-1.1,2.51-1.77,3.48-2,2.9-4.21,5.64-5.41,9A34.67,34.67,0,0,0,125,364.27a19.6,19.6,0,0,0,5.4-6.59C132.94,352.79,135.33,347.77,139.22,343.72Z" transform="translate(0.03 -0.03)" style="fill:#6a374f;stroke:#6a374f;stroke-miterlimit:10;stroke-width:2px"/><path d="M139.22,343.72c-3.89,4-6.28,9.07-8.85,14a19.6,19.6,0,0,1-5.4,6.59A34.69,34.69,0,0,1,133.29,336C138.4,336.36,139.47,337.77,139.22,343.72Z" transform="translate(0.03 -0.03)" style="fill:#6a374f"/><path d="M147.66,384.73c1.36-.26,1.27.95,1.4,1.61.43,2.11.66,4.26,1,6.39.47,3-.24,5.61-2.86,7.24-2,1.23-7.41-.19-9.15-2.06a19.81,19.81,0,0,1-2.47-24.21c.34-.57.61-1.45,1.43-1.21.56.17.6,1,.66,1.59l.27,2.55c-1.25,6.16,1.28,11,5.33,15.34.67.71,1.21,2,2.4,1.64,1.35-.41,1.25-1.86,1.47-3C147.49,388.65,146.76,386.62,147.66,384.73Z" transform="translate(0.03 -0.03)" style="fill:#6a374f;stroke:#6a374f;stroke-miterlimit:10;stroke-width:2px"/><path d="M165,323.33a1.69,1.69,0,0,1,.28,2.14c-2,5-5.08,9-10.24,11.07-3.56,1.41-6.62-.56-7-4.39-.68-6.52,4.31-15.75,10.13-18.7a9.63,9.63,0,0,1,1.7-.62,1,1,0,0,1,1.16.3c.27.41,0,.81-.19,1.2-.61,1.13-2,1.65-2.28,3-.15.08-.34.13-.43.25-3.38,4.58-3,10.08-3.66,15.3-.13,1,.7.83,1.24.53a14.8,14.8,0,0,0,2.35-1.57C160.86,329.47,162.89,326.37,165,323.33Z" transform="translate(0.03 -0.03)" style="fill:#6a374f;stroke:#6a374f;stroke-miterlimit:10;stroke-width:2px"/><path d="M161.68,363.93c-1.56,5-3.84,7-7.28,6.64-3.25-.38-5.45-3.4-5.83-8.1-.54-6.87,3-11.8,7.85-16,.55-.47,1.41-1.19,2.05-.67.95.75-.41,1.93.16,2.9-3.33,5.09-3.73,10.76-3.32,16.61.17,2.34.53,2.48,2.58,1.41C159.32,366,159.89,364.12,161.68,363.93Z" transform="translate(0.03 -0.03)" style="fill:#6a374f;stroke:#6a374f;stroke-miterlimit:10;stroke-width:2px"/><path d="M161.68,363.93c-1.79.19-2.36,2-3.79,2.78-2,1.07-2.41.93-2.58-1.41-.41-5.85,0-11.52,3.32-16.61,4.42.32,6.67,3.39,5.93,8.09A21.72,21.72,0,0,1,161.68,363.93Z" transform="translate(0.03 -0.03)" style="fill:#6a374f"/><path d="M147.66,384.73c-.9,1.89-.17,3.92-.53,5.86-.22,1.16-.12,2.61-1.47,3-1.19.37-1.73-.93-2.4-1.64-4-4.31-6.58-9.18-5.33-15.34,3.87-1.31,6.19-.32,8.22,3.48A16.18,16.18,0,0,1,147.66,384.73Z" transform="translate(0.03 -0.03)" style="fill:#6a374f"/><path d="M165,323.33c-2.08,3-4.11,6.14-7,8.55a14.8,14.8,0,0,1-2.35,1.57c-.54.3-1.37.46-1.24-.53.71-5.22.28-10.72,3.66-15.3.09-.12.28-.17.43-.25C164,316.53,164.77,318.55,165,323.33Z" transform="translate(0.03 -0.03)" style="fill:#6a374f"/><path d="M191,410.25c-2.63,4.12-8.4,6-13.65,4-4.47-1.69-7.93-4.83-11.47-7.85-.33-.28-.65-.67-.41-1.13.35-.66.88-.33,1.34-.14a5.39,5.39,0,0,1,1.14.6c4.71,3.57,10.25,4.36,15.89,4.56C186.12,410.41,188.37,411.53,191,410.25Z" transform="translate(0.03 -0.03)" style="fill:#6a374f;stroke:#6a374f;stroke-miterlimit:10;stroke-width:2px"/><path d="M156.49,385.5c2.78-2.19,4.8-1.9,6.92,1a15,15,0,0,1,2.88,10.93,5.39,5.39,0,0,1-6-2.9C158.49,391.69,157.75,388.49,156.49,385.5Z" transform="translate(0.03 -0.03)" style="fill:#6a374f"/><path d="M156.49,385.5c1.26,3,2,6.19,3.75,9,1.43,2.3,3.34,3.37,6,2.9.49.67.14,1.06-.42,1.47-3.13,2.3-6.81,1.7-9.49-1.25-3.37-3.72-3.45-8.11-2.41-12.46C154.68,382.18,155.6,385.47,156.49,385.5Z" transform="translate(0.03 -0.03)" style="fill:#6a374f;stroke:#6a374f;stroke-miterlimit:10;stroke-width:2px"/><path d="M181.42,402.69c-1,3.18-3.48,4.22-6.41,2.63s-5.28-6.31-4.86-9.49c.22-1.65,1.48-.63,2.23-.91,1.18,1.56,2.31,3.15,3.54,4.67C177.33,401.34,178.84,403,181.42,402.69Z" transform="translate(0.03 -0.03)" style="fill:#6a374f;stroke:#6a374f;stroke-miterlimit:10;stroke-width:2px"/><path d="M181.42,402.69c-2.58.3-4.09-1.35-5.5-3.1-1.23-1.52-2.36-3.11-3.54-4.67,2.22-2.91,5-2.94,7,0A10.74,10.74,0,0,1,181.42,402.69Z" transform="translate(0.03 -0.03)" style="fill:#6a374f"/><path d="M201.71,403.31c1,1.81,0,3.18-1.14,4.36a3.52,3.52,0,0,1-4.32.57,23.71,23.71,0,0,1-3.86-2.56c-2.22-1.71-2.1-2.45.49-3.55C195.87,402.15,198.56,404.46,201.71,403.31Z" transform="translate(0.03 -0.03)" style="fill:#6a374f;stroke:#6a374f;stroke-miterlimit:10;stroke-width:2px"/><path d="M201.71,403.31c-3.15,1.15-5.84-1.16-8.83-1.18,1-2.88,2.72-4.29,4.88-4.08S201.31,400,201.71,403.31Z" transform="translate(0.03 -0.03)" style="fill:#6a374f"/><path d="M95.89,135.44A107.73,107.73,0,0,1,85.24,124a19.29,19.29,0,0,1-3.58-2.43,27.9,27.9,0,0,1-10.06-19,15.93,15.93,0,0,1-.08-1.69,78.74,78.74,0,0,1-6-30.07c0-1.47.06-3,.16-4.42a10.15,10.15,0,0,0-2.21,3.93A15.16,15.16,0,0,1,62,73c-.55,1-1.1,2.25-2.47,1.76-1.14-.41-1-1.7-1-2.51.26-5.12,3.79-10.87,8.28-14.67a60.4,60.4,0,0,1,6.94-18A81.09,81.09,0,0,0,55.26,53.73C43.4,66,33.75,79.51,31.47,97.11c-2.21,17,2,31.94,14.29,44.22a83,83,0,0,0,36.62,21.35c15.43,4.34,30.79,8.93,45.35,15.7,19.09,8.88,33.3,22.5,40,43,.14.42.13,1.06,1,1.15-.18-6-.52-11.9-1.24-17.83C148,178.14,119.76,157.59,95.89,135.44Zm-33-2.08C51.43,126.16,45.14,116,45.65,102.1a51.86,51.86,0,0,1,.71-8.53,15.13,15.13,0,0,1,2.72-6.11c2.94-3.87,7.83-3.54,10.28.68,1.8,3.09,1.92,6.61,2.48,10,.68,4.09,1,8.25,3.16,12,.18.31,0,.82,0,1.24.63,1.87,1.31,3.73,1.86,5.62.72,2.46.64,5-1.25,6.8-1.6,1.5-1.2,2.49-.18,3.89a9.59,9.59,0,0,1,.88,2.12c1.49,2.71,4.45,4.17,6.39,7.16a20.32,20.32,0,0,1-9.78-3.61Zm44.46,28.8c-6.92-1.95-13.86-3.88-19.53-8.63a12,12,0,0,1-4.27-6.35,8,8,0,0,1,2.84-8.09,7,7,0,0,1,8.26.1,29.35,29.35,0,0,1,3.54,3.05c1.7,1.61,3.38,3.25,5.77,3.78,2,.45-.13.95,0,1.41,1.88,1.69,3.53,3.52,4.1,6.12.42,1.93-1.22,3.39-1.06,5.24.64,1.18,2.33,1.52,2.58,3a2.32,2.32,0,0,1-2.2.37Z" transform="translate(0.03 -0.03)" style="fill:#6a374f"/><path d="M147.68,402.17c-.31-.59-.59-1.18-.88-1.77-2.28.74-7-.57-8.57-2.29a19.8,19.8,0,0,1-2.47-24.2c.34-.57.61-1.46,1.43-1.22.56.17.6,1,.66,1.6l.27,2.54a9.64,9.64,0,0,1,2.76-.53c-.5-13.6,3.3-27.28,9.68-39.76a5.31,5.31,0,0,1-2.38-4.19c-.68-6.51,4.31-15.74,10.12-18.69A10,10,0,0,1,160,313a1,1,0,0,1,1.16.29c.28.42,0,.82-.18,1.2-.61,1.13-2,1.66-2.28,3.05a8.59,8.59,0,0,1,4,.07c9.56-13,19.92-26.54,17.49-43-.11-.25-.21-.5-.33-.76a8.43,8.43,0,0,0-.66,1.35c-2.55,9.24-8.18,16.31-15.53,22.16A103.74,103.74,0,0,1,142,310.24,80.26,80.26,0,0,0,117.47,327c-25.16,25.77-16.88,59.1,1.81,75.63,13.92,12.26,29.27,19.37,45.72,21A68,68,0,0,1,147.68,402.17ZM128.87,368c-5,4.39-11.94,2.28-13.65-4.16a23,23,0,0,1,.4-12c2.53-9.47,8.22-16.66,16.24-22.07,2.85-1.92,5.35-4.36,8.79-6.08-.1,1.65-1.1,2.5-1.76,3.48-2,2.9-4.21,5.63-5.42,9,5.11.44,6.19,1.85,5.94,7.79.7.2.91-.72,1.55-.69.45.37.19.82,0,1.15q-4.34,9.56-8.73,19.09A13.25,13.25,0,0,1,128.87,368Z" transform="translate(0.03 -0.03)" style="fill:#6a374f"/></g><g id="Layer_1-2" data-name="Layer 1-2"><path d="M153.79,215.65c2.86,6.46,6.45,12.72,5.63,20.22a1.3,1.3,0,0,0,.55,1.39c6.65-12,6.27-24.76,3.71-37.7,1.23-.05,1.45.86,1.93,1.41A95.26,95.26,0,0,0,187,219.73c4.48,2.78,9.36,4.34,15.27,3.35a64.31,64.31,0,0,1-14.82-20.3c-3.62-7.76-5.5-16-7.66-24.95a22,22,0,0,0,6.88,4.11,50.55,50.55,0,0,0,30.88,1.45c5.54-1.45,10.39-4.24,15.17-7.21.9-.56,2.21-1.37,1.88-2.51-.26-.91-1.66-.45-2.57-.44a39.7,39.7,0,0,1-16.47-2.92c-8-3.46-15-8.52-22.12-13.5-.27-.19-.56-.42-.32-.89a3.76,3.76,0,0,1,.67-.12c15,.25,26.67-5.58,34.33-18.78,3.1-5.34,4.33-10.89,2.24-16.94-1.26.89-1.69,2.33-2.42,3.56a16.31,16.31,0,0,1-17.88,7.44c-8.2-1.92-12.23-8-15.27-15-2.27-5.27-3.53-10.87-5.08-16.36-10.82-38.18-35.6-64-71.1-80.22-13-5.91-26.57-7.23-40.32-3-16.75,5.12-30.61,14.85-42.07,28-10,11.41-18,23.87-20.87,39.15-3.2,17.21-1.14,33.4,9.4,47.75s25,24.13,41.91,29.78c14.36,4.79,29,8.61,43.13,14.21C129.66,183.2,145,195.8,153.79,215.65Z" transform="translate(0.03 -0.03)" style="fill:#fff;stroke:#fff;stroke-linecap:round;stroke-linejoin:round;stroke-width:28px"/><path d="M265.86,289a38.59,38.59,0,0,1-12.91.16,38,38,0,0,0-21.38,2.51c-2.12.88-2.43.36-2.06-1.8a70.43,70.43,0,0,0-1.38-29.5c-3.44,10.74-12,17.72-18.74,26.15a7.77,7.77,0,0,1-.5-1c-2.58-9.88-5-19.81-5.4-30.08,0-.56.22-1.31-.57-1.55s-1.12.32-1.48.82c-1.07,1.47-2.19,2.91-3.16,4.44-4.2,6.66-8,13.62-13.5,19.34-.61.63-.95,2-2.06,1.57-.87-.35-.41-1.57-.4-2.39.08-12.51-7-21.68-14.3-31-.77,1-.43,1.66-.46,2.33-.2,4-.13,8-1.25,11.85-2.76,9.57-8.91,16.69-16.63,22.61a102,102,0,0,1-19.79,11.35,83.08,83.08,0,0,0-26.76,18.93c-11.87,12.81-18.44,27.82-16.73,45.39,2,21,11.47,38.12,29.74,49.59,25.18,15.8,51.91,20.43,80.42,10.4,11.07-3.9,21.24-9.43,28.95-18.6,13.46-16,17.77-34.86,16.81-55.27-.34-7.18-1.55-14.31-1.22-21.52.63-13.73,6.86-24,19.1-30.57a82.67,82.67,0,0,1,8.28-3.67C267.56,288.55,266.7,288.85,265.86,289Z" transform="translate(0.03 -0.03)" style="fill:#fff;stroke:#fff;stroke-linecap:round;stroke-linejoin:round;stroke-width:20px"/><path d="M303.22,194.57c-28.25,4.34-59.34,13.43-65.46,19.1C247.21,215.3,292.6,202.16,303.22,194.57Z" transform="translate(0.03 -0.03)" style="fill:#fff;stroke:#fff;stroke-linecap:round;stroke-linejoin:round;stroke-width:18px"/><path d="M248.33,188.7c10.06-6.76,19.75-14,29.4-21.36,3.38-2.57,6.64-5.29,9.93-8,.4-.33,1.26-.66.7-1.36-.33-.41-.95.05-1.41.24h0c-10.35,5.95-20.58,12.1-30.62,18.55q-5,3.22-10,6.57a81.49,81.49,0,0,0-14.5,13.14A69.56,69.56,0,0,0,248.33,188.7Z" transform="translate(0.03 -0.03)" style="fill:#fff;stroke:#fff;stroke-linecap:round;stroke-linejoin:round;stroke-width:18px"/><path d="M252.21,229.34c15.62,8,32.64,8.39,49.54,9.45C285.64,233.53,269.63,227.67,252.21,229.34Z" transform="translate(0.03 -0.03)" style="fill:#fff;stroke:#fff;stroke-linecap:round;stroke-linejoin:round;stroke-width:18px"/><path d="M245.81,244.16c-.89,1.35,1.23,2.78,2.44,3.76a197.09,197.09,0,0,0,32.41,21.36c2,1.06,3.9,2.7,6.82,2.64-11.37-10.84-24-19.35-37.36-26.88C248.82,244.3,246.66,242.86,245.81,244.16Z" transform="translate(0.03 -0.03)" style="fill:#fff;stroke:#fff;stroke-linecap:round;stroke-linejoin:round;stroke-width:18px"/><g id="_2dsjMW.tif" data-name=" 2dsjMW.tif"><path d="M287.94,158.27c-13.8,7.93-27.38,16.22-40.59,25.12a81.49,81.49,0,0,0-14.5,13.14,70,70,0,0,0,16.48-7.83c10.06-6.76,19.75-14,29.4-21.36,3.38-2.57,6.64-5.29,9.93-8,.4-.33,1.26-.66.7-1.36-.33-.41-.95.05-1.41.24Zm-56.55-38.19c-1.26.89-1.69,2.33-2.42,3.56a16.31,16.31,0,0,1-17.88,7.44c-8.2-1.92-12.23-8-15.27-15-2.27-5.27-3.53-10.87-5.08-16.36-10.82-38.18-35.6-64-71.1-80.22-13-5.91-26.57-7.23-40.32-3-16.75,5.12-30.61,14.85-42.06,28-10,11.41-18,23.87-20.88,39.15-3.2,17.21-1.14,33.4,9.4,47.75s25,24.13,41.91,29.78c14.36,4.79,29,8.61,43.13,14.21,19.84,7.88,35.19,20.48,44,40.33,2.86,6.46,6.45,12.72,5.63,20.22a1.3,1.3,0,0,0,.55,1.39c6.66-12,6.28-24.76,3.71-37.7,1.23,0,1.45.86,1.93,1.41A95.49,95.49,0,0,0,188,219.73c4.48,2.78,9.36,4.34,15.27,3.35a64.31,64.31,0,0,1-14.82-20.3c-3.62-7.76-5.5-16-7.66-24.95a22,22,0,0,0,6.88,4.11,50.55,50.55,0,0,0,30.88,1.45c5.54-1.45,10.39-4.24,15.17-7.21.9-.56,2.21-1.37,1.88-2.51-.26-.91-1.66-.45-2.57-.44a39.7,39.7,0,0,1-16.47-2.92c-8-3.46-15-8.52-22.12-13.5-.27-.19-.56-.42-.32-.89a3.76,3.76,0,0,1,.67-.12c15,.25,26.67-5.58,34.33-18.78C232.25,131.68,233.48,126.13,231.39,120.08ZM168,246.66c-.77,1-.43,1.66-.46,2.33-.2,4-.13,8-1.25,11.85-2.76,9.57-8.91,16.69-16.63,22.61a102,102,0,0,1-19.79,11.35,83.08,83.08,0,0,0-26.76,18.93c-11.87,12.81-18.44,27.82-16.73,45.39,2,21,11.47,38.13,29.74,49.59,25.18,15.8,51.91,20.43,80.42,10.4,11.07-3.9,21.24-9.43,29-18.6,13.46-16,17.77-34.86,16.81-55.27-.34-7.18-1.55-14.31-1.22-21.52.63-13.73,6.86-24,19.1-30.57a82.67,82.67,0,0,1,8.28-3.67c-.92-.93-1.78-.63-2.62-.5a38.59,38.59,0,0,1-12.91.16,38,38,0,0,0-21.38,2.51c-2.12.88-2.43.36-2.06-1.8a70.43,70.43,0,0,0-1.38-29.5c-3.44,10.74-12,17.72-18.74,26.15a7.77,7.77,0,0,1-.5-1c-2.58-9.88-5-19.81-5.4-30.08,0-.56.22-1.31-.57-1.55s-1.12.32-1.48.82c-1.07,1.47-2.19,2.91-3.16,4.44-4.2,6.66-8,13.62-13.5,19.34-.61.63-.95,2-2.06,1.57-.87-.35-.41-1.57-.4-2.39C182.4,265.1,175.33,255.93,168,246.66Zm136.21-52.09c-28.26,4.34-59.34,13.43-65.47,19.1,9.47,1.63,54.86-11.51,65.49-19.1Zm-51,34.77c15.62,8,32.64,8.39,49.54,9.45-16.11-5.26-32.12-11.12-49.54-9.45Zm35.27,42.58c-11.37-10.84-24-19.35-37.35-26.88-1.31-.74-3.47-2.18-4.32-.88s1.23,2.78,2.44,3.76a196.53,196.53,0,0,0,32.42,21.36C283.69,270.34,285.56,272,288.48,271.92Z" transform="translate(0.03 -0.03)" style="fill:#fffffe"/><path d="M230.39,120.08c2.09,6,.86,11.6-2.24,16.94-7.66,13.2-19.32,19-34.33,18.78a3.76,3.76,0,0,0-.67.12c-.24.47,0,.7.32.89,7.08,5,14.1,10,22.12,13.5a39.7,39.7,0,0,0,16.47,2.92c.91,0,2.31-.47,2.57.44.33,1.14-1,2-1.88,2.51-4.78,3-9.63,5.76-15.17,7.21a50.55,50.55,0,0,1-30.88-1.45,22,22,0,0,1-6.88-4.11c2.16,9,4,17.19,7.66,24.95a64.31,64.31,0,0,0,14.82,20.3c-5.91,1-10.79-.57-15.27-3.35A95,95,0,0,1,165.61,201c-.48-.55-.7-1.46-1.93-1.41,2.56,12.94,2.94,25.68-3.71,37.7a1.3,1.3,0,0,1-.55-1.39c.82-7.5-2.77-13.76-5.63-20.22-8.78-19.85-24.13-32.45-44-40.33-14.11-5.6-28.77-9.42-43.13-14.21-16.91-5.65-31.28-15.29-41.91-29.78s-12.6-30.54-9.4-47.75c2.88-15.31,10.94-27.77,20.9-39.18,11.46-13.13,25.32-22.86,42.07-28,13.75-4.2,27.37-2.88,40.32,3,35.5,16.2,60.28,42,71.1,80.22,1.55,5.49,2.81,11.09,5.08,16.36,3,7,7.07,13.1,15.27,15A16.31,16.31,0,0,0,228,123.64C228.7,122.41,229.13,121,230.39,120.08Zm-8.08,15.2a3.76,3.76,0,0,0-1.76.73c-7.23,4.67-14.84,4.45-21.82-.58A33.07,33.07,0,0,1,189.54,125c-3.94-6.75-5.73-14.28-7.76-21.7-9.88-35.95-32.9-60.41-66.28-75.7-14.54-6.66-29.21-6.35-43.68.57A84.67,84.67,0,0,0,47.07,45.52C35.21,57.79,25.56,71.31,23.28,88.91c-2.21,17,1.95,31.93,14.29,44.22A83.15,83.15,0,0,0,74.2,154.48c15.42,4.34,30.78,8.93,45.34,15.7,19.09,8.88,33.3,22.5,40,43,.14.42.13,1.07,1,1.16a158.79,158.79,0,0,0-3-28.35c8.3,9.51,17.78,17.48,27.9,25.43a4.59,4.59,0,0,0-1-3.21c-4.93-9.63-8.12-19.66-7.29-30.66.34-4.53.34-4.62,4.74-3.12,10.26,3.5,20.84,4.06,31.54,3.61.84,0,2.3.42,2.44-.74s-1.4-1-2.21-1.35c-2.39-1-4.69-2.21-7-3.46-9.25-5.09-15.95-12.92-22.54-20.87-.32-.4-.8-.85-.55-1.37.4-.81,1.06-.15,1.57-.07,13.54,1.94,25.09-2.32,35.1-11.3C221.25,138,222.53,137.18,222.31,135.28Z" transform="translate(0.03 -0.03)" style="fill:#474747;stroke:#474747;stroke-miterlimit:10;stroke-width:2px"/><path d="M167,246.66c7.31,9.27,14.38,18.44,14.29,31,0,.82-.46,2,.41,2.39,1.11.46,1.45-.94,2.06-1.57,5.53-5.72,9.3-12.68,13.5-19.34,1-1.53,2.09-3,3.16-4.44.36-.5.78-1,1.48-.82s.55,1,.57,1.55c.43,10.27,2.82,20.2,5.4,30.08a7.77,7.77,0,0,0,.5,1c6.78-8.43,15.3-15.41,18.74-26.15a70.43,70.43,0,0,1,1.38,29.5c-.37,2.16-.06,2.68,2.06,1.8A38,38,0,0,1,252,289.14a38.59,38.59,0,0,0,12.91-.16c.84-.13,1.7-.43,2.62.5a83.69,83.69,0,0,0-8.28,3.67C247,299.71,240.73,310,240.1,323.72c-.33,7.21.88,14.34,1.22,21.52,1,20.41-3.35,39.26-16.81,55.27-7.71,9.17-17.88,14.7-28.95,18.6-28.51,10-55.24,5.4-80.42-10.4-18.27-11.46-27.71-28.57-29.75-49.59-1.7-17.57,4.87-32.58,16.74-45.39a83.08,83.08,0,0,1,26.76-18.93,102,102,0,0,0,19.79-11.35c7.72-5.92,13.87-13,16.63-22.61,1.12-3.87,1-7.88,1.24-11.85C166.59,248.32,166.25,247.61,167,246.66Zm55.11,39a5,5,0,0,0-2.53,1.94c-4.75,5.17-9.32,10.46-12.66,16.71-.57,1.07-1,3.13-2.13,2.89-1.42-.31-.47-2.24-.71-3.45a8.8,8.8,0,0,0-.26-1.26,162,162,0,0,1-6.72-26.38c-.07-.39-.06-1-.6-.95a1.76,1.76,0,0,0-1,.71c-1.3,1.51-2.53,3.09-3.86,4.56-4.51,5-9.86,9.27-13.21,15.27a1,1,0,0,1-1,.63c-.65-.1-.75-.67-.76-1.18a40.08,40.08,0,0,0,0-4.65c-.72-5.84-1.87-11.62-3.11-17.37-.52-2.42-.76-4.93-2-7.46A9.13,9.13,0,0,0,171,267c-2.54,9.24-8.17,16.31-15.53,22.17A104.09,104.09,0,0,1,133.82,302a80.34,80.34,0,0,0-24.54,16.73c-25.16,25.77-16.87,59.1,1.82,75.63,23.71,21,51.61,26.87,82.09,16.34,10.88-3.76,20.53-9.56,27.44-19.21,9.15-12.81,12.36-27.27,12.17-42.7-.09-7.8-1.52-15.52-1.42-23.33.13-10.14,2.09-19.64,9.57-27.2.14-.14.09-.46.15-.85a22.84,22.84,0,0,0-8.44,1.21c-3.78,1.19-7.53,2.52-11.26,3.86-1.62.57-1.85-.22-1.65-1.49.4-2.47.84-4.94,1.26-7.41a43.84,43.84,0,0,0,1.12-7.9Z" transform="translate(0.03 -0.03)" style="fill:#474747;stroke:#474747;stroke-miterlimit:10;stroke-width:2px"/><path d="M303.22,194.57c-10.62,7.59-56,20.73-65.46,19.1C243.88,208,275,198.91,303.22,194.57Z" transform="translate(0.03 -0.03)" style="fill:#474747;stroke:#474747;stroke-miterlimit:10;stroke-width:2px"/><path d="M287,158.25c.46-.19,1.08-.65,1.41-.24.56.7-7.25,6.76-10.63,9.33-9.65,7.32-19.34,14.6-29.4,21.36a70,70,0,0,1-16.48,7.83,81.49,81.49,0,0,1,14.5-13.14C259.56,174.49,287,158.25,287,158.25Z" transform="translate(0.03 -0.03)" style="fill:#474747;stroke:#474747;stroke-miterlimit:10;stroke-width:2px"/><path d="M252.21,229.34c17.42-1.67,33.43,4.19,49.54,9.45C284.85,237.73,267.83,237.36,252.21,229.34Z" transform="translate(0.03 -0.03)" style="fill:#474747;stroke:#474747;stroke-miterlimit:10;stroke-width:2px"/><path d="M287.48,271.92c-2.92.06-4.8-1.58-6.82-2.64a197.09,197.09,0,0,1-32.41-21.36c-1.21-1-3.33-2.41-2.44-3.76s3,.14,4.31.88C263.46,252.57,276.11,261.08,287.48,271.92Z" transform="translate(0.03 -0.03)" style="fill:#474747;stroke:#474747;stroke-miterlimit:10;stroke-width:2px"/><path d="M222.31,135.28c.22,1.9-1.06,2.74-2,3.61-10,9-21.56,13.24-35.1,11.3-.51-.08-1.17-.74-1.57.07-.25.52.23,1,.55,1.37,6.59,8,13.29,15.78,22.54,20.87a75.82,75.82,0,0,0,7,3.46c.81.34,2.33.25,2.21,1.35s-1.6.71-2.44.74c-10.7.45-21.28-.11-31.54-3.61-4.4-1.5-4.4-1.41-4.74,3.12-.83,11,2.36,21,7.29,30.66a4.6,4.6,0,0,1,1,3.21c-10.12-8-19.6-15.92-27.9-25.43a158.79,158.79,0,0,1,3,28.35c-.89-.09-.88-.74-1-1.16-6.69-20.51-20.9-34.13-40-43-14.56-6.77-29.92-11.36-45.34-15.7a83.15,83.15,0,0,1-36.63-21.35C25.23,120.84,21.07,106,23.28,88.91c2.28-17.6,11.93-31.12,23.79-43.39A84.63,84.63,0,0,1,71.82,28.14c14.47-6.92,29.14-7.23,43.68-.57,33.38,15.29,56.4,39.75,66.28,75.7,2,7.42,3.82,15,7.76,21.7a33.07,33.07,0,0,0,9.19,10.46c7,5,14.59,5.25,21.82.58A3.76,3.76,0,0,1,222.31,135.28Zm-93,18.87c3.37-2.87,3.79-5.15,1.53-9-1-1.77-2.25-3.45-3.38-5.17-1.62-2.91-4.29-4.64-7.14-6-3.38-1.66-6.6-.32-8.08,3.15-1.81,4.23,0,7.54,2.77,10.58,4.25,4.72,10.72,6,15.4,10.48.47-1.95-.94-2.79-1.09-4ZM106,127c5.7-.15,7.26-2.75,4.69-7.84a9.43,9.43,0,0,1-.41-1c-.14-.37.11-.6,0-.71-3.84-3.39-7.92-6.49-13-7.75s-8.9,2.3-8.12,7.34c.92,6,9.43,12.25,15.49,11.42C105.63,128.36,106.43,128.24,106,127Zm-7.14,23.61c-.16-1.85,1.47-3.32,1-5.25-.56-2.6-2.21-4.42-4.1-6.11-.16-.47,2-1,0-1.41-2.39-.54-4.07-2.17-5.77-3.79A31.63,31.63,0,0,0,86.5,131a7,7,0,0,0-8.26-.1A7.94,7.94,0,0,0,75.4,139a11.87,11.87,0,0,0,4.26,6.35C85.33,150.1,92.27,152,99.19,154a2.34,2.34,0,0,0,2.28-.32c-.26-1.56-1.94-1.89-2.58-3.07Zm-20-38c-1-1.85-.41-3.06,1.21-4.37,3.09-2.5,3.64-6.09,1.86-9.76-.94-5.09-1.74-10.22-4.06-14.93a14.5,14.5,0,0,0-1.8-2.84c-3.35-4-8.16-3.53-10.11,1.29-1.59,3.89-3,8-2.54,12.32a27.88,27.88,0,0,0,10.06,19,15,15,0,0,0,8,3.79c-.4-2-2.2-2.86-2.62-4.52Zm-22-9.45c0-.42.18-.93,0-1.24-2.12-3.71-2.49-7.87-3.16-12-.57-3.4-.69-6.92-2.48-10-2.46-4.21-7.35-4.55-10.29-.67a14.82,14.82,0,0,0-2.72,6.1,51.86,51.86,0,0,0-.71,8.53C37,107.77,43.24,118,54.73,125.15a20.4,20.4,0,0,0,9.77,3.59c-1.94-3-4.89-4.46-6.39-7.16a9.21,9.21,0,0,0-.88-2.13c-1-1.39-1.42-2.39.18-3.89,1.89-1.78,2-4.34,1.26-6.8-.56-1.89-1.24-3.76-1.86-5.62ZM50.42,64.08c0,.8-.18,2.1,1,2.51,1.36.48,1.92-.79,2.46-1.77a14.44,14.44,0,0,0,1.41-2.77c1.21-4,4.13-6.15,7.83-7.27,3.13-.94,4.37-3.66,6.23-5.8a2.9,2.9,0,0,0,.08-3.44c-.6-1-1.79-.39-2.66-.24C59.18,46.54,50.83,56.08,50.42,64.08ZM82.16,42.91a13.88,13.88,0,0,0-5.3,1.56c-6,3.08-8.18,9.12-11.12,14.55a.85.85,0,0,0,.14,1.17c.69.48,1.12-.12,1.5-.56a97.94,97.94,0,0,1,7.89-7.49A3.44,3.44,0,0,1,78,51c2.4.19,4.89.67,6.76-1.54a.85.85,0,0,1,.65-.19c.89,1.35,1.61.76,2.19-.22a3.17,3.17,0,0,0-.15-3.66C86.22,43.61,84.36,43,82.16,42.91ZM81,67.2a6.86,6.86,0,0,0-9.2-3.13l-.45.24a18.44,18.44,0,0,0-7.06,7.07c-.51.85-1.63,1.93-.75,2.75,1,1,1.68-.65,2.47-1.14C70.58,70.18,74.64,66.14,81,67.2ZM97.33,38.74c.08-2.3-.13-4.36-2.3-5.42a11.5,11.5,0,0,0-9.09-.41c-.76.27-1.51.65-1.5,1.57s1,1,1.69,1.25C89.75,36.84,93.58,37.13,97.33,38.74Z" transform="translate(0.03 -0.03)" style="fill:#fee9a9"/><path d="M223.13,285.68a44.17,44.17,0,0,1-1.12,7.93c-.42,2.47-.86,4.94-1.25,7.41-.21,1.27,0,2.06,1.64,1.49,3.74-1.34,7.48-2.67,11.26-3.86a22.84,22.84,0,0,1,8.44-1.21c-.06.39,0,.71-.15.85-7.48,7.56-9.44,17.06-9.57,27.2-.1,7.81,1.33,15.53,1.42,23.33.19,15.43-3,29.89-12.17,42.7-6.91,9.65-16.56,15.45-27.44,19.21-30.48,10.53-58.38,4.63-82.09-16.34-18.69-16.53-27-49.86-1.82-75.63A80.43,80.43,0,0,1,134.82,302a104.24,104.24,0,0,0,21.61-12.83c7.36-5.86,13-12.93,15.53-22.17a8.76,8.76,0,0,1,.66-1.34c1.2,2.53,1.44,5,2,7.46,1.24,5.75,2.4,11.53,3.11,17.37a40.08,40.08,0,0,1,0,4.65c0,.51.11,1.08.76,1.18a1,1,0,0,0,1-.63c3.36-6,8.7-10.27,13.21-15.27,1.34-1.47,2.56-3.05,3.86-4.56a1.76,1.76,0,0,1,1-.71c.54,0,.53.56.6,1a162,162,0,0,0,6.72,26.38,8.8,8.8,0,0,1,.26,1.26c.24,1.21-.71,3.14.72,3.45,1.09.24,1.55-1.82,2.12-2.89,3.35-6.25,7.91-11.54,12.66-16.71A5,5,0,0,1,223.13,285.68ZM194.71,395.31c-.4-3.31-1.7-5.05-4-5.26s-3.85,1.2-4.88,4.08c-2.59,1.1-2.71,1.84-.49,3.55a23.71,23.71,0,0,0,3.86,2.56,3.52,3.52,0,0,0,4.32-.57C194.72,398.49,195.71,397.12,194.71,395.31Zm-29.33-8.39c-.75.28-2-.74-2.23.91-.42,3.18,2,7.94,4.86,9.49s5.45.55,6.41-2.63a10.78,10.78,0,0,0-2-7.73c-2.08-3-4.82-3-7,0Zm-6.09,2.47a15,15,0,0,0-2.88-10.93c-2.12-2.86-4.14-3.15-6.92-1-.89,0-1.81-3.32-2.52-.35-1,4.35-1,8.74,2.41,12.46,2.68,2.95,6.36,3.55,9.49,1.25.56-.37.91-.76.42-1.43Zm-7.66-48.7c-.57-1,.79-2.15-.15-2.9-.65-.52-1.51.2-2.06.67-4.89,4.21-8.39,9.14-7.85,16,.38,4.7,2.58,7.72,5.83,8.1,3.44.4,5.72-1.68,7.28-6.64a21.72,21.72,0,0,0,2.88-7.15c.74-4.69-1.51-7.77-5.93-8.08Zm-.12-31.32c.26-1.39,1.67-1.91,2.28-3,.21-.39.46-.79.19-1.2a1,1,0,0,0-1.16-.3,9.63,9.63,0,0,0-1.7.62c-5.82,2.95-10.81,12.18-10.13,18.7.4,3.83,3.46,5.8,7,4.39,5.16-2.05,8.22-6.11,10.24-11.07a1.68,1.68,0,0,0-.28-2.14c-.18-4.82-.95-6.84-6.44-6Zm-20.58,59.26-.27-2.55c-.06-.61-.1-1.42-.66-1.59-.82-.24-1.09.64-1.43,1.21A19.81,19.81,0,0,0,131,389.91c1.74,1.87,7.19,3.29,9.16,2.06,2.61-1.63,3.32-4.26,2.85-7.24-.33-2.13-.56-4.28-1-6.39-.13-.66,0-1.87-1.4-1.61a16.37,16.37,0,0,0-1.51-4.62c-2-3.8-4.3-4.79-8.17-3.48Zm1.29-32.91c.25-6-.82-7.36-5.93-7.8,1.2-3.36,3.44-6.1,5.41-9,.67-1,1.67-1.82,1.77-3.48-3.44,1.73-6,4.16-8.79,6.08-8,5.42-13.71,12.6-16.24,22.07a23.14,23.14,0,0,0-.41,12.05c1.71,6.44,8.65,8.54,13.66,4.16a13.65,13.65,0,0,0,3.4-4.54q4.38-9.52,8.72-19.08c.15-.34.41-.78,0-1.15-.68,0-.89.89-1.59.69ZM184,402.25c-2.61,1.28-4.86.16-7.16.08-5.64-.2-11.18-1-15.89-4.56a5.39,5.39,0,0,0-1.14-.6c-.46-.19-1-.52-1.34.14-.23.46.08.85.41,1.13,3.54,3,7,6.16,11.47,7.85C175.58,408.27,181.35,406.37,184,402.25Z" transform="translate(0.03 -0.03)" style="fill:#fee9a9"/><path d="M58.11,121.58c1.5,2.7,4.45,4.17,6.39,7.16a20.4,20.4,0,0,1-9.77-3.59C43.24,118,37,107.77,37.46,93.89a51.86,51.86,0,0,1,.71-8.53,14.82,14.82,0,0,1,2.72-6.1c2.94-3.88,7.83-3.54,10.29.67,1.79,3.09,1.91,6.61,2.48,10,.67,4.09,1,8.25,3.16,12,.17.31,0,.82,0,1.24-5.3-3-7.57-8-8.86-13.86C45.06,99.08,47.7,113.51,58.11,121.58Z" transform="translate(0.03 -0.03)" style="fill:#474747;stroke:#474747;stroke-miterlimit:10;stroke-width:2px"/><path d="M78.86,112.59c.42,1.66,2.22,2.56,2.57,4.52a15,15,0,0,1-8-3.79,27.88,27.88,0,0,1-10.06-19C63,89.94,64.37,85.87,66,82c2-4.82,6.76-5.3,10.11-1.29a14.5,14.5,0,0,1,1.8,2.84C80.23,88.26,81,93.39,82,98.48c-3.78-.89-5.92-3.77-8.06-6.81C70.51,100,72.91,106.71,78.86,112.59Z" transform="translate(0.03 -0.03)" style="fill:#474747;stroke:#474747;stroke-miterlimit:10;stroke-width:2px"/><path d="M98.89,150.59c.64,1.18,2.32,1.51,2.58,3a2.34,2.34,0,0,1-2.28.32C92.27,152,85.33,150,79.66,145.28A11.85,11.85,0,0,1,75.4,139a7.93,7.93,0,0,1,2.84-8.09,7,7,0,0,1,8.26.1,31.2,31.2,0,0,1,3.5,3c1.7,1.62,3.38,3.25,5.77,3.79,2,.44-.12.94,0,1.41a13.49,13.49,0,0,1-9.55-1.2A34,34,0,0,0,89,143.92C91.32,147.72,95.38,148.69,98.89,150.59Z" transform="translate(0.03 -0.03)" style="fill:#474747;stroke:#474747;stroke-miterlimit:10;stroke-width:2px"/><path d="M106,127c.4,1.26-.4,1.38-1.35,1.51-6.06.83-14.57-5.43-15.49-11.42-.78-5,3-8.61,8.12-7.34s9.15,4.36,13,7.75c.12.11,0,.47,0,.71-1.78-.13-3.58.11-5.36-.34-3.25-.82-3.8-.15-3.57,3.29.15,2.33.75,4.09,3.13,4.91A7.65,7.65,0,0,1,106,127Z" transform="translate(0.03 -0.03)" style="fill:#474747;stroke:#474747;stroke-miterlimit:10;stroke-width:2px"/><path d="M129.32,154.15c.15,1.25,1.56,2.09,1.1,4-4.68-4.48-11.15-5.76-15.4-10.48-2.75-3-4.58-6.35-2.77-10.58,1.48-3.47,4.7-4.81,8.08-3.15,2.85,1.4,5.52,3.13,7.14,6l-7.1-2.39C121.57,144.37,125,149.47,129.32,154.15Z" transform="translate(0.03 -0.03)" style="fill:#474747;stroke:#474747;stroke-miterlimit:10;stroke-width:2px"/><path d="M58.11,121.58c-10.41-8.07-13-22.5-10.16-32.3,1.29,5.91,3.56,10.89,8.86,13.86.62,1.87,1.3,3.73,1.86,5.62.72,2.46.63,5-1.26,6.8-1.6,1.5-1.2,2.5-.18,3.89A9.21,9.21,0,0,1,58.11,121.58Z" transform="translate(0.03 -0.03)" style="fill:#fffffe"/><path d="M50.42,64.08c.41-8,8.76-17.54,16.32-18.78.87-.15,2.06-.73,2.66.24A2.9,2.9,0,0,1,69.32,49c-1.86,2.14-3.1,4.86-6.23,5.8-3.7,1.12-6.62,3.31-7.83,7.27a14.44,14.44,0,0,1-1.41,2.77c-.54,1-1.1,2.25-2.46,1.77C50.24,66.18,50.43,64.88,50.42,64.08Z" transform="translate(0.03 -0.03)" style="fill:#474747;stroke:#474747;stroke-miterlimit:10;stroke-width:2px"/><path d="M82.16,42.91c2.2.12,4.06.7,5.31,2.49a3.17,3.17,0,0,1,.15,3.66c-.58,1-1.3,1.57-2.19.22a.85.85,0,0,0-.65.19C82.91,51.68,80.42,51.2,78,51a3.45,3.45,0,0,0-2.75,1.13,97.94,97.94,0,0,0-7.89,7.49c-.38.44-.81,1-1.5.56A.85.85,0,0,1,65.74,59c2.94-5.43,5.07-11.47,11.12-14.55A13.9,13.9,0,0,1,82.16,42.91Z" transform="translate(0.03 -0.03)" style="fill:#474747;stroke:#474747;stroke-miterlimit:10;stroke-width:2px"/><path d="M78.86,112.59c-6-5.88-8.35-12.62-5-20.94,2.14,3,4.28,5.92,8.06,6.81,1.78,3.67,1.23,7.26-1.86,9.76C78.45,109.53,77.87,110.74,78.86,112.59Z" transform="translate(0.03 -0.03)" style="fill:#fffffe"/><path d="M129.32,154.15c-4.28-4.68-7.75-9.78-8.95-16.52l7.1,2.39c1.13,1.72,2.33,3.4,3.38,5.17C133.11,149,132.69,151.28,129.32,154.15Z" transform="translate(0.03 -0.03)" style="fill:#fffffe"/><path d="M98.89,150.59c-3.51-1.9-7.57-2.87-9.88-6.67A34.47,34.47,0,0,1,86.29,138a13.49,13.49,0,0,0,9.55,1.2c1.89,1.69,3.54,3.51,4.1,6.11C100.36,147.27,98.73,148.74,98.89,150.59Z" transform="translate(0.03 -0.03)" style="fill:#fffffe"/><path d="M106,127a7.65,7.65,0,0,0-1.52-.93c-2.38-.82-3-2.58-3.13-4.91-.23-3.44.32-4.11,3.57-3.29,1.78.45,3.58.21,5.36.34.14.32.25.64.41,1Q114.59,126.74,106,127Z" transform="translate(0.03 -0.03)" style="fill:#fffffe"/><path d="M81,67.2c-6.37-1.06-10.43,3-15,5.79-.79.49-1.43,2.09-2.47,1.14-.88-.82.24-1.9.75-2.75a18.44,18.44,0,0,1,7.06-7.07,6.88,6.88,0,0,1,9.41,2.42Z" transform="translate(0.03 -0.03)" style="fill:#474747;stroke:#474747;stroke-miterlimit:10;stroke-width:2px"/><path d="M97.33,38.74c-3.75-1.61-7.58-1.9-11.2-3-.73-.23-1.67-.21-1.69-1.25s.74-1.3,1.5-1.57a11.5,11.5,0,0,1,9.09.41C97.2,34.38,97.41,36.44,97.33,38.74Z" transform="translate(0.03 -0.03)" style="fill:#474747;stroke:#474747;stroke-miterlimit:10;stroke-width:2px"/><path d="M131.22,335.72c.7.2.91-.73,1.55-.69.45.37.19.81,0,1.15q-4.34,9.56-8.72,19.08a13.65,13.65,0,0,1-3.4,4.54c-5,4.38-12,2.28-13.66-4.16a23.14,23.14,0,0,1,.41-12.05c2.53-9.47,8.21-16.65,16.24-22.07,2.84-1.92,5.34-4.35,8.79-6.08-.1,1.66-1.1,2.51-1.77,3.48-2,2.9-4.21,5.64-5.41,9A34.67,34.67,0,0,0,117,356.27a19.6,19.6,0,0,0,5.4-6.59C124.94,344.79,127.33,339.77,131.22,335.72Z" transform="translate(0.03 -0.03)" style="fill:#474747;stroke:#474747;stroke-miterlimit:10;stroke-width:2px"/><path d="M131.22,335.72c-3.89,4-6.28,9.07-8.85,14a19.6,19.6,0,0,1-5.4,6.59A34.69,34.69,0,0,1,125.29,328C130.4,328.36,131.47,329.77,131.22,335.72Z" transform="translate(0.03 -0.03)" style="fill:#fffffe"/><path d="M139.66,376.73c1.36-.26,1.27.95,1.4,1.61.43,2.11.66,4.26,1,6.39.47,3-.24,5.61-2.86,7.24-2,1.23-7.41-.19-9.15-2.06a19.81,19.81,0,0,1-2.47-24.21c.34-.57.61-1.45,1.43-1.21.56.17.6,1,.66,1.59l.27,2.55c-1.25,6.16,1.28,11,5.33,15.34.67.71,1.21,2,2.4,1.64,1.35-.41,1.25-1.86,1.47-3C139.49,380.65,138.76,378.62,139.66,376.73Z" transform="translate(0.03 -0.03)" style="fill:#474747;stroke:#474747;stroke-miterlimit:10;stroke-width:2px"/><path d="M157,315.33a1.69,1.69,0,0,1,.28,2.14c-2,5-5.08,9-10.24,11.07-3.56,1.41-6.62-.56-7-4.39-.68-6.52,4.31-15.75,10.13-18.7a9.63,9.63,0,0,1,1.7-.62,1,1,0,0,1,1.16.3c.27.41,0,.81-.19,1.2-.61,1.13-2,1.65-2.28,3-.15.08-.34.13-.43.25-3.38,4.58-3,10.08-3.66,15.3-.13,1,.7.83,1.24.53a14.8,14.8,0,0,0,2.35-1.57C152.86,321.47,154.89,318.37,157,315.33Z" transform="translate(0.03 -0.03)" style="fill:#474747;stroke:#474747;stroke-miterlimit:10;stroke-width:2px"/><path d="M153.68,355.93c-1.56,5-3.84,7-7.28,6.64-3.25-.38-5.45-3.4-5.83-8.1-.54-6.87,3-11.8,7.85-16,.55-.47,1.41-1.19,2.05-.67.95.75-.41,1.93.16,2.9-3.33,5.09-3.73,10.76-3.32,16.61.17,2.34.53,2.48,2.58,1.41C151.32,358,151.89,356.12,153.68,355.93Z" transform="translate(0.03 -0.03)" style="fill:#474747;stroke:#474747;stroke-miterlimit:10;stroke-width:2px"/><path d="M153.68,355.93c-1.79.19-2.36,2-3.79,2.78-2,1.07-2.41.93-2.58-1.41-.41-5.85,0-11.52,3.32-16.61,4.42.32,6.67,3.39,5.93,8.09A21.72,21.72,0,0,1,153.68,355.93Z" transform="translate(0.03 -0.03)" style="fill:#fffffe"/><path d="M139.66,376.73c-.9,1.89-.17,3.92-.53,5.86-.22,1.16-.12,2.61-1.47,3-1.19.37-1.73-.93-2.4-1.64-4-4.31-6.58-9.18-5.33-15.34,3.87-1.31,6.19-.32,8.22,3.48A16.18,16.18,0,0,1,139.66,376.73Z" transform="translate(0.03 -0.03)" style="fill:#fffffe"/><path d="M157,315.33c-2.08,3-4.11,6.14-7,8.55a14.8,14.8,0,0,1-2.35,1.57c-.54.3-1.37.46-1.24-.53.71-5.22.28-10.72,3.66-15.3.09-.12.28-.17.43-.25C156,308.53,156.77,310.55,157,315.33Z" transform="translate(0.03 -0.03)" style="fill:#fffffe"/><path d="M183,402.25c-2.63,4.12-8.4,6-13.65,4-4.47-1.69-7.93-4.83-11.47-7.85-.33-.28-.65-.67-.41-1.13.35-.66.88-.33,1.34-.14a5.39,5.39,0,0,1,1.14.6c4.71,3.57,10.25,4.36,15.89,4.56C178.12,402.41,180.37,403.53,183,402.25Z" transform="translate(0.03 -0.03)" style="fill:#474747;stroke:#474747;stroke-miterlimit:10;stroke-width:2px"/><path d="M148.49,377.5c2.78-2.19,4.8-1.9,6.92,1a15,15,0,0,1,2.88,10.93,5.39,5.39,0,0,1-6-2.9C150.49,383.69,149.75,380.49,148.49,377.5Z" transform="translate(0.03 -0.03)" style="fill:#fffffe"/><path d="M148.49,377.5c1.26,3,2,6.19,3.75,9,1.43,2.3,3.34,3.37,6,2.9.49.67.14,1.06-.42,1.47-3.13,2.3-6.81,1.7-9.49-1.25-3.37-3.72-3.45-8.11-2.41-12.46C146.68,374.18,147.6,377.47,148.49,377.5Z" transform="translate(0.03 -0.03)" style="fill:#474747;stroke:#474747;stroke-miterlimit:10;stroke-width:2px"/><path d="M173.42,394.69c-1,3.18-3.48,4.22-6.41,2.63s-5.28-6.31-4.86-9.49c.22-1.65,1.48-.63,2.23-.91,1.18,1.56,2.31,3.15,3.54,4.67C169.33,393.34,170.84,395,173.42,394.69Z" transform="translate(0.03 -0.03)" style="fill:#474747;stroke:#474747;stroke-miterlimit:10;stroke-width:2px"/><path d="M173.42,394.69c-2.58.3-4.09-1.35-5.5-3.1-1.23-1.52-2.36-3.11-3.54-4.67,2.22-2.91,5-2.94,7,0A10.74,10.74,0,0,1,173.42,394.69Z" transform="translate(0.03 -0.03)" style="fill:#fffffe"/><path d="M193.71,395.31c1,1.81,0,3.18-1.14,4.36a3.52,3.52,0,0,1-4.32.57,23.71,23.71,0,0,1-3.86-2.56c-2.22-1.71-2.1-2.45.49-3.55C187.87,394.15,190.56,396.46,193.71,395.31Z" transform="translate(0.03 -0.03)" style="fill:#474747;stroke:#474747;stroke-miterlimit:10;stroke-width:2px"/><path d="M193.71,395.31c-3.15,1.15-5.84-1.16-8.83-1.18,1-2.88,2.72-4.29,4.88-4.08S193.31,392,193.71,395.31Z" transform="translate(0.03 -0.03)" style="fill:#fffffe"/></g><path d="M87.89,127.44A107.73,107.73,0,0,1,77.24,116a19.29,19.29,0,0,1-3.58-2.43,27.9,27.9,0,0,1-10.06-19,15.93,15.93,0,0,1-.08-1.69,78.74,78.74,0,0,1-6-30.07c0-1.47.06-3,.16-4.42a10.15,10.15,0,0,0-2.21,3.93A15.16,15.16,0,0,1,54,65c-.55,1-1.1,2.25-2.47,1.76-1.14-.41-1-1.7-1-2.51.26-5.12,3.79-10.87,8.28-14.67a60.4,60.4,0,0,1,6.94-18A81.09,81.09,0,0,0,47.26,45.73C35.4,58,25.75,71.51,23.47,89.11c-2.21,17,2,31.94,14.29,44.22a83,83,0,0,0,36.62,21.35c15.43,4.34,30.79,8.93,45.35,15.7,19.09,8.88,33.3,22.5,40,43,.14.42.13,1.06,1,1.15-.18-6-.52-11.9-1.24-17.83C140,170.14,111.76,149.59,87.89,127.44Zm-33-2.08C43.43,118.16,37.14,108,37.65,94.1a51.86,51.86,0,0,1,.71-8.53,15.13,15.13,0,0,1,2.72-6.11c2.94-3.87,7.83-3.54,10.28.68,1.8,3.09,1.92,6.61,2.48,10,.68,4.09,1,8.25,3.16,12,.18.31,0,.82,0,1.24.63,1.87,1.31,3.73,1.86,5.62.72,2.46.64,5-1.25,6.8-1.6,1.5-1.2,2.49-.18,3.89a9.59,9.59,0,0,1,.88,2.12c1.49,2.71,4.45,4.17,6.39,7.16a20.32,20.32,0,0,1-9.78-3.61Zm44.46,28.8c-6.92-1.95-13.86-3.88-19.53-8.63a12,12,0,0,1-4.27-6.35,8,8,0,0,1,2.84-8.09,7,7,0,0,1,8.26.1,29.35,29.35,0,0,1,3.54,3.05c1.7,1.61,3.38,3.25,5.77,3.78,2,.45-.13.95,0,1.41,1.88,1.69,3.53,3.52,4.1,6.12.42,1.93-1.22,3.39-1.06,5.24.64,1.18,2.33,1.52,2.58,3a2.32,2.32,0,0,1-2.2.37Z" transform="translate(0.03 -0.03)" style="fill:#e8cf83"/><path d="M139.68,394.17c-.31-.59-.59-1.18-.88-1.77-2.28.74-7-.57-8.57-2.29a19.8,19.8,0,0,1-2.47-24.2c.34-.57.61-1.46,1.43-1.22.56.17.6,1,.66,1.6l.27,2.54a9.64,9.64,0,0,1,2.76-.53c-.5-13.6,3.3-27.28,9.68-39.76a5.31,5.31,0,0,1-2.38-4.19c-.68-6.51,4.31-15.74,10.12-18.69A10,10,0,0,1,152,305a1,1,0,0,1,1.16.29c.28.42,0,.82-.18,1.2-.61,1.13-2,1.66-2.28,3.05a8.59,8.59,0,0,1,4,.07c9.56-13,19.92-26.54,17.49-43-.11-.25-.21-.5-.33-.76a8.43,8.43,0,0,0-.66,1.35c-2.55,9.24-8.18,16.31-15.53,22.16A103.74,103.74,0,0,1,134,302.24,80.26,80.26,0,0,0,109.47,319c-25.16,25.77-16.88,59.1,1.81,75.63,13.92,12.26,29.27,19.37,45.72,21A68,68,0,0,1,139.68,394.17ZM120.87,360c-5,4.39-11.94,2.28-13.65-4.16a23,23,0,0,1,.4-12c2.53-9.47,8.22-16.66,16.24-22.07,2.85-1.92,5.35-4.36,8.79-6.08-.1,1.65-1.1,2.5-1.76,3.48-2,2.9-4.21,5.63-5.42,9,5.11.44,6.19,1.85,5.94,7.79.7.2.91-.72,1.55-.69.45.37.19.82,0,1.15q-4.34,9.56-8.73,19.09A13.25,13.25,0,0,1,120.87,360Z" transform="translate(0.03 -0.03)" style="fill:#e8cf83"/></g></g></svg>