<svg id="Layer_1" data-name="Layer 1" xmlns="http://www.w3.org/2000/svg" viewBox="0 0 375 515"><title>nut-xray</title><g id="Layer_2" data-name="Layer 2"><g style="opacity:0.12"><path d="M360.55,422.8V265.56c0-8.13-.73-8.85-9-8.84h-97.2c-2.24,0-3.12-.38-3.42-2.92a68,68,0,0,1,11.58-47.48c8-11.84,13.41-24.82,17.28-38.53,6-21.33,4.4-42-5.18-62-.7-1.48-2.23-2.58-2.36-4.55,21.09,9.36,31.15,1.42,40.74-8a45,45,0,0,1-18.74,4.51c-6.58.12-13-.53-19-4.75,13.51-1.51,15-1.93,20.93-6a36.45,36.45,0,0,0,3.61-2.82c5-4.39,8.56-9.89,8.85-13.84h0a3.77,3.77,0,0,0-1.46,1.72,6.29,6.29,0,0,1-.41.64c-3.78,5-8.47,8.74-14.55,10.26-11.84,3-23.36,2.8-34.22-3.87-2.17-1.33-2.54-2.33-1.92-4.74,2.81-11.14,2.69-22.11-2.91-32.52-.54-1-.87-2.39-2.55-2.13a8.36,8.36,0,0,0,.22,3.85c1.81,10.41-1.31,15.77-9.41,20.58-8.73,5.18-18,4.53-27.31,1.85-1.14-.33-1.06-1-.7-1.9.74-1.91,1.22-3.92,2-5.79,2.63-6,1.55-11-3.38-15.32a8.34,8.34,0,0,1-2.8-7.27c.08-1.2.16-2.42.15-3.62-.08-7.23-4.79-11.13-11.93-9.89A28.45,28.45,0,0,0,186.27,27c-5.55,3.77-10.69,8.07-16,12.17-3.51,2.71-5.79,7.22-11.41,7.79a28.27,28.27,0,0,0-9.11.92,3.46,3.46,0,0,0,.22-.31,15.68,15.68,0,0,0-9.3,2.66,7.54,7.54,0,0,1-5,1.33,137.43,137.43,0,0,0-27.57,1.18c-8,1.29-16,2.81-22.84,7.59-7.72,5.4-8.76,12.18-2.89,19.47a24.39,24.39,0,0,1,4.25,9.25c2.93,10.53,9.36,18,20,21.8A51,51,0,0,0,101,127.09c-1,5.21-1.72,10.47-2.81,15.65-1.45,6.82-2.76,13.74-6.65,19.73-3.09,4.75-7.2,7.73-13.25,7-1.09-.13-2.11-1-3.5-.28a15.73,15.73,0,0,0,10.1,2.8c7.2-.45,11.13-5.61,15.09-10.88.22.46.42.7.43.94.35,7.74.38,15.5-1.23,23.08A27,27,0,0,1,89,201.35c-1.08.83-2.6,1.08-3.31,2.47,10.37-1.5,14.88-6.52,22.66-25.17.49-.05.59.38.7.69,3.7,11.14,9.83,21,16,30.88,8.35,13.33,10.8,27.92,9.23,43.41-.26,2.57-1.16,3.12-3.57,3.11q-50.82-.12-101.65-.06c-6.12,0-7.23,1.07-7.23,7.08V425.22c.07,3.58,1.72,5.23,5.32,5.47.93.06,1.86,0,2.8,0H98.3c1.46,0,2.79-.27,3.34,1.88,4.84,18.79,16,33.79,29.11,47.49,10.65,11.09,24,16.93,38.94,19.65,10.54,1.92,21.18.8,31.76,1.15a66.78,66.78,0,0,0,16.91-1.71c11.66-2.63,22.56-6.72,31.68-14.9,3.77-3.38,6.93-7.24,10.4-10.85a95,95,0,0,0,23.05-39.95c.64-2.19,1.54-2.83,3.79-2.82q32.82.14,65.63,0c1,0,2.06,0,3.07-.08,2.75-.23,4.18-1.85,4.49-4.49A27.25,27.25,0,0,0,360.55,422.8Z" transform="translate(0.13 0.04)" style="fill:#6a374f;stroke:#6a374f;stroke-linecap:round;stroke-linejoin:round;stroke-width:28px"/><path d="M113.43,107.78s-8.09-2-12.13-4.56S89.64,89.46,89.64,89.46V83s-8.32-6.42-7.37-11.9S93.92,58.78,93.92,58.78l44.89-5.48s10.47-8.68,24.09-5.76L196,26s10.94-2.85,10.94,4.52,3.64,17.07,3.64,17.07a8.06,8.06,0,0,1,1.71,9.26C209.76,62.34,201.2,75,201.2,75l-33.08-2.62L135,80.05S116.52,106.82,113.43,107.78Z" transform="translate(0.13 0.04)" style="fill:#6a374f"/><rect x="27.82" y="261.5" width="329.3" height="162.73" style="fill:#6a374f"/><path d="M109.54,178.68c.5-.05.6.38.7.69,3.7,11.14,9.83,21,16,30.88,8.34,13.33,10.79,27.92,9.22,43.41-.26,2.57-1.16,3.12-3.56,3.11q-50.84-.12-101.66-.06c-6.12,0-7.23,1.07-7.23,7.08V425.22c.07,3.58,1.72,5.23,5.32,5.47.93.06,1.87,0,2.8,0H99.3c1.46,0,2.79-.27,3.34,1.88,4.85,18.79,16,33.79,29.11,47.49,10.65,11.09,24,16.93,38.94,19.65,10.54,1.92,21.18.8,31.77,1.15a66.75,66.75,0,0,0,16.9-1.71c11.66-2.63,22.56-6.72,31.68-14.9,3.77-3.38,6.93-7.24,10.4-10.85a95,95,0,0,0,23.05-39.95c.64-2.19,1.54-2.83,3.79-2.82q32.82.14,65.64,0c1,0,2.05,0,3.06-.08,2.75-.23,4.18-1.85,4.49-4.49a28.65,28.65,0,0,0,.08-3.34V265.56c0-8.13-.73-8.85-9-8.84h-97.2c-2.24,0-3.12-.38-3.42-2.92a68,68,0,0,1,11.58-47.48c8-11.84,13.41-24.82,17.28-38.53,6-21.33,4.4-42-5.17-62-.71-1.48-2.24-2.58-2.37-4.55,21.09,9.36,31.15,1.42,40.74-8a45,45,0,0,1-18.74,4.51c-6.58.12-13-.53-19-4.75,13.51-1.51,15-1.93,20.93-6,6.71-4.59,12.11-11.8,12.46-16.66-1,.49-1.27,1.56-1.87,2.36-3.77,5-8.47,8.74-14.55,10.26-11.83,3-23.36,2.8-34.22-3.87-2.17-1.33-2.53-2.33-1.92-4.74,2.81-11.14,2.69-22.11-2.91-32.52-.54-1-.87-2.39-2.55-2.13a8.36,8.36,0,0,0,.22,3.85c1.81,10.41-1.31,15.77-9.41,20.58-8.73,5.18-18,4.53-27.31,1.85-1.14-.33-1.06-1-.7-1.9.74-1.91,1.22-3.92,2.05-5.79,2.62-6,1.54-11-3.38-15.32a8.35,8.35,0,0,1-2.81-7.27c.08-1.2.16-2.42.15-3.62-.08-7.23-4.79-11.13-11.93-9.89A28.6,28.6,0,0,0,187.31,27c-5.55,3.77-10.69,8.07-16,12.17-3.74,2.88-6.09,7.82-12.56,7.85,1.8,1.05,2.76,1.57,3.69,2.15a14,14,0,0,1,6,15.3,5.93,5.93,0,0,1-4.36,4.59c-3.59,1-7.13,2.13-10.75,3-5.2,1.25-11-2.07-12.17-6.85-1.42-5.56,2.19-13.36,7.33-16,.78-.39,1.78-.45,2.5-1.69a15.68,15.68,0,0,0-9.3,2.66,7.54,7.54,0,0,1-5,1.33,137.43,137.43,0,0,0-27.57,1.18c-8,1.29-16,2.81-22.84,7.59-7.72,5.4-8.76,12.18-2.89,19.47A24.39,24.39,0,0,1,87.64,89c2.93,10.53,9.36,18,20,21.8A51,51,0,0,0,102.06,127c-1,5.21-1.72,10.47-2.81,15.65-1.45,6.82-2.76,13.74-6.65,19.73-3.09,4.75-7.2,7.73-13.25,7-1.08-.13-2.11-1-3.5-.28a15.73,15.73,0,0,0,10.1,2.8c7.2-.45,11.13-5.61,15.09-10.88.22.46.42.7.43.94.35,7.74.38,15.5-1.23,23.08A27,27,0,0,1,90.06,201.3c-1.08.83-2.6,1.08-3.31,2.47C97.25,202.35,101.76,197.33,109.54,178.68Z" transform="translate(0.13 0.04)" style="fill:#6a374f"/><path d="M109.54,178.68c-7.78,18.65-12.29,23.67-22.66,25.17.71-1.39,2.23-1.64,3.31-2.47a27,27,0,0,0,10.18-16.22c1.63-7.58,1.63-15.34,1.23-23.08,0-.24-.21-.48-.43-.94-4,5.27-7.89,10.43-15.09,10.88a15.73,15.73,0,0,1-10.1-2.8c1.39-.76,2.42.15,3.5.28,6,.74,10.16-2.24,13.25-7,3.89-6,5.2-12.91,6.65-19.73,1.09-5.18,1.84-10.44,2.81-15.65a51,51,0,0,1,5.58-16.22c-10.64-3.8-17.07-11.27-20-21.8a24.39,24.39,0,0,0-4.25-9.25c-5.87-7.29-4.83-14.07,2.89-19.47,6.85-4.78,14.81-6.3,22.84-7.59a137.43,137.43,0,0,1,27.57-1.18,7.54,7.54,0,0,0,5-1.33,15.68,15.68,0,0,1,9.3-2.66c-.72,1.24-1.72,1.3-2.5,1.69-5.14,2.59-8.75,10.39-7.33,16,1.22,4.78,7,8.1,12.17,6.85,3.62-.87,7.16-2,10.75-3a5.93,5.93,0,0,0,4.36-4.59,14,14,0,0,0-6-15.3c-.93-.58-1.89-1.1-3.69-2.15,6.47,0,8.82-5,12.56-7.85,5.3-4.1,10.44-8.4,16-12.17a28.6,28.6,0,0,1,11.19-4.83c7.14-1.24,11.85,2.66,11.93,9.89,0,1.2-.07,2.42-.15,3.62A8.31,8.31,0,0,0,213.14,43c4.92,4.28,6,9.35,3.38,15.32-.83,1.87-1.31,3.88-2.05,5.79-.36.94-.44,1.57.7,1.9,9.33,2.68,18.58,3.33,27.31-1.85,8.1-4.81,11.22-10.17,9.41-20.58a8.36,8.36,0,0,1-.22-3.85c1.68-.26,2,1.13,2.55,2.13,5.6,10.41,5.72,21.38,2.91,32.52-.61,2.41-.25,3.41,1.92,4.74C269.91,85.8,281.44,86,293.27,83c6.08-1.52,10.78-5.3,14.55-10.26.6-.8.88-1.87,1.87-2.36-.35,4.86-5.75,12.07-12.46,16.66-6,4.09-7.42,4.51-20.93,6,5.94,4.22,12.39,4.87,19,4.75A45,45,0,0,0,314,93.3c-9.59,9.44-19.65,17.38-40.74,8,.13,2,1.66,3.07,2.37,4.55,9.57,20,11.18,40.63,5.17,62-3.87,13.71-9.27,26.69-17.28,38.53A68,68,0,0,0,252,253.84c.3,2.54,1.18,2.93,3.42,2.92q48.6-.09,97.2,0c8.25,0,9,.71,9,8.84V422.8a28.65,28.65,0,0,1-.08,3.34c-.31,2.64-1.74,4.26-4.49,4.49-1,.09-2,.08-3.06.08H288.35c-2.25,0-3.15.63-3.79,2.82a95,95,0,0,1-23.05,40c-3.51,3.52-6.7,7.42-10.51,10.8-9.12,8.18-20,12.27-31.68,14.9a66.75,66.75,0,0,1-16.9,1.71c-10.59-.35-21.23.77-31.77-1.15-14.94-2.72-28.29-8.56-38.94-19.65-13.15-13.7-24.26-28.7-29.11-47.49-.55-2.15-1.88-1.88-3.34-1.88H28.36c-3.6-.24-5.25-1.89-5.32-5.47-.07-3.35,0-6.7,0-10.05V263.79c0-6,1.11-7.08,7.23-7.08q50.82,0,101.66.06c2.4,0,3.3-.54,3.56-3.11,1.57-15.49-.88-30.08-9.22-43.41-6.18-9.87-12.31-19.74-16-30.88C110.14,179.06,110,178.63,109.54,178.68Zm34.68,252.39H134.6c2,3.41,3.54,6.67,5.61,9.59s5.24,4.93,8.54,6.51c.6.29,1.24.67,1.78.09s-.07-1.23-.31-1.76c-1-2.1-2.05-4.16-3-6.26-.44-.95-1.23-2,.26-2.83,2.44,3.27,4.87,6.55,7.34,9.81,1.33,1.76,1,3.1-.72,4.43-3.31,2.49-10.43,2.28-14.47-.21a23,23,0,0,1-10.29-12.81c-2-6.61-6-7.55-11.77-7-2.39.23-2.66.66-1.61,2.68a162.33,162.33,0,0,0,17.38,27.59,65.9,65.9,0,0,0,23.12,18.52c17.78,8.49,36.34,10.24,55.53,6.43q29.65-5.89,46.65-30.93a191.48,191.48,0,0,0,12.55-21.09c1.54-3.08,1.53-3.1-1.88-3.1q-60.88,0-121.76.07A7.36,7.36,0,0,0,144.22,431.07ZM182.4,129.12a6.7,6.7,0,0,1,2.53-4,16.35,16.35,0,0,0,4-5.29c4.51-9.74,4-19.32-1-28.68-3.39-6.35-8.75-10.21-16-10.79s-14.44-.41-21.27,1.88a53.7,53.7,0,0,0-30.22,24.34,70.75,70.75,0,0,0-8.91,46A113.24,113.24,0,0,0,130,201.23c10.94,16.17,15.55,33.83,13.17,53.23-.24,2,.41,2.3,2.19,2.3q48.18-.08,96.35,0c2,0,2.79-.33,2.52-2.6-2.32-19.31,2.32-36.88,13.22-52.95a107.39,107.39,0,0,0,12.65-25.42c5.36-15.52,8.36-31.22,4.87-47.67-3.33-15.68-10.19-29.06-23.72-38.41-1.6-1.11-2.71-1.52-4.24.09a16.75,16.75,0,0,1-6.41,3.87c-10.34,3.87-20.26,2.65-29.87-2.44-.86-.46-1.55-1.4-2.84-1.15,0,8.46-1.91,16.44-6.6,23.57S190.66,126.39,182.4,129.12Z" transform="translate(0.13 0.04)" style="fill:#6a374f;stroke:#6a374f;stroke-miterlimit:10;stroke-width:2px"/><path d="M181.4,129.12c8.26-2.73,14.2-8.36,18.87-15.47s6.56-15.11,6.6-23.57c1.29-.25,2,.69,2.84,1.15,9.61,5.09,19.53,6.31,29.87,2.44A16.59,16.59,0,0,0,246,89.8c1.54-1.61,2.65-1.2,4.25-.09,13.53,9.35,20.39,22.73,23.72,38.41,3.49,16.45.48,32.15-4.87,47.67a107.39,107.39,0,0,1-12.65,25.42c-10.9,16.07-15.54,33.64-13.22,52.95.27,2.27-.52,2.6-2.52,2.6q-48.18-.08-96.35,0c-1.78,0-2.43-.29-2.19-2.3,2.38-19.4-2.23-37.06-13.17-53.23a113.23,113.23,0,0,1-18.41-48.65,70.81,70.81,0,0,1,8.9-46,53.78,53.78,0,0,1,30.22-24.34c6.84-2.29,14.12-2.46,21.28-1.88s12.56,4.44,15.95,10.79c5,9.36,5.53,18.94,1,28.68a16.35,16.35,0,0,1-4,5.29A6.67,6.67,0,0,0,181.4,129.12Zm23.32,18.32a23.37,23.37,0,0,0-.13,8.82c1.21,8,6.84,14.58,13.89,16.21,5.25,1.21,13.36-.85,17.76-8.8.77-1.4,1.4-.89,2.39-.39a10.73,10.73,0,0,0,12.84-3c.44-.59,1.08-1.28.69-2-.57-1.07-1.25.1-1.89.15s-1.2.55-2,.12c1.84-2.29,3-4.79,2.3-7.85-1.25,3.23-3.94,4.18-6.87,4.66-3.73.61-4.21.18-4.58-3.53,0-.31-.33-.59-.66-1.15a51.88,51.88,0,0,1-3.77,8.32c-5.23,8.23-14.85,9.21-21.52,2.15a28.22,28.22,0,0,1-3.67-4.9C207.82,153.42,206.58,150.33,204.72,147.44Zm-24.07.08c-.88,0-.88.81-1.1,1.38a56.13,56.13,0,0,1-4.48,8.64c-3.9,6.39-9.2,9.17-15.5,8-5.66-1-8.47-5.29-10.75-10-.71-1.49-1.24-3.06-2.16-5.35a10.12,10.12,0,0,0-.36,2.19c.45,2.86-1.18,3.3-3.47,3.1-3.42-.31-6.5-1.17-8.16-5.52a10.56,10.56,0,0,0,2.35,8.62c-1.42.62-2.45-.91-3.7-.53a2,2,0,0,0,.37,1.92c2.33,3.66,8.57,5.66,12.4,3.58,2.08-1.13,2.68-.47,3.72,1.17a16.47,16.47,0,0,0,11.1,7.74C173.8,175,183.52,160.78,180.65,147.52Zm16.85,52.8c-8.76-5.57-17.52-4-26.24-.81a24,24,0,0,0-14.14,13c6.83-6.17,14.94-9.16,23.9-10.2C186.41,201.63,191.89,201.72,197.5,200.32Zm-27.69-89.4h1.11c.77-.08,1.86.47,2.22-.47s-.62-1.47-1.22-2c-3-2.59-6.57-2.84-10.24-1.89-5.82,1.51-10.12,5.36-14.11,9.56a17.39,17.39,0,0,0-4.78,9c-.12.7-.32,1.62.51,2s1.32-.44,1.79-1c2.39-2.59,4.61-5.36,7.14-7.8C157.1,113.67,163.25,111.75,169.81,110.92Zm45.65.06a23.42,23.42,0,0,1,2.37,0,20,20,0,0,1,2.16.52c8.45,1.88,14.45,7.23,19.63,13.77.64.82,1.27,2.39,2.42,1.76s.54-2.15.23-3.3a6.84,6.84,0,0,0-.56-1.57c-4.12-8-10.37-13.46-19.09-15.83a10,10,0,0,0-8,1.27c-1.06.67-2.65,1.47-2.26,2.82.31,1.2,1.94.24,3.1.58ZM192.6,183.34a21.58,21.58,0,0,0,5.55-.55c4-1.12,5.06-4.49,2.44-7.71-2.89-3.55-11.77-4-15.1-.75-1.44,1.42-2.59,3.07-2,5.2s2.55,3.1,4.66,3.44C189.62,183.2,191.12,183.23,192.6,183.34Z" transform="translate(0.13 0.04)" style="fill:#6a374f"/><path d="M143.22,431.07a7.38,7.38,0,0,1,3.3-.26q60.89-.06,121.76-.07c3.41,0,3.42,0,1.88,3.1a191.48,191.48,0,0,1-12.55,21.09Q240.62,480,211,485.86c-19.19,3.81-37.75,2.06-55.53-6.43a65.9,65.9,0,0,1-23.12-18.52A163.4,163.4,0,0,1,115,433.32c-1-2-.77-2.45,1.62-2.68,5.78-.56,9.8.38,11.77,7a23,23,0,0,0,10.29,12.81c4,2.49,11.15,2.7,14.47.21,1.76-1.33,2-2.67.72-4.43-2.47-3.26-4.9-6.54-7.34-9.81Q144.82,433.74,143.22,431.07Zm15.26,28.43c-1.46.4-2.16-1.73-3.89-1.19,2.57,5.18,5.72,9.79,10.2,13.13,3.36,2.5,7.28,4,11.74,2.55a5.73,5.73,0,0,0,3.81-7.15,5.81,5.81,0,0,0-1.16-2.09c-.71-.84-.78.45-1.25.28a32.78,32.78,0,0,0-13.15-9.86C160.92,453.6,158.46,455.31,158.48,459.5Zm21.59-2.42a3.45,3.45,0,0,0,1.23,2.64c4,4.74,8,9.47,12,14.24.85,1,1.62,2.24,3.17,1.51a2.87,2.87,0,0,0,1.45-3.33,7.54,7.54,0,0,0-.92-2.88c-4-6.12-9.74-9.93-16.93-12.18Zm26,12.83c0-2.05-2.85-5.55-4.72-5.93-1.59-.33-2.37.48-2.21,2a9.79,9.79,0,0,0,3,5.83,2.21,2.21,0,0,0,2.57.55,2.58,2.58,0,0,0,1.29-2.45ZM214.9,471c1.59-.22,3.28-.8,3.18-2.92-.12-2.7-2.44-2.69-4.35-2.84-1.49-.12-2.82.38-3,2.19S212.67,470.94,214.9,471Z" transform="translate(0.13 0.04)" style="fill:#6a374f"/><path d="M143.22,431.07c1.07,1.78,2.14,3.56,3.23,5.34-1.49.81-.71,1.88-.26,2.83,1,2.1,2.06,4.16,3,6.26.24.53.9,1.14.31,1.76s-1.18.2-1.78-.09c-3.3-1.58-6.43-3.52-8.54-6.51s-3.64-6.18-5.61-9.59Z" transform="translate(0.13 0.04)" style="fill:#6a374f"/><path d="M204.72,147.44c1.86,2.89,3.1,6,4.81,8.82a28.22,28.22,0,0,0,3.67,4.9c6.67,7.06,16.29,6.08,21.52-2.15a51.88,51.88,0,0,0,3.77-8.32c.33.56.63.84.66,1.15.37,3.71.85,4.14,4.58,3.53,2.93-.48,5.62-1.43,6.87-4.66.69,3.06-.46,5.56-2.3,7.85.77.43,1.35-.08,2-.12s1.32-1.22,1.89-.15c.39.72-.25,1.41-.69,2a10.73,10.73,0,0,1-12.84,3c-1-.5-1.62-1-2.39.39-4.4,8-12.51,10-17.76,8.8-7-1.63-12.68-8.18-13.89-16.21A23.42,23.42,0,0,1,204.72,147.44Z" transform="translate(0.13 0.04)" style="fill:#6a374f;stroke:#6a374f;stroke-miterlimit:10;stroke-width:2px"/><path d="M180.65,147.52c2.87,13.26-6.85,27.5-19.74,24.93a16.47,16.47,0,0,1-11.1-7.74c-1-1.64-1.64-2.3-3.72-1.17-3.83,2.08-10.07.08-12.4-3.58a2,2,0,0,1-.37-1.92c1.25-.38,2.28,1.15,3.7.53a10.56,10.56,0,0,1-2.35-8.62c1.66,4.35,4.74,5.21,8.16,5.52,2.29.2,3.92-.24,3.47-3.1a10.12,10.12,0,0,1,.36-2.19c.92,2.29,1.45,3.86,2.16,5.35,2.28,4.72,5.09,9,10.75,10,6.3,1.17,11.6-1.61,15.5-8a56.13,56.13,0,0,0,4.48-8.64C179.77,148.33,179.77,147.57,180.65,147.52Z" transform="translate(0.13 0.04)" style="fill:#6a374f;stroke:#6a374f;stroke-miterlimit:10;stroke-width:2px"/><path d="M197.5,200.32c-5.61,1.4-11.09,1.31-16.48,1.94-9,1-17.07,4-23.9,10.2a24,24,0,0,1,14.14-13C180,196.3,188.74,194.75,197.5,200.32Z" transform="translate(0.13 0.04)" style="fill:#6a374f;stroke:#6a374f;stroke-miterlimit:10;stroke-width:2px"/><path d="M169.81,110.92c-6.56.83-12.71,2.75-17.58,7.45-2.53,2.44-4.75,5.21-7.14,7.8-.47.52-.93,1.37-1.79,1s-.63-1.31-.51-2a17.39,17.39,0,0,1,4.78-9c4-4.2,8.29-8,14.11-9.56,3.67-1,7.2-.7,10.24,1.89.6.51,1.57,1.1,1.22,2s-1.45.39-2.22.47C170.55,111,170.18,110.92,169.81,110.92Z" transform="translate(0.13 0.04)" style="fill:#6a374f;stroke:#6a374f;stroke-miterlimit:10;stroke-width:2px"/><path d="M215.46,111c-1.16-.32-2.79.64-3.14-.54-.39-1.35,1.2-2.15,2.26-2.82a10,10,0,0,1,8-1.27c8.72,2.37,15,7.86,19.09,15.83a6.84,6.84,0,0,1,.56,1.57c.31,1.15.94,2.67-.23,3.3s-1.78-.94-2.42-1.76c-5.18-6.54-11.18-11.89-19.63-13.77a20,20,0,0,0-2.16-.52A20.13,20.13,0,0,0,215.46,111Z" transform="translate(0.13 0.04)" style="fill:#6a374f;stroke:#6a374f;stroke-miterlimit:10;stroke-width:2px"/><path d="M192.6,183.34c-1.48-.11-3-.14-4.44-.37-2.11-.34-4-1.18-4.66-3.44s.55-3.78,2-5.2c3.33-3.25,12.21-2.8,15.1.75,2.62,3.22,1.58,6.59-2.44,7.71A21.22,21.22,0,0,1,192.6,183.34Z" transform="translate(0.13 0.04)" style="fill:#6a374f;stroke:#6a374f;stroke-miterlimit:10;stroke-width:2px"/><path d="M158.48,459.5c0-4.19,2.44-5.9,6.3-4.33A32.77,32.77,0,0,1,177.93,465c-.38,4.28-1.2,5-4.87,4a13.8,13.8,0,0,1-1.55-.6C166.54,466.33,162.86,462.39,158.48,459.5Z" transform="translate(0.13 0.04)" style="fill:#6a374f"/><path d="M158.48,459.5c4.38,2.89,8.06,6.83,13,8.88a13.8,13.8,0,0,0,1.55.6c3.67,1,4.49.33,4.87-4,.47.17.54-1.12,1.25-.28a5.73,5.73,0,0,1-.56,8.08,5.67,5.67,0,0,1-2.09,1.16c-4.46,1.44-8.38-.05-11.74-2.55-4.48-3.34-7.63-7.95-10.2-13.13C156.32,457.77,157,459.9,158.48,459.5Z" transform="translate(0.13 0.04)" style="fill:#6a374f;stroke:#6a374f;stroke-miterlimit:10;stroke-width:2px"/><path d="M180.07,457.08c7.19,2.25,12.9,6.06,16.93,12.18a7.54,7.54,0,0,1,.92,2.88,2.87,2.87,0,0,1-1.45,3.33c-1.55.73-2.32-.49-3.17-1.51-4-4.77-8-9.5-12-14.24A3.45,3.45,0,0,1,180.07,457.08Z" transform="translate(0.13 0.04)" style="fill:#6a374f;stroke:#6a374f;stroke-miterlimit:10;stroke-width:2px"/><path d="M206,469.91a2.59,2.59,0,0,1-1.36,2.43,2.21,2.21,0,0,1-2.57-.55,9.79,9.79,0,0,1-3-5.83c-.16-1.5.62-2.31,2.21-2C203.17,464.36,206,467.86,206,469.91Z" transform="translate(0.13 0.04)" style="fill:#6a374f;stroke:#6a374f;stroke-miterlimit:10;stroke-width:2px"/><path d="M214.9,471c-2.23,0-4.29-1.87-4.14-3.57s1.48-2.31,3-2.19c1.91.15,4.23.14,4.35,2.84C218.18,470.18,216.49,470.76,214.9,471Z" transform="translate(0.13 0.04)" style="fill:#6a374f;stroke:#6a374f;stroke-miterlimit:10;stroke-width:2px"/><path d="M31,343.6v76.24c0,1.71-.11,2.92,2.37,2.9q32.39-.14,64.79,0c2.06,0,2.2-.69,2-2.47A133.11,133.11,0,0,1,98.79,403c0-7.71-1.42-5.63,6.17-6.8,1.94-.31,2.58.37,2.66,2.34a87,87,0,0,0,4,21.87c.53,1.78,1.29,2.4,3.08,2.3,2.32-.13,4.65,0,7,0,.71,0,1.7.38,2.07-.35s-.36-1.6-.85-2.2a21.85,21.85,0,0,1-2.73-4.19c-.21-.4-.52-.85-.13-1.27s.9-.16,1.25.1c2.62,2,6.09,2.95,7.48,6.36.61,1.48,1.82,1.59,3.21,1.58H272.48c1.95,0,2.78-.62,3.27-2.45,1.68-6.19,3.31-12.37,3.82-18.82.48-5.91.63-5.81,6.65-5.39,2,.14,2.5.9,2.47,2.74a181.58,181.58,0,0,1-1.29,20.32c-.46,3.54-.44,3.55,3,3.55,20,0,40-.05,60,.06,2.43,0,3.11-.55,3.1-3.06q-.12-76,0-151.93c0-2.52-.7-3.06-3.11-3-18.25.1-36.5,0-54.74,0-13,0-26.07.07-39.1-.06-2.54,0-3,.75-2.36,3,.85,3,1.47,6.14,2.23,9.21,1.39,5.65,1.37,5.54-4.35,6.85-1.92.45-2.47-.21-2.84-1.83-1.13-5-2.45-9.92-3.42-14.93-.35-1.78-1-2.26-2.71-2.26q-49.57.06-99.15,0c-1.58,0-2.29.44-2.57,2.1-.6,3.47-1.42,6.91-2.23,10.34-1.45,6.09-1.46,6-7.45,4.65-1.71-.4-2-1.15-1.57-2.74,1-3.86,1.76-7.8,2.88-11.63.73-2.46-.2-2.75-2.34-2.74q-48.45.07-96.91,0c-2.3,0-2.95.59-2.94,2.92C31,293,31,318.27,31,343.6Z" transform="translate(0.13 0.04)" style="fill:#6a374f"/><path d="M251.5,292.43c0-.31-.15-.57-.07-.67,1.64-2,4.19-1.36,6.26-2.14,1.16-.43,1.58.28,1.92,1.33q2.94,9.12,6,18.19c.52,1.52-.09,2-1.45,2.21a18.22,18.22,0,0,1-2.2.32c-1.35,0-2.49,1.91-3.67.84-.85-.76-1-2.34-1.39-3.57-1.66-5-3.3-10-5-15.05A10.85,10.85,0,0,0,251.5,292.43Z" transform="translate(0.13 0.04)" style="fill:#6a374f;stroke:#6a374f;stroke-miterlimit:10;stroke-width:2px"/><path d="M134.3,291.1c-.11.36-.29.89-.46,1.41-1.82,5.54-3.72,11.06-5.42,16.63-.59,1.94-1.38,2.46-3.39,1.9-5.41-1.5-5.42-1.4-3.67-6.66,1.5-4.47,3-8.93,4.38-13.46.6-2.06,1.36-3.07,3.65-2.14a26.77,26.77,0,0,0,3.77.87C133.79,289.81,134.44,290,134.3,291.1Z" transform="translate(0.13 0.04)" style="fill:#6a374f;stroke:#6a374f;stroke-miterlimit:10;stroke-width:2px"/><path d="M98.43,384c.44-4.33,1.1-10,2-15.55.34-1.95,1-1.92,2.56-1.37,5.65,2,5.57,1.94,4.7,7.84a114,114,0,0,0-1.16,11.65c-.1,2-.82,2.69-2.67,2.58a10.33,10.33,0,0,0-1.67.08C98,389.58,98,389.58,98.43,384Z" transform="translate(0.13 0.04)" style="fill:#6a374f;stroke:#6a374f;stroke-miterlimit:10;stroke-width:2px"/><path d="M276.53,340.85c1.3-.19,1.56.77,1.85,1.65,1.8,5.45,3.32,11,4.62,16.56.36,1.58,0,2.23-1.61,2.79-5.65,2-5.56,2-7.08-3.91a126.68,126.68,0,0,0-3.56-12.23c-.91-2.44,0-3.41,2-4A36.13,36.13,0,0,1,276.53,340.85Z" transform="translate(0.13 0.04)" style="fill:#6a374f;stroke:#6a374f;stroke-miterlimit:10;stroke-width:2px"/><path d="M102.65,358.08a170.64,170.64,0,0,1,4.93-17.31,1.37,1.37,0,0,1,1.62-1l.13,0,5.43,1.18c.95.21,1.11.76.81,1.65q-3,8.82-5.15,17.88c-.09.35-.21.94-.4,1-2.33.42-4.17-1.13-6.26-1.7C102.86,359.53,102.35,358.9,102.65,358.08Z" transform="translate(0.13 0.04)" style="fill:#6a374f;stroke:#6a374f;stroke-miterlimit:10;stroke-width:2px"/><path d="M287.42,387.7c.25,1.08-.58,1.48-2.29,1.33-5.94-.52-5.93-.48-6.6-6.25-.37-3.23-.74-6.47-1.2-9.68-.2-1.38,0-2.13,1.5-2.73,6.21-2.47,6.19-2.54,7,4.09C286.34,378.61,286.83,382.77,287.42,387.7Z" transform="translate(0.13 0.04)" style="fill:#6a374f;stroke:#6a374f;stroke-miterlimit:10;stroke-width:2px"/><path d="M117.3,334.3l-.81-.17c-6.11-1.11-6.1-1.11-3.77-6.82,1.25-3.08,2.53-6.15,3.69-9.27.56-1.51,1.31-1.88,2.92-1.42,5.9,1.69,5.92,1.63,3.66,7.19-1.22,3-2.48,6-3.68,9C118.88,333.89,118.3,334.56,117.3,334.3Z" transform="translate(0.13 0.04)" style="fill:#6a374f;stroke:#6a374f;stroke-miterlimit:10;stroke-width:2px"/><path d="M274.67,332.25c.41,1.48-.17,1.8-.83,1.94a9.11,9.11,0,0,1-2.21.28c-1.54,0-3.11,1.82-4.38.63-1.06-1-1.35-2.8-1.95-4.26-1.33-3.26-2.62-6.55-4-9.79-.52-1.24-.4-1.95,1.07-2.09a1.14,1.14,0,0,0,.26-.09c5.92-1.73,5.92-1.73,8.18,3.9C272.16,326.13,273.54,329.47,274.67,332.25Z" transform="translate(0.13 0.04)" style="fill:#6a374f;stroke:#6a374f;stroke-miterlimit:10;stroke-width:2px"/><path d="M182.05,66.21a127.63,127.63,0,0,1,18.55-.27,4.58,4.58,0,0,0,3.41-1,22.6,22.6,0,0,0,6.33-10.64c.84-2.84-1-5-2.44-7.15a23.78,23.78,0,0,1-4-11.75c-.49-6.38-2.78-7.78-8.8-5.47-.52.2-1,.42-1.54.66-9.49,4.54-17.19,11.59-25.48,17.94a19,19,0,0,1,2.56,2.82c1,1.72,1.93,1.48,3.48.54a110,110,0,0,1,22.41-10.55c.61-.2,1.38-.7,1.77-.07.54.85-.42,1.28-1,1.7-2.8,2.15-5.6,4.31-8.46,6.38-1.67,1.21-3.46,2.26-5.62,3.66h5.83A135.23,135.23,0,0,1,203,53c1.06.08,2.56,0,2.73,1.38s-1.27,1.67-2.32,1.93c-4.41,1.11-8.84,2.17-13.27,3.21-1,.23-2.09.21-2.56,1.36C186.58,63.51,184.31,64.84,182.05,66.21Z" transform="translate(0.13 0.04)" style="fill:#6a374f"/><path d="M134.45,56.83a16.3,16.3,0,0,0-2.21,0c-10,1.26-20.11,2.42-30.13,3.88-5.17.76-10.18,2.3-14.39,5.64-3.89,3.1-4.19,5.85-1.12,9.77,2,2.49,4.18,5,4.78,8.09,1.3,6.72,5.54,11.38,10.23,15.85,4.2,4,6.37,4.17,10.84.57a13.58,13.58,0,0,0,2.42-2.31A77.13,77.13,0,0,1,137.29,78.6c.62-.36,2.19-.59,1.2-1.9s-1.53.07-2.15.6c-4,3.43-8.54,5.66-13.88,4.94a7.38,7.38,0,0,0-5.89,1.6c-2.75,2.06-5.46,4.18-8.24,6.19-.55.39-1.33.9-2.07.4s-.56-1.54-.35-2.3a13,13,0,0,1,3.94-6c2.43-2.25,4.93-4.42,7.38-6.61-5,.58-9.81,1.25-14.67,1.66-1.93.17-5,1.06-5.53-1s2.56-2.66,4.32-3.48A101.42,101.42,0,0,1,127,64.5C131.73,63.69,134.16,61.6,134.45,56.83Z" transform="translate(0.13 0.04)" style="fill:#6a374f"/><path d="M195.09,412c-16,0-32,.13-48-.06A143.87,143.87,0,0,1,126,410.4c-3.24-.52-5-2.63-5.87-5.62-2.47-8.56-2.47-17.24-1.24-26,3-21.21,9.35-41.44,17.15-61.31,4.41-11.22,8.66-22.53,11.19-34.39.39-1.8,1.27-3.49,1.83-5.25,1.69-5.31.45-4.85,6.83-5.11q39.49-1.59,79,0c6.37.25,5.55-.3,7,5.35,5.48,21.94,14.79,42.57,21.7,64,4.69,14.54,8.12,29.39,9,44.69a50.81,50.81,0,0,1-1.87,17.94c-1,3.29-3,5.3-6.64,5.78-14.92,2-29.91,1.45-44.88,1.58-8,.07-16,0-24,0Z" transform="translate(0.13 0.04)" style="fill:#6a374f;stroke:#6a374f;stroke-miterlimit:10;stroke-width:2px"/><path d="M157.69,253.77c0-.51-.05-.9-.06-1.18-.22-1.06-.47-2.12-.74-3.17-.49-1.94-1-3.88-1.48-5.83-1-4.15-1.87-8.29-2.48-12.52a251.49,251.49,0,0,1-2.27-27.68,92.14,92.14,0,0,1,4.58-33,16.93,16.93,0,0,1-5.4-5.48c-1-1.65-1.64-2.31-3.72-1.18-3.82,2.09-10.06.08-12.4-3.57a1.92,1.92,0,0,1-.36-1.92c1.24-.39,2.27,1.14,3.69.52a10.56,10.56,0,0,1-2.35-8.62c1.66,4.35,4.75,5.21,8.16,5.52,2.29.2,3.92-.24,3.47-3.1a10.22,10.22,0,0,1,.36-2.19c.92,2.29,1.45,3.86,2.16,5.35,1.94,4,4.26,7.68,8.39,9.33a93.68,93.68,0,0,1,19.76-30,107,107,0,0,1,8.45-7.46,31.79,31.79,0,0,1-4,1.66,6.7,6.7,0,0,1,2.53-4,16.35,16.35,0,0,0,4-5.29c4.51-9.74,4-19.32-1-28.68-3.39-6.35-8.75-10.21-15.95-10.79s-14.43-.41-21.27,1.89a53.72,53.72,0,0,0-30.22,24.33,70.81,70.81,0,0,0-8.9,46A113.07,113.07,0,0,0,129,201.37c10.94,16.18,15.55,33.83,13.17,53.23-.24,2,.41,2.3,2.19,2.3h13.77A15.74,15.74,0,0,1,157.69,253.77ZM142.82,125.26a17.46,17.46,0,0,1,4.78-9c4-4.2,8.3-8.06,14.11-9.57,3.67-1,7.2-.7,10.24,1.89.6.51,1.57,1.11,1.23,2s-1.46.38-2.23.46h-1.11c-6.56.83-12.7,2.75-17.58,7.45-2.53,2.44-4.75,5.21-7.14,7.81-.47.51-.92,1.36-1.79,1S142.7,126,142.82,125.26Z" transform="translate(0.13 0.04)" style="fill:#6a374f"/><path d="M217.63,469.91a4,4,0,0,1-2.7,1.21c-2.17,0-4.17-1.78-4.13-3.44-19-6.8-35.68-18-45.48-36.74H146.55a7.52,7.52,0,0,0-3.3.26l3.23,5.34c2.44,3.27,4.87,6.56,7.34,9.81,1.33,1.76,1,3.1-.72,4.43-3.31,2.5-10.43,2.28-14.47-.21a23,23,0,0,1-10.29-12.81c-2-6.6-6-7.55-11.77-7-2.39.23-2.66.65-1.61,2.67A162.33,162.33,0,0,0,132.34,461a65.9,65.9,0,0,0,23.12,18.52C173.24,488,191.8,489.78,211,486a73,73,0,0,0,27.44-11.34A178.25,178.25,0,0,1,217.63,469.91Zm-41.07,4.22c-4.45,1.45-8.38-.05-11.74-2.55-4.48-3.34-7.62-7.95-10.2-13.13,1.73-.54,2.43,1.59,3.89,1.19,0-4.19,2.44-5.9,6.3-4.32A32.56,32.56,0,0,1,178,465.18c.47.16.55-1.13,1.26-.29a5.74,5.74,0,0,1-2.7,9.24Zm19.94,1.48c-1.55.73-2.31-.49-3.17-1.51-4-4.77-8-9.5-12-14.24a3.52,3.52,0,0,1-1.23-2.64c7.2,2.26,12.9,6.06,16.93,12.18a7.54,7.54,0,0,1,.92,2.88,2.86,2.86,0,0,1-1.45,3.33Zm8.19-3.12a2.21,2.21,0,0,1-2.57-.56,9.66,9.66,0,0,1-3-5.83c-.17-1.5.61-2.31,2.2-2,1.87.38,4.68,3.88,4.72,5.93a2.63,2.63,0,0,1-1.35,2.46Z" transform="translate(0.13 0.04)" style="fill:#6a374f"/><path d="M204.67,147.44c1.86,2.89,3.09,6,4.81,8.82a28.68,28.68,0,0,0,3.66,4.9c6.67,7.06,16.3,6.08,21.53-2.15a51.88,51.88,0,0,0,3.77-8.32c.33.56.63.84.66,1.15.37,3.71.84,4.14,4.58,3.53,2.93-.48,5.62-1.43,6.86-4.66.7,3.06-.45,5.56-2.29,7.85.77.43,1.35-.08,2-.12s1.32-1.22,1.89-.15c.38.72-.25,1.41-.69,2a10.73,10.73,0,0,1-12.84,3c-1-.5-1.62-1-2.39.39-4.4,8-12.52,10-17.76,8.8-7.05-1.63-12.68-8.18-13.89-16.21A23.42,23.42,0,0,1,204.67,147.44Z" transform="translate(0.13 0.04)" style="fill:#6a374f;stroke:#6a374f;stroke-miterlimit:10;stroke-width:2px"/><path d="M180.6,147.52c2.87,13.26-6.85,27.5-19.74,24.93a16.51,16.51,0,0,1-11.11-7.74c-1-1.64-1.63-2.3-3.71-1.17-3.83,2.08-10.07.08-12.4-3.58a1.9,1.9,0,0,1-.37-1.92c1.25-.38,2.28,1.15,3.7.53a10.49,10.49,0,0,1-2.35-8.62c1.66,4.35,4.74,5.21,8.16,5.52,2.28.2,3.91-.24,3.47-3.1a10.12,10.12,0,0,1,.36-2.19c.91,2.29,1.44,3.86,2.16,5.35,2.27,4.72,5.08,9,10.74,10,6.31,1.17,11.61-1.61,15.51-8a56.13,56.13,0,0,0,4.48-8.64C179.72,148.33,179.71,147.57,180.6,147.52Z" transform="translate(0.13 0.04)" style="fill:#6a374f;stroke:#6a374f;stroke-miterlimit:10;stroke-width:2px"/><path d="M197.45,200.32c-5.61,1.4-11.09,1.31-16.49,1.94-9,1-17.06,4-23.89,10.2a24,24,0,0,1,14.14-13C179.93,196.3,188.69,194.75,197.45,200.32Z" transform="translate(0.13 0.04)" style="fill:#6a374f;stroke:#6a374f;stroke-miterlimit:10;stroke-width:2px"/><path d="M169.75,110.92c-6.55.83-12.7,2.75-17.57,7.45-2.54,2.44-4.76,5.21-7.14,7.8-.47.52-.93,1.37-1.79,1s-.64-1.31-.51-2a17.28,17.28,0,0,1,4.78-9c4-4.2,8.29-8,14.11-9.56,3.66-1,7.2-.7,10.23,1.89.6.51,1.58,1.1,1.23,2s-1.45.39-2.22.47C170.5,111,170.13,110.92,169.75,110.92Z" transform="translate(0.13 0.04)" style="fill:#6a374f;stroke:#6a374f;stroke-miterlimit:10;stroke-width:2px"/><path d="M215.41,111c-1.16-.32-2.79.64-3.14-.54-.39-1.35,1.2-2.15,2.26-2.82a10,10,0,0,1,8-1.27c8.72,2.37,15,7.86,19.09,15.83a7.93,7.93,0,0,1,.56,1.57c.31,1.15.94,2.67-.23,3.3s-1.78-.94-2.42-1.76c-5.18-6.54-11.18-11.89-19.63-13.77-.71-.21-1.43-.38-2.16-.52A20.13,20.13,0,0,0,215.41,111Z" transform="translate(0.13 0.04)" style="fill:#6a374f;stroke:#6a374f;stroke-miterlimit:10;stroke-width:2px"/><path d="M192.55,183.34c-1.48-.11-3-.14-4.44-.37-2.11-.34-4-1.18-4.66-3.44s.54-3.78,2-5.2c3.32-3.25,12.21-2.8,15.09.75,2.63,3.22,1.59,6.59-2.43,7.71A21.65,21.65,0,0,1,192.55,183.34Z" transform="translate(0.13 0.04)" style="fill:#6a374f;stroke:#6a374f;stroke-miterlimit:10;stroke-width:2px"/><path d="M341.67,301.89c-5.73-22.86-34.59-30.27-44-17.63a13.35,13.35,0,0,0-2,10.28c1.28,5.07,6.43,9.54,13.95,8.72,18.32-2,19.39,17.16,20.18,22.88.65,4.73,2.31,6.5,5.87,5.76C340.35,330.92,345.52,317.21,341.67,301.89Z" transform="translate(0.13 0.04)" style="fill:#6a374f"/><circle cx="336.3" cy="348.99" r="5.22" style="fill:#6a374f"/></g><g id="Layer_1-2" data-name="Layer 1-2"><path d="M352.55,414.8V257.56c0-8.13-.73-8.85-9-8.84h-97.2c-2.24,0-3.12-.38-3.42-2.92a68,68,0,0,1,11.58-47.48c8-11.84,13.41-24.82,17.28-38.53,6-21.33,4.4-42-5.18-62-.7-1.48-2.23-2.58-2.36-4.55,21.09,9.36,31.15,1.42,40.74-8a45,45,0,0,1-18.74,4.51c-6.58.12-13-.53-19-4.75,13.51-1.51,15-1.93,20.93-6a36.45,36.45,0,0,0,3.61-2.82c5-4.39,8.56-9.89,8.85-13.84h0a3.77,3.77,0,0,0-1.46,1.72,6.29,6.29,0,0,1-.41.64c-3.78,5-8.47,8.74-14.55,10.26-11.84,3-23.36,2.8-34.22-3.87-2.17-1.33-2.54-2.33-1.92-4.74,2.81-11.14,2.69-22.11-2.91-32.52-.54-1-.87-2.39-2.55-2.13a8.36,8.36,0,0,0,.22,3.85c1.81,10.41-1.31,15.77-9.41,20.58-8.73,5.18-18,4.53-27.31,1.85-1.14-.33-1.06-1-.7-1.9.74-1.91,1.22-3.92,2-5.79,2.63-6,1.55-11-3.38-15.32a8.34,8.34,0,0,1-2.8-7.27c.08-1.2.16-2.42.15-3.62-.08-7.23-4.79-11.13-11.93-9.89A28.45,28.45,0,0,0,178.27,19c-5.55,3.77-10.69,8.07-16,12.17-3.51,2.71-5.79,7.22-11.41,7.79a28.27,28.27,0,0,0-9.11.92,3.46,3.46,0,0,0,.22-.31,15.68,15.68,0,0,0-9.3,2.66,7.54,7.54,0,0,1-5,1.33,137.43,137.43,0,0,0-27.57,1.18c-8,1.29-16,2.81-22.84,7.59-7.72,5.4-8.76,12.18-2.89,19.47a24.39,24.39,0,0,1,4.25,9.25c2.93,10.53,9.36,18,20,21.8A51,51,0,0,0,93,119.09c-1,5.21-1.72,10.47-2.81,15.65-1.45,6.82-2.76,13.74-6.65,19.73-3.09,4.75-7.2,7.73-13.25,7-1.09-.13-2.11-1-3.5-.28a15.73,15.73,0,0,0,10.1,2.8c7.2-.45,11.13-5.61,15.09-10.88.22.46.42.7.43.94.35,7.74.38,15.5-1.23,23.08A27,27,0,0,1,81,193.35c-1.08.83-2.6,1.08-3.31,2.47,10.37-1.5,14.88-6.52,22.66-25.17.49-.05.59.38.7.69,3.7,11.14,9.83,21,16,30.88,8.35,13.33,10.8,27.92,9.23,43.41-.26,2.57-1.16,3.12-3.57,3.11q-50.82-.12-101.65-.06c-6.12,0-7.23,1.07-7.23,7.08V417.22c.07,3.58,1.72,5.23,5.32,5.47.93.06,1.86,0,2.8,0H90.3c1.46,0,2.79-.27,3.34,1.88,4.84,18.79,16,33.79,29.11,47.49,10.65,11.09,24,16.93,38.94,19.65,10.54,1.92,21.18.8,31.76,1.15a66.78,66.78,0,0,0,16.91-1.71c11.66-2.63,22.56-6.72,31.68-14.9,3.77-3.38,6.93-7.24,10.4-10.85a95,95,0,0,0,23.05-39.95c.64-2.19,1.54-2.83,3.79-2.82q32.82.14,65.63,0c1,0,2.06,0,3.07-.08,2.75-.23,4.18-1.85,4.49-4.49A27.25,27.25,0,0,0,352.55,414.8Z" transform="translate(0.13 0.04)" style="fill:#fff;stroke:#fff;stroke-linecap:round;stroke-linejoin:round;stroke-width:28px"/><g id="LqKOcz.tif"><path d="M105.43,99.78s-8.09-2-12.13-4.56S81.64,81.46,81.64,81.46V75s-8.32-6.42-7.37-11.9S85.92,50.78,85.92,50.78l44.89-5.48s10.47-8.68,24.09-5.76L188,18s10.94-2.85,10.94,4.52,3.64,17.07,3.64,17.07a8.06,8.06,0,0,1,1.71,9.26C201.76,54.34,193.2,67,193.2,67l-33.08-2.62L127,72.05S108.52,98.82,105.43,99.78Z" transform="translate(0.13 0.04)" style="fill:#ed40a9"/><rect x="19.82" y="253.5" width="329.3" height="162.73" style="fill:#eff9fb"/><path d="M101.54,170.68c.5-.05.6.38.7.69,3.7,11.14,9.83,21,16,30.88,8.34,13.33,10.79,27.92,9.22,43.41-.26,2.57-1.16,3.12-3.56,3.11q-50.84-.12-101.66-.06c-6.12,0-7.23,1.07-7.23,7.08V417.22c.07,3.58,1.72,5.23,5.32,5.47.93.06,1.87,0,2.8,0H91.3c1.46,0,2.79-.27,3.34,1.88,4.85,18.79,16,33.79,29.11,47.49,10.65,11.09,24,16.93,38.94,19.65,10.54,1.92,21.18.8,31.77,1.15a66.75,66.75,0,0,0,16.9-1.71c11.66-2.63,22.56-6.72,31.68-14.9,3.77-3.38,6.93-7.24,10.4-10.85a95,95,0,0,0,23.05-39.95c.64-2.19,1.54-2.83,3.79-2.82q32.82.14,65.64,0c1,0,2.05,0,3.06-.08,2.75-.23,4.18-1.85,4.49-4.49a28.65,28.65,0,0,0,.08-3.34V257.56c0-8.13-.73-8.85-9-8.84h-97.2c-2.24,0-3.12-.38-3.42-2.92a68,68,0,0,1,11.58-47.48c8-11.84,13.41-24.82,17.28-38.53,6-21.33,4.4-42-5.17-62-.71-1.48-2.24-2.58-2.37-4.55,21.09,9.36,31.15,1.42,40.74-8a45,45,0,0,1-18.74,4.51c-6.58.12-13-.53-19-4.75,13.51-1.51,15-1.93,20.93-6,6.71-4.59,12.11-11.8,12.46-16.66-1,.49-1.27,1.56-1.87,2.36-3.77,5-8.47,8.74-14.55,10.26-11.83,3-23.36,2.8-34.22-3.87-2.17-1.33-2.53-2.33-1.92-4.74,2.81-11.14,2.69-22.11-2.91-32.52-.54-1-.87-2.39-2.55-2.13a8.36,8.36,0,0,0,.22,3.85c1.81,10.41-1.31,15.77-9.41,20.58-8.73,5.18-18,4.53-27.31,1.85-1.14-.33-1.06-1-.7-1.9.74-1.91,1.22-3.92,2.05-5.79,2.62-6,1.54-11-3.38-15.32a8.35,8.35,0,0,1-2.81-7.27c.08-1.2.16-2.42.15-3.62-.08-7.23-4.79-11.13-11.93-9.89A28.6,28.6,0,0,0,179.31,19c-5.55,3.77-10.69,8.07-16,12.17-3.74,2.88-6.09,7.82-12.56,7.85,1.8,1.05,2.76,1.57,3.69,2.15a14,14,0,0,1,6,15.3,5.93,5.93,0,0,1-4.36,4.59c-3.59,1-7.13,2.13-10.75,3-5.2,1.25-11-2.07-12.17-6.85-1.42-5.56,2.19-13.36,7.33-16,.78-.39,1.78-.45,2.5-1.69a15.68,15.68,0,0,0-9.3,2.66,7.54,7.54,0,0,1-5,1.33,137.43,137.43,0,0,0-27.57,1.18c-8,1.29-16,2.81-22.84,7.59-7.72,5.4-8.76,12.18-2.89,19.47A24.39,24.39,0,0,1,79.64,81c2.93,10.53,9.36,18,20,21.8A51,51,0,0,0,94.06,119c-1,5.21-1.72,10.47-2.81,15.65-1.45,6.82-2.76,13.74-6.65,19.73-3.09,4.75-7.2,7.73-13.25,7-1.08-.13-2.11-1-3.5-.28a15.73,15.73,0,0,0,10.1,2.8c7.2-.45,11.13-5.61,15.09-10.88.22.46.42.7.43.94.35,7.74.38,15.5-1.23,23.08A27,27,0,0,1,82.06,193.3c-1.08.83-2.6,1.08-3.31,2.47C89.25,194.35,93.76,189.33,101.54,170.68Z" transform="translate(0.13 0.04)" style="fill:#fff"/><path d="M101.54,170.68c-7.78,18.65-12.29,23.67-22.66,25.17.71-1.39,2.23-1.64,3.31-2.47a27,27,0,0,0,10.18-16.22C94,169.58,94,161.82,93.6,154.08c0-.24-.21-.48-.43-.94-4,5.27-7.89,10.43-15.09,10.88a15.73,15.73,0,0,1-10.1-2.8c1.39-.76,2.42.15,3.5.28,6,.74,10.16-2.24,13.25-7,3.89-6,5.2-12.91,6.65-19.73,1.09-5.18,1.84-10.44,2.81-15.65a51,51,0,0,1,5.58-16.22c-10.64-3.8-17.07-11.27-20-21.8a24.39,24.39,0,0,0-4.25-9.25c-5.87-7.29-4.83-14.07,2.89-19.47,6.85-4.78,14.81-6.3,22.84-7.59a137.43,137.43,0,0,1,27.57-1.18,7.54,7.54,0,0,0,5-1.33,15.68,15.68,0,0,1,9.3-2.66c-.72,1.24-1.72,1.3-2.5,1.69-5.14,2.59-8.75,10.39-7.33,16,1.22,4.78,7,8.1,12.17,6.85,3.62-.87,7.16-2,10.75-3a5.93,5.93,0,0,0,4.36-4.59,14,14,0,0,0-6-15.3c-.93-.58-1.89-1.1-3.69-2.15,6.47,0,8.82-5,12.56-7.85,5.3-4.1,10.44-8.4,16-12.17a28.6,28.6,0,0,1,11.19-4.83c7.14-1.24,11.85,2.66,11.93,9.89,0,1.2-.07,2.42-.15,3.62A8.31,8.31,0,0,0,205.14,35c4.92,4.28,6,9.35,3.38,15.32-.83,1.87-1.31,3.88-2.05,5.79-.36.94-.44,1.57.7,1.9,9.33,2.68,18.58,3.33,27.31-1.85,8.1-4.81,11.22-10.17,9.41-20.58a8.36,8.36,0,0,1-.22-3.85c1.68-.26,2,1.13,2.55,2.13,5.6,10.41,5.72,21.38,2.91,32.52-.61,2.41-.25,3.41,1.92,4.74C261.91,77.8,273.44,78,285.27,75c6.08-1.52,10.78-5.3,14.55-10.26.6-.8.88-1.87,1.87-2.36-.35,4.86-5.75,12.07-12.46,16.66-6,4.09-7.42,4.51-20.93,6,5.94,4.22,12.39,4.87,19,4.75A45,45,0,0,0,306,85.3c-9.59,9.44-19.65,17.38-40.74,8,.13,2,1.66,3.07,2.37,4.55,9.57,20,11.18,40.63,5.17,62-3.87,13.71-9.27,26.69-17.28,38.53A68,68,0,0,0,244,245.84c.3,2.54,1.18,2.93,3.42,2.92q48.6-.09,97.2,0c8.25,0,9,.71,9,8.84V414.8a28.65,28.65,0,0,1-.08,3.34c-.31,2.64-1.74,4.26-4.49,4.49-1,.09-2,.08-3.06.08H280.35c-2.25,0-3.15.63-3.79,2.82a95,95,0,0,1-23.05,40c-3.51,3.52-6.7,7.42-10.51,10.8-9.12,8.18-20,12.27-31.68,14.9a66.75,66.75,0,0,1-16.9,1.71c-10.59-.35-21.23.77-31.77-1.15-14.94-2.72-28.29-8.56-38.94-19.65-13.15-13.7-24.26-28.7-29.11-47.49-.55-2.15-1.88-1.88-3.34-1.88H20.36c-3.6-.24-5.25-1.89-5.32-5.47-.07-3.35,0-6.7,0-10.05V255.79c0-6,1.11-7.08,7.23-7.08q50.82,0,101.66.06c2.4,0,3.3-.54,3.56-3.11,1.57-15.49-.88-30.08-9.22-43.41-6.18-9.87-12.31-19.74-16-30.88C102.14,171.06,102,170.63,101.54,170.68Zm34.68,252.39H126.6c2,3.41,3.54,6.67,5.61,9.59s5.24,4.93,8.54,6.51c.6.29,1.24.67,1.78.09s-.07-1.23-.31-1.76c-1-2.1-2.05-4.16-3-6.26-.44-.95-1.23-2,.26-2.83,2.44,3.27,4.87,6.55,7.34,9.81,1.33,1.76,1,3.1-.72,4.43-3.31,2.49-10.43,2.28-14.47-.21a23,23,0,0,1-10.29-12.81c-2-6.61-6-7.55-11.77-7-2.39.23-2.66.66-1.61,2.68a162.33,162.33,0,0,0,17.38,27.59,65.9,65.9,0,0,0,23.12,18.52c17.78,8.49,36.34,10.24,55.53,6.43q29.65-5.89,46.65-30.93a191.48,191.48,0,0,0,12.55-21.09c1.54-3.08,1.53-3.1-1.88-3.1q-60.88,0-121.76.07A7.36,7.36,0,0,0,136.22,423.07ZM174.4,121.12a6.7,6.7,0,0,1,2.53-4,16.35,16.35,0,0,0,4-5.29c4.51-9.74,4-19.32-1-28.68-3.39-6.35-8.75-10.21-16-10.79s-14.44-.41-21.27,1.88a53.7,53.7,0,0,0-30.22,24.34,70.75,70.75,0,0,0-8.91,46A113.24,113.24,0,0,0,122,193.23c10.94,16.17,15.55,33.83,13.17,53.23-.24,2,.41,2.3,2.19,2.3q48.18-.07,96.35,0c2,0,2.79-.33,2.52-2.6-2.32-19.31,2.32-36.88,13.22-52.95a107.39,107.39,0,0,0,12.65-25.42c5.36-15.52,8.36-31.22,4.87-47.67-3.33-15.68-10.19-29.06-23.72-38.41-1.6-1.11-2.71-1.52-4.24.09a16.75,16.75,0,0,1-6.41,3.87c-10.34,3.87-20.26,2.65-29.87-2.44-.86-.46-1.55-1.4-2.84-1.15,0,8.46-1.91,16.44-6.6,23.57S182.66,118.39,174.4,121.12Z" transform="translate(0.13 0.04)" style="fill:#474747;stroke:#474747;stroke-miterlimit:10;stroke-width:2px"/><path d="M173.4,121.12c8.26-2.73,14.2-8.36,18.87-15.47s6.56-15.11,6.6-23.57c1.29-.25,2,.69,2.84,1.15,9.61,5.09,19.53,6.31,29.87,2.44A16.59,16.59,0,0,0,238,81.8c1.54-1.61,2.65-1.2,4.25-.09,13.53,9.35,20.39,22.73,23.72,38.41,3.49,16.45.48,32.15-4.87,47.67a107.39,107.39,0,0,1-12.65,25.42c-10.9,16.07-15.54,33.64-13.22,52.95.27,2.27-.52,2.6-2.52,2.6q-48.18-.07-96.35,0c-1.78,0-2.43-.29-2.19-2.3,2.38-19.4-2.23-37.06-13.17-53.23a113.23,113.23,0,0,1-18.41-48.65,70.81,70.81,0,0,1,8.9-46,53.78,53.78,0,0,1,30.22-24.34c6.84-2.29,14.12-2.46,21.28-1.88s12.56,4.44,15.95,10.79c5,9.36,5.53,18.94,1,28.68a16.35,16.35,0,0,1-4,5.29A6.67,6.67,0,0,0,173.4,121.12Zm23.32,18.32a23.37,23.37,0,0,0-.13,8.82c1.21,8,6.84,14.58,13.89,16.21,5.25,1.21,13.36-.85,17.76-8.8.77-1.4,1.4-.89,2.39-.39a10.73,10.73,0,0,0,12.84-3c.44-.59,1.08-1.28.69-2-.57-1.07-1.25.1-1.89.15s-1.2.55-2,.12c1.84-2.29,3-4.79,2.3-7.85-1.25,3.23-3.94,4.18-6.87,4.66-3.73.61-4.21.18-4.58-3.53,0-.31-.33-.59-.66-1.15a51.88,51.88,0,0,1-3.77,8.32c-5.23,8.23-14.85,9.21-21.52,2.15a28.22,28.22,0,0,1-3.67-4.9C199.82,145.42,198.58,142.33,196.72,139.44Zm-24.07.08c-.88,0-.88.81-1.1,1.38a56.13,56.13,0,0,1-4.48,8.64c-3.9,6.39-9.2,9.17-15.5,8-5.66-1-8.47-5.29-10.75-10-.71-1.49-1.24-3.06-2.16-5.35a10.12,10.12,0,0,0-.36,2.19c.45,2.86-1.18,3.3-3.47,3.1-3.42-.31-6.5-1.17-8.16-5.52a10.56,10.56,0,0,0,2.35,8.62c-1.42.62-2.45-.91-3.7-.53a2,2,0,0,0,.37,1.92c2.33,3.66,8.57,5.66,12.4,3.58,2.08-1.13,2.68-.47,3.72,1.17a16.47,16.47,0,0,0,11.1,7.74C165.8,167,175.52,152.78,172.65,139.52Zm16.85,52.8c-8.76-5.57-17.52-4-26.24-.81a24,24,0,0,0-14.14,13c6.83-6.17,14.94-9.16,23.9-10.2C178.41,193.63,183.89,193.72,189.5,192.32Zm-27.69-89.4h1.11c.77-.08,1.86.47,2.22-.47s-.62-1.47-1.22-2c-3-2.59-6.57-2.84-10.24-1.89-5.82,1.51-10.12,5.36-14.11,9.56a17.39,17.39,0,0,0-4.78,9c-.12.7-.32,1.62.51,2s1.32-.44,1.79-1c2.39-2.59,4.61-5.36,7.14-7.8C149.1,105.67,155.25,103.75,161.81,102.92Zm45.65.06a23.42,23.42,0,0,1,2.37,0,20,20,0,0,1,2.16.52c8.45,1.88,14.45,7.23,19.63,13.77.64.82,1.27,2.39,2.42,1.76s.54-2.15.23-3.3a6.84,6.84,0,0,0-.56-1.57c-4.12-8-10.37-13.46-19.09-15.83a10,10,0,0,0-8,1.27c-1.06.67-2.65,1.47-2.26,2.82.31,1.2,1.94.24,3.1.58ZM184.6,175.34a21.58,21.58,0,0,0,5.55-.55c4-1.12,5.06-4.49,2.44-7.71-2.89-3.55-11.77-4-15.1-.75-1.44,1.42-2.59,3.07-2,5.2s2.55,3.1,4.66,3.44C181.62,175.2,183.12,175.23,184.6,175.34Z" transform="translate(0.13 0.04)" style="fill:#fee9a9"/><path d="M135.22,423.07a7.38,7.38,0,0,1,3.3-.26q60.89-.06,121.76-.07c3.41,0,3.42,0,1.88,3.1a191.48,191.48,0,0,1-12.55,21.09Q232.62,472,203,477.86c-19.19,3.81-37.75,2.06-55.53-6.43a65.9,65.9,0,0,1-23.12-18.52A163.4,163.4,0,0,1,107,425.32c-1-2-.77-2.45,1.62-2.68,5.78-.56,9.8.38,11.77,7a23,23,0,0,0,10.29,12.81c4,2.49,11.15,2.7,14.47.21,1.76-1.33,2-2.67.72-4.43-2.47-3.26-4.9-6.54-7.34-9.81Q136.82,425.74,135.22,423.07Zm15.26,28.43c-1.46.4-2.16-1.73-3.89-1.19,2.57,5.18,5.72,9.79,10.2,13.13,3.36,2.5,7.28,4,11.74,2.55a5.73,5.73,0,0,0,3.81-7.15,5.81,5.81,0,0,0-1.16-2.09c-.71-.84-.78.45-1.25.28a32.78,32.78,0,0,0-13.15-9.86C152.92,445.6,150.46,447.31,150.48,451.5Zm21.59-2.42a3.45,3.45,0,0,0,1.23,2.64c4,4.74,8,9.47,12,14.24.85,1,1.62,2.24,3.17,1.51a2.87,2.87,0,0,0,1.45-3.33,7.54,7.54,0,0,0-.92-2.88c-4-6.12-9.74-9.93-16.93-12.18Zm26,12.83c0-2.05-2.85-5.55-4.72-5.93-1.59-.33-2.37.48-2.21,2a9.79,9.79,0,0,0,3,5.83,2.21,2.21,0,0,0,2.57.55,2.58,2.58,0,0,0,1.29-2.45ZM206.9,463c1.59-.22,3.28-.8,3.18-2.92-.12-2.7-2.44-2.69-4.35-2.84-1.49-.12-2.82.38-3,2.19S204.67,462.94,206.9,463Z" transform="translate(0.13 0.04)" style="fill:#fee9a9"/><path d="M135.22,423.07c1.07,1.78,2.14,3.56,3.23,5.34-1.49.81-.71,1.88-.26,2.83,1,2.1,2.06,4.16,3,6.26.24.53.9,1.14.31,1.76s-1.18.2-1.78-.09c-3.3-1.58-6.43-3.52-8.54-6.51s-3.64-6.18-5.61-9.59Z" transform="translate(0.13 0.04)" style="fill:#fff"/><path d="M196.72,139.44c1.86,2.89,3.1,6,4.81,8.82a28.22,28.22,0,0,0,3.67,4.9c6.67,7.06,16.29,6.08,21.52-2.15a51.88,51.88,0,0,0,3.77-8.32c.33.56.63.84.66,1.15.37,3.71.85,4.14,4.58,3.53,2.93-.48,5.62-1.43,6.87-4.66.69,3.06-.46,5.56-2.3,7.85.77.43,1.35-.08,2-.12s1.32-1.22,1.89-.15c.39.72-.25,1.41-.69,2a10.73,10.73,0,0,1-12.84,3c-1-.5-1.62-1-2.39.39-4.4,8-12.51,10-17.76,8.8-7-1.63-12.68-8.18-13.89-16.21A23.42,23.42,0,0,1,196.72,139.44Z" transform="translate(0.13 0.04)" style="fill:#474747;stroke:#474747;stroke-miterlimit:10;stroke-width:2px"/><path d="M172.65,139.52c2.87,13.26-6.85,27.5-19.74,24.93a16.47,16.47,0,0,1-11.1-7.74c-1-1.64-1.64-2.3-3.72-1.17-3.83,2.08-10.07.08-12.4-3.58a2,2,0,0,1-.37-1.92c1.25-.38,2.28,1.15,3.7.53a10.56,10.56,0,0,1-2.35-8.62c1.66,4.35,4.74,5.21,8.16,5.52,2.29.2,3.92-.24,3.47-3.1a10.12,10.12,0,0,1,.36-2.19c.92,2.29,1.45,3.86,2.16,5.35,2.28,4.72,5.09,9,10.75,10,6.3,1.17,11.6-1.61,15.5-8a56.13,56.13,0,0,0,4.48-8.64C171.77,140.33,171.77,139.57,172.65,139.52Z" transform="translate(0.13 0.04)" style="fill:#474747;stroke:#474747;stroke-miterlimit:10;stroke-width:2px"/><path d="M189.5,192.32c-5.61,1.4-11.09,1.31-16.48,1.94-9,1-17.07,4-23.9,10.2a24,24,0,0,1,14.14-13C172,188.3,180.74,186.75,189.5,192.32Z" transform="translate(0.13 0.04)" style="fill:#474747;stroke:#474747;stroke-miterlimit:10;stroke-width:2px"/><path d="M161.81,102.92c-6.56.83-12.71,2.75-17.58,7.45-2.53,2.44-4.75,5.21-7.14,7.8-.47.52-.93,1.37-1.79,1s-.63-1.31-.51-2a17.39,17.39,0,0,1,4.78-9c4-4.2,8.29-8,14.11-9.56,3.67-1,7.2-.7,10.24,1.89.6.51,1.57,1.1,1.22,2s-1.45.39-2.22.47C162.55,103,162.18,102.92,161.81,102.92Z" transform="translate(0.13 0.04)" style="fill:#474747;stroke:#474747;stroke-miterlimit:10;stroke-width:2px"/><path d="M207.46,103c-1.16-.32-2.79.64-3.14-.54-.39-1.35,1.2-2.15,2.26-2.82a10,10,0,0,1,8-1.27c8.72,2.37,15,7.86,19.09,15.83a6.84,6.84,0,0,1,.56,1.57c.31,1.15.94,2.67-.23,3.3s-1.78-.94-2.42-1.76c-5.18-6.54-11.18-11.89-19.63-13.77a20,20,0,0,0-2.16-.52A20.13,20.13,0,0,0,207.46,103Z" transform="translate(0.13 0.04)" style="fill:#474747;stroke:#474747;stroke-miterlimit:10;stroke-width:2px"/><path d="M184.6,175.34c-1.48-.11-3-.14-4.44-.37-2.11-.34-4-1.18-4.66-3.44s.55-3.78,2-5.2c3.33-3.25,12.21-2.8,15.1.75,2.62,3.22,1.58,6.59-2.44,7.71A21.22,21.22,0,0,1,184.6,175.34Z" transform="translate(0.13 0.04)" style="fill:#474747;stroke:#474747;stroke-miterlimit:10;stroke-width:2px"/><path d="M150.48,451.5c0-4.19,2.44-5.9,6.3-4.33A32.77,32.77,0,0,1,169.93,457c-.38,4.28-1.2,5-4.87,4a13.8,13.8,0,0,1-1.55-.6C158.54,458.33,154.86,454.39,150.48,451.5Z" transform="translate(0.13 0.04)" style="fill:#fff"/><path d="M150.48,451.5c4.38,2.89,8.06,6.83,13,8.88a13.8,13.8,0,0,0,1.55.6c3.67,1,4.49.33,4.87-4,.47.17.54-1.12,1.25-.28a5.73,5.73,0,0,1-.56,8.08,5.67,5.67,0,0,1-2.09,1.16c-4.46,1.44-8.38-.05-11.74-2.55-4.48-3.34-7.63-7.95-10.2-13.13C148.32,449.77,149,451.9,150.48,451.5Z" transform="translate(0.13 0.04)" style="fill:#474747;stroke:#474747;stroke-miterlimit:10;stroke-width:2px"/><path d="M172.07,449.08c7.19,2.25,12.9,6.06,16.93,12.18a7.54,7.54,0,0,1,.92,2.88,2.87,2.87,0,0,1-1.45,3.33c-1.55.73-2.32-.49-3.17-1.51-4-4.77-8-9.5-12-14.24A3.45,3.45,0,0,1,172.07,449.08Z" transform="translate(0.13 0.04)" style="fill:#474747;stroke:#474747;stroke-miterlimit:10;stroke-width:2px"/><path d="M198,461.91a2.59,2.59,0,0,1-1.36,2.43,2.21,2.21,0,0,1-2.57-.55,9.79,9.79,0,0,1-3-5.83c-.16-1.5.62-2.31,2.21-2C195.17,456.36,198,459.86,198,461.91Z" transform="translate(0.13 0.04)" style="fill:#474747;stroke:#474747;stroke-miterlimit:10;stroke-width:2px"/><path d="M206.9,463c-2.23,0-4.29-1.87-4.14-3.57s1.48-2.31,3-2.19c1.91.15,4.23.14,4.35,2.84C210.18,462.18,208.49,462.76,206.9,463Z" transform="translate(0.13 0.04)" style="fill:#474747;stroke:#474747;stroke-miterlimit:10;stroke-width:2px"/></g><path d="M23,335.6v76.24c0,1.71-.11,2.92,2.37,2.9q32.38-.14,64.79,0c2.06,0,2.2-.69,2-2.47A133.11,133.11,0,0,1,90.79,395c0-7.71-1.42-5.63,6.17-6.8,1.94-.31,2.58.37,2.66,2.34a87,87,0,0,0,4,21.87c.53,1.78,1.29,2.4,3.08,2.3,2.32-.13,4.65,0,7,0,.71,0,1.7.38,2.07-.35s-.36-1.6-.85-2.2a21.85,21.85,0,0,1-2.73-4.19c-.21-.4-.52-.85-.13-1.27s.9-.16,1.25.1c2.62,2,6.09,2.95,7.48,6.36.61,1.48,1.82,1.59,3.21,1.58H264.48c1.95,0,2.78-.62,3.27-2.45,1.68-6.19,3.31-12.37,3.82-18.82.48-5.91.63-5.81,6.65-5.39,2,.14,2.5.9,2.47,2.74a181.58,181.58,0,0,1-1.29,20.32c-.46,3.54-.44,3.55,3,3.55,20,0,40-.05,60,.06,2.43,0,3.11-.55,3.1-3.06q-.12-76,0-151.93c0-2.52-.7-3.06-3.11-3-18.25.1-36.5,0-54.74,0-13,0-26.07.07-39.1-.06-2.54,0-3,.75-2.36,3,.85,3,1.47,6.14,2.23,9.21,1.39,5.65,1.37,5.54-4.35,6.85-1.92.45-2.47-.21-2.84-1.83-1.13-5-2.45-9.92-3.42-14.93-.35-1.78-1-2.26-2.71-2.26q-49.57.06-99.15,0c-1.58,0-2.29.44-2.57,2.1-.6,3.47-1.42,6.91-2.23,10.34-1.45,6.09-1.46,6-7.45,4.65-1.71-.4-2-1.15-1.57-2.74,1-3.86,1.76-7.8,2.88-11.63.73-2.46-.2-2.75-2.34-2.74q-48.45.07-96.91,0c-2.3,0-3,.59-2.94,2.92C23,285,23,310.27,23,335.6Z" transform="translate(0.13 0.04)" style="fill:#ace3fc"/><path d="M243.5,284.43c0-.31-.15-.57-.07-.67,1.64-2,4.19-1.36,6.26-2.14,1.16-.43,1.58.28,1.92,1.33q2.94,9.12,6,18.19c.52,1.52-.09,2-1.45,2.21a18.22,18.22,0,0,1-2.2.32c-1.35,0-2.49,1.91-3.67.84-.85-.76-1-2.34-1.39-3.57-1.66-5-3.3-10-5-15.05A10.85,10.85,0,0,0,243.5,284.43Z" transform="translate(0.13 0.04)" style="fill:#474747;stroke:#474747;stroke-miterlimit:10;stroke-width:2px"/><path d="M126.3,283.1c-.11.36-.29.89-.46,1.41-1.82,5.54-3.72,11.06-5.42,16.63-.59,1.94-1.38,2.46-3.39,1.9-5.41-1.5-5.42-1.4-3.67-6.66,1.5-4.47,3-8.93,4.38-13.46.6-2.06,1.36-3.07,3.65-2.14a26.77,26.77,0,0,0,3.77.87C125.79,281.81,126.44,282,126.3,283.1Z" transform="translate(0.13 0.04)" style="fill:#474747;stroke:#474747;stroke-miterlimit:10;stroke-width:2px"/><path d="M90.43,376c.44-4.33,1.1-10,2-15.55.34-1.95,1-1.92,2.56-1.37,5.65,2,5.57,1.94,4.7,7.84a114,114,0,0,0-1.16,11.65c-.1,2-.82,2.69-2.67,2.58a10.33,10.33,0,0,0-1.67.08C90,381.58,90,381.58,90.43,376Z" transform="translate(0.13 0.04)" style="fill:#474747;stroke:#474747;stroke-miterlimit:10;stroke-width:2px"/><path d="M268.53,332.85c1.3-.19,1.56.77,1.85,1.65,1.8,5.45,3.32,11,4.62,16.56.36,1.58,0,2.23-1.61,2.79-5.65,2-5.56,2-7.08-3.91a126.68,126.68,0,0,0-3.56-12.23c-.91-2.44,0-3.41,2-4A36.13,36.13,0,0,1,268.53,332.85Z" transform="translate(0.13 0.04)" style="fill:#474747;stroke:#474747;stroke-miterlimit:10;stroke-width:2px"/><path d="M94.65,350.08a170.64,170.64,0,0,1,4.93-17.31,1.37,1.37,0,0,1,1.62-1l.13,0,5.43,1.18c.95.21,1.11.76.81,1.65q-3,8.82-5.15,17.88c-.09.35-.21.94-.4,1-2.33.42-4.17-1.13-6.26-1.7C94.86,351.53,94.35,350.9,94.65,350.08Z" transform="translate(0.13 0.04)" style="fill:#474747;stroke:#474747;stroke-miterlimit:10;stroke-width:2px"/><path d="M279.42,379.7c.25,1.08-.58,1.48-2.29,1.33-5.94-.52-5.93-.48-6.6-6.25-.37-3.23-.74-6.47-1.2-9.68-.2-1.38,0-2.13,1.5-2.73,6.21-2.47,6.19-2.54,7,4.09C278.34,370.61,278.83,374.77,279.42,379.7Z" transform="translate(0.13 0.04)" style="fill:#474747;stroke:#474747;stroke-miterlimit:10;stroke-width:2px"/><path d="M109.3,326.3l-.81-.17c-6.11-1.11-6.1-1.11-3.77-6.82,1.25-3.08,2.53-6.15,3.69-9.27.56-1.51,1.31-1.88,2.92-1.42,5.9,1.69,5.92,1.63,3.66,7.19-1.22,3-2.48,6-3.68,9C110.88,325.89,110.3,326.56,109.3,326.3Z" transform="translate(0.13 0.04)" style="fill:#474747;stroke:#474747;stroke-miterlimit:10;stroke-width:2px"/><path d="M266.67,324.25c.41,1.48-.17,1.8-.83,1.94a9.11,9.11,0,0,1-2.21.28c-1.54,0-3.11,1.82-4.38.63-1.06-1-1.35-2.8-1.95-4.26-1.33-3.26-2.62-6.55-4-9.79-.52-1.24-.4-1.95,1.07-2.09a1.14,1.14,0,0,0,.26-.09c5.92-1.73,5.92-1.73,8.18,3.9C264.16,318.13,265.54,321.47,266.67,324.25Z" transform="translate(0.13 0.04)" style="fill:#474747;stroke:#474747;stroke-miterlimit:10;stroke-width:2px"/><path d="M174.05,58.21a127.63,127.63,0,0,1,18.55-.27,4.58,4.58,0,0,0,3.41-1,22.6,22.6,0,0,0,6.33-10.64c.84-2.84-1-5-2.44-7.15a23.78,23.78,0,0,1-4-11.75c-.49-6.38-2.78-7.78-8.8-5.47-.52.2-1,.42-1.54.66-9.49,4.54-17.19,11.59-25.48,17.94a19,19,0,0,1,2.56,2.82c1,1.72,1.93,1.48,3.48.54a110,110,0,0,1,22.41-10.55c.61-.2,1.38-.7,1.77-.07.54.85-.42,1.28-1,1.7-2.8,2.15-5.6,4.31-8.46,6.38-1.67,1.21-3.46,2.26-5.62,3.66h5.83A135.23,135.23,0,0,1,195,45c1.06.08,2.56,0,2.73,1.38s-1.27,1.67-2.32,1.93c-4.41,1.11-8.84,2.17-13.27,3.21-1,.23-2.09.21-2.56,1.36C178.58,55.51,176.31,56.84,174.05,58.21Z" transform="translate(0.13 0.04)" style="fill:#ed40a9"/><path d="M126.45,48.83a16.3,16.3,0,0,0-2.21,0c-10,1.26-20.11,2.42-30.13,3.88-5.17.76-10.18,2.3-14.39,5.64-3.89,3.1-4.19,5.85-1.12,9.77,2,2.49,4.18,5,4.78,8.09,1.3,6.72,5.54,11.38,10.23,15.85,4.2,4,6.37,4.17,10.84.57a13.58,13.58,0,0,0,2.42-2.31A77.13,77.13,0,0,1,129.29,70.6c.62-.36,2.19-.59,1.2-1.9s-1.53.07-2.15.6c-4,3.43-8.54,5.66-13.88,4.94a7.38,7.38,0,0,0-5.89,1.6c-2.75,2.06-5.46,4.18-8.24,6.19-.55.39-1.33.9-2.07.4s-.56-1.54-.35-2.3a13,13,0,0,1,3.94-6c2.43-2.25,4.93-4.42,7.38-6.61-5,.58-9.81,1.25-14.67,1.66-1.93.17-5,1.06-5.53-1s2.56-2.66,4.32-3.48A101.42,101.42,0,0,1,119,56.5C123.73,55.69,126.16,53.6,126.45,48.83Z" transform="translate(0.13 0.04)" style="fill:#ed40a9"/><path d="M187.09,404c-16,0-32,.13-48-.06A143.87,143.87,0,0,1,118,402.4c-3.24-.52-5-2.63-5.87-5.62-2.47-8.56-2.47-17.24-1.24-26,3-21.21,9.35-41.44,17.15-61.31,4.41-11.22,8.66-22.53,11.19-34.39.39-1.8,1.27-3.49,1.83-5.25,1.69-5.31.45-4.85,6.83-5.11q39.49-1.59,79,0c6.37.25,5.55-.3,7,5.35,5.48,21.94,14.79,42.57,21.7,64,4.69,14.54,8.12,29.39,9,44.69a50.81,50.81,0,0,1-1.87,17.94c-1,3.29-3,5.3-6.64,5.78-14.92,2-29.91,1.45-44.88,1.58-8,.07-16,0-24,0Z" transform="translate(0.13 0.04)" style="fill:#474747;stroke:#474747;stroke-miterlimit:10;stroke-width:2px"/><path d="M149.69,245.77c0-.51-.05-.9-.06-1.18-.22-1.06-.47-2.12-.74-3.17-.49-1.94-1-3.88-1.48-5.83-1-4.15-1.87-8.29-2.48-12.52a251.49,251.49,0,0,1-2.27-27.68,92.14,92.14,0,0,1,4.58-33,16.93,16.93,0,0,1-5.4-5.48c-1-1.65-1.64-2.31-3.72-1.18-3.82,2.09-10.06.08-12.4-3.57a1.92,1.92,0,0,1-.36-1.92c1.24-.39,2.27,1.14,3.69.52a10.56,10.56,0,0,1-2.35-8.62c1.66,4.35,4.75,5.21,8.16,5.52,2.29.2,3.92-.24,3.47-3.1a10.22,10.22,0,0,1,.36-2.19c.92,2.29,1.45,3.86,2.16,5.35,1.94,4,4.26,7.68,8.39,9.33a93.68,93.68,0,0,1,19.76-30,107,107,0,0,1,8.45-7.46,31.79,31.79,0,0,1-4,1.66,6.7,6.7,0,0,1,2.53-4,16.35,16.35,0,0,0,4-5.29c4.51-9.74,4-19.32-1-28.68-3.39-6.35-8.75-10.21-15.95-10.79s-14.43-.41-21.27,1.89a53.72,53.72,0,0,0-30.22,24.33,70.81,70.81,0,0,0-8.9,46A113.07,113.07,0,0,0,121,193.37c10.94,16.18,15.55,33.83,13.17,53.23-.24,2,.41,2.3,2.19,2.3h13.77A15.74,15.74,0,0,1,149.69,245.77ZM134.82,117.26a17.46,17.46,0,0,1,4.78-9c4-4.2,8.3-8.06,14.11-9.57,3.67-1,7.2-.7,10.24,1.89.6.51,1.57,1.11,1.23,2s-1.46.38-2.23.46h-1.11c-6.56.83-12.7,2.75-17.58,7.45-2.53,2.44-4.75,5.21-7.14,7.81-.47.51-.92,1.36-1.79,1S134.7,118,134.82,117.26Z" transform="translate(0.13 0.04)" style="fill:#e8cf83"/><path d="M209.63,461.91a4,4,0,0,1-2.7,1.21c-2.17,0-4.17-1.78-4.13-3.44-19-6.8-35.68-18-45.48-36.74H138.55a7.52,7.52,0,0,0-3.3.26l3.23,5.34c2.44,3.27,4.87,6.56,7.34,9.81,1.33,1.76,1,3.1-.72,4.43-3.31,2.5-10.43,2.28-14.47-.21a23,23,0,0,1-10.29-12.81c-2-6.6-6-7.55-11.77-7-2.39.23-2.66.65-1.61,2.67A162.33,162.33,0,0,0,124.34,453a65.9,65.9,0,0,0,23.12,18.52C165.24,480,183.8,481.78,203,478a73,73,0,0,0,27.44-11.34A178.25,178.25,0,0,1,209.63,461.91Zm-41.07,4.22c-4.45,1.45-8.38-.05-11.74-2.55-4.48-3.34-7.62-7.95-10.2-13.13,1.73-.54,2.43,1.59,3.89,1.19,0-4.19,2.44-5.9,6.3-4.32A32.56,32.56,0,0,1,170,457.18c.47.16.55-1.13,1.26-.29a5.74,5.74,0,0,1-2.7,9.24Zm19.94,1.48c-1.55.73-2.31-.49-3.17-1.51-4-4.77-8-9.5-12-14.24a3.52,3.52,0,0,1-1.23-2.64c7.2,2.26,12.9,6.06,16.93,12.18a7.54,7.54,0,0,1,.92,2.88,2.86,2.86,0,0,1-1.45,3.33Zm8.19-3.12a2.21,2.21,0,0,1-2.57-.56,9.66,9.66,0,0,1-3-5.83c-.17-1.5.61-2.31,2.2-2,1.87.38,4.68,3.88,4.72,5.93a2.63,2.63,0,0,1-1.35,2.46Z" transform="translate(0.13 0.04)" style="fill:#e8cf83"/><path d="M196.67,139.44c1.86,2.89,3.09,6,4.81,8.82a28.68,28.68,0,0,0,3.66,4.9c6.67,7.06,16.3,6.08,21.53-2.15a51.88,51.88,0,0,0,3.77-8.32c.33.56.63.84.66,1.15.37,3.71.84,4.14,4.58,3.53,2.93-.48,5.62-1.43,6.86-4.66.7,3.06-.45,5.56-2.29,7.85.77.43,1.35-.08,2-.12s1.32-1.22,1.89-.15c.38.72-.25,1.41-.69,2a10.73,10.73,0,0,1-12.84,3c-1-.5-1.62-1-2.39.39-4.4,8-12.52,10-17.76,8.8-7.05-1.63-12.68-8.18-13.89-16.21A23.42,23.42,0,0,1,196.67,139.44Z" transform="translate(0.13 0.04)" style="fill:#474747;stroke:#474747;stroke-miterlimit:10;stroke-width:2px"/><path d="M172.6,139.52c2.87,13.26-6.85,27.5-19.74,24.93a16.51,16.51,0,0,1-11.11-7.74c-1-1.64-1.63-2.3-3.71-1.17-3.83,2.08-10.07.08-12.4-3.58a1.9,1.9,0,0,1-.37-1.92c1.25-.38,2.28,1.15,3.7.53a10.49,10.49,0,0,1-2.35-8.62c1.66,4.35,4.74,5.21,8.16,5.52,2.28.2,3.91-.24,3.47-3.1a10.12,10.12,0,0,1,.36-2.19c.91,2.29,1.44,3.86,2.16,5.35,2.27,4.72,5.08,9,10.74,10,6.31,1.17,11.61-1.61,15.51-8a56.13,56.13,0,0,0,4.48-8.64C171.72,140.33,171.71,139.57,172.6,139.52Z" transform="translate(0.13 0.04)" style="fill:#474747;stroke:#474747;stroke-miterlimit:10;stroke-width:2px"/><path d="M189.45,192.32c-5.61,1.4-11.09,1.31-16.49,1.94-9,1-17.06,4-23.89,10.2a24,24,0,0,1,14.14-13C171.93,188.3,180.69,186.75,189.45,192.32Z" transform="translate(0.13 0.04)" style="fill:#474747;stroke:#474747;stroke-miterlimit:10;stroke-width:2px"/><path d="M161.75,102.92c-6.55.83-12.7,2.75-17.57,7.45-2.54,2.44-4.76,5.21-7.14,7.8-.47.52-.93,1.37-1.79,1s-.64-1.31-.51-2a17.28,17.28,0,0,1,4.78-9c4-4.2,8.29-8,14.11-9.56,3.66-1,7.2-.7,10.23,1.89.6.51,1.58,1.1,1.23,2s-1.45.39-2.22.47C162.5,103,162.13,102.92,161.75,102.92Z" transform="translate(0.13 0.04)" style="fill:#474747;stroke:#474747;stroke-miterlimit:10;stroke-width:2px"/><path d="M207.41,103c-1.16-.32-2.79.64-3.14-.54-.39-1.35,1.2-2.15,2.26-2.82a10,10,0,0,1,8-1.27c8.72,2.37,15,7.86,19.09,15.83a7.93,7.93,0,0,1,.56,1.57c.31,1.15.94,2.67-.23,3.3s-1.78-.94-2.42-1.76c-5.18-6.54-11.18-11.89-19.63-13.77-.71-.21-1.43-.38-2.16-.52A20.13,20.13,0,0,0,207.41,103Z" transform="translate(0.13 0.04)" style="fill:#474747;stroke:#474747;stroke-miterlimit:10;stroke-width:2px"/><path d="M184.55,175.34c-1.48-.11-3-.14-4.44-.37-2.11-.34-4-1.18-4.66-3.44s.54-3.78,2-5.2c3.32-3.25,12.21-2.8,15.09.75,2.63,3.22,1.59,6.59-2.43,7.71A21.65,21.65,0,0,1,184.55,175.34Z" transform="translate(0.13 0.04)" style="fill:#474747;stroke:#474747;stroke-miterlimit:10;stroke-width:2px"/><path d="M333.67,293.89c-5.73-22.86-34.59-30.27-44-17.63a13.35,13.35,0,0,0-2,10.28c1.28,5.07,6.43,9.54,13.95,8.72,18.32-2,19.39,17.16,20.18,22.88.65,4.73,2.31,6.5,5.87,5.76C332.35,322.92,337.52,309.21,333.67,293.89Z" transform="translate(0.13 0.04)" style="fill:#e6fdff"/><circle cx="328.3" cy="340.99" r="5.22" style="fill:#e6fdff"/></g></g></svg>