<svg id="Layer_1" data-name="Layer 1" xmlns="http://www.w3.org/2000/svg" viewBox="0 0 306 450"><title>ok</title><g id="Layer_2" data-name="Layer 2"><g style="opacity:0.12"><path d="M291.48,197c-.5-4.81-3-8.56-6.69-11.52a10.16,10.16,0,0,0-9.5-2c-.54.15-1,.42-1.64.12-3.09-1.54-6.27-1.28-9.45-.32a1.36,1.36,0,0,1-1.73-.59,87.89,87.89,0,0,1-10.31-16.41c-1-2.24-2.23-4.42-3.38-6.61a38.49,38.49,0,0,0-19.08-17.89c-1.62-.72-3.21-1.54-4.87-2.16a43.49,43.49,0,0,1-17.27-11.83c-9.6-10.58-21.93-10.27-32.08-4.76-4.23,2.3-7.77,5.48-11.31,8.67-.48.43-.8,1.17-1.79,1.09.34-1.65.72-3.24,1-4.85a48.27,48.27,0,0,1,11.56-24.84,109,109,0,0,0,11.18-15.41A167.35,167.35,0,0,1,200.44,68a67.3,67.3,0,0,0,10.78-17.43c2.4-5.76,3.86-11.67,2.87-18-1.34-8.52-7.72-11.49-15-7a31.53,31.53,0,0,0-5.33,4.31c-10.11,9.93-19.84,20.12-30.3,29.63a103.56,103.56,0,0,0-11.65,12.58c-5.26,6.61-10.71,13.07-16.28,19.42-.31.35-.5.9-1.22.91-.17-2.14-.31-4.26-.51-6.38-.42-4.62-1-9.23-.51-13.88a79,79,0,0,0,.34-16.55c-.67-7.12-1.83-14.12-5.41-20.45-3.17-5.61-7.38-10.21-13.64-12.43-6.1-2.17-10.92.59-12.32,6.91-1.08,4.92-.48,9.87-.14,14.8.69,10,1.07,19.92-.1,29.88-.89,7.57-2.59,15-3.71,22.53-.4,2.66-.73,5.33-1.1,8.1a3.94,3.94,0,0,1-1.37-1.63,33.32,33.32,0,0,0-10.11-9.95A17.45,17.45,0,0,0,76,90.47c-4.38.09-6.7,3.11-5.84,7.4a15.14,15.14,0,0,0,.35,1.48c1.44,4.8,2.95,9.58,4.33,14.39,2.53,8.81,3.5,17.92,5.17,26.9,3.36,18.1,8.15,35.87,12.11,53.83.62,2.84,1.67,5.67,1.29,8.59-1.22,9.31-2.57,18.61-3.9,27.91-1.8,12.7-3.51,25.41-4,38.24-.51,12-1.62,23.92-4.88,35.57-2.91,10.4-6.81,20.16-14.23,28.28-12.85,14.08-25.48,28.35-36.79,43.74-2.31,3.16-5,6-7.57,9a12.35,12.35,0,0,0,3.6-2.43l.95-.82,1-.83c.06.14.15.28.22.42a.91.91,0,0,1,.14.42c.32,3,1.55,4,4.52,4.16,3.42.16,6.51-1.12,9.5-2.35,4.92-2,10-3.65,15-5.49a1.3,1.3,0,0,1,1.27,0c0,.9-.76,1.42-1.14,2.14-.7,1.35-1.83,2.87-1.14,4.24a31.2,31.2,0,0,0,3.85,5.07,1,1,0,0,0,.72.17,28.16,28.16,0,0,0,4-.23,86.93,86.93,0,0,0,13.39-4.09c2.21-.79,5.11-.06,5.7,1.64A6.56,6.56,0,0,1,83.2,394c-2.77,4.29-6,8.28-8.15,13a15.52,15.52,0,0,0-1.64,7.3,5.3,5.3,0,0,0,4,5.31,10,10,0,0,0,5.43,0c2.26-.62,4.5-1.28,6.77-1.85,1.49-.38,2.35.33,2,1.77a23.47,23.47,0,0,0-.26,5.49c-.06,3.3,1.13,4.83,4.33,5.82a3.13,3.13,0,0,0,.44.1l.34.07a.77.77,0,0,1,.63.79,2.47,2.47,0,0,1-.08.6,6,6,0,0,1-.2.69c-.13.37-.28.74-.38,1.13a2.59,2.59,0,0,0,0,1.56c.93-.36,1.3-1.13,1.81-1.77a253.24,253.24,0,0,0,17-24.36c12.37-19.7,30.31-33.27,49.27-45.81a1,1,0,0,0,.48-.08.29.29,0,0,0,.14-.15.55.55,0,0,0,.06-.28l.08.09-.07-.09c.69.24,1.22-.19,1.75-.48,8.45-4.59,16.35-9.89,22.81-17.12a2.1,2.1,0,0,0,.75-1.67h0a.86.86,0,0,0,.44-.12.41.41,0,0,0,.14-.43l.1.09-.09-.09a.49.49,0,0,0,.24,0,.34.34,0,0,0,.16-.1.42.42,0,0,0,.1-.17,1.74,1.74,0,0,0,.05-.22,5.37,5.37,0,0,1,.5-.57A91.91,91.91,0,0,0,217.6,304.8a67.44,67.44,0,0,1,15.15-24.18,128.59,128.59,0,0,0,13.65-16.87,91,91,0,0,1,15.41-17.32,83.74,83.74,0,0,0,11-11.59c5.49-7.09,10.9-14.29,13.08-23.21a23.2,23.2,0,0,1,3.95-8.82A8.12,8.12,0,0,0,291.48,197ZM178.92,222.2a104.57,104.57,0,0,0-13.29-7.8c-1-.54-1.38-.89-.6-2.08,2.12-3.27,2.52-7.13,3.28-10.85.57-2.8,1.05-5.62,1.68-8.4,1.35-5.85,3.65-11.06,8.33-15.23a86.44,86.44,0,0,0,10.37-11.67,3.57,3.57,0,0,1,2.73-1.45c3-.24,5.65.78,8.35,1.66,5,1.64,9.94,3.45,14.93,5.12a28,28,0,0,1,10.49,6.4c6.27,6,12.91,11.46,21.05,14.81.09,0,.13.19.21.33a6.71,6.71,0,0,1-2,1.67c-8.95,6.79-16.8,14.73-24.42,22.93s-16.22,14.62-25,21.07c-.46.34-1,1.23-1.54-.07C190.72,231.31,185,226.62,178.92,222.2Z" transform="translate(-0.04 0)" style="fill:#6a374f;stroke:#6a374f;stroke-linecap:round;stroke-linejoin:round;stroke-width:28px"/><polygon points="190.98 343.45 190.98 343.45 190.98 343.45 190.98 343.45 190.98 343.45" style="fill:#6a374f"/><path d="M191,343.46a.49.49,0,0,0,.24,0A.49.49,0,0,1,191,343.46Z" transform="translate(-0.04 0)" style="fill:#6a374f"/><path d="M271.83,215.74a27.38,27.38,0,0,0,3,.41A27.38,27.38,0,0,1,271.83,215.74Z" transform="translate(-0.04 0)" style="fill:#6a374f"/><polygon points="165.07 363.28 165.07 363.28 165.07 363.28 165.07 363.28 165.07 363.28" style="fill:#6a374f"/><path d="M278.85,216.75c-.36.48-.73.95-1.12,1.42C278.12,217.7,278.49,217.23,278.85,216.75Z" transform="translate(-0.04 0)" style="fill:#6a374f"/><path d="M281.3,212.57a.49.49,0,0,1,0,.24A.49.49,0,0,0,281.3,212.57Z" transform="translate(-0.04 0)" style="fill:#6a374f"/><path d="M98,431.76c.1-.3.21-.59.3-.89.39-1.16.81-2.3,1.27-3.43a61.69,61.69,0,0,1,3-6.31,110.41,110.41,0,0,1,6.18-9.79c7-10.13,14-20.33,23.12-28.74,7.55-6.94,16-12.75,24.27-18.72,10.2-7.34,20.6-14.42,30.25-22.52,12.21-10.24,21.54-22.56,27-37.63A74.27,74.27,0,0,1,230,276.93a136.21,136.21,0,0,0,13.84-17.2A86.56,86.56,0,0,1,257.74,244c-.05-.54-.33-.59-.56-.59a8.16,8.16,0,0,1-7.25-4.15c-2.66-4.1-6.23-7.53-8.6-11.85-.7-1.26-2.26-1.84-2.9-3.23-.31-.68-.76-1.32-.41-2.06,6.37,3.47,10.5,9.15,14.5,14.91,1.54,2.23,3.61,3.91,5.41,5.87.43.47.72.26,1.08-.06a97.45,97.45,0,0,0,19.66-24.34,1.15,1.15,0,0,0,.06-.37l-.33-.37c-3.7,2-10.29,1.67-14.52-2.12a15.49,15.49,0,0,1-5.09-10c0-.43-.29-1,.23-1.15.24-.08.63.3,1,.47a3.92,3.92,0,0,1,1.19-2.22c-.67-3.14.79-5.7,2.34-8.18,1.37-2.19,2.93-4.26,4.43-6.41a3,3,0,0,0-2.14.26c-10.52,4.34-19.06,11.54-27.42,19-5.13,4.57-9.65,9.75-14.45,14.65-10.36,10.6-22.17,19.4-34.63,27.32a42.13,42.13,0,0,1-15,6.31,17.27,17.27,0,0,1-6.87,0,4.93,4.93,0,0,1,2.36-1.09,41.48,41.48,0,0,0,12.39-6.14c2.81-2,5.56-4,8.42-5.91,1.12-.74,1-1.22.29-2.18a61.79,61.79,0,0,0-21.54-18.68A90.89,90.89,0,0,1,155.27,213c-4.26-3.38-8.22-7-10.19-12.31-1.1-3-1.43-6.24-.67-8.38,1.12,8.78,7.1,13.44,13.87,17.45,3.12,1.85,3.1,1.84,4.22-1.66a48.67,48.67,0,0,0,1.61-6.85,50.86,50.86,0,0,1,3.74-13.12l-.26-.39c-1.61.4-3,1.5-5.1,1.62,7.29-5.53,12.06-12.88,17.63-19.52a31,31,0,0,1,4.08-4.26,8.11,8.11,0,0,0,3-5.51c.53-3.56,1.45-7.1.65-10.74a1.76,1.76,0,0,1,.37-1.51,51,51,0,0,0,3.5,9.59c1.11,2,2.54,3.19,4.94,3.07a18.14,18.14,0,0,1,6.86,1.41c4.08,1.41,8.13,2.91,12.24,4.19A36.91,36.91,0,0,1,230,174.34,103.64,103.64,0,0,0,241.46,184a69.76,69.76,0,0,0,10.09,5.3,1.74,1.74,0,0,0,2.22-.55c.63-.77-.42-1-.74-1.42a26.94,26.94,0,0,1-6-16.51,4.92,4.92,0,0,1,1.19-3.71c.55-.54.31-1,.06-1.52-4.71-10.39-11.77-18.21-22.94-22a44.54,44.54,0,0,1-18.93-12.39c-3.4-3.72-7.26-6.78-12.41-7.66-7-1.18-13,1.07-18.43,5.35-5.75,4.55-10.65,10-15.89,15.08q-17.31,16.8-36.14,31.88c-4.26,3.41-8.27,7.14-12.53,10.56-6.87,5.5-10.48,12.77-11.86,21.27-3.2,19.8-6.24,39.62-7.52,59.66-.51,8-.59,16.13-2,24.09-1.88,10.26-4.54,20.33-8.95,29.81-3.91,8.39-10.09,15.22-16.22,22C54.37,354.48,43.58,365,33.72,376.39c-1.62,1.86-3.42,3.57-5.13,5.34h0c.06.14.15.28.22.42a.91.91,0,0,1,.14.42c.32,3,1.55,4,4.52,4.16,3.42.16,6.51-1.12,9.5-2.35,4.92-2,10-3.65,15-5.49a1.32,1.32,0,0,1,1.28,0c0,.9-.77,1.42-1.15,2.14-.7,1.35-1.83,2.87-1.14,4.24a31.2,31.2,0,0,0,3.85,5.07,1,1,0,0,0,.72.17,28.16,28.16,0,0,0,4-.23,86.81,86.81,0,0,0,13.38-4.09c2.21-.79,5.11-.06,5.7,1.64a6.56,6.56,0,0,1-.42,6.17c-2.77,4.29-6,8.28-8.15,13a15.64,15.64,0,0,0-1.64,7.3,5.3,5.3,0,0,0,4,5.31,10,10,0,0,0,5.43,0c2.26-.62,4.5-1.28,6.77-1.85,1.49-.38,2.35.33,2,1.77a23.47,23.47,0,0,0-.26,5.49c-.06,3.3,1.13,4.83,4.33,5.82a3.63,3.63,0,0,0,.45.1C97.53,431,98,431.07,98,431.76ZM250.76,227.49c.3.16.52.21.6.34,1.56,2.6,4.56,3.83,6.11,6.42.4.67,1.29,1.59.67,2.13s-1.59-.25-2.28-.76a14.25,14.25,0,0,1-5.16-6.18A2.1,2.1,0,0,1,250.76,227.49Z" transform="translate(-0.04 0)" style="fill:#6a374f"/><polygon points="190.98 343.46 190.99 343.46 190.99 343.46 190.98 343.46 190.98 343.46" style="fill:#6a374f"/><path d="M165.19,363.38l-.07-.09h0Z" transform="translate(-0.04 0)" style="fill:#6a374f"/><polygon points="165.07 363.28 165.07 363.28 165.07 363.28 165.07 363.28" style="fill:#6a374f"/><polygon points="190.98 343.45 190.98 343.45 190.98 343.45 190.98 343.45" style="fill:#6a374f"/><path d="M191.12,343.55l-.09-.09h0Z" transform="translate(-0.04 0)" style="fill:#6a374f"/><path d="M191.58,343h0a5.37,5.37,0,0,1,.5-.57A5.37,5.37,0,0,0,191.58,343Z" transform="translate(-0.04 0)" style="fill:#6a374f"/><path d="M191,343.46h0l.1.09-.09-.09Z" transform="translate(-0.04 0)" style="fill:#6a374f"/><path d="M291.48,197c-.5-4.81-3-8.56-6.69-11.52a10.16,10.16,0,0,0-9.5-2c-.54.15-1,.42-1.64.12-3.09-1.54-6.27-1.28-9.45-.32a1.36,1.36,0,0,1-1.73-.59,87.89,87.89,0,0,1-10.31-16.41c-1-2.24-2.23-4.42-3.38-6.61a38.49,38.49,0,0,0-19.08-17.89c-1.62-.72-3.21-1.54-4.87-2.16a43.49,43.49,0,0,1-17.27-11.83c-9.6-10.58-21.93-10.27-32.08-4.76-4.23,2.3-7.77,5.48-11.31,8.67-.48.43-.8,1.17-1.79,1.09.34-1.65.72-3.24,1-4.85a48.27,48.27,0,0,1,11.56-24.84,109,109,0,0,0,11.18-15.41A167.35,167.35,0,0,1,200.44,68a67.3,67.3,0,0,0,10.78-17.43c2.4-5.76,3.86-11.67,2.87-18-1.34-8.52-7.72-11.49-15-7a31.53,31.53,0,0,0-5.33,4.31c-10.11,9.93-19.84,20.12-30.3,29.63a103.56,103.56,0,0,0-11.65,12.58c-5.26,6.61-10.71,13.07-16.28,19.42-.31.35-.5.9-1.22.91-.17-2.14-.31-4.26-.51-6.38-.42-4.62-1-9.23-.51-13.88a79,79,0,0,0,.34-16.55c-.67-7.12-1.83-14.12-5.41-20.45-3.17-5.61-7.38-10.21-13.64-12.43-6.1-2.17-10.92.59-12.32,6.91-1.08,4.92-.48,9.87-.14,14.8.69,10,1.07,19.92-.1,29.88-.89,7.57-2.59,15-3.71,22.53-.4,2.66-.73,5.33-1.1,8.1a3.94,3.94,0,0,1-1.37-1.63,33.32,33.32,0,0,0-10.11-9.95A17.45,17.45,0,0,0,76,90.47c-4.38.09-6.7,3.11-5.84,7.4a15.14,15.14,0,0,0,.35,1.48c1.44,4.8,2.95,9.58,4.33,14.39,2.53,8.81,3.5,17.92,5.17,26.9,3.36,18.1,8.15,35.87,12.11,53.83.62,2.84,1.67,5.67,1.29,8.59-1.22,9.31-2.57,18.61-3.9,27.91-1.8,12.7-3.51,25.41-4,38.24-.51,12-1.62,23.92-4.88,35.57-2.91,10.4-6.81,20.16-14.23,28.28-12.85,14.08-25.48,28.35-36.79,43.74-2.31,3.16-5,6-7.57,9a12.35,12.35,0,0,0,3.6-2.43l.95-.82,1-.83c1.71-1.77,3.51-3.48,5.13-5.34C42.57,365,53.36,354.47,63.46,343.3c6.13-6.78,12.31-13.61,16.22-22,4.41-9.48,7.07-19.55,8.95-29.81,1.45-8,1.53-16,2-24.09,1.28-20,4.32-39.86,7.52-59.66,1.38-8.5,5-15.77,11.86-21.27,4.26-3.42,8.26-7.15,12.53-10.56q18.83-15.09,36.14-31.88c5.32-5,10.18-10.52,15.93-15,5.41-4.28,11.45-6.53,18.43-5.35,5.15.88,9,3.94,12.41,7.66a44.54,44.54,0,0,0,18.93,12.39c11.17,3.75,18.23,11.57,22.94,22,.25.55.49,1-.06,1.52a4.88,4.88,0,0,0-1.19,3.71,26.94,26.94,0,0,0,6,16.51c.32.42,1.37.65.74,1.42a1.74,1.74,0,0,1-2.22.55,69.76,69.76,0,0,1-10.09-5.3,103,103,0,0,1-11.5-9.77,36.94,36.94,0,0,0-14.19-8.27c-4.12-1.28-8.16-2.78-12.24-4.19a18.14,18.14,0,0,0-6.86-1.41c-2.4.12-3.84-1-4.94-3.07a51,51,0,0,1-3.5-9.59,1.76,1.76,0,0,0-.37,1.51c.8,3.64-.12,7.18-.65,10.74a8.21,8.21,0,0,1-3,5.51,30.45,30.45,0,0,0-4.08,4.26c-5.58,6.64-10.34,14-17.63,19.52,2.1-.12,3.49-1.22,5.1-1.62h.46l-.2.44a50.86,50.86,0,0,0-3.74,13.12,48.67,48.67,0,0,1-1.61,6.85c-1.12,3.5-1.1,3.51-4.22,1.66-6.77-4-12.75-8.67-13.87-17.45-.76,2.14-.43,5.42.67,8.38,2,5.29,5.93,8.93,10.18,12.31a92.87,92.87,0,0,0,14.08,8.66,61.79,61.79,0,0,1,21.54,18.68c.68,1,.83,1.44-.29,2.18-2.86,1.89-5.61,4-8.42,5.91a41.42,41.42,0,0,1-12.4,6.14,4.9,4.9,0,0,0-2.35,1.09,17.27,17.27,0,0,0,6.87,0,42.13,42.13,0,0,0,15-6.31c12.46-7.92,24.27-16.72,34.63-27.32,4.8-4.9,9.32-10.08,14.45-14.65,8.36-7.45,16.9-14.65,27.42-19a3,3,0,0,1,2.14-.26c-1.5,2.15-3.06,4.22-4.43,6.41-1.55,2.48-3,5-2.35,8.18a5.23,5.23,0,0,0,3.12-2.54,60.28,60.28,0,0,1,8.81-10.94c3.2-2.94,5.52-3.14,9.25-.84,3.17,1.95,5.15,5,7.26,7.95.35.5.12.94-.07,1.42a17.15,17.15,0,0,1-2.21,4.19c-2.86,3.78-5.85,7.47-8.44,11.5,1.06.3,1.67-.76,2.59-.87.29,0,.68-.35.83-.05a.49.49,0,0,1,0,.24,1,1,0,0,1-.49.65,17,17,0,0,1-2,3.29c-.36.48-.73.95-1.12,1.42a1.15,1.15,0,0,1-.06.37A97.27,97.27,0,0,1,258,242.88c-.36.32-.65.53-1.08.06-1.8-2-3.87-3.64-5.41-5.87-4-5.76-8.13-11.44-14.51-14.91-.34.74.11,1.38.42,2.06.64,1.39,2.2,2,2.9,3.23,2.37,4.32,5.94,7.75,8.6,11.85a8.16,8.16,0,0,0,7.25,4.15c.23,0,.51.05.56.59a86.92,86.92,0,0,0-13.85,15.69A136.21,136.21,0,0,1,229,276.93a74.27,74.27,0,0,0-16.64,26.8c-5.43,15.07-14.76,27.39-27,37.63-9.65,8.1-20.05,15.18-30.25,22.52-8.3,6-16.72,11.78-24.27,18.72-9.17,8.41-16.09,18.61-23.12,28.74a110.41,110.41,0,0,0-6.18,9.79,61.69,61.69,0,0,0-3,6.31c-.46,1.13-.88,2.27-1.27,3.43-.09.3-.2.59-.3.89h0a3.83,3.83,0,0,1-.28,1.29c-.13.37-.28.74-.38,1.13a2.6,2.6,0,0,0,0,1.56c.93-.36,1.3-1.13,1.81-1.77a254.49,254.49,0,0,0,17-24.36c12.37-19.7,30.31-33.27,49.27-45.81.22-.18.45-.35.68-.52h0c5.28-3.9,10.59-7.76,15.83-11.72,3.22-2.44,6.33-5,9.49-7.54h0a.77.77,0,0,1,.58-.56h0l.56-.48h0a5.37,5.37,0,0,1,.5-.57,91.91,91.91,0,0,0,25.45-37.64,67.44,67.44,0,0,1,15.15-24.18,128.59,128.59,0,0,0,13.65-16.87,91,91,0,0,1,15.41-17.32,84.31,84.31,0,0,0,11-11.59c5.49-7.09,10.9-14.29,13.08-23.21a23.2,23.2,0,0,1,3.95-8.82A8.13,8.13,0,0,0,291.48,197ZM202.89,29.22l.37.42-7.7,6.57-.44-.53A44.16,44.16,0,0,1,202.89,29.22Zm-95.11.16a35.26,35.26,0,0,1-.12,18.82C107.28,41.92,106,35.64,107.78,29.38ZM81,117a142.89,142.89,0,0,0-5.66-17.93C79.28,101.2,82.88,112.26,81,117Zm17.79,65.2c-1.27,3.58-2.57,7.14-3.88,10.83-.48-2.81-1-5.62-1.42-8.44-1-7.1-2.86-14.05-4.13-21.1q-3.78-21.08-7.48-42.16c-.09-.55-.3-1.09.29-1.56,3.36-2.66,3.46-6.35,2.89-10.08A21,21,0,0,0,75.56,95c3.82-.07,6.62,1.5,9.17,3.56A42.22,42.22,0,0,1,96,113.21a5.2,5.2,0,0,1,.37,2.78c-.58,8.29-1.38,16.58-1,24.92C95.71,148,97,155,97.87,162.09A174.57,174.57,0,0,1,99,179.94,6.38,6.38,0,0,1,98.79,182.2Zm1.74-52.86c0-1.39.58-1.86,2-1.84,3.33,0,6.62-.11,9-3.15a6.36,6.36,0,0,0-3.17-.41c-2.16,0-4.31.1-6.46.22-.69,0-1-.22-.87-.84s-.49-1.9,1-2.06,2.89-.4,4.33-.62c.44-.06.93-.16.91-.75s-.4-.66-.76-.76a7.75,7.75,0,0,0-3.71-.65c-1.27.26-1.42-.23-1.37-1.41.52-11.52,2.46-22.84,4.54-34.14a121.82,121.82,0,0,0,2-26.75,4.37,4.37,0,0,1,.81-2.8,22.81,22.81,0,0,0,3.45-14.73c-.3-3.85-.68-7.7-2.24-11.4a6.14,6.14,0,0,1,4.6.95c5.79,3.24,9.36,8.28,11.42,14.44a61.88,61.88,0,0,1,2.78,21.62c-.24,8.06-.84,16.12.27,24.17.4,2.89.63,5.8,1,8.7a2.56,2.56,0,0,1-.3,2c-5.31,7.67-7.93,16.39-9.82,25.39-3.52,16.75-10,32.45-17,48-.09.2-.1.53-.73.49v-8.43c-.15-8-1.48-15.94-1.67-24C100.35,136.84,100.53,133.09,100.53,129.34Zm57.45-.47c-.55,3.44-1.3,6.85-2,10.27-.17.89-.94,1.33-1.52,1.9-9.91,9.68-20.36,18.76-30.94,27.69-7,5.94-14.06,11.88-20.53,18.45-.25.26-.46.64-1,.46-.37-.81.26-1.37.55-2,6.76-15.17,13.88-30.2,18.71-46.16,2.26-7.47,3.63-15.16,5.78-22.66v-.19c1-3.19,1-3.15,4.17-3.33a15.77,15.77,0,0,0,8.82-3.06h-5.39c-1.15,0-2.29,0-3.43-.1-.53,0-1.55.29-1.42-.69.08-.68.2-1.77,1.31-1.82,1.58-.07,2.63-.16.94-1.93-.64-.67.44-1.42.76-2.12a1.18,1.18,0,0,1,1.45-.83h0c.91.24,1.84.41,2.88.64a1.61,1.61,0,0,0-1.1-1.82c-1.41-.58-1.18-1.25-.36-2.22,5.52-6.56,11.14-13,16.48-19.74a179.28,179.28,0,0,1,20.45-21.78c5.67-5.09,11-10.58,16.31-16a4,4,0,0,1,2.75-1.35,12.82,12.82,0,0,0,4.2-1.12,25,25,0,0,0,11.23-9.82c1.29,1.11,1.61,2.77,1.84,4.41.7,5.07-.56,9.84-2.48,14.46A59.62,59.62,0,0,1,197,64.08a187.25,187.25,0,0,0-16.07,22.19,90.15,90.15,0,0,1-9.77,13.37c-7.58,8.36-11.45,18.28-13.16,29.23Zm86.49,65.84c-8.95,6.79-16.8,14.73-24.42,22.93s-16.22,14.62-25,21.07c-.46.34-1,1.23-1.54-.07-2.75-7.33-8.51-12-14.55-16.44a104.57,104.57,0,0,0-13.29-7.8c-1-.54-1.38-.89-.6-2.08,2.12-3.27,2.52-7.13,3.28-10.85.57-2.8,1.05-5.62,1.68-8.4,1.35-5.85,3.65-11.06,8.33-15.23a86.44,86.44,0,0,0,10.37-11.67,3.57,3.57,0,0,1,2.73-1.45c3-.24,5.65.78,8.35,1.66,5,1.64,9.94,3.45,14.93,5.12a28,28,0,0,1,10.49,6.4c6.27,6,12.91,11.46,21.05,14.81.09,0,.13.19.21.33a6.64,6.64,0,0,1-2,1.67Zm11.35-10.39a28.3,28.3,0,0,1-5.24-12.68c2.74,4.62,6,8.88,9.12,13.21-2.35,1.6-2.35,1.59-3.88-.53Z" transform="translate(-0.04 0)" style="fill:#6a374f;stroke:#6a374f;stroke-miterlimit:10"/><path d="M165.11,363.29h0l.08.09-.07-.09Z" transform="translate(-0.04 0)" style="fill:#6a374f"/><polygon points="165.07 363.29 165.08 363.29 165.07 363.28 165.07 363.28 165.07 363.29" style="fill:#6a374f"/><polygon points="165.07 363.28 165.08 363.29 165.08 363.29 165.07 363.28 165.07 363.28" style="fill:#6a374f"/><path d="M191.43,343.36a.34.34,0,0,1-.16.1A.34.34,0,0,0,191.43,343.36Z" transform="translate(-0.04 0)" style="fill:#6a374f"/><path d="M191.53,343.19a1.74,1.74,0,0,0,.05-.22h0A1.74,1.74,0,0,1,191.53,343.19Z" transform="translate(-0.04 0)" style="fill:#6a374f"/><path d="M191,343.45h0a.49.49,0,0,0,.24,0,.34.34,0,0,0,.16-.1.42.42,0,0,0,.1-.17,1.74,1.74,0,0,0,.05-.22Z" transform="translate(-0.04 0)" style="fill:#6a374f"/><polygon points="190.98 343.45 190.98 343.46 190.99 343.46 190.98 343.45 190.98 343.45" style="fill:#6a374f"/><polygon points="190.99 343.46 190.99 343.46 190.98 343.45 190.98 343.45 190.99 343.46" style="fill:#6a374f"/><path d="M190.88,343.89a.41.41,0,0,0,.14-.43h0A.41.41,0,0,1,190.88,343.89Z" transform="translate(-0.04 0)" style="fill:#6a374f"/><polygon points="190.98 343.45 190.98 343.45 190.98 343.45 190.98 343.45 190.98 343.45 190.98 343.45" style="fill:#6a374f"/><path d="M191,343.46h0a.77.77,0,0,0-.58.56.86.86,0,0,0,.44-.12.41.41,0,0,0,.14-.43Z" transform="translate(-0.04 0)" style="fill:#6a374f"/><polygon points="190.98 343.46 190.98 343.46 190.98 343.46 190.98 343.46" style="fill:#6a374f"/><polygon points="190.98 343.46 190.98 343.46 190.98 343.46 190.98 343.46" style="fill:#6a374f"/><polygon points="190.98 343.46 190.98 343.46 190.98 343.46 190.98 343.46 190.98 343.46" style="fill:#6a374f"/><polygon points="190.98 343.46 190.98 343.45 190.98 343.45 190.98 343.46 190.98 343.46" style="fill:#6a374f"/><path d="M164.91,363.72a.45.45,0,0,0,.2-.43h0A.45.45,0,0,1,164.91,363.72Z" transform="translate(-0.04 0)" style="fill:#6a374f"/><polygon points="165.07 363.28 165.07 363.28 165.07 363.28 165.07 363.28 165.07 363.28 165.07 363.28" style="fill:#6a374f"/><path d="M165.1,363.29h0c-.23.17-.46.34-.68.52a1,1,0,0,0,.48-.08.45.45,0,0,0,.2-.43Z" transform="translate(-0.04 0)" style="fill:#6a374f"/><polygon points="165.07 363.29 165.07 363.29 165.06 363.29 165.07 363.29" style="fill:#6a374f"/><polygon points="165.07 363.29 165.07 363.29 165.07 363.29 165.07 363.29 165.07 363.29" style="fill:#6a374f"/><polygon points="165.07 363.28 165.07 363.28 165.07 363.29 165.07 363.28 165.07 363.28" style="fill:#6a374f"/><polygon points="165.06 363.29 165.07 363.29 165.07 363.28 165.06 363.29" style="fill:#6a374f"/><path d="M263.93,211.84a14.67,14.67,0,0,0,4.93,3.09,19.55,19.55,0,0,0,3,.81,27.38,27.38,0,0,0,3,.41c1.1.09,2.21.14,3.34.16l2.67-2.84h0a1,1,0,0,0,.49-.65.49.49,0,0,0,0-.24c-.15-.3-.54,0-.83,0-.92.11-1.53,1.17-2.59.87,2.59-4,5.58-7.72,8.44-11.5a17.15,17.15,0,0,0,2.21-4.19c.19-.48.42-.92.07-1.42-2.11-2.94-4.09-6-7.26-7.95-3.73-2.3-6-2.1-9.25.84a60.28,60.28,0,0,0-8.81,10.94,5.23,5.23,0,0,1-3.12,2.54A4,4,0,0,0,259,205C260.58,207.29,261.81,209.83,263.93,211.84Z" transform="translate(-0.04 0)" style="fill:#6a374f"/><path d="M280.85,213.46h0a1,1,0,0,0,.49-.65A1,1,0,0,1,280.85,213.46Z" transform="translate(-0.04 0)" style="fill:#6a374f"/><path d="M278.18,216.31c-1.13,0-2.24-.07-3.34-.16a27.38,27.38,0,0,1-3-.41,19.55,19.55,0,0,1-3-.81,14.67,14.67,0,0,1-4.93-3.09c-2.12-2-3.35-4.55-5-6.87-.32-.17-.72-.55-1-.47-.52.19-.28.72-.23,1.15a15.49,15.49,0,0,0,5.09,10c4.23,3.79,10.82,4.1,14.52,2.12C277.61,217.28,278.6,217.16,278.18,216.31Z" transform="translate(-0.04 0)" style="fill:#6a374f;stroke:#6a374f;stroke-miterlimit:10"/><path d="M254.86,235.62c.69.51,1.64,1.33,2.28.76s-.27-1.46-.67-2.13c-1.55-2.59-4.55-3.82-6.11-6.42-.08-.13-.3-.18-.6-.34a2,2,0,0,0-.06,1.95A14.25,14.25,0,0,0,254.86,235.62Z" transform="translate(-0.04 0)" style="fill:#6a374f;stroke:#6a374f;stroke-miterlimit:10"/><polygon points="280.81 213.47 280.81 213.46 280.81 213.47 280.81 213.47" style="fill:#6a374f"/><path d="M180.93,86.27A187.25,187.25,0,0,1,197,64.08a59.84,59.84,0,0,0,9.59-15.71c1.92-4.62,3.18-9.39,2.48-14.46-.23-1.64-.55-3.3-1.84-4.41A25,25,0,0,1,196,39.32a12.82,12.82,0,0,1-4.2,1.12,4,4,0,0,0-2.75,1.35c-5.33,5.45-10.64,10.94-16.31,16A178.76,178.76,0,0,0,152.29,79.6c-5.34,6.7-11,13.18-16.48,19.74-.82,1-1,1.64.36,2.22a1.61,1.61,0,0,1,1.1,1.82c-1-.23-2-.4-2.88-.64a1.19,1.19,0,0,0-1.48.78v0c-.32.7-1.4,1.45-.76,2.12,1.69,1.77.64,1.86-.94,1.93-1.11,0-1.23,1.14-1.31,1.82-.13,1,.89.64,1.42.69,1.14.1,2.28.09,3.43.1h5.39a15.77,15.77,0,0,1-8.82,3.06c-3.22.18-3.22.14-4.17,3.33v.19c-2.15,7.5-3.52,15.19-5.78,22.66-4.83,16-12,31-18.71,46.16-.29.65-.92,1.21-.55,2,.52.18.73-.2,1-.46,6.47-6.57,13.5-12.51,20.53-18.45,10.58-8.93,21-18,30.94-27.69.58-.57,1.35-1,1.52-1.9.66-3.42,1.41-6.83,2-10.27,1.73-11,5.6-20.88,13.18-29.23A89.27,89.27,0,0,0,180.93,86.27Z" transform="translate(-0.04 0)" style="fill:#6a374f"/><path d="M102.12,173c.63,0,.64-.29.73-.49,7-15.51,13.48-31.21,17-48,1.89-9,4.51-17.72,9.82-25.39a2.56,2.56,0,0,0,.3-2c-.36-2.9-.59-5.81-1-8.7-1.11-8-.51-16.11-.27-24.17a61.88,61.88,0,0,0-2.78-21.62c-2.06-6.16-5.63-11.2-11.42-14.44a6.14,6.14,0,0,0-4.6-1c1.56,3.7,1.94,7.55,2.24,11.4a22.81,22.81,0,0,1-3.45,14.73,4.37,4.37,0,0,0-.81,2.8,121.82,121.82,0,0,1-2,26.75c-2.08,11.3-4,22.62-4.54,34.14,0,1.18.1,1.67,1.37,1.41a7.75,7.75,0,0,1,3.71.65c.36.1.74.31.76.76s-.47.69-.91.75c-1.44.22-2.88.47-4.33.62s-.8,1.34-1,2.06.18.87.87.84c2.15-.12,4.3-.17,6.46-.22a6.36,6.36,0,0,1,3.17.41c-2.39,3-5.68,3.2-9,3.15-1.37,0-2,.45-2,1.84,0,3.75-.18,7.5-.09,11.24.19,8,1.52,15.94,1.67,24C102.17,167.34,102.12,170.16,102.12,173Z" transform="translate(-0.04 0)" style="fill:#6a374f"/><path d="M95.43,140.91c-.4-8.34.4-16.63,1-24.92a5.2,5.2,0,0,0-.37-2.78A42.13,42.13,0,0,0,84.73,98.54c-2.55-2.06-5.35-3.63-9.17-3.56a21,21,0,0,1,9.5,14.71c.57,3.73.47,7.42-2.89,10.08-.59.47-.38,1-.29,1.56q3.74,21.08,7.48,42.16c1.27,7,3.09,14,4.13,21.1.41,2.82.94,5.63,1.42,8.44,1.31-3.69,2.61-7.25,3.88-10.83a6.42,6.42,0,0,0,.29-2.26,174.57,174.57,0,0,0-1.15-17.85C97.07,155,95.77,148,95.43,140.91Z" transform="translate(-0.04 0)" style="fill:#6a374f"/><path d="M255.82,184.32c1.53,2.12,1.53,2.13,3.88.53-3.14-4.33-6.38-8.59-9.12-13.21A28.3,28.3,0,0,0,255.82,184.32Z" transform="translate(-0.04 0)" style="fill:#6a374f"/><path d="M75.34,99.05A142.66,142.66,0,0,1,81,117C82.88,112.26,79.28,101.2,75.34,99.05Z" transform="translate(-0.04 0)" style="fill:#6a374f"/><path d="M107.78,29.38c-1.74,6.26-.5,12.54-.12,18.82A35.26,35.26,0,0,0,107.78,29.38Z" transform="translate(-0.04 0)" style="fill:#6a374f"/><path d="M203.26,29.64l-.37-.42a44.16,44.16,0,0,0-7.77,6.46l.44.53Z" transform="translate(-0.04 0)" style="fill:#6a374f"/><path d="M167.05,187.68h-.46l.26.39Z" transform="translate(-0.04 0)" style="fill:#6a374f"/></g><g id="Layer_1-2" data-name="Layer 1-2"><path d="M283.48,189c-.5-4.81-3-8.56-6.69-11.52a10.16,10.16,0,0,0-9.5-2c-.54.15-1,.42-1.64.12-3.09-1.54-6.27-1.28-9.45-.32a1.36,1.36,0,0,1-1.73-.59,87.89,87.89,0,0,1-10.31-16.41c-1-2.24-2.23-4.42-3.38-6.61a38.49,38.49,0,0,0-19.08-17.89c-1.62-.72-3.21-1.54-4.87-2.16a43.49,43.49,0,0,1-17.27-11.83c-9.6-10.58-21.93-10.27-32.08-4.76-4.23,2.3-7.77,5.48-11.31,8.67-.48.43-.8,1.17-1.79,1.09.34-1.65.72-3.24,1-4.85A48.27,48.27,0,0,1,166.94,95.1a109,109,0,0,0,11.18-15.41A167.35,167.35,0,0,1,192.44,60a67.3,67.3,0,0,0,10.78-17.43c2.4-5.76,3.86-11.67,2.87-18-1.34-8.52-7.72-11.49-15-7a31.53,31.53,0,0,0-5.33,4.31c-10.11,9.93-19.84,20.12-30.3,29.63a103.56,103.56,0,0,0-11.65,12.58c-5.26,6.61-10.71,13.07-16.28,19.42-.31.35-.5.9-1.22.91-.17-2.14-.31-4.26-.51-6.38-.42-4.62-1-9.23-.51-13.88a79,79,0,0,0,.34-16.55c-.67-7.12-1.83-14.12-5.41-20.45-3.17-5.61-7.38-10.21-13.64-12.43-6.1-2.17-10.92.59-12.32,6.91-1.08,4.92-.48,9.87-.14,14.8.69,10,1.07,19.92-.1,29.88-.89,7.57-2.59,15-3.71,22.53-.4,2.66-.73,5.33-1.1,8.1a3.94,3.94,0,0,1-1.37-1.63,33.32,33.32,0,0,0-10.11-9.95A17.45,17.45,0,0,0,68,82.47c-4.38.09-6.7,3.11-5.84,7.4a15.14,15.14,0,0,0,.35,1.48c1.44,4.8,2.95,9.58,4.33,14.39,2.53,8.81,3.5,17.92,5.17,26.9,3.36,18.1,8.15,35.87,12.11,53.83.62,2.84,1.67,5.67,1.29,8.59-1.22,9.31-2.57,18.61-3.9,27.91-1.8,12.7-3.51,25.41-4,38.24-.51,12-1.62,23.92-4.88,35.57-2.91,10.4-6.81,20.16-14.23,28.28-12.85,14.08-25.48,28.35-36.79,43.74-2.31,3.16-5,6-7.57,9a12.35,12.35,0,0,0,3.6-2.43l.95-.82,1-.83c.06.14.15.28.22.42a.91.91,0,0,1,.14.42c.32,3,1.55,4,4.52,4.16,3.42.16,6.51-1.12,9.5-2.35,4.92-2,10-3.65,15-5.49a1.3,1.3,0,0,1,1.27,0c0,.9-.76,1.42-1.14,2.14-.7,1.35-1.83,2.87-1.14,4.24a31.2,31.2,0,0,0,3.85,5.07,1,1,0,0,0,.72.17,28.16,28.16,0,0,0,4-.23,86.93,86.93,0,0,0,13.39-4.09c2.21-.79,5.11-.06,5.7,1.64A6.56,6.56,0,0,1,75.2,386c-2.77,4.29-6,8.28-8.15,13a15.52,15.52,0,0,0-1.64,7.3,5.3,5.3,0,0,0,4,5.31,10,10,0,0,0,5.43,0c2.26-.62,4.5-1.28,6.77-1.85,1.49-.38,2.35.33,2,1.77a23.47,23.47,0,0,0-.26,5.49c-.06,3.3,1.13,4.83,4.33,5.82a3.13,3.13,0,0,0,.44.1l.34.07a.77.77,0,0,1,.63.79,2.47,2.47,0,0,1-.08.6,6,6,0,0,1-.2.69c-.13.37-.28.74-.38,1.13a2.59,2.59,0,0,0,0,1.56c.93-.36,1.3-1.13,1.81-1.77a253.24,253.24,0,0,0,17-24.36c12.37-19.7,30.31-33.27,49.27-45.81a1,1,0,0,0,.48-.08.29.29,0,0,0,.14-.15.55.55,0,0,0,.06-.28l.08.09-.07-.09c.69.24,1.22-.19,1.75-.48,8.45-4.59,16.35-9.89,22.81-17.12a2.1,2.1,0,0,0,.75-1.67h0a.86.86,0,0,0,.44-.12.41.41,0,0,0,.14-.43l.1.09-.09-.09a.49.49,0,0,0,.24,0,.34.34,0,0,0,.16-.1.42.42,0,0,0,.1-.17,1.74,1.74,0,0,0,.05-.22,5.37,5.37,0,0,1,.5-.57A91.91,91.91,0,0,0,209.6,296.8a67.44,67.44,0,0,1,15.15-24.18,128.59,128.59,0,0,0,13.65-16.87,91,91,0,0,1,15.41-17.32,83.74,83.74,0,0,0,11-11.59c5.49-7.09,10.9-14.29,13.08-23.21a23.2,23.2,0,0,1,3.95-8.82A8.12,8.12,0,0,0,283.48,189ZM170.92,214.2a104.57,104.57,0,0,0-13.29-7.8c-1-.54-1.38-.89-.6-2.08,2.12-3.27,2.52-7.13,3.28-10.85.57-2.8,1.05-5.62,1.68-8.4,1.35-5.85,3.65-11.06,8.33-15.23a86.44,86.44,0,0,0,10.37-11.67,3.57,3.57,0,0,1,2.73-1.45c3-.24,5.65.78,8.35,1.66,5,1.64,9.94,3.45,14.93,5.12a28,28,0,0,1,10.49,6.4c6.27,6,12.91,11.46,21.05,14.81.09,0,.13.19.21.33a6.71,6.71,0,0,1-2,1.67c-8.95,6.79-16.8,14.73-24.42,22.93s-16.22,14.62-25,21.07c-.46.34-1,1.23-1.54-.07C182.72,223.31,177,218.62,170.92,214.2Z" transform="translate(-0.04 0)" style="fill:#fff;stroke:#fff;stroke-linecap:round;stroke-linejoin:round;stroke-width:28px"/><polygon points="182.98 335.45 182.98 335.45 182.98 335.45 182.98 335.45 182.98 335.45" style="fill:#fff"/><path d="M183,335.46a.49.49,0,0,0,.24,0A.49.49,0,0,1,183,335.46Z" transform="translate(-0.04 0)" style="fill:#fff"/><path d="M263.83,207.74a27.38,27.38,0,0,0,3,.41A27.38,27.38,0,0,1,263.83,207.74Z" transform="translate(-0.04 0)" style="fill:#fff"/><polygon points="157.07 355.28 157.07 355.28 157.07 355.28 157.07 355.28 157.07 355.28" style="fill:#fff"/><path d="M270.85,208.75c-.36.48-.73.95-1.12,1.42C270.12,209.7,270.49,209.23,270.85,208.75Z" transform="translate(-0.04 0)" style="fill:#fff"/><path d="M273.3,204.57a.49.49,0,0,1,0,.24A.49.49,0,0,0,273.3,204.57Z" transform="translate(-0.04 0)" style="fill:#fff"/><path d="M90,423.76c.1-.3.21-.59.3-.89.39-1.16.81-2.3,1.27-3.43a61.69,61.69,0,0,1,3-6.31,110.41,110.41,0,0,1,6.18-9.79c7-10.13,14-20.33,23.12-28.74,7.55-6.94,16-12.75,24.27-18.72,10.2-7.34,20.6-14.42,30.25-22.52,12.21-10.24,21.54-22.56,27-37.63A74.27,74.27,0,0,1,222,268.93a136.21,136.21,0,0,0,13.84-17.2A86.56,86.56,0,0,1,249.74,236c-.05-.54-.33-.59-.56-.59a8.16,8.16,0,0,1-7.25-4.15c-2.66-4.1-6.23-7.53-8.6-11.85-.7-1.26-2.26-1.84-2.9-3.23-.31-.68-.76-1.32-.41-2.06,6.37,3.47,10.5,9.15,14.5,14.91,1.54,2.23,3.61,3.91,5.41,5.87.43.47.72.26,1.08-.06a97.45,97.45,0,0,0,19.66-24.34,1.15,1.15,0,0,0,.06-.37l-.33-.37c-3.7,2-10.29,1.67-14.52-2.12a15.49,15.49,0,0,1-5.09-10c0-.43-.29-1,.23-1.15.24-.08.63.3,1,.47a3.92,3.92,0,0,1,1.19-2.22c-.67-3.14.79-5.7,2.34-8.18,1.37-2.19,2.93-4.26,4.43-6.41a3,3,0,0,0-2.14.26c-10.52,4.34-19.06,11.54-27.42,19-5.13,4.57-9.65,9.75-14.45,14.65-10.36,10.6-22.17,19.4-34.63,27.32a42.13,42.13,0,0,1-15,6.31,17.27,17.27,0,0,1-6.87,0,4.93,4.93,0,0,1,2.36-1.09,41.48,41.48,0,0,0,12.39-6.14c2.81-2,5.56-4,8.42-5.91,1.12-.74,1-1.22.29-2.18a61.79,61.79,0,0,0-21.54-18.68A90.89,90.89,0,0,1,147.27,205c-4.26-3.38-8.22-7-10.19-12.31-1.1-3-1.43-6.24-.67-8.38,1.12,8.78,7.1,13.44,13.87,17.45,3.12,1.85,3.1,1.84,4.22-1.66a48.67,48.67,0,0,0,1.61-6.85,50.86,50.86,0,0,1,3.74-13.12l-.26-.39c-1.61.4-3,1.5-5.1,1.62,7.29-5.53,12.06-12.88,17.63-19.52a31,31,0,0,1,4.08-4.26,8.11,8.11,0,0,0,3-5.51c.53-3.56,1.45-7.1.65-10.74a1.76,1.76,0,0,1,.37-1.51,51,51,0,0,0,3.5,9.59c1.11,2,2.54,3.19,4.94,3.07a18.14,18.14,0,0,1,6.86,1.41c4.08,1.41,8.13,2.91,12.24,4.19A36.91,36.91,0,0,1,222,166.34,103.64,103.64,0,0,0,233.46,176a69.76,69.76,0,0,0,10.09,5.3,1.74,1.74,0,0,0,2.22-.55c.63-.77-.42-1-.74-1.42a26.94,26.94,0,0,1-6-16.51,4.92,4.92,0,0,1,1.19-3.71c.55-.54.31-1,.06-1.52-4.71-10.39-11.77-18.21-22.94-22a44.54,44.54,0,0,1-18.93-12.39c-3.4-3.72-7.26-6.78-12.41-7.66-7-1.18-13,1.07-18.43,5.35-5.75,4.55-10.65,10-15.89,15.08q-17.31,16.8-36.14,31.88c-4.26,3.41-8.27,7.14-12.53,10.56-6.87,5.5-10.48,12.77-11.86,21.27-3.2,19.8-6.24,39.62-7.52,59.66-.51,8-.59,16.13-2,24.09-1.88,10.26-4.54,20.33-8.95,29.81-3.91,8.39-10.09,15.22-16.22,22C46.37,346.48,35.58,357,25.72,368.39c-1.62,1.86-3.42,3.57-5.13,5.34h0c.06.14.15.28.22.42a.91.91,0,0,1,.14.42c.32,3,1.55,4,4.52,4.16,3.42.16,6.51-1.12,9.5-2.35,4.92-2,10-3.65,15-5.49a1.32,1.32,0,0,1,1.28,0c0,.9-.77,1.42-1.15,2.14-.7,1.35-1.83,2.87-1.14,4.24a31.2,31.2,0,0,0,3.85,5.07,1,1,0,0,0,.72.17,28.16,28.16,0,0,0,4-.23,86.81,86.81,0,0,0,13.38-4.09c2.21-.79,5.11-.06,5.7,1.64a6.56,6.56,0,0,1-.42,6.17c-2.77,4.29-6,8.28-8.15,13a15.64,15.64,0,0,0-1.64,7.3,5.3,5.3,0,0,0,4,5.31,10,10,0,0,0,5.43,0c2.26-.62,4.5-1.28,6.77-1.85,1.49-.38,2.35.33,2,1.77a23.47,23.47,0,0,0-.26,5.49c-.06,3.3,1.13,4.83,4.33,5.82a3.63,3.63,0,0,0,.45.1C89.53,423,90,423.07,90,423.76ZM242.76,219.49c.3.16.52.21.6.34,1.56,2.6,4.56,3.83,6.11,6.42.4.67,1.29,1.59.67,2.13s-1.59-.25-2.28-.76a14.25,14.25,0,0,1-5.16-6.18A2.1,2.1,0,0,1,242.76,219.49Z" transform="translate(-0.04 0)" style="fill:#f4e2eb"/><polygon points="182.98 335.46 182.99 335.46 182.99 335.46 182.98 335.46 182.98 335.46" style="fill:#0d0b0b"/><path d="M157.19,355.38l-.07-.09h0Z" transform="translate(-0.04 0)" style="fill:#0d0b0b"/><polygon points="157.07 355.28 157.07 355.28 157.07 355.28 157.07 355.28" style="fill:#0d0b0b"/><polygon points="182.98 335.45 182.98 335.45 182.98 335.45 182.98 335.45" style="fill:#0d0b0b"/><path d="M183.12,335.55l-.09-.09h0Z" transform="translate(-0.04 0)" style="fill:#0d0b0b"/><path d="M183.58,335h0a5.37,5.37,0,0,1,.5-.57A5.37,5.37,0,0,0,183.58,335Z" transform="translate(-0.04 0)" style="fill:#0d0b0b"/><path d="M183,335.46h0l.1.09-.09-.09Z" transform="translate(-0.04 0)" style="fill:#0d0b0b"/><path d="M283.48,189c-.5-4.81-3-8.56-6.69-11.52a10.16,10.16,0,0,0-9.5-2c-.54.15-1,.42-1.64.12-3.09-1.54-6.27-1.28-9.45-.32a1.36,1.36,0,0,1-1.73-.59,87.89,87.89,0,0,1-10.31-16.41c-1-2.24-2.23-4.42-3.38-6.61a38.49,38.49,0,0,0-19.08-17.89c-1.62-.72-3.21-1.54-4.87-2.16a43.49,43.49,0,0,1-17.27-11.83c-9.6-10.58-21.93-10.27-32.08-4.76-4.23,2.3-7.77,5.48-11.31,8.67-.48.43-.8,1.17-1.79,1.09.34-1.65.72-3.24,1-4.85A48.27,48.27,0,0,1,166.94,95.1a109,109,0,0,0,11.18-15.41A167.35,167.35,0,0,1,192.44,60a67.3,67.3,0,0,0,10.78-17.43c2.4-5.76,3.86-11.67,2.87-18-1.34-8.52-7.72-11.49-15-7a31.53,31.53,0,0,0-5.33,4.31c-10.11,9.93-19.84,20.12-30.3,29.63a103.56,103.56,0,0,0-11.65,12.58c-5.26,6.61-10.71,13.07-16.28,19.42-.31.35-.5.9-1.22.91-.17-2.14-.31-4.26-.51-6.38-.42-4.62-1-9.23-.51-13.88a79,79,0,0,0,.34-16.55c-.67-7.12-1.83-14.12-5.41-20.45-3.17-5.61-7.38-10.21-13.64-12.43-6.1-2.17-10.92.59-12.32,6.91-1.08,4.92-.48,9.87-.14,14.8.69,10,1.07,19.92-.1,29.88-.89,7.57-2.59,15-3.71,22.53-.4,2.66-.73,5.33-1.1,8.1a3.94,3.94,0,0,1-1.37-1.63,33.32,33.32,0,0,0-10.11-9.95A17.45,17.45,0,0,0,68,82.47c-4.38.09-6.7,3.11-5.84,7.4a15.14,15.14,0,0,0,.35,1.48c1.44,4.8,2.95,9.58,4.33,14.39,2.53,8.81,3.5,17.92,5.17,26.9,3.36,18.1,8.15,35.87,12.11,53.83.62,2.84,1.67,5.67,1.29,8.59-1.22,9.31-2.57,18.61-3.9,27.91-1.8,12.7-3.51,25.41-4,38.24-.51,12-1.62,23.92-4.88,35.57-2.91,10.4-6.81,20.16-14.23,28.28-12.85,14.08-25.48,28.35-36.79,43.74-2.31,3.16-5,6-7.57,9a12.35,12.35,0,0,0,3.6-2.43l.95-.82,1-.83c1.71-1.77,3.51-3.48,5.13-5.34C34.57,357,45.36,346.47,55.46,335.3c6.13-6.78,12.31-13.61,16.22-22,4.41-9.48,7.07-19.55,8.95-29.81,1.45-8,1.53-16,2-24.09,1.28-20,4.32-39.86,7.52-59.66,1.38-8.5,5-15.77,11.86-21.27,4.26-3.42,8.26-7.15,12.53-10.56q18.83-15.09,36.14-31.88c5.32-5,10.18-10.52,15.93-15,5.41-4.28,11.45-6.53,18.43-5.35,5.15.88,9,3.94,12.41,7.66a44.54,44.54,0,0,0,18.93,12.39c11.17,3.75,18.23,11.57,22.94,22,.25.55.49,1-.06,1.52a4.88,4.88,0,0,0-1.19,3.71,26.94,26.94,0,0,0,6,16.51c.32.42,1.37.65.74,1.42a1.74,1.74,0,0,1-2.22.55,69.76,69.76,0,0,1-10.09-5.3,103,103,0,0,1-11.5-9.77,36.94,36.94,0,0,0-14.19-8.27c-4.12-1.28-8.16-2.78-12.24-4.19a18.14,18.14,0,0,0-6.86-1.41c-2.4.12-3.84-1-4.94-3.07a51,51,0,0,1-3.5-9.59,1.76,1.76,0,0,0-.37,1.51c.8,3.64-.12,7.18-.65,10.74a8.21,8.21,0,0,1-3,5.51,30.45,30.45,0,0,0-4.08,4.26c-5.58,6.64-10.34,14-17.63,19.52,2.1-.12,3.49-1.22,5.1-1.62h.46l-.2.44a50.86,50.86,0,0,0-3.74,13.12,48.67,48.67,0,0,1-1.61,6.85c-1.12,3.5-1.1,3.51-4.22,1.66-6.77-4-12.75-8.67-13.87-17.45-.76,2.14-.43,5.42.67,8.38,2,5.29,5.93,8.93,10.18,12.31a92.87,92.87,0,0,0,14.08,8.66,61.79,61.79,0,0,1,21.54,18.68c.68,1,.83,1.44-.29,2.18-2.86,1.89-5.61,4-8.42,5.91a41.42,41.42,0,0,1-12.4,6.14,4.9,4.9,0,0,0-2.35,1.09,17.27,17.27,0,0,0,6.87,0,42.13,42.13,0,0,0,15-6.31c12.46-7.92,24.27-16.72,34.63-27.32,4.8-4.9,9.32-10.08,14.45-14.65,8.36-7.45,16.9-14.65,27.42-19a3,3,0,0,1,2.14-.26c-1.5,2.15-3.06,4.22-4.43,6.41-1.55,2.48-3,5-2.35,8.18a5.23,5.23,0,0,0,3.12-2.54,60.28,60.28,0,0,1,8.81-10.94c3.2-2.94,5.52-3.14,9.25-.84,3.17,1.95,5.15,5,7.26,7.95.35.5.12.94-.07,1.42a17.15,17.15,0,0,1-2.21,4.19c-2.86,3.78-5.85,7.47-8.44,11.5,1.06.3,1.67-.76,2.59-.87.29,0,.68-.35.83-.05a.49.49,0,0,1,0,.24,1,1,0,0,1-.49.65,17,17,0,0,1-2,3.29c-.36.48-.73.95-1.12,1.42a1.15,1.15,0,0,1-.06.37A97.27,97.27,0,0,1,250,234.88c-.36.32-.65.53-1.08.06-1.8-2-3.87-3.64-5.41-5.87-4-5.76-8.13-11.44-14.51-14.91-.34.74.11,1.38.42,2.06.64,1.39,2.2,2,2.9,3.23,2.37,4.32,5.94,7.75,8.6,11.85a8.16,8.16,0,0,0,7.25,4.15c.23,0,.51.05.56.59a86.92,86.92,0,0,0-13.85,15.69A136.21,136.21,0,0,1,221,268.93a74.27,74.27,0,0,0-16.64,26.8c-5.43,15.07-14.76,27.39-27,37.63-9.65,8.1-20.05,15.18-30.25,22.52-8.3,6-16.72,11.78-24.27,18.72-9.17,8.41-16.09,18.61-23.12,28.74a110.41,110.41,0,0,0-6.18,9.79,61.69,61.69,0,0,0-3,6.31c-.46,1.13-.88,2.27-1.27,3.43-.09.3-.2.59-.3.89h0a3.83,3.83,0,0,1-.28,1.29c-.13.37-.28.74-.38,1.13a2.6,2.6,0,0,0,0,1.56c.93-.36,1.3-1.13,1.81-1.77a254.49,254.49,0,0,0,17-24.36c12.37-19.7,30.31-33.27,49.27-45.81.22-.18.45-.35.68-.52h0c5.28-3.9,10.59-7.76,15.83-11.72,3.22-2.44,6.33-5,9.49-7.54h0a.77.77,0,0,1,.58-.56h0l.56-.48h0a5.37,5.37,0,0,1,.5-.57,91.91,91.91,0,0,0,25.45-37.64,67.44,67.44,0,0,1,15.15-24.18,128.59,128.59,0,0,0,13.65-16.87,91,91,0,0,1,15.41-17.32,84.31,84.31,0,0,0,11-11.59c5.49-7.09,10.9-14.29,13.08-23.21a23.2,23.2,0,0,1,3.95-8.82A8.13,8.13,0,0,0,283.48,189ZM194.89,21.22l.37.42-7.7,6.57-.44-.53A44.16,44.16,0,0,1,194.89,21.22Zm-95.11.16a35.26,35.26,0,0,1-.12,18.82C99.28,33.92,98,27.64,99.78,21.38ZM73,109a142.89,142.89,0,0,0-5.66-17.93C71.28,93.2,74.88,104.26,73,109Zm17.79,65.2c-1.27,3.58-2.57,7.14-3.88,10.83-.48-2.81-1-5.62-1.42-8.44-1-7.1-2.86-14.05-4.13-21.1q-3.78-21.08-7.48-42.16c-.09-.55-.3-1.09.29-1.56,3.36-2.66,3.46-6.35,2.89-10.08A21,21,0,0,0,67.56,87c3.82-.07,6.62,1.5,9.17,3.56A42.22,42.22,0,0,1,88,105.21a5.2,5.2,0,0,1,.37,2.78c-.58,8.29-1.38,16.58-1,24.92C87.71,140,89,147,89.87,154.09A174.57,174.57,0,0,1,91,171.94,6.38,6.38,0,0,1,90.79,174.2Zm1.74-52.86c0-1.39.58-1.86,2-1.84,3.33,0,6.62-.11,9-3.15a6.36,6.36,0,0,0-3.17-.41c-2.16,0-4.31.1-6.46.22-.69,0-1-.22-.87-.84s-.49-1.9,1-2.06,2.89-.4,4.33-.62c.44-.06.93-.16.91-.75s-.4-.66-.76-.76a7.75,7.75,0,0,0-3.71-.65c-1.27.26-1.42-.23-1.37-1.41C94,97.55,95.89,86.23,98,74.93a121.82,121.82,0,0,0,2-26.75,4.37,4.37,0,0,1,.81-2.8,22.81,22.81,0,0,0,3.45-14.73c-.3-3.85-.68-7.7-2.24-11.4a6.14,6.14,0,0,1,4.6.95c5.79,3.24,9.36,8.28,11.42,14.44a61.88,61.88,0,0,1,2.78,21.62c-.24,8.06-.84,16.12.27,24.17.4,2.89.63,5.8,1,8.7a2.56,2.56,0,0,1-.3,2c-5.31,7.67-7.93,16.39-9.82,25.39-3.52,16.75-10,32.45-17,48-.09.2-.1.53-.73.49v-8.43c-.15-8-1.48-15.94-1.67-24C92.35,128.84,92.53,125.09,92.53,121.34Zm57.45-.47c-.55,3.44-1.3,6.85-2,10.27-.17.89-.94,1.33-1.52,1.9-9.91,9.68-20.36,18.76-30.94,27.69-7,5.94-14.06,11.88-20.53,18.45-.25.26-.46.64-1,.46-.37-.81.26-1.37.55-2,6.76-15.17,13.88-30.2,18.71-46.16,2.26-7.47,3.63-15.16,5.78-22.66v-.19c1-3.19,1-3.15,4.17-3.33a15.77,15.77,0,0,0,8.82-3.06h-5.39c-1.15,0-2.29,0-3.43-.1-.53,0-1.55.29-1.42-.69.08-.68.2-1.77,1.31-1.82,1.58-.07,2.63-.16.94-1.93-.64-.67.44-1.42.76-2.12a1.18,1.18,0,0,1,1.45-.83h0c.91.24,1.84.41,2.88.64a1.61,1.61,0,0,0-1.1-1.82c-1.41-.58-1.18-1.25-.36-2.22,5.52-6.56,11.14-13,16.48-19.74a179.28,179.28,0,0,1,20.45-21.78c5.67-5.09,11-10.58,16.31-16a4,4,0,0,1,2.75-1.35,12.82,12.82,0,0,0,4.2-1.12,25,25,0,0,0,11.23-9.82c1.29,1.11,1.61,2.77,1.84,4.41.7,5.07-.56,9.84-2.48,14.46A59.62,59.62,0,0,1,189,56.08a187.25,187.25,0,0,0-16.07,22.19,90.15,90.15,0,0,1-9.77,13.37c-7.58,8.36-11.45,18.28-13.16,29.23Zm86.49,65.84c-8.95,6.79-16.8,14.73-24.42,22.93s-16.22,14.62-25,21.07c-.46.34-1,1.23-1.54-.07-2.75-7.33-8.51-12-14.55-16.44a104.57,104.57,0,0,0-13.29-7.8c-1-.54-1.38-.89-.6-2.08,2.12-3.27,2.52-7.13,3.28-10.85.57-2.8,1.05-5.62,1.68-8.4,1.35-5.85,3.65-11.06,8.33-15.23a86.44,86.44,0,0,0,10.37-11.67,3.57,3.57,0,0,1,2.73-1.45c3-.24,5.65.78,8.35,1.66,5,1.64,9.94,3.45,14.93,5.12a28,28,0,0,1,10.49,6.4c6.27,6,12.91,11.46,21.05,14.81.09,0,.13.19.21.33a6.64,6.64,0,0,1-2,1.67Zm11.35-10.39a28.3,28.3,0,0,1-5.24-12.68c2.74,4.62,6,8.88,9.12,13.21-2.35,1.6-2.35,1.59-3.88-.53Z" transform="translate(-0.04 0)" style="fill:#474747;stroke:#474747;stroke-miterlimit:10"/><path d="M157.11,355.29h0l.08.09-.07-.09Z" transform="translate(-0.04 0)" style="fill:#0d0b0b"/><polygon points="157.07 355.29 157.08 355.29 157.07 355.28 157.07 355.28 157.07 355.29" style="fill:#f8e0e7"/><polygon points="157.07 355.28 157.08 355.29 157.08 355.29 157.07 355.28 157.07 355.28" style="fill:#f8e0e7"/><path d="M183.43,335.36a.34.34,0,0,1-.16.1A.34.34,0,0,0,183.43,335.36Z" transform="translate(-0.04 0)" style="fill:#f8e0e7"/><path d="M183.53,335.19a1.74,1.74,0,0,0,.05-.22h0A1.74,1.74,0,0,1,183.53,335.19Z" transform="translate(-0.04 0)" style="fill:#f8e0e7"/><path d="M183,335.45h0a.49.49,0,0,0,.24,0,.34.34,0,0,0,.16-.1.42.42,0,0,0,.1-.17,1.74,1.74,0,0,0,.05-.22Z" transform="translate(-0.04 0)" style="fill:#f8e0e7"/><polygon points="182.98 335.45 182.98 335.46 182.99 335.46 182.98 335.45 182.98 335.45" style="fill:#f8e0e7"/><polygon points="182.99 335.46 182.99 335.46 182.98 335.45 182.98 335.45 182.99 335.46" style="fill:#f8e0e7"/><path d="M182.88,335.89a.41.41,0,0,0,.14-.43h0A.41.41,0,0,1,182.88,335.89Z" transform="translate(-0.04 0)" style="fill:#f8e0e7"/><polygon points="182.98 335.45 182.98 335.45 182.98 335.45 182.98 335.45 182.98 335.45 182.98 335.45" style="fill:#f8e0e7"/><path d="M183,335.46h0a.77.77,0,0,0-.58.56.86.86,0,0,0,.44-.12.41.41,0,0,0,.14-.43Z" transform="translate(-0.04 0)" style="fill:#f8e0e7"/><polygon points="182.98 335.46 182.98 335.46 182.98 335.46 182.98 335.46" style="fill:#f8e0e7"/><polygon points="182.98 335.46 182.98 335.46 182.98 335.46 182.98 335.46" style="fill:#f8e0e7"/><polygon points="182.98 335.46 182.98 335.46 182.98 335.46 182.98 335.46 182.98 335.46" style="fill:#f8e0e7"/><polygon points="182.98 335.46 182.98 335.45 182.98 335.45 182.98 335.46 182.98 335.46" style="fill:#f8e0e7"/><path d="M156.91,355.72a.45.45,0,0,0,.2-.43h0A.45.45,0,0,1,156.91,355.72Z" transform="translate(-0.04 0)" style="fill:#f8e0e7"/><polygon points="157.07 355.28 157.07 355.28 157.07 355.28 157.07 355.28 157.07 355.28 157.07 355.28" style="fill:#f8e0e7"/><path d="M157.1,355.29h0c-.23.17-.46.34-.68.52a1,1,0,0,0,.48-.08.45.45,0,0,0,.2-.43Z" transform="translate(-0.04 0)" style="fill:#f8e0e7"/><polygon points="157.07 355.29 157.07 355.29 157.06 355.29 157.07 355.29" style="fill:#f8e0e7"/><polygon points="157.07 355.29 157.07 355.29 157.07 355.29 157.07 355.29 157.07 355.29" style="fill:#f8e0e7"/><polygon points="157.07 355.28 157.07 355.28 157.07 355.29 157.07 355.28 157.07 355.28" style="fill:#f8e0e7"/><polygon points="157.06 355.29 157.07 355.29 157.07 355.28 157.06 355.29" style="fill:#f8e0e7"/><path d="M255.93,203.84a14.67,14.67,0,0,0,4.93,3.09,19.55,19.55,0,0,0,3,.81,27.38,27.38,0,0,0,3,.41c1.1.09,2.21.14,3.34.16l2.67-2.84h0a1,1,0,0,0,.49-.65.49.49,0,0,0,0-.24c-.15-.3-.54,0-.83,0-.92.11-1.53,1.17-2.59.87,2.59-4,5.58-7.72,8.44-11.5a17.15,17.15,0,0,0,2.21-4.19c.19-.48.42-.92.07-1.42-2.11-2.94-4.09-6-7.26-7.95-3.73-2.3-6-2.1-9.25.84a60.28,60.28,0,0,0-8.81,10.94,5.23,5.23,0,0,1-3.12,2.54A4,4,0,0,0,251,197C252.58,199.29,253.81,201.83,255.93,203.84Z" transform="translate(-0.04 0)" style="fill:#ed40a9"/><path d="M272.85,205.46h0a1,1,0,0,0,.49-.65A1,1,0,0,1,272.85,205.46Z" transform="translate(-0.04 0)" style="fill:#ed40a9"/><path d="M270.18,208.31c-1.13,0-2.24-.07-3.34-.16a27.38,27.38,0,0,1-3-.41,19.55,19.55,0,0,1-3-.81,14.67,14.67,0,0,1-4.93-3.09c-2.12-2-3.35-4.55-5-6.87-.32-.17-.72-.55-.95-.47-.52.19-.28.72-.23,1.15a15.49,15.49,0,0,0,5.09,10c4.23,3.79,10.82,4.1,14.52,2.12C269.61,209.28,270.6,209.16,270.18,208.31Z" transform="translate(-0.04 0)" style="fill:#474747;stroke:#474747;stroke-miterlimit:10"/><path d="M246.86,227.62c.69.51,1.64,1.33,2.28.76s-.27-1.46-.67-2.13c-1.55-2.59-4.55-3.82-6.11-6.42-.08-.13-.3-.18-.6-.34a2,2,0,0,0-.06,1.95A14.25,14.25,0,0,0,246.86,227.62Z" transform="translate(-0.04 0)" style="fill:#474747;stroke:#474747;stroke-miterlimit:10"/><polygon points="272.81 205.47 272.81 205.46 272.81 205.47 272.81 205.47" style="fill:#f8e0e7"/><path d="M172.93,78.27A187.25,187.25,0,0,1,189,56.08a59.84,59.84,0,0,0,9.59-15.71c1.92-4.62,3.18-9.39,2.48-14.46-.23-1.64-.55-3.3-1.84-4.41A25,25,0,0,1,188,31.32a12.82,12.82,0,0,1-4.2,1.12,4,4,0,0,0-2.75,1.35c-5.33,5.45-10.64,10.94-16.31,16A178.76,178.76,0,0,0,144.29,71.6c-5.34,6.7-11,13.18-16.48,19.74-.82,1-1,1.64.36,2.22a1.61,1.61,0,0,1,1.1,1.82c-1-.23-2-.4-2.88-.64a1.19,1.19,0,0,0-1.48.78v0c-.32.7-1.4,1.45-.76,2.12,1.69,1.77.64,1.86-.94,1.93-1.11,0-1.23,1.14-1.31,1.82-.13,1,.89.64,1.42.69,1.14.1,2.28.09,3.43.1h5.39a15.77,15.77,0,0,1-8.82,3.06c-3.22.18-3.22.14-4.17,3.33v.19c-2.15,7.5-3.52,15.19-5.78,22.66-4.83,16-12,31-18.71,46.16-.29.65-.92,1.21-.55,2,.52.18.73-.2,1-.46,6.47-6.57,13.5-12.51,20.53-18.45,10.58-8.93,21-18,30.94-27.69.58-.57,1.35-1,1.52-1.9.66-3.42,1.41-6.83,2-10.27,1.73-11,5.6-20.88,13.18-29.23A89.27,89.27,0,0,0,172.93,78.27Z" transform="translate(-0.04 0)" style="fill:#f4e2eb"/><path d="M94.12,165c.63,0,.64-.29.73-.49,7-15.51,13.48-31.21,17-48,1.89-9,4.51-17.72,9.82-25.39a2.56,2.56,0,0,0,.3-2c-.36-2.9-.59-5.81-1-8.7-1.11-8-.51-16.11-.27-24.17a61.88,61.88,0,0,0-2.78-21.62c-2.06-6.16-5.63-11.2-11.42-14.44a6.14,6.14,0,0,0-4.6-1c1.56,3.7,1.94,7.55,2.24,11.4a22.81,22.81,0,0,1-3.45,14.73,4.37,4.37,0,0,0-.81,2.8,121.82,121.82,0,0,1-2,26.75c-2.08,11.3-4,22.62-4.54,34.14,0,1.18.1,1.67,1.37,1.41a7.75,7.75,0,0,1,3.71.65c.36.1.74.31.76.76s-.47.69-.91.75c-1.44.22-2.88.47-4.33.62s-.8,1.34-1,2.06.18.87.87.84c2.15-.12,4.3-.17,6.46-.22a6.36,6.36,0,0,1,3.17.41c-2.39,3-5.68,3.2-9,3.15-1.37,0-2,.45-2,1.84,0,3.75-.18,7.5-.09,11.24.19,8,1.52,15.94,1.67,24C94.17,159.34,94.12,162.16,94.12,165Z" transform="translate(-0.04 0)" style="fill:#f4e2eb"/><path d="M87.43,132.91c-.4-8.34.4-16.63,1-24.92a5.2,5.2,0,0,0-.37-2.78A42.13,42.13,0,0,0,76.73,90.54c-2.55-2.06-5.35-3.63-9.17-3.56a21,21,0,0,1,9.5,14.71c.57,3.73.47,7.42-2.89,10.08-.59.47-.38,1-.29,1.56q3.74,21.08,7.48,42.16c1.27,7,3.09,14,4.13,21.1.41,2.82.94,5.63,1.42,8.44,1.31-3.69,2.61-7.25,3.88-10.83a6.42,6.42,0,0,0,.29-2.26,174.57,174.57,0,0,0-1.15-17.85C89.07,147,87.77,140,87.43,132.91Z" transform="translate(-0.04 0)" style="fill:#f4e2eb"/><path d="M247.82,176.32c1.53,2.12,1.53,2.13,3.88.53-3.14-4.33-6.38-8.59-9.12-13.21A28.3,28.3,0,0,0,247.82,176.32Z" transform="translate(-0.04 0)" style="fill:#ed40a9"/><path d="M67.34,91.05A142.66,142.66,0,0,1,73,109C74.88,104.26,71.28,93.2,67.34,91.05Z" transform="translate(-0.04 0)" style="fill:#ed40a9"/><path d="M99.78,21.38c-1.74,6.26-.5,12.54-.12,18.82A35.26,35.26,0,0,0,99.78,21.38Z" transform="translate(-0.04 0)" style="fill:#ed40a9"/><path d="M195.26,21.64l-.37-.42a44.16,44.16,0,0,0-7.77,6.46l.44.53Z" transform="translate(-0.04 0)" style="fill:#ed40a9"/><path d="M159.05,179.68h-.46l.26.39Z" transform="translate(-0.04 0)" style="fill:#fdddee"/></g></g></svg>