<svg id="Layer_1" data-name="Layer 1" xmlns="http://www.w3.org/2000/svg" viewBox="0 0 538 473"><title>omg-yes</title><g id="Layer_2" data-name="Layer 2"><g style="opacity:0.12"><path d="M376.65,247.38c-11-9.93-25.92-14.15-40.4-9.91-10,2.94-17.34,14.21-14,24.6,3.29,10.18,13.85,17.12,24.6,14l.94-.28H348l.6.16.38.23c7.83,6.54,20.3,7.55,27.68-.49C383.66,268,385,254.85,376.65,247.38Z" transform="translate(-0.03 0.02)" style="fill:#6a374f"/><path d="M421.61,87.42c-.76-10.41-8.66-20.51-20-20-10.19.46-20.81,8.82-20,20,.11,1.55.19,3.09.15,4.65a12.7,12.7,0,0,1-.07,1.63c-.45,1.47-.69,3-1.17,4.47-.09.3-.2.58-.3.88a6.83,6.83,0,0,1-.38.77c-4.71,9.33-2.78,22.11,7.17,27.37,9.1,4.8,22.34,2.79,27.37-7.18S422.43,98.82,421.61,87.42Z" transform="translate(-0.03 0.02)" style="fill:#6a374f"/><path d="M428,183.64c-9.68-2.21-22.74,2.93-24.61,14q-6.33,37.46-12.65,74.89c-1.74,10.28,2.7,22,14,24.6,9.67,2.21,22.73-2.94,24.6-14q6.33-37.44,12.65-74.88C443.68,198,439.24,186.2,428,183.64Z" transform="translate(-0.03 0.02)" style="fill:#6a374f"/><path d="M322.31,219.48a31.91,31.91,0,0,1,2.73-2.19c.85-.75,2.12-1.44,1.6-2.81s-1.91-1.06-3.05-.86c-7.88,1.35-13-2.62-17.08-8.75a39.69,39.69,0,0,1-5.44-13.36c-.68-3.09-1.56-4.49-4.36-1.58-2.64,2.74-5.69,2.29-8.73.68a12.83,12.83,0,0,1-5.29-5.83c-1.06-2.08-2.24-2.78-4.75-1.44-6.36,3.39-10.11,2.61-15.29-2.33-.92-.88-1.48-2.72-3-2.34-1.81.47-1.31,2.47-1.46,3.85-1.49,13.43-1.55,27-3.9,39.67-.8,3.58.63,4.29,3.17,3.77,1.31-.27,2.59-.64,3.88-1,11.64-3,23.27-6,35.12-8.08,5.23-.91,11.09-1.5,14.6,2.81C315.6,225.24,318.64,223.48,322.31,219.48Z" transform="translate(-0.03 0.02)" style="fill:#6a374f;stroke:#6a374f;stroke-linecap:round;stroke-linejoin:round;stroke-width:28px"/><path d="M392.69,168.12a11.48,11.48,0,0,0,6.55-7.72c.34-1.21-.78-1.66-2.13-1.58-3,.77-6.3,1.48-9.48,2.45-1.73.52-1.76,1.95-.76,3.18C388.39,166.32,389.84,169.32,392.69,168.12Z" transform="translate(-0.03 0.02)" style="fill:#6a374f;stroke:#6a374f;stroke-linecap:round;stroke-linejoin:round;stroke-width:28px"/><path d="M347.47,205c2.11-.65,5.47-.08,6-2.57s-2.91-3.16-4.43-4.81A18.14,18.14,0,0,0,347.2,196c-.88-.72-1.7-1.92-2.93-1.52s-1,1.91-1.1,3c-.07.82,0,1.65,0,2.48C342.85,205.85,343.18,206.34,347.47,205Z" transform="translate(-0.03 0.02)" style="fill:#6a374f;stroke:#6a374f;stroke-linecap:round;stroke-linejoin:round;stroke-width:28px"/><path d="M174.05,122.53a36.87,36.87,0,0,0-13.47,10.15c-12.67,14.39-17,31.76-18,49.66.3,8.53.86,16.35,3.91,23.72,2.58,6.25,5.16,7.57,11.72,5.89,7.64-1.95,13.18-7,18-12.95,11.25-13.9,16.62-30.16,19.18-47.65,1.29-8.81-.89-16.54-5.4-23.82C186.05,121.22,180.91,119.69,174.05,122.53Z" transform="translate(-0.03 0.02)" style="fill:#6a374f;stroke:#6a374f;stroke-linecap:round;stroke-linejoin:round;stroke-width:28px"/><path d="M310.61,283.25c-.07-6.61-3-12.61-3.88-19.08-.32-2.5-2.47-1.49-4-.84-12.47,5.33-25.57,8.79-38.58,12.41-5,1.39-7.08,3.85-6.74,8.32-.62,4.25.78,5.66,4.74,4.81,9-1.93,18-3.76,27-5.37,6.3-1.12,12.6-1.44,18.45,2.16C310.35,287.35,310.63,285.39,310.61,283.25Z" transform="translate(-0.03 0.02)" style="fill:#6a374f;stroke:#6a374f;stroke-linecap:round;stroke-linejoin:round;stroke-width:28px"/><path d="M217.26,239.35c1.75.31,8.82-4.66,8.21-5.28-2.69-2.74-5.28-6.44-8.59-7.37-2-.56-3.91,4.19-4.95,7.29C213.17,236.38,214.34,238.85,217.26,239.35Z" transform="translate(-0.03 0.02)" style="fill:#6a374f;stroke:#6a374f;stroke-linecap:round;stroke-linejoin:round;stroke-width:28px"/><path d="M335.07,335.8c2,1.47,3.17.74,4.87-.3,6.22-3.86,10.13-3.14,14.69,2.67,2.36,3,4.37,6.32,6.73,9.35,7.17,9.19,15,9.73,23.4,1.72,4.05-3.86,4.36-6.87,1.09-11.45-4.4-6.17-10.46-10.23-17.29-13.24-13.59-6-28.36-9.07-41.22-16.84-2.09-1.27-3.33-.29-4.26,1.77-2.21,4.87-6.16,7.52-11.18,9.27-13.3,4.65-27,7.4-40.85,9.93-15.57,2.84-15.58,2.77-16,18v4c.1,11.39-2.89,11.69,10.71,8.81,14-3,28.09-6.34,42.64-4.58,2.77.34,3.47-.92,3.59-3.4a34,34,0,0,1,1.12-7.9C316.37,332.79,326.27,329.25,335.07,335.8Z" transform="translate(-0.03 0.02)" style="fill:#6a374f;stroke:#6a374f;stroke-linecap:round;stroke-linejoin:round;stroke-width:28px"/><path d="M456.29,350.34a12.08,12.08,0,0,1-2.52-3c-4.46-8.32-11.34-12.51-20.77-12.18-2.69.1-3.76-.89-4.53-3.42-2.81-9.25-7.28-17.83-11.58-26.43-2.89-5.78-8-9.79-13.67-12.9-9.66-5.25-20.1-8.1-30.82-10.17-7.88-1.52-15.81-2.93-23.18-6.26-9.2-4.15-12.7-11.53-10.26-21.27,2.71-10.76,14.28-14.61,22.77-7.52a64,64,0,0,1,9.93,11.25c3.23,4.37,7,8.08,12.22,10.06,9.13,3.49,18.41-2,19.58-11.78a13.15,13.15,0,0,1,2.16-6.53c3.43-4.78,4-10.09,2.87-15.77a36.23,36.23,0,0,0-11-19.83c-2.61-2.43-3.37-4.19,1.11-5.21,9.51-2.16,17-7.62,23.25-14.88,14.65-17,24.92-36.21,28.48-58.71,1.76-11.12,1.52-11.88-9.57-11.92-3.75,0-5.68-1-5.43-5.08s-1.82-5.55-5.82-5.64A262.82,262.82,0,0,0,382,116.28c-4.46.73-5.44-.16-4.33-4.75a97,97,0,0,1,12.6-30.4,43,43,0,0,1,10-11.13c4.89-3.68,6.53-3.19,8.5,2.7,1,2.85,1.65,5.78,2.45,8.68,2.92,10.63,7,14.19,17.9,15.48A6.4,6.4,0,0,1,433,99c3.44,3.28,7.18,3.16,11,.89a17.9,17.9,0,0,0,7.78-9.51c4.83-12.92,5-26.14,2.14-39.47C450.83,36.66,443.47,30.23,429.17,29c-1.68-.14-3.35-.17-4.83-1.1-13.71-8.7-27.82-6.75-41.85-1.2-16.63,6.6-28.95,18.33-38.37,33.27-1.81,2.87-3.17,4.88-5.68.26-3.18-5.87-6.38-6.65-12.33-3.31-2.59,1.45-3.53.08-4.95-1.43C316,50,310.76,49.11,304,52.61c-6.43,3.33-11.05,8.56-14.83,14.6a112.39,112.39,0,0,0-8.5,17c-.51,1.23-1,2.94-2.42,2.92-1.78,0-1.31-2-1.62-3.19-1.25-4.67-2.27-9.42-3.68-14-1-3.37-4.32-7.65-6.78-5.85C259.5,69,255.46,65,250.3,62c-3-1.73-6.52.2-9.31,2.23-3.6,2.61-6.06,6.19-8.14,10A71.47,71.47,0,0,0,227,89.69c-1,3.74-2.31,3.94-5,1.4a21,21,0,0,0-18-5.81c-2.53.32-4.53-.54-6.62-1.68-11.53-6.27-23.57-6.87-35.92-2.93A59.13,59.13,0,0,0,136,96.26c-32.58,34.74-43.57,75.06-29.34,121,5.09,16.43,15.66,29.61,33,34.45,9.87,2.75,19.88,5.69,30.2,6.67,4,.38,4.24,2,3,5.28-3,7.79-5.68,15.68-8.48,23.54-.4,1.11-.69,2.39-2,2.6-1.55.23-1.79-1.25-2.34-2.2a196.72,196.72,0,0,0-15.57-22.72c-2.78-3.55-5.56-7.15-9.45-9.61s-8.46-4.16-12.71-1.4c-3.33,2.17-5.73,1.93-9.06.16-6.75-3.58-13.94-4.52-20.15,1s-6,12.47-3.32,19.44c6,15.72,14.77,29.89,24.24,43.69,8.88,12.95,17.6,26,26.49,39a10.55,10.55,0,0,1,1.54,9c-2.89,11.84-6,23.64-8.5,35.56-2.63,12.42-5.21,24.93-3.17,37.75.93,5.79,3.07,11.39,8.9,13.64,4.77,1.84,10,2.07,14.67,4.93,2.63,1.62,5.78-.53,8.11-2.61a17.67,17.67,0,0,0,4.44-6.6c4.13-10,8.35-20,12.23-30.18,8.46-22.13,16.52-44.42,23.79-67,.4-1.23.42-3.27,1.94-3.11,2.17.23,1.19,2.41,1.15,3.7-.16,6.35-.5,12.69-.78,19h-.39c0,6-.08,12,0,18,.16,9.85,4,14.36,13.51,16.3,1.62.33,3.58,0,4.72,1.4,5.45,6.49,12.41,5.4,19.43,4.06,9.89-1.88,19.27-5.51,28.83-8.5,15.13-4.73,30.71-8.28,44.93-15.53,4.53-2.3,7.88-2.27,12.37.42,30.86,18.43,59.53,14.69,85.84-10.88,1.86-1.81,2.74-1.41,4.3.34,9.42,10.68,22.64,12.63,34.69,5.27S466.64,359.94,456.29,350.34Zm-260.93-199c-2.56,17.49-7.93,33.75-19.18,47.65-4.78,5.9-10.32,11-18,12.95-6.56,1.68-9.14.36-11.72-5.89-3.05-7.37-3.61-15.19-3.91-23.72,1-17.9,5.32-35.27,18-49.66A36.87,36.87,0,0,1,174,122.52c6.86-2.84,12-1.31,15.91,5,4.54,7.29,6.72,15,5.43,23.83Zm192.27,9.92c3.18-1,6.44-1.68,9.48-2.45,1.35-.08,2.47.37,2.13,1.58a11.48,11.48,0,0,1-6.55,7.72c-2.85,1.2-4.3-1.8-5.82-3.67-1-1.22-1-2.65.76-3.17Zm-44.45,36.19c.09-1.11-.26-2.58,1.1-3s2.05.8,2.93,1.52a18.14,18.14,0,0,1,1.84,1.66c1.52,1.65,5,2.3,4.43,4.81s-3.9,1.92-6,2.57c-4.29,1.34-4.62.85-4.31-5.06,0-.84-.06-1.67,0-2.49Zm-35.58,88.2c-5.85-3.6-12.15-3.28-18.45-2.16-9,1.61-18,3.44-27,5.37-4,.85-5.36-.56-4.74-4.81-.34-4.47,1.75-6.93,6.74-8.32,13-3.62,26.11-7.08,38.58-12.41,1.54-.65,3.69-1.66,4,.84.84,6.47,3.81,12.47,3.88,19.08,0,2.15-.26,4.11-3,2.42Zm3.51-66c-3.51-4.31-9.37-3.72-14.6-2.81C284.66,219,273,222,261.39,225c-1.29.34-2.57.71-3.88,1-2.54.52-4-.19-3.17-3.77,2.35-12.67,2.41-26.24,3.9-39.67.15-1.38-.35-3.38,1.46-3.85,1.47-.38,2,1.46,3,2.34,5.18,4.94,8.93,5.72,15.29,2.33,2.51-1.34,3.69-.64,4.75,1.44a12.83,12.83,0,0,0,5.29,5.83c3,1.61,6.09,2.06,8.73-.68,2.8-2.91,3.68-1.51,4.36,1.58a39.69,39.69,0,0,0,5.44,13.36c4,6.13,9.2,10.1,17.08,8.75,1.14-.2,2.51-.58,3.05.86s-.75,2.06-1.6,2.81a31.91,31.91,0,0,0-2.73,2.19c-3.72,4-6.76,5.72-11.25.19Zm2,123.94a34,34,0,0,0-1.12,7.9c-.12,2.48-.82,3.74-3.59,3.4-14.55-1.76-28.6,1.6-42.64,4.58-13.6,2.88-10.61,2.58-10.71-8.81v-4c.39-15.26.4-15.19,16-18,13.8-2.53,27.55-5.28,40.85-9.93,5-1.75,9-4.4,11.18-9.27.93-2.06,2.17-3,4.26-1.77,12.86,7.77,27.63,10.86,41.22,16.84,6.83,3,12.89,7.07,17.29,13.24,3.27,4.58,3,7.59-1.09,11.45-8.4,8-16.23,7.47-23.4-1.72-2.36-3-4.37-6.33-6.73-9.35-4.56-5.81-8.47-6.53-14.69-2.67-1.7,1-2.9,1.77-4.87.3-8.8-6.53-18.7-3-21.92,7.87ZM216.88,226.7c3.31.93,5.9,4.63,8.59,7.37.61.62-6.46,5.59-8.21,5.28-2.92-.5-4.09-3-5.33-5.36C213,230.89,214.91,226.14,216.88,226.7Z" transform="translate(-0.03 0.02)" style="fill:#6a374f;stroke:#6a374f;stroke-linecap:round;stroke-linejoin:round;stroke-width:28px"/><path d="M498.88,207.09a7.27,7.27,0,0,1-5.76-5.34c-2-6.18-6.6-9.88-12.89-11.44-13.45-3.34-26.16,2.38-32.34,14.76a63.67,63.67,0,0,0-4.45,11.13c-7.3,25.65-9.17,52.17-12.07,72.69-.72,22.1-.72,22.1,9.12,35,7.24,9.47,15.33,9.95,23.61,1.22a79,79,0,0,0,11.52-15.72c8.91-15.86,16.33-32.48,24.27-48.83,5-10.36,9.88-20.84,12.12-32.23C514.36,216.38,510.51,210.17,498.88,207.09Z" transform="translate(-0.03 0.02)" style="fill:#6a374f;stroke:#6a374f;stroke-linecap:round;stroke-linejoin:round;stroke-width:28px"/><path d="M105.05,96.45c1-.37,2.42-.92,2.12-2.39s-1.81-1.85-3-2.37C95,87.82,89.53,80.8,86.8,71.5c-1.08-3.68-1.72-7.48-2.54-11.24-1.08-5-2.15-9.95-3.37-15.63-2.57,2-2.25,3.78-2.5,5.37-1.13,7.1-2.34,14.18-3.31,21.3C73.63,82,69.21,90.39,58.64,94.57c-.88.35-2,.79-1.94,2S58,98,58.89,98.27c8.22,2.46,11.9,8.73,13.67,16.46,2.09,9.11,4,18.27,6,27.41.27,1.22.17,3.05,2,2.85,1.32-.14,1.31-1.73,1.56-2.84,1.46-6.69,2.63-13.45,4.42-20.05C89.47,111.3,93.05,100.8,105.05,96.45Z" transform="translate(-0.03 0.02)" style="fill:#6a374f;stroke:#6a374f;stroke-linecap:round;stroke-linejoin:round;stroke-width:28px"/><path d="M74.88,227.5c-7.59-2.16-12.19-7.35-14.48-14.64a197.36,197.36,0,0,1-6.29-25.22c-.35-2-.33-4.26-2.38-5.61-1.35,1.2-1.22,2.63-1.26,3.91-.18,5.87-1.36,11.6-2.42,17.34-2.3,12.53-7.79,22.39-21.67,24.94a10.43,10.43,0,0,0-2.35.83c-.87.4-2.09.61-2,1.87s1.29,1.48,2.18,1.76c15,4.84,21.34,16.41,24.55,30.81,1.05,4.67,1,9.84,3.74,14.27.71-.51,1.13-.64,1.21-.89.83-2.7,1.69-5.39,2.38-8.13,3.56-14.21,7.57-28.1,20.36-37.34C79.31,229.32,77,228.1,74.88,227.5Z" transform="translate(-0.03 0.02)" style="fill:#6a374f;stroke:#6a374f;stroke-linecap:round;stroke-linejoin:round;stroke-width:28px"/><path d="M523.26,106c-.17-1.25-1.31-1.34-2.29-1.46-3.31-.43-6.63-.74-9.92-1.28-8.74-1.41-13.86-6.49-15.7-15.21A72.64,72.64,0,0,1,493.5,74.2c0-1.49.52-3.27-1.21-4.74-2.6,8-2.66,16-4.52,23.82-1.95,8.18-6.18,13.87-14.66,15.92-1.48.36-3.8.11-3.91,2.33-.1,2,2.12,2.43,3.52,3.1,10.11,4.8,14.68,12.9,15.21,23.91.33,6.93,1.5,13.82,2.44,22a22.23,22.23,0,0,0,3.24-9.16c3.38-18,9.81-34,27.4-43a9.29,9.29,0,0,0,.85-.53C522.56,107.47,523.39,107,523.26,106Z" transform="translate(-0.03 0.02)" style="fill:#6a374f;stroke:#6a374f;stroke-linecap:round;stroke-linejoin:round;stroke-width:28px"/><path d="M129.75,177.18c.68-21.81,7.15-41.62,20.76-58.86,4.92-6.24,10.84-11.36,18.53-14,9.23-3.18,17.61-.53,23.52,7.28A38.68,38.68,0,0,1,200,132.06c2.27,26.68-5.1,50.49-22.3,71.11a44.27,44.27,0,0,1-7,6.47c-16,12.35-32.79,6.79-38.5-12.63A67.06,67.06,0,0,1,129.75,177.18Zm12.53,4c.3,8.53.86,16.35,3.91,23.72,2.58,6.25,5.16,7.57,11.72,5.89,7.64-1.95,13.18-7,18-12.95,11.25-13.9,16.62-30.16,19.18-47.65,1.29-8.81-.89-16.54-5.4-23.82-3.91-6.31-9.05-7.84-15.91-5a36.87,36.87,0,0,0-13.47,10.15c-12.71,14.41-17,31.78-18,49.68Z" transform="translate(-0.03 0.02)" style="fill:#6a374f;stroke:#6a374f;stroke-miterlimit:10;stroke-width:0.75px"/><path d="M435.67,295.62c0,6.06-.13,12.15,2.89,17.63,4.14,7.52,11.63,7.82,16.29.67a44.92,44.92,0,0,0,4.33-8.45c9.19-24.18,17.67-48.61,25.93-73.12,2.62-7.76,5-15.58,4.14-24-1-9.26-5.65-13.9-14.87-14.39-10-.54-17.52,3.3-22.08,12.44a64.34,64.34,0,0,0-5.2,13.53C441.08,244.83,438.5,270.24,435.67,295.62Z" transform="translate(-0.03 0.02)" style="fill:#6a374f"/><path d="M370.17,200.5c14,1.59,25.41-4.66,34.68-14.67,8.13-8.8,13.9-19.19,18.13-30.38,3.73-9.88,6.51-20,6.64-30.69.09-6.43-.35-7-6.57-7.08-4.17-.07-8.35,0-10.71,0-11,1-20.17,1.29-29.23,3A23.48,23.48,0,0,0,373,124.85c-4.56,3.51-7,10.09-5.42,14.66,1.49,4.41,5.39,6.49,12.4,6.39a53.44,53.44,0,0,0,7.48-.66c5.28-.83,10.55-1.74,15.8-2.78,4.15-.83,5.55.69,4.89,4.8a38.44,38.44,0,0,1-14,24.67c-12.52,10.16-26.5,6.8-33-8a32.46,32.46,0,0,1-2.37-7.11c-5.9-31.71.55-61,17.55-88.15a31,31,0,0,1,12.49-11.34c8.64-4.33,17.08-1.91,22.08,6.33a40.51,40.51,0,0,1,4.27,11.19c1,3.88,2,7.8,4.26,11.17,4.08,6,9.75,6,13.68,0a22.94,22.94,0,0,0,2.15-4.5c3-8.1,2.75-16.51,1.51-24.78-3.16-21.2-20.93-33.43-41.82-29-19,4.05-33.86,14.63-43.83,31-23.18,38-27,78-9.52,119.35C346.81,190.54,356.41,198.93,370.17,200.5Z" transform="translate(-0.03 0.02)" style="fill:#6a374f"/><path d="M210.47,245.82a12.33,12.33,0,0,0-9.66-9.14c-4.77-1.13-8.13,1.23-10.59,4.95A73.32,73.32,0,0,0,184.13,252a450.15,450.15,0,0,0-21.24,56.14c-.36,1.21-.13,3-1.64,3.42-1.79.5-2.53-1.27-3.45-2.37-7.32-8.68-14.4-17.58-22-26.06-7.2-8.09-13.13-17.4-22-23.87-6.55-4.75-13.42-5.24-17.63-1.68-3.88,3.28-4.62,9.56-1.4,16.81a255.52,255.52,0,0,0,24.44,42.48c8.87,12.74,17.53,25.63,26.3,38.45a8.54,8.54,0,0,1,1.54,7.09c-1.38,5.85-2.52,11.75-4,17.58-4,16.05-8,32.08-9,49.23.15,2.3-.07,5.23.6,7.94,1.15,4.63,2,9.88,7.9,11,3.73.75,7.12-2.8,9.33-9.63,6-18.74,13-37.15,19.23-55.85,12.41-37.37,24.71-74.78,36.53-112.34C210.12,262.45,212.87,254.37,210.47,245.82Z" transform="translate(-0.03 0.02)" style="fill:#6a374f"/><path d="M228.31,143.9c.54,17.26-3,33.77-8.39,50.11-3.24,9.8-1.94,19.92,2.66,29.18,3.16,6.36,9.55,6.32,13.48.38a21.4,21.4,0,0,0,2.39-4.93,94.93,94.93,0,0,0,4.08-18.56c2.72-20.41,3.3-41,3.74-61.51,0-1.94-.61-4.18,1.53-6.28l.92,2.8c4.41,12.76,7.64,26,14.31,37.87,5,8.81,11.38,8.71,16.62.09a56.78,56.78,0,0,0,3-5.8c4.44-9.59,7-19.8,10.11-29.85,2.38-7.74,4.82-15.46,7.57-24.27a8.68,8.68,0,0,1,1.26,6.22,311.74,311.74,0,0,0,1.34,54.56c1,9.47,2.17,19,7.32,27.34,3.28,5.32,8.06,8,11.82,6.49,5.28-2.11,5.25-6.94,5.07-11.46q-2.25-58.36-4.77-116.7c-.29-6.47-.89-13-3.62-19.1-2.61-5.8-7-7.32-12.71-4.47a30.27,30.27,0,0,0-10.75,9.58c-4.46,6.11-7.55,13-10.56,19.86-4.68,10.73-8.14,21.9-11.91,33-.36,1.06-.32,2.6-1.86,2.57s-1.71-1.41-2-2.52c-.79-2.55-1.5-5.12-2.31-7.67-3.88-12.24-7.16-24.7-12.18-36.56-1.45-3.44-2.76-7.77-7.4-8-4.4-.16-6.46,3.68-8.58,6.86-3.37,5.06-5.28,10.79-6.88,16.58-4.15,15-8.56,29.93-3.92,45.72C228.37,138.1,228.23,141.06,228.31,143.9Z" transform="translate(-0.03 0.02)" style="fill:#6a374f"/><path d="M309,359.4c-5.44-1.64-10.94-1-16.43-.49-16.35,1.67-32.21,5.86-48.17,9.5-5.62,1.29-6,1.14-5.86-4.85q.27-17,.69-34.09c.2-8.32.26-8.5,8.52-9.93,15.16-2.62,30.27-5.38,44.91-10.26,3.81-1.27,7.71-2.37,10.94-4.88a9.9,9.9,0,0,0,3.81-11.09c-1.2-4.37-4.5-6-8.65-6.33a52,52,0,0,0-14.45,1.21c-13.6,2.76-27.21,5.45-40.77,8.36-4,.87-5.59-.25-5.33-4.42.35-5.51.32-11,.55-16.54.68-16.18.77-15.93,16.42-20.41s31.38-8.31,46.29-14.82c8-3.49,10.88-8.35,9-14.09-1.64-5-6-6.7-14.53-5.24-12.87,2.2-25.47,5.59-38.07,8.93-11.15,3-22.21,6.22-33,10.19-4.45,1.63-7.35,4.24-6.74,9.7.33,2.92-.52,6-.79,9-.78,8.31-4.68,15.92-4.7,24.52-.06,16-1,32.08-1.51,48.12H211q-.9,22.8-1.79,45.6a61.55,61.55,0,0,0,1.06,13.48c.85,4.64,3.77,7.31,8.18,8.48,3,.8,6,.26,8.93-.4,20.56-4.59,41-9.59,61.23-15.49,8-2.33,16.15-4.51,23-9.59,2.64-1.95,4.82-4.42,4.07-8S312.21,360.37,309,359.4Z" transform="translate(-0.03 0.02)" style="fill:#6a374f"/><path d="M448.28,351.81c-1.52-6.64-7.81-11.31-16.11-11.28-2.8.83-7.62-.19-8.87,5a75.46,75.46,0,0,1-4.11,12.26c-1.06,2.47-1.08,4.76.68,7,4,5.14,12.86,7.14,19.14,4.2S449.7,358,448.28,351.81Z" transform="translate(-0.03 0.02)" style="fill:#6a374f"/><path d="M418.83,326.07c-1.6-15-8.24-26.64-22.84-32.71a110.8,110.8,0,0,0-19.05-6.15c-10.11-2.19-20.5-3.43-30-7.83-10-4.63-17.09-11.88-18.06-23.38s6.31-22.29,17.89-27.72c9.57-4.49,21.26-2.48,29.64,5.65,4.06,3.93,7.37,8.63,11.13,12.88,2.38,2.68,5.37,4,9,2.85a9.38,9.38,0,0,0,6.72-7.4A22.63,22.63,0,0,0,402,229.45c-5.3-14.19-19.07-22.76-37.61-22.65-1.11.08-3.62.17-6.1.45-28,3.16-48.66,25.3-47.15,51.76,1.21,21.17,8.44,31,27.45,36.39,9.32,2.66,18.5,5.81,27.72,8.78,8,2.58,15.43,6.22,21.53,12.33,11.57,11.59,8.66,31.75-5.82,39.29-17.77,9.25-35.85,4.63-47-12-.74-1.11-1.43-2.26-2.2-3.36-4.19-6-8.63-6.18-13.22-.4a13.85,13.85,0,0,0-3,7.81c-.72,10.8,4.66,18.34,13.4,23.46,15.21,8.91,31.38,12.84,49.05,8.37C406.06,372.85,421.47,350.85,418.83,326.07Z" transform="translate(-0.03 0.02)" style="fill:#6a374f"/><path d="M148.5,247.93c14.55,1.55,27-4.2,37.61-13.52,25.63-22.48,35.86-51.89,37.25-81.3-.28-22.16-3.4-39.72-15.14-54.67C196.94,84.06,180.41,78.93,163,84.34c-11.51,3.58-20.76,10.66-28.75,19.39C121.6,117.61,113.47,134,109,152.08c-5.46,22.2-6.06,44.4,3.14,65.88C119,234.05,130,246,148.5,247.93Zm2-129.36c4.93-6.24,10.84-11.36,18.53-14,9.24-3.18,17.61-.53,23.53,7.28A38.68,38.68,0,0,1,200,132.32c2.26,26.68-5.1,50.5-22.3,71.11a44.71,44.71,0,0,1-7,6.47c-16,12.35-32.79,6.79-38.5-12.63a67.06,67.06,0,0,1-2.45-19.83c.7-21.82,7.16-41.63,20.77-58.87Z" transform="translate(-0.03 0.02)" style="fill:#6a374f"/><path d="M81,71c-.72,1.07-1.15,1.44-1.25,1.88-1.72,8-3.21,16.09-9.85,22-1.38,1.21-.43,2.79.61,4,4.87,5.66,6.85,12.49,8,19.68.19,1.24,0,3.09,1.72,3.17s1.61-1.8,2-3c2.45-8.57,5.09-17,12.75-22.66,2.45-1.82,1-3.45-.89-4.71a21.67,21.67,0,0,1-7.62-8.47C84.56,79.19,82.93,75.4,81,71Z" transform="translate(-0.03 0.02)" style="fill:#6a374f"/><path d="M53.45,257.09c3.39-9.43,7.14-17.91,13.53-24.93,1.75-1.92.38-3.32-1.26-4.47a23,23,0,0,1-8.19-9.86c-1.54-3.59-2.85-7.27-4.44-11.36a9.64,9.64,0,0,0-1.38,1.92c-2.82,8.59-6.88,16.13-15.26,20.77-3,1.69-.35,3.3,1.22,4.37,5.88,4,9.46,9.73,12.08,16.15C50.68,252,51,254.51,53.45,257.09Z" transform="translate(-0.03 0.02)" style="fill:#6a374f"/><path d="M492.17,132.85c.56-.06.81,0,.85-.1,4.27-8.61,8.14-17.44,16.35-23.39,1.93-1.4.14-2.5-1.51-2.87-5.6-1.24-10.21-3.95-13.42-8.81-1.28-1.92-2.4-2.13-3.41.29-1.81,4.35-4.14,8.31-8.11,11.15-2.18,1.56-1,3.12.56,4.45a22.15,22.15,0,0,1,6.09,8.39C491.1,125.45,491.21,129.29,492.17,132.85Z" transform="translate(-0.03 0.02)" style="fill:#6a374f"/><circle cx="439.11" cy="353.93" r="5.63" style="fill:#6a374f"/><path d="M474.14,228.07c7.47-6.31,5.76-17.81,1.92-22.08-9.26-10.31-22.89,6.73-9.49,13.07C477.06,224,469.56,229.26,474.14,228.07Z" transform="translate(-0.03 0.02)" style="fill:#6a374f"/><path d="M418.19,42.49c10.58,4.19,12.3,18.46,5.66,22.16a6.39,6.39,0,0,1-5.05.3,6,6,0,0,1-3.29-7.23c2.12-8.63-7-10.36-9.67-11.09-2.22-.61-3-1.52-2.38-3.17C404.23,41.28,411.11,39.68,418.19,42.49Z" transform="translate(-0.03 0.02)" style="fill:#6a374f"/><path d="M406.69,104.9c-3-4.93-10.7-.25-7.67,4.69S409.71,109.85,406.69,104.9Z" transform="translate(-0.03 0.02)" style="fill:#6a374f"/><path d="M132.27,120.9c-2-3.25-7-.17-5,3.09S134.26,124.15,132.27,120.9Z" transform="translate(-0.03 0.02)" style="fill:#6a374f"/><path d="M293.13,111.44c-3-4.94-10.7-.26-7.67,4.69S296.15,116.38,293.13,111.44Z" transform="translate(-0.03 0.02)" style="fill:#6a374f"/><path d="M308.38,64.34c-14-4.35-16.5,38.69-15,37.68C295.26,101.81,317.51,67.18,308.38,64.34Z" transform="translate(-0.03 0.02)" style="fill:#6a374f"/><path d="M164.31,92c-4.32-2.55-11.37,1.92-14.7,4.51-4.27,3.33-13.6,15.71-12.44,16.63,14.65-10.13,18.79-7,25.1-10.8C165.67,100.31,169,94.78,164.31,92Z" transform="translate(-0.03 0.02)" style="fill:#6a374f"/><path d="M126.47,131c-1.27-2.08-4.51-.11-3.23,2a1.9,1.9,0,0,0,3.23-2Z" transform="translate(-0.03 0.02)" style="fill:#6a374f"/><path d="M202.83,250.06c-15.3-8.58-13.07,15.16-16.3,31.43C184.8,290.18,212.56,260.55,202.83,250.06Z" transform="translate(-0.03 0.02)" style="fill:#6a374f"/><circle cx="182.83" cy="295.12" r="4.26" style="fill:#6a374f"/><circle cx="327.12" cy="348.29" r="4.26" style="fill:#6a374f"/><path d="M299.57,227.11c.2-6.53-33.7,9.21-22.73,8C289.29,233.66,301.8,233,299.57,227.11Z" transform="translate(-0.03 0.02)" style="fill:#6a374f"/><path d="M276.3,302.28c6,.11,29.44,1.28,16.06-6.73C284.59,290.89,270.25,302.18,276.3,302.28Z" transform="translate(-0.03 0.02)" style="fill:#6a374f"/><path d="M267.13,234.21c-2.93,0-2.93,4.56,0,4.56S270.07,234.21,267.13,234.21Z" transform="translate(-0.03 0.02)" style="fill:#6a374f"/><path d="M259,238a1.14,1.14,0,1,0,1,1A1.14,1.14,0,0,0,259,238Z" transform="translate(-0.03 0.02)" style="fill:#6a374f"/><path d="M264.93,300.77c-2.93,0-2.94,4.56,0,4.56S267.87,300.77,264.93,300.77Z" transform="translate(-0.03 0.02)" style="fill:#6a374f"/><path d="M431.06,287.75c2.9-20.52,4.77-47,12.07-72.69a65.6,65.6,0,0,1,4.45-11.13c6.18-12.38,18.89-18.1,32.34-14.76,6.29,1.56,10.87,5.26,12.89,11.44a7.27,7.27,0,0,0,5.76,5.34c11.63,3.08,15.48,9.29,13.13,21.21-2.24,11.39-7.1,21.87-12.12,32.23-7.94,16.35-15.36,33-24.27,48.83a79,79,0,0,1-11.52,15.72c-8.28,8.73-16.37,8.25-23.61-1.22C430.35,309.85,430.35,309.85,431.06,287.75Zm4.64,7.62c0,6.06-.12,12.15,2.89,17.62,4.14,7.53,11.63,7.83,16.29.68a44.92,44.92,0,0,0,4.33-8.45c9.19-24.18,17.67-48.62,25.93-73.13,2.62-7.75,5-15.57,4.14-24-1-9.26-5.65-13.9-14.87-14.4-10-.53-17.52,3.31-22.08,12.45a64.34,64.34,0,0,0-5.2,13.53C441.11,244.58,438.53,270,435.7,295.37Z" transform="translate(-0.03 0.02)" style="fill:#6a374f;stroke:#6a374f;stroke-miterlimit:10;stroke-width:0.75px"/><path d="M80.58,43.49C81.8,49.17,82.87,54.15,84,59.12c.82,3.76,1.46,7.56,2.54,11.24,2.73,9.3,8.23,16.32,17.35,20.19,1.21.52,2.72.89,3,2.37s-1.08,2-2.12,2.39c-12,4.35-15.58,14.86-18.52,25.65-1.79,6.6-3,13.36-4.42,20-.25,1.11-.24,2.7-1.56,2.84-1.86.2-1.76-1.63-2-2.85-2-9.14-3.87-18.3-6-27.41-1.77-7.73-5.45-14-13.67-16.46-.91-.27-2.13-.44-2.19-1.7s1.06-1.65,1.94-2c10.57-4.18,15-12.62,16.44-23.27C75.74,63,77,56,78.08,48.86,78.33,47.27,78,45.46,80.58,43.49Zm.18,27.35c-.72,1.07-1.15,1.44-1.25,1.88-1.73,8-3.21,16.09-9.86,22-1.37,1.21-.42,2.79.62,4,4.87,5.67,6.84,12.5,8,19.69.19,1.24,0,3.09,1.72,3.17s1.61-1.8,2-3c2.45-8.57,5.09-17,12.75-22.67,2.45-1.81,1-3.45-.89-4.7a21.84,21.84,0,0,1-7.63-8.47C84.36,79,82.74,75.2,80.76,70.84Z" transform="translate(-0.03 0.02)" style="fill:#6a374f;stroke:#6a374f;stroke-miterlimit:10;stroke-width:0.75px"/><path d="M52.16,276.62c-2.75-4.43-2.69-9.6-3.74-14.27-3.21-14.4-9.53-26-24.55-30.81-.89-.28-2.12-.54-2.18-1.76s1.16-1.47,2-1.87a10.43,10.43,0,0,1,2.35-.83c13.88-2.55,19.37-12.41,21.67-24.94,1.06-5.74,2.24-11.47,2.42-17.34,0-1.28-.09-2.71,1.26-3.91,2,1.35,2,3.6,2.38,5.61a197.36,197.36,0,0,0,6.29,25.22C62.38,219,67,224.2,74.57,226.36c2.14.6,4.43,1.82,1.54,3.9-12.79,9.24-16.8,23.13-20.36,37.34-.69,2.74-1.55,5.43-2.38,8.13C53.29,276,52.87,276.11,52.16,276.62Zm1.09-19.73C56.65,247.45,60.4,239,66.79,232c1.75-1.92.38-3.32-1.26-4.47a23.13,23.13,0,0,1-8.19-9.86c-1.54-3.59-2.85-7.28-4.44-11.36a9.36,9.36,0,0,0-1.38,1.92c-2.82,8.59-6.88,16.12-15.26,20.77-3,1.69-.35,3.3,1.22,4.37,5.88,4,9.46,9.73,12.08,16.15C50.48,251.75,50.79,254.3,53.25,256.89Z" transform="translate(-0.03 0.02)" style="fill:#6a374f;stroke:#6a374f;stroke-miterlimit:10;stroke-width:0.75px"/><path d="M490.06,159.45c-.94-8.19-2.11-15.08-2.44-22-.53-11-5.1-19.11-15.21-23.91-1.4-.67-3.62-1.07-3.52-3.1.11-2.22,2.43-2,3.91-2.33,8.48-2,12.71-7.74,14.66-15.92,1.86-7.77,1.92-15.87,4.52-23.82,1.73,1.47,1.19,3.25,1.21,4.74A73,73,0,0,0,495,87c1.84,8.73,7,13.8,15.7,15.22,3.29.53,6.61.84,9.92,1.27,1,.12,2.12.21,2.29,1.46.13,1-.7,1.43-1.4,1.88-.28.18-.55.38-.85.54-17.59,8.93-24,25-27.4,43A22.22,22.22,0,0,1,490.06,159.45Zm1.91-26.8c.57-.07.82,0,.85-.11,4.28-8.6,8.15-17.43,16.35-23.38,1.94-1.4.15-2.51-1.51-2.87a20.85,20.85,0,0,1-13.42-8.81c-1.27-1.92-2.39-2.13-3.4.29-1.81,4.35-4.14,8.31-8.11,11.15-2.18,1.56-1,3.12.56,4.45a22.15,22.15,0,0,1,6.09,8.39c1.53,3.49,1.62,7.33,2.62,10.89Z" transform="translate(-0.03 0.02)" style="fill:#6a374f;stroke:#6a374f;stroke-miterlimit:10;stroke-width:0.75px"/><path d="M204.52,370.09c.28-6.35.62-12.69.78-19,0-1.29,1-3.47-1.15-3.7-1.52-.16-1.54,1.88-1.94,3.11-7.27,22.57-15.32,44.86-23.79,67-3.88,10.14-8.1,20.14-12.23,30.18a17.67,17.67,0,0,1-4.44,6.6c-2.33,2.08-5.48,4.23-8.11,2.61C149,454,143.74,453.8,139,452c-5.83-2.25-8-7.85-8.9-13.64-2-12.82.54-25.33,3.17-37.75,2.52-11.92,5.61-23.72,8.5-35.56a10.55,10.55,0,0,0-1.54-9c-8.89-12.95-17.6-26-26.49-39-9.46-13.8-18.29-28-24.24-43.69-2.64-7-2.77-14.07,3.32-19.44s13.4-4.54,20.15-1c3.33,1.77,5.73,2,9.06-.16,4.25-2.76,8.71-1.13,12.71,1.4s6.67,6.06,9.45,9.61a196.72,196.72,0,0,1,15.57,22.72c.55,1,.79,2.44,2.34,2.2,1.36-.21,1.64-1.48,2-2.6,2.8-7.86,5.52-15.75,8.48-23.54,1.24-3.27,1-4.9-3-5.28-10.32-1-20.33-3.92-30.2-6.67-17.34-4.84-27.91-18-33-34.45-14.23-45.94-3.24-86.31,29.45-121a59.13,59.13,0,0,1,25.42-15.59c12.35-3.94,24.39-3.34,35.92,2.93,2.09,1.14,4.09,2,6.62,1.68a21,21,0,0,1,18,5.81c2.66,2.54,3.94,2.34,5-1.4a72.11,72.11,0,0,1,5.85-15.43,28.91,28.91,0,0,1,8.14-10c2.79-2,6.28-4,9.31-2.23,5.16,2.95,9.2,7,15.87,2.07,2.46-1.8,5.76,2.48,6.78,5.85,1.41,4.62,2.43,9.37,3.68,14,.28,1.2-.19,3.2,1.61,3.2,1.38,0,1.91-1.69,2.42-2.92a112.39,112.39,0,0,1,8.5-17c3.78-6,8.4-11.27,14.83-14.6,6.72-3.5,12-2.59,17.12,2.93,1.42,1.51,2.36,2.88,4.95,1.43,5.95-3.34,9.15-2.56,12.33,3.31,2.51,4.62,3.87,2.61,5.68-.26,9.42-15,21.74-26.69,38.35-33.27,14-5.55,28.14-7.5,41.85,1.2a9.74,9.74,0,0,0,4.83,1.1c14.3,1.2,21.66,7.63,24.75,21.88,2.89,13.33,2.69,26.55-2.14,39.47a17.9,17.9,0,0,1-7.78,9.51c-3.85,2.27-7.59,2.39-11-.89a6.34,6.34,0,0,0-3.76-2.21c-10.93-1.29-15-4.85-17.9-15.48-.8-2.9-1.5-5.83-2.45-8.68-2-5.89-3.61-6.38-8.5-2.7a43.16,43.16,0,0,0-10,11.13,97,97,0,0,0-12.6,30.4c-1.11,4.59-.13,5.48,4.33,4.75a262.94,262.94,0,0,1,47.4-3.1c4,.09,6.07,1.66,5.82,5.65s1.68,5.06,5.43,5.07c11.09,0,11.33.8,9.57,11.92-3.56,22.5-13.82,41.66-28.48,58.71-6.24,7.26-13.74,12.72-23.25,14.88-4.48,1-3.72,2.78-1.11,5.21a36.23,36.23,0,0,1,11,19.83c1.15,5.68.56,11-2.87,15.77a13.15,13.15,0,0,0-2.16,6.53c-1.17,9.74-10.45,15.27-19.58,11.78-5.19-2-9-5.69-12.22-10.06A64,64,0,0,0,361.42,246c-8.48-7.09-20.06-3.23-22.76,7.53-2.45,9.73,1,17.11,10.25,21.26,7.37,3.33,15.3,4.74,23.18,6.26,10.72,2.07,21.16,4.92,30.82,10.17,5.71,3.11,10.78,7.12,13.67,12.9,4.3,8.6,8.77,17.18,11.58,26.43.77,2.54,1.84,3.52,4.53,3.42,9.43-.33,16.32,3.86,20.77,12.18a12.36,12.36,0,0,0,2.52,3.06c10.35,9.59,8.87,24.44-3.21,31.81s-25.27,5.41-34.69-5.27c-1.56-1.75-2.44-2.15-4.3-.34-26.31,25.57-55,29.31-85.84,10.88-4.49-2.69-7.84-2.72-12.36-.41-14.23,7.24-29.81,10.79-44.94,15.52-9.56,3-18.94,6.62-28.83,8.5-7,1.34-14,2.43-19.43-4.06-1.14-1.36-3.1-1.07-4.72-1.4-9.55-1.94-13.35-6.45-13.51-16.3-.1-6,0-12,0-18.05Zm95.79-257.21a8.73,8.73,0,0,1,1.27,6.22,310.77,310.77,0,0,0,1.33,54.56c1,9.47,2.18,19,7.33,27.34,3.28,5.32,8.06,8,11.81,6.49,5.28-2.11,5.25-6.94,5.08-11.46q-2.26-58.36-4.78-116.7c-.29-6.47-.88-13-3.62-19.1-2.61-5.8-7-7.32-12.71-4.47a30.1,30.1,0,0,0-10.75,9.58c-4.45,6.11-7.55,13-10.56,19.86-4.68,10.73-8.14,21.9-11.91,33-.36,1.06-.32,2.59-1.85,2.57s-1.72-1.41-2.06-2.52c-.79-2.55-1.5-5.13-2.3-7.67-3.89-12.25-7.16-24.7-12.18-36.56-1.41-3.49-2.77-7.82-7.41-8-4.41-.16-6.47,3.68-8.59,6.85-3.37,5.06-5.28,10.79-6.88,16.59-4.15,15-8.56,29.93-3.92,45.72.79,2.67.64,5.63.73,8.47.53,17.26-3,33.77-8.4,50.11-3.24,9.8-1.93,19.92,2.67,29.18,3.16,6.36,9.54,6.32,13.48.38a22.68,22.68,0,0,0,2.39-4.93,94.91,94.91,0,0,0,4.07-18.56c2.73-20.41,3.3-41,3.74-61.51,0-1.94-.61-4.18,1.53-6.28l.92,2.8c4.41,12.76,7.65,26,14.31,37.87,4.95,8.81,11.38,8.7,16.63.08a57.27,57.27,0,0,0,2.95-5.79c4.43-9.59,7-19.81,10.1-29.85C295.12,129.41,297.56,121.68,300.31,112.88ZM211.09,331.19H211l-1.8,45.6a61.46,61.46,0,0,0,1.06,13.47c.85,4.65,3.78,7.32,8.18,8.49,3,.8,6,.26,8.94-.4,20.55-4.6,41-9.59,61.22-15.49,8-2.33,16.15-4.51,23-9.59,2.64-2,4.82-4.43,4.07-8s-3.46-5.13-6.67-6.1c-5.43-1.64-10.93-1-16.43-.49-16.35,1.67-32.2,5.86-48.16,9.5-5.63,1.29-6,1.13-5.87-4.85q.27-17,.7-34.09c.2-8.32.25-8.5,8.51-9.93,15.16-2.62,30.28-5.38,44.91-10.26,3.81-1.27,7.71-2.38,10.94-4.88,3.66-2.83,5.06-6.56,3.81-11.09-1.2-4.37-4.5-6-8.65-6.33A52,52,0,0,0,284.31,288c-13.6,2.75-27.21,5.45-40.77,8.36-4,.87-5.59-.26-5.33-4.42.35-5.51.32-11,.55-16.55.68-16.17.77-15.93,16.42-20.4s31.38-8.31,46.29-14.82c8-3.49,10.88-8.35,9-14.09-1.65-5-6-6.7-14.54-5.24-12.86,2.2-25.46,5.59-38.07,8.93-11.15,3-22.21,6.22-33,10.19-4.44,1.63-7.35,4.23-6.74,9.7.33,2.92-.51,6-.79,9-.78,8.31-4.67,15.92-4.7,24.52C212.55,299.11,211.64,315.15,211.09,331.19ZM223.4,152.86c-.29-22.16-3.41-39.72-15.15-54.67C197,83.81,180.44,78.68,163,84.09c-11.51,3.58-20.75,10.61-28.74,19.39-12.65,13.88-20.78,30.25-25.24,48.35-5.47,22.2-6.06,44.4,3.13,65.87,6.89,16.1,17.83,28,36.36,30,14.55,1.55,27-4.2,37.61-13.52C211.77,211.68,222,182.27,223.4,152.86Zm189-35.44c-11,1-20.18,1.29-29.23,3A23.49,23.49,0,0,0,373,124.6c-4.55,3.51-6.95,10.09-5.41,14.66,1.48,4.41,5.39,6.49,12.4,6.39a53.43,53.43,0,0,0,7.47-.66c5.28-.83,10.56-1.74,15.8-2.78,4.15-.83,5.55.68,4.89,4.8a38.44,38.44,0,0,1-14,24.67c-12.53,10.16-26.51,6.8-33-8a33,33,0,0,1-2.37-7.11c-5.9-31.71.55-61,17.56-88.15a31,31,0,0,1,12.48-11.34c8.64-4.34,17.09-1.91,22.08,6.33a40.22,40.22,0,0,1,4.28,11.19c1,3.88,2,7.8,4.26,11.17,4.07,6,9.74,6,13.67,0a22.68,22.68,0,0,0,2.15-4.5c3-8.1,2.75-16.51,1.52-24.78-3.17-21.2-20.94-33.43-41.83-29-19,4.06-33.86,14.64-43.82,31-23.18,38-27,78-9.53,119.35,5.27,12.48,14.87,20.87,28.63,22.44,14,1.59,25.42-4.66,34.68-14.68,8.13-8.79,13.9-19.18,18.13-30.37,3.74-9.89,6.51-20,6.65-30.7.08-6.42-.36-7-6.58-7.07-4.2-.11-8.38,0-10.73,0ZM134.08,428.94c.14,2.3-.07,5.23.6,7.94,1.14,4.63,2,9.88,7.9,11.05,3.72.75,7.11-2.8,9.32-9.63,6.06-18.74,13-37.16,19.23-55.85,12.41-37.37,24.71-74.78,36.54-112.34,2.48-7.91,5.24-16,2.83-24.54a12.34,12.34,0,0,0-9.66-9.15c-4.77-1.12-8.12,1.24-10.59,5a75.56,75.56,0,0,0-6.09,10.34,451.58,451.58,0,0,0-21.24,56.13c-.36,1.22-.13,3-1.64,3.43-1.79.5-2.53-1.27-3.45-2.37-7.31-8.69-14.4-17.58-22-26.06-7.2-8.09-13.13-17.4-22-23.87-6.55-4.75-13.42-5.24-17.63-1.68-3.88,3.28-4.61,9.56-1.4,16.81a255.52,255.52,0,0,0,24.44,42.48c8.87,12.74,17.54,25.63,26.3,38.44a8.52,8.52,0,0,1,1.54,7.1c-1.37,5.85-2.52,11.75-4,17.58C139.15,395.76,135.09,411.78,134.08,428.94ZM364.46,206.55c-1.1.08-3.61.16-6.1.45-28,3.16-48.66,25.3-47.15,51.76,1.22,21.17,8.44,31,27.45,36.39,9.32,2.66,18.5,5.81,27.72,8.78,8,2.58,15.43,6.22,21.53,12.33,11.57,11.59,8.66,31.75-5.82,39.29-17.76,9.25-35.85,4.63-47-12-.74-1.11-1.43-2.26-2.19-3.36-4.2-6-8.64-6.18-13.22-.4a13.72,13.72,0,0,0-3.06,7.8c-.71,10.81,4.66,18.35,13.4,23.47,15.21,8.91,31.39,12.84,49.06,8.37,27-6.83,42.41-28.83,39.77-53.61-1.6-15-8.24-26.64-22.84-32.71A110.24,110.24,0,0,0,377,287c-10.11-2.19-20.5-3.43-30-7.83-10-4.64-17.09-11.88-18.06-23.38s6.32-22.29,17.89-27.72c9.57-4.49,21.26-2.48,29.65,5.65,4,3.93,7.36,8.62,11.12,12.87,2.38,2.69,5.38,4,9,2.86a9.38,9.38,0,0,0,6.72-7.41,22.5,22.5,0,0,0-1.21-12.8C396.77,215,383,206.44,364.46,206.55Zm-109.68,139v4c.1,11.39-2.88,11.69,10.71,8.81,14-3,28.09-6.34,42.65-4.58,2.76.34,3.46-.92,3.58-3.4a34,34,0,0,1,1.12-7.9c3.22-10.86,13.12-14.4,21.92-7.85,2,1.47,3.18.74,4.87-.3,6.22-3.86,10.13-3.14,14.69,2.67,2.36,3,4.37,6.32,6.73,9.35,7.17,9.19,15,9.73,23.4,1.72,4.05-3.86,4.36-6.87,1.09-11.45-4.4-6.17-10.46-10.23-17.29-13.24-13.59-6-28.36-9.07-41.22-16.84-2.09-1.27-3.33-.29-4.26,1.77-2.21,4.87-6.16,7.52-11.18,9.27-13.3,4.65-27,7.4-40.85,9.93-15.57,2.87-15.58,2.8-16,18.06ZM254,221.05c-.8,3.58.64,4.29,3.17,3.77,1.31-.27,2.59-.64,3.88-1,11.64-3,23.27-6,35.12-8.07,5.23-.92,11.09-1.51,14.6,2.8,4.49,5.53,7.53,3.77,11.2-.23a31.91,31.91,0,0,1,2.73-2.19c.85-.75,2.12-1.44,1.6-2.81s-1.91-1.06-3.05-.86c-7.88,1.35-13-2.62-17.08-8.75a39.69,39.69,0,0,1-5.44-13.36c-.68-3.08-1.56-4.49-4.36-1.58-2.64,2.74-5.69,2.29-8.73.68a12.83,12.83,0,0,1-5.29-5.83c-1.06-2.08-2.23-2.78-4.75-1.44-6.36,3.39-10.11,2.61-15.29-2.33-.92-.88-1.48-2.72-3-2.34-1.81.47-1.31,2.47-1.46,3.85C256.44,194.81,256.38,208.38,254,221.05Zm3.06,61.87c-.62,4.25.78,5.66,4.74,4.81,9-1.93,18-3.76,27-5.37,6.3-1.12,12.6-1.44,18.45,2.16,2.75,1.69,3-.27,3-2.41-.07-6.6-3-12.61-3.88-19.08-.32-2.5-2.47-1.49-4-.84-12.47,5.34-25.57,8.79-38.58,12.41-5,1.4-7,3.85-6.7,8.32ZM432.2,340.28c-2.8.83-7.62-.19-8.87,5a75.46,75.46,0,0,1-4.11,12.26c-1.05,2.47-1.08,4.76.68,7,4,5.14,12.86,7.14,19.14,4.2s10.69-11,9.27-17.23C446.79,344.92,440.5,340.25,432.2,340.28ZM211.62,232.85c1.24,2.39,2.41,4.86,5.33,5.36,1.75.31,8.82-4.66,8.21-5.28-2.69-2.74-5.28-6.43-8.59-7.37C214.6,225,212.66,229.75,211.62,232.85Zm131.23-34c-.31,5.91,0,6.4,4.31,5.06,2.11-.65,5.48-.08,6-2.57s-2.91-3.16-4.43-4.81a18.14,18.14,0,0,0-1.84-1.66c-.88-.72-1.7-1.92-2.93-1.52s-1,1.91-1.1,3c-.06.79,0,1.65,0,2.45Zm53.95-41.12c-3,.77-6.3,1.48-9.48,2.45-1.73.52-1.76,2-.76,3.18,1.52,1.87,3,4.87,5.82,3.67a11.52,11.52,0,0,0,6.56-7.72c.33-1.26-.79-1.71-2.14-1.63Z" transform="translate(-0.03 0.02)" style="fill:#6a374f;stroke:#6a374f;stroke-miterlimit:10;stroke-width:0.75px"/></g><g id="Layer_1-2" data-name="Layer 1-2"><path d="M368.65,239.38c-11-9.93-25.92-14.15-40.4-9.91-10,2.94-17.34,14.21-14,24.6,3.29,10.18,13.85,17.12,24.6,14l.94-.28H340l.6.16.38.23c7.83,6.54,20.3,7.55,27.68-.49C375.66,260,377,246.85,368.65,239.38Z" transform="translate(-0.03 0.02)" style="fill:#fff"/><path d="M413.61,79.42c-.76-10.41-8.66-20.51-20-20-10.19.46-20.81,8.82-20,20,.11,1.55.19,3.09.15,4.65a12.7,12.7,0,0,1-.07,1.63c-.45,1.47-.69,3-1.17,4.47-.09.3-.2.58-.3.88a6.83,6.83,0,0,1-.38.77c-4.71,9.33-2.78,22.11,7.17,27.37,9.1,4.8,22.34,2.79,27.37-7.18S414.43,90.82,413.61,79.42Z" transform="translate(-0.03 0.02)" style="fill:#fff"/><path d="M420,175.64c-9.68-2.21-22.74,2.93-24.61,14q-6.33,37.46-12.65,74.89c-1.74,10.28,2.7,22,14,24.6,9.67,2.21,22.73-2.94,24.6-14q6.33-37.44,12.65-74.88C435.68,190,431.24,178.2,420,175.64Z" transform="translate(-0.03 0.02)" style="fill:#fff"/><path d="M314.31,211.48a31.91,31.91,0,0,1,2.73-2.19c.85-.75,2.12-1.44,1.6-2.81s-1.91-1.06-3.05-.86c-7.88,1.35-13-2.62-17.08-8.75a39.69,39.69,0,0,1-5.44-13.36c-.68-3.09-1.56-4.49-4.36-1.58-2.64,2.74-5.69,2.29-8.73.68a12.83,12.83,0,0,1-5.29-5.83c-1.06-2.08-2.24-2.78-4.75-1.44-6.36,3.39-10.11,2.61-15.29-2.33-.92-.88-1.48-2.72-3-2.34-1.81.47-1.31,2.47-1.46,3.85-1.49,13.43-1.55,27-3.9,39.67-.8,3.58.63,4.29,3.17,3.77,1.31-.27,2.59-.64,3.88-1,11.64-3,23.27-6,35.12-8.08,5.23-.91,11.09-1.5,14.6,2.81C307.6,217.24,310.64,215.48,314.31,211.48Z" transform="translate(-0.03 0.02)" style="fill:#fff;stroke:#fff;stroke-linecap:round;stroke-linejoin:round;stroke-width:28px"/><path d="M384.69,160.12a11.48,11.48,0,0,0,6.55-7.72c.34-1.21-.78-1.66-2.13-1.58-3,.77-6.3,1.48-9.48,2.45-1.73.52-1.76,1.95-.76,3.18C380.39,158.32,381.84,161.32,384.69,160.12Z" transform="translate(-0.03 0.02)" style="fill:#fff;stroke:#fff;stroke-linecap:round;stroke-linejoin:round;stroke-width:28px"/><path d="M339.47,197c2.11-.65,5.47-.08,6-2.57s-2.91-3.16-4.43-4.81A18.14,18.14,0,0,0,339.2,188c-.88-.72-1.7-1.92-2.93-1.52s-1,1.91-1.1,3c-.07.82,0,1.65,0,2.48C334.85,197.85,335.18,198.34,339.47,197Z" transform="translate(-0.03 0.02)" style="fill:#fff;stroke:#fff;stroke-linecap:round;stroke-linejoin:round;stroke-width:28px"/><path d="M166.05,114.53a36.87,36.87,0,0,0-13.47,10.15c-12.67,14.39-17,31.76-18,49.66.3,8.53.86,16.35,3.91,23.72,2.58,6.25,5.16,7.57,11.72,5.89,7.64-1.95,13.18-7,18-12.95,11.25-13.9,16.62-30.16,19.18-47.65,1.29-8.81-.89-16.54-5.4-23.82C178.05,113.22,172.91,111.69,166.05,114.53Z" transform="translate(-0.03 0.02)" style="fill:#fff;stroke:#fff;stroke-linecap:round;stroke-linejoin:round;stroke-width:28px"/><path d="M302.61,275.25c-.07-6.61-3-12.61-3.88-19.08-.32-2.5-2.47-1.49-4-.84-12.47,5.33-25.57,8.79-38.58,12.41-5,1.39-7.08,3.85-6.74,8.32-.62,4.25.78,5.66,4.74,4.81,9-1.93,18-3.76,27-5.37,6.3-1.12,12.6-1.44,18.45,2.16C302.35,279.35,302.63,277.39,302.61,275.25Z" transform="translate(-0.03 0.02)" style="fill:#fff;stroke:#fff;stroke-linecap:round;stroke-linejoin:round;stroke-width:28px"/><path d="M209.26,231.35c1.75.31,8.82-4.66,8.21-5.28-2.69-2.74-5.28-6.44-8.59-7.37-2-.56-3.91,4.19-4.95,7.29C205.17,228.38,206.34,230.85,209.26,231.35Z" transform="translate(-0.03 0.02)" style="fill:#fff;stroke:#fff;stroke-linecap:round;stroke-linejoin:round;stroke-width:28px"/><path d="M327.07,327.8c2,1.47,3.17.74,4.87-.3,6.22-3.86,10.13-3.14,14.69,2.67,2.36,3,4.37,6.32,6.73,9.35,7.17,9.19,15,9.73,23.4,1.72,4.05-3.86,4.36-6.87,1.09-11.45-4.4-6.17-10.46-10.23-17.29-13.24-13.59-6-28.36-9.07-41.22-16.84-2.09-1.27-3.33-.29-4.26,1.77-2.21,4.87-6.16,7.52-11.18,9.27-13.3,4.65-27,7.4-40.85,9.93-15.57,2.84-15.58,2.77-16,18v4c.1,11.39-2.89,11.69,10.71,8.81,14-3,28.09-6.34,42.64-4.58,2.77.34,3.47-.92,3.59-3.4a34,34,0,0,1,1.12-7.9C308.37,324.79,318.27,321.25,327.07,327.8Z" transform="translate(-0.03 0.02)" style="fill:#fff;stroke:#fff;stroke-linecap:round;stroke-linejoin:round;stroke-width:28px"/><path d="M448.29,342.34a12.08,12.08,0,0,1-2.52-3c-4.46-8.32-11.34-12.51-20.77-12.18-2.69.1-3.76-.89-4.53-3.42-2.81-9.25-7.28-17.83-11.58-26.43-2.89-5.78-8-9.79-13.67-12.9-9.66-5.25-20.1-8.1-30.82-10.17-7.88-1.52-15.81-2.93-23.18-6.26-9.2-4.15-12.7-11.53-10.26-21.27,2.71-10.76,14.28-14.61,22.77-7.52a64,64,0,0,1,9.93,11.25c3.23,4.37,7,8.08,12.22,10.06,9.13,3.49,18.41-2,19.58-11.78a13.15,13.15,0,0,1,2.16-6.53c3.43-4.78,4-10.09,2.87-15.77a36.23,36.23,0,0,0-11-19.83c-2.61-2.43-3.37-4.19,1.11-5.21,9.51-2.16,17-7.62,23.25-14.88,14.65-17,24.92-36.21,28.48-58.71,1.76-11.12,1.52-11.88-9.57-11.92-3.75,0-5.68-1-5.43-5.08s-1.82-5.55-5.82-5.64A262.82,262.82,0,0,0,374,108.28c-4.46.73-5.44-.16-4.33-4.75a97,97,0,0,1,12.6-30.4,43,43,0,0,1,10-11.13c4.89-3.68,6.53-3.19,8.5,2.7,1,2.85,1.65,5.78,2.45,8.68,2.92,10.63,7,14.19,17.9,15.48A6.4,6.4,0,0,1,425,91c3.44,3.28,7.18,3.16,11,.89a17.9,17.9,0,0,0,7.78-9.51c4.83-12.92,5-26.14,2.14-39.47C442.83,28.66,435.47,22.23,421.17,21c-1.68-.14-3.35-.17-4.83-1.1-13.71-8.7-27.82-6.75-41.85-1.2-16.63,6.6-28.95,18.33-38.37,33.27-1.81,2.87-3.17,4.88-5.68.26-3.18-5.87-6.38-6.65-12.33-3.31-2.59,1.45-3.53.08-4.95-1.43C308,42,302.76,41.11,296,44.61c-6.43,3.33-11.05,8.56-14.83,14.6a112.39,112.39,0,0,0-8.5,17c-.51,1.23-1,2.94-2.42,2.92-1.78,0-1.31-2-1.62-3.19-1.25-4.67-2.27-9.42-3.68-14-1-3.37-4.32-7.65-6.78-5.85C251.5,61,247.46,57,242.3,54c-3-1.73-6.52.2-9.31,2.23-3.6,2.61-6.06,6.19-8.14,10A71.47,71.47,0,0,0,219,81.69c-1,3.74-2.31,3.94-5,1.4a21,21,0,0,0-18-5.81c-2.53.32-4.53-.54-6.62-1.68-11.53-6.27-23.57-6.87-35.92-2.93A59.13,59.13,0,0,0,128,88.26C95.46,123,84.47,163.32,98.7,209.26c5.09,16.43,15.66,29.61,33,34.45,9.87,2.75,19.88,5.69,30.2,6.67,4,.38,4.24,2,3,5.28-3,7.79-5.68,15.68-8.48,23.54-.4,1.11-.69,2.39-2,2.6-1.55.23-1.79-1.25-2.34-2.2a196.72,196.72,0,0,0-15.57-22.72c-2.78-3.55-5.56-7.15-9.45-9.61s-8.46-4.16-12.71-1.4c-3.33,2.17-5.73,1.93-9.06.16-6.75-3.58-13.94-4.52-20.15,1s-6,12.47-3.32,19.44c6,15.72,14.77,29.89,24.24,43.69,8.88,12.95,17.6,26,26.49,39a10.55,10.55,0,0,1,1.54,9c-2.89,11.84-6,23.64-8.5,35.56-2.63,12.42-5.21,24.93-3.17,37.75.93,5.79,3.07,11.39,8.9,13.64,4.77,1.84,10,2.07,14.67,4.93,2.63,1.62,5.78-.53,8.11-2.61a17.67,17.67,0,0,0,4.44-6.6c4.13-10,8.35-20,12.23-30.18,8.46-22.13,16.52-44.42,23.79-67,.4-1.23.42-3.27,1.94-3.11,2.17.23,1.19,2.41,1.15,3.7-.16,6.35-.5,12.69-.78,19h-.39c0,6-.08,12,0,18,.16,9.85,4,14.36,13.51,16.3,1.62.33,3.58,0,4.72,1.4,5.45,6.49,12.41,5.4,19.43,4.06,9.89-1.88,19.27-5.51,28.83-8.5,15.13-4.73,30.71-8.28,44.93-15.53,4.53-2.3,7.88-2.27,12.37.42,30.86,18.43,59.53,14.69,85.84-10.88,1.86-1.81,2.74-1.41,4.3.34,9.42,10.68,22.64,12.63,34.69,5.27S458.64,351.94,448.29,342.34Zm-260.93-199c-2.56,17.49-7.93,33.75-19.18,47.65-4.78,5.9-10.32,11-18,12.95-6.56,1.68-9.14.36-11.72-5.89-3.05-7.37-3.61-15.19-3.91-23.72,1-17.9,5.32-35.27,18-49.66A36.87,36.87,0,0,1,166,114.52c6.86-2.84,12-1.31,15.91,5,4.54,7.29,6.72,15,5.43,23.83Zm192.27,9.92c3.18-1,6.44-1.68,9.48-2.45,1.35-.08,2.47.37,2.13,1.58a11.48,11.48,0,0,1-6.55,7.72c-2.85,1.2-4.3-1.8-5.82-3.67-1-1.22-1-2.65.76-3.17Zm-44.45,36.19c.09-1.11-.26-2.58,1.1-3s2.05.8,2.93,1.52a18.14,18.14,0,0,1,1.84,1.66c1.52,1.65,5,2.3,4.43,4.81s-3.9,1.92-6,2.57c-4.29,1.34-4.62.85-4.31-5.06,0-.84-.06-1.67,0-2.49Zm-35.58,88.2c-5.85-3.6-12.15-3.28-18.45-2.16-9,1.61-18,3.44-27,5.37-4,.85-5.36-.56-4.74-4.81-.34-4.47,1.75-6.93,6.74-8.32,13-3.62,26.11-7.08,38.58-12.41,1.54-.65,3.69-1.66,4,.84.84,6.47,3.81,12.47,3.88,19.08,0,2.15-.26,4.11-3,2.42Zm3.51-66c-3.51-4.31-9.37-3.72-14.6-2.81C276.66,211,265,214,253.39,217c-1.29.34-2.57.71-3.88,1-2.54.52-4-.19-3.17-3.77,2.35-12.67,2.41-26.24,3.9-39.67.15-1.38-.35-3.38,1.46-3.85,1.47-.38,2,1.46,3,2.34,5.18,4.94,8.93,5.72,15.29,2.33,2.51-1.34,3.69-.64,4.75,1.44a12.83,12.83,0,0,0,5.29,5.83c3,1.61,6.09,2.06,8.73-.68,2.8-2.91,3.68-1.51,4.36,1.58a39.69,39.69,0,0,0,5.44,13.36c4,6.13,9.2,10.1,17.08,8.75,1.14-.2,2.51-.58,3.05.86s-.75,2.06-1.6,2.81a31.91,31.91,0,0,0-2.73,2.19c-3.72,4-6.76,5.72-11.25.19Zm2,123.94a34,34,0,0,0-1.12,7.9c-.12,2.48-.82,3.74-3.59,3.4-14.55-1.76-28.6,1.6-42.64,4.58-13.6,2.88-10.61,2.58-10.71-8.81v-4c.39-15.26.4-15.19,16-18,13.8-2.53,27.55-5.28,40.85-9.93,5-1.75,9-4.4,11.18-9.27.93-2.06,2.17-3,4.26-1.77,12.86,7.77,27.63,10.86,41.22,16.84,6.83,3,12.89,7.07,17.29,13.24,3.27,4.58,3,7.59-1.09,11.45-8.4,8-16.23,7.47-23.4-1.72-2.36-3-4.37-6.33-6.73-9.35-4.56-5.81-8.47-6.53-14.69-2.67-1.7,1-2.9,1.77-4.87.3-8.8-6.53-18.7-3-21.92,7.87ZM208.88,218.7c3.31.93,5.9,4.63,8.59,7.37.61.62-6.46,5.59-8.21,5.28-2.92-.5-4.09-3-5.33-5.36C205,222.89,206.91,218.14,208.88,218.7Z" transform="translate(-0.03 0.02)" style="fill:#fff;stroke:#fff;stroke-linecap:round;stroke-linejoin:round;stroke-width:28px"/><path d="M490.88,199.09a7.27,7.27,0,0,1-5.76-5.34c-2-6.18-6.6-9.88-12.89-11.44-13.45-3.34-26.16,2.38-32.34,14.76a63.67,63.67,0,0,0-4.45,11.13c-7.3,25.65-9.17,52.17-12.07,72.69-.72,22.1-.72,22.1,9.12,35,7.24,9.47,15.33,9.95,23.61,1.22a79,79,0,0,0,11.52-15.72c8.91-15.86,16.33-32.48,24.27-48.83,5-10.36,9.88-20.84,12.12-32.23C506.36,208.38,502.51,202.17,490.88,199.09Z" transform="translate(-0.03 0.02)" style="fill:#fff;stroke:#fff;stroke-linecap:round;stroke-linejoin:round;stroke-width:28px"/><path d="M97.05,88.45c1-.37,2.42-.92,2.12-2.39s-1.81-1.85-3-2.37C87,79.82,81.53,72.8,78.8,63.5c-1.08-3.68-1.72-7.48-2.54-11.24-1.08-5-2.15-9.95-3.37-15.63-2.57,2-2.25,3.78-2.5,5.37-1.13,7.1-2.34,14.18-3.31,21.3C65.63,74,61.21,82.39,50.64,86.57c-.88.35-2,.79-1.94,2S50,90,50.89,90.27c8.22,2.46,11.9,8.73,13.67,16.46,2.09,9.11,4,18.27,6,27.41.27,1.22.17,3.05,2,2.85,1.32-.14,1.31-1.73,1.56-2.84,1.46-6.69,2.63-13.45,4.42-20.05C81.47,103.3,85.05,92.8,97.05,88.45Z" transform="translate(-0.03 0.02)" style="fill:#fff;stroke:#fff;stroke-linecap:round;stroke-linejoin:round;stroke-width:28px"/><path d="M66.88,219.5c-7.59-2.16-12.19-7.35-14.48-14.64a197.36,197.36,0,0,1-6.29-25.22c-.35-2-.33-4.26-2.38-5.61-1.35,1.2-1.22,2.63-1.26,3.91-.18,5.87-1.36,11.6-2.42,17.34-2.3,12.53-7.79,22.39-21.67,24.94a10.43,10.43,0,0,0-2.35.83c-.87.4-2.09.61-2,1.87s1.29,1.48,2.18,1.76c15,4.84,21.34,16.41,24.55,30.81,1.05,4.67,1,9.84,3.74,14.27.71-.51,1.13-.64,1.21-.89.83-2.7,1.69-5.39,2.38-8.13,3.56-14.21,7.57-28.1,20.36-37.34C71.31,221.32,69,220.1,66.88,219.5Z" transform="translate(-0.03 0.02)" style="fill:#fff;stroke:#fff;stroke-linecap:round;stroke-linejoin:round;stroke-width:28px"/><path d="M515.26,98c-.17-1.25-1.31-1.34-2.29-1.46-3.31-.43-6.63-.74-9.92-1.28-8.74-1.41-13.86-6.49-15.7-15.21A72.64,72.64,0,0,1,485.5,66.2c0-1.49.52-3.27-1.21-4.74-2.6,8-2.66,16-4.52,23.82-1.95,8.18-6.18,13.87-14.66,15.92-1.48.36-3.8.11-3.91,2.33-.1,2,2.12,2.43,3.52,3.1,10.11,4.8,14.68,12.9,15.21,23.91.33,6.93,1.5,13.82,2.44,22a22.23,22.23,0,0,0,3.24-9.16c3.38-18,9.81-34,27.4-43a9.29,9.29,0,0,0,.85-.53C514.56,99.47,515.39,99,515.26,98Z" transform="translate(-0.03 0.02)" style="fill:#fff;stroke:#fff;stroke-linecap:round;stroke-linejoin:round;stroke-width:28px"/><path d="M121.75,169.18c.68-21.81,7.15-41.62,20.76-58.86,4.92-6.24,10.84-11.36,18.53-14,9.23-3.18,17.61-.53,23.52,7.28A38.68,38.68,0,0,1,192,124.06c2.27,26.68-5.1,50.49-22.3,71.11a44.27,44.27,0,0,1-7,6.47c-16,12.35-32.79,6.79-38.5-12.63A67.06,67.06,0,0,1,121.75,169.18Zm12.53,4c.3,8.53.86,16.35,3.91,23.72,2.58,6.25,5.16,7.57,11.72,5.89,7.64-1.95,13.18-7,18-12.95,11.25-13.9,16.62-30.16,19.18-47.65,1.29-8.81-.89-16.54-5.4-23.82-3.91-6.31-9.05-7.84-15.91-5a36.87,36.87,0,0,0-13.47,10.15c-12.71,14.41-17,31.78-18,49.68Z" transform="translate(-0.03 0.02)" style="fill:#474747;stroke:#474747;stroke-miterlimit:10;stroke-width:0.75px"/><path d="M427.67,287.62c0,6.06-.13,12.15,2.89,17.63,4.14,7.52,11.63,7.82,16.29.67a44.92,44.92,0,0,0,4.33-8.45c9.19-24.18,17.67-48.61,25.93-73.12,2.62-7.76,5-15.58,4.14-24-1-9.26-5.65-13.9-14.87-14.39-10-.54-17.52,3.3-22.08,12.44a64.34,64.34,0,0,0-5.2,13.53C433.08,236.83,430.5,262.24,427.67,287.62Z" transform="translate(-0.03 0.02)" style="fill:#ace3fc"/><path d="M362.17,192.5c14,1.59,25.41-4.66,34.68-14.67,8.13-8.8,13.9-19.19,18.13-30.38,3.73-9.88,6.51-20,6.64-30.69.09-6.43-.35-7-6.57-7.08-4.17-.07-8.35,0-10.71,0-11,1-20.17,1.29-29.23,3A23.48,23.48,0,0,0,365,116.85c-4.56,3.51-7,10.09-5.42,14.66,1.49,4.41,5.39,6.49,12.4,6.39a53.44,53.44,0,0,0,7.48-.66c5.28-.83,10.55-1.74,15.8-2.78,4.15-.83,5.55.69,4.89,4.8a38.44,38.44,0,0,1-14,24.67c-12.52,10.16-26.5,6.8-33-8a32.46,32.46,0,0,1-2.37-7.11c-5.9-31.71.55-61,17.55-88.15a31,31,0,0,1,12.49-11.34c8.64-4.33,17.08-1.91,22.08,6.33a40.51,40.51,0,0,1,4.27,11.19c1,3.88,2,7.8,4.26,11.17,4.08,6,9.75,6,13.68,0a22.94,22.94,0,0,0,2.15-4.5c3-8.1,2.75-16.51,1.51-24.78-3.16-21.2-20.93-33.43-41.82-29-19,4.05-33.86,14.63-43.83,31-23.18,38-27,78-9.52,119.35C338.81,182.54,348.41,190.93,362.17,192.5Z" transform="translate(-0.03 0.02)" style="fill:#e077bd"/><path d="M202.47,237.82a12.33,12.33,0,0,0-9.66-9.14c-4.77-1.13-8.13,1.23-10.59,4.95A73.32,73.32,0,0,0,176.13,244a450.15,450.15,0,0,0-21.24,56.14c-.36,1.21-.13,3-1.64,3.42-1.79.5-2.53-1.27-3.45-2.37-7.32-8.68-14.4-17.58-22-26.06-7.2-8.09-13.13-17.4-22-23.87-6.55-4.75-13.42-5.24-17.63-1.68-3.88,3.28-4.62,9.56-1.4,16.81a255.52,255.52,0,0,0,24.44,42.48c8.87,12.74,17.53,25.63,26.3,38.45a8.54,8.54,0,0,1,1.54,7.09c-1.38,5.85-2.52,11.75-4,17.58-4,16.05-8,32.08-9,49.23.15,2.3-.07,5.23.6,7.94,1.15,4.63,2,9.88,7.9,11,3.73.75,7.12-2.8,9.33-9.63,6-18.74,13-37.15,19.23-55.85,12.41-37.37,24.71-74.78,36.53-112.34C202.12,254.45,204.87,246.37,202.47,237.82Z" transform="translate(-0.03 0.02)" style="fill:#ace3fc"/><path d="M220.31,135.9c.54,17.26-3,33.77-8.39,50.11-3.24,9.8-1.94,19.92,2.66,29.18,3.16,6.36,9.55,6.32,13.48.38a21.4,21.4,0,0,0,2.39-4.93,94.93,94.93,0,0,0,4.08-18.56c2.72-20.41,3.3-41,3.74-61.51,0-1.94-.61-4.18,1.53-6.28l.92,2.8c4.41,12.76,7.64,26,14.31,37.87,5,8.81,11.38,8.71,16.62.09a56.78,56.78,0,0,0,3-5.8c4.44-9.59,7-19.8,10.11-29.85,2.38-7.74,4.82-15.46,7.57-24.27a8.68,8.68,0,0,1,1.26,6.22,311.74,311.74,0,0,0,1.34,54.56c1,9.47,2.17,19,7.32,27.34,3.28,5.32,8.06,8,11.82,6.49,5.28-2.11,5.25-6.94,5.07-11.46q-2.25-58.36-4.77-116.7c-.29-6.47-.89-13-3.62-19.1-2.61-5.8-7-7.32-12.71-4.47a30.27,30.27,0,0,0-10.75,9.58c-4.46,6.11-7.55,13-10.56,19.86-4.68,10.73-8.14,21.9-11.91,33-.36,1.06-.32,2.6-1.86,2.57s-1.71-1.41-2-2.52c-.79-2.55-1.5-5.12-2.31-7.67-3.88-12.24-7.16-24.7-12.18-36.56-1.45-3.44-2.76-7.77-7.4-7.95-4.4-.16-6.46,3.68-8.58,6.86-3.37,5.06-5.28,10.79-6.88,16.58-4.15,15-8.56,29.93-3.92,45.72C220.37,130.1,220.23,133.06,220.31,135.9Z" transform="translate(-0.03 0.02)" style="fill:#e077bd"/><path d="M301,351.4c-5.44-1.64-10.94-1-16.43-.49-16.35,1.67-32.21,5.86-48.17,9.5-5.62,1.29-6,1.14-5.86-4.85q.27-17,.69-34.09c.2-8.32.26-8.5,8.52-9.93,15.16-2.62,30.27-5.38,44.91-10.26,3.81-1.27,7.71-2.37,10.94-4.88a9.9,9.9,0,0,0,3.81-11.09c-1.2-4.37-4.5-6-8.65-6.33a52,52,0,0,0-14.45,1.21c-13.6,2.76-27.21,5.45-40.77,8.36-4,.87-5.59-.25-5.33-4.42.35-5.51.32-11,.55-16.54.68-16.18.77-15.93,16.42-20.41s31.38-8.31,46.29-14.82c8-3.49,10.88-8.35,9-14.09-1.64-5-6-6.7-14.53-5.24-12.87,2.2-25.47,5.59-38.07,8.93-11.15,3-22.21,6.22-33,10.19-4.45,1.63-7.35,4.24-6.74,9.7.33,2.92-.52,6-.79,9-.78,8.31-4.68,15.92-4.7,24.52-.06,16-1,32.08-1.51,48.12H203q-.9,22.8-1.79,45.6a61.55,61.55,0,0,0,1.06,13.48c.85,4.64,3.77,7.31,8.18,8.48,3,.8,6,.26,8.93-.4,20.56-4.59,41-9.59,61.23-15.49,8-2.33,16.15-4.51,23-9.59,2.64-1.95,4.82-4.42,4.07-8S304.21,352.37,301,351.4Z" transform="translate(-0.03 0.02)" style="fill:#ace3fc"/><path d="M440.28,343.81c-1.52-6.64-7.81-11.31-16.11-11.28-2.8.83-7.62-.19-8.87,5a75.46,75.46,0,0,1-4.11,12.26c-1.06,2.47-1.08,4.76.68,7,4,5.14,12.86,7.14,19.14,4.2S441.7,350,440.28,343.81Z" transform="translate(-0.03 0.02)" style="fill:#ace3fc"/><path d="M410.83,318.07c-1.6-15-8.24-26.64-22.84-32.71a110.8,110.8,0,0,0-19.05-6.15c-10.11-2.19-20.5-3.43-30-7.83-10-4.63-17.09-11.88-18.06-23.38s6.31-22.29,17.89-27.72c9.57-4.49,21.26-2.48,29.64,5.65,4.06,3.93,7.37,8.63,11.13,12.88,2.38,2.68,5.37,4,9,2.85a9.38,9.38,0,0,0,6.72-7.4A22.63,22.63,0,0,0,394,221.45c-5.3-14.19-19.07-22.76-37.61-22.65-1.11.08-3.62.17-6.1.45-28,3.16-48.66,25.3-47.15,51.76,1.21,21.17,8.44,31,27.45,36.39,9.32,2.66,18.5,5.81,27.72,8.78,8,2.58,15.43,6.22,21.53,12.33,11.57,11.59,8.66,31.75-5.82,39.29-17.77,9.25-35.85,4.63-47-12-.74-1.11-1.43-2.26-2.2-3.36-4.19-6-8.63-6.18-13.22-.4a13.85,13.85,0,0,0-3,7.81c-.72,10.8,4.66,18.34,13.4,23.46,15.21,8.91,31.38,12.84,49.05,8.37C398.06,364.85,413.47,342.85,410.83,318.07Z" transform="translate(-0.03 0.02)" style="fill:#ace3fc"/><path d="M140.5,239.93c14.55,1.55,27-4.2,37.61-13.52,25.63-22.48,35.86-51.89,37.25-81.3-.28-22.16-3.4-39.72-15.14-54.67C188.94,76.06,172.41,70.93,155,76.34,143.49,79.92,134.24,87,126.25,95.73,113.6,109.61,105.47,126,101,144.08c-5.46,22.2-6.06,44.4,3.14,65.88C111,226.05,122,238,140.5,239.93Zm2-129.36c4.93-6.24,10.84-11.36,18.53-14,9.24-3.18,17.61-.53,23.53,7.28A38.68,38.68,0,0,1,192,124.32c2.26,26.68-5.1,50.5-22.3,71.11a44.71,44.71,0,0,1-7,6.47c-16,12.35-32.79,6.79-38.5-12.63a67.06,67.06,0,0,1-2.45-19.83c.7-21.82,7.16-41.63,20.77-58.87Z" transform="translate(-0.03 0.02)" style="fill:#e077bd"/><path d="M73,63c-.72,1.07-1.15,1.44-1.25,1.88-1.72,8-3.21,16.09-9.85,22-1.38,1.21-.43,2.79.61,4,4.87,5.66,6.85,12.49,8,19.68.19,1.24,0,3.09,1.72,3.17s1.61-1.8,2-3c2.45-8.57,5.09-17,12.75-22.66,2.45-1.82,1-3.45-.89-4.71a21.67,21.67,0,0,1-7.62-8.47C76.56,71.19,74.93,67.4,73,63Z" transform="translate(-0.03 0.02)" style="fill:#eab9e5"/><path d="M45.45,249.09c3.39-9.43,7.14-17.91,13.53-24.93,1.75-1.92.38-3.32-1.26-4.47a23,23,0,0,1-8.19-9.86c-1.54-3.59-2.85-7.27-4.44-11.36a9.64,9.64,0,0,0-1.38,1.92c-2.82,8.59-6.88,16.13-15.26,20.77-3,1.69-.35,3.3,1.22,4.37,5.88,4,9.46,9.73,12.08,16.15C42.68,244,43,246.51,45.45,249.09Z" transform="translate(-0.03 0.02)" style="fill:#eab9e5"/><path d="M484.17,124.85c.56-.06.81,0,.85-.1,4.27-8.61,8.14-17.44,16.35-23.39,1.93-1.4.14-2.5-1.51-2.87-5.6-1.24-10.21-3.95-13.42-8.81-1.28-1.92-2.4-2.13-3.41.29-1.81,4.35-4.14,8.31-8.11,11.15-2.18,1.56-1,3.12.56,4.45a22.15,22.15,0,0,1,6.09,8.39C483.1,117.45,483.21,121.29,484.17,124.85Z" transform="translate(-0.03 0.02)" style="fill:#eab9e5"/><circle cx="431.11" cy="345.93" r="5.63" style="fill:#e6fdff"/><path d="M466.14,220.07c7.47-6.31,5.76-17.81,1.92-22.08-9.26-10.31-22.89,6.73-9.49,13.07C469.06,216,461.56,221.26,466.14,220.07Z" transform="translate(-0.03 0.02)" style="fill:#e6fdff"/><path d="M410.19,34.49c10.58,4.19,12.3,18.46,5.66,22.16a6.39,6.39,0,0,1-5.05.3,6,6,0,0,1-3.29-7.23c2.12-8.63-7-10.36-9.67-11.09-2.22-.61-3-1.52-2.38-3.17C396.23,33.28,403.11,31.68,410.19,34.49Z" transform="translate(-0.03 0.02)" style="fill:#eab9e5"/><path d="M398.69,96.9c-3-4.93-10.7-.25-7.67,4.69S401.71,101.85,398.69,96.9Z" transform="translate(-0.03 0.02)" style="fill:#eab9e5"/><path d="M124.27,112.9c-2-3.25-7-.17-5,3.09S126.26,116.15,124.27,112.9Z" transform="translate(-0.03 0.02)" style="fill:#eab9e5"/><path d="M285.13,103.44c-3-4.94-10.7-.26-7.67,4.69S288.15,108.38,285.13,103.44Z" transform="translate(-0.03 0.02)" style="fill:#eab9e5"/><path d="M300.38,56.34c-14-4.35-16.5,38.69-15,37.68C287.26,93.81,309.51,59.18,300.38,56.34Z" transform="translate(-0.03 0.02)" style="fill:#eab9e5"/><path d="M156.31,84c-4.32-2.55-11.37,1.92-14.7,4.51-4.27,3.33-13.6,15.71-12.44,16.63,14.65-10.13,18.79-7,25.1-10.8C157.67,92.31,161,86.78,156.31,84Z" transform="translate(-0.03 0.02)" style="fill:#eab9e5"/><path d="M118.47,123c-1.27-2.08-4.51-.11-3.23,2a1.9,1.9,0,0,0,3.23-2Z" transform="translate(-0.03 0.02)" style="fill:#eab9e5"/><path d="M194.83,242.06c-15.3-8.58-13.07,15.16-16.3,31.43C176.8,282.18,204.56,252.55,194.83,242.06Z" transform="translate(-0.03 0.02)" style="fill:#e6fdff"/><circle cx="174.83" cy="287.12" r="4.26" style="fill:#e6fdff"/><circle cx="319.12" cy="340.29" r="4.26" style="fill:#e6fdff"/><path d="M291.57,219.11c.2-6.53-33.7,9.21-22.73,8C281.29,225.66,293.8,225,291.57,219.11Z" transform="translate(-0.03 0.02)" style="fill:#e6fdff"/><path d="M268.3,294.28c6,.11,29.44,1.28,16.06-6.73C276.59,282.89,262.25,294.18,268.3,294.28Z" transform="translate(-0.03 0.02)" style="fill:#e6fdff"/><path d="M259.13,226.21c-2.93,0-2.93,4.56,0,4.56S262.07,226.21,259.13,226.21Z" transform="translate(-0.03 0.02)" style="fill:#e6fdff"/><path d="M251,230a1.14,1.14,0,1,0,1,1A1.14,1.14,0,0,0,251,230Z" transform="translate(-0.03 0.02)" style="fill:#e6fdff"/><path d="M256.93,292.77c-2.93,0-2.94,4.56,0,4.56S259.87,292.77,256.93,292.77Z" transform="translate(-0.03 0.02)" style="fill:#e6fdff"/><path d="M423.06,279.75c2.9-20.52,4.77-47,12.07-72.69a65.6,65.6,0,0,1,4.45-11.13c6.18-12.38,18.89-18.1,32.34-14.76,6.29,1.56,10.87,5.26,12.89,11.44a7.27,7.27,0,0,0,5.76,5.34c11.63,3.08,15.48,9.29,13.13,21.21-2.24,11.39-7.1,21.87-12.12,32.23-7.94,16.35-15.36,33-24.27,48.83a79,79,0,0,1-11.52,15.72c-8.28,8.73-16.37,8.25-23.61-1.22C422.35,301.85,422.35,301.85,423.06,279.75Zm4.64,7.62c0,6.06-.12,12.15,2.89,17.62,4.14,7.53,11.63,7.83,16.29.68a44.92,44.92,0,0,0,4.33-8.45c9.19-24.18,17.67-48.62,25.93-73.13,2.62-7.75,5-15.57,4.14-24-1-9.26-5.65-13.9-14.87-14.4-10-.53-17.52,3.31-22.08,12.45a64.34,64.34,0,0,0-5.2,13.53C433.11,236.58,430.53,262,427.7,287.37Z" transform="translate(-0.03 0.02)" style="fill:#474747;stroke:#474747;stroke-miterlimit:10;stroke-width:0.75px"/><path d="M72.58,35.49C73.8,41.17,74.87,46.15,76,51.12c.82,3.76,1.46,7.56,2.54,11.24,2.73,9.3,8.23,16.32,17.35,20.19,1.21.52,2.72.89,3,2.37s-1.08,2-2.12,2.39c-12,4.35-15.58,14.86-18.52,25.65-1.79,6.6-3,13.36-4.42,20-.25,1.11-.24,2.7-1.56,2.84-1.86.2-1.76-1.63-2-2.85-2-9.14-3.87-18.3-6-27.41-1.77-7.73-5.45-14-13.67-16.46-.91-.27-2.13-.44-2.19-1.7s1.06-1.65,1.94-2c10.57-4.18,15-12.62,16.44-23.27C67.74,55,69,48,70.08,40.86,70.33,39.27,70,37.46,72.58,35.49Zm.18,27.35c-.72,1.07-1.15,1.44-1.25,1.88-1.73,8-3.21,16.09-9.86,22-1.37,1.21-.42,2.79.62,4,4.87,5.67,6.84,12.5,8,19.69.19,1.24,0,3.09,1.72,3.17s1.61-1.8,2-3c2.45-8.57,5.09-17,12.75-22.67,2.45-1.81,1-3.45-.89-4.7a21.84,21.84,0,0,1-7.63-8.47C76.36,71,74.74,67.2,72.76,62.84Z" transform="translate(-0.03 0.02)" style="fill:#474747;stroke:#474747;stroke-miterlimit:10;stroke-width:0.75px"/><path d="M44.16,268.62c-2.75-4.43-2.69-9.6-3.74-14.27-3.21-14.4-9.53-26-24.55-30.81-.89-.28-2.12-.54-2.18-1.76s1.16-1.47,2-1.87a10.43,10.43,0,0,1,2.35-.83c13.88-2.55,19.37-12.41,21.67-24.94,1.06-5.74,2.24-11.47,2.42-17.34,0-1.28-.09-2.71,1.26-3.91,2,1.35,2,3.6,2.38,5.61a197.36,197.36,0,0,0,6.29,25.22C54.38,211,59,216.2,66.57,218.36c2.14.6,4.43,1.82,1.54,3.9-12.79,9.24-16.8,23.13-20.36,37.34-.69,2.74-1.55,5.43-2.38,8.13C45.29,268,44.87,268.11,44.16,268.62Zm1.09-19.73C48.65,239.45,52.4,231,58.79,224c1.75-1.92.38-3.32-1.26-4.47a23.13,23.13,0,0,1-8.19-9.86c-1.54-3.59-2.85-7.28-4.44-11.36a9.36,9.36,0,0,0-1.38,1.92c-2.82,8.59-6.88,16.12-15.26,20.77-3,1.69-.35,3.3,1.22,4.37,5.88,4,9.46,9.73,12.08,16.15C42.48,243.75,42.79,246.3,45.25,248.89Z" transform="translate(-0.03 0.02)" style="fill:#474747;stroke:#474747;stroke-miterlimit:10;stroke-width:0.75px"/><path d="M482.06,151.45c-.94-8.19-2.11-15.08-2.44-22-.53-11-5.1-19.11-15.21-23.91-1.4-.67-3.62-1.07-3.52-3.1.11-2.22,2.43-2,3.91-2.33,8.48-2,12.71-7.74,14.66-15.92,1.86-7.77,1.92-15.87,4.52-23.82,1.73,1.47,1.19,3.25,1.21,4.74A73,73,0,0,0,487,79c1.84,8.73,7,13.8,15.7,15.22,3.29.53,6.61.84,9.92,1.27,1,.12,2.12.21,2.29,1.46.13,1-.7,1.43-1.4,1.88-.28.18-.55.38-.85.54-17.59,8.93-24,25-27.4,43A22.22,22.22,0,0,1,482.06,151.45Zm1.91-26.8c.57-.07.82,0,.85-.11,4.28-8.6,8.15-17.43,16.35-23.38,1.94-1.4.15-2.51-1.51-2.87a20.85,20.85,0,0,1-13.42-8.81c-1.27-1.92-2.39-2.13-3.4.29-1.81,4.35-4.14,8.31-8.11,11.15-2.18,1.56-1,3.12.56,4.45a22.15,22.15,0,0,1,6.09,8.39c1.53,3.49,1.62,7.33,2.62,10.89Z" transform="translate(-0.03 0.02)" style="fill:#474747;stroke:#474747;stroke-miterlimit:10;stroke-width:0.75px"/><path d="M196.52,362.09c.28-6.35.62-12.69.78-19,0-1.29,1-3.47-1.15-3.7-1.52-.16-1.54,1.88-1.94,3.11-7.27,22.57-15.32,44.86-23.79,67-3.88,10.14-8.1,20.14-12.23,30.18a17.67,17.67,0,0,1-4.44,6.6c-2.33,2.08-5.48,4.23-8.11,2.61C141,446,135.74,445.8,131,444c-5.83-2.25-8-7.85-8.9-13.64-2-12.82.54-25.33,3.17-37.75,2.52-11.92,5.61-23.72,8.5-35.56a10.55,10.55,0,0,0-1.54-9c-8.89-12.95-17.6-26-26.49-39-9.46-13.8-18.29-28-24.24-43.69-2.64-7-2.77-14.07,3.32-19.44s13.4-4.54,20.15-1c3.33,1.77,5.73,2,9.06-.16,4.25-2.76,8.71-1.13,12.71,1.4s6.67,6.06,9.45,9.61a196.72,196.72,0,0,1,15.57,22.72c.55,1,.79,2.44,2.34,2.2,1.36-.21,1.64-1.48,2-2.6,2.8-7.86,5.52-15.75,8.48-23.54,1.24-3.27,1-4.9-3-5.28-10.32-1-20.33-3.92-30.2-6.67-17.34-4.84-27.91-18-33-34.45-14.23-45.94-3.24-86.31,29.45-121a59.13,59.13,0,0,1,25.42-15.59c12.35-3.94,24.39-3.34,35.92,2.93,2.09,1.14,4.09,2,6.62,1.68a21,21,0,0,1,18,5.81c2.66,2.54,3.94,2.34,5-1.4a72.11,72.11,0,0,1,5.85-15.43,28.91,28.91,0,0,1,8.14-10c2.79-2,6.28-4,9.31-2.23,5.16,2.95,9.2,7,15.87,2.07,2.46-1.8,5.76,2.48,6.78,5.85,1.41,4.62,2.43,9.37,3.68,14,.28,1.2-.19,3.2,1.61,3.2,1.38,0,1.91-1.69,2.42-2.92a112.39,112.39,0,0,1,8.5-17c3.78-6,8.4-11.27,14.83-14.6,6.72-3.5,12-2.59,17.12,2.93,1.42,1.51,2.36,2.88,4.95,1.43,5.95-3.34,9.15-2.56,12.33,3.31,2.51,4.62,3.87,2.61,5.68-.26,9.42-15,21.74-26.69,38.35-33.27,14-5.55,28.14-7.5,41.85,1.2a9.74,9.74,0,0,0,4.83,1.1c14.3,1.2,21.66,7.63,24.75,21.88,2.89,13.33,2.69,26.55-2.14,39.47a17.9,17.9,0,0,1-7.78,9.51c-3.85,2.27-7.59,2.39-11-.89a6.34,6.34,0,0,0-3.76-2.21c-10.93-1.29-15-4.85-17.9-15.48-.8-2.9-1.5-5.83-2.45-8.68-2-5.89-3.61-6.38-8.5-2.7a43.16,43.16,0,0,0-10,11.13,97,97,0,0,0-12.6,30.4c-1.11,4.59-.13,5.48,4.33,4.75a262.94,262.94,0,0,1,47.4-3.1c4,.09,6.07,1.66,5.82,5.65s1.68,5.06,5.43,5.07c11.09,0,11.33.8,9.57,11.92-3.56,22.5-13.82,41.66-28.48,58.71-6.24,7.26-13.74,12.72-23.25,14.88-4.48,1-3.72,2.78-1.11,5.21a36.23,36.23,0,0,1,11,19.83c1.15,5.68.56,11-2.87,15.77a13.15,13.15,0,0,0-2.16,6.53c-1.17,9.74-10.45,15.27-19.58,11.78-5.19-2-9-5.69-12.22-10.06A64,64,0,0,0,353.42,238c-8.48-7.09-20.06-3.23-22.76,7.53-2.45,9.73,1,17.11,10.25,21.26,7.37,3.33,15.3,4.74,23.18,6.26,10.72,2.07,21.16,4.92,30.82,10.17,5.71,3.11,10.78,7.12,13.67,12.9,4.3,8.6,8.77,17.18,11.58,26.43.77,2.54,1.84,3.52,4.53,3.42,9.43-.33,16.32,3.86,20.77,12.18a12.36,12.36,0,0,0,2.52,3.06c10.35,9.59,8.87,24.44-3.21,31.81s-25.27,5.41-34.69-5.27c-1.56-1.75-2.44-2.15-4.3-.34-26.31,25.57-55,29.31-85.84,10.88-4.49-2.69-7.84-2.72-12.36-.41-14.23,7.24-29.81,10.79-44.94,15.52-9.56,3-18.94,6.62-28.83,8.5-7,1.34-14,2.43-19.43-4.06-1.14-1.36-3.1-1.07-4.72-1.4-9.55-1.94-13.35-6.45-13.51-16.3-.1-6,0-12,0-18.05Zm95.79-257.21a8.73,8.73,0,0,1,1.27,6.22,310.77,310.77,0,0,0,1.33,54.56c1,9.47,2.18,19,7.33,27.34,3.28,5.32,8.06,8,11.81,6.49,5.28-2.11,5.25-6.94,5.08-11.46q-2.26-58.36-4.78-116.7c-.29-6.47-.88-13-3.62-19.1-2.61-5.8-7-7.32-12.71-4.47a30.1,30.1,0,0,0-10.75,9.58c-4.45,6.11-7.55,13-10.56,19.86-4.68,10.73-8.14,21.9-11.91,33-.36,1.06-.32,2.59-1.85,2.57s-1.72-1.41-2.06-2.52c-.79-2.55-1.5-5.13-2.3-7.67-3.89-12.25-7.16-24.7-12.18-36.56-1.41-3.49-2.77-7.82-7.41-8-4.41-.16-6.47,3.68-8.59,6.85-3.37,5.06-5.28,10.79-6.88,16.59-4.15,15-8.56,29.93-3.92,45.72.79,2.67.64,5.63.73,8.47.53,17.26-3,33.77-8.4,50.11-3.24,9.8-1.93,19.92,2.67,29.18,3.16,6.36,9.54,6.32,13.48.38a22.68,22.68,0,0,0,2.39-4.93,94.91,94.91,0,0,0,4.07-18.56c2.73-20.41,3.3-41,3.74-61.51,0-1.94-.61-4.18,1.53-6.28l.92,2.8c4.41,12.76,7.65,26,14.31,37.87,4.95,8.81,11.38,8.7,16.63.08a57.27,57.27,0,0,0,2.95-5.79c4.43-9.59,7-19.81,10.1-29.85C287.12,121.41,289.56,113.68,292.31,104.88ZM203.09,323.19H203l-1.8,45.6a61.46,61.46,0,0,0,1.06,13.47c.85,4.65,3.78,7.32,8.18,8.49,3,.8,6,.26,8.94-.4,20.55-4.6,41-9.59,61.22-15.49,8-2.33,16.15-4.51,23-9.59,2.64-2,4.82-4.43,4.07-8s-3.46-5.13-6.67-6.1c-5.43-1.64-10.93-1-16.43-.49-16.35,1.67-32.2,5.86-48.16,9.5-5.63,1.29-6,1.13-5.87-4.85q.27-17,.7-34.09c.2-8.32.25-8.5,8.51-9.93,15.16-2.62,30.28-5.38,44.91-10.26,3.81-1.27,7.71-2.38,10.94-4.88,3.66-2.83,5.06-6.56,3.81-11.09-1.2-4.37-4.5-6-8.65-6.33A52,52,0,0,0,276.31,280c-13.6,2.75-27.21,5.45-40.77,8.36-4,.87-5.59-.26-5.33-4.42.35-5.51.32-11,.55-16.55.68-16.17.77-15.93,16.42-20.4s31.38-8.31,46.29-14.82c8-3.49,10.88-8.35,9-14.09-1.65-5-6-6.7-14.54-5.24-12.86,2.2-25.46,5.59-38.07,8.93-11.15,3-22.21,6.22-33,10.19-4.44,1.63-7.35,4.23-6.74,9.7.33,2.92-.51,6-.79,9-.78,8.31-4.67,15.92-4.7,24.52C204.55,291.11,203.64,307.15,203.09,323.19ZM215.4,144.86c-.29-22.16-3.41-39.72-15.15-54.67C189,75.81,172.44,70.68,155,76.09c-11.51,3.58-20.75,10.61-28.74,19.39-12.65,13.88-20.78,30.25-25.24,48.35-5.47,22.2-6.06,44.4,3.13,65.87,6.89,16.1,17.83,28,36.36,30,14.55,1.55,27-4.2,37.61-13.52C203.77,203.68,214,174.27,215.4,144.86Zm189-35.44c-11,1-20.18,1.29-29.23,3A23.49,23.49,0,0,0,365,116.6c-4.55,3.51-6.95,10.09-5.41,14.66,1.48,4.41,5.39,6.49,12.4,6.39a53.43,53.43,0,0,0,7.47-.66c5.28-.83,10.56-1.74,15.8-2.78,4.15-.83,5.55.68,4.89,4.8a38.44,38.44,0,0,1-14,24.67c-12.53,10.16-26.51,6.8-33-8a33,33,0,0,1-2.37-7.11c-5.9-31.71.55-61,17.56-88.15a31,31,0,0,1,12.48-11.34c8.64-4.34,17.09-1.91,22.08,6.33a40.22,40.22,0,0,1,4.28,11.19c1,3.88,2,7.8,4.26,11.17,4.07,6,9.74,6,13.67,0a22.68,22.68,0,0,0,2.15-4.5c3-8.1,2.75-16.51,1.52-24.78-3.17-21.2-20.94-33.43-41.83-29-19,4.06-33.86,14.64-43.82,31-23.18,38-27,78-9.53,119.35,5.27,12.48,14.87,20.87,28.63,22.44,14,1.59,25.42-4.66,34.68-14.68,8.13-8.79,13.9-19.18,18.13-30.37,3.74-9.89,6.51-20,6.65-30.7.08-6.42-.36-7-6.58-7.07-4.2-.11-8.38,0-10.73,0ZM126.08,420.94c.14,2.3-.07,5.23.6,7.94,1.14,4.63,2,9.88,7.9,11.05,3.72.75,7.11-2.8,9.32-9.63,6.06-18.74,13-37.16,19.23-55.85,12.41-37.37,24.71-74.78,36.54-112.34,2.48-7.91,5.24-16,2.83-24.54a12.34,12.34,0,0,0-9.66-9.15c-4.77-1.12-8.12,1.24-10.59,5a75.56,75.56,0,0,0-6.09,10.34,451.58,451.58,0,0,0-21.24,56.13c-.36,1.22-.13,3-1.64,3.43-1.79.5-2.53-1.27-3.45-2.37-7.31-8.69-14.4-17.58-22-26.06-7.2-8.09-13.13-17.4-22-23.87-6.55-4.75-13.42-5.24-17.63-1.68-3.88,3.28-4.61,9.56-1.4,16.81a255.52,255.52,0,0,0,24.44,42.48c8.87,12.74,17.54,25.63,26.3,38.44a8.52,8.52,0,0,1,1.54,7.1c-1.37,5.85-2.52,11.75-4,17.58C131.15,387.76,127.09,403.78,126.08,420.94ZM356.46,198.55c-1.1.08-3.61.16-6.1.45-28,3.16-48.66,25.3-47.15,51.76,1.22,21.17,8.44,31,27.45,36.39,9.32,2.66,18.5,5.81,27.72,8.78,8,2.58,15.43,6.22,21.53,12.33,11.57,11.59,8.66,31.75-5.82,39.29-17.76,9.25-35.85,4.63-47-12-.74-1.11-1.43-2.26-2.19-3.36-4.2-6-8.64-6.18-13.22-.4a13.72,13.72,0,0,0-3.06,7.8c-.71,10.81,4.66,18.35,13.4,23.47,15.21,8.91,31.39,12.84,49.06,8.37,27-6.83,42.41-28.83,39.77-53.61-1.6-15-8.24-26.64-22.84-32.71A110.24,110.24,0,0,0,369,279c-10.11-2.19-20.5-3.43-30-7.83-10-4.64-17.09-11.88-18.06-23.38s6.32-22.29,17.89-27.72c9.57-4.49,21.26-2.48,29.65,5.65,4,3.93,7.36,8.62,11.12,12.87,2.38,2.69,5.38,4,9,2.86a9.38,9.38,0,0,0,6.72-7.41,22.5,22.5,0,0,0-1.21-12.8C388.77,207,375,198.44,356.46,198.55Zm-109.68,139v4c.1,11.39-2.88,11.69,10.71,8.81,14-3,28.09-6.34,42.65-4.58,2.76.34,3.46-.92,3.58-3.4a34,34,0,0,1,1.12-7.9c3.22-10.86,13.12-14.4,21.92-7.85,2,1.47,3.18.74,4.87-.3,6.22-3.86,10.13-3.14,14.69,2.67,2.36,3,4.37,6.32,6.73,9.35,7.17,9.19,15,9.73,23.4,1.72,4.05-3.86,4.36-6.87,1.09-11.45-4.4-6.17-10.46-10.23-17.29-13.24-13.59-6-28.36-9.07-41.22-16.84-2.09-1.27-3.33-.29-4.26,1.77-2.21,4.87-6.16,7.52-11.18,9.27-13.3,4.65-27,7.4-40.85,9.93-15.57,2.87-15.58,2.8-16,18.06ZM246,213.05c-.8,3.58.64,4.29,3.17,3.77,1.31-.27,2.59-.64,3.88-1,11.64-3,23.27-6,35.12-8.07,5.23-.92,11.09-1.51,14.6,2.8,4.49,5.53,7.53,3.77,11.2-.23a31.91,31.91,0,0,1,2.73-2.19c.85-.75,2.12-1.44,1.6-2.81s-1.91-1.06-3.05-.86c-7.88,1.35-13-2.62-17.08-8.75a39.69,39.69,0,0,1-5.44-13.36c-.68-3.08-1.56-4.49-4.36-1.58-2.64,2.74-5.69,2.29-8.73.68a12.83,12.83,0,0,1-5.29-5.83c-1.06-2.08-2.23-2.78-4.75-1.44-6.36,3.39-10.11,2.61-15.29-2.33-.92-.88-1.48-2.72-3-2.34-1.81.47-1.31,2.47-1.46,3.85C248.44,186.81,248.38,200.38,246,213.05Zm3.06,61.87c-.62,4.25.78,5.66,4.74,4.81,9-1.93,18-3.76,27-5.37,6.3-1.12,12.6-1.44,18.45,2.16,2.75,1.69,3-.27,3-2.41-.07-6.6-3-12.61-3.88-19.08-.32-2.5-2.47-1.49-4-.84-12.47,5.34-25.57,8.79-38.58,12.41-4.95,1.4-7,3.85-6.7,8.32ZM424.2,332.28c-2.8.83-7.62-.19-8.87,5a75.46,75.46,0,0,1-4.11,12.26c-1.05,2.47-1.08,4.76.68,7,4,5.14,12.86,7.14,19.14,4.2s10.69-11,9.27-17.23C438.79,336.92,432.5,332.25,424.2,332.28ZM203.62,224.85c1.24,2.39,2.41,4.86,5.33,5.36,1.75.31,8.82-4.66,8.21-5.28-2.69-2.74-5.28-6.43-8.59-7.37C206.6,217,204.66,221.75,203.62,224.85Zm131.23-34c-.31,5.91,0,6.4,4.31,5.06,2.11-.65,5.48-.08,6-2.57s-2.91-3.16-4.43-4.81a18.14,18.14,0,0,0-1.84-1.66c-.88-.72-1.7-1.92-2.93-1.52s-1,1.91-1.1,3c-.06.79,0,1.65,0,2.45Zm53.95-41.12c-3,.77-6.3,1.48-9.48,2.45-1.73.52-1.76,2-.76,3.18,1.52,1.87,3,4.87,5.82,3.67a11.52,11.52,0,0,0,6.56-7.72c.33-1.26-.79-1.71-2.14-1.63Z" transform="translate(-0.03 0.02)" style="fill:#474747;stroke:#474747;stroke-miterlimit:10;stroke-width:0.75px"/></g></g></svg>