<svg id="Layer_1" data-name="Layer 1" xmlns="http://www.w3.org/2000/svg" viewBox="0 0 293 548"><title>paraben-free</title><g id="Layer_2" data-name="Layer 2"><g style="opacity:0.12"><path d="M275.42,216.9c-3.41-9.52-8.24-18-16.77-23.94a14.07,14.07,0,0,0-5.34-2.27c-1.54-.3-2.74-.21-3.55,1.21s.06,2.59,1.08,3.59a65.55,65.55,0,0,1,7.34,8.28c6.23,8.62,6.42,17.66,1.32,26.72-4.89,8.67-13,11.16-22.41,10.43-6.72-.53-13.35-1.67-20-2.59-9.31-1.27-18.59-1.72-27.86.28a39.56,39.56,0,0,0-11.28,4.2,3.23,3.23,0,0,1-.07-.69c3.42-13.34,1.52-26.08-4.07-38.49a96.67,96.67,0,0,0-11.65-19.27c-1.07-1.39-1.35-2.14.64-3.07a48.94,48.94,0,0,0,12.94-9.4c5.23-5,8.73-10.94,9.77-18.19a53.33,53.33,0,0,0,.48-10.18c0-.77-.38-2,1-2,5.27,0,9.59-2.56,13.88-5.12a19.35,19.35,0,0,1,14.83-2.28c14.44,3.33,25.5-4,31.2-13.5a50,50,0,0,0,5.19-13.29c1.71-6.5,3.27-13,6.59-19a31.2,31.2,0,0,0,3.25-9.85c2.61-14.64-4.86-26.6-19.2-30.59a1.19,1.19,0,0,1-1.07-1.3h0C241,37.2,233,31.72,224.81,30.81c-6.33-.7-12.39.55-18.4,2.32-6.68,2-6.67,2-11.82-2.88-6.25-5.88-13.47-9.25-22.24-8a42.53,42.53,0,0,0-33.28,24.26l-.77-1.77c-3.42-7.93-9.67-12-18.3-11.6A35.24,35.24,0,0,0,94.68,45.31c-2.22,2.48-4.29,5.12-6.7,7.4a18.19,18.19,0,0,1-11,5.36c-8.15.85-14.4,5-17.91,12.67a4.55,4.55,0,0,1-2.89,2.79A24,24,0,0,0,42.82,84.09c-1.56,2.68-2.72,5.64-1.61,8.69.63,1.73.16,2.33-1.12,3.22-7.09,4.93-12.85,11-16,19.22-3.23,8.41-3.22,16.27,3.81,23a2.29,2.29,0,0,1,.52,2.18,22.14,22.14,0,0,0,1.44,10.86c3.17,7.46,10.81,11.82,20.21,11.39,1.76-.08,2.17.3,2,2a38.66,38.66,0,0,0,3.4,19.46c5.65,12,15.62,17.92,28.22,20.32q15,2.88,24.41-9c1.87-2.38,3.6-4.89,5.34-7.38a36.57,36.57,0,0,1,4.18-5.26c4.13-4,5.42-4.21,10.43-1.61,5.6,2.91,11.38,5,17.81,4.77a1.86,1.86,0,0,1,1.78,1c4.89,7.25,10.16,14.27,13.7,22.34s5.28,16.67,3.81,25.6c-1.3,7.87-5.24,14.47-9.89,20.76-3,4.11-7.16,7.15-10.59,10.88-6.5,7.07-11.74,15.06-16.95,23.07a3.48,3.48,0,0,1-3.1,1.86,88.65,88.65,0,0,0-10.79,1.11,56,56,0,0,0-15.75,4.63c-4.9,2.42-8.45,11.42-4.82,16.31a5,5,0,0,1,.64,3.32c-.06,3.47.59,7,3.34,9.07,3.49,2.6,3.85,5.65,3.16,9.36a3.09,3.09,0,0,0,0,.43C99.93,347,95.33,356,85.57,362.1c-1.9,1.19-3.7,2.54-5.59,3.75A43.86,43.86,0,0,0,62.73,386a76.35,76.35,0,0,0-4.48,14c-2.94,13.87-3.59,28-4.32,42.07-1,19.17,1.16,38.18,2.64,57.22a10,10,0,0,0,.6,2.52c2.35,7.05,7.24,11.86,13.6,15.38.93.52,2.09.75,2.71,1.73,3,4.73,7.71,6.79,12.82,8.23,9.64,2.71,19.56,4,29.45,5.11,21.67,2.4,43.22.93,64.62-3,7.91-1.44,14.82-4.85,19.66-11.61a4,4,0,0,1,1.52-1.19c8.08-4.23,12.58-11.17,14.51-19.81,2.23-9.92,2.54-20.08,3-30.18a330.44,330.44,0,0,0-.91-42.33c-.84-10.38-2-20.74-5-30.78-3.52-11.64-9.76-21.22-20.27-27.74-2.83-1.75-5.54-3.7-8.21-5.68a28,28,0,0,1-11.32-19.07,94.13,94.13,0,0,1-.47-19.28,8.8,8.8,0,0,1,2-5.44c5.84-7.28,3.79-15.7-4.71-19.48-6.48-2.89-13.42-4-20.42-4.73-1.42-.14-2-.35-1-1.87,2.11-3.2,4.24-6.4,6.07-9.77,2.64-4.85,7-6.87,12.06-7.85,6.28-1.2,12.39-.11,18.51,1.16,9.29,1.92,18.19,5.27,27.44,7.37,14.78,3.34,28.92,2.07,42.15-5.75C269.58,266.59,284.56,242.38,275.42,216.9Z" transform="translate(-0.01 0.01)" style="fill:#6a374f;stroke:#6a374f;stroke-linecap:round;stroke-linejoin:round;stroke-width:28px"/><path d="M140.07,46.52l-.77-1.77c-3.42-7.93-9.66-12-18.29-11.6A35.25,35.25,0,0,0,95.68,45.31c-2.22,2.48-4.29,5.12-6.69,7.4a18.27,18.27,0,0,1-11,5.36c-8.15.85-14.4,5-17.91,12.67a4.55,4.55,0,0,1-2.89,2.79A24,24,0,0,0,43.82,84.09c-1.56,2.68-2.72,5.64-1.61,8.69.64,1.73.16,2.33-1.12,3.22-7.09,4.93-12.85,11-16,19.22-3.23,8.41-3.22,16.27,3.81,23a2.29,2.29,0,0,1,.52,2.18,22.14,22.14,0,0,0,1.44,10.86c3.17,7.46,10.82,11.82,20.21,11.39,1.76-.08,2.17.3,2,2a38.66,38.66,0,0,0,3.4,19.46c5.65,12,15.62,17.92,28.22,20.32q15,2.88,24.41-9c1.87-2.38,3.6-4.89,5.34-7.38a36,36,0,0,1,4.19-5.26c4.12-4,5.41-4.21,10.42-1.61,5.6,2.91,11.38,5,17.81,4.77a1.86,1.86,0,0,1,1.78,1c4.89,7.25,10.16,14.27,13.7,22.34s5.28,16.67,3.81,25.6c-1.3,7.87-5.24,14.47-9.89,20.76-3,4.11-7.16,7.15-10.59,10.88-6.5,7.07-11.74,15.06-16.95,23.07a3.45,3.45,0,0,1-3.09,1.86,86.87,86.87,0,0,0-10.8,1.11,56,56,0,0,0-15.75,4.63c-4.9,2.42-8.45,11.42-4.82,16.31a5,5,0,0,1,.64,3.32c-.06,3.47.59,7,3.34,9.07,3.5,2.6,3.85,5.65,3.16,9.36a3.09,3.09,0,0,0,0,.43C100.93,347,96.33,356,86.57,362.1c-1.9,1.19-3.7,2.54-5.59,3.75A44,44,0,0,0,63.73,386a76.35,76.35,0,0,0-4.48,14c-2.94,13.87-3.59,28-4.31,42.07-1,19.17,1.15,38.18,2.63,57.22a10,10,0,0,0,.6,2.52c2.35,7.05,7.24,11.86,13.6,15.38.93.52,2.09.75,2.71,1.73,3,4.73,7.71,6.79,12.82,8.23,9.64,2.71,19.56,4,29.45,5.11,21.67,2.4,43.22.93,64.62-3,7.92-1.44,14.82-4.85,19.66-11.61a4,4,0,0,1,1.52-1.19c8.08-4.23,12.58-11.17,14.51-19.81,2.23-9.92,2.55-20.08,3-30.18a330.44,330.44,0,0,0-.91-42.33c-.84-10.38-2-20.74-5-30.78-3.51-11.64-9.75-21.22-20.27-27.74-2.83-1.75-5.54-3.7-8.21-5.68a28,28,0,0,1-11.32-19.07,93.42,93.42,0,0,1-.46-19.28,8.71,8.71,0,0,1,2-5.44c5.84-7.28,3.79-15.7-4.71-19.48-6.48-2.89-13.42-4-20.42-4.73-1.42-.14-2-.35-1-1.87,2.11-3.2,4.24-6.4,6.07-9.77,2.65-4.85,7-6.87,12.06-7.85,6.28-1.2,12.39-.11,18.51,1.16,9.29,1.92,18.19,5.27,27.44,7.37,14.78,3.34,28.92,2.07,42.15-5.75,14.65-8.68,29.63-32.89,20.49-58.37-3.41-9.52-8.24-18-16.77-23.94a14.07,14.07,0,0,0-5.34-2.27c-1.54-.3-2.74-.21-3.55,1.21s.06,2.59,1.08,3.59a63.45,63.45,0,0,1,7.34,8.28c6.23,8.62,6.42,17.66,1.32,26.72-4.89,8.67-13,11.16-22.41,10.43-6.72-.53-13.35-1.67-20-2.59-9.31-1.27-18.59-1.72-27.86.28a39.21,39.21,0,0,0-11.27,4.2,3.25,3.25,0,0,1-.08-.69c3.43-13.34,1.52-26.08-4.07-38.49a96.67,96.67,0,0,0-11.65-19.27c-1.07-1.39-1.35-2.14.64-3.07a48.94,48.94,0,0,0,12.94-9.4c5.23-5,8.73-10.94,9.77-18.19a53.33,53.33,0,0,0,.48-10.18c0-.77-.38-2,1-2,5.26,0,9.58-2.56,13.87-5.12a19.35,19.35,0,0,1,14.83-2.28c14.44,3.33,25.51-4,31.2-13.5a50,50,0,0,0,5.19-13.29c1.71-6.5,3.27-13,6.59-19A31.2,31.2,0,0,0,263,78.44c2.61-14.64-4.86-26.6-19.2-30.59a1.2,1.2,0,0,1-1.07-1.3C242,37.2,234,31.72,225.81,30.81c-6.33-.7-12.39.55-18.4,2.32-6.68,2-6.67,2-11.82-2.88-6.25-5.88-13.47-9.25-22.24-8a42.51,42.51,0,0,0-33.28,24.27Z" transform="translate(-0.01 0.01)" style="fill:#6a374f"/><path d="M140.07,46.52a42.53,42.53,0,0,1,33.28-24.26c8.77-1.26,16,2.11,22.24,8,5.15,4.85,5.14,4.85,11.82,2.88,6-1.77,12.07-3,18.4-2.32,8.17.91,16.21,6.39,16.84,15.84a1.2,1.2,0,0,0,1.07,1.3c14.34,4,21.81,15.95,19.2,30.59a31.2,31.2,0,0,1-3.25,9.85c-3.32,6-4.88,12.49-6.59,19a50,50,0,0,1-5.19,13.29c-5.69,9.5-16.76,16.83-31.2,13.5a19.35,19.35,0,0,0-14.83,2.28c-4.29,2.56-8.61,5.11-13.87,5.12-1.4,0-1.05,1.18-1,2a53.33,53.33,0,0,1-.48,10.18C185.51,161,182,167,176.74,172a48.94,48.94,0,0,1-12.94,9.4c-2,.93-1.71,1.68-.64,3.07a96.67,96.67,0,0,1,11.65,19.27c5.59,12.41,7.5,25.15,4.07,38.49a3.25,3.25,0,0,0,.08.69,39.21,39.21,0,0,1,11.27-4.2c9.27-2,18.55-1.55,27.86-.28,6.67.92,13.3,2.06,20,2.59,9.43.73,17.52-1.76,22.41-10.43,5.1-9.06,4.91-18.1-1.32-26.72a63.45,63.45,0,0,0-7.34-8.28c-1-1-2-2.06-1.08-3.59s2-1.51,3.55-1.21a14.07,14.07,0,0,1,5.34,2.27C268.18,199,273,207.45,276.42,217c9.14,25.48-5.84,49.69-20.49,58.37-13.23,7.82-27.37,9.09-42.15,5.75-9.25-2.1-18.15-5.45-27.44-7.37-6.12-1.27-12.23-2.36-18.51-1.16-5.1,1-9.41,3-12.06,7.85-1.83,3.37-4,6.57-6.07,9.77-1,1.52-.39,1.73,1,1.87,7,.74,13.94,1.84,20.42,4.73,8.5,3.78,10.55,12.2,4.71,19.48a8.71,8.71,0,0,0-2,5.44,93.42,93.42,0,0,0,.46,19.28,28,28,0,0,0,11.39,19c2.67,2,5.38,3.93,8.21,5.68,10.52,6.52,16.76,16.1,20.27,27.74,3,10,4.17,20.4,5,30.78a330.44,330.44,0,0,1,.91,42.33c-.47,10.1-.79,20.26-3,30.18-1.93,8.64-6.43,15.58-14.51,19.81a4,4,0,0,0-1.52,1.19c-4.84,6.76-11.74,10.17-19.66,11.61-21.4,3.89-43,5.36-64.62,3-9.89-1.09-19.81-2.4-29.45-5.11-5.11-1.44-9.82-3.5-12.82-8.23-.62-1-1.78-1.21-2.71-1.73-6.36-3.52-11.25-8.33-13.6-15.38a10,10,0,0,1-.6-2.52C56.1,480.35,54,461.3,55,442.13c.72-14.1,1.37-28.2,4.31-42.07a76.35,76.35,0,0,1,4.48-14A43.92,43.92,0,0,1,81,365.85c1.89-1.21,3.69-2.56,5.59-3.75,9.74-6.1,14.34-15.1,14.82-26.48a3.09,3.09,0,0,1,0-.43c.69-3.71.34-6.76-3.16-9.36-2.75-2-3.4-5.6-3.34-9.07a5,5,0,0,0-.64-3.32c-3.63-4.89-.08-13.89,4.82-16.31a56,56,0,0,1,15.75-4.63,86.87,86.87,0,0,1,10.8-1.11,3.45,3.45,0,0,0,3.09-1.86c5.21-8,10.45-16,17-23.07,3.43-3.73,7.55-6.77,10.59-10.88,4.65-6.29,8.59-12.89,9.89-20.76,1.47-8.93-.21-17.42-3.81-25.6s-8.81-15.09-13.7-22.34a1.86,1.86,0,0,0-1.78-1c-6.43.28-12.21-1.86-17.81-4.77-5-2.6-6.3-2.35-10.42,1.61a36,36,0,0,0-4.19,5.26c-1.74,2.49-3.47,5-5.34,7.38-6.28,8-14.39,11-24.41,9C72.1,202,62.13,196,56.48,184a38.66,38.66,0,0,1-3.4-19.46c.13-1.75-.28-2.13-2-2-9.39.43-17-3.93-20.21-11.39a22.14,22.14,0,0,1-1.44-10.86,2.29,2.29,0,0,0-.52-2.18c-7-6.7-7-14.56-3.81-23C28.24,107,34,100.93,41.09,96c1.28-.89,1.76-1.49,1.12-3.22-1.11-3,0-6,1.61-8.69A24,24,0,0,1,57.15,73.53,4.54,4.54,0,0,0,60,70.74c3.55-7.63,9.8-11.82,18-12.67a18.27,18.27,0,0,0,11-5.36c2.4-2.28,4.47-4.92,6.69-7.4A35.25,35.25,0,0,1,121,33.15c8.63-.44,14.87,3.67,18.29,11.6Zm74.4,36.11h0a25.4,25.4,0,0,1-10.63,3.49c-5.65.65-11.27-.13-16.89-.67a46.83,46.83,0,0,0-21.56,2.68c-3.82,1.46-7.12,3.54-8.41,7.83-.36,1.19-.15,1.57,1,2a37.32,37.32,0,0,1,10.71,6.51c9,7.65,13.95,17.55,16.62,28.82.78,3.33,2.18,4.13,5.54,3.38a24.36,24.36,0,0,0,7.66-3.52,25,25,0,0,1,19.77-3.28c8.09,1.85,15.21-.27,21.24-5.9,4.54-4.24,7.13-9.68,8.55-15.6a144.29,144.29,0,0,1,8.19-23.29,30.59,30.59,0,0,0,2.49-14.84,19.53,19.53,0,0,0-21.1-17.83l-.9.1A37.6,37.6,0,0,0,225.21,56c-12.73,6.33-25.69,12-39.49,15.6a24.51,24.51,0,0,0-9.1,4.47,8.47,8.47,0,0,0-3.37,5.21,7.33,7.33,0,0,0,1.4-.08,45.69,45.69,0,0,1,19.56,1.29C200.94,84.48,207.7,84.87,214.47,82.63ZM173.53,311.57c-12.37,5-25.34,5.77-38.37,5.49s-26-1.42-38-7.5c2,4.11,5.39,6.5,9.26,8.39a51.58,51.58,0,0,0,12.07,4.14,95.54,95.54,0,0,0,12.34,2c-10.82.72-21.71,1.86-31.67-5.3a10.16,10.16,0,0,0,5.83,7,46,46,0,0,0,14.12,4c9.46,1.42,19,2.16,28.83,2.85-1.13.21-2,.44-2.8.51-5.48.44-10.94,1.26-16.45,1.1-1,0-1.6.21-1.58,1.43,0,6,.49,12,2.69,17.7a45.22,45.22,0,0,0,3,6.66,19.22,19.22,0,0,1-6.18-6.62,34.74,34.74,0,0,1-4-17.37c0-.9.25-1.84-1.25-2a66.2,66.2,0,0,1-14-2.81c-.92-.3-1.33-.13-1.35.92,0,1.6-.12,3.19-.24,4.78-.75,10.07-4.17,18.85-12.23,25.43-3.49,2.84-7.27,5.26-11,7.76A39.39,39.39,0,0,0,68.4,386.48c-4.63,9.95-6.1,20.59-7.36,31.31-.89,7.55-1.2,15.15-1.52,22.74a289.39,289.39,0,0,0,.07,30.61c.48,7.44,1.17,14.87,1.5,22.31a22.58,22.58,0,0,0,3.3,11.07c4.1,6.66,10.58,9.79,17.85,11.65,6.64,1.7,13.43,2.63,20.17,3.85,6.51,1.17,12.92,3.07,19.61,3.18.47,0,.83.22,1.25.84L110,525c-4.3.29-8.6-.42-12.9-.27,13.14,2.19,26.24,4.44,39.62,4.22a278.59,278.59,0,0,0,39.65-3.33c-8.56,0-17.13,1.49-26.32-.12a14.93,14.93,0,0,1,1.62-.45c6-.74,11.83-1.92,17.71-3.09,8.36-1.67,16.65-3.44,24.7-6.4,10.45-3.84,17-10.67,19.11-21.8a174.88,174.88,0,0,0,2.48-26.54A363.79,363.79,0,0,0,214.39,421a147.58,147.58,0,0,0-3.84-24c-3.2-12.2-9.47-22.12-20.61-28.59a72.48,72.48,0,0,1-6.95-4.84,32.36,32.36,0,0,1-12.7-19.83c-.9-4.34-.95-8.77-1.5-13.15-.35-2.84.06-5.69,0-8.6-4.09,1.33-3.47.91-3.12,4.25a12.45,12.45,0,0,1,.07,1.73,122.32,122.32,0,0,0,1.18,20.77c.37,2.66,1.06,5.26,1.4,8a15.29,15.29,0,0,1-3.76-5.14C161,343.53,160,335,159.8,326.27c0-1.45-.38-1.74-1.71-1.44a35.68,35.68,0,0,1-9.43,1C157.83,322.64,167.74,320.66,173.53,311.57Zm93-103.52c2.66,6.36,2.4,12.5.45,18.64-3.37,10.6-10.5,16.84-21.55,18.53-6.34,1-12.54-.39-18.77-1.17-8.4-1.05-16.74-2.75-25.26-2.33-6.6.32-13.12,1.17-19.08,4.37-3.09,1.66-5.78,4.26-6.57,6.09,12.38-3.7,24.48-3.58,35.94,3.5a45.27,45.27,0,0,0-26-2c-8.94,2-16.26,6.38-21.09,14.94a33.67,33.67,0,0,1,11.74-1c9.73.77,19,3.6,28.29,6.37s18.35,4.9,28,4.14,18.67-3.68,25.77-10.24c17.1-15.81,21.29-37.42,9.92-58.37a2.65,2.65,0,0,0-1.76-1.47ZM171.67,63.77c-6.84,15.79-33.15,28.85-44.45,29.68a9.4,9.4,0,0,1,1.15-.84c6.37-3.17,12.25-7.14,18.28-10.85,5.82-3.57,11.41-7.43,16.08-12.47a18,18,0,0,0,4.34-6.68c.78-2.44.31-3.65-1.81-4.94a9,9,0,0,0-3-1.15,36.72,36.72,0,0,0-13.18.27,117.47,117.47,0,0,0-47.16,20.07C97.3,80.13,93,83.77,90,88.72c-2.74,4.55-1.54,7.49,3.6,8.92a36.39,36.39,0,0,0,10.34,1.07h4.51c-7,3.32-13.73,3.42-21.36.7-.26,3.47,2,5.72,3.78,8.3A33.57,33.57,0,0,1,98,104.12c3.79-1.18,7.59-1.58,11,1,1.16.86,1.68.74,2.55-.28a29.75,29.75,0,0,1,3.72-3.64,19.68,19.68,0,0,1,9.44-4.62c5.41-.89,10,.39,13.36,5.21A11.59,11.59,0,0,1,148.38,96a27.41,27.41,0,0,1,3,.16c.71.06,1.2.08,1.35-.88.68-4.35,3.48-7.18,7-9.4a31.75,31.75,0,0,1,8-3.29c.6-.18,1.36-.19,1.3-1.14-.23-3.79,1.82-6.41,4.48-8.71a1.48,1.48,0,0,0,.72-1.46A17.16,17.16,0,0,0,171.67,63.77ZM83.63,90a28.12,28.12,0,0,1-10.88.75c-11-1.13-20.45,2.7-29.19,9-7.56,5.36-13.43,12-15.56,21.36a14.09,14.09,0,0,0,1.5,11.07c1.39,2.27,1.44,2.31,3,.28a9.74,9.74,0,0,1,1-1.13c.48-.43,1.08-1,1.68-.76s.32,1.17.23,1.75c-.48,2.92-1.25,5.81-1.53,8.75-.72,7.71,2.39,13.56,9.83,16.15a19.91,19.91,0,0,0,8.36.9,1.91,1.91,0,0,0,2.07-1.73.76.76,0,0,0,0-.15,37.57,37.57,0,0,1,2.7-8.91,87.82,87.82,0,0,1,28-35.35c.9-.7,1.82-1.38,2.7-2-.93-1-2-1.66-2.47-2.65-1-2.27-2.77-2.48-4.77-2.47a28.24,28.24,0,0,0-3.9.21c-8.61,1.29-16,5.33-22.82,10.46-.7.52-1.26,1.48-2.5.83,2.24-2.5,4.44-5,6.66-7.44a22.76,22.76,0,0,1,9.33-6.14,35,35,0,0,1,13.81-2.39c.54,0,1.72.34,1.41-.65C81.2,96.3,83,93.41,83.63,90Zm112-53.29c-3.68-2.79-7-5.4-10.47-7.9A11.45,11.45,0,0,0,178,26.54a37.65,37.65,0,0,0-27.66,12.55c-3.86,4.15-6.24,9.23-8.92,14.56,1-.2,1.68-.3,2.3-.44a57.27,57.27,0,0,1,16.81-1.45,15,15,0,0,1,7.79,2.41c4.86,3.43,8.69,7.67,9.92,13.72.3,1.52.86,1.41,2,1A77.76,77.76,0,0,1,188,66.17,140.07,140.07,0,0,0,214.72,56c7.08-3.69,14.3-7,22.35-8,1.21-.14,1.11-.82,1-1.67-.64-4.8-3.53-7.8-7.78-9.66s-8.62-1.71-13-1.11c-6.06.83-11.77,3-17.58,4.74s-11.64,3.54-17.8,3.65a6.59,6.59,0,0,1-4.59-1.2c6.18-1.45,11.93-4,18.26-6ZM94.7,59a26.52,26.52,0,0,1-2.62.68c-5,.75-9.94,1.89-14.89,3a19,19,0,0,0-12.86,9.2c7.22-1.69,14-.32,21.16-.73a40,40,0,0,1-16.2,4.61c-6.6.35-12.92,1.82-18.06,6.4a13.52,13.52,0,0,0-4.89,8.21c-.08.59-.34,1.41.29,1.78s1.06-.29,1.54-.56a40.07,40.07,0,0,1,22.49-5.36,117.49,117.49,0,0,0,12.59-.1A5.44,5.44,0,0,0,88,83.68a31,31,0,0,1,5.82-6.13c11.45-9.78,24.68-16.32,38.8-21.23,5-1.74,4.06-.39,3.47-5.58-.94-8.24-6.75-13.46-14.51-13.14A30.8,30.8,0,0,0,102,45.34c-4.39,3.86-7.47,8.95-12.19,12.72C91.47,58.64,93,58,94.7,59Zm50.92,225.42.27.18a4.65,4.65,0,0,0,.63-.53,230,230,0,0,0,22-29.57c8.44-13.73,9.68-28.16,4.48-43.29-3.37-9.76-9-18.25-15-26.53-.29-.39-.53-.64-1-.49l-3.94,1.12c.31.47.47.7.62.94,5.19,7.83,10.79,15.43,14.07,24.35,5,13.45,5,26.7-2.43,39.28-4.54,7.65-8.88,15.4-13.21,23.16-2.11,3.79-4.32,7.56-6.49,11.35ZM124.68,296a87.28,87.28,0,0,0-14.3,2c-3.51.8-7,1.71-10,3.81-2,1.37-2,2.42-.07,3.84a23.24,23.24,0,0,0,6.63,3.11c.83.28,1.12.15,1.24-.77.25-2,1.65-3.14,3.29-4a28,28,0,0,1,9.08-2.7c.8-.12,1.55-.21,2-1.06.55-1.33,1.25-2.58,2.13-4.26Zm22.51,0c-1.05-.43-1.33.66-1.82,1.44-1.67,2.63-1.67,2.62,1.41,2.86A56.41,56.41,0,0,1,161.64,303c2,.73,4.27,1.51,4.88,3.62.76,2.62,1.93,2.2,3.63,1.24,1.49-.83,3.69-1.32,3.75-3.2.07-2.05-2.15-2.68-3.74-3.43-7.16-3.4-15-4.15-23-5.28Z" transform="translate(-0.01 0.01)" style="fill:#6a374f;stroke:#6a374f;stroke-linecap:round;stroke-linejoin:round;stroke-width:6px"/><path d="M173.53,311.57c-5.79,9.09-15.7,11.07-24.92,14.26a35.68,35.68,0,0,0,9.43-1c1.33-.3,1.68,0,1.71,1.44.18,8.7,1.21,17.26,4.76,25.33a15.29,15.29,0,0,0,3.76,5.14c-.34-2.7-1-5.3-1.4-8A122,122,0,0,1,165.69,328a12.45,12.45,0,0,0-.07-1.73c-.35-3.34-1-2.92,3.12-4.25.11,2.91-.3,5.76,0,8.6.55,4.38.6,8.81,1.5,13.15A32.35,32.35,0,0,0,183,363.58a72.48,72.48,0,0,0,6.95,4.84c11.14,6.47,17.41,16.39,20.61,28.59a147.58,147.58,0,0,1,3.84,24,363.8,363.8,0,0,1,1.31,46.22,174.88,174.88,0,0,1-2.48,26.54c-2.1,11.13-8.66,18-19.11,21.8-8.05,3-16.34,4.73-24.7,6.4-5.88,1.17-11.76,2.35-17.71,3.09a14.93,14.93,0,0,0-1.62.45c9.19,1.61,17.76.13,26.32.12A278.59,278.59,0,0,1,136.76,529c-13.38.22-26.48-2-39.62-4.22,4.3-.15,8.6.56,12.9.27l13.25-.85c-.42-.62-.78-.83-1.25-.84-6.69-.11-13.1-2-19.61-3.18-6.74-1.22-13.53-2.15-20.17-3.85-7.27-1.86-13.75-5-17.85-11.65a22.58,22.58,0,0,1-3.3-11.07c-.33-7.44-1-14.87-1.5-22.31a289.39,289.39,0,0,1-.07-30.61c.32-7.59.63-15.19,1.52-22.74,1.26-10.72,2.73-21.36,7.36-31.31a39.39,39.39,0,0,1,14.15-16.35c3.73-2.5,7.51-4.92,11-7.76,8.05-6.62,11.43-15.4,12.22-25.49.12-1.59.22-3.18.24-4.78,0-1.05.43-1.22,1.35-.92a66.2,66.2,0,0,0,14,2.81c1.5.15,1.28,1.09,1.25,2a34.74,34.74,0,0,0,4,17.37,19.22,19.22,0,0,0,6.18,6.62,45.22,45.22,0,0,1-3-6.66c-2.2-5.7-2.64-11.67-2.69-17.7,0-1.22.53-1.46,1.58-1.43,5.51.16,11-.66,16.45-1.1.84-.07,1.67-.3,2.8-.51-9.85-.69-19.37-1.43-28.83-2.85a46,46,0,0,1-14.12-4,10.16,10.16,0,0,1-5.83-7c10,7.16,20.85,6,31.67,5.3a95.54,95.54,0,0,1-12.34-2A51.92,51.92,0,0,1,106.39,318c-3.87-1.89-7.29-4.28-9.26-8.39,12,6.08,25,7.22,38,7.5S161.16,316.55,173.53,311.57ZM92.79,502.32c.66.92.77.5.88-.31a113.73,113.73,0,0,0,1.17-15.31c.23-18.62.07-37.24-.82-55.85.81-4.36.91-8.78,1.31-13.18,1.51.55,2.56,1.95,4.21,2.38-.05-.24-.07-.38-.1-.52-.94-5.62,1.59-10.36,6.18-11.3a36.42,36.42,0,0,1,5-.34,2.91,2.91,0,0,0,2.39-.75c-1.24-.63-2.36-1.12-3.4-1.75-4.34-2.64-5.2-6.41-2.42-10.66.59-.9,1.34-1.7,2-2.55a36.33,36.33,0,0,0,3.7-4.85,3.11,3.11,0,0,0-2.88.77,13.61,13.61,0,0,1-4.32,2.45c-4,1.43-7.25-.36-8.16-4.55a21.25,21.25,0,0,1-.41-3.65c-.07-1.67,0-3.34,0-5-1.79,2-2.27,4.38-3.55,6.39-3.71,5.8-8.06,5.94-12.08.33,0-.08-.2-.1-.35-.15-.58,1.52.52,2.93.31,4.47-.79-.67-1.58-2-2.46-1.34s.12,1.83.42,2.75c.06.2.2.38.28.58,1.91,4.47,1.13,7.64-2.6,10.81a14.72,14.72,0,0,1-4.24,2.57c-1,.38-2.09.69-2.44,2,1.41.91,3,.31,4.42.45,3.46.32,5.39,2.42,5.25,5.89a8.08,8.08,0,0,1-1.79,5.23,3.71,3.71,0,0,0-1,4,7.43,7.43,0,0,0,2.55-2.21,12.36,12.36,0,0,1,5.49-3.35c1-.29,1.43-.43,1.18,1-.63,3.71-1.23,7.43-1.51,11.17-1.27,17.17.24,34.27,1.44,51.38.31,4.49,1.84,8.76,2.07,13.25-.28,3.09,1,5.78,2.31,8.42C91.19,501.66,91.71,502.45,92.79,502.32Zm107.75-54.6a3.94,3.94,0,0,0-.34,1,173.2,173.2,0,0,1-2.77,18.41c-1.91,9.6-5.2,18.71-11.74,26.2-8.22,9.43-18,16.63-30.13,20.41-.94.3-2.58.48-2.26,1.75.27,1,1.8.42,2.71.29a146.21,146.21,0,0,0,26.54-6.06c8-2.78,13.74-8.19,16.51-16.33,2.35-6.9,2.41-14.07,2-21.25-.17-3.32-.95-6.62-.46-9.95.75-4.85.2-9.67-.06-14.47Z" transform="translate(-0.01 0.01)" style="fill:#6a374f"/><path d="M100.35,184.56c2.19-3.36,4.66-5.73,8.35-6.53a28,28,0,0,1,8.9-.41c-5.83,4.84-8.62,11.47-13.36,16.62-5.18,5.62-11.44,7.14-18.75,5.78-12.23-2.29-21.58-8.29-26-20.39-3.18-8.76-2.8-17.73.1-26.44,5.57-16.76,16.56-29.46,30.7-39.66a56.9,56.9,0,0,1,8.1-5.06c2.75-1.34,5.58-2,8.6-.93,0,0-1.52,1.35-2.12,2-7.12,7.5-10.34,27.35-5.72,36.7.46-12.32,5.16-28.72,15.44-39.41,4.2-4.38,9.23-7.19,15.64-6.57,2.52.24,3.94,1.09,4.72,2.77a7.68,7.68,0,0,1,.17,2.66c-1.34,6.84-1,22.42,4.15,30.24h0c0-6.6,1.07-26.76,1.85-30.17,1-4.33,2.62-6.4,7.08-6.26,7.64.22,13.68,4,18.92,9.09,5.89,5.77,9.53,13,12.28,20.67a48.17,48.17,0,0,1,2.46,24.57,22,22,0,0,1-4.38,10.27c-6.92,8.72-15.48,14.9-26.7,16.9a26.9,26.9,0,0,1-17.26-2.68c-4.59-2.32-9.21-4.53-14.43-5.14-6.91-.81-14.68,2.58-17.7,7.88A5.9,5.9,0,0,0,100.35,184.56Z" transform="translate(-0.01 0.01)" style="fill:#6a374f"/><path d="M213.47,82.63c-6.77,2.24-13.53,1.85-20.26-.17a45.69,45.69,0,0,0-19.56-1.29c-.42.06-.85,0-1.4.08A8.54,8.54,0,0,1,175.61,76a24.48,24.48,0,0,1,9.11-4.47C198.52,68,211.48,62.3,224.21,56a37.63,37.63,0,0,1,11.6-3.46,19.53,19.53,0,0,1,21.9,16.83c0,.3.07.6.1.9a30.59,30.59,0,0,1-2.49,14.84,144.29,144.29,0,0,0-8.19,23.29c-1.42,5.92-4,11.36-8.55,15.6-6,5.63-13.15,7.75-21.24,5.9a25,25,0,0,0-19.77,3.28,24.36,24.36,0,0,1-7.66,3.52c-3.36.75-4.76,0-5.55-3.38-2.66-11.27-7.64-21.17-16.62-28.82A37.22,37.22,0,0,0,157,98c-1.14-.45-1.35-.83-1-2,1.29-4.29,4.59-6.37,8.41-7.83A47,47,0,0,1,186,85.43c5.62.54,11.24,1.32,16.89.67a25.31,25.31,0,0,0,10.62-3.49v-.06Z" transform="translate(-0.01 0.01)" style="fill:#6a374f"/><path d="M265.56,208.05a2.63,2.63,0,0,1,1.78,1.47c11.37,20.95,7.18,42.56-9.92,58.37-7.1,6.56-16.17,9.48-25.77,10.24s-18.82-1.4-28-4.14-18.56-5.6-28.29-6.37a33.67,33.67,0,0,0-11.74,1,37.59,37.59,0,0,1,21.09-12.94,60.63,60.63,0,0,1,26,0c-11.46-7.08-23.56-7.2-35.94-3.5.79-1.83,3.48-4.43,6.57-6.09,6-3.2,12.48-4.05,19.08-4.37,8.52-.42,16.86,1.28,25.26,2.33,6.23.78,12.43,2.14,18.77,1.17,11-1.69,18.17-7.93,21.55-18.53C268,220.55,268.22,214.41,265.56,208.05Z" transform="translate(-0.01 0.01)" style="fill:#6a374f"/><path d="M170.67,63.77a17.19,17.19,0,0,1,2.61,7.5,1.48,1.48,0,0,1-.72,1.46c-2.66,2.3-4.71,4.92-4.48,8.71.06,1-.7,1-1.3,1.14a31.39,31.39,0,0,0-8,3.29c-3.56,2.22-6.36,5-7,9.4-.15,1-.64.94-1.35.88a27.41,27.41,0,0,0-3-.16,11.48,11.48,0,0,0-10.3,5.77c-3.31-4.82-8-6.1-13.36-5.21a19.68,19.68,0,0,0-9.44,4.62,29.75,29.75,0,0,0-3.72,3.64c-.87,1-1.39,1.14-2.55.28-3.41-2.55-7.21-2.15-11-1a33.57,33.57,0,0,0-7.13,3.59c-1.73-2.58-4-4.83-3.78-8.3,7.63,2.72,14.39,2.62,21.36-.7H103a36.39,36.39,0,0,1-10.34-1.07c-5.14-1.43-6.34-4.37-3.6-8.92,3-5,7.32-8.59,11.94-11.86a117.35,117.35,0,0,1,47.13-20.07,36.72,36.72,0,0,1,13.18-.27,9,9,0,0,1,3,1.15c2.12,1.29,2.59,2.5,1.81,4.94a18,18,0,0,1-4.34,6.68c-4.67,5-10.26,8.9-16.08,12.47-6,3.71-11.92,7.68-18.28,10.85a9.4,9.4,0,0,0-1.15.84C137.52,92.62,163.83,79.56,170.67,63.77Z" transform="translate(-0.01 0.01)" style="fill:#6a374f"/><path d="M79.68,90.63a1.93,1.93,0,0,1,2.21,1.6,1.83,1.83,0,0,1-.06.87c-.66,2.18-1.29,4.27-.55,6.6.31,1-.87.67-1.41.65a35,35,0,0,0-13.81,2.39,22.76,22.76,0,0,0-9.33,6.14c-2.22,2.46-4.42,4.94-6.66,7.44,1.24.65,1.8-.31,2.5-.83,6.59-4.93,13.65-8.86,21.83-10.3a25.08,25.08,0,0,1,3.87-.35c2.39,0,4.67-.2,5.79,2.45a4,4,0,0,0,.81,1.11,1.94,1.94,0,0,1,0,2.73l-.22.19-.86.66a87.87,87.87,0,0,0-27.61,34.55,47.49,47.49,0,0,0-3.09,9.89,1.87,1.87,0,0,1-2,1.7,19.91,19.91,0,0,1-8.36-.9c-7.44-2.59-10.55-8.44-9.83-16.15.28-2.94,1-5.83,1.52-8.75.1-.58.46-1.43-.22-1.75s-1.2.33-1.68.76a9.74,9.74,0,0,0-1,1.13c-1.6,2-1.65,2-3-.28A14.1,14.1,0,0,1,27,121.11c2.16-9.35,8-16,15.59-21.42,8.74-6.26,18.15-10.09,29.18-9A30.8,30.8,0,0,0,79.68,90.63Z" transform="translate(-0.01 0.01)" style="fill:#6a374f"/><path d="M194.58,36.69c-6.33,2-12.08,4.59-18.29,6a6.59,6.59,0,0,0,4.59,1.2c6.15-.11,12-1.9,17.8-3.65s11.52-3.91,17.58-4.74c4.41-.6,8.83-.72,13,1.11s7.14,4.86,7.78,9.66c.12.85.22,1.53-1,1.67-8,1-15.27,4.32-22.35,8A140.78,140.78,0,0,1,187,66.12c-2.63.76-5.22,1.72-7.77,2.72-1.17.46-1.73.57-2-1-1.23-6-5.06-10.29-9.92-13.72a15,15,0,0,0-7.79-2.41,57.27,57.27,0,0,0-16.81,1.45c-.62.14-1.25.24-2.31.44,2.69-5.33,5.07-10.41,8.93-14.56A37.6,37.6,0,0,1,177,26.54a11.43,11.43,0,0,1,7.13,2.25C187.54,31.29,190.9,33.9,194.58,36.69Z" transform="translate(-0.01 0.01)" style="fill:#6a374f"/><path d="M93.7,59c-1.71-1-3.23-.33-4.89-.91,4.73-3.77,7.81-8.86,12.2-12.72a30.74,30.74,0,0,1,19.6-7.74c7.76-.32,13.57,4.9,14.51,13.14.59,5.19,1.54,3.84-3.47,5.58-14.12,4.91-27.35,11.45-38.8,21.23A31,31,0,0,0,87,83.68a5.42,5.42,0,0,1-4.78,2.38,117.49,117.49,0,0,1-12.59.1,40.07,40.07,0,0,0-22.49,5.36c-.48.27-1,.88-1.54.56s-.37-1.19-.29-1.78a13.52,13.52,0,0,1,4.89-8.21c5.14-4.58,11.45-6,18.06-6.4a40,40,0,0,0,16.2-4.61c-7.11.41-13.94-1-21.16.73a19,19,0,0,1,12.86-9.2c5-1.07,9.88-2.21,14.89-3A26.75,26.75,0,0,0,93.7,59Z" transform="translate(-0.01 0.01)" style="fill:#6a374f"/><path d="M144.62,284.39c2.17-3.79,4.37-7.56,6.5-11.38,4.33-7.76,8.67-15.51,13.21-23.16,7.45-12.58,7.38-25.83,2.43-39.28-3.28-8.92-8.88-16.52-14.07-24.35l-.62-.94c1.39-.39,2.67-.75,3.93-1.12.52-.15.76.1,1.05.49,6,8.28,11.6,16.77,15,26.53,5.21,15.13,4,29.56-4.47,43.29a230,230,0,0,1-22,29.57,6.31,6.31,0,0,1-.63.53Z" transform="translate(-0.01 0.01)" style="fill:#6a374f"/><path d="M123.68,295.92c-.88,1.68-1.58,2.93-2.21,4.21-.42.85-1.18.94-2,1.06a28,28,0,0,0-9.07,2.7c-1.64.88-3,2-3.29,4-.12.92-.41,1-1.24.77a23.24,23.24,0,0,1-6.63-3.11c-1.91-1.42-1.91-2.47.07-3.84,3-2.1,6.54-3,10-3.81A87,87,0,0,1,123.68,295.92Z" transform="translate(-0.01 0.01)" style="fill:#6a374f"/><path d="M146.19,295.93c8,1.13,15.79,1.88,23,5.26,1.59.75,3.81,1.38,3.74,3.43-.06,1.88-2.26,2.37-3.75,3.2-1.7,1-2.87,1.38-3.63-1.24-.61-2.11-2.91-2.89-4.88-3.62-4.79-1.76-9.81-2.33-14.86-2.73-3.08-.24-3.08-.23-1.41-2.86C144.86,296.59,145.14,295.5,146.19,295.93Z" transform="translate(-0.01 0.01)" style="fill:#6a374f"/><path d="M131.07,339.65a8.07,8.07,0,0,1,.64,1c3.21,8,8.63,14.52,14.09,21a85.12,85.12,0,0,1,16.49,31c.87,2.9.26,3,3.61,2L178.42,391c0,1-.7,1.21-1.24,1.56a58.16,58.16,0,0,1-11.64,5.77c-1.17.42-1.47.84-1.25,2.14,1.61,9.69,1.34,19.47,1.24,29.25-1.1-2.44-1.16-5.1-1.55-7.67-1-6.79-2.39-13.52-3.88-20.23-.28-1.29-.77-1.47-1.9-1.15-12.93,3.54-23.5,4.15-36.8,3.55a27.16,27.16,0,0,1-6.21-.91,10,10,0,0,1-4.33-2.38c-1.37-1.12-.81-3.3,1.44-2.63,5.37,1.45,10.87,1.45,16.37,1.65,10.5.39,18.15-1.37,28.41-3.24,1.21-.22,1.63-.61,1.21-2-3.31-11.08-8.22-21.29-15.84-30.1-2-2.3-3.8-4.75-5.69-7.12-3.16-3.95-4.54-8.68-5.82-13.43A7.88,7.88,0,0,1,131.07,339.65Z" transform="translate(-0.01 0.01)" style="fill:#6a374f;stroke:#6a374f;stroke-miterlimit:10"/><path d="M199.54,447.72c.26,4.8.81,9.62.1,14.45-.49,3.33.29,6.63.46,9.95.36,7.18.31,14.35-2,21.25-2.77,8.14-8.48,13.55-16.51,16.33A145.9,145.9,0,0,1,155,515.76c-.91.13-2.44.74-2.71-.29-.32-1.27,1.32-1.45,2.26-1.75,12.1-3.78,21.91-11,30.13-20.41,6.54-7.49,9.83-16.6,11.74-26.2a173.2,173.2,0,0,0,2.77-18.41A3.82,3.82,0,0,1,199.54,447.72Zm-28,61.56c7.3-1.43,14.08-3.86,19-9.74s6.6-13,6.56-20.6c-3.38,14.52-13.7,23.06-25.59,30.34Z" transform="translate(-0.01 0.01)" style="fill:#6a374f;stroke:#6a374f;stroke-miterlimit:10;stroke-width:2px"/><polygon points="213.46 82.64 213.5 82.56 213.49 82.62 213.46 82.64" style="fill:#6a374f"/><path d="M171.51,509.28c11.89-7.27,22.21-15.82,25.58-30.34,0,7.65-1.6,14.7-6.56,20.6S178.81,507.85,171.51,509.28Z" transform="translate(-0.01 0.01)" style="fill:#6a374f"/><path d="M88.48,492.13c-.23-4.49-1.76-8.76-2.08-13.25-1.2-17.11-2.71-34.21-1.43-51.38.28-3.74.87-7.46,1.51-11.17.24-1.42-.24-1.28-1.19-1a12.32,12.32,0,0,0-5.48,3.35,7.43,7.43,0,0,1-2.55,2.21,3.67,3.67,0,0,1,1-4A8.09,8.09,0,0,0,80,411.71c.15-3.47-1.79-5.57-5.24-5.89-1.47-.14-3,.46-4.43-.45.36-1.29,5.4-3.46,6.68-4.55,3.74-3.17,4.51-6.34,2.61-10.81-.09-.2-.22-.38-.29-.58-.29-.92-1.3-2.11-.42-2.75s1.68.67,2.46,1.34c.22-1.54-.88-2.95-.3-4.47.14.05.29.07.35.15,4,5.61,8.37,5.47,12.07-.33,1.29-2,1.77-4.39,3.56-6.39v5a20.31,20.31,0,0,0,.42,3.65c.91,4.19,4.15,6,8.16,4.55a13.27,13.27,0,0,0,4.31-2.45,3.13,3.13,0,0,1,2.89-.77,36.33,36.33,0,0,1-3.7,4.85c-.67.85-1.42,1.65-2,2.55-2.77,4.24-1.92,8,2.43,10.66,1,.63,2.16,1.12,3.39,1.75a2.89,2.89,0,0,1-2.38.75,36.42,36.42,0,0,0-5,.34c-4.6.94-7.13,5.68-6.18,11.3a1.16,1.16,0,0,0,.1.52c-1.66-.43-2.7-1.83-4.21-2.38a11.49,11.49,0,0,0-5.5-2.3c-.84-.13-1.1,0-1.11,1-.12,16.72-.16,33.44.12,50.16.14,8.18.33,16.35.43,24.52C89.22,491.06,90.25,492.41,88.48,492.13Zm16.24-99.34c-6.35,1.53-9.16-1.7-10.26-7.26-5,6.28-7.14,7-11.8,4,2.8,6.66-.17,10.74-6,13.61,5,1.71,5.88,3.4,5.6,10.31,5.27-2.48,10.19-2,14.74,2.06.55-5.83,3.25-9.39,8.91-10.53C101.92,401.31,102.09,397.31,104.72,392.79Z" transform="translate(-0.01 0.01)" style="fill:#6a374f;stroke:#6a374f;stroke-miterlimit:10;stroke-width:3px"/><path d="M88.48,492.13c-.78-2.45.45-17.86.31-26-.28-16.72-.24-33.44-.12-50.16,0-1,.27-1.09,1.11-1a11.58,11.58,0,0,1,5.52,2.34c-.4,4.4-.51,8.82-1.31,13.18l-.64-1.84a21.8,21.8,0,0,0-1,5.55c-.7,10.46-.6,20.94-.73,31.42-.15,12.12-.28,24.26,1.15,36.34-1.08.13-1.6-.66-2-1.41C89.46,497.91,88.19,495.22,88.48,492.13Z" transform="translate(-0.01 0.01)" style="fill:#6a374f"/><path d="M92.76,502c-1.43-12.08-1.3-24.22-1.15-36.34.13-10.48,0-21,.73-31.42a21.8,21.8,0,0,1,1-5.55l.64,1.84c.89,18.61,1,37.23.82,55.85a115.39,115.39,0,0,1-1.17,15.31C93.52,502.46,93.41,502.88,92.76,502Z" transform="translate(-0.01 0.01)" style="fill:#6a374f;stroke:#6a374f;stroke-miterlimit:10;stroke-width:0.75px"/><path d="M104.72,392.79c-2.63,4.52-2.8,8.52,1.2,12.19-5.66,1.14-8.36,4.7-8.91,10.53-4.55-4-9.47-4.54-14.74-2.06.28-6.91-.61-8.6-5.6-10.31,5.82-2.87,8.79-6.95,6-13.61,4.66,3,6.79,2.28,11.8-4C95.56,391.09,98.37,394.32,104.72,392.79Z" transform="translate(-0.01 0.01)" style="fill:#6a374f"/><path d="M167,167.09c-14.42,8.1-31,6.06-46.3,1.87-8.23-2.25-17.21-4.17-23.55,3.13-4.31,4.95-6.38,11.48-11.73,15.56-8,6.11-17.58,3.86-24-2.25,5,8.3,13.12,12.73,23.22,14.62,7.31,1.36,13.57-.16,18.75-5.78,4.74-5.15,7.53-11.78,13.37-16.62a28.07,28.07,0,0,0-8.91.41c-3.68.8-6.15,3.17-8.35,6.53a6,6,0,0,1,1-3.52c3-5.3,10.79-8.69,17.7-7.88,5.23.61,9.85,2.81,14.43,5.14A26.91,26.91,0,0,0,150,181c11.21-2,19.77-8.16,26.73-16.84a22.08,22.08,0,0,0,4.38-10.27c.21-1.26.36-2.51.47-3.75C178.53,157.17,173.64,163.38,167,167.09Z" transform="translate(-0.01 0.01)" style="fill:#6a374f"/><path d="M242.61,105.28c-5.37,9.4-14.3,18-25.7,18.26-3.22.09-6.4-.65-9.56-1.15-4.18-.66-7.61-.22-11.79.31-3.7.46-6.85.16-9.07-3.13-1.21-1.79-1.91-3.88-3.12-5.68a29.09,29.09,0,0,0-8.26-7.72,49.41,49.41,0,0,0-14.22-6.26,38.79,38.79,0,0,1,6.85,4.72c9,7.65,14,17.55,16.62,28.82.78,3.32,2.18,4.13,5.54,3.38a24.38,24.38,0,0,0,7.66-3.53,25,25,0,0,1,19.77-3.3c8.09,1.84,15.21-.27,21.24-5.91,4.54-4.24,7.13-9.67,8.55-15.59a143.49,143.49,0,0,1,8.2-23.3,32.23,32.23,0,0,0,1.91-6C249.4,85,247.19,97.26,242.61,105.28Z" transform="translate(-0.01 0.01)" style="fill:#6a374f"/><path d="M62,130c-4.9,6.26-6.33,14.07-12,18.62-7.6,6.07-16.88-2.73-16.11-11.91a6.8,6.8,0,0,0-.06-.9A49.81,49.81,0,0,0,33,141.1c-.73,7.71,2.38,13.56,9.82,16.15a19.91,19.91,0,0,0,8.36.9c1.24-.11,1.81-.51,2-1.7a46.87,46.87,0,0,1,3.08-9.89C61,135.71,71,122.09,81.58,113.75,76.78,116.87,65.59,125.38,62,130Z" transform="translate(-0.01 0.01)" style="fill:#6a374f"/></g><g id="Layer_1-2" data-name="Layer 1-2"><path d="M267.42,208.9c-3.41-9.52-8.24-18-16.77-23.94a14.07,14.07,0,0,0-5.34-2.27c-1.54-.3-2.74-.21-3.55,1.21s.06,2.59,1.08,3.59a65.55,65.55,0,0,1,7.34,8.28c6.23,8.62,6.42,17.66,1.32,26.72-4.89,8.67-13,11.16-22.41,10.43-6.72-.53-13.35-1.67-20-2.59-9.31-1.27-18.59-1.72-27.86.28a39.56,39.56,0,0,0-11.28,4.2,3.23,3.23,0,0,1-.07-.69c3.42-13.34,1.52-26.08-4.07-38.49a96.67,96.67,0,0,0-11.65-19.27c-1.07-1.39-1.35-2.14.64-3.07a48.94,48.94,0,0,0,12.94-9.4c5.23-5,8.73-10.94,9.77-18.19a53.33,53.33,0,0,0,.48-10.18c0-.77-.38-2,1-2,5.27,0,9.59-2.56,13.88-5.12a19.35,19.35,0,0,1,14.83-2.28c14.44,3.33,25.5-4,31.2-13.5a50,50,0,0,0,5.19-13.29c1.71-6.5,3.27-13,6.59-19a31.2,31.2,0,0,0,3.25-9.85c2.61-14.64-4.86-26.6-19.2-30.59a1.19,1.19,0,0,1-1.07-1.3h0C233,29.2,225,23.72,216.81,22.81c-6.33-.7-12.39.55-18.4,2.32-6.68,2-6.67,2-11.82-2.88-6.25-5.88-13.47-9.25-22.24-8a43.84,43.84,0,0,0-23.16,10.58,43.55,43.55,0,0,0-10.12,13.68l-.77-1.77c-3.42-7.93-9.67-12-18.3-11.6A35.24,35.24,0,0,0,86.68,37.31c-2.22,2.48-4.29,5.12-6.7,7.4a18.19,18.19,0,0,1-11,5.36c-8.15.85-14.4,5-17.91,12.67a4.55,4.55,0,0,1-2.89,2.79A24,24,0,0,0,34.82,76.09c-1.56,2.68-2.72,5.64-1.61,8.69.63,1.73.16,2.33-1.12,3.22-7.09,4.93-12.85,11-16,19.22-3.23,8.41-3.22,16.27,3.81,23a2.29,2.29,0,0,1,.52,2.18,22.14,22.14,0,0,0,1.44,10.86c3.17,7.46,10.81,11.82,20.21,11.39,1.76-.08,2.17.3,2,2a38.66,38.66,0,0,0,3.4,19.46c5.65,12,15.62,17.92,28.22,20.32q15,2.88,24.41-9c1.87-2.38,3.6-4.89,5.34-7.38a36.57,36.57,0,0,1,4.18-5.26c4.13-4,5.42-4.21,10.43-1.61,5.6,2.91,11.38,5,17.81,4.77a1.86,1.86,0,0,1,1.78,1c4.89,7.25,10.16,14.27,13.7,22.34s5.28,16.67,3.81,25.6c-1.3,7.87-5.24,14.47-9.89,20.76-3,4.11-7.16,7.15-10.59,10.88-6.5,7.07-11.74,15.06-16.95,23.07a3.48,3.48,0,0,1-3.1,1.86,88.65,88.65,0,0,0-10.79,1.11,56,56,0,0,0-15.75,4.63c-4.9,2.42-8.45,11.42-4.82,16.31a5,5,0,0,1,.64,3.32c-.06,3.47.59,7,3.34,9.07,3.49,2.6,3.85,5.65,3.16,9.36a3.09,3.09,0,0,0,0,.43C91.93,339,87.33,348,77.57,354.1c-1.9,1.19-3.7,2.54-5.59,3.75A43.86,43.86,0,0,0,54.73,378a76.35,76.35,0,0,0-4.48,14c-2.94,13.87-3.59,28-4.32,42.07-1,19.17,1.16,38.18,2.64,57.22a10,10,0,0,0,.6,2.52c2.35,7.05,7.24,11.86,13.6,15.38.93.52,2.09.75,2.71,1.73,3,4.73,7.71,6.79,12.82,8.23,9.64,2.71,19.56,4,29.45,5.11,21.67,2.4,43.22.93,64.62-3,7.91-1.44,14.82-4.85,19.66-11.61a4,4,0,0,1,1.52-1.19c8.08-4.23,12.58-11.17,14.51-19.81,2.23-9.92,2.54-20.08,3-30.18a330.44,330.44,0,0,0-.91-42.33c-.84-10.38-2-20.74-5-30.78-3.52-11.64-9.76-21.22-20.27-27.74-2.83-1.75-5.54-3.7-8.21-5.68a28,28,0,0,1-11.32-19.07,94.13,94.13,0,0,1-.47-19.28,8.8,8.8,0,0,1,2-5.44c5.84-7.28,3.79-15.7-4.71-19.48-6.48-2.89-13.42-4-20.42-4.73-1.42-.14-2-.35-1-1.87,2.11-3.2,4.24-6.4,6.07-9.77,2.64-4.85,7-6.87,12.06-7.85,6.28-1.2,12.39-.11,18.51,1.16,9.29,1.92,18.19,5.27,27.44,7.37,14.78,3.34,28.92,2.07,42.15-5.75C261.58,258.59,276.56,234.38,267.42,208.9Z" transform="translate(-0.01 0.01)" style="fill:#fff;stroke:#fff;stroke-linecap:round;stroke-linejoin:round;stroke-width:28px"/><g id="_5dxRs4.tif" data-name=" 5dxRs4.tif"><path d="M132.07,38.52l-.77-1.77c-3.42-7.93-9.66-12-18.29-11.6A35.25,35.25,0,0,0,87.68,37.31c-2.22,2.48-4.29,5.12-6.69,7.4a18.27,18.27,0,0,1-11,5.36c-8.15.85-14.4,5-17.91,12.67a4.55,4.55,0,0,1-2.89,2.79A24,24,0,0,0,35.82,76.09c-1.56,2.68-2.72,5.64-1.61,8.69.64,1.73.16,2.33-1.12,3.22-7.09,4.93-12.85,11-16,19.22-3.23,8.41-3.22,16.27,3.81,23a2.29,2.29,0,0,1,.52,2.18,22.14,22.14,0,0,0,1.44,10.86c3.17,7.46,10.82,11.82,20.21,11.39,1.76-.08,2.17.3,2,2a38.66,38.66,0,0,0,3.4,19.46c5.65,12,15.62,17.92,28.22,20.32q15,2.88,24.41-9c1.87-2.38,3.6-4.89,5.34-7.38a36,36,0,0,1,4.19-5.26c4.12-4,5.41-4.21,10.42-1.61,5.6,2.91,11.38,5,17.81,4.77a1.86,1.86,0,0,1,1.78,1c4.89,7.25,10.16,14.27,13.7,22.34s5.28,16.67,3.81,25.6c-1.3,7.87-5.24,14.47-9.89,20.76-3,4.11-7.16,7.15-10.59,10.88-6.5,7.07-11.74,15.06-16.95,23.07a3.45,3.45,0,0,1-3.09,1.86,86.87,86.87,0,0,0-10.8,1.11,56,56,0,0,0-15.75,4.63c-4.9,2.42-8.45,11.42-4.82,16.31a5,5,0,0,1,.64,3.32c-.06,3.47.59,7,3.34,9.07,3.5,2.6,3.85,5.65,3.16,9.36a3.09,3.09,0,0,0,0,.43C92.93,339,88.33,348,78.57,354.1c-1.9,1.19-3.7,2.54-5.59,3.75A44,44,0,0,0,55.73,378a76.35,76.35,0,0,0-4.48,14c-2.94,13.87-3.59,28-4.31,42.07-1,19.17,1.15,38.18,2.63,57.22a10,10,0,0,0,.6,2.52c2.35,7.05,7.24,11.86,13.6,15.38.93.52,2.09.75,2.71,1.73,3,4.73,7.71,6.79,12.82,8.23,9.64,2.71,19.56,4,29.45,5.11,21.67,2.4,43.22.93,64.62-3,7.92-1.44,14.82-4.85,19.66-11.61a4,4,0,0,1,1.52-1.19c8.08-4.23,12.58-11.17,14.51-19.81,2.23-9.92,2.55-20.08,3-30.18a330.44,330.44,0,0,0-.91-42.33c-.84-10.38-2-20.74-5-30.78-3.51-11.64-9.75-21.22-20.27-27.74-2.83-1.75-5.54-3.7-8.21-5.68a28,28,0,0,1-11.32-19.07,93.42,93.42,0,0,1-.46-19.28,8.71,8.71,0,0,1,2-5.44c5.84-7.28,3.79-15.7-4.71-19.48-6.48-2.89-13.42-4-20.42-4.73-1.42-.14-2-.35-1-1.87,2.11-3.2,4.24-6.4,6.07-9.77,2.65-4.85,7-6.87,12.06-7.85,6.28-1.2,12.39-.11,18.51,1.16,9.29,1.92,18.19,5.27,27.44,7.37,14.78,3.34,28.92,2.07,42.15-5.75,14.65-8.68,29.63-32.89,20.49-58.37-3.41-9.52-8.24-18-16.77-23.94a14.07,14.07,0,0,0-5.34-2.27c-1.54-.3-2.74-.21-3.55,1.21s.06,2.59,1.08,3.59a63.45,63.45,0,0,1,7.34,8.28c6.23,8.62,6.42,17.66,1.32,26.72-4.89,8.67-13,11.16-22.41,10.43-6.72-.53-13.35-1.67-20-2.59-9.31-1.27-18.59-1.72-27.86.28a39.21,39.21,0,0,0-11.27,4.2,3.25,3.25,0,0,1-.08-.69c3.43-13.34,1.52-26.08-4.07-38.49a96.67,96.67,0,0,0-11.65-19.27c-1.07-1.39-1.35-2.14.64-3.07a48.94,48.94,0,0,0,12.94-9.4c5.23-5,8.73-10.94,9.77-18.19a53.33,53.33,0,0,0,.48-10.18c0-.77-.38-2,1-2,5.26,0,9.58-2.56,13.87-5.12a19.35,19.35,0,0,1,14.83-2.28c14.44,3.33,25.51-4,31.2-13.5a50,50,0,0,0,5.19-13.29c1.71-6.5,3.27-13,6.59-19A31.2,31.2,0,0,0,255,70.44c2.61-14.64-4.86-26.6-19.2-30.59a1.2,1.2,0,0,1-1.07-1.3C234,29.2,226,23.72,217.81,22.81c-6.33-.7-12.39.55-18.4,2.32-6.68,2-6.67,2-11.82-2.88-6.25-5.88-13.47-9.25-22.24-8a43.84,43.84,0,0,0-23.16,10.58A43.59,43.59,0,0,0,132.07,38.52Z" transform="translate(-0.01 0.01)" style="fill:#fffefe"/><path d="M132.07,38.52a43.55,43.55,0,0,1,10.12-13.68,43.84,43.84,0,0,1,23.16-10.58c8.77-1.26,16,2.11,22.24,8,5.15,4.85,5.14,4.85,11.82,2.88,6-1.77,12.07-3,18.4-2.32,8.17.91,16.21,6.39,16.84,15.84a1.2,1.2,0,0,0,1.07,1.3c14.34,4,21.81,15.95,19.2,30.59a31.2,31.2,0,0,1-3.25,9.85c-3.32,6-4.88,12.49-6.59,19a50,50,0,0,1-5.19,13.29c-5.69,9.5-16.76,16.83-31.2,13.5a19.35,19.35,0,0,0-14.83,2.28c-4.29,2.56-8.61,5.11-13.87,5.12-1.4,0-1.05,1.18-1,2a53.33,53.33,0,0,1-.48,10.18C177.51,153,174,159,168.74,164a48.94,48.94,0,0,1-12.94,9.4c-2,.93-1.71,1.68-.64,3.07a96.67,96.67,0,0,1,11.65,19.27c5.59,12.41,7.5,25.15,4.07,38.49a3.25,3.25,0,0,0,.08.69,39.21,39.21,0,0,1,11.27-4.2c9.27-2,18.55-1.55,27.86-.28,6.67.92,13.3,2.06,20,2.59,9.43.73,17.52-1.76,22.41-10.43,5.1-9.06,4.91-18.1-1.32-26.72a63.45,63.45,0,0,0-7.34-8.28c-1-1-2-2.06-1.08-3.59s2-1.51,3.55-1.21a14.07,14.07,0,0,1,5.34,2.27C260.18,191,265,199.45,268.42,209c9.14,25.48-5.84,49.69-20.49,58.37-13.23,7.82-27.37,9.09-42.15,5.75-9.25-2.1-18.15-5.45-27.44-7.37-6.12-1.27-12.23-2.36-18.51-1.16-5.1,1-9.41,3-12.06,7.85-1.83,3.37-4,6.57-6.07,9.77-1,1.52-.39,1.73,1,1.87,7,.74,13.94,1.84,20.42,4.73,8.5,3.78,10.55,12.2,4.71,19.48a8.71,8.71,0,0,0-2,5.44,93.42,93.42,0,0,0,.46,19.28,28,28,0,0,0,11.39,19c2.67,2,5.38,3.93,8.21,5.68,10.52,6.52,16.76,16.1,20.27,27.74,3,10,4.17,20.4,5,30.78a330.44,330.44,0,0,1,.91,42.33c-.47,10.1-.79,20.26-3,30.18-1.93,8.64-6.43,15.58-14.51,19.81a4,4,0,0,0-1.52,1.19c-4.84,6.76-11.74,10.17-19.66,11.61-21.4,3.89-43,5.36-64.62,3-9.89-1.09-19.81-2.4-29.45-5.11-5.11-1.44-9.82-3.5-12.82-8.23-.62-1-1.78-1.21-2.71-1.73-6.36-3.52-11.25-8.33-13.6-15.38a10,10,0,0,1-.6-2.52C48.1,472.35,46,453.3,47,434.13c.72-14.1,1.37-28.2,4.31-42.07a76.35,76.35,0,0,1,4.48-14A43.92,43.92,0,0,1,73,357.85c1.89-1.21,3.69-2.56,5.59-3.75,9.74-6.1,14.34-15.1,14.82-26.48a3.09,3.09,0,0,1,0-.43c.69-3.71.34-6.76-3.16-9.36-2.75-2-3.4-5.6-3.34-9.07a5,5,0,0,0-.64-3.32c-3.63-4.89-.08-13.89,4.82-16.31a56,56,0,0,1,15.75-4.63,86.87,86.87,0,0,1,10.8-1.11,3.45,3.45,0,0,0,3.09-1.86c5.21-8,10.45-16,17-23.07,3.43-3.73,7.55-6.77,10.59-10.88,4.65-6.29,8.59-12.89,9.89-20.76,1.47-8.93-.21-17.42-3.81-25.6s-8.81-15.09-13.7-22.34a1.86,1.86,0,0,0-1.78-1c-6.43.28-12.21-1.86-17.81-4.77-5-2.6-6.3-2.35-10.42,1.61a36,36,0,0,0-4.19,5.26c-1.74,2.49-3.47,5-5.34,7.38-6.28,8-14.39,11-24.41,9C64.1,194,54.13,188,48.48,176a38.66,38.66,0,0,1-3.4-19.46c.13-1.75-.28-2.13-2-2-9.39.43-17-3.93-20.21-11.39a22.14,22.14,0,0,1-1.44-10.86,2.29,2.29,0,0,0-.52-2.18c-7-6.7-7-14.56-3.81-23C20.24,99,26,92.93,33.09,88c1.28-.89,1.76-1.49,1.12-3.22-1.11-3,0-6,1.61-8.69A24,24,0,0,1,49.15,65.53,4.54,4.54,0,0,0,52,62.74c3.55-7.63,9.8-11.82,18-12.67a18.27,18.27,0,0,0,11-5.36c2.4-2.28,4.47-4.92,6.69-7.4A35.25,35.25,0,0,1,113,25.15c8.63-.44,14.87,3.67,18.29,11.6Zm74.4,36.11h0a25.4,25.4,0,0,1-10.63,3.49c-5.65.65-11.27-.13-16.89-.67a46.83,46.83,0,0,0-21.56,2.68c-3.82,1.46-7.12,3.54-8.41,7.83-.36,1.19-.15,1.57,1,2a37.32,37.32,0,0,1,10.71,6.51c9,7.65,13.95,17.55,16.62,28.82.78,3.33,2.18,4.13,5.54,3.38a24.36,24.36,0,0,0,7.66-3.52,25,25,0,0,1,19.77-3.28c8.09,1.85,15.21-.27,21.24-5.9,4.54-4.24,7.13-9.68,8.55-15.6a144.29,144.29,0,0,1,8.19-23.29,30.59,30.59,0,0,0,2.49-14.84,19.53,19.53,0,0,0-21.1-17.83l-.9.1A37.6,37.6,0,0,0,217.21,48c-12.73,6.33-25.69,12-39.49,15.6a24.51,24.51,0,0,0-9.1,4.47,8.47,8.47,0,0,0-3.37,5.21,7.33,7.33,0,0,0,1.4-.08,45.69,45.69,0,0,1,19.56,1.29C192.94,76.48,199.7,76.87,206.47,74.63ZM165.53,303.57c-12.37,5-25.34,5.77-38.37,5.49s-26-1.42-38-7.5c2,4.11,5.39,6.5,9.26,8.39a51.58,51.58,0,0,0,12.07,4.14,95.54,95.54,0,0,0,12.34,2c-10.82.72-21.71,1.86-31.67-5.3a10.16,10.16,0,0,0,5.83,7,46,46,0,0,0,14.12,4c9.46,1.42,19,2.16,28.83,2.85-1.13.21-2,.44-2.8.51-5.48.44-10.94,1.26-16.45,1.1-1,0-1.6.21-1.58,1.43,0,6,.49,12,2.69,17.7a45.22,45.22,0,0,0,3,6.66,19.22,19.22,0,0,1-6.18-6.62,34.74,34.74,0,0,1-4-17.37c0-.9.25-1.84-1.25-2a66.2,66.2,0,0,1-14-2.81c-.92-.3-1.33-.13-1.35.92,0,1.6-.12,3.19-.24,4.78C97,339,93.61,347.79,85.55,354.37c-3.49,2.84-7.27,5.26-11,7.76A39.39,39.39,0,0,0,60.4,378.48c-4.63,9.95-6.1,20.59-7.36,31.31-.89,7.55-1.2,15.15-1.52,22.74a289.39,289.39,0,0,0,.07,30.61c.48,7.44,1.17,14.87,1.5,22.31a22.58,22.58,0,0,0,3.3,11.07c4.1,6.66,10.58,9.79,17.85,11.65,6.64,1.7,13.43,2.63,20.17,3.85,6.51,1.17,12.92,3.07,19.61,3.18.47,0,.83.22,1.25.84L102,517c-4.3.29-8.6-.42-12.9-.27,13.14,2.19,26.24,4.44,39.62,4.22a278.59,278.59,0,0,0,39.65-3.33c-8.56,0-17.13,1.49-26.32-.12a14.93,14.93,0,0,1,1.62-.45c6-.74,11.83-1.92,17.71-3.09,8.36-1.67,16.65-3.44,24.7-6.4,10.45-3.84,17-10.67,19.11-21.8a174.88,174.88,0,0,0,2.48-26.54A363.79,363.79,0,0,0,206.39,413a147.58,147.58,0,0,0-3.84-24c-3.2-12.2-9.47-22.12-20.61-28.59a72.48,72.48,0,0,1-6.95-4.84,32.36,32.36,0,0,1-12.7-19.83c-.9-4.34-.95-8.77-1.5-13.15-.35-2.84.06-5.69,0-8.6-4.09,1.33-3.47.91-3.12,4.25a12.45,12.45,0,0,1,.07,1.73,122.32,122.32,0,0,0,1.18,20.77c.37,2.66,1.06,5.26,1.4,8a15.29,15.29,0,0,1-3.76-5.14C153,335.53,152,327,151.8,318.27c0-1.45-.38-1.74-1.71-1.44a35.68,35.68,0,0,1-9.43,1C149.83,314.64,159.74,312.66,165.53,303.57Zm93-103.52c2.66,6.36,2.4,12.5.45,18.64-3.37,10.6-10.5,16.84-21.55,18.53-6.34,1-12.54-.39-18.77-1.17-8.4-1.05-16.74-2.75-25.26-2.33-6.6.32-13.12,1.17-19.08,4.37-3.09,1.66-5.78,4.26-6.57,6.09,12.38-3.7,24.48-3.58,35.94,3.5a45.27,45.27,0,0,0-26-2c-8.94,2-16.26,6.38-21.09,14.94a33.67,33.67,0,0,1,11.74-1c9.73.77,19,3.6,28.29,6.37s18.35,4.9,28,4.14,18.67-3.68,25.77-10.24c17.1-15.81,21.29-37.42,9.92-58.37a2.65,2.65,0,0,0-1.76-1.47ZM163.67,55.77c-6.84,15.79-33.15,28.85-44.45,29.68a9.4,9.4,0,0,1,1.15-.84c6.37-3.17,12.25-7.14,18.28-10.85,5.82-3.57,11.41-7.43,16.08-12.47a18,18,0,0,0,4.34-6.68c.78-2.44.31-3.65-1.81-4.94a9,9,0,0,0-3-1.15,36.72,36.72,0,0,0-13.18.27A117.47,117.47,0,0,0,93.92,68.86C89.3,72.13,85,75.77,82,80.72c-2.74,4.55-1.54,7.49,3.6,8.92a36.39,36.39,0,0,0,10.34,1.07h4.51c-7,3.32-13.73,3.42-21.36.7-.26,3.47,2,5.72,3.78,8.3A33.57,33.57,0,0,1,90,96.12c3.79-1.18,7.59-1.58,11,1,1.16.86,1.68.74,2.55-.28a29.75,29.75,0,0,1,3.72-3.64,19.68,19.68,0,0,1,9.44-4.62c5.41-.89,10,.39,13.36,5.21A11.59,11.59,0,0,1,140.38,88a27.41,27.41,0,0,1,3,.16c.71.06,1.2.08,1.35-.88.68-4.35,3.48-7.18,7-9.4a31.75,31.75,0,0,1,8-3.29c.6-.18,1.36-.19,1.3-1.14-.23-3.79,1.82-6.41,4.48-8.71a1.48,1.48,0,0,0,.72-1.46A17.16,17.16,0,0,0,163.67,55.77ZM75.63,82a28.12,28.12,0,0,1-10.88.75c-11-1.13-20.45,2.7-29.19,9C28,97.11,22.13,103.76,20,113.11a14.09,14.09,0,0,0,1.5,11.07c1.39,2.27,1.44,2.31,3,.28a9.74,9.74,0,0,1,1-1.13c.48-.43,1.08-1,1.68-.76s.32,1.17.23,1.75c-.48,2.92-1.25,5.81-1.53,8.75-.72,7.71,2.39,13.56,9.83,16.15a19.91,19.91,0,0,0,8.36.9,1.91,1.91,0,0,0,2.07-1.73.76.76,0,0,0,0-.15,37.57,37.57,0,0,1,2.7-8.91,87.82,87.82,0,0,1,28-35.35c.9-.7,1.82-1.38,2.7-2-.93-1-2-1.66-2.47-2.65-1-2.27-2.77-2.48-4.77-2.47a28.24,28.24,0,0,0-3.9.21c-8.61,1.29-16,5.33-22.82,10.46-.7.52-1.26,1.48-2.5.83,2.24-2.5,4.44-5,6.66-7.44a22.76,22.76,0,0,1,9.33-6.14,35,35,0,0,1,13.81-2.39c.54,0,1.72.34,1.41-.65C73.2,88.3,75,85.41,75.63,82Zm112-53.29c-3.68-2.79-7-5.4-10.47-7.9A11.45,11.45,0,0,0,170,18.54a37.65,37.65,0,0,0-27.66,12.55c-3.86,4.15-6.24,9.23-8.92,14.56,1-.2,1.68-.3,2.3-.44a57.27,57.27,0,0,1,16.81-1.45,15,15,0,0,1,7.79,2.41c4.86,3.43,8.69,7.67,9.92,13.72.3,1.52.86,1.41,2,1A77.76,77.76,0,0,1,180,58.17,140.07,140.07,0,0,0,206.72,48c7.08-3.69,14.3-7,22.35-8,1.21-.14,1.11-.82,1-1.67-.64-4.8-3.53-7.8-7.78-9.66s-8.62-1.71-13-1.11c-6.06.83-11.77,3-17.58,4.74s-11.64,3.54-17.8,3.65a6.59,6.59,0,0,1-4.59-1.2c6.18-1.45,11.93-4,18.26-6ZM86.7,51a26.52,26.52,0,0,1-2.62.68c-5,.75-9.94,1.89-14.89,3a19,19,0,0,0-12.86,9.2c7.22-1.69,14-.32,21.16-.73a40,40,0,0,1-16.2,4.61c-6.6.35-12.92,1.82-18.06,6.4a13.52,13.52,0,0,0-4.89,8.21c-.08.59-.34,1.41.29,1.78s1.06-.29,1.54-.56a40.07,40.07,0,0,1,22.49-5.36,117.49,117.49,0,0,0,12.59-.1A5.44,5.44,0,0,0,80,75.68a31,31,0,0,1,5.82-6.13c11.45-9.78,24.68-16.32,38.8-21.23,5-1.74,4.06-.39,3.47-5.58-.94-8.24-6.75-13.46-14.51-13.14A30.8,30.8,0,0,0,94,37.34c-4.39,3.86-7.47,8.95-12.19,12.72C83.47,50.64,85,50,86.7,51Zm50.92,225.42.27.18a4.65,4.65,0,0,0,.63-.53,230,230,0,0,0,22-29.57c8.44-13.73,9.68-28.16,4.48-43.29-3.37-9.76-9-18.25-15-26.53-.29-.39-.53-.64-1-.49l-3.94,1.12c.31.47.47.7.62.94,5.19,7.83,10.79,15.43,14.07,24.35,5,13.45,5,26.7-2.43,39.28-4.54,7.65-8.88,15.4-13.21,23.16-2.11,3.79-4.32,7.56-6.49,11.35ZM116.68,288a87.28,87.28,0,0,0-14.3,2c-3.51.8-7,1.71-10,3.81-2,1.37-2,2.42-.07,3.84a23.24,23.24,0,0,0,6.63,3.11c.83.28,1.12.15,1.24-.77.25-2,1.65-3.14,3.29-4a28,28,0,0,1,9.08-2.7c.8-.12,1.55-.21,2-1.06.55-1.33,1.25-2.58,2.13-4.26Zm22.51,0c-1.05-.43-1.33.66-1.82,1.44-1.67,2.63-1.67,2.62,1.41,2.86A56.41,56.41,0,0,1,153.64,295c2,.73,4.27,1.51,4.88,3.62.76,2.62,1.93,2.2,3.63,1.24,1.49-.83,3.69-1.32,3.75-3.2.07-2.05-2.15-2.68-3.74-3.43-7.16-3.4-15-4.15-23-5.28Z" transform="translate(-0.01 0.01)" style="fill:#474747;stroke:#474747;stroke-linecap:round;stroke-linejoin:round;stroke-width:6px"/><path d="M165.53,303.57c-5.79,9.09-15.7,11.07-24.92,14.26a35.68,35.68,0,0,0,9.43-1c1.33-.3,1.68,0,1.71,1.44.18,8.7,1.21,17.26,4.76,25.33a15.29,15.29,0,0,0,3.76,5.14c-.34-2.7-1-5.3-1.4-8A122,122,0,0,1,157.69,320a12.45,12.45,0,0,0-.07-1.73c-.35-3.34-1-2.92,3.12-4.25.11,2.91-.3,5.76,0,8.6.55,4.38.6,8.81,1.5,13.15A32.35,32.35,0,0,0,175,355.58a72.48,72.48,0,0,0,6.95,4.84c11.14,6.47,17.41,16.39,20.61,28.59a147.58,147.58,0,0,1,3.84,24,363.8,363.8,0,0,1,1.31,46.22,174.88,174.88,0,0,1-2.48,26.54c-2.1,11.13-8.66,18-19.11,21.8-8.05,3-16.34,4.73-24.7,6.4-5.88,1.17-11.76,2.35-17.71,3.09a14.93,14.93,0,0,0-1.62.45c9.19,1.61,17.76.13,26.32.12A278.59,278.59,0,0,1,128.76,521c-13.38.22-26.48-2-39.62-4.22,4.3-.15,8.6.56,12.9.27l13.25-.85c-.42-.62-.78-.83-1.25-.84-6.69-.11-13.1-2-19.61-3.18-6.74-1.22-13.53-2.15-20.17-3.85-7.27-1.86-13.75-5-17.85-11.65a22.58,22.58,0,0,1-3.3-11.07c-.33-7.44-1-14.87-1.5-22.31a289.39,289.39,0,0,1-.07-30.61c.32-7.59.63-15.19,1.52-22.74,1.26-10.72,2.73-21.36,7.36-31.31a39.39,39.39,0,0,1,14.15-16.35c3.73-2.5,7.51-4.92,11-7.76C93.62,347.87,97,339.09,97.79,329c.12-1.59.22-3.18.24-4.78,0-1.05.43-1.22,1.35-.92a66.2,66.2,0,0,0,14,2.81c1.5.15,1.28,1.09,1.25,2a34.74,34.74,0,0,0,4,17.37,19.22,19.22,0,0,0,6.18,6.62,45.22,45.22,0,0,1-3-6.66c-2.2-5.7-2.64-11.67-2.69-17.7,0-1.22.53-1.46,1.58-1.43,5.51.16,11-.66,16.45-1.1.84-.07,1.67-.3,2.8-.51-9.85-.69-19.37-1.43-28.83-2.85a46,46,0,0,1-14.12-4,10.16,10.16,0,0,1-5.83-7c10,7.16,20.85,6,31.67,5.3a95.54,95.54,0,0,1-12.34-2A51.92,51.92,0,0,1,98.39,310c-3.87-1.89-7.29-4.28-9.26-8.39,12,6.08,25,7.22,38,7.5S153.16,308.55,165.53,303.57ZM84.79,494.32c.66.92.77.5.88-.31a113.73,113.73,0,0,0,1.17-15.31c.23-18.62.07-37.24-.82-55.85.81-4.36.91-8.78,1.31-13.18,1.51.55,2.56,1.95,4.21,2.38-.05-.24-.07-.38-.1-.52-.94-5.62,1.59-10.36,6.18-11.3a36.42,36.42,0,0,1,5-.34,2.91,2.91,0,0,0,2.39-.75c-1.24-.63-2.36-1.12-3.4-1.75-4.34-2.64-5.2-6.41-2.42-10.66.59-.9,1.34-1.7,2-2.55a36.33,36.33,0,0,0,3.7-4.85,3.11,3.11,0,0,0-2.88.77,13.61,13.61,0,0,1-4.32,2.45c-4,1.43-7.25-.36-8.16-4.55a21.25,21.25,0,0,1-.41-3.65c-.07-1.67,0-3.34,0-5-1.79,2-2.27,4.38-3.55,6.39-3.71,5.8-8.06,5.94-12.08.33,0-.08-.2-.1-.35-.15-.58,1.52.52,2.93.31,4.47-.79-.67-1.58-2-2.46-1.34s.12,1.83.42,2.75c.06.2.2.38.28.58,1.91,4.47,1.13,7.64-2.6,10.81a14.72,14.72,0,0,1-4.24,2.57c-1,.38-2.09.69-2.44,2,1.41.91,3,.31,4.42.45,3.46.32,5.39,2.42,5.25,5.89a8.08,8.08,0,0,1-1.79,5.23,3.71,3.71,0,0,0-1,4,7.43,7.43,0,0,0,2.55-2.21,12.36,12.36,0,0,1,5.49-3.35c1-.29,1.43-.43,1.18,1-.63,3.71-1.23,7.43-1.51,11.17-1.27,17.17.24,34.27,1.44,51.38.31,4.49,1.84,8.76,2.07,13.25-.28,3.09,1,5.78,2.31,8.42C83.19,493.66,83.71,494.45,84.79,494.32Zm107.75-54.6a3.94,3.94,0,0,0-.34,1,173.2,173.2,0,0,1-2.77,18.41c-1.91,9.6-5.2,18.71-11.74,26.2-8.22,9.43-18,16.63-30.13,20.41-.94.3-2.58.48-2.26,1.75.27,1,1.8.42,2.71.29a146.21,146.21,0,0,0,26.54-6.06c8-2.78,13.74-8.19,16.51-16.33,2.35-6.9,2.41-14.07,2-21.25-.17-3.32-.95-6.62-.46-9.95.75-4.85.2-9.67-.06-14.47Z" transform="translate(-0.01 0.01)" style="fill:#ace3fc"/><path d="M92.35,176.56c2.19-3.36,4.66-5.73,8.35-6.53a28,28,0,0,1,8.9-.41c-5.83,4.84-8.62,11.47-13.36,16.62-5.18,5.62-11.44,7.14-18.75,5.78-12.23-2.29-21.58-8.29-26-20.39-3.18-8.76-2.8-17.73.1-26.44,5.57-16.76,16.56-29.46,30.7-39.66a56.9,56.9,0,0,1,8.1-5.06c2.75-1.34,5.58-2,8.6-.93,0,0-1.52,1.35-2.12,2-7.12,7.5-10.34,27.35-5.72,36.7.46-12.32,5.16-28.72,15.44-39.41,4.2-4.38,9.23-7.19,15.64-6.57,2.52.24,3.94,1.09,4.72,2.77a7.68,7.68,0,0,1,.17,2.66c-1.34,6.84-1,22.42,4.15,30.24h0c0-6.6,1.07-26.76,1.85-30.17,1-4.33,2.62-6.4,7.08-6.26,7.64.22,13.68,4,18.92,9.09,5.89,5.77,9.53,13,12.28,20.67a48.17,48.17,0,0,1,2.46,24.57,22,22,0,0,1-4.38,10.27c-6.92,8.72-15.48,14.9-26.7,16.9a26.9,26.9,0,0,1-17.26-2.68c-4.59-2.32-9.21-4.53-14.43-5.14-6.91-.81-14.68,2.58-17.7,7.88A5.9,5.9,0,0,0,92.35,176.56Z" transform="translate(-0.01 0.01)" style="fill:#eab9e5"/><path d="M205.47,74.63c-6.77,2.24-13.53,1.85-20.26-.17a45.69,45.69,0,0,0-19.56-1.29c-.42.06-.85,0-1.4.08A8.54,8.54,0,0,1,167.61,68a24.48,24.48,0,0,1,9.11-4.47C190.52,60,203.48,54.3,216.21,48a37.63,37.63,0,0,1,11.6-3.46,19.53,19.53,0,0,1,21.9,16.83c0,.3.07.6.1.9a30.59,30.59,0,0,1-2.49,14.84,144.29,144.29,0,0,0-8.19,23.29c-1.42,5.92-4,11.36-8.55,15.6-6,5.63-13.15,7.75-21.24,5.9a25,25,0,0,0-19.77,3.28,24.36,24.36,0,0,1-7.66,3.52c-3.36.75-4.76,0-5.55-3.38-2.66-11.27-7.64-21.17-16.62-28.82A37.22,37.22,0,0,0,149,90c-1.14-.45-1.35-.83-1-2,1.29-4.29,4.59-6.37,8.41-7.83A47,47,0,0,1,178,77.43c5.62.54,11.24,1.32,16.89.67a25.31,25.31,0,0,0,10.62-3.49v-.06Z" transform="translate(-0.01 0.01)" style="fill:#eab9e5"/><path d="M257.56,200.05a2.63,2.63,0,0,1,1.78,1.47c11.37,20.95,7.18,42.56-9.92,58.37-7.1,6.56-16.17,9.48-25.77,10.24s-18.82-1.4-28-4.14-18.56-5.6-28.29-6.37a33.67,33.67,0,0,0-11.74,1,37.59,37.59,0,0,1,21.09-12.94,60.63,60.63,0,0,1,26,0c-11.46-7.08-23.56-7.2-35.94-3.5.79-1.83,3.48-4.43,6.57-6.09,6-3.2,12.48-4.05,19.08-4.37,8.52-.42,16.86,1.28,25.26,2.33,6.23.78,12.43,2.14,18.77,1.17,11-1.69,18.17-7.93,21.55-18.53C260,212.55,260.22,206.41,257.56,200.05Z" transform="translate(-0.01 0.01)" style="fill:#9ecc6d"/><path d="M162.67,55.77a17.19,17.19,0,0,1,2.61,7.5,1.48,1.48,0,0,1-.72,1.46c-2.66,2.3-4.71,4.92-4.48,8.71.06,1-.7,1-1.3,1.14a31.39,31.39,0,0,0-8,3.29c-3.56,2.22-6.36,5-7,9.4-.15,1-.64.94-1.35.88a27.41,27.41,0,0,0-3-.16,11.48,11.48,0,0,0-10.3,5.77c-3.31-4.82-8-6.1-13.36-5.21a19.68,19.68,0,0,0-9.44,4.62,29.75,29.75,0,0,0-3.72,3.64c-.87,1-1.39,1.14-2.55.28-3.41-2.55-7.21-2.15-11-1a33.57,33.57,0,0,0-7.13,3.59c-1.73-2.58-4-4.83-3.78-8.3,7.63,2.72,14.39,2.62,21.36-.7H95a36.39,36.39,0,0,1-10.34-1.07c-5.14-1.43-6.34-4.37-3.6-8.92,3-5,7.32-8.59,11.94-11.86a117.35,117.35,0,0,1,47.13-20.07,36.72,36.72,0,0,1,13.18-.27,9,9,0,0,1,3,1.15c2.12,1.29,2.59,2.5,1.81,4.94a18,18,0,0,1-4.34,6.68c-4.67,5-10.26,8.9-16.08,12.47-6,3.71-11.92,7.68-18.28,10.85a9.4,9.4,0,0,0-1.15.84C129.52,84.62,155.83,71.56,162.67,55.77Z" transform="translate(-0.01 0.01)" style="fill:#fee9a9"/><path d="M71.68,82.63a1.93,1.93,0,0,1,2.21,1.6,1.83,1.83,0,0,1-.06.87c-.66,2.18-1.29,4.27-.55,6.6.31,1-.87.67-1.41.65a35,35,0,0,0-13.81,2.39,22.76,22.76,0,0,0-9.33,6.14c-2.22,2.46-4.42,4.94-6.66,7.44,1.24.65,1.8-.31,2.5-.83,6.59-4.93,13.65-8.86,21.83-10.3a25.08,25.08,0,0,1,3.87-.35c2.39,0,4.67-.2,5.79,2.45a4,4,0,0,0,.81,1.11,1.94,1.94,0,0,1,0,2.73l-.22.19-.86.66a87.87,87.87,0,0,0-27.61,34.55,47.49,47.49,0,0,0-3.09,9.89,1.87,1.87,0,0,1-2,1.7,19.91,19.91,0,0,1-8.36-.9c-7.44-2.59-10.55-8.44-9.83-16.15.28-2.94,1-5.83,1.52-8.75.1-.58.46-1.43-.22-1.75s-1.2.33-1.68.76a9.74,9.74,0,0,0-1,1.13c-1.6,2-1.65,2-3-.28A14.1,14.1,0,0,1,19,113.11c2.16-9.35,8-16,15.59-21.42,8.74-6.26,18.15-10.09,29.18-9A30.8,30.8,0,0,0,71.68,82.63Z" transform="translate(-0.01 0.01)" style="fill:#eab9e5"/><path d="M186.58,28.69c-6.33,2-12.08,4.59-18.29,6a6.59,6.59,0,0,0,4.59,1.2c6.15-.11,12-1.9,17.8-3.65s11.52-3.91,17.58-4.74c4.41-.6,8.83-.72,13,1.11s7.14,4.86,7.78,9.66c.12.85.22,1.53-1,1.67-8,1-15.27,4.32-22.35,8A140.78,140.78,0,0,1,179,58.12c-2.63.76-5.22,1.72-7.77,2.72-1.17.46-1.73.57-2-1-1.23-6-5.06-10.29-9.92-13.72a15,15,0,0,0-7.79-2.41,57.27,57.27,0,0,0-16.81,1.45c-.62.14-1.25.24-2.31.44,2.69-5.33,5.07-10.41,8.93-14.56A37.6,37.6,0,0,1,169,18.54a11.43,11.43,0,0,1,7.13,2.25C179.54,23.29,182.9,25.9,186.58,28.69Z" transform="translate(-0.01 0.01)" style="fill:#eab9e5"/><path d="M85.7,51c-1.71-1-3.23-.33-4.89-.91,4.73-3.77,7.81-8.86,12.2-12.72a30.74,30.74,0,0,1,19.6-7.74c7.76-.32,13.57,4.9,14.51,13.14.59,5.19,1.54,3.84-3.47,5.58C109.53,53.26,96.3,59.8,84.85,69.58A31,31,0,0,0,79,75.68a5.42,5.42,0,0,1-4.78,2.38,117.49,117.49,0,0,1-12.59.1,40.07,40.07,0,0,0-22.49,5.36c-.48.27-1,.88-1.54.56s-.37-1.19-.29-1.78a13.52,13.52,0,0,1,4.89-8.21c5.14-4.58,11.45-6,18.06-6.4a40,40,0,0,0,16.2-4.61c-7.11.41-13.94-1-21.16.73a19,19,0,0,1,12.86-9.2c5-1.07,9.88-2.21,14.89-3A26.75,26.75,0,0,0,85.7,51Z" transform="translate(-0.01 0.01)" style="fill:#eab9e5"/><path d="M136.62,276.39c2.17-3.79,4.37-7.56,6.5-11.38,4.33-7.76,8.67-15.51,13.21-23.16,7.45-12.58,7.38-25.83,2.43-39.28-3.28-8.92-8.88-16.52-14.07-24.35l-.62-.94c1.39-.39,2.67-.75,3.93-1.12.52-.15.76.1,1.05.49,6,8.28,11.6,16.77,15,26.53,5.21,15.13,4,29.56-4.47,43.29a230,230,0,0,1-22,29.57,6.31,6.31,0,0,1-.63.53Z" transform="translate(-0.01 0.01)" style="fill:#9ecc6d"/><path d="M115.68,287.92c-.88,1.68-1.58,2.93-2.21,4.21-.42.85-1.18.94-2,1.06a28,28,0,0,0-9.07,2.7c-1.64.88-3,2-3.29,4-.12.92-.41,1-1.24.77a23.24,23.24,0,0,1-6.63-3.11c-1.91-1.42-1.91-2.47.07-3.84,3-2.1,6.54-3,10-3.81A87,87,0,0,1,115.68,287.92Z" transform="translate(-0.01 0.01)" style="fill:#ace3fc"/><path d="M138.19,287.93c8,1.13,15.79,1.88,23,5.26,1.59.75,3.81,1.38,3.74,3.43-.06,1.88-2.26,2.37-3.75,3.2-1.7,1-2.87,1.38-3.63-1.24-.61-2.11-2.91-2.89-4.88-3.62-4.79-1.76-9.81-2.33-14.86-2.73-3.08-.24-3.08-.23-1.41-2.86C136.86,288.59,137.14,287.5,138.19,287.93Z" transform="translate(-0.01 0.01)" style="fill:#ace3fc"/><path d="M123.07,331.65a8.07,8.07,0,0,1,.64,1c3.21,8,8.63,14.52,14.09,21a85.12,85.12,0,0,1,16.49,31c.87,2.9.26,3,3.61,2L170.42,383c0,1-.7,1.21-1.24,1.56a58.16,58.16,0,0,1-11.64,5.77c-1.17.42-1.47.84-1.25,2.14,1.61,9.69,1.34,19.47,1.24,29.25-1.1-2.44-1.16-5.1-1.55-7.67-1-6.79-2.39-13.52-3.88-20.23-.28-1.29-.77-1.47-1.9-1.15-12.93,3.54-23.5,4.15-36.8,3.55a27.16,27.16,0,0,1-6.21-.91,10,10,0,0,1-4.33-2.38c-1.37-1.12-.81-3.3,1.44-2.63,5.37,1.45,10.87,1.45,16.37,1.65,10.5.39,18.15-1.37,28.41-3.24,1.21-.22,1.63-.61,1.21-2-3.31-11.08-8.22-21.29-15.84-30.1-2-2.3-3.8-4.75-5.69-7.12-3.16-3.95-4.54-8.68-5.82-13.43A7.88,7.88,0,0,1,123.07,331.65Z" transform="translate(-0.01 0.01)" style="fill:#474747;stroke:#474747;stroke-miterlimit:10"/><path d="M191.54,439.72c.26,4.8.81,9.62.1,14.45-.49,3.33.29,6.63.46,9.95.36,7.18.31,14.35-2,21.25-2.77,8.14-8.48,13.55-16.51,16.33A145.9,145.9,0,0,1,147,507.76c-.91.13-2.44.74-2.71-.29-.32-1.27,1.32-1.45,2.26-1.75,12.1-3.78,21.91-11,30.13-20.41,6.54-7.49,9.83-16.6,11.74-26.2a173.2,173.2,0,0,0,2.77-18.41A3.82,3.82,0,0,1,191.54,439.72Zm-28,61.56c7.3-1.43,14.08-3.86,19-9.74s6.6-13,6.56-20.6c-3.38,14.52-13.7,23.06-25.59,30.34Z" transform="translate(-0.01 0.01)" style="fill:#474747;stroke:#474747;stroke-miterlimit:10;stroke-width:2px"/><polygon points="205.46 74.64 205.5 74.56 205.49 74.62 205.46 74.64" style="fill:#0d0c0b"/><path d="M163.51,501.28c11.89-7.27,22.21-15.82,25.58-30.34,0,7.65-1.6,14.7-6.56,20.6S170.81,499.85,163.51,501.28Z" transform="translate(-0.01 0.01)" style="fill:#e6fdff"/></g><path d="M80.48,484.13c-.23-4.49-1.76-8.76-2.08-13.25-1.2-17.11-2.71-34.21-1.43-51.38.28-3.74.87-7.46,1.51-11.17.24-1.42-.24-1.28-1.19-1a12.32,12.32,0,0,0-5.48,3.35,7.43,7.43,0,0,1-2.55,2.21,3.67,3.67,0,0,1,1-4A8.09,8.09,0,0,0,72,403.71c.15-3.47-1.79-5.57-5.24-5.89-1.47-.14-3,.46-4.43-.45.36-1.29,5.4-3.46,6.68-4.55,3.74-3.17,4.51-6.34,2.61-10.81-.09-.2-.22-.38-.29-.58-.29-.92-1.3-2.11-.42-2.75s1.68.67,2.46,1.34c.22-1.54-.88-2.95-.3-4.47.14.05.29.07.35.15,4,5.61,8.37,5.47,12.07-.33,1.29-2,1.77-4.39,3.56-6.39v5a20.31,20.31,0,0,0,.42,3.65c.91,4.19,4.15,6,8.16,4.55a13.27,13.27,0,0,0,4.31-2.45,3.13,3.13,0,0,1,2.89-.77,36.33,36.33,0,0,1-3.7,4.85c-.67.85-1.42,1.65-2,2.55-2.77,4.24-1.92,8,2.43,10.66,1,.63,2.16,1.12,3.39,1.75a2.89,2.89,0,0,1-2.38.75,36.42,36.42,0,0,0-5,.34c-4.6.94-7.13,5.68-6.18,11.3a1.16,1.16,0,0,0,.1.52c-1.66-.43-2.7-1.83-4.21-2.38a11.49,11.49,0,0,0-5.5-2.3c-.84-.13-1.1,0-1.11,1-.12,16.72-.16,33.44.12,50.16.14,8.18.33,16.35.43,24.52C81.22,483.06,82.25,484.41,80.48,484.13Zm16.24-99.34c-6.35,1.53-9.16-1.7-10.26-7.26-5,6.28-7.14,7-11.8,4,2.8,6.66-.17,10.74-6,13.61,5,1.71,5.88,3.4,5.6,10.31,5.27-2.48,10.19-2,14.74,2.06.55-5.83,3.25-9.39,8.91-10.53C93.92,393.31,94.09,389.31,96.72,384.79Z" transform="translate(-0.01 0.01)" style="fill:#474747;stroke:#474747;stroke-miterlimit:10;stroke-width:3px"/><path d="M80.48,484.13c-.78-2.45.45-17.86.31-26-.28-16.72-.24-33.44-.12-50.16,0-1,.27-1.09,1.11-1a11.58,11.58,0,0,1,5.52,2.34c-.4,4.4-.51,8.82-1.31,13.18l-.64-1.84a21.8,21.8,0,0,0-1,5.55c-.7,10.46-.6,20.94-.73,31.42-.15,12.12-.28,24.26,1.15,36.34-1.08.13-1.6-.66-2-1.41C81.46,489.91,80.19,487.22,80.48,484.13Z" transform="translate(-0.01 0.01)" style="fill:#e6fdff"/><path d="M84.76,494c-1.43-12.08-1.3-24.22-1.15-36.34.13-10.48,0-21,.73-31.42a21.8,21.8,0,0,1,1-5.55l.64,1.84c.89,18.61,1,37.23.82,55.85a115.39,115.39,0,0,1-1.17,15.31C85.52,494.46,85.41,494.88,84.76,494Z" transform="translate(-0.01 0.01)" style="fill:#474747;stroke:#474747;stroke-miterlimit:10;stroke-width:0.75px"/><path d="M96.72,384.79c-2.63,4.52-2.8,8.52,1.2,12.19-5.66,1.14-8.36,4.7-8.91,10.53-4.55-4-9.47-4.54-14.74-2.06.28-6.91-.61-8.6-5.6-10.31,5.82-2.87,8.79-6.95,6-13.61,4.66,3,6.79,2.28,11.8-4C87.56,383.09,90.37,386.32,96.72,384.79Z" transform="translate(-0.01 0.01)" style="fill:#e6fdff"/><path d="M159,159.09c-14.42,8.1-31,6.06-46.3,1.87-8.23-2.25-17.21-4.17-23.55,3.13-4.31,4.95-6.38,11.48-11.73,15.56-8,6.11-17.58,3.86-24-2.25,5,8.3,13.12,12.73,23.22,14.62,7.31,1.36,13.57-.16,18.75-5.78,4.74-5.15,7.53-11.78,13.37-16.62a28.07,28.07,0,0,0-8.91.41c-3.68.8-6.15,3.17-8.35,6.53a6,6,0,0,1,1-3.52c3-5.3,10.79-8.69,17.7-7.88,5.23.61,9.85,2.81,14.43,5.14A26.91,26.91,0,0,0,142,173c11.21-2,19.77-8.16,26.73-16.84a22.08,22.08,0,0,0,4.38-10.27c.21-1.26.36-2.51.47-3.75C170.53,149.17,165.64,155.38,159,159.09Z" transform="translate(-0.01 0.01)" style="fill:#e077bd"/><path d="M234.61,97.28c-5.37,9.4-14.3,18-25.7,18.26-3.22.09-6.4-.65-9.56-1.15-4.18-.66-7.61-.22-11.79.31-3.7.46-6.85.16-9.07-3.13-1.21-1.79-1.91-3.88-3.12-5.68a29.09,29.09,0,0,0-8.26-7.72,49.41,49.41,0,0,0-14.22-6.26,38.79,38.79,0,0,1,6.85,4.72c9,7.65,14,17.55,16.62,28.82.78,3.32,2.18,4.13,5.54,3.38a24.38,24.38,0,0,0,7.66-3.53,25,25,0,0,1,19.77-3.3c8.09,1.84,15.21-.27,21.24-5.91,4.54-4.24,7.13-9.67,8.55-15.59a143.49,143.49,0,0,1,8.2-23.3,32.23,32.23,0,0,0,1.91-6C241.4,77,239.19,89.26,234.61,97.28Z" transform="translate(-0.01 0.01)" style="fill:#e077bd"/><path d="M54,122c-4.9,6.26-6.33,14.07-12,18.62-7.6,6.07-16.88-2.73-16.11-11.91a6.8,6.8,0,0,0-.06-.9A49.81,49.81,0,0,0,25,133.1c-.73,7.71,2.38,13.56,9.82,16.15a19.91,19.91,0,0,0,8.36.9c1.24-.11,1.81-.51,2-1.7a46.87,46.87,0,0,1,3.08-9.89C53,127.71,63,114.09,73.58,105.75,68.78,108.87,57.59,117.38,54,122Z" transform="translate(-0.01 0.01)" style="fill:#e077bd"/></g></g></svg>