<svg id="Layer_1" data-name="Layer 1" xmlns="http://www.w3.org/2000/svg" viewBox="0 0 154 325"><title>peace-sign</title><g style="opacity:0.12"><path d="M141.43,159.44a88.37,88.37,0,0,0-1.58-19.54c-1.26-5.72-3.62-10.73-9.14-13.57-.67-.35-.55-.79-.51-1.35a64.44,64.44,0,0,0,.23-10.85c-.79-8.36-9.43-15.33-17.58-14.15-1.77.26-1.78.26-1.43-1.52,2-10.36,4.08-20.71,6-31.09s4.45-20.44,5.94-30.8A18.7,18.7,0,0,0,122,25.22c-1.72-3.43-4.52-5.39-8.47-5.21-4.4.21-7.55,2.7-10.18,6-3.2,4-4.87,8.73-6.31,13.53C89.66,64,82.7,88.61,75.89,113.24a13.68,13.68,0,0,1-2.25,5.26,17.45,17.45,0,0,1-3-6C66.85,99.87,62.19,87.5,58.07,75c-4.48-13.47-9.64-26.7-14.16-40.1-1.38-4.1-3.2-8-6.64-10.93a9.32,9.32,0,0,0-13.18.6A9,9,0,0,0,23,26a18.59,18.59,0,0,0-2.91,9.4,86.24,86.24,0,0,0,1.1,17.8c1.86,13.57,4.9,26.91,7.72,40.29,2.71,12.9,6.34,25.58,8.39,38.63,1.58,10.07,1.37,19.81-2.26,29.42a56.17,56.17,0,0,0-3.87,25.22c.89,9.73,1.6,19.48,3,29.15.94,6.43,2.54,12.64,6.44,18a10.53,10.53,0,0,1,1,2.28c2.51,6.29,3.19,12.87,3.12,19.56-.12,10.47-.28,20.94-.41,31.41-.1,7.33-.43,14.69,1.34,21.91a11.18,11.18,0,0,0,1,3.58c.12-1.3.24-2.51.35-3.68s.23-2.29.34-3.41a2.21,2.21,0,0,1,.51-.18,3.72,3.72,0,0,0,1.53-.62c1.37-1.21,3-2.1,4.25-3.44,1.91-2,3.83-4,5.87-5.85,1.66-1.51,3.31-3.12,5.62-3.66,2.07-.47,4-.49,5.63,1.22a17.5,17.5,0,0,1,3.2,5.3c1.35,3.27,2.3,6.73,4.78,9.45,2.82,3.09,7.12,4.38,10.91,1.92A17.55,17.55,0,0,0,95,304.44c1.73-2.71,3.79-4.16,7.26-4s6.46-.84,7.74-5.44a.58.58,0,0,1,.55-.41c.55,3.78,1.11,7.57,3.47,11.09a5.72,5.72,0,0,0,.39-1.12,55.78,55.78,0,0,0,0-9.23,204.29,204.29,0,0,1,.46-41,34.39,34.39,0,0,1,3.26-12c4.54-8.59,8.92-17.26,13.23-26,5.83-11.78,10.17-23.93,9.88-37.42-.12-6.46.17-13,.17-19.47Z" transform="translate(-0.04 0)" style="fill:#6a374f;stroke:#6a374f;stroke-linecap:round;stroke-linejoin:round;stroke-width:24px"/><path d="M110.68,294.56c.55,3.78,1.11,7.57,3.47,11.09a5.72,5.72,0,0,0,.39-1.12,55.43,55.43,0,0,0-.11-9.2,204.29,204.29,0,0,1,.46-41,34.39,34.39,0,0,1,3.26-12c4.54-8.59,8.92-17.26,13.23-26,5.83-11.78,10.17-23.93,9.88-37.42-.14-6.48.13-13,.16-19.49a88.37,88.37,0,0,0-1.58-19.54c-1.26-5.72-3.62-10.73-9.14-13.57-.67-.35-.55-.79-.51-1.35a65.3,65.3,0,0,0,.24-10.83c-.79-8.36-9.43-15.33-17.58-14.15-1.77.26-1.78.26-1.43-1.52,2-10.36,4.08-20.71,6-31.09s4.45-20.44,5.94-30.8A18.7,18.7,0,0,0,122,25.22c-1.72-3.43-4.52-5.39-8.47-5.21-4.4.21-7.55,2.7-10.18,6-3.2,4-4.87,8.73-6.31,13.53C89.66,64,82.7,88.61,75.89,113.24a13.68,13.68,0,0,1-2.25,5.26,17.45,17.45,0,0,1-3-6C66.85,99.87,62.19,87.5,58.07,75c-4.48-13.47-9.64-26.7-14.16-40.1-1.38-4.1-3.2-8-6.64-10.93a9.32,9.32,0,0,0-13.18.6A9,9,0,0,0,23,26a18.59,18.59,0,0,0-2.91,9.4,86.24,86.24,0,0,0,1.1,17.8c1.86,13.57,4.9,26.91,7.72,40.29,2.71,12.9,6.34,25.58,8.39,38.63,1.58,10.07,1.37,19.81-2.26,29.42a56.17,56.17,0,0,0-3.87,25.22c.89,9.73,1.6,19.48,3,29.15.94,6.43,2.54,12.64,6.44,18a10.53,10.53,0,0,1,1,2.28c2.51,6.29,3.19,12.87,3.12,19.56-.12,10.47-.28,20.94-.41,31.41-.1,7.33-.43,14.69,1.34,21.91a11.18,11.18,0,0,0,1,3.58c.25-2.6.47-4.85.69-7.1.66-.3,1.44-.26,2-.79,1.37-1.21,3-2.1,4.25-3.44,1.91-2,3.83-4,5.87-5.85,1.66-1.51,3.31-3.12,5.62-3.66,2.07-.47,4-.49,5.63,1.22a17.5,17.5,0,0,1,3.2,5.3c1.35,3.27,2.3,6.73,4.78,9.45,2.82,3.09,7.12,4.38,10.91,1.92A17.55,17.55,0,0,0,95,304.44c1.73-2.71,3.79-4.16,7.26-4s6.46-.84,7.74-5.44a.58.58,0,0,1,.69-.44Z" transform="translate(-0.04 0)" style="fill:#6a374f"/><path d="M110.68,294.56a.58.58,0,0,0-.55.41c-1.28,4.6-4.24,5.56-7.74,5.44s-5.53,1.33-7.26,4a17.55,17.55,0,0,1-5.35,5.26c-3.79,2.46-8.09,1.17-10.91-1.92-2.48-2.72-3.43-6.18-4.78-9.45a17.5,17.5,0,0,0-3.2-5.3c-1.58-1.71-3.56-1.69-5.63-1.22-2.31.54-4,2.15-5.62,3.66-2,1.85-4,3.85-5.87,5.85-1.27,1.34-2.88,2.23-4.25,3.44-.6.53-1.38.49-2,.8.13-1.83.36-3.66.39-5.48.11-6.9.28-13.8.2-20.7-.11-10.12.81-20.24.1-30.35-.45-6.39-1.69-12.59-5.47-18a18.53,18.53,0,0,1-1.92-3.86,63,63,0,0,1-3.6-16.21c-.74-6.46-1.15-13-1.95-19.4a57.69,57.69,0,0,1,2.61-27.12c2.26-6.25,4.19-12.62,4.18-19.38,0-9.49-1.73-18.78-3.88-27.94C33.76,98.22,29.36,79.35,26,60.25a128.61,128.61,0,0,1-2.39-21.87,20,20,0,0,1,1.61-9c2.48-5.11,7.42-5.73,11.07-1.37a18.77,18.77,0,0,1,3.26,5.65c3.19,8.75,6.49,17.46,9.49,26.28,6.06,17.82,12.59,35.49,18.12,53.49a21.53,21.53,0,0,0,4.91,8.75c1.51,1.56,3.65,1.28,4.48-.7a44.54,44.54,0,0,0,2.66-6.76c1.81-7.46,4-14.83,6.19-22.18,5-16.16,9-32.59,14-48.71,1.43-4.54,2.67-9.16,5.12-13.29,1.8-3,4-5.69,7.61-6.73a5.31,5.31,0,0,1,6.52,2.77A12,12,0,0,1,120,31.74a45.93,45.93,0,0,1-1.38,11.79Q112.65,72.21,107.35,101a3.56,3.56,0,0,1-.78,2,42.68,42.68,0,0,0-6.2,8.71,2,2,0,0,1-1.49,1.06c-2.09.38-4.19.76-6.26,1.22s-3.92.73-5.5,2.08c-.33.29-.73.65-.59,1.12s.74.63,1.23.6c1.54-.1,3.07-.27,4.6-.37s3.29-.17,5-.26c-.06.32,0,.46-.1.49a1.2,1.2,0,0,1-.51.24,7.65,7.65,0,0,0-4.92,3.12c-4.27,5.46-9.85,9.14-16,12.12a22.74,22.74,0,0,0-11.4,12.28,74.13,74.13,0,0,1-6.6,12.8c-2.94,4.42-6.7,8.1-10.32,11.91-5.25,5.52-7.09,12.2-6.94,19.63a22.22,22.22,0,0,1,6.16-13.49c1.49-1.59,3-3.23,4.53-4.72a65.82,65.82,0,0,0,16.28-24.28,21.17,21.17,0,0,1,9.78-11c1.73-1,3.54-1.76,5.59-2.77a16.54,16.54,0,0,0-.25,4.55A6.84,6.84,0,0,0,89,144.33c3.5.24,6-1.56,8.19-4.06.19-.21,0-.34-.15-.49-.34-.63.27-.85.55-1.19a15.43,15.43,0,0,0,2.71-3.62c.16,0,.42.25.48,0,.42-1.86.7-3.72-.33-5.49-1.44-2.49-3-4.89-6.08-5.65,2.16-2.79,3.58-3,6-.78a9.34,9.34,0,0,1,1.67,1.88c3,4.73,2.84,9.67.68,14.63a34.36,34.36,0,0,1-9.14,11.77,33.75,33.75,0,0,0-7.6,9.84c-1,2-2.1,4.05-3,6.14A85.25,85.25,0,0,1,68.49,189.5c-.92,1-1.84,2.08-2.8,3.09s-1.93,2-3,3a1,1,0,0,0,1.12-.27,73.78,73.78,0,0,0,17.32-18.87c.35-.57.55-1.28,1.23-1.6v.06c-.12,5.85.64,11.8-1.86,17.46.27,0,.49.06.53,0,1.74-2.7,2.43-5.82,3.43-8.85a58.35,58.35,0,0,1,1.26,14.56c0,3.78-1,7.4-1.91,11L82.62,212c1-.46,1.15-1.43,1.45-2.29a57.57,57.57,0,0,0,2.45-7.92c.29-1.56.59-3.12,1-4.64,1.66-6.09,1.83-12.18-.4-18.13a15.41,15.41,0,0,1-.82-9.41,8.31,8.31,0,0,0,.15-1c.16-1.64,1.1-2.89,2-4.43.8,4.08,3.4,6.34,6.74,7.86a15.52,15.52,0,0,0,14.32-.42,55.59,55.59,0,0,0,5.32-3.25c-.4,3.09.25,5.88.18,8.73a6.69,6.69,0,0,0,.91-1.49c1.36-2.92,2.87-5.82,2.73-9.16a3.12,3.12,0,0,1,1.29-2.76,39.65,39.65,0,0,0,6.84-7.16c-.42-.22-.62,0-.84.22-5.51,4.87-12,8.21-18.35,11.78-4.36,2.44-8.73,1.79-12.77-1a6.29,6.29,0,0,1-2.9-6.13c.15-1.63.53-1.9,1.86-.93a59.94,59.94,0,0,1,6.51,5.16A1.92,1.92,0,0,0,103,166l.25-.22a14.7,14.7,0,0,0,5.32-6.81c1.8-5-1.42-8.85-6.66-8.13-.94.12-1.81.76-2.81.43-.06-.29.18-.44.32-.62A145.24,145.24,0,0,1,111,137.72a47.78,47.78,0,0,1,9.13-7.59,9.42,9.42,0,0,1,4.77-1.5c4.86,0,7.77,2.82,9.74,6.85a30,30,0,0,1,2.54,10.2c1.33,12.72.55,25.48.41,38.22a52.8,52.8,0,0,1-3.89,18c-4.93,13-11.67,25.17-18.15,37.44A25.8,25.8,0,0,1,104.1,250.9l-2.48,1.24c4.06.41,7.19-1.09,10.5-2.84-1.82,8.82-1.93,17.45-2.06,26.08-.07,6.4.2,12.79.62,19.18ZM111.62,188c-.41-.35-.63.08-.86.24a43.69,43.69,0,0,0-11.08,10.7c-.6.87-1.09,1.83-1.78,3a31.07,31.07,0,0,0-1.68-5.65c-.33-.79-.79-1.88-1.62-1.64s-.58,1.4-.47,2.23c.39,3.1.85,6.18,1,9.31.4,7-1,13.82-2.46,20.6-.39,1.8-.89,3.57-1.35,5.39.56,0,.59-.39.71-.64a57.32,57.32,0,0,0,6.17-22.63,4.93,4.93,0,0,1,.38-2.18A73.12,73.12,0,0,1,105.22,196a95.82,95.82,0,0,0,6.33-8l.19-.14h-.18ZM83.43,241.08c-3.65,2.19-6.64,4.94-10.34,6.69s-8,1.53-12.08,2.92a9.63,9.63,0,0,0,4.27.28c2.65-.17,5.38.26,7.91-.91a47.45,47.45,0,0,0,5.43-2.72C80.84,245.92,82.94,244.24,83.43,241.08ZM65,126.08a28.36,28.36,0,0,0-8.3,2.51,17.76,17.76,0,0,0-7.5,6.76c-.24.4-.62,1-.25,1.35s.91,0,1.34-.26a1.35,1.35,0,0,0,.26-.15c4.67-3.5,9.49-6.87,14.42-10.18ZM94.12,86.6c-.66.09-1.59-.2-1.76.48s.8.73,1.3.93q5.66,2.2,11.35,4.32c.74.28,1.77,1,2.25,0s-.68-1.43-1.34-1.88a24.19,24.19,0,0,0-11.83-3.82ZM31.19,66.46c1.62-.29,2.43-1.33,3.54-1.8A76.48,76.48,0,0,1,45,61.33c.41-.1,1.06,0,1-.61s-.66-.46-1.1-.49A17.2,17.2,0,0,0,36,61.64a10,10,0,0,0-4.87,4.85ZM114,61.62a4,4,0,0,0-2.11-2.28,20.45,20.45,0,0,0-9-2.05c-.79,0-2.1-.27-2.27.75-.08.53,1.3.52,2,.75a1.31,1.31,0,0,0,.28.09c3.64.94,7.23,2.24,11.07,2.77ZM53.14,89.07A10.83,10.83,0,0,0,52,88.78c-2.78-.44-5.38.53-8,1a10.82,10.82,0,0,0-4.54,2.11c-.44.36-1.27.76-1,1.31s1.08,0,1.54-.17a43.66,43.66,0,0,1,7.9-2.49,20.32,20.32,0,0,0,5.19-1.44ZM95.86,84.4a18.57,18.57,0,0,0,7,1.86,8.9,8.9,0,0,0-7-1.83Z" transform="translate(-0.04 0)" style="fill:#6a374f"/><path d="M99.06,151.33c1,.33,1.87-.31,2.81-.43,5.24-.72,8.46,3.16,6.66,8.13a14.7,14.7,0,0,1-5.32,6.81,1.91,1.91,0,0,1-2.7,0,2.62,2.62,0,0,1-.22-.25,59.94,59.94,0,0,0-6.51-5.16c-1.33-1-1.71-.7-1.86.93a6.29,6.29,0,0,0,2.9,6.13c4,2.75,8.41,3.4,12.77,1,6.34-3.57,12.84-6.91,18.35-11.78.22-.19.42-.44.84-.22a39.65,39.65,0,0,1-6.84,7.16,3.12,3.12,0,0,0-1.29,2.76c.14,3.34-1.37,6.24-2.73,9.16a6.69,6.69,0,0,1-.91,1.49c.07-2.85-.58-5.64-.18-8.73a53.55,53.55,0,0,1-5.19,3.24,15.52,15.52,0,0,1-14.32.42c-3.34-1.52-5.94-3.78-6.74-7.86-1,1.54-1.89,2.79-2,4.43a8.31,8.31,0,0,1-.15,1,15.41,15.41,0,0,0,.82,9.41c2.23,5.95,2.06,12,.4,18.13-.41,1.52-.71,3.08-1,4.64a57.57,57.57,0,0,1-2.45,7.92l-.26-.59c.89-3.63,1.88-7.25,1.91-11a58.35,58.35,0,0,0-1.26-14.56c-1,3-1.69,6.15-3.43,8.85,0,.07-.26,0-.53,0,2.5-5.66,1.86-17.21,1.82-17.26s0-.34,0-.26c-.68.32-.88,1-1.23,1.6a73.51,73.51,0,0,1-17.37,18.84,1,1,0,0,1-1.12.27l3-3s1.88-2,2.8-3.09A85.23,85.23,0,0,0,83,167.33c.9-2.09,2-4.12,3-6.14a33.75,33.75,0,0,1,7.6-9.84,34.28,34.28,0,0,0,9.13-11.79c2.16-5,2.37-9.9-.68-14.63a9.34,9.34,0,0,0-1.67-1.88c-2.41-2.18-3.83-2-6,.78,3.09.76,4.64,3.16,6.08,5.65,1,1.77.75,3.63.33,5.49-.06.28-.32,0-.48,0a12.89,12.89,0,0,0-6.11-9.18,1.38,1.38,0,0,0-1.94.21l-.06.08a23.56,23.56,0,0,1-4.41,4.17,6.48,6.48,0,0,0-2.66,4.59c-.55,3,.46,5.58,2.59,6.72s6.43.53,8.28-1.2c.85-1.23,1.07-.62,1.07-.62s.34.28.15.49c-2.16,2.5-4.69,4.3-8.19,4.06a6.84,6.84,0,0,1-6.36-6.22,16.54,16.54,0,0,1,.25-4.55c-2,1-3.86,1.82-5.59,2.77a21.17,21.17,0,0,0-9.78,11,65.79,65.79,0,0,1-16.28,24.27c-1.58,1.49-3,3.13-4.53,4.72a22.2,22.2,0,0,0-6.17,13.51c-.15-7.43,1.69-14.11,6.94-19.63,3.62-3.81,7.38-7.49,10.32-11.91a74.13,74.13,0,0,0,6.6-12.8,22.74,22.74,0,0,1,11.38-12.23c6.13-3,11.71-6.66,16-12.12A7.65,7.65,0,0,1,96.73,118a1.2,1.2,0,0,0,.51-.24c.05,0,0-.17.1-.49-1.69.09-3.34.15-5,.26s-3.06.27-4.6.37c-.49,0-1.07,0-1.23-.6s.26-.83.59-1.12c1.58-1.35,3.57-1.66,5.5-2.08s4.17-.84,6.26-1.22a2,2,0,0,0,1.49-1.06,42.68,42.68,0,0,1,6.2-8.71,3.56,3.56,0,0,0,.78-2q5.27-28.82,11.22-57.49a45.93,45.93,0,0,0,1.38-11.79,12,12,0,0,0-1.28-5.16,5.31,5.31,0,0,0-6.52-2.77c-3.59,1-5.81,3.69-7.61,6.73-2.45,4.13-3.69,8.75-5.12,13.29-5,16.12-9.06,32.55-14,48.71-2.24,7.35-4.38,14.72-6.19,22.18a44.54,44.54,0,0,1-2.66,6.76c-.83,2-3,2.26-4.48.7a21.53,21.53,0,0,1-4.91-8.75C61.63,95.45,55.1,77.78,49,60c-3-8.82-6.3-17.53-9.49-26.28A18.77,18.77,0,0,0,36.29,28c-3.65-4.36-8.59-3.74-11.07,1.37a20,20,0,0,0-1.61,9A129.29,129.29,0,0,0,26,60.33c3.34,19.1,7.74,38,12.16,56.84,2.15,9.16,3.86,18.45,3.88,27.94,0,6.76-1.92,13.13-4.18,19.38a57.69,57.69,0,0,0-2.61,27.12c.8,6.45,1.21,12.94,2,19.4a63,63,0,0,0,3.6,16.21,18.53,18.53,0,0,0,1.92,3.86c3.78,5.4,5,11.6,5.47,18,.71,10.11-.21,20.23-.1,30.35.08,6.9-.09,13.8-.2,20.7,0,1.82-.26,3.65-.39,5.48-.22,2.24-.44,4.49-.69,7.09a11.18,11.18,0,0,1-1-3.58c-1.77-7.22-1.44-14.58-1.34-21.91.13-10.47.29-20.94.41-31.41.07-6.69-.61-13.27-3.12-19.56a10.53,10.53,0,0,0-1-2.28c-3.9-5.39-5.5-11.6-6.44-18-1.41-9.67-2.12-19.42-3-29.15a56.17,56.17,0,0,1,3.87-25.22C38.8,152,39,142.24,37.43,132.17c-2-13-5.68-25.73-8.39-38.63-2.82-13.38-5.86-26.72-7.72-40.29a86.24,86.24,0,0,1-1.1-17.8,18.59,18.59,0,0,1,2.91-9.4A9.33,9.33,0,0,1,36,23a9,9,0,0,1,1.4,1.06C40.81,26.94,42.63,30.88,44,35c4.51,13.43,9.68,26.63,14.12,40.09,4.12,12.51,8.78,24.84,12.57,37.47a17.45,17.45,0,0,0,3,6A13.68,13.68,0,0,0,76,113.28c6.81-24.63,13.77-49.22,21.12-73.7,1.44-4.8,3.11-9.54,6.31-13.53,2.63-3.28,5.78-5.77,10.18-6,4-.18,6.75,1.78,8.47,5.21a18.7,18.7,0,0,1,1.39,11.35c-1.49,10.36-4,20.52-5.94,30.8s-4,20.73-6,31.09c-.35,1.78-.34,1.78,1.43,1.52,8.15-1.18,16.79,5.79,17.58,14.15A64.44,64.44,0,0,1,130.3,125c0,.56-.16,1,.51,1.35,5.52,2.84,7.88,7.85,9.14,13.57a88.59,88.59,0,0,1,1.48,19.5c0,6.5-.3,13-.16,19.49.29,13.49-4.05,25.64-9.88,37.42-4.31,8.7-8.69,17.37-13.23,26a34.39,34.39,0,0,0-3.26,12,204.29,204.29,0,0,0-.46,41,55.53,55.53,0,0,1,.09,9.21,5.72,5.72,0,0,1-.39,1.12c-2.36-3.52-2.92-7.31-3.47-11.09-.42-6.39-.69-12.78-.6-19.18.13-8.63.24-17.26,2.06-26.08-3.31,1.75-6.44,3.25-10.5,2.84l2.48-1.24a25.81,25.81,0,0,0,11.45-11.6c6.48-12.27,13.22-24.42,18.15-37.44a52.8,52.8,0,0,0,3.89-18c.14-12.74.92-25.5-.41-38.22a30,30,0,0,0-2.54-10.2c-2-4-4.88-6.88-9.74-6.85a9.42,9.42,0,0,0-4.77,1.5,47.78,47.78,0,0,0-9.13,7.59,142.64,142.64,0,0,0-11.58,13c-.14.18-.38.33-.32.62M107.65,136a72.59,72.59,0,0,1,6.95-6.4c3.32-2.61,6.82-4.82,11.29-4.57.71,0,.83-.32.85-.89A79.53,79.53,0,0,0,127,116c-.38-6.23-3.36-10-9.31-12-3.64-1.2-6.75-.46-9.26,2.45a26.77,26.77,0,0,0-2.33,3.08c-1.75,2.7-3.39,5.47-5.16,8.16-.5.75-.36,1,.32,1.42a14.23,14.23,0,0,1,6.26,9.37,20.18,20.18,0,0,1,.13,7.55ZM93.84,157.81c2.66.93,4.76,2.18,6.09,4.43.4.69.83,1.36,1.23,2,.17.29.27.72.72.29,2.16-2,4.15-4.19,4.67-7.24.43-2.52-.76-3.78-3.32-3.64-3.56.22-6.4,2-9.42,4.16Z" transform="translate(-0.04 0)" style="fill:#6a374f;stroke:#6a374f;stroke-miterlimit:10"/><path d="M96.79,139.75a.32.32,0,0,1,.27,0c-.34-.63.27-.85.55-1.19a15.43,15.43,0,0,0,2.71-3.62,12.89,12.89,0,0,0-6.11-9.18,1.38,1.38,0,0,0-1.94.21l-.06.08a23.56,23.56,0,0,1-4.41,4.17,6.48,6.48,0,0,0-2.66,4.59c-.55,3,.46,5.58,2.59,6.72s6.43.53,8.28-1.2a5.22,5.22,0,0,1,.78-.58Z" transform="translate(-0.04 0)" style="fill:#6a374f"/><path d="M111.58,188a95.82,95.82,0,0,1-6.33,8,73.12,73.12,0,0,0-6.64,10.73,4.93,4.93,0,0,0-.38,2.18,57.32,57.32,0,0,1-6.17,22.63c-.12.25-.15.6-.71.64.46-1.82,1-3.59,1.35-5.39,1.48-6.78,2.86-13.59,2.46-20.6-.18-3.13-.64-6.21-1-9.31-.11-.83-.33-2,.47-2.23s1.29.85,1.62,1.64a31.07,31.07,0,0,1,1.68,5.65c.69-1.16,1.18-2.12,1.78-3a43.69,43.69,0,0,1,11.08-10.7c.23-.16.45-.59.86-.24Z" transform="translate(-0.04 0)" style="fill:#6a374f"/><path d="M83.43,241.08c-.46,3.16-2.56,4.84-4.81,6.26a47.45,47.45,0,0,1-5.43,2.72c-2.53,1.17-5.26.74-7.91.91a9.63,9.63,0,0,1-4.27-.28c4.06-1.39,8.28-1.14,12.08-2.92S79.75,243.27,83.43,241.08Z" transform="translate(-0.04 0)" style="fill:#6a374f"/><path d="M65,126.11c-4.93,3.31-9.75,6.68-14.45,10.21a1.35,1.35,0,0,1-.26.15c-.43.21-1,.63-1.34.26s0-.95.25-1.35a17.76,17.76,0,0,1,7.5-6.76,28.36,28.36,0,0,1,8.3-2.51Z" transform="translate(-0.04 0)" style="fill:#6a374f"/><path d="M94.09,86.63a24.26,24.26,0,0,1,11.8,3.89c.66.45,1.76,1,1.34,1.88s-1.51.24-2.25,0q-5.69-2.12-11.35-4.32c-.5-.2-1.47-.23-1.3-.93s1.1-.43,1.76-.52Z" transform="translate(-0.04 0)" style="fill:#6a374f"/><path d="M31.16,66.49A9.91,9.91,0,0,1,36,61.66a17.2,17.2,0,0,1,8.84-1.41c.44,0,1,0,1.1.49s-.59.51-1,.61A75.52,75.52,0,0,0,34.7,64.69c-1.11.47-1.92,1.51-3.54,1.8Z" transform="translate(-0.04 0)" style="fill:#6a374f"/><path d="M114,61.65c-3.84-.53-7.43-1.83-11.1-2.74a1.31,1.31,0,0,1-.28-.09c-.72-.23-2.1-.22-2-.75.17-1,1.48-.72,2.27-.75a20.45,20.45,0,0,1,9,2A4,4,0,0,1,114,61.65Z" transform="translate(-0.04 0)" style="fill:#6a374f"/><path d="M53.11,89.1a20.71,20.71,0,0,1-5.24,1.51A43.66,43.66,0,0,0,40,93.1c-.46.2-1.2.83-1.54.17s.55-1,1-1.31A10.82,10.82,0,0,1,44,89.85c2.65-.51,5.25-1.48,8-1a11.63,11.63,0,0,1,1.14.25Z" transform="translate(-0.04 0)" style="fill:#6a374f"/><path d="M95.83,84.43a8.88,8.88,0,0,1,7,1.86A18.57,18.57,0,0,1,95.83,84.43Z" transform="translate(-0.04 0)" style="fill:#6a374f"/><path d="M83.89,209.09l.26.59c-.3.86-.4,1.83-1.45,2.29Z" transform="translate(-0.04 0)" style="fill:#6a374f"/><path d="M111.62,188v-.2h.18l-.19.14Z" transform="translate(-0.04 0)" style="fill:#6a374f"/><path d="M107.62,136a20.18,20.18,0,0,0-.16-7.55,14.23,14.23,0,0,0-6.26-9.37c-.68-.44-.82-.67-.32-1.42,1.77-2.69,3.41-5.46,5.16-8.16a26.77,26.77,0,0,1,2.33-3.08c2.51-2.91,5.62-3.65,9.26-2.45,6,2,8.93,5.77,9.31,12a79.53,79.53,0,0,1-.23,8.17c0,.57-.14.93-.85.89-4.47-.25-8,2-11.29,4.57a72.59,72.59,0,0,0-6.95,6.4Z" transform="translate(-0.04 0)" style="fill:#6a374f"/><path d="M93.81,157.81c3-2.14,5.86-3.94,9.39-4.12,2.56-.14,3.75,1.12,3.32,3.64-.52,3-2.51,5.21-4.67,7.24-.45.43-.55,0-.72-.29-.4-.68-.83-1.35-1.23-2C98.57,160,96.43,158.74,93.81,157.81Z" transform="translate(-0.04 0)" style="fill:#6a374f"/></g><path d="M133.43,151.44a88.37,88.37,0,0,0-1.58-19.54c-1.26-5.72-3.62-10.73-9.14-13.57-.67-.35-.55-.79-.51-1.35a64.44,64.44,0,0,0,.23-10.85C121.64,97.77,113,90.8,104.85,92c-1.77.26-1.78.26-1.43-1.52,2-10.36,4.08-20.71,6-31.09s4.45-20.44,5.94-30.8A18.7,18.7,0,0,0,114,17.22c-1.72-3.43-4.52-5.39-8.47-5.21-4.4.21-7.55,2.7-10.18,6-3.2,4-4.87,8.73-6.31,13.53C81.66,56,74.7,80.61,67.89,105.24a13.68,13.68,0,0,1-2.25,5.26,17.45,17.45,0,0,1-3-6C58.85,91.87,54.19,79.5,50.07,67c-4.48-13.47-9.64-26.7-14.16-40.1-1.38-4.1-3.2-8-6.64-10.93a9.32,9.32,0,0,0-13.18.6A9,9,0,0,0,15,18a18.59,18.59,0,0,0-2.91,9.4,86.24,86.24,0,0,0,1.1,17.8c1.86,13.57,4.9,26.91,7.72,40.29,2.71,12.9,6.34,25.58,8.39,38.63,1.58,10.07,1.37,19.81-2.26,29.42a56.17,56.17,0,0,0-3.87,25.22c.89,9.73,1.6,19.48,3,29.15.94,6.43,2.54,12.64,6.44,18a10.53,10.53,0,0,1,1,2.28c2.51,6.29,3.19,12.87,3.12,19.56-.12,10.47-.28,20.94-.41,31.41-.1,7.33-.43,14.69,1.34,21.91a11.18,11.18,0,0,0,1,3.58c.12-1.3.24-2.51.35-3.68s.23-2.29.34-3.41a2.21,2.21,0,0,1,.51-.18,3.72,3.72,0,0,0,1.53-.62c1.37-1.21,3-2.1,4.25-3.44,1.91-2,3.83-4,5.87-5.85,1.66-1.51,3.31-3.12,5.62-3.66,2.07-.47,4.05-.49,5.63,1.22a17.5,17.5,0,0,1,3.2,5.3c1.35,3.27,2.3,6.73,4.78,9.45,2.82,3.09,7.12,4.38,10.91,1.92A17.55,17.55,0,0,0,87,296.44c1.73-2.71,3.79-4.16,7.26-4s6.46-.84,7.74-5.44a.58.58,0,0,1,.55-.41c.55,3.78,1.11,7.57,3.47,11.09a5.72,5.72,0,0,0,.39-1.12,55.78,55.78,0,0,0,0-9.23,204.29,204.29,0,0,1,.46-41,34.39,34.39,0,0,1,3.26-12c4.54-8.59,8.92-17.26,13.23-26,5.83-11.78,10.17-23.93,9.88-37.42-.12-6.46.17-13,.17-19.47Z" transform="translate(-0.04 0)" style="fill:#fff;stroke:#fff;stroke-linecap:round;stroke-linejoin:round;stroke-width:24px"/><path d="M102.68,286.56c.55,3.78,1.11,7.57,3.47,11.09a5.72,5.72,0,0,0,.39-1.12,55.43,55.43,0,0,0-.11-9.2,204.29,204.29,0,0,1,.46-41,34.39,34.39,0,0,1,3.26-12c4.54-8.59,8.92-17.26,13.23-26,5.83-11.78,10.17-23.93,9.88-37.42-.14-6.48.13-13,.16-19.49a88.37,88.37,0,0,0-1.58-19.54c-1.26-5.72-3.62-10.73-9.14-13.57-.67-.35-.55-.79-.51-1.35a65.3,65.3,0,0,0,.24-10.83C121.64,97.77,113,90.8,104.85,92c-1.77.26-1.78.26-1.43-1.52,2-10.36,4.08-20.71,6-31.09s4.45-20.44,5.94-30.8A18.7,18.7,0,0,0,114,17.22c-1.72-3.43-4.52-5.39-8.47-5.21-4.4.21-7.55,2.7-10.18,6-3.2,4-4.87,8.73-6.31,13.53C81.66,56,74.7,80.61,67.89,105.24a13.68,13.68,0,0,1-2.25,5.26,17.45,17.45,0,0,1-3-6C58.85,91.87,54.19,79.5,50.07,67c-4.48-13.47-9.64-26.7-14.16-40.1-1.38-4.1-3.2-8-6.64-10.93a9.32,9.32,0,0,0-13.18.6A9,9,0,0,0,15,18a18.59,18.59,0,0,0-2.91,9.4,86.24,86.24,0,0,0,1.1,17.8c1.86,13.57,4.9,26.91,7.72,40.29,2.71,12.9,6.34,25.58,8.39,38.63,1.58,10.07,1.37,19.81-2.26,29.42a56.17,56.17,0,0,0-3.87,25.22c.89,9.73,1.6,19.48,3,29.15.94,6.43,2.54,12.64,6.44,18a10.53,10.53,0,0,1,1,2.28c2.51,6.29,3.19,12.87,3.12,19.56-.12,10.47-.28,20.94-.41,31.41-.1,7.33-.43,14.69,1.34,21.91a11.18,11.18,0,0,0,1,3.58c.25-2.6.47-4.85.69-7.1.66-.3,1.44-.26,2-.79,1.37-1.21,3-2.1,4.25-3.44,1.91-2,3.83-4,5.87-5.85,1.66-1.51,3.31-3.12,5.62-3.66,2.07-.47,4.05-.49,5.63,1.22a17.5,17.5,0,0,1,3.2,5.3c1.35,3.27,2.3,6.73,4.78,9.45,2.82,3.09,7.12,4.38,10.91,1.92A17.55,17.55,0,0,0,87,296.44c1.73-2.71,3.79-4.16,7.26-4s6.46-.84,7.74-5.44a.58.58,0,0,1,.69-.44Z" transform="translate(-0.04 0)" style="fill:#fff"/><path d="M102.68,286.56a.58.58,0,0,0-.55.41c-1.28,4.6-4.24,5.56-7.74,5.44s-5.53,1.33-7.26,4a17.55,17.55,0,0,1-5.35,5.26c-3.79,2.46-8.09,1.17-10.91-1.92-2.48-2.72-3.43-6.18-4.78-9.45a17.5,17.5,0,0,0-3.2-5.3c-1.58-1.71-3.56-1.69-5.63-1.22-2.31.54-4,2.15-5.62,3.66-2,1.85-4,3.85-5.87,5.85-1.27,1.34-2.88,2.23-4.25,3.44-.6.53-1.38.49-2,.8.13-1.83.36-3.66.39-5.48.11-6.9.28-13.8.2-20.7-.11-10.12.81-20.24.1-30.35-.45-6.39-1.69-12.59-5.47-18a18.53,18.53,0,0,1-1.92-3.86,63,63,0,0,1-3.6-16.21c-.74-6.46-1.15-13-1.95-19.4a57.69,57.69,0,0,1,2.61-27.12c2.26-6.25,4.19-12.62,4.18-19.38,0-9.49-1.73-18.78-3.88-27.94C25.76,90.22,21.36,71.35,18,52.25a128.61,128.61,0,0,1-2.39-21.87,20,20,0,0,1,1.61-9c2.48-5.11,7.42-5.73,11.07-1.37a18.77,18.77,0,0,1,3.26,5.65c3.19,8.75,6.49,17.46,9.49,26.28,6.06,17.82,12.59,35.49,18.12,53.49a21.53,21.53,0,0,0,4.91,8.75c1.51,1.56,3.65,1.28,4.48-.7a44.54,44.54,0,0,0,2.66-6.76c1.81-7.46,4-14.83,6.19-22.18,5-16.16,9-32.59,14-48.71,1.43-4.54,2.67-9.16,5.12-13.29,1.8-3,4-5.69,7.61-6.73a5.31,5.31,0,0,1,6.52,2.77A12,12,0,0,1,112,23.74a45.93,45.93,0,0,1-1.38,11.79Q104.65,64.21,99.35,93a3.56,3.56,0,0,1-.78,2,42.68,42.68,0,0,0-6.2,8.71,2,2,0,0,1-1.49,1.06c-2.09.38-4.19.76-6.26,1.22s-3.92.73-5.5,2.08c-.33.29-.73.65-.59,1.12s.74.63,1.23.6c1.54-.1,3.07-.27,4.6-.37s3.29-.17,5-.26c-.06.32,0,.46-.1.49a1.2,1.2,0,0,1-.51.24,7.65,7.65,0,0,0-4.92,3.12c-4.27,5.46-9.85,9.14-16,12.12a22.74,22.74,0,0,0-11.4,12.28,74.13,74.13,0,0,1-6.6,12.8c-2.94,4.42-6.7,8.1-10.32,11.91-5.25,5.52-7.09,12.2-6.94,19.63a22.22,22.22,0,0,1,6.16-13.49c1.49-1.59,3-3.23,4.53-4.72a65.82,65.82,0,0,0,16.28-24.28,21.17,21.17,0,0,1,9.78-11c1.73-1,3.54-1.76,5.59-2.77a16.54,16.54,0,0,0-.25,4.55A6.84,6.84,0,0,0,81,136.33c3.5.24,6-1.56,8.19-4.06.19-.21,0-.34-.15-.49-.34-.63.27-.85.55-1.19A15.43,15.43,0,0,0,92.32,127c.16,0,.42.25.48,0,.42-1.86.7-3.72-.33-5.49-1.44-2.49-3-4.89-6.08-5.65,2.16-2.79,3.58-3,6-.78a9.34,9.34,0,0,1,1.67,1.88c3,4.73,2.84,9.67.68,14.63a34.36,34.36,0,0,1-9.14,11.77,33.75,33.75,0,0,0-7.6,9.84c-1,2-2.1,4.05-3,6.14A85.25,85.25,0,0,1,60.49,181.5c-.92,1-1.84,2.08-2.8,3.09s-1.93,2-3,3a1,1,0,0,0,1.12-.27,73.78,73.78,0,0,0,17.32-18.87c.35-.57.55-1.28,1.23-1.6v.06c-.12,5.85.64,11.8-1.86,17.46.27,0,.49.06.53,0,1.74-2.7,2.43-5.82,3.43-8.85a58.35,58.35,0,0,1,1.26,14.56c0,3.78-1,7.4-1.91,11L74.62,204c1-.46,1.15-1.43,1.45-2.29a57.57,57.57,0,0,0,2.45-7.92c.29-1.56.59-3.12,1-4.64,1.66-6.09,1.83-12.18-.4-18.13a15.41,15.41,0,0,1-.82-9.41,8.31,8.31,0,0,0,.15-1c.16-1.64,1.1-2.89,2-4.43.8,4.08,3.4,6.34,6.74,7.86a15.52,15.52,0,0,0,14.32-.42,55.59,55.59,0,0,0,5.32-3.25c-.4,3.09.25,5.88.18,8.73a6.69,6.69,0,0,0,.91-1.49c1.36-2.92,2.87-5.82,2.73-9.16a3.12,3.12,0,0,1,1.29-2.76,39.65,39.65,0,0,0,6.84-7.16c-.42-.22-.62,0-.84.22-5.51,4.87-12,8.21-18.35,11.78-4.36,2.44-8.73,1.79-12.77-1a6.29,6.29,0,0,1-2.9-6.13c.15-1.63.53-1.9,1.86-.93a59.94,59.94,0,0,1,6.51,5.16A1.92,1.92,0,0,0,95,158l.25-.22a14.7,14.7,0,0,0,5.32-6.81c1.8-5-1.42-8.85-6.66-8.13-.94.12-1.81.76-2.81.43-.06-.29.18-.44.32-.62A145.24,145.24,0,0,1,103,129.72a47.78,47.78,0,0,1,9.13-7.59,9.42,9.42,0,0,1,4.77-1.5c4.86,0,7.77,2.82,9.74,6.85a30,30,0,0,1,2.54,10.2c1.33,12.72.55,25.48.41,38.22a52.8,52.8,0,0,1-3.89,18c-4.93,13-11.67,25.17-18.15,37.44A25.8,25.8,0,0,1,96.1,242.9l-2.48,1.24c4.06.41,7.19-1.09,10.5-2.84-1.82,8.82-1.93,17.45-2.06,26.08-.07,6.4.2,12.79.62,19.18ZM103.62,180c-.41-.35-.63.08-.86.24a43.69,43.69,0,0,0-11.08,10.7c-.6.87-1.09,1.83-1.78,3a31.07,31.07,0,0,0-1.68-5.65c-.33-.79-.79-1.88-1.62-1.64s-.58,1.4-.47,2.23c.39,3.1.85,6.18,1,9.31.4,7-1,13.82-2.46,20.6-.39,1.8-.89,3.57-1.35,5.39.56,0,.59-.39.71-.64a57.32,57.32,0,0,0,6.17-22.63,4.93,4.93,0,0,1,.38-2.18A73.12,73.12,0,0,1,97.22,188a95.82,95.82,0,0,0,6.33-8l.19-.14h-.18ZM75.43,233.08c-3.65,2.19-6.64,4.94-10.34,6.69s-8,1.53-12.08,2.92a9.63,9.63,0,0,0,4.27.28c2.65-.17,5.38.26,7.91-.91a47.45,47.45,0,0,0,5.43-2.72C72.84,237.92,74.94,236.24,75.43,233.08ZM57,118.08a28.36,28.36,0,0,0-8.3,2.51,17.76,17.76,0,0,0-7.5,6.76c-.24.4-.62,1-.25,1.35s.91,0,1.34-.26a1.35,1.35,0,0,0,.26-.15c4.67-3.5,9.49-6.87,14.42-10.18ZM86.12,78.6c-.66.09-1.59-.2-1.76.48s.8.73,1.3.93q5.66,2.2,11.35,4.32c.74.28,1.77,1,2.25,0s-.68-1.43-1.34-1.88a24.19,24.19,0,0,0-11.83-3.82ZM23.19,58.46c1.62-.29,2.43-1.33,3.54-1.8A76.48,76.48,0,0,1,37,53.33c.41-.1,1.06,0,1-.61s-.66-.46-1.1-.49A17.2,17.2,0,0,0,28,53.64a10,10,0,0,0-4.87,4.85ZM106,53.62a4,4,0,0,0-2.11-2.28,20.45,20.45,0,0,0-9-2.05c-.79,0-2.1-.27-2.27.75-.08.53,1.3.52,2,.75a1.31,1.31,0,0,0,.28.09c3.64.94,7.23,2.24,11.07,2.77ZM45.14,81.07A10.83,10.83,0,0,0,44,80.78c-2.78-.44-5.38.53-8,1a10.82,10.82,0,0,0-4.54,2.11c-.44.36-1.27.76-1,1.31s1.08,0,1.54-.17a43.66,43.66,0,0,1,7.9-2.49,20.32,20.32,0,0,0,5.19-1.44ZM87.86,76.4a18.57,18.57,0,0,0,7,1.86,8.9,8.9,0,0,0-7-1.83Z" transform="translate(-0.04 0)" style="fill:#f4e2eb"/><path d="M91.06,143.33c1,.33,1.87-.31,2.81-.43,5.24-.72,8.46,3.16,6.66,8.13a14.7,14.7,0,0,1-5.32,6.81,1.91,1.91,0,0,1-2.7,0,2.62,2.62,0,0,1-.22-.25,59.94,59.94,0,0,0-6.51-5.16c-1.33-1-1.71-.7-1.86.93a6.29,6.29,0,0,0,2.9,6.13c4,2.75,8.41,3.4,12.77,1,6.34-3.57,12.84-6.91,18.35-11.78.22-.19.42-.44.84-.22a39.65,39.65,0,0,1-6.84,7.16,3.12,3.12,0,0,0-1.29,2.76c.14,3.34-1.37,6.24-2.73,9.16a6.69,6.69,0,0,1-.91,1.49c.07-2.85-.58-5.64-.18-8.73a53.55,53.55,0,0,1-5.19,3.24,15.52,15.52,0,0,1-14.32.42c-3.34-1.52-5.94-3.78-6.74-7.86-1,1.54-1.89,2.79-2,4.43a8.31,8.31,0,0,1-.15,1,15.41,15.41,0,0,0,.82,9.41c2.23,5.95,2.06,12,.4,18.13-.41,1.52-.71,3.08-1,4.64a57.57,57.57,0,0,1-2.45,7.92l-.26-.59c.89-3.63,1.88-7.25,1.91-11a58.35,58.35,0,0,0-1.26-14.56c-1,3-1.69,6.15-3.43,8.85,0,.07-.26,0-.53,0,2.5-5.66,1.86-17.21,1.82-17.26s0-.34,0-.26c-.68.32-.88,1-1.23,1.6a73.51,73.51,0,0,1-17.37,18.84,1,1,0,0,1-1.12.27l3-3s1.88-2,2.8-3.09A85.23,85.23,0,0,0,75,159.33c.9-2.09,2-4.12,3-6.14a33.75,33.75,0,0,1,7.6-9.84,34.28,34.28,0,0,0,9.13-11.79c2.16-5,2.37-9.9-.68-14.63a9.34,9.34,0,0,0-1.67-1.88c-2.41-2.18-3.83-2-6,.78,3.09.76,4.64,3.16,6.08,5.65,1,1.77.75,3.63.33,5.49-.06.28-.32,0-.48,0a12.89,12.89,0,0,0-6.11-9.18,1.38,1.38,0,0,0-1.94.21l-.06.08a23.56,23.56,0,0,1-4.41,4.17,6.48,6.48,0,0,0-2.66,4.59c-.55,3,.46,5.58,2.59,6.72s6.43.53,8.28-1.2c.85-1.23,1.07-.62,1.07-.62s.34.28.15.49c-2.16,2.5-4.69,4.3-8.19,4.06a6.84,6.84,0,0,1-6.36-6.22,16.54,16.54,0,0,1,.25-4.55c-2,1-3.86,1.82-5.59,2.77a21.17,21.17,0,0,0-9.78,11,65.79,65.79,0,0,1-16.28,24.27c-1.58,1.49-3,3.13-4.53,4.72a22.2,22.2,0,0,0-6.17,13.51c-.15-7.43,1.69-14.11,6.94-19.63,3.62-3.81,7.38-7.49,10.32-11.91a74.13,74.13,0,0,0,6.6-12.8,22.74,22.74,0,0,1,11.38-12.23c6.13-3,11.71-6.66,16-12.12A7.65,7.65,0,0,1,88.73,110a1.2,1.2,0,0,0,.51-.24c.05,0,0-.17.1-.49-1.69.09-3.34.15-5,.26s-3.06.27-4.6.37c-.49,0-1.07,0-1.23-.6s.26-.83.59-1.12c1.58-1.35,3.57-1.66,5.5-2.08s4.17-.84,6.26-1.22a2,2,0,0,0,1.49-1.06,42.68,42.68,0,0,1,6.2-8.71,3.56,3.56,0,0,0,.78-2q5.27-28.82,11.22-57.49a45.93,45.93,0,0,0,1.38-11.79,12,12,0,0,0-1.28-5.16,5.31,5.31,0,0,0-6.52-2.77c-3.59,1-5.81,3.69-7.61,6.73-2.45,4.13-3.69,8.75-5.12,13.29-5,16.12-9.06,32.55-14,48.71-2.24,7.35-4.38,14.72-6.19,22.18a44.54,44.54,0,0,1-2.66,6.76c-.83,2-3,2.26-4.48.7a21.53,21.53,0,0,1-4.91-8.75C53.63,87.45,47.1,69.78,41,52c-3-8.82-6.3-17.53-9.49-26.28A18.77,18.77,0,0,0,28.29,20c-3.65-4.36-8.59-3.74-11.07,1.37a20,20,0,0,0-1.61,9A129.29,129.29,0,0,0,18,52.33c3.34,19.1,7.74,38,12.16,56.84,2.15,9.16,3.86,18.45,3.88,27.94,0,6.76-1.92,13.13-4.18,19.38a57.69,57.69,0,0,0-2.61,27.12c.8,6.45,1.21,12.94,1.95,19.4a63,63,0,0,0,3.6,16.21,18.53,18.53,0,0,0,1.92,3.86c3.78,5.4,5,11.6,5.47,18,.71,10.11-.21,20.23-.1,30.35.08,6.9-.09,13.8-.2,20.7,0,1.82-.26,3.65-.39,5.48-.22,2.24-.44,4.49-.69,7.09a11.18,11.18,0,0,1-1-3.58c-1.77-7.22-1.44-14.58-1.34-21.91.13-10.47.29-20.94.41-31.41.07-6.69-.61-13.27-3.12-19.56a10.53,10.53,0,0,0-1-2.28c-3.9-5.39-5.5-11.6-6.44-18-1.41-9.67-2.12-19.42-3-29.15a56.17,56.17,0,0,1,3.87-25.22C30.8,144,31,134.24,29.43,124.17c-2-13-5.68-25.73-8.39-38.63-2.82-13.38-5.86-26.72-7.72-40.29a86.24,86.24,0,0,1-1.1-17.8,18.59,18.59,0,0,1,2.91-9.4A9.33,9.33,0,0,1,28,15a9,9,0,0,1,1.4,1.06C32.81,18.94,34.63,22.88,36,27c4.51,13.43,9.68,26.63,14.12,40.09,4.12,12.51,8.78,24.84,12.57,37.47a17.45,17.45,0,0,0,3,6A13.68,13.68,0,0,0,68,105.28c6.81-24.63,13.77-49.22,21.12-73.7,1.44-4.8,3.11-9.54,6.31-13.53,2.63-3.28,5.78-5.77,10.18-6,4-.18,6.75,1.78,8.47,5.21a18.7,18.7,0,0,1,1.39,11.35c-1.49,10.36-4,20.52-5.94,30.8s-4,20.73-6,31.09c-.35,1.78-.34,1.78,1.43,1.52,8.15-1.18,16.79,5.79,17.58,14.15A64.44,64.44,0,0,1,122.3,117c0,.56-.16,1,.51,1.35,5.52,2.84,7.88,7.85,9.14,13.57a88.59,88.59,0,0,1,1.48,19.5c0,6.5-.3,13-.16,19.49.29,13.49-4.05,25.64-9.88,37.42-4.31,8.7-8.69,17.37-13.23,26a34.39,34.39,0,0,0-3.26,12,204.29,204.29,0,0,0-.46,41,55.53,55.53,0,0,1,.09,9.21,5.72,5.72,0,0,1-.39,1.12c-2.36-3.52-2.92-7.31-3.47-11.09-.42-6.39-.69-12.78-.6-19.18.13-8.63.24-17.26,2.06-26.08-3.31,1.75-6.44,3.25-10.5,2.84l2.48-1.24a25.81,25.81,0,0,0,11.45-11.6c6.48-12.27,13.22-24.42,18.15-37.44a52.8,52.8,0,0,0,3.89-18c.14-12.74.92-25.5-.41-38.22a30,30,0,0,0-2.54-10.2c-2-4-4.88-6.88-9.74-6.85a9.42,9.42,0,0,0-4.77,1.5,47.78,47.78,0,0,0-9.13,7.59,142.64,142.64,0,0,0-11.58,13c-.14.18-.38.33-.32.62M99.65,128a72.59,72.59,0,0,1,6.95-6.4c3.32-2.61,6.82-4.82,11.29-4.57.71,0,.83-.32.85-.89A79.53,79.53,0,0,0,119,108c-.38-6.23-3.36-10-9.31-12-3.64-1.2-6.75-.46-9.26,2.45a26.77,26.77,0,0,0-2.33,3.08c-1.75,2.7-3.39,5.47-5.16,8.16-.5.75-.36,1,.32,1.42a14.23,14.23,0,0,1,6.26,9.37,20.18,20.18,0,0,1,.13,7.55ZM85.84,149.81c2.66.93,4.76,2.18,6.09,4.43.4.69.83,1.36,1.23,2,.17.29.27.72.72.29,2.16-2,4.15-4.19,4.67-7.24.43-2.52-.76-3.78-3.32-3.64-3.56.22-6.4,2-9.42,4.16Z" transform="translate(-0.04 0)" style="fill:#474747;stroke:#474747;stroke-miterlimit:10"/><path d="M88.79,131.75a.32.32,0,0,1,.27,0c-.34-.63.27-.85.55-1.19a15.43,15.43,0,0,0,2.71-3.62,12.89,12.89,0,0,0-6.11-9.18,1.38,1.38,0,0,0-1.94.21l-.06.08a23.56,23.56,0,0,1-4.41,4.17,6.48,6.48,0,0,0-2.66,4.59c-.55,3,.46,5.58,2.59,6.72s6.43.53,8.28-1.2a5.22,5.22,0,0,1,.78-.58Z" transform="translate(-0.04 0)" style="fill:#ed40a9"/><path d="M103.58,180a95.82,95.82,0,0,1-6.33,8,73.12,73.12,0,0,0-6.64,10.73,4.93,4.93,0,0,0-.38,2.18,57.32,57.32,0,0,1-6.17,22.63c-.12.25-.15.6-.71.64.46-1.82,1-3.59,1.35-5.39,1.48-6.78,2.86-13.59,2.46-20.6-.18-3.13-.64-6.21-1-9.31-.11-.83-.33-2,.47-2.23s1.29.85,1.62,1.64a31.07,31.07,0,0,1,1.68,5.65c.69-1.16,1.18-2.12,1.78-3a43.69,43.69,0,0,1,11.08-10.7c.23-.16.45-.59.86-.24Z" transform="translate(-0.04 0)" style="fill:#474747"/><path d="M75.43,233.08c-.46,3.16-2.56,4.84-4.81,6.26a47.45,47.45,0,0,1-5.43,2.72c-2.53,1.17-5.26.74-7.91.91a9.63,9.63,0,0,1-4.27-.28c4.06-1.39,8.28-1.14,12.08-2.92S71.75,235.27,75.43,233.08Z" transform="translate(-0.04 0)" style="fill:#474747"/><path d="M57,118.11c-4.93,3.31-9.75,6.68-14.45,10.21a1.35,1.35,0,0,1-.26.15c-.43.21-1,.63-1.34.26s0-.95.25-1.35a17.76,17.76,0,0,1,7.5-6.76,28.36,28.36,0,0,1,8.3-2.51Z" transform="translate(-0.04 0)" style="fill:#474747"/><path d="M86.09,78.63a24.26,24.26,0,0,1,11.8,3.89c.66.45,1.76,1,1.34,1.88s-1.51.24-2.25,0q-5.69-2.12-11.35-4.32c-.5-.2-1.47-.23-1.3-.93s1.1-.43,1.76-.52Z" transform="translate(-0.04 0)" style="fill:#474747"/><path d="M23.16,58.49A9.91,9.91,0,0,1,28,53.66a17.2,17.2,0,0,1,8.84-1.41c.44,0,1,0,1.1.49s-.59.51-1,.61A75.52,75.52,0,0,0,26.7,56.69c-1.11.47-1.92,1.51-3.54,1.8Z" transform="translate(-0.04 0)" style="fill:#474747"/><path d="M106,53.65c-3.84-.53-7.43-1.83-11.1-2.74a1.31,1.31,0,0,1-.28-.09c-.72-.23-2.1-.22-2-.75.17-1,1.48-.72,2.27-.75a20.45,20.45,0,0,1,9,2A4,4,0,0,1,106,53.65Z" transform="translate(-0.04 0)" style="fill:#474747"/><path d="M45.11,81.1a20.71,20.71,0,0,1-5.24,1.51A43.66,43.66,0,0,0,32,85.1c-.46.2-1.2.83-1.54.17s.55-1,1-1.31A10.82,10.82,0,0,1,36,81.85c2.65-.51,5.25-1.48,8-1a11.63,11.63,0,0,1,1.14.25Z" transform="translate(-0.04 0)" style="fill:#474747"/><path d="M87.83,76.43a8.88,8.88,0,0,1,7,1.86A18.57,18.57,0,0,1,87.83,76.43Z" transform="translate(-0.04 0)" style="fill:#474747"/><path d="M75.89,201.09l.26.59c-.3.86-.4,1.83-1.45,2.29Z" transform="translate(-0.04 0)" style="fill:#474747"/><path d="M103.62,180v-.2h.18l-.19.14Z" transform="translate(-0.04 0)" style="fill:#474747"/><path d="M99.62,128a20.18,20.18,0,0,0-.16-7.55,14.23,14.23,0,0,0-6.26-9.37c-.68-.44-.82-.67-.32-1.42,1.77-2.69,3.41-5.46,5.16-8.16a26.77,26.77,0,0,1,2.33-3.08c2.51-2.91,5.62-3.65,9.26-2.45,6,2,8.93,5.77,9.31,12a79.53,79.53,0,0,1-.23,8.17c0,.57-.14.93-.85.89-4.47-.25-8,2-11.29,4.57a72.59,72.59,0,0,0-6.95,6.4Z" transform="translate(-0.04 0)" style="fill:#f4e2eb"/><path d="M85.81,149.81c3-2.14,5.86-3.94,9.39-4.12,2.56-.14,3.75,1.12,3.32,3.64-.52,3-2.51,5.21-4.67,7.24-.45.43-.55,0-.72-.29-.4-.68-.83-1.35-1.23-2C90.57,152,88.43,150.74,85.81,149.81Z" transform="translate(-0.04 0)" style="fill:#ed40a9"/></svg>