<svg id="Layer_1" data-name="Layer 1" xmlns="http://www.w3.org/2000/svg" viewBox="0 0 202 435"><title>peace</title><g id="Layer_2" data-name="Layer 2"><g style="opacity:0.12"><path d="M187.2,211.68c0-8.92-.23-17.83-2.15-26.59-1.71-7.77-4.92-14.59-12.43-18.45-.91-.47-.75-1.07-.69-1.84a89.81,89.81,0,0,0,.25-14.76c-1.08-11.36-12.83-20.84-23.92-19.24-2.39.34-2.41.34-1.94-2.07,2.73-14.1,5.55-28.18,8.17-42.3s6.07-27.8,8.09-41.89c.76-5.27.58-10.56-1.89-15.44-2.35-4.67-6.15-7.33-11.52-7.08-6,.27-10.28,3.66-13.85,8.13C131,35.58,128.7,42,126.74,48.55c-10,33.3-19.47,66.75-28.74,100.26-.68,2.46-1.29,4.95-3,7.15a24,24,0,0,1-4.12-8.15c-5.15-17.17-11.49-33.95-17.1-51-6-18.31-13.07-36.26-19.2-54.53-1.88-5.57-4.35-10.94-9-14.87-6.32-5.32-14.72-4.14-19.37,2.69-2.63,3.86-3.63,8.23-4,12.8-.58,8.13.39,16.18,1.5,24.2,2.53,18.46,6.67,36.61,10.49,54.81,3.69,17.54,8.63,34.79,11.42,52.55,2.15,13.7,1.87,26.95-3.08,40-4.18,11-6.34,22.43-5.25,34.3,1.21,13.24,2.17,26.5,4.09,39.66,1.27,8.75,3.46,17.18,8.75,24.52a14.35,14.35,0,0,1,1.43,3.11c3.42,8.54,4.34,17.5,4.24,26.6-.15,14.24-.37,28.48-.55,42.72-.13,10-.59,20,1.82,29.81.37,1.48.38,3.08,1.41,4.87.17-1.77.34-3.42.49-5s.3-3.11.45-4.64a4.45,4.45,0,0,1,.7-.24,4.81,4.81,0,0,0,2.08-.85c1.86-1.63,4-2.85,5.79-4.67,2.59-2.72,5.2-5.44,8-8,2.26-2,4.49-4.25,7.65-5,2.81-.65,5.5-.67,7.65,1.65a23.71,23.71,0,0,1,4.35,7.21c1.84,4.44,3.13,9.15,6.51,12.85,3.84,4.21,9.68,6,14.84,2.62a24,24,0,0,0,7.28-7.16c2.35-3.68,5.15-5.65,9.88-5.49s8.78-1.14,10.52-7.4c.11-.4.4-.5.74-.57.76,5.16,1.51,10.31,4.73,15.1a8.11,8.11,0,0,0,.52-1.53,74.9,74.9,0,0,0-.12-12.53,277.29,277.29,0,0,1,.64-55.78c.68-5.63,1.79-11.32,4.43-16.32,6.17-11.68,12.12-23.48,18-35.31,7.94-16,13.84-32.56,13.44-50.91C186.79,229.37,187.16,220.52,187.2,211.68Z" transform="translate(-0.04 0)" style="fill:#6a374f;stroke:#6a374f;stroke-linecap:round;stroke-linejoin:round;stroke-width:28px"/><path d="M146.35,395.47c.76,5.16,1.51,10.31,4.73,15.1a8.11,8.11,0,0,0,.52-1.53,74.9,74.9,0,0,0-.12-12.53,278,278,0,0,1,.64-55.78c.68-5.63,1.79-11.32,4.43-16.32,6.17-11.68,12.13-23.48,18-35.31,7.94-16,13.84-32.56,13.44-50.91-.19-8.82.18-17.67.22-26.51s-.23-17.83-2.15-26.59c-1.71-7.77-4.92-14.59-12.43-18.45-.91-.47-.75-1.07-.69-1.84a88.72,88.72,0,0,0,.25-14.76c-1.08-11.36-12.83-20.84-23.92-19.24-2.39.34-2.41.34-1.94-2.07,2.73-14.1,5.55-28.18,8.17-42.3s6.07-27.8,8.09-41.89c.76-5.27.58-10.56-1.89-15.44-2.35-4.67-6.15-7.33-11.52-7.08-6,.27-10.28,3.66-13.85,8.13C132,35.58,129.7,42,127.74,48.55c-10,33.3-19.47,66.75-28.74,100.26-.68,2.46-1.29,4.95-3,7.15a24,24,0,0,1-4.12-8.15c-5.15-17.17-11.49-33.95-17.1-51-6-18.31-13.07-36.26-19.2-54.53-1.87-5.57-4.35-10.94-9-14.87-6.32-5.32-14.72-4.14-19.37,2.69-2.63,3.86-3.63,8.23-4,12.8-.57,8.13.4,16.18,1.5,24.2,2.53,18.46,6.67,36.61,10.49,54.81,3.69,17.54,8.63,34.79,11.42,52.55,2.15,13.7,1.87,26.95-3.08,40-4.18,11-6.34,22.43-5.25,34.3,1.21,13.24,2.17,26.5,4.09,39.66,1.27,8.75,3.46,17.18,8.76,24.52a14.81,14.81,0,0,1,1.42,3.11c3.42,8.54,4.35,17.5,4.24,26.6-.15,14.24-.36,28.48-.55,42.72-.13,10-.59,20,1.82,29.81.37,1.48.38,3.08,1.41,4.87.35-3.54.65-6.59.94-9.65.91-.42,2-.37,2.78-1.09,1.86-1.63,4-2.85,5.79-4.67,2.59-2.72,5.2-5.44,8-8,2.26-2.05,4.5-4.25,7.65-5,2.81-.65,5.5-.67,7.65,1.65a23.71,23.71,0,0,1,4.35,7.21c1.84,4.44,3.13,9.15,6.51,12.85,3.84,4.21,9.68,6,14.84,2.62a23.9,23.9,0,0,0,7.28-7.16c2.35-3.68,5.15-5.65,9.88-5.49s8.78-1.14,10.52-7.4C145.72,395.64,146,395.54,146.35,395.47Z" transform="translate(-0.04 0)" style="fill:#6a374f"/><path d="M146.35,395.47c-.34.07-.63.17-.74.57-1.74,6.26-5.77,7.57-10.52,7.4s-7.53,1.81-9.88,5.49a23.9,23.9,0,0,1-7.28,7.16c-5.16,3.35-11,1.59-14.84-2.62-3.38-3.7-4.67-8.41-6.51-12.85a23.71,23.71,0,0,0-4.35-7.21c-2.15-2.32-4.84-2.3-7.65-1.65-3.15.72-5.39,2.92-7.65,5-2.78,2.52-5.39,5.24-8,8-1.74,1.82-3.93,3-5.79,4.67-.82.72-1.87.67-2.78,1.09.19-2.48.5-5,.54-7.45.15-9.38.38-18.77.28-28.15-.16-13.77,1.1-27.54.12-41.3-.61-8.68-2.29-17.11-7.44-24.47a25.09,25.09,0,0,1-2.6-5.24c-2.82-7.09-4-14.55-4.9-22-1-8.79-1.57-17.62-2.66-26.39-1.56-12.59-.78-24.86,3.56-36.89C50.35,210,53,201.34,53,192.14c0-12.91-2.35-25.54-5.27-38-6-25.67-12-51.33-16.55-77.31C29.42,67,27.93,57.1,27.89,47.07c0-4.19.32-8.36,2.2-12.24,3.37-7,10.09-7.8,15.05-1.87a25.79,25.79,0,0,1,4.43,7.69c4.35,11.9,8.83,23.75,12.91,35.74,8.25,24.25,17.13,48.28,24.66,72.77a29,29,0,0,0,6.67,11.9c2,2.12,5,1.74,6.1-.94a61.62,61.62,0,0,0,3.61-9.2c2.47-10.16,5.37-20.18,8.43-30.18,6.73-22,12.18-44.33,19.06-66.26,1.93-6.17,3.63-12.46,7-18.08,2.45-4.14,5.47-7.74,10.35-9.15A7.25,7.25,0,0,1,157.19,31a16.56,16.56,0,0,1,1.74,7c.28,5.45-.78,10.75-1.88,16Q149,93,141.78,132.21a4.89,4.89,0,0,1-1.05,2.79c-3.47,3.47-6,7.66-8.43,11.84a2.75,2.75,0,0,1-2,1.45c-2.84.51-5.69,1-8.52,1.65-2.62.58-5.32,1-7.47,2.84-.46.39-1,.88-.81,1.52s1,.86,1.68.82c2.09-.13,4.17-.37,6.26-.5s4.47-.24,6.77-.36c-.08.43-.06.62-.14.67a2,2,0,0,1-.69.32,10.45,10.45,0,0,0-6.69,4.25c-5.8,7.42-13.4,12.42-21.74,16.48a31,31,0,0,0-15.48,16.64,101.13,101.13,0,0,1-9,17.42c-4,6-9.11,11-14,16.19-7.14,7.51-9.65,16.6-9.44,26.7a30.11,30.11,0,0,1,8.39-18.37c2-2.17,4-4.4,6.16-6.43a89.58,89.58,0,0,0,22.15-33A28.65,28.65,0,0,1,101,180.25c2.35-1.31,4.81-2.41,7.6-3.78a22.17,22.17,0,0,0-.35,6.19,9.32,9.32,0,0,0,8.65,8.47c4.76.32,8.21-2.13,11.15-5.53.25-.29-.08-.46-.21-.66-.46-.87.37-1.16.75-1.63,1.3-1.59,2.87-3,3.68-4.92.23,0,.58.34.66,0,.57-2.53,1-5.07-.45-7.47-2-3.39-4.06-6.64-8.27-7.68,2.94-3.8,4.87-4,8.14-1.07a13.9,13.9,0,0,1,2.29,2.56c4.14,6.44,3.85,13.16.91,19.9-2.77,6.37-7.28,11.49-12.41,16A45.72,45.72,0,0,0,112.79,214c-1.42,2.76-2.85,5.52-4.08,8.36-4.83,11.22-11.78,21-19.75,30.19-1.24,1.42-2.5,2.83-3.8,4.2s-2.63,2.67-4,4.08a1.31,1.31,0,0,0,1.53-.37,100,100,0,0,0,23.52-25.66c.48-.77.75-1.73,1.67-2.17l.07.07c-.17,8,.86,16.06-2.54,23.76.37,0,.67.07.72,0,2.37-3.68,3.31-7.93,4.67-12,1.63,6.56,1.75,13.18,1.71,19.81,0,5.13-1.38,10-2.6,15l-1.62,3.92c1.43-.62,1.58-1.94,2-3.11a78.09,78.09,0,0,0,3.33-10.78c.4-2.11.8-4.24,1.36-6.31,2.26-8.28,2.49-16.57-.54-24.66a20.93,20.93,0,0,1-1.12-12.79,9.46,9.46,0,0,0,.21-1.4c.21-2.24,1.5-4,2.78-6,1.1,5.55,4.62,8.62,9.17,10.7a21.12,21.12,0,0,0,19.48-.58,70.58,70.58,0,0,0,7.06-4.41c-.54,4.21.35,8,.25,11.89a8.79,8.79,0,0,0,1.24-2c1.84-4,3.9-7.92,3.72-12.46a4.21,4.21,0,0,1,1.74-3.76,53.68,53.68,0,0,0,9.31-9.74c-.58-.3-.84,0-1.14.3-7.49,6.63-16.34,11.17-25,16-5.92,3.33-11.86,2.45-17.37-1.3a8.54,8.54,0,0,1-3.94-8.34c.2-2.22.72-2.58,2.53-1.27a80.6,80.6,0,0,1,8.86,7c1.55,1.5,2.63,1.26,4,.27a20,20,0,0,0,7.24-9.27c2.45-6.76-1.93-12-9.06-11.06-1.28.17-2.46,1-3.82.58h0c-.08-.4.24-.6.44-.85a193.64,193.64,0,0,1,15.79-17.6c3.83-3.83,7.73-7.54,12.42-10.33a12.75,12.75,0,0,1,6.48-2c6.62,0,10.58,3.84,13.25,9.32A41,41,0,0,1,182.41,193c1.82,17.31.75,34.67.56,52-.09,8.36-2.31,16.55-5.29,24.42-6.7,17.71-15.86,34.25-24.68,50.93-3.54,6.69-8.54,12.3-15.56,15.73-1,.47-1.93,1-3.38,1.69,5.53.55,9.79-1.49,14.28-3.87-2.47,12-2.62,23.74-2.79,35.47C145.42,378.09,145.79,386.79,146.35,395.47Zm1.28-145c-.55-.48-.85.11-1.17.33a58.85,58.85,0,0,0-15.06,14.55c-.82,1.18-1.49,2.48-2.43,4.06a42.64,42.64,0,0,0-2.28-7.68c-.44-1.07-1.08-2.56-2.21-2.24s-.78,1.91-.64,3c.53,4.21,1.17,8.42,1.41,12.66.54,9.55-1.33,18.8-3.35,28-.53,2.43-1.21,4.84-1.83,7.32.75-.05.8-.53,1-.87a78.39,78.39,0,0,0,8.39-30.78,6.56,6.56,0,0,1,.51-3c2.77-5,5.42-10.1,9-14.61,2.89-3.61,6.11-7,8.61-10.9l.26-.18-.25,0Zm-38.38,72.24c-5,3-9,6.73-14.07,9.1s-10.9,2.09-16.43,4a13.27,13.27,0,0,0,5.81.39c3.6-.23,7.32.35,10.75-1.24a65.33,65.33,0,0,0,7.39-3.7c3.07-1.94,5.92-4.26,6.55-8.53ZM84.19,166.34a38.12,38.12,0,0,0-11.29,3.42A24,24,0,0,0,62.7,179c-.32.54-.84,1.34-.34,1.83s1.24-.07,1.83-.36a1.68,1.68,0,0,0,.34-.2C70.93,175.42,77.48,170.85,84.19,166.34Zm39.59-53.7c-.88.12-2.15-.28-2.38.65s1.09,1,1.77,1.26q7.68,3,15.44,5.88c1,.38,2.41,1.36,3,.06s-.92-1.95-1.82-2.56A32.78,32.78,0,0,0,123.78,112.64ZM38.19,85.23c2.21-.38,3.3-1.81,4.82-2.44a101.16,101.16,0,0,1,14-4.54c.55-.14,1.44,0,1.35-.83-.08-.62-.9-.63-1.5-.67a23.53,23.53,0,0,0-12,1.91A13.58,13.58,0,0,0,38.19,85.23Zm112.67-6.58A5.5,5.5,0,0,0,148,75.56c-3.91-1.69-8-3-12.27-2.8-1.07,0-2.85-.36-3.08,1-.12.72,1.76.7,2.74,1,.13,0,.25.1.38.13C140.76,76.17,145.63,77.93,150.86,78.65ZM68.05,116c-.51-.13-1-.31-1.53-.4-3.78-.59-7.32.74-10.92,1.43a14.34,14.34,0,0,0-6.17,2.87c-.61.48-1.73,1-1.35,1.77s1.47,0,2.09-.22a59.54,59.54,0,0,1,10.74-3.39C63.31,117.5,65.76,117.19,68.05,116Zm58.11-6.34a25.21,25.21,0,0,0,9.55,2.52,12.05,12.05,0,0,0-9.55-2.53Z" transform="translate(-0.04 0)" style="fill:#6a374f"/><path d="M129.55,200.61c1.36.46,2.54-.41,3.82-.58,7.13-1,11.51,4.3,9.06,11.06a20,20,0,0,1-7.24,9.27c-1.33,1-2.41,1.23-4-.27a80.6,80.6,0,0,0-8.86-7c-1.81-1.31-2.33-1-2.53,1.27a8.54,8.54,0,0,0,3.94,8.34c5.51,3.75,11.45,4.63,17.37,1.3,8.63-4.85,17.48-9.39,25-16,.3-.26.56-.6,1.14-.3a53.68,53.68,0,0,1-9.31,9.74,4.21,4.21,0,0,0-1.74,3.76c.18,4.54-1.88,8.48-3.72,12.46a8.79,8.79,0,0,1-1.24,2c.1-3.88-.79-7.68-.25-11.89a70.58,70.58,0,0,1-7.06,4.41,21.12,21.12,0,0,1-19.48.58c-4.55-2.08-8.08-5.15-9.17-10.7-1.28,2.09-2.57,3.8-2.78,6a9.46,9.46,0,0,1-.21,1.4,20.93,20.93,0,0,0,1.12,12.79c3,8.09,2.79,16.38.54,24.66-.56,2.07-1,4.2-1.36,6.31A76.71,76.71,0,0,1,109.27,280l-.36-.81c1.22-4.94,2.57-9.86,2.6-15,0-6.63-.08-13.25-1.71-19.81-1.36,4.11-2.3,8.36-4.67,12,0,.08-.35,0-.72,0,3.4-7.7,2.53-23.41,2.47-23.48v-.35c-.92.44-1.19,1.4-1.67,2.17a99.82,99.82,0,0,1-23.55,25.67,1.34,1.34,0,0,1-1.53.37c1.4-1.41,2.74-2.72,4-4.08s2.56-2.78,3.8-4.2c8-9.15,14.92-19,19.75-30.19,1.23-2.84,2.66-5.6,4.08-8.36a45.52,45.52,0,0,1,10.34-13.37c5.13-4.56,9.64-9.68,12.41-16,2.94-6.74,3.23-13.46-.92-19.9a13.23,13.23,0,0,0-2.28-2.56c-3.27-3-5.2-2.73-8.14,1.07,4.21,1,6.31,4.29,8.27,7.68,1.4,2.4,1,4.94.45,7.47-.08.38-.43.05-.66,0A17.47,17.47,0,0,0,123,165.91a1.86,1.86,0,0,0-2.62.18l-.16.21a32.31,32.31,0,0,1-6,5.68,8.82,8.82,0,0,0-3.62,6.24c-.74,4.1.64,7.58,3.53,9.14s8.75.72,11.26-1.64c1.16-1.67,1.46-.84,1.46-.84v.06c.13.2.46.37.21.66-2.94,3.4-6.39,5.85-11.15,5.53a9.32,9.32,0,0,1-8.65-8.47,22.17,22.17,0,0,1,.35-6.19c-2.79,1.37-5.26,2.47-7.61,3.78a28.71,28.71,0,0,0-13.3,14.94,89.58,89.58,0,0,1-22.15,33c-2.16,2-4.13,4.26-6.17,6.43A30.18,30.18,0,0,0,50,253c-.21-10.1,2.3-19.19,9.44-26.7,4.92-5.18,10-10.19,14-16.19a101.13,101.13,0,0,0,9-17.42,31,31,0,0,1,15.48-16.64c8.34-4.06,15.94-9.06,21.74-16.48a10.45,10.45,0,0,1,6.69-4.25A1.72,1.72,0,0,0,127,155c.08-.05.06-.24.14-.67-2.3.12-4.54.21-6.77.36s-4.17.37-6.26.5c-.66,0-1.46,0-1.68-.82s.35-1.13.81-1.52c2.15-1.84,4.85-2.26,7.47-2.84,2.83-.62,5.68-1.14,8.52-1.65a2.75,2.75,0,0,0,2-1.45c2.47-4.18,5-8.37,8.43-11.84a4.89,4.89,0,0,0,1.05-2.79Q148,93.09,156.05,54.07c1.09-5.29,2.16-10.59,1.88-16a16.56,16.56,0,0,0-1.74-7,7.25,7.25,0,0,0-8.87-3.76c-4.88,1.41-7.9,5-10.35,9.15-3.33,5.62-5,11.91-7,18.08-6.89,21.93-12.33,44.28-19.06,66.26-3.06,10-6,20-8.43,30.18-.79,3.23-2.33,6.16-3.61,9.2-1.14,2.68-4,3.06-6.1.94a29,29,0,0,1-6.67-11.9c-7.53-24.49-16.41-48.52-24.66-72.77-4.08-12-8.56-23.84-12.91-35.74A25.9,25.9,0,0,0,44.14,33c-5-5.93-11.69-5.09-15,1.87-1.88,3.88-2.21,8.05-2.2,12.24,0,10,1.52,19.91,3.25,29.75,4.54,26,10.53,51.64,16.55,77.31,2.92,12.47,5.24,25.1,5.27,38,0,9.2-2.61,17.86-5.68,26.37-4.34,12-5.12,24.3-3.56,36.89,1.09,8.77,1.65,17.6,2.66,26.39.86,7.5,2.08,15,4.9,22a25.09,25.09,0,0,0,2.6,5.24c5.15,7.36,6.83,15.79,7.44,24.47,1,13.76-.28,27.53-.13,41.3.11,9.38-.12,18.77-.27,28.15,0,2.48-.35,5-.54,7.45-.3,3.06-.59,6.11-.94,9.65-1-1.79-1-3.39-1.41-4.87-2.41-9.82-2-19.83-1.82-29.81.18-14.24.4-28.48.55-42.72.1-9.1-.82-18.06-4.24-26.6A14.09,14.09,0,0,0,50.09,313c-5.29-7.34-7.48-15.77-8.75-24.52-1.92-13.16-2.88-26.42-4.09-39.66-1.09-11.87,1.07-23.27,5.25-34.3,5-13.07,5.23-26.32,3.08-40-2.79-17.76-7.73-35-11.42-52.55-3.82-18.2-8-36.35-10.49-54.81-1.11-8-2.08-16.07-1.5-24.2.33-4.57,1.33-8.94,4-12.8,4.65-6.83,13-8,19.37-2.69,4.68,3.93,7.15,9.3,9,14.87,6.13,18.27,13.16,36.22,19.2,54.53,5.61,17,12,33.8,17.1,51A24,24,0,0,0,95,156c1.76-2.2,2.37-4.69,3-7.15,9.27-33.51,18.74-67,28.74-100.26,2-6.53,4.22-13,8.58-18.4,3.57-4.47,7.86-7.86,13.85-8.13,5.37-.25,9.17,2.41,11.52,7.08,2.47,4.88,2.65,10.17,1.89,15.44-2,14.09-5.49,27.91-8.09,41.89s-5.44,28.2-8.17,42.3c-.47,2.41-.45,2.41,1.94,2.07,11.09-1.6,22.84,7.88,23.92,19.24a89.81,89.81,0,0,1-.25,14.76c-.06.77-.22,1.37.69,1.84,7.51,3.86,10.72,10.68,12.43,18.45,1.92,8.76,2.19,17.67,2.15,26.59s-.41,17.69-.22,26.51c.4,18.35-5.5,34.88-13.44,50.91-5.87,11.83-11.82,23.63-18,35.31-2.64,5-3.75,10.69-4.43,16.32a277.29,277.29,0,0,0-.64,55.78A75,75,0,0,1,150.6,409a8.11,8.11,0,0,1-.52,1.53c-3.22-4.79-4-9.94-4.73-15.1-.56-8.68-.93-17.38-.8-26.09.17-11.73.32-23.47,2.79-35.47-4.5,2.38-8.75,4.42-14.28,3.87,1.44-.73,2.41-1.22,3.38-1.69,7-3.43,12-9,15.56-15.73,8.82-16.68,18-33.22,24.68-50.93,3-7.87,5.2-16.06,5.29-24.42.19-17.33,1.26-34.69-.56-52A41.14,41.14,0,0,0,178,179.14c-2.67-5.48-6.63-9.37-13.25-9.32a12.75,12.75,0,0,0-6.48,2c-4.69,2.79-8.59,6.5-12.42,10.33A193.44,193.44,0,0,0,130,199.79c-.2.25-.52.45-.44.85m11.61-20.79a100,100,0,0,1,9.46-8.71c4.52-3.56,9.27-6.56,15.36-6.21,1,0,1.12-.44,1.15-1.22a105.62,105.62,0,0,0,.32-11.11c-.52-8.48-4.58-13.66-12.67-16.33-4.95-1.63-9.17-.61-12.6,3.35a38.8,38.8,0,0,0-3.17,4.17c-2.38,3.68-4.6,7.45-7,11.1-.68,1-.48,1.34.44,1.94A19.4,19.4,0,0,1,141,169.58a27.09,27.09,0,0,1,.19,10.27Zm-18.78,29.6c3.62,1.27,6.48,3,8.29,6,.54.93,1.12,1.84,1.67,2.77.23.39.37,1,1,.4,2.93-2.76,5.65-5.7,6.35-9.85.59-3.43-1-5.14-4.51-5-4.8.33-8.67,2.79-12.78,5.68Z" transform="translate(-0.04 0)" style="fill:#6a374f;stroke:#6a374f;stroke-miterlimit:10"/><path d="M126.47,184.9a.38.38,0,0,1,.36,0c-.46-.87.36-1.16.75-1.63,1.3-1.59,2.87-3,3.68-4.92A17.45,17.45,0,0,0,123,165.91a1.86,1.86,0,0,0-2.62.18l-.16.21a32.31,32.31,0,0,1-6,5.68,8.82,8.82,0,0,0-3.62,6.24c-.74,4.1.64,7.58,3.53,9.14s8.75.72,11.26-1.64A11,11,0,0,1,126.47,184.9Z" transform="translate(-0.04 0)" style="fill:#6a374f"/><path d="M146.58,250.45c-2.5,3.93-5.72,7.29-8.61,10.9-3.61,4.51-6.26,9.59-9,14.61a6.56,6.56,0,0,0-.51,3A78.24,78.24,0,0,1,120,309.7c-.18.34-.22.82-1,.87.62-2.48,1.3-4.89,1.83-7.32,2-9.24,3.89-18.49,3.35-28-.24-4.24-.88-8.45-1.41-12.66-.14-1.13-.44-2.73.64-3s1.76,1.17,2.21,2.24a42.64,42.64,0,0,1,2.28,7.68c.94-1.58,1.6-2.88,2.43-4.06a58.85,58.85,0,0,1,15.06-14.55c.32-.22.62-.81,1.17-.33Z" transform="translate(-0.04 0)" style="fill:#6a374f"/><path d="M108.25,322.73c-.63,4.3-3.48,6.59-6.55,8.52a65.33,65.33,0,0,1-7.39,3.7c-3.43,1.59-7.15,1-10.75,1.24a13.27,13.27,0,0,1-5.81-.39c5.53-1.88,11.26-1.55,16.43-4S103.28,325.71,108.25,322.73Z" transform="translate(-0.04 0)" style="fill:#6a374f"/><path d="M83.19,166.34c-6.71,4.51-13.26,9.08-19.66,13.89a1.68,1.68,0,0,1-.34.2c-.6.29-1.33.85-1.84.36s0-1.29.35-1.83a24.06,24.06,0,0,1,10.2-9.2A38.12,38.12,0,0,1,83.19,166.34Z" transform="translate(-0.04 0)" style="fill:#6a374f"/><path d="M122.78,112.64a32.79,32.79,0,0,1,16.06,5.29c.9.61,2.4,1.39,1.82,2.56s-2.06.32-3-.06q-7.75-2.87-15.45-5.88c-.67-.27-2-.32-1.76-1.26S121.89,112.76,122.78,112.64Z" transform="translate(-0.04 0)" style="fill:#6a374f"/><path d="M37.18,85.23a13.64,13.64,0,0,1,6.64-6.57,23.53,23.53,0,0,1,12-1.91c.6,0,1.42,0,1.5.67s-.8.69-1.35.83a101.16,101.16,0,0,0-14,4.54C40.49,83.42,39.4,84.85,37.18,85.23Z" transform="translate(-0.04 0)" style="fill:#6a374f"/><path d="M149.85,78.65c-5.22-.72-10.09-2.48-15.09-3.72a1.43,1.43,0,0,1-.38-.13c-1-.31-2.86-.29-2.74-1,.23-1.39,2-1,3.08-1,4.32-.18,8.36,1.11,12.27,2.8A5.45,5.45,0,0,1,149.85,78.65Z" transform="translate(-0.04 0)" style="fill:#6a374f"/><path d="M67.05,116c-2.29,1.2-4.74,1.51-7.14,2.06a59.54,59.54,0,0,0-10.74,3.39c-.62.27-1.63,1.13-2.09.22-.38-.74.74-1.29,1.35-1.77A14.34,14.34,0,0,1,54.6,117c3.6-.69,7.14-2,10.92-1.43C66,115.68,66.54,115.86,67.05,116Z" transform="translate(-0.04 0)" style="fill:#6a374f"/><path d="M125.16,109.65a12.08,12.08,0,0,1,9.55,2.52A25.21,25.21,0,0,1,125.16,109.65Z" transform="translate(-0.04 0)" style="fill:#6a374f"/><path d="M108.91,279.21l.36.81c-.4,1.17-.55,2.49-2,3.11Z" transform="translate(-0.04 0)" style="fill:#6a374f"/><path d="M146.63,250.49v-.27l.24.05-.25.18Z" transform="translate(-0.04 0)" style="fill:#6a374f"/><path d="M141.19,179.85a27.29,27.29,0,0,0-.21-10.27,19.41,19.41,0,0,0-8.52-12.75c-.92-.6-1.12-.91-.44-1.94,2.42-3.65,4.64-7.42,7-11.1a38.8,38.8,0,0,1,3.17-4.17c3.43-4,7.65-5,12.6-3.35,8.09,2.67,12.15,7.85,12.67,16.33a105.62,105.62,0,0,1-.32,11.11c0,.78-.19,1.27-1.15,1.22-6.09-.35-10.84,2.65-15.36,6.21A101,101,0,0,0,141.19,179.85Z" transform="translate(-0.04 0)" style="fill:#6a374f"/><path d="M122.41,209.45c4.11-2.89,8-5.35,12.78-5.6,3.48-.18,5.1,1.53,4.51,5-.7,4.15-3.42,7.09-6.35,9.85-.61.58-.75,0-1-.4-.55-.93-1.13-1.84-1.67-2.77C128.89,212.42,126,210.72,122.41,209.45Z" transform="translate(-0.04 0)" style="fill:#6a374f"/></g><g id="Layer_1-2" data-name="Layer 1-2"><path d="M179.2,203.68c0-8.92-.23-17.83-2.15-26.59-1.71-7.77-4.92-14.59-12.43-18.45-.91-.47-.75-1.07-.69-1.84a89.81,89.81,0,0,0,.25-14.76c-1.08-11.36-12.83-20.84-23.92-19.24-2.39.34-2.41.34-1.94-2.07,2.73-14.1,5.55-28.18,8.17-42.3s6.07-27.8,8.09-41.89c.76-5.27.58-10.56-1.89-15.44-2.35-4.67-6.15-7.33-11.52-7.08-6,.27-10.28,3.66-13.85,8.13C123,27.58,120.7,34,118.74,40.55c-10,33.3-19.47,66.75-28.74,100.26-.68,2.46-1.29,4.95-3,7.15a24,24,0,0,1-4.12-8.15c-5.15-17.17-11.49-33.95-17.1-51-6-18.31-13.07-36.26-19.2-54.53-1.88-5.57-4.35-10.94-9-14.87-6.32-5.32-14.72-4.14-19.37,2.69-2.63,3.86-3.63,8.23-4,12.8-.58,8.13.39,16.18,1.5,24.2,2.53,18.46,6.67,36.61,10.49,54.81,3.69,17.54,8.63,34.79,11.42,52.55,2.15,13.7,1.87,26.95-3.08,40-4.18,11-6.34,22.43-5.25,34.3,1.21,13.24,2.17,26.5,4.09,39.66,1.27,8.75,3.46,17.18,8.75,24.52a14.35,14.35,0,0,1,1.43,3.11c3.42,8.54,4.34,17.5,4.24,26.6-.15,14.24-.37,28.48-.55,42.72-.13,10-.59,20,1.82,29.81.37,1.48.38,3.08,1.41,4.87.17-1.77.34-3.42.49-5s.3-3.11.45-4.64a4.45,4.45,0,0,1,.7-.24,4.81,4.81,0,0,0,2.08-.85c1.86-1.63,4-2.85,5.79-4.67,2.59-2.72,5.2-5.44,8-8,2.26-2,4.49-4.25,7.65-5,2.81-.65,5.5-.67,7.65,1.65a23.71,23.71,0,0,1,4.35,7.21c1.84,4.44,3.13,9.15,6.51,12.85,3.84,4.21,9.68,6,14.84,2.62a24,24,0,0,0,7.28-7.16c2.35-3.68,5.15-5.65,9.88-5.49s8.78-1.14,10.52-7.4c.11-.4.4-.5.74-.57.76,5.16,1.51,10.31,4.73,15.1a8.11,8.11,0,0,0,.52-1.53,74.9,74.9,0,0,0-.12-12.53,277.29,277.29,0,0,1,.64-55.78c.68-5.63,1.79-11.32,4.43-16.32,6.17-11.68,12.12-23.48,18-35.31,7.94-16,13.84-32.56,13.44-50.91C178.79,221.37,179.16,212.52,179.2,203.68Z" transform="translate(-0.04 0)" style="fill:#fff;stroke:#fff;stroke-linecap:round;stroke-linejoin:round;stroke-width:28px"/><g id="HBfqrv.tif"><path d="M138.35,387.47c.76,5.16,1.51,10.31,4.73,15.1a8.11,8.11,0,0,0,.52-1.53,74.9,74.9,0,0,0-.12-12.53,278,278,0,0,1,.64-55.78c.68-5.63,1.79-11.32,4.43-16.32,6.17-11.68,12.13-23.48,18-35.31,7.94-16,13.84-32.56,13.44-50.91-.19-8.82.18-17.67.22-26.51s-.23-17.83-2.15-26.59c-1.71-7.77-4.92-14.59-12.43-18.45-.91-.47-.75-1.07-.69-1.84a88.72,88.72,0,0,0,.25-14.76c-1.08-11.36-12.83-20.84-23.92-19.24-2.39.34-2.41.34-1.94-2.07,2.73-14.1,5.55-28.18,8.17-42.3s6.07-27.8,8.09-41.89c.76-5.27.58-10.56-1.89-15.44-2.35-4.67-6.15-7.33-11.52-7.08-6,.27-10.28,3.66-13.85,8.13C124,27.58,121.7,34,119.74,40.55c-10,33.3-19.47,66.75-28.74,100.26-.68,2.46-1.29,4.95-3,7.15a24,24,0,0,1-4.12-8.15c-5.15-17.17-11.49-33.95-17.1-51-6-18.31-13.07-36.26-19.2-54.53-1.87-5.57-4.35-10.94-9-14.87-6.32-5.32-14.72-4.14-19.37,2.69-2.63,3.86-3.63,8.23-4,12.8-.57,8.13.4,16.18,1.5,24.2,2.53,18.46,6.67,36.61,10.49,54.81,3.69,17.54,8.63,34.79,11.42,52.55,2.15,13.7,1.87,26.95-3.08,40-4.18,11-6.34,22.43-5.25,34.3,1.21,13.24,2.17,26.5,4.09,39.66,1.27,8.75,3.46,17.18,8.76,24.52a14.81,14.81,0,0,1,1.42,3.11c3.42,8.54,4.35,17.5,4.24,26.6-.15,14.24-.36,28.48-.55,42.72-.13,10-.59,20,1.82,29.81.37,1.48.38,3.08,1.41,4.87.35-3.54.65-6.59.94-9.65.91-.42,2-.37,2.78-1.09,1.86-1.63,4-2.85,5.79-4.67,2.59-2.72,5.2-5.44,8-8,2.26-2.05,4.5-4.25,7.65-5,2.81-.65,5.5-.67,7.65,1.65a23.71,23.71,0,0,1,4.35,7.21c1.84,4.44,3.13,9.15,6.51,12.85,3.84,4.21,9.68,6,14.84,2.62a23.9,23.9,0,0,0,7.28-7.16c2.35-3.68,5.15-5.65,9.88-5.49s8.78-1.14,10.52-7.4C137.72,387.64,138,387.54,138.35,387.47Z" transform="translate(-0.04 0)" style="fill:#fff"/><path d="M138.35,387.47c-.34.07-.63.17-.74.57-1.74,6.26-5.77,7.57-10.52,7.4s-7.53,1.81-9.88,5.49a23.9,23.9,0,0,1-7.28,7.16c-5.16,3.35-11,1.59-14.84-2.62-3.38-3.7-4.67-8.41-6.51-12.85a23.71,23.71,0,0,0-4.35-7.21c-2.15-2.32-4.84-2.3-7.65-1.65-3.15.72-5.39,2.92-7.65,5-2.78,2.52-5.39,5.24-8,8-1.74,1.82-3.93,3-5.79,4.67-.82.72-1.87.67-2.78,1.09.19-2.48.5-5,.54-7.45.15-9.38.38-18.77.28-28.15-.16-13.77,1.1-27.54.12-41.3-.61-8.68-2.29-17.11-7.44-24.47a25.09,25.09,0,0,1-2.6-5.24c-2.82-7.09-4-14.55-4.9-22-1-8.79-1.57-17.62-2.66-26.39-1.56-12.59-.78-24.86,3.56-36.89C42.35,202,45,193.34,45,184.14c0-12.91-2.35-25.54-5.27-38-6-25.67-12-51.33-16.55-77.31C21.42,59,19.93,49.1,19.89,39.07c0-4.19.32-8.36,2.2-12.24,3.37-7,10.09-7.8,15.05-1.87a25.79,25.79,0,0,1,4.43,7.69c4.35,11.9,8.83,23.75,12.91,35.74,8.25,24.25,17.13,48.28,24.66,72.77a29,29,0,0,0,6.67,11.9c2,2.12,5,1.74,6.1-.94a61.62,61.62,0,0,0,3.61-9.2c2.47-10.16,5.37-20.18,8.43-30.18,6.73-22,12.18-44.33,19.06-66.26,1.93-6.17,3.63-12.46,7-18.08,2.45-4.14,5.47-7.74,10.35-9.15A7.25,7.25,0,0,1,149.19,23a16.56,16.56,0,0,1,1.74,7c.28,5.45-.78,10.75-1.88,16Q141,85,133.78,124.21a4.89,4.89,0,0,1-1.05,2.79c-3.47,3.47-6,7.66-8.43,11.84a2.75,2.75,0,0,1-2,1.45c-2.84.51-5.69,1-8.52,1.65-2.62.58-5.32,1-7.47,2.84-.46.39-1,.88-.81,1.52s1,.86,1.68.82c2.09-.13,4.17-.37,6.26-.5s4.47-.24,6.77-.36c-.08.43-.06.62-.14.67a2,2,0,0,1-.69.32,10.45,10.45,0,0,0-6.69,4.25c-5.8,7.42-13.4,12.42-21.74,16.48a31,31,0,0,0-15.48,16.64,101.13,101.13,0,0,1-9,17.42c-4,6-9.11,11-14,16.19-7.14,7.51-9.65,16.6-9.44,26.7a30.11,30.11,0,0,1,8.39-18.37c2-2.17,4-4.4,6.16-6.43a89.58,89.58,0,0,0,22.15-33A28.65,28.65,0,0,1,93,172.25c2.35-1.31,4.81-2.41,7.6-3.78a22.17,22.17,0,0,0-.35,6.19,9.32,9.32,0,0,0,8.65,8.47c4.76.32,8.21-2.13,11.15-5.53.25-.29-.08-.46-.21-.66-.46-.87.37-1.16.75-1.63,1.3-1.59,2.87-3,3.68-4.92.23,0,.58.34.66,0,.57-2.53,1-5.07-.45-7.47-2-3.39-4.06-6.64-8.27-7.68,2.94-3.8,4.87-4,8.14-1.07a13.9,13.9,0,0,1,2.29,2.56c4.14,6.44,3.85,13.16.91,19.9-2.77,6.37-7.28,11.49-12.41,16A45.72,45.72,0,0,0,104.79,206c-1.42,2.76-2.85,5.52-4.08,8.36-4.83,11.22-11.78,21-19.75,30.19-1.24,1.42-2.5,2.83-3.8,4.2s-2.63,2.67-4,4.08a1.31,1.31,0,0,0,1.53-.37A100,100,0,0,0,98.21,226.8c.48-.77.75-1.73,1.67-2.17l.07.07c-.17,8,.86,16.06-2.54,23.76.37,0,.67.07.72,0,2.37-3.68,3.31-7.93,4.67-12,1.63,6.56,1.75,13.18,1.71,19.81,0,5.13-1.38,10-2.6,15l-1.62,3.92c1.43-.62,1.58-1.94,2-3.11a78.09,78.09,0,0,0,3.33-10.78c.4-2.11.8-4.24,1.36-6.31,2.26-8.28,2.49-16.57-.54-24.66a20.93,20.93,0,0,1-1.12-12.79,9.46,9.46,0,0,0,.21-1.4c.21-2.24,1.5-4,2.78-6,1.1,5.55,4.62,8.62,9.17,10.7a21.12,21.12,0,0,0,19.48-.58,70.58,70.58,0,0,0,7.06-4.41c-.54,4.21.35,8,.25,11.89a8.79,8.79,0,0,0,1.24-2c1.84-4,3.9-7.92,3.72-12.46a4.21,4.21,0,0,1,1.74-3.76,53.68,53.68,0,0,0,9.31-9.74c-.58-.3-.84,0-1.14.3-7.49,6.63-16.34,11.17-25,16-5.92,3.33-11.86,2.45-17.37-1.3a8.54,8.54,0,0,1-3.94-8.34c.2-2.22.72-2.58,2.53-1.27a80.6,80.6,0,0,1,8.86,7c1.55,1.5,2.63,1.26,4,.27a20,20,0,0,0,7.24-9.27c2.45-6.76-1.93-12-9.06-11.06-1.28.17-2.46,1-3.82.58h0c-.08-.4.24-.6.44-.85a193.64,193.64,0,0,1,15.79-17.6c3.83-3.83,7.73-7.54,12.42-10.33a12.75,12.75,0,0,1,6.48-2c6.62,0,10.58,3.84,13.25,9.32A41,41,0,0,1,174.41,185c1.82,17.31.75,34.67.56,52-.09,8.36-2.31,16.55-5.29,24.42-6.7,17.71-15.86,34.25-24.68,50.93-3.54,6.69-8.54,12.3-15.56,15.73-1,.47-1.93,1-3.38,1.69,5.53.55,9.79-1.49,14.28-3.87-2.47,12-2.62,23.74-2.79,35.47C137.42,370.09,137.79,378.79,138.35,387.47Zm1.28-145c-.55-.48-.85.11-1.17.33a58.85,58.85,0,0,0-15.06,14.55c-.82,1.18-1.49,2.48-2.43,4.06a42.64,42.64,0,0,0-2.28-7.68c-.44-1.07-1.08-2.56-2.21-2.24s-.78,1.91-.64,3c.53,4.21,1.17,8.42,1.41,12.66.54,9.55-1.33,18.8-3.35,28-.53,2.43-1.21,4.84-1.83,7.32.75-.05.8-.53,1-.87a78.39,78.39,0,0,0,8.39-30.78,6.56,6.56,0,0,1,.51-3c2.77-5,5.42-10.1,9-14.61,2.89-3.61,6.11-7,8.61-10.9l.26-.18-.25,0Zm-38.38,72.24c-5,3-9,6.73-14.07,9.1s-10.9,2.09-16.43,4a13.27,13.27,0,0,0,5.81.39c3.6-.23,7.32.35,10.75-1.24a65.33,65.33,0,0,0,7.39-3.7c3.07-1.94,5.92-4.26,6.55-8.53ZM76.19,158.34a38.12,38.12,0,0,0-11.29,3.42A24,24,0,0,0,54.7,171c-.32.54-.84,1.34-.34,1.83s1.24-.07,1.83-.36a1.68,1.68,0,0,0,.34-.2C62.93,167.42,69.48,162.85,76.19,158.34Zm39.59-53.7c-.88.12-2.15-.28-2.38.65s1.09,1,1.77,1.26q7.68,3,15.44,5.88c1,.38,2.41,1.36,3,.06s-.92-1.95-1.82-2.56A32.78,32.78,0,0,0,115.78,104.64ZM30.19,77.23c2.21-.38,3.3-1.81,4.82-2.44a101.16,101.16,0,0,1,14-4.54c.55-.14,1.44,0,1.35-.83-.08-.62-.9-.63-1.5-.67a23.53,23.53,0,0,0-12,1.91A13.58,13.58,0,0,0,30.19,77.23Zm112.67-6.58A5.5,5.5,0,0,0,140,67.56c-3.91-1.69-8-3-12.27-2.8-1.07,0-2.85-.36-3.08,1-.12.72,1.76.7,2.74,1,.13,0,.25.1.38.13C132.76,68.17,137.63,69.93,142.86,70.65ZM60.05,108c-.51-.13-1-.31-1.53-.4-3.78-.59-7.32.74-10.92,1.43a14.34,14.34,0,0,0-6.17,2.87c-.61.48-1.73,1-1.35,1.77s1.47,0,2.09-.22a59.54,59.54,0,0,1,10.74-3.39C55.31,109.5,57.76,109.19,60.05,108Zm58.11-6.34a25.21,25.21,0,0,0,9.55,2.52,12.05,12.05,0,0,0-9.55-2.53Z" transform="translate(-0.04 0)" style="fill:#f4e2eb"/><path d="M121.55,192.61c1.36.46,2.54-.41,3.82-.58,7.13-1,11.51,4.3,9.06,11.06a20,20,0,0,1-7.24,9.27c-1.33,1-2.41,1.23-4-.27a80.6,80.6,0,0,0-8.86-7c-1.81-1.31-2.33-1-2.53,1.27a8.54,8.54,0,0,0,3.94,8.34c5.51,3.75,11.45,4.63,17.37,1.3,8.63-4.85,17.48-9.39,25-16,.3-.26.56-.6,1.14-.3a53.68,53.68,0,0,1-9.31,9.74,4.21,4.21,0,0,0-1.74,3.76c.18,4.54-1.88,8.48-3.72,12.46a8.79,8.79,0,0,1-1.24,2c.1-3.88-.79-7.68-.25-11.89a70.58,70.58,0,0,1-7.06,4.41,21.12,21.12,0,0,1-19.48.58c-4.55-2.08-8.08-5.15-9.17-10.7-1.28,2.09-2.57,3.8-2.78,6a9.46,9.46,0,0,1-.21,1.4,20.93,20.93,0,0,0,1.12,12.79c3,8.09,2.79,16.38.54,24.66-.56,2.07-1,4.2-1.36,6.31A76.71,76.71,0,0,1,101.27,272l-.36-.81c1.22-4.94,2.57-9.86,2.6-15,0-6.63-.08-13.25-1.71-19.81-1.36,4.11-2.3,8.36-4.67,12,0,.08-.35,0-.72,0,3.4-7.7,2.53-23.41,2.47-23.48v-.35c-.92.44-1.19,1.4-1.67,2.17a99.82,99.82,0,0,1-23.55,25.67,1.34,1.34,0,0,1-1.53.37c1.4-1.41,2.74-2.72,4-4.08s2.56-2.78,3.8-4.2c8-9.15,14.92-19,19.75-30.19,1.23-2.84,2.66-5.6,4.08-8.36a45.52,45.52,0,0,1,10.34-13.37c5.13-4.56,9.64-9.68,12.41-16,2.94-6.74,3.23-13.46-.92-19.9a13.23,13.23,0,0,0-2.28-2.56c-3.27-3-5.2-2.73-8.14,1.07,4.21,1,6.31,4.29,8.27,7.68,1.4,2.4,1,4.94.45,7.47-.08.38-.43.05-.66,0A17.47,17.47,0,0,0,115,157.91a1.86,1.86,0,0,0-2.62.18l-.16.21a32.31,32.31,0,0,1-6,5.68,8.82,8.82,0,0,0-3.62,6.24c-.74,4.1.64,7.58,3.53,9.14s8.75.72,11.26-1.64c1.16-1.67,1.46-.84,1.46-.84v.06c.13.2.46.37.21.66-2.94,3.4-6.39,5.85-11.15,5.53a9.32,9.32,0,0,1-8.65-8.47,22.17,22.17,0,0,1,.35-6.19c-2.79,1.37-5.26,2.47-7.61,3.78a28.71,28.71,0,0,0-13.3,14.94,89.58,89.58,0,0,1-22.15,33c-2.16,2-4.13,4.26-6.17,6.43A30.18,30.18,0,0,0,42,245c-.21-10.1,2.3-19.19,9.44-26.7,4.92-5.18,10-10.19,14-16.19a101.13,101.13,0,0,0,9-17.42,31,31,0,0,1,15.48-16.64c8.34-4.06,15.94-9.06,21.74-16.48a10.45,10.45,0,0,1,6.69-4.25A1.72,1.72,0,0,0,119,147c.08-.05.06-.24.14-.67-2.3.12-4.54.21-6.77.36s-4.17.37-6.26.5c-.66,0-1.46,0-1.68-.82s.35-1.13.81-1.52c2.15-1.84,4.85-2.26,7.47-2.84,2.83-.62,5.68-1.14,8.52-1.65a2.75,2.75,0,0,0,2-1.45c2.47-4.18,5-8.37,8.43-11.84a4.89,4.89,0,0,0,1.05-2.79Q140,85.09,148.05,46.07c1.09-5.29,2.16-10.59,1.88-16a16.56,16.56,0,0,0-1.74-7,7.25,7.25,0,0,0-8.87-3.76c-4.88,1.41-7.9,5-10.35,9.15-3.33,5.62-5,11.91-7,18.08-6.89,21.93-12.33,44.28-19.06,66.26-3.06,10-6,20-8.43,30.18-.79,3.23-2.33,6.16-3.61,9.2-1.14,2.68-4,3.06-6.1.94a29,29,0,0,1-6.67-11.9C70.57,116.73,61.69,92.7,53.44,68.45c-4.08-12-8.56-23.84-12.91-35.74A25.9,25.9,0,0,0,36.14,25c-5-5.93-11.69-5.09-15,1.87-1.88,3.88-2.21,8.05-2.2,12.24,0,10,1.52,19.91,3.25,29.75,4.54,26,10.53,51.64,16.55,77.31,2.92,12.47,5.24,25.1,5.27,38,0,9.2-2.61,17.86-5.68,26.37-4.34,12-5.12,24.3-3.56,36.89,1.09,8.77,1.65,17.6,2.66,26.39.86,7.5,2.08,15,4.9,22a25.09,25.09,0,0,0,2.6,5.24c5.15,7.36,6.83,15.79,7.44,24.47,1,13.76-.28,27.53-.13,41.3.11,9.38-.12,18.77-.27,28.15,0,2.48-.35,5-.54,7.45-.3,3.06-.59,6.11-.94,9.65-1-1.79-1-3.39-1.41-4.87-2.41-9.82-2-19.83-1.82-29.81.18-14.24.4-28.48.55-42.72.1-9.1-.82-18.06-4.24-26.6A14.09,14.09,0,0,0,42.09,305c-5.29-7.34-7.48-15.77-8.75-24.52-1.92-13.16-2.88-26.42-4.09-39.66-1.09-11.87,1.07-23.27,5.25-34.3,5-13.07,5.23-26.32,3.08-40-2.79-17.76-7.73-35-11.42-52.55-3.82-18.2-8-36.35-10.49-54.81-1.11-8-2.08-16.07-1.5-24.2.33-4.57,1.33-8.94,4-12.8,4.65-6.83,13-8,19.37-2.69,4.68,3.93,7.15,9.3,9,14.87,6.13,18.27,13.16,36.22,19.2,54.53,5.61,17,12,33.8,17.1,51A24,24,0,0,0,87,148c1.76-2.2,2.37-4.69,3-7.15,9.27-33.51,18.74-67,28.74-100.26,2-6.53,4.22-13,8.58-18.4,3.57-4.47,7.86-7.86,13.85-8.13,5.37-.25,9.17,2.41,11.52,7.08,2.47,4.88,2.65,10.17,1.89,15.44-2,14.09-5.49,27.91-8.09,41.89s-5.44,28.2-8.17,42.3c-.47,2.41-.45,2.41,1.94,2.07,11.09-1.6,22.84,7.88,23.92,19.24a89.81,89.81,0,0,1-.25,14.76c-.06.77-.22,1.37.69,1.84,7.51,3.86,10.72,10.68,12.43,18.45,1.92,8.76,2.19,17.67,2.15,26.59s-.41,17.69-.22,26.51c.4,18.35-5.5,34.88-13.44,50.91-5.87,11.83-11.82,23.63-18,35.31-2.64,5-3.75,10.69-4.43,16.32a277.29,277.29,0,0,0-.64,55.78A75,75,0,0,1,142.6,401a8.11,8.11,0,0,1-.52,1.53c-3.22-4.79-4-9.94-4.73-15.1-.56-8.68-.93-17.38-.8-26.09.17-11.73.32-23.47,2.79-35.47-4.5,2.38-8.75,4.42-14.28,3.87,1.44-.73,2.41-1.22,3.38-1.69,7-3.43,12-9,15.56-15.73,8.82-16.68,18-33.22,24.68-50.93,3-7.87,5.2-16.06,5.29-24.42.19-17.33,1.26-34.69-.56-52A41.14,41.14,0,0,0,170,171.14c-2.67-5.48-6.63-9.37-13.25-9.32a12.75,12.75,0,0,0-6.48,2c-4.69,2.79-8.59,6.5-12.42,10.33A193.44,193.44,0,0,0,122,191.79c-.2.25-.52.45-.44.85m11.61-20.79a100,100,0,0,1,9.46-8.71c4.52-3.56,9.27-6.56,15.36-6.21,1,0,1.12-.44,1.15-1.22a105.62,105.62,0,0,0,.32-11.11c-.52-8.48-4.58-13.66-12.67-16.33-4.95-1.63-9.17-.61-12.6,3.35a38.8,38.8,0,0,0-3.17,4.17c-2.38,3.68-4.6,7.45-7,11.1-.68,1-.48,1.34.44,1.94A19.4,19.4,0,0,1,133,161.58a27.09,27.09,0,0,1,.19,10.27Zm-18.78,29.6c3.62,1.27,6.48,3,8.29,6,.54.93,1.12,1.84,1.67,2.77.23.39.37,1,1,.4,2.93-2.76,5.65-5.7,6.35-9.85.59-3.43-1-5.14-4.51-5-4.8.33-8.67,2.79-12.78,5.68Z" transform="translate(-0.04 0)" style="fill:#474747;stroke:#474747;stroke-miterlimit:10"/><path d="M118.47,176.9a.38.38,0,0,1,.36,0c-.46-.87.36-1.16.75-1.63,1.3-1.59,2.87-3,3.68-4.92A17.45,17.45,0,0,0,115,157.91a1.86,1.86,0,0,0-2.62.18l-.16.21a32.31,32.31,0,0,1-6,5.68,8.82,8.82,0,0,0-3.62,6.24c-.74,4.1.64,7.58,3.53,9.14s8.75.72,11.26-1.64A11,11,0,0,1,118.47,176.9Z" transform="translate(-0.04 0)" style="fill:#ed40a9"/><path d="M138.58,242.45c-2.5,3.93-5.72,7.29-8.61,10.9-3.61,4.51-6.26,9.59-9,14.61a6.56,6.56,0,0,0-.51,3A78.24,78.24,0,0,1,112,301.7c-.18.34-.22.82-1,.87.62-2.48,1.3-4.89,1.83-7.32,2-9.24,3.89-18.49,3.35-28-.24-4.24-.88-8.45-1.41-12.66-.14-1.13-.44-2.73.64-3s1.76,1.17,2.21,2.24a42.64,42.64,0,0,1,2.28,7.68c.94-1.58,1.6-2.88,2.43-4.06a58.85,58.85,0,0,1,15.06-14.55c.32-.22.62-.81,1.17-.33Z" transform="translate(-0.04 0)" style="fill:#474747"/><path d="M100.25,314.73c-.63,4.3-3.48,6.59-6.55,8.52a65.33,65.33,0,0,1-7.39,3.7c-3.43,1.59-7.15,1-10.75,1.24a13.27,13.27,0,0,1-5.81-.39c5.53-1.88,11.26-1.55,16.43-4S95.28,317.71,100.25,314.73Z" transform="translate(-0.04 0)" style="fill:#474747"/><path d="M75.19,158.34c-6.71,4.51-13.26,9.08-19.66,13.89a1.68,1.68,0,0,1-.34.2c-.6.29-1.33.85-1.84.36s0-1.29.35-1.83a24.06,24.06,0,0,1,10.2-9.2A38.12,38.12,0,0,1,75.19,158.34Z" transform="translate(-0.04 0)" style="fill:#474747"/><path d="M114.78,104.64a32.79,32.79,0,0,1,16.06,5.29c.9.61,2.4,1.39,1.82,2.56s-2.06.32-3-.06q-7.75-2.87-15.45-5.88c-.67-.27-2-.32-1.76-1.26S113.89,104.76,114.78,104.64Z" transform="translate(-0.04 0)" style="fill:#474747"/><path d="M29.18,77.23a13.64,13.64,0,0,1,6.64-6.57,23.53,23.53,0,0,1,12-1.91c.6,0,1.42,0,1.5.67s-.8.69-1.35.83a101.16,101.16,0,0,0-14,4.54C32.49,75.42,31.4,76.85,29.18,77.23Z" transform="translate(-0.04 0)" style="fill:#474747"/><path d="M141.85,70.65c-5.22-.72-10.09-2.48-15.09-3.72a1.43,1.43,0,0,1-.38-.13c-1-.31-2.86-.29-2.74-1,.23-1.39,2-1,3.08-1,4.32-.18,8.36,1.11,12.27,2.8A5.45,5.45,0,0,1,141.85,70.65Z" transform="translate(-0.04 0)" style="fill:#474747"/><path d="M59.05,108c-2.29,1.2-4.74,1.51-7.14,2.06a59.54,59.54,0,0,0-10.74,3.39c-.62.27-1.63,1.13-2.09.22-.38-.74.74-1.29,1.35-1.77A14.34,14.34,0,0,1,46.6,109c3.6-.69,7.14-2,10.92-1.43C58,107.68,58.54,107.86,59.05,108Z" transform="translate(-0.04 0)" style="fill:#474747"/><path d="M117.16,101.65a12.08,12.08,0,0,1,9.55,2.52A25.21,25.21,0,0,1,117.16,101.65Z" transform="translate(-0.04 0)" style="fill:#474747"/><path d="M100.91,271.21l.36.81c-.4,1.17-.55,2.49-2,3.11Z" transform="translate(-0.04 0)" style="fill:#474747"/><path d="M138.63,242.49v-.27l.24.05-.25.18Z" transform="translate(-0.04 0)" style="fill:#474747"/><path d="M133.19,171.85a27.29,27.29,0,0,0-.21-10.27,19.41,19.41,0,0,0-8.52-12.75c-.92-.6-1.12-.91-.44-1.94,2.42-3.65,4.64-7.42,7-11.1a38.8,38.8,0,0,1,3.17-4.17c3.43-4,7.65-5,12.6-3.35,8.09,2.67,12.15,7.85,12.67,16.33a105.62,105.62,0,0,1-.32,11.11c0,.78-.19,1.27-1.15,1.22-6.09-.35-10.84,2.65-15.36,6.21A101,101,0,0,0,133.19,171.85Z" transform="translate(-0.04 0)" style="fill:#f4e2eb"/><path d="M114.41,201.45c4.11-2.89,8-5.35,12.78-5.6,3.48-.18,5.1,1.53,4.51,5-.7,4.15-3.42,7.09-6.35,9.85-.61.58-.75,0-1-.4-.55-.93-1.13-1.84-1.67-2.77C120.89,204.42,118,202.72,114.41,201.45Z" transform="translate(-0.04 0)" style="fill:#ed40a9"/></g></g></g></svg>