<svg id="Layer_1" data-name="Layer 1" xmlns="http://www.w3.org/2000/svg" viewBox="0 0 416 441"><title>stethoscope</title><g id="Layer_2" data-name="Layer 2"><g style="opacity:0.12"><path d="M382.28,254c-1.39-8.37-8.65-9.93-14.52-8.75a7.75,7.75,0,0,1-4-.09,81.11,81.11,0,0,0-23.11-3.41c-3.62,0-7,.77-9.59,3.51-1.16,1.25-1.94,1.29-3.23.29q-9.33-7.28-18.76-14.41c-5.7-4.31-11.84-7.82-18.85-9.5-14.41-3.45-28.3-1.22-41.81,4.21A46.26,46.26,0,0,0,232,236.94c-11.36,11.93-11.63,27.05-.75,39.41C238,284,246.62,288.55,256,291.9c8.59,3.07,17.38,5.7,25.78,9.22,17.85,7.5,32.48,18.66,40.18,37.27,4.13,10,7,20.16,5.45,31.11A138.93,138.93,0,0,1,323,388.92c-3.58,12.48-11.27,21.24-23.18,26.36-15.49,6.65-30.93,8.33-46.39-.17-6.44-3.54-11.36-8.43-14.16-15.27-5-12.32-7.89-25.07-7.08-38.47.59-9.77,1.21-19.55.18-29.33-.83-7.86-1.89-15.69-5.23-23a28.73,28.73,0,0,0-28.87-16.93c-9.31.7-17.2,4.84-24.65,10-9.2,6.42-17.28,14.15-25.18,22.08-5.67,5.69-11.33,11.42-18,15.94-5.7,3.84-11.86,6.18-18.94,5.57-9.45-.7-14.5-6.46-13.9-15.84a19.52,19.52,0,0,1,3.49-9.79c1.3-1.94,2.71-3.81,4.1-5.69a125.61,125.61,0,0,0,13.51-22c2.1-4.54,3.73-9.22,3.26-14.36a2.49,2.49,0,0,1,.72-2c7-8.08,12.82-17,19.09-25.67l47.34-65.29c11.84-16.4,20.19-34.33,23.72-54.37,2.17-12.54,4.17-25.09,1.95-37.86-1.69-9.71-4-19.23-9.66-27.49-5.46-7.91-12.33-14-22.15-16-11.36-2.27-21.39.7-30.49,7.53-3.4,2.55-3.41,2.5-7,.35s-7.58-2.82-11.36-.32c-3.53,2.32-4.69,5.9-4.25,9.94.92,8.63,9.06,18.11,17.43,20.49,8.87,2.52,15.36-3.44,13.76-12.55-.75-4.22-3-7.56-5.83-10.6-.87-.94-.84-1.47.2-2.22,3.14-2.28,6.35-4.5,10.07-5.71,11.1-3.61,21.17-2.12,29.76,6.31a38.86,38.86,0,0,1,9,13.38,81,81,0,0,1,5.68,27.32c.32,8.53-1.17,16.89-2.62,25.24a118.06,118.06,0,0,1-23.08,52.88c-18.9,24.44-41.2,45.61-63.87,66.43-1.12,1-1.82,1-2.89,0-20.87-19.51-41.69-39-59.77-61.3C44.07,169.73,34.8,151.3,30.82,130.17,28.5,117.86,26.59,105.52,28.89,93c1.6-8.67,3.61-17.22,8.77-24.57C42.21,61.89,47.81,56.71,56,55.07c9.69-2,18.18.72,25.93,6.52,1.36,1,1.61,1.63.33,3-3.45,3.65-5.79,7.87-5.71,13.11.11,6.9,5.36,11.26,12.13,10.06C98,86.09,107.5,75.48,108.12,66.12A9.83,9.83,0,0,0,96.07,55.61a11.47,11.47,0,0,0-5.39,2.8c-1.35,1.25-2.25,1-3.52-.08a48.53,48.53,0,0,0-9.54-6.18c-11-5.44-27.19-5.48-38.49,5.54a45,45,0,0,0-9.87,13.57,78.52,78.52,0,0,0-7.16,36.45c1.38,27.42,8.91,52.9,25.21,75.4l45.77,63.18c6.92,9.51,13.27,19.45,21,28.38a8,8,0,0,1,2,7,29.57,29.57,0,0,1-1.12,4.45,62.69,62.69,0,0,1-5.3,11.05c-3.71,6.49-8.2,12.43-12.59,18.45a27,27,0,0,0-5.29,13.73c-1,11.32,5.39,19.88,16.56,21.86a31.19,31.19,0,0,0,19-2.59c6.67-3.09,12.18-7.74,17.48-12.69,8.26-7.74,15.9-16.14,24.71-23.3,6.42-5.23,13-10.18,21-12.91,8.82-3,17.26-2.64,24.88,3.35,4.65,3.65,7,8.7,8.5,14.24,3.1,11.78,3.59,23.79,2.87,37.13-1.92,15,.44,30.65,6.32,45.85a36.73,36.73,0,0,0,17.54,20,55.13,55.13,0,0,0,14.09,5.35c14.66,3.21,28.25-.35,41.28-6.89,10.64-5.35,17.72-13.84,21.56-25.1A132.75,132.75,0,0,0,333,371.51a44.8,44.8,0,0,0,.37-13.33c-3.07-21.87-12.69-39.82-31.19-52.64-9.19-6.36-19.28-10.6-29.77-14.14-7.54-2.54-15.17-4.85-22.39-8.28a42.15,42.15,0,0,1-17-13.84,20.66,20.66,0,0,1-.51-23.67,33.23,33.23,0,0,1,8.39-8.86c7.66-5.67,16.44-8.53,25.69-10,11.22-1.78,22.21-1.22,32.28,4.78,9.5,5.66,17.69,13.15,26.64,19.59a1.54,1.54,0,0,1,.65,2c-1.57,4.11-1,8.18.35,12.23a107.4,107.4,0,0,0,6.92,16.32c1.48,2.77,2.29,5.33,1.69,8.64-1,5.29,3.42,9.69,8.8,9.53a22.92,22.92,0,0,0,9-2.38,52.28,52.28,0,0,0,26-25.65C381.63,266.25,383.33,260.4,382.28,254Zm-254.36-4.92L148.35,230l.37.3-14.85,20.58c-1.24,1.72-2.43,3.47-3.62,5.22-.63.93-1.17,1.34-1.77,0a9.12,9.12,0,0,0-1-1.67c-2.19-2.82-2.21-2.82.44-5.31Zm-16.37,4a8.7,8.7,0,0,0-2,2.55c-.79,1.7-1.31,1.43-2.25.1-4.66-6.61-9.38-13.17-14.1-19.75-1.46-2-3-4.06-4.44-6.08l.29-.25,14.5,13.48c2.67,2.49,5.27,5,8,7.48.94.92,1,1.56,0,2.48ZM116,268.51c-2.59-3.63-2.7-5.56-.49-9,1.8-2.84,4.92-2.88,6.7,0a18.94,18.94,0,0,1,1.86,5c-.26,1.69-1.42,2.78-2.28,4C118.93,272.61,118.9,272.59,116,268.51Z" transform="translate(-0.02 0.01)" style="fill:#6a374f;stroke:#6a374f;stroke-linecap:round;stroke-linejoin:round;stroke-width:28px"/><path d="M347.12,358.65a7.36,7.36,0,0,0-2.67-4.61c.26,11.71.9,23.37-1.67,34.87a98.31,98.31,0,0,1-13.95,32,47.5,47.5,0,0,0,11.89-14.51C349.09,391.42,350.21,375.27,347.12,358.65Z" transform="translate(-0.02 0.01)" style="fill:#6a374f;stroke:#6a374f;stroke-linecap:round;stroke-linejoin:round;stroke-width:24px"/><path d="M91.39,350.12a41.34,41.34,0,0,1-8.69-19.54c-1.17-6.48-.67-12.93.11-19.39.16-1.32.49-3.37-1-3.64S80,309.29,79.6,310.6c-3.78,12.7-2.13,24.49,5.82,35.26,1.82,2.48,4.36,4.08,6.72,6.23C92.47,350.91,91.77,350.57,91.39,350.12Z" transform="translate(-0.02 0.01)" style="fill:#6a374f;stroke:#6a374f;stroke-linecap:round;stroke-linejoin:round;stroke-width:24px"/><path d="M353.48,374.41c-.49.11-.4.51-.31.87,1,4.17-.5,8.09-1.22,12.09-1.64,9.12-4.32,17.81-9.64,25.6a53,53,0,0,0-4.61,8.8,2.84,2.84,0,0,0,.7-.44c4.71-4.8,9.17-9.71,12-16a59.24,59.24,0,0,0,5.21-25.94,8,8,0,0,0-1.06-4.41A1,1,0,0,0,353.48,374.41Z" transform="translate(-0.02 0.01)" style="fill:#6a374f;stroke:#6a374f;stroke-linecap:round;stroke-linejoin:round;stroke-width:24px"/><path d="M81.34,354.85c-5.2-6.89-7.34-15-9.43-23.11-.8-3.1-.31-6.25-.44-9.38,0-.47.18-1.17-.42-1.34-.77-.22-.9.57-1.13,1.05a16.94,16.94,0,0,0-1.54,9.17,63,63,0,0,0,4.23,16.7c2.54,6.51,7.68,10.19,14.73,12.47C85.31,358,82.91,356.92,81.34,354.85Z" transform="translate(-0.02 0.01)" style="fill:#6a374f;stroke:#6a374f;stroke-linecap:round;stroke-linejoin:round;stroke-width:24px"/><path d="M377,298.29c-.44-.69-1-1.37-2-1-.79.32-.85,1.11-.84,2.51.78,2.83,1.68,6.28,2.69,9.69a11.54,11.54,0,0,0,1.95,4.13c1,1.21,2.22,1.74,3.65.91a2.42,2.42,0,0,0,1.1-3.24,1.62,1.62,0,0,0-.1-.18C381.11,307,379.6,302.34,377,298.29Z" transform="translate(-0.02 0.01)" style="fill:#6a374f;stroke:#6a374f;stroke-linecap:round;stroke-linejoin:round;stroke-width:24px"/><path d="M394.91,293.39q-4.79-2.88-9.58-5.72c-.89-.53-1.87-1.15-2.76-.14s-.29,2,.39,2.75a32.71,32.71,0,0,0,10.38,8.23,7,7,0,0,0,1.34.44c2.19.05,3.14-1.26,2.54-3A4.82,4.82,0,0,0,394.91,293.39Z" transform="translate(-0.02 0.01)" style="fill:#6a374f;stroke:#6a374f;stroke-linecap:round;stroke-linejoin:round;stroke-width:24px"/><path d="M401.89,280.35a12.62,12.62,0,0,0-1.76-.89A77.11,77.11,0,0,0,388.61,276c-1.19-.28-2.4-.64-3,.82s.41,2.22,1.46,2.81a32.47,32.47,0,0,0,12.87,4H401c.87-.06,1.9,0,2.21-1S402.73,280.85,401.89,280.35Z" transform="translate(-0.02 0.01)" style="fill:#6a374f;stroke:#6a374f;stroke-linecap:round;stroke-linejoin:round;stroke-width:24px"/><path d="M99.58,26.75c1.66,4.2,3.24,8.43,5,12.58a60.44,60.44,0,0,0,4.69,9.47,2.35,2.35,0,0,0,0-2.1A144.4,144.4,0,0,0,103,30.14c-.75-1.73-1.5-3.48-2.29-5.19-.2-.45-.56-1-1.16-.76s-.52.81-.4,1.31A9.22,9.22,0,0,0,99.58,26.75Z" transform="translate(-0.02 0.01)" style="fill:#6a374f;stroke:#6a374f;stroke-linecap:round;stroke-linejoin:round;stroke-width:24px"/><path d="M121.34,40.11C122,36,122.56,31.9,123,27.78c.23-2.16.13-4.36.16-6.55,0-.5,0-1.16-.63-1.23s-.73.6-.86,1.08-.21.85-.3,1.28c-1.3,6.08-1.29,12.28-1.59,18.45a3.68,3.68,0,0,0,.49,2.61A6.31,6.31,0,0,0,121.34,40.11Z" transform="translate(-0.02 0.01)" style="fill:#6a374f;stroke:#6a374f;stroke-linecap:round;stroke-linejoin:round;stroke-width:24px"/><path d="M132.79,47.61c4-4.53,8.33-8.9,9.49-15.24C137,36.16,135.14,42,132.79,47.61Z" transform="translate(-0.02 0.01)" style="fill:#6a374f;stroke:#6a374f;stroke-linecap:round;stroke-linejoin:round;stroke-width:24px"/><path d="M227.74,354.43c.72-13.34.23-25.35-2.87-37.13-1.46-5.54-3.85-10.59-8.5-14.24-7.62-6-16.06-6.4-24.88-3.35-7.94,2.73-14.55,7.68-21,12.91-8.81,7.16-16.45,15.56-24.71,23.3-5.3,4.95-10.81,9.6-17.48,12.69a31.19,31.19,0,0,1-19,2.59c-11.17-2-17.6-10.54-16.56-21.86A27,27,0,0,1,98,315.61a204.12,204.12,0,0,0,12.59-18.45,62.69,62.69,0,0,0,5.3-11.05,29.57,29.57,0,0,0,1.12-4.45,8,8,0,0,0-2-7c-7.68-8.93-14-18.87-20.94-28.38Q71.14,214.72,48.29,183.1c-16.3-22.5-23.83-48-25.21-75.4a78.52,78.52,0,0,1,7.16-36.45,45,45,0,0,1,9.87-13.57c11.3-11,27.51-11,38.49-5.54a48.61,48.61,0,0,1,9.55,6.18c1.26,1.06,2.16,1.33,3.51.08a11.47,11.47,0,0,1,5.39-2.8,9.83,9.83,0,0,1,12,10.51c-.62,9.36-10.16,20-19.47,21.63-6.77,1.2-12-3.16-12.13-10.06-.08-5.24,2.26-9.46,5.71-13.11,1.28-1.36,1-2-.33-3C75.13,55.77,66.64,53.1,57,55.05c-8.16,1.64-13.76,6.82-18.31,13.32C33.5,75.74,31.49,84.29,29.9,93c-2.31,12.56-.4,24.9,1.92,37.21,4,21.13,13.25,39.56,26.84,56.31,18.08,22.3,38.9,41.79,59.77,61.3,1.08,1,1.77,1.06,2.89,0,22.67-20.82,45-42,63.88-66.43a117.84,117.84,0,0,0,23.07-52.88c1.45-8.35,2.94-16.71,2.63-25.24A81.5,81.5,0,0,0,205.21,76a38.72,38.72,0,0,0-9-13.38c-8.59-8.43-18.66-9.92-29.76-6.31-3.72,1.21-6.93,3.43-10.07,5.71-1,.75-1.07,1.28-.19,2.22,2.8,3,5.07,6.38,5.82,10.6,1.6,9.11-4.89,15.07-13.76,12.55-8.37-2.38-16.51-11.86-17.43-20.49-.43-4,.72-7.62,4.25-9.94,3.79-2.5,7.65-1.9,11.36.32s3.62,2.2,7-.35c9.1-6.83,19.13-9.8,30.49-7.53,9.82,2,16.69,8.09,22.15,16,5.69,8.26,8,17.78,9.66,27.49,2.21,12.77.26,25.32-1.95,37.88-3.53,20-11.88,38-23.72,54.37q-23.61,32.68-47.34,65.29c-6.22,8.62-12,17.62-19,25.62a2.49,2.49,0,0,0-.72,2c.47,5.14-1.16,9.82-3.26,14.36a125.61,125.61,0,0,1-13.51,22c-1.39,1.88-2.8,3.75-4.1,5.69a19.52,19.52,0,0,0-3.49,9.79c-.59,9.38,4.45,15.11,13.82,15.91,7.08.61,13.24-1.73,18.94-5.57,6.71-4.52,12.37-10.25,18-15.94,7.9-7.93,16-15.66,25.18-22.08,7.45-5.2,15.34-9.34,24.65-10a28.73,28.73,0,0,1,28.87,16.93c3.34,7.28,4.4,15.11,5.23,23,1,9.78.42,19.56-.18,29.33-.8,13.4,2,26.15,7.09,38.47,2.79,6.84,7.71,11.73,14.15,15.28,15.46,8.49,30.9,6.81,46.39.16,11.91-5.12,19.6-13.88,23.18-26.36a138.89,138.89,0,0,0,4.43-19.42c1.51-10.95-1.32-21.11-5.45-31.11-7.7-18.61-22.32-29.77-40.18-37.27-8.4-3.52-17.18-6.15-25.78-9.22-9.4-3.35-18-7.91-24.78-15.55-10.88-12.36-10.61-27.48.75-39.41a46.19,46.19,0,0,1,16.43-11.05c13.51-5.43,27.4-7.66,41.81-4.21,7,1.68,13.15,5.19,18.85,9.5q9.44,7.13,18.76,14.41c1.29,1,2.08,1,3.24-.29,2.55-2.74,6-3.55,9.58-3.51a81.11,81.11,0,0,1,23.11,3.41,7.75,7.75,0,0,0,4,.09c5.87-1.18,13.13.38,14.52,8.75,1.05,6.36-.65,12.21-3.29,17.82a52.24,52.24,0,0,1-26,25.65,22.59,22.59,0,0,1-9,2.38c-5.38.16-9.76-4.24-8.8-9.53.6-3.31-.21-5.87-1.69-8.64a107.4,107.4,0,0,1-6.92-16.32c-1.36-4-1.92-8.12-.35-12.23a1.54,1.54,0,0,0-.65-2c-8.95-6.44-17.13-13.93-26.64-19.59-10.07-6-21.06-6.56-32.28-4.78-9.25,1.47-18,4.33-25.68,10a33.11,33.11,0,0,0-8.4,8.86,20.66,20.66,0,0,0,.51,23.67,42.15,42.15,0,0,0,17,13.84c7.22,3.43,14.85,5.74,22.39,8.28,10.49,3.54,20.58,7.78,29.77,14.14,18.5,12.82,28.12,30.77,31.19,52.64a44.8,44.8,0,0,1-.37,13.33,132.24,132.24,0,0,1-5.49,22.08c-3.84,11.26-10.92,19.75-21.56,25.1-13,6.54-26.61,10.1-41.28,6.89a55.13,55.13,0,0,1-14.09-5.35,36.73,36.73,0,0,1-17.54-20C228.19,385.08,225.83,369.43,227.74,354.43ZM90,229.66l-.29.25c1.48,2,3,4,4.44,6.08,4.72,6.58,9.44,13.14,14.1,19.75.94,1.33,1.46,1.6,2.25-.1a8.7,8.7,0,0,1,2-2.55c1-.92,1-1.56,0-2.47-2.7-2.44-5.3-5-8-7.48Q97.3,236.39,90,229.66Zm59.69.61-.37-.3-20.43,19.15c-2.65,2.49-2.63,2.49-.48,5.25a9.12,9.12,0,0,1,1,1.67c.6,1.37,1.14,1,1.77,0,1.19-1.75,2.38-3.5,3.62-5.22q7.48-10.27,14.92-20.55ZM125,264.46a18.6,18.6,0,0,0-1.86-5c-1.78-2.83-4.9-2.79-6.7,0-2.21,3.47-2.1,5.4.49,9,2.91,4.08,2.93,4.1,5.79,0,.89-1.22,2-2.31,2.31-4Z" transform="translate(-0.02 0.01)" style="fill:#6a374f;stroke:#6a374f;stroke-miterlimit:10;stroke-width:0.25px"/><path d="M328.83,420.94a98.31,98.31,0,0,0,13.95-32c2.57-11.5,1.93-23.16,1.67-34.87a7.36,7.36,0,0,1,2.67,4.61c3.09,16.62,2,32.77-6.4,47.78A47.38,47.38,0,0,1,328.83,420.94Z" transform="translate(-0.02 0.01)" style="fill:#6a374f;stroke:#6a374f;stroke-miterlimit:10;stroke-width:0.25px"/><path d="M92.19,352.09c-2.36-2.15-4.9-3.75-6.72-6.23-8-10.77-9.6-22.56-5.82-35.26.38-1.31.8-3.31,2.21-3.05s1.11,2.32,1,3.64c-.78,6.46-1.28,12.91-.11,19.39a41.34,41.34,0,0,0,8.69,19.54C91.77,350.57,92.47,350.91,92.19,352.09Z" transform="translate(-0.02 0.01)" style="fill:#6a374f;stroke:#6a374f;stroke-miterlimit:10;stroke-width:0.25px"/><path d="M337.7,421.77a53,53,0,0,1,4.61-8.8c5.32-7.79,8-16.48,9.64-25.6.72-4,2.18-7.92,1.22-12.09-.09-.36-.18-.76.31-.87a1,1,0,0,1,1.09.58,8,8,0,0,1,1.06,4.41,59.24,59.24,0,0,1-5.21,25.94c-2.85,6.28-7.31,11.19-12,16A2.92,2.92,0,0,1,337.7,421.77Z" transform="translate(-0.02 0.01)" style="fill:#6a374f;stroke:#6a374f;stroke-miterlimit:10;stroke-width:0.25px"/><path d="M87.34,360.41c-7-2.28-12.19-6-14.73-12.47a63,63,0,0,1-4.23-16.7,16.94,16.94,0,0,1,1.54-9.17c.23-.48.36-1.27,1.13-1.05.61.17.4.87.42,1.34.13,3.13-.36,6.28.44,9.38,2.09,8.13,4.23,16.22,9.43,23.1C82.92,356.92,85.31,358,87.34,360.41Z" transform="translate(-0.02 0.01)" style="fill:#6a374f;stroke:#6a374f;stroke-miterlimit:10;stroke-width:0.25px"/><path d="M374.18,299.82c0-1.4.05-2.19.84-2.51,1-.39,1.51.29,2,1,2.63,4,4.14,8.67,6.54,12.84a2.42,2.42,0,0,1-.82,3.32l-.18.1c-1.43.83-2.67.3-3.65-.91a11.54,11.54,0,0,1-2-4.13C375.86,306.1,375,302.65,374.18,299.82Z" transform="translate(-0.02 0.01)" style="fill:#6a374f;stroke:#6a374f;stroke-miterlimit:10;stroke-width:0.25px"/><path d="M394.68,299a7,7,0,0,1-1.34-.44A32.71,32.71,0,0,1,383,290.28c-.68-.8-1.24-1.78-.39-2.75s1.87-.39,2.76.14q4.8,2.85,9.58,5.72a4.84,4.84,0,0,1,2.31,2.53C397.82,297.69,396.87,299,394.68,299Z" transform="translate(-0.02 0.01)" style="fill:#6a374f;stroke:#6a374f;stroke-miterlimit:10;stroke-width:0.25px"/><path d="M400,283.6a32.47,32.47,0,0,1-12.87-4c-1.05-.59-2-1.41-1.46-2.81s1.8-1.1,3-.82a77.14,77.14,0,0,1,11.52,3.47,12.62,12.62,0,0,1,1.76.89c.84.5,1.7,1.11,1.37,2.23s-1.34,1-2.21,1A7.31,7.31,0,0,1,400,283.6Z" transform="translate(-0.02 0.01)" style="fill:#6a374f;stroke:#6a374f;stroke-miterlimit:10;stroke-width:0.25px"/><path d="M109.27,48.8a60.44,60.44,0,0,1-4.69-9.47c-1.76-4.15-3.34-8.38-5-12.58a9.05,9.05,0,0,1-.39-1.25c-.12-.5-.22-1.09.4-1.31s1,.31,1.16.76c.79,1.71,1.54,3.46,2.29,5.19a145.88,145.88,0,0,1,6.2,16.56A2.32,2.32,0,0,1,109.27,48.8Z" transform="translate(-0.02 0.01)" style="fill:#6a374f;stroke:#6a374f;stroke-miterlimit:10;stroke-width:0.25px"/><path d="M120.27,43.42a3.68,3.68,0,0,1-.49-2.61c.3-6.17.29-12.37,1.59-18.45.09-.43.18-.86.3-1.28s.22-1.14.86-1.08.63.73.63,1.23a62.08,62.08,0,0,1-.16,6.55q-.66,6.18-1.66,12.33A6.31,6.31,0,0,1,120.27,43.42Z" transform="translate(-0.02 0.01)" style="fill:#6a374f;stroke:#6a374f;stroke-miterlimit:10;stroke-width:0.25px"/><path d="M142.28,32.37c-1.16,6.34-5.45,10.71-9.49,15.24C135.14,42,137,36.16,142.28,32.37Z" transform="translate(-0.02 0.01)" style="fill:#6a374f;stroke:#6a374f;stroke-miterlimit:10;stroke-width:0.25px"/><path d="M90.55,60.39c2.32,1,4,2.08,4.31,4.43.59,4.82-5.63,9.82-10.09,7.85-2-.9-2,0-2.11,1.39a14,14,0,0,0-.11,3.71c.56,3.79,3.17,5.74,7,5.22,8.17-1.11,15.52-11,14.18-19.12-.43-2.59-1.86-4.22-4.29-4.63A15.18,15.18,0,0,0,90.55,60.39Z" transform="translate(-0.02 0.01)" style="fill:#6a374f"/><path d="M147,60.39A12.75,12.75,0,0,0,140.85,59c-4.85-.07-6.94,2-6.91,6.93,0,6.89,5.5,14.35,12.09,16.47,2.68.87,5.42,1.25,7.56-1s1.95-5.35,1.27-8.28c-.19-.82-.53-1-1.39-.63-2.34,1.12-4.61.5-6.67-.71C141.66,68.77,141.66,63.4,147,60.39Z" transform="translate(-0.02 0.01)" style="fill:#6a374f"/><path d="M343.85,248l-1.54-.08c-1.49-.09-2.54-.27-1.49,2,2.27,4.84-1.31,11.15-6.71,12-1.81.28-2,.83-1.41,2.36a129.37,129.37,0,0,0,10,21.64,3.6,3.6,0,0,0,3.81,2,18.88,18.88,0,0,0,9.56-3.52c7.82-5.91,13.41-13.52,15.27-23.29,1.05-5.5.89-6.47-5-8.6A74.9,74.9,0,0,0,343.85,248Z" transform="translate(-0.02 0.01)" style="fill:#6a374f"/></g><g id="Layer_1-2" data-name="Layer 1-2"><path d="M374.28,246c-1.39-8.37-8.65-9.93-14.52-8.75a7.75,7.75,0,0,1-4-.09,81.11,81.11,0,0,0-23.11-3.41c-3.62,0-7,.77-9.59,3.51-1.16,1.25-1.94,1.29-3.23.29q-9.33-7.28-18.76-14.41c-5.7-4.31-11.84-7.82-18.85-9.5-14.41-3.45-28.3-1.22-41.81,4.21A46.26,46.26,0,0,0,224,228.94c-11.36,11.93-11.63,27.05-.75,39.41C230,276,238.62,280.55,248,283.9c8.59,3.07,17.38,5.7,25.78,9.22,17.85,7.5,32.48,18.66,40.18,37.27,4.13,10,7,20.16,5.45,31.11A138.93,138.93,0,0,1,315,380.92c-3.58,12.48-11.27,21.24-23.18,26.36-15.49,6.65-30.93,8.33-46.39-.17-6.44-3.54-11.36-8.43-14.16-15.27-5-12.32-7.89-25.07-7.08-38.47.59-9.77,1.21-19.55.18-29.33-.83-7.86-1.89-15.69-5.23-23a28.73,28.73,0,0,0-28.87-16.93c-9.31.7-17.2,4.84-24.65,10-9.2,6.42-17.28,14.15-25.18,22.08-5.67,5.69-11.33,11.42-18,15.94-5.7,3.84-11.86,6.18-18.94,5.57-9.45-.7-14.5-6.46-13.9-15.84a19.52,19.52,0,0,1,3.49-9.79c1.3-1.94,2.71-3.81,4.1-5.69a125.61,125.61,0,0,0,13.51-22c2.1-4.54,3.73-9.22,3.26-14.36a2.49,2.49,0,0,1,.72-2c7-8.08,12.82-17,19.09-25.67l47.34-65.29c11.84-16.4,20.19-34.33,23.72-54.37C207,110.15,209,97.6,206.78,84.83c-1.69-9.71-4-19.23-9.66-27.49-5.46-7.91-12.33-14-22.15-16-11.36-2.27-21.39.7-30.49,7.53-3.4,2.55-3.41,2.5-7,.35s-7.58-2.82-11.36-.32c-3.53,2.32-4.69,5.9-4.25,9.94.92,8.63,9.06,18.11,17.43,20.49,8.87,2.52,15.36-3.44,13.76-12.55-.75-4.22-3-7.56-5.83-10.6-.87-.94-.84-1.47.2-2.22,3.14-2.28,6.35-4.5,10.07-5.71,11.1-3.61,21.17-2.12,29.76,6.31a38.86,38.86,0,0,1,9,13.38,81,81,0,0,1,5.68,27.32c.32,8.53-1.17,16.89-2.62,25.24a118.06,118.06,0,0,1-23.08,52.88c-18.9,24.44-41.2,45.61-63.87,66.43-1.12,1-1.82,1-2.89,0-20.87-19.51-41.69-39-59.77-61.3C36.07,161.73,26.8,143.3,22.82,122.17,20.5,109.86,18.59,97.52,20.89,85c1.6-8.67,3.61-17.22,8.77-24.57C34.21,53.89,39.81,48.71,48,47.07c9.69-2,18.18.72,25.93,6.52,1.36,1,1.61,1.63.33,3-3.45,3.65-5.79,7.87-5.71,13.11.11,6.9,5.36,11.26,12.13,10.06C90,78.09,99.5,67.48,100.12,58.12A9.83,9.83,0,0,0,88.07,47.61a11.47,11.47,0,0,0-5.39,2.8c-1.35,1.25-2.25,1-3.52-.08a48.53,48.53,0,0,0-9.54-6.18c-11-5.44-27.19-5.48-38.49,5.54a45,45,0,0,0-9.87,13.57A78.52,78.52,0,0,0,14.1,99.71c1.38,27.42,8.91,52.9,25.21,75.4l45.77,63.18c6.92,9.51,13.27,19.45,21,28.38a8,8,0,0,1,2,7,29.57,29.57,0,0,1-1.12,4.45,62.69,62.69,0,0,1-5.3,11.05c-3.71,6.49-8.2,12.43-12.59,18.45a27,27,0,0,0-5.29,13.73c-1,11.32,5.39,19.88,16.56,21.86a31.19,31.19,0,0,0,19-2.59c6.67-3.09,12.18-7.74,17.48-12.69,8.26-7.74,15.9-16.14,24.71-23.3,6.42-5.23,13-10.18,21-12.91,8.82-3,17.26-2.64,24.88,3.35,4.65,3.65,7,8.7,8.5,14.24,3.1,11.78,3.59,23.79,2.87,37.13-1.92,15,.44,30.65,6.32,45.85a36.73,36.73,0,0,0,17.54,20,55.13,55.13,0,0,0,14.09,5.35c14.66,3.21,28.25-.35,41.28-6.89,10.64-5.35,17.72-13.84,21.56-25.1A132.75,132.75,0,0,0,325,363.51a44.8,44.8,0,0,0,.37-13.33c-3.07-21.87-12.69-39.82-31.19-52.64-9.19-6.36-19.28-10.6-29.77-14.14-7.54-2.54-15.17-4.85-22.39-8.28a42.15,42.15,0,0,1-17-13.84,20.66,20.66,0,0,1-.51-23.67,33.23,33.23,0,0,1,8.39-8.86c7.66-5.67,16.44-8.53,25.69-10,11.22-1.78,22.21-1.22,32.28,4.78,9.5,5.66,17.69,13.15,26.64,19.59a1.54,1.54,0,0,1,.65,2c-1.57,4.11-1,8.18.35,12.23a107.4,107.4,0,0,0,6.92,16.32c1.48,2.77,2.29,5.33,1.69,8.64-1,5.29,3.42,9.69,8.8,9.53a22.92,22.92,0,0,0,9-2.38,52.28,52.28,0,0,0,26-25.65C373.63,258.25,375.33,252.4,374.28,246Zm-254.36-4.92L140.35,222l.37.3-14.85,20.58c-1.24,1.72-2.43,3.47-3.62,5.22-.63.93-1.17,1.34-1.77,0a9.12,9.12,0,0,0-1-1.67c-2.19-2.82-2.21-2.82.44-5.31Zm-16.37,4a8.7,8.7,0,0,0-2,2.55c-.79,1.7-1.31,1.43-2.25.1-4.66-6.61-9.38-13.17-14.1-19.75-1.46-2-3-4.06-4.44-6.08l.29-.25,14.5,13.48c2.67,2.49,5.27,5,8,7.48.94.92,1,1.56,0,2.48ZM108,260.51c-2.59-3.63-2.7-5.56-.49-9,1.8-2.84,4.92-2.88,6.7,0a18.94,18.94,0,0,1,1.86,5c-.26,1.69-1.42,2.78-2.28,4C110.93,264.61,110.9,264.59,108,260.51Z" transform="translate(-0.02 0.01)" style="fill:#fff;stroke:#fff;stroke-linecap:round;stroke-linejoin:round;stroke-width:28px"/><path d="M339.12,350.65a7.36,7.36,0,0,0-2.67-4.61c.26,11.71.9,23.37-1.67,34.87a98.31,98.31,0,0,1-13.95,32,47.5,47.5,0,0,0,11.89-14.51C341.09,383.42,342.21,367.27,339.12,350.65Z" transform="translate(-0.02 0.01)" style="fill:#fff;stroke:#fff;stroke-linecap:round;stroke-linejoin:round;stroke-width:24px"/><path d="M83.39,342.12a41.34,41.34,0,0,1-8.69-19.54c-1.17-6.48-.67-12.93.11-19.39.16-1.32.49-3.37-1-3.64S72,301.29,71.6,302.6c-3.78,12.7-2.13,24.49,5.82,35.26,1.82,2.48,4.36,4.08,6.72,6.23C84.47,342.91,83.77,342.57,83.39,342.12Z" transform="translate(-0.02 0.01)" style="fill:#fff;stroke:#fff;stroke-linecap:round;stroke-linejoin:round;stroke-width:24px"/><path d="M345.48,366.41c-.49.11-.4.51-.31.87,1,4.17-.5,8.09-1.22,12.09-1.64,9.12-4.32,17.81-9.64,25.6a53,53,0,0,0-4.61,8.8,2.84,2.84,0,0,0,.7-.44c4.71-4.8,9.17-9.71,12-16a59.24,59.24,0,0,0,5.21-25.94,8,8,0,0,0-1.06-4.41A1,1,0,0,0,345.48,366.41Z" transform="translate(-0.02 0.01)" style="fill:#fff;stroke:#fff;stroke-linecap:round;stroke-linejoin:round;stroke-width:24px"/><path d="M73.34,346.85c-5.2-6.89-7.34-15-9.43-23.11-.8-3.1-.31-6.25-.44-9.38,0-.47.18-1.17-.42-1.34-.77-.22-.9.57-1.13,1.05a16.94,16.94,0,0,0-1.54,9.17,63,63,0,0,0,4.23,16.7c2.54,6.51,7.68,10.19,14.73,12.47C77.31,350,74.91,348.92,73.34,346.85Z" transform="translate(-0.02 0.01)" style="fill:#fff;stroke:#fff;stroke-linecap:round;stroke-linejoin:round;stroke-width:24px"/><path d="M369,290.29c-.44-.69-1-1.37-2-1-.79.32-.85,1.11-.84,2.51.78,2.83,1.68,6.28,2.69,9.69a11.54,11.54,0,0,0,1.95,4.13c1,1.21,2.22,1.74,3.65.91a2.42,2.42,0,0,0,1.1-3.24,1.62,1.62,0,0,0-.1-.18C373.11,299,371.6,294.34,369,290.29Z" transform="translate(-0.02 0.01)" style="fill:#fff;stroke:#fff;stroke-linecap:round;stroke-linejoin:round;stroke-width:24px"/><path d="M386.91,285.39q-4.79-2.88-9.58-5.72c-.89-.53-1.87-1.15-2.76-.14s-.29,2,.39,2.75a32.71,32.71,0,0,0,10.38,8.23,7,7,0,0,0,1.34.44c2.19.05,3.14-1.26,2.54-3A4.82,4.82,0,0,0,386.91,285.39Z" transform="translate(-0.02 0.01)" style="fill:#fff;stroke:#fff;stroke-linecap:round;stroke-linejoin:round;stroke-width:24px"/><path d="M393.89,272.35a12.62,12.62,0,0,0-1.76-.89A77.11,77.11,0,0,0,380.61,268c-1.19-.28-2.4-.64-3,.82s.41,2.22,1.46,2.81a32.47,32.47,0,0,0,12.87,4H393c.87-.06,1.9,0,2.21-1S394.73,272.85,393.89,272.35Z" transform="translate(-0.02 0.01)" style="fill:#fff;stroke:#fff;stroke-linecap:round;stroke-linejoin:round;stroke-width:24px"/><path d="M91.58,18.75c1.66,4.2,3.24,8.43,5,12.58a60.44,60.44,0,0,0,4.69,9.47,2.35,2.35,0,0,0,0-2.1A144.4,144.4,0,0,0,95,22.14c-.75-1.73-1.5-3.48-2.29-5.19-.2-.45-.56-1-1.16-.76s-.52.81-.4,1.31A9.22,9.22,0,0,0,91.58,18.75Z" transform="translate(-0.02 0.01)" style="fill:#fff;stroke:#fff;stroke-linecap:round;stroke-linejoin:round;stroke-width:24px"/><path d="M113.34,32.11C114,28,114.56,23.9,115,19.78c.23-2.16.13-4.36.16-6.55,0-.5,0-1.16-.63-1.23s-.73.6-.86,1.08-.21.85-.3,1.28c-1.3,6.08-1.29,12.28-1.59,18.45a3.68,3.68,0,0,0,.49,2.61A6.31,6.31,0,0,0,113.34,32.11Z" transform="translate(-0.02 0.01)" style="fill:#fff;stroke:#fff;stroke-linecap:round;stroke-linejoin:round;stroke-width:24px"/><path d="M124.79,39.61c4-4.53,8.33-8.9,9.49-15.24C129,28.16,127.14,34,124.79,39.61Z" transform="translate(-0.02 0.01)" style="fill:#fff;stroke:#fff;stroke-linecap:round;stroke-linejoin:round;stroke-width:24px"/><g id="rFf1IY.tif"><path d="M219.74,346.43c.72-13.34.23-25.35-2.87-37.13-1.46-5.54-3.85-10.59-8.5-14.24-7.62-6-16.06-6.4-24.88-3.35-7.94,2.73-14.55,7.68-21,12.91-8.81,7.16-16.45,15.56-24.71,23.3-5.3,4.95-10.81,9.6-17.48,12.69a31.19,31.19,0,0,1-19,2.59c-11.17-2-17.6-10.54-16.56-21.86A27,27,0,0,1,90,307.61a204.12,204.12,0,0,0,12.59-18.45,62.69,62.69,0,0,0,5.3-11.05,29.57,29.57,0,0,0,1.12-4.45,8,8,0,0,0-2-7c-7.68-8.93-14-18.87-20.94-28.38Q63.14,206.72,40.29,175.1c-16.3-22.5-23.83-48-25.21-75.4a78.52,78.52,0,0,1,7.16-36.45,45,45,0,0,1,9.87-13.57c11.3-11,27.51-11,38.49-5.54a48.61,48.61,0,0,1,9.55,6.18c1.26,1.06,2.16,1.33,3.51.08a11.47,11.47,0,0,1,5.39-2.8,9.83,9.83,0,0,1,12,10.51c-.62,9.36-10.16,20-19.47,21.63-6.77,1.2-12-3.16-12.13-10.06-.08-5.24,2.26-9.46,5.71-13.11,1.28-1.36,1-2-.33-3C67.13,47.77,58.64,45.1,49,47.05c-8.16,1.64-13.76,6.82-18.31,13.32C25.5,67.74,23.49,76.29,21.9,85c-2.31,12.56-.4,24.9,1.92,37.21,4,21.13,13.25,39.56,26.84,56.31,18.08,22.3,38.9,41.79,59.77,61.3,1.08,1,1.77,1.06,2.89,0,22.67-20.82,45-42,63.88-66.43a117.84,117.84,0,0,0,23.07-52.88c1.45-8.35,2.94-16.71,2.63-25.24A81.5,81.5,0,0,0,197.21,68a38.72,38.72,0,0,0-9-13.38c-8.59-8.43-18.66-9.92-29.76-6.31-3.72,1.21-6.93,3.43-10.07,5.71-1,.75-1.07,1.28-.19,2.22,2.8,3,5.07,6.38,5.82,10.6,1.6,9.11-4.89,15.07-13.76,12.55-8.37-2.38-16.51-11.86-17.43-20.49-.43-4,.72-7.62,4.25-9.94,3.79-2.5,7.65-1.9,11.36.32s3.62,2.2,7-.35c9.1-6.83,19.13-9.8,30.49-7.53,9.82,2,16.69,8.09,22.15,16,5.69,8.26,8,17.78,9.66,27.49,2.21,12.77.26,25.32-1.95,37.88-3.53,20-11.88,38-23.72,54.37q-23.61,32.68-47.34,65.29c-6.22,8.62-12,17.62-19,25.62a2.49,2.49,0,0,0-.72,2c.47,5.14-1.16,9.82-3.26,14.36a125.61,125.61,0,0,1-13.51,22c-1.39,1.88-2.8,3.75-4.1,5.69a19.52,19.52,0,0,0-3.49,9.79c-.59,9.38,4.45,15.11,13.82,15.91,7.08.61,13.24-1.73,18.94-5.57,6.71-4.52,12.37-10.25,18-15.94,7.9-7.93,16-15.66,25.18-22.08,7.45-5.2,15.34-9.34,24.65-10a28.73,28.73,0,0,1,28.87,16.93c3.34,7.28,4.4,15.11,5.23,23,1,9.78.42,19.56-.18,29.33-.8,13.4,2,26.15,7.09,38.47,2.79,6.84,7.71,11.73,14.15,15.28,15.46,8.49,30.9,6.81,46.39.16,11.91-5.12,19.6-13.88,23.18-26.36a138.89,138.89,0,0,0,4.43-19.42c1.51-10.95-1.32-21.11-5.45-31.11-7.7-18.61-22.32-29.77-40.18-37.27-8.4-3.52-17.18-6.15-25.78-9.22-9.4-3.35-18-7.91-24.78-15.55-10.88-12.36-10.61-27.48.75-39.41a46.19,46.19,0,0,1,16.43-11.05c13.51-5.43,27.4-7.66,41.81-4.21,7,1.68,13.15,5.19,18.85,9.5q9.44,7.13,18.76,14.41c1.29,1,2.08,1,3.24-.29,2.55-2.74,6-3.55,9.58-3.51a81.11,81.11,0,0,1,23.11,3.41,7.75,7.75,0,0,0,4,.09c5.87-1.18,13.13.38,14.52,8.75,1.05,6.36-.65,12.21-3.29,17.82a52.24,52.24,0,0,1-26,25.65,22.59,22.59,0,0,1-9,2.38c-5.38.16-9.76-4.24-8.8-9.53.6-3.31-.21-5.87-1.69-8.64a107.4,107.4,0,0,1-6.92-16.32c-1.36-4-1.92-8.12-.35-12.23a1.54,1.54,0,0,0-.65-2c-8.95-6.44-17.13-13.93-26.64-19.59-10.07-6-21.06-6.56-32.28-4.78-9.25,1.47-18,4.33-25.68,10a33.11,33.11,0,0,0-8.4,8.86,20.66,20.66,0,0,0,.51,23.67,42.15,42.15,0,0,0,17,13.84c7.22,3.43,14.85,5.74,22.39,8.28,10.49,3.54,20.58,7.78,29.77,14.14,18.5,12.82,28.12,30.77,31.19,52.64a44.8,44.8,0,0,1-.37,13.33,132.24,132.24,0,0,1-5.49,22.08c-3.84,11.26-10.92,19.75-21.56,25.1-13,6.54-26.61,10.1-41.28,6.89a55.13,55.13,0,0,1-14.09-5.35,36.73,36.73,0,0,1-17.54-20C220.19,377.08,217.83,361.43,219.74,346.43ZM82,221.66l-.29.25c1.48,2,3,4,4.44,6.08,4.72,6.58,9.44,13.14,14.1,19.75.94,1.33,1.46,1.6,2.25-.1a8.7,8.7,0,0,1,2-2.55c1-.92,1-1.56,0-2.47-2.7-2.44-5.3-5-8-7.48Q89.3,228.39,82,221.66Zm59.69.61-.37-.3-20.43,19.15c-2.65,2.49-2.63,2.49-.48,5.25a9.12,9.12,0,0,1,1,1.67c.6,1.37,1.14,1,1.77,0,1.19-1.75,2.38-3.5,3.62-5.22q7.49-10.27,14.92-20.55ZM117,256.46a18.6,18.6,0,0,0-1.86-5c-1.78-2.83-4.9-2.79-6.7,0-2.21,3.47-2.1,5.4.49,9,2.91,4.08,2.93,4.1,5.79,0,.89-1.22,2-2.31,2.31-4Z" transform="translate(-0.02 0.01)" style="fill:#474747;stroke:#474747;stroke-miterlimit:10;stroke-width:0.25px"/><path d="M320.83,412.94a98.31,98.31,0,0,0,13.95-32c2.57-11.5,1.93-23.16,1.67-34.87a7.36,7.36,0,0,1,2.67,4.61c3.09,16.62,2,32.77-6.4,47.78A47.38,47.38,0,0,1,320.83,412.94Z" transform="translate(-0.02 0.01)" style="fill:#474747;stroke:#474747;stroke-miterlimit:10;stroke-width:0.25px"/><path d="M84.19,344.09c-2.36-2.15-4.9-3.75-6.72-6.23-8-10.77-9.6-22.56-5.82-35.26.38-1.31.8-3.31,2.21-3.05s1.11,2.32,1,3.64c-.78,6.46-1.28,12.91-.11,19.39a41.34,41.34,0,0,0,8.69,19.54C83.77,342.57,84.47,342.91,84.19,344.09Z" transform="translate(-0.02 0.01)" style="fill:#474747;stroke:#474747;stroke-miterlimit:10;stroke-width:0.25px"/><path d="M329.7,413.77a53,53,0,0,1,4.61-8.8c5.32-7.79,8-16.48,9.64-25.6.72-4,2.18-7.92,1.22-12.09-.09-.36-.18-.76.31-.87a1,1,0,0,1,1.09.58,8,8,0,0,1,1.06,4.41,59.24,59.24,0,0,1-5.21,25.94c-2.85,6.28-7.31,11.19-12,16A2.92,2.92,0,0,1,329.7,413.77Z" transform="translate(-0.02 0.01)" style="fill:#474747;stroke:#474747;stroke-miterlimit:10;stroke-width:0.25px"/><path d="M79.34,352.41c-7-2.28-12.19-6-14.73-12.47a63,63,0,0,1-4.23-16.7,16.94,16.94,0,0,1,1.54-9.17c.23-.48.36-1.27,1.13-1.05.61.17.4.87.42,1.34.13,3.13-.36,6.28.44,9.38,2.09,8.13,4.23,16.22,9.43,23.1C74.92,348.92,77.31,350,79.34,352.41Z" transform="translate(-0.02 0.01)" style="fill:#474747;stroke:#474747;stroke-miterlimit:10;stroke-width:0.25px"/><path d="M366.18,291.82c0-1.4.05-2.19.84-2.51,1-.39,1.51.29,2,1,2.63,4,4.14,8.67,6.54,12.84a2.42,2.42,0,0,1-.82,3.32l-.18.1c-1.43.83-2.67.3-3.65-.91a11.54,11.54,0,0,1-2-4.13C367.86,298.1,367,294.65,366.18,291.82Z" transform="translate(-0.02 0.01)" style="fill:#474747;stroke:#474747;stroke-miterlimit:10;stroke-width:0.25px"/><path d="M386.68,291a7,7,0,0,1-1.34-.44A32.71,32.71,0,0,1,375,282.28c-.68-.8-1.24-1.78-.39-2.75s1.87-.39,2.76.14q4.8,2.85,9.58,5.72a4.84,4.84,0,0,1,2.31,2.53C389.82,289.69,388.87,291,386.68,291Z" transform="translate(-0.02 0.01)" style="fill:#474747;stroke:#474747;stroke-miterlimit:10;stroke-width:0.25px"/><path d="M392,275.6a32.47,32.47,0,0,1-12.87-4c-1.05-.59-2-1.41-1.46-2.81s1.8-1.1,3-.82a77.14,77.14,0,0,1,11.52,3.47,12.62,12.62,0,0,1,1.76.89c.84.5,1.7,1.11,1.37,2.23s-1.34,1-2.21,1A7.31,7.31,0,0,1,392,275.6Z" transform="translate(-0.02 0.01)" style="fill:#474747;stroke:#474747;stroke-miterlimit:10;stroke-width:0.25px"/><path d="M101.27,40.8a60.44,60.44,0,0,1-4.69-9.47c-1.76-4.15-3.34-8.38-5-12.58a9.05,9.05,0,0,1-.39-1.25c-.12-.5-.22-1.09.4-1.31s1,.31,1.16.76c.79,1.71,1.54,3.46,2.29,5.19a145.88,145.88,0,0,1,6.2,16.56A2.32,2.32,0,0,1,101.27,40.8Z" transform="translate(-0.02 0.01)" style="fill:#474747;stroke:#474747;stroke-miterlimit:10;stroke-width:0.25px"/><path d="M112.27,35.42a3.68,3.68,0,0,1-.49-2.61c.3-6.17.29-12.37,1.59-18.45.09-.43.18-.86.3-1.28s.22-1.14.86-1.08.63.73.63,1.23a62.08,62.08,0,0,1-.16,6.55q-.66,6.18-1.66,12.33A6.31,6.31,0,0,1,112.27,35.42Z" transform="translate(-0.02 0.01)" style="fill:#474747;stroke:#474747;stroke-miterlimit:10;stroke-width:0.25px"/><path d="M134.28,24.37c-1.16,6.34-5.45,10.71-9.49,15.24C127.14,34,129,28.16,134.28,24.37Z" transform="translate(-0.02 0.01)" style="fill:#474747;stroke:#474747;stroke-miterlimit:10;stroke-width:0.25px"/></g><path d="M82.55,52.39c2.32,1,4,2.08,4.31,4.43.59,4.82-5.63,9.82-10.09,7.85-2-.9-2,0-2.11,1.39a14,14,0,0,0-.11,3.71c.56,3.79,3.17,5.74,7,5.22,8.17-1.11,15.52-11,14.18-19.12-.43-2.59-1.86-4.22-4.29-4.63A15.18,15.18,0,0,0,82.55,52.39Z" transform="translate(-0.02 0.01)" style="fill:#e077bd"/><path d="M139,52.39A12.75,12.75,0,0,0,132.85,51c-4.85-.07-6.94,2-6.91,6.93,0,6.89,5.5,14.35,12.09,16.47,2.68.87,5.42,1.25,7.56-1s1.95-5.35,1.27-8.28c-.19-.82-.53-1-1.39-.63-2.34,1.12-4.61.5-6.67-.71C133.66,60.77,133.66,55.4,139,52.39Z" transform="translate(-0.02 0.01)" style="fill:#e077bd"/><path d="M335.85,240l-1.54-.08c-1.49-.09-2.54-.27-1.49,2,2.27,4.84-1.31,11.15-6.71,12-1.81.28-2,.83-1.41,2.36a129.37,129.37,0,0,0,10,21.64,3.6,3.6,0,0,0,3.81,2,18.88,18.88,0,0,0,9.56-3.52c7.82-5.91,13.41-13.52,15.27-23.29,1.05-5.5.89-6.47-5-8.6A74.9,74.9,0,0,0,335.85,240Z" transform="translate(-0.02 0.01)" style="fill:#ed40a9"/></g></g></svg>