<svg id="Layer_1" data-name="Layer 1" xmlns="http://www.w3.org/2000/svg" viewBox="0 0 475 488"><title>sun</title><g id="Layer_2" data-name="Layer 2"><g style="opacity:0.12"><path d="M457.78,292.05c-23-10.59-43.06-25.51-61.18-43-11.34-10.94-13.49-23-7.46-37.14l.24-.54c5.52-11.87,14.16-21.21,24.32-29.18,4.22-3.31,8.89-6,13.36-9,1.2-.81,3.15-1.49,3.22-2.86a1.64,1.64,0,0,0,.17-2.05c-1.11-2.1-3.27-.17-5,.17a2.72,2.72,0,0,0-.47.19c-18.43,8.8-37.84,9.93-57.71,7.38a35.59,35.59,0,0,1-12-3.59c-1-.51-1.93-1.1-2-1.85a4.64,4.64,0,0,1,.88-.71,6,6,0,0,0,2.77-3.19,3.87,3.87,0,0,0,.21-3.69c-1.13-2.81-3.71-3.15-6.33-3.11a22.07,22.07,0,0,0-4.52.29c-3.52.81-5.33-.83-6.54-3.9a55.23,55.23,0,0,1-3-28.26,64.53,64.53,0,0,1,4.83-17,111.27,111.27,0,0,1,8.23-14.89c4.19-6.5,8.42-13,13.57-18.81a5.48,5.48,0,0,0,1.47-2.26,1.86,1.86,0,0,0-.13-2.61l-.07-.06c-1.24-1.17-2.51.07-3.57.83-1.76,1.28-3.49,2.63-5.17,4a274.61,274.61,0,0,1-52.83,34.2c-12.25,6.19-19.31,4.78-28.88-5.13q-1.76-1.82-3.33-3.79c-11.77-14.76-18-31.75-20.23-50.34-.16-1.32.27-3.39-1.14-3.89,0-1.69,0-3.38,0-5.08a2.85,2.85,0,0,0-2.83-2.87,2.42,2.42,0,0,0-.71.08c.2-2.75.39-5.51.6-8.27.25-3.32.67-6.85-1.24-10.12-.1.44-.19.89-.28,1.33a3.24,3.24,0,0,0-.17-.32c-1.41,6-2.28,12.06-3.08,18.12C239.16,61,236.06,80.8,228.25,99.42l-.41.93c-7.89,17.28-18.79,20.28-36.36,10.7-.45-.24-.87-.51-1.32-.75-11.46-6.19-21.53-14.38-31.62-22.48-16.78-13.45-34.92-25.26-49.79-41A19.12,19.12,0,0,0,105,44.2c-.83-.55-1.83-1.35-2.73-.6a1.33,1.33,0,0,0-.55,1.13c-1,1,0,2.08.43,3a13.86,13.86,0,0,0,1.34,2.13,350,350,0,0,1,25.58,39.31c6.55,11.57,12.76,23.46,16.46,36.22,2.35,8.08,2.57,14.19.63,19-2.49,5.15-7.67,8.74-15.61,11.67-10.47,3.86-21.43,4-32.31,4.67-16.93,1-33.54-1.57-50.1-4.74-2-.37-5.33-2.13-6.17-.25a73.88,73.88,0,0,0-14.76-1.38c-2.94,0-4.19,4.15-1.53,5.63l.3.16a2.81,2.81,0,0,0,.57.67l.25.22a3.17,3.17,0,0,0,2.39,2,55.81,55.81,0,0,0,6,4.11c.14.86,1.24,1.29,2.05,1.69,1.95,1,3.94,1.89,5.95,2.73,11.48,4.84,22.81,10,33.76,15.93,9.31,5.06,18.61,10.19,26.58,17.31,3,2.7,4.32,4,4,5.52a23.87,23.87,0,0,1-3.32,3.71,41.89,41.89,0,0,0-8.94,13.11c-3.48,7.45-4.8,15.69-5.15,24.28-.13,3.2,1.11,6.24,4.7,6.85s5.29-2.19,6.52-5.11h0c.15-.33.3-.66.44-1,1.33-3.14,1.6-6.51,2.27-9.81a65.78,65.78,0,0,1,3.6-12.61,30.55,30.55,0,0,1,3.85-6.36c.81-1,1.69-2.32,3.25-2s1.6,2,1.94,3.22c1.56,5.77.25,11.1-2,16.25-.19.42-.38.83-.58,1.24-7.93,16.63-20.06,29.88-34.35,41.06-15,11.7-30.5,22.66-45.74,34-1.9,1.42-4.05,2.66-5.56,4.82-1.92,1.56-3.78,3.19-5.58,4.91-2.63,2.5.89,6.36,3.67,4.72a2.21,2.21,0,0,0,2.06,0c0,.08.07.16.12.25,1,1.75,3,.64,4.6.08,1-.35,1.85-.81,2.78-1.22,14.31-6.34,28.86-12.08,44-16.21,13.56-3.7,27.34-5.41,41.42-4,12.89,1.27,20.91,8.57,23.41,21.28a75.45,75.45,0,0,1,1.25,11.52c.71,16.82-2.23,33.13-6.48,49.31-3.21,12.19-6,24.5-8.8,36.79-.38,1.64-1.07,4.1,1.42,4.68,2,.47,2.68-1.63,3.39-3.14a80.09,80.09,0,0,1,8.55-14.25c13.29-17.67,28.16-33.51,49.08-42.32,14.32-6,20.7-4,29.49,8.77,14.41,21,20.68,45.07,26.88,69.21,1.55,6,2.9,12.09,4.42,18.13.33,1.31,1,2.8,2.52,2.8a1.6,1.6,0,0,0,1.7-1.5v0a4.26,4.26,0,0,0,.57-2.54c.15-2.85.18-5.71.13-8.56-.4-19.78,1.53-39.22,9.65-57.28q.81-1.77,1.71-3.51c9.84-19.12,24.05-33.74,46.09-38.26,12.65-2.6,25.73-2.92,38,1,16.11,5.12,33.26,6.56,48.65,14.05.25.12.64-.07,1.35-.17a4.34,4.34,0,0,0-.21-.88l.66-.12c-.29-2.25-1.9-3.07-3.09-4.17-8.43-7.72-17.24-15.07-25.23-23.23-8.78-9-13.12-19.81-8.17-32.27.21-.53.43-1,.66-1.56,4.93-10.72,13-18.16,25.66-20a125.49,125.49,0,0,1,51,3.57,30.27,30.27,0,0,0,10.44,1.42c1.78-.14,3.61-.47,4.13-2.42a3.14,3.14,0,0,0,.55-1.38C461.29,293.06,459.26,292.73,457.78,292.05Z" transform="translate(0.05 0)" style="fill:#6a374f;stroke:#6a374f;stroke-linecap:round;stroke-linejoin:round;stroke-width:28px"/><path d="M457.39,292.11c-23-10.58-43.06-25.5-61.18-43-11.75-11.34-13.64-23.92-6.77-38.69,5.52-11.87,14.15-21.21,24.31-29.18,4.22-3.31,8.9-6,13.36-9,1.48-1,4.07-1.79,2.95-3.9s-3.27-.17-5,.17a2.72,2.72,0,0,0-.47.19c-18.43,8.79-37.84,9.93-57.71,7.38a35.59,35.59,0,0,1-12-3.59c-1.61-.84-3.23-1.91-.68-3.57,2.19-1.42,3.61-3.21,2.54-5.87-1.13-2.82-3.71-3.15-6.33-3.12a22.81,22.81,0,0,0-4.52.3c-3.53.81-5.33-.83-6.54-3.9a55.23,55.23,0,0,1-3-28.26c1.64-12.15,7-22.74,13.51-32.85,4.19-6.5,8.41-13,13.56-18.81,1-1.08,2.36-2.48.83-3.92-1.24-1.17-2.52.07-3.57.83-1.77,1.28-3.49,2.63-5.17,4a275.08,275.08,0,0,1-52.83,34.2c-12.25,6.19-19.31,4.78-28.88-5.13q-1.76-1.81-3.33-3.79c-11.77-14.76-18-31.75-20.23-50.34-.14-1.16.17-2.9-.7-3.64,0-2.11,0-4.22.05-6.34.06-2.38-2.18-3.29-4-2.76.17-2.45.35-4.89.53-7.34.24-3.32.67-6.85-1.24-10.12a181.8,181.8,0,0,0-3.08,18.12c-2.62,19.87-5.73,39.67-13.54,58.29-8,19-19,22.56-37.21,12.64-.45-.24-.87-.51-1.32-.75-11.42-6.18-21.49-14.36-31.58-22.47-16.78-13.45-34.92-25.26-49.79-41a19.54,19.54,0,0,0-3.71-2.61c-.83-.54-1.84-1.34-2.73-.59-1.21,1-.17,2.16.32,3.17A12.85,12.85,0,0,0,103.59,49a351.45,351.45,0,0,1,25.58,39.31c6.54,11.57,12.76,23.46,16.46,36.22,5.13,17.66.14,25.94-15.43,31.68-10.47,3.86-21.43,4-32.31,4.67-16.93,1-33.54-1.57-50.1-4.74-1.37-.26-3.43-1.2-4.83-1.1a74.77,74.77,0,0,0-15.65-1.54c-2.95,0-4.19,4.15-1.53,5.63l.29.16a3.32,3.32,0,0,0,.57.67l.26.22a3.13,3.13,0,0,0,2.34,1.94,55.81,55.81,0,0,0,6,4.11c.14.86,1.25,1.29,2,1.69,2,1,3.94,1.89,6,2.74,11.47,4.83,22.81,10,33.75,15.92,9.31,5.06,18.62,10.19,26.59,17.31,5.33,4.77,5.29,5.14.24,10.17-10.11,10-13.09,22.79-13.65,36.38-.13,3.2,1.12,6.25,4.71,6.85s5.28-2.19,6.52-5.11c1.33-3.14,1.6-6.52,2.27-9.81,1.45-7.11,3.25-14.12,7.89-20,.81-1,1.7-2.33,3.26-2s1.59,2,1.94,3.23c1.78,6.61-.19,12.63-3,18.49-8,16.61-20.1,29.91-34.39,41-14.52,11.36-29.59,22-44.41,33a93.92,93.92,0,0,0-12,9.7c-2.63,2.5.9,6.36,3.67,4.72a2.23,2.23,0,0,0,2.07-.05c0,.09.07.16.12.25,1.05,1.75,3,.64,4.6.08.94-.35,1.85-.8,2.77-1.21,14.32-6.35,28.86-12.09,44-16.21,13.57-3.7,27.34-5.42,41.42-4,12.89,1.27,20.92,8.57,23.42,21.28a75.43,75.43,0,0,1,1.24,11.52c.71,16.82-2.22,33.13-6.48,49.32-3.2,12.19-6,24.49-8.79,36.78-.38,1.64-1.08,4.1,1.41,4.68,2,.47,2.69-1.63,3.39-3.14a80.74,80.74,0,0,1,8.56-14.25c13.29-17.67,28.15-33.51,49.07-42.32,14.32-6,20.71-4,29.49,8.77,14.42,21,20.69,45.07,26.89,69.21,1.55,6,2.9,12.1,4.41,18.13.33,1.31,1,2.81,2.53,2.8,1.85,0,1.75-1.81,1.82-3.07.15-2.84.18-5.7.13-8.55-.44-21.44,1.86-42.49,11.8-61.8,9.85-19.12,24.06-33.74,46.09-38.26,12.66-2.59,25.74-2.92,38,1,16.1,5.12,33.26,6.57,48.65,14.06.24.11.63-.07,1.35-.18-.29-2.25-1.9-3.06-3.09-4.16-8.43-7.73-17.24-15.07-25.23-23.23-8.78-9-13.12-19.81-8.17-32.27,4.8-12.1,13.09-20.59,26.76-22.51a125.3,125.3,0,0,1,51,3.56,30.27,30.27,0,0,0,10.44,1.42c1.9-.15,3.86-.49,4.24-2.79S458.87,292.79,457.39,292.11Z" transform="translate(0.05 0)" style="fill:#6a374f"/><path d="M143,196.39c6.72-1.56,13.41-3.2,20.11-4.84,1.32-.32,2.77-.69,3.27-2.1,1.68-4.7,5.51-6.5,9.89-7.71l5.62-1.05a8.37,8.37,0,0,0-2.44-5.23,11.48,11.48,0,0,0,1.17.07c3,0,7-1.54,8.16-9.53.32,1.4,2.24,6.06,6.11,6.06,1.53,0,3.35-.72,5.5-2.66-1.16,4.14-1.29,6.57-.91,8l9.61-1.8a374.67,374.67,0,0,1,48.68-4.6c2.91-.07,5.67.06,7.77,2.63s5.83,2.19,7.19.4c4.6-6.1,11.23-5.29,17.37-6.18,11-1.6,22-3,33-4.52,3.79-.52,4.89-2,1.68-5-4.16-3.91-8.36-7.8-12.33-11.91-8-8.24-17.07-8.19-26.89-4.19a32.62,32.62,0,0,0-9.07,5.38c-1.06.91-2.12,2.84-3.73,1.63s-.77-3.09-.14-4.66c2-4.86,5.55-8.33,9.77-11.26,1.16-.81,3.27-1.06,2.89-3-.32-1.64-2.23-1.89-3.59-2.43-8.5-3.38-17.33-5.89-26.4-6.37-40.2-2.13-73.23,12.67-99.26,43.21a100.24,100.24,0,0,0-16.37,27.11c-.56,1.36-1.76,2.9-.85,4.27C139.83,197.73,141.6,196.72,143,196.39Z" transform="translate(0.05 0)" style="fill:#6a374f;stroke:#6a374f;stroke-miterlimit:10"/><path d="M303.65,212.32a28.4,28.4,0,0,0-14.81,2.85c-1.85.85-3.7,2-3.36,4.46s2.43,3.05,4.45,3.39c4.76.81,9.38-.17,13.82-1.68,3.14-1.06,8.05-1.5,7.24-6.07C310.24,211,305.55,212.66,303.65,212.32Z" transform="translate(0.05 0)" style="fill:#6a374f;stroke:#6a374f;stroke-miterlimit:10"/><path d="M290.53,346.92c52.85-21.06,82.7-75.25,72.73-131.63-.47-2.67-1.31-5.33-1.56-8a105.57,105.57,0,0,0-9.24-23.35,8.45,8.45,0,0,1-.8-2,5.18,5.18,0,0,0-.17.56c-3.81,14-11.71,24.75-25.69,30.13-2.76,1.06-4.44,2.55-4.92,5.66-.74,4.71-3.51,8.28-7.31,11.08-11.35,8.34-24.28,9.72-37.54,7.47-9.89-1.67-13.22-12.51-6.93-20.41,2.7-3.39,6.31-5.48,10.13-7.32,8.89-4.26,8.88-4.29,2.61-12.12-.17-.22-.56-.26-1-.43a10.15,10.15,0,0,0-.57,1.26c-.42,1.29.47,3.55-1.82,3.45-1.68-.07-2.15-2-2.45-3.44-.51-2.47-1-5-1.31-7.46-.47-3.81-2.65-4.58-6.06-3.93-3.15.59-4.47,2.41-4.94,5.45-1.4,9-4.83,17.33-11.27,23.81-9.34,9.38-19,18.62-34.11,11.24-1.93-1-4.19-1.23-6.31-1.77-17.47-4.42-34.32-4.5-49.58,7a48.66,48.66,0,0,0-10.8,11.2c-.65.94-1.35,2.22-2.78,1.49s-1-2-.7-3.14a26.65,26.65,0,0,1,1.37-3.78c3.73-8.37,10.24-14,18.08-18.34s7.68-4.23,5.15-12.81c-1.22-4.13-3.18-5.45-7.29-4.4-9.13,2.34-18.29,4.53-27.46,6.67-3.38.79-4.94,2.71-5.64,6.13a114,114,0,0,0,5.43,65.46C161.34,341.19,230.25,370.94,290.53,346.92Z" transform="translate(0.05 0)" style="fill:#6a374f;stroke:#6a374f;stroke-miterlimit:10"/><path d="M308.57,211.69A41.14,41.14,0,0,0,295.09,213c-2.95.79-6.84,2.1-6.92,5.75-.22,9.06,14.26,1.78,17.81.51a3,3,0,0,0,1.73-1.52l.86,0C312.46,218,312.44,212,308.57,211.69Z" transform="translate(0.05 0)" style="fill:#6a374f"/><path d="M199.17,180.78a4.82,4.82,0,0,1-.36-.43c-1-1.32-1.32-3.26-.95-6.07a7.73,7.73,0,0,1-2.52.45,7.21,7.21,0,0,1-5.47-2.66,9.33,9.33,0,0,1-6.34,5.83c1.62,3.64.57,7.17-.28,9.51a7.45,7.45,0,0,1,4.49,4.33,14.42,14.42,0,0,1,9-3.54h0a10.61,10.61,0,0,1,.57-4.4A9.49,9.49,0,0,1,199.17,180.78Z" transform="translate(0.05 0)" style="fill:#6a374f"/><path d="M352.45,228.81q-5.08,1.49-10.18,2.92a17.33,17.33,0,0,1-10.91-.17c-1.38-.5-3-1.4-4.14.24-1.22,1.84-.26,3.57,1,5,2.61,3.06,6.19,3.86,10,4.15,4,.31,4.56,2.15,2.37,5.25a77.48,77.48,0,0,1-17.19,17.62c-28.13,20.85-59.32,25.81-92.81,16.82-15.47-4.16-28.07-12.77-36.51-26.75-2.49-4.11-1.55-5.81,3.32-5.67a51.2,51.2,0,0,1,17.26,3.31c1.27.5,3,1.88,4,0,.82-1.65-.88-2.76-2-3.65a29.45,29.45,0,0,0-20.77-6.16c-2,0-4-.16-6,0-15.69,1.47-28.85,14.87-28.33,28.89.06,1.67-.72,4.27,1.88,4.49,2,.18,2.3-2.09,2.74-3.69,2-7.19,5.69-13.23,11.93-17.57,2.75-1.92,4.4-2.08,6.09,1.55,5.34,11.5,13.69,20.77,25,26.1,33.45,15.67,67.44,18.15,101.63,1.87,12.3-5.86,22.8-14.24,32.43-23.7a68.55,68.55,0,0,0,15.59-23.93c.82-2.07,1.52-4.24-.21-6.18S354.6,228.18,352.45,228.81Z" transform="translate(0.05 0)" style="fill:#6a374f"/><path d="M185,157.34c5.85-6.54,13.21-10.13,21.76-11.69a48.82,48.82,0,0,1,16,.07c1.81.26,3.91.52,5-1.46,1.18-2.21-.42-3.8-1.73-5.33-3.35-3.9-7.86-4.89-13.33-5.1-13.86,1.29-24.77,8-31.35,21.18-.64,1.27-2,3-.43,4.1C182.79,160.49,184,158.52,185,157.34Z" transform="translate(0.05 0)" style="fill:#6a374f"/><path d="M457.84,291.11c-23-10.59-43.06-25.51-61.18-43-11.75-11.34-13.64-23.92-6.78-38.69,5.52-11.87,14.16-21.21,24.32-29.18,4.22-3.31,8.89-6,13.36-9,1.47-1,4.07-1.79,2.95-3.9s-3.27-.16-5,.18a1.6,1.6,0,0,0-.47.19c-18.43,8.79-37.85,9.92-57.72,7.37a35.3,35.3,0,0,1-12-3.59c-1.6-.84-3.22-1.91-.67-3.56,2.19-1.43,3.6-3.21,2.53-5.88s-3.7-3.15-6.33-3.11a21.39,21.39,0,0,0-4.52.3c-3.52.81-5.32-.84-6.53-3.91a55.34,55.34,0,0,1-3-28.26c1.65-12.15,7-22.74,13.52-32.85,4.18-6.5,8.41-13,13.56-18.81.95-1.08,2.35-2.47.83-3.92-1.24-1.17-2.52.07-3.57.83-1.77,1.28-3.5,2.63-5.17,4a274.13,274.13,0,0,1-52.83,34.2c-12.25,6.19-19.31,4.78-28.89-5.13-1.16-1.21-2.28-2.47-3.33-3.78-11.76-14.77-18-31.75-20.22-50.35-.19-1.52.41-4-1.9-4s-2,2.38-1.88,4c.92,9.37,1.65,18.77,4.37,27.86,3.71,12.43,10.31,23.3,18,33.58.67.88,2,1.61,1.34,3-.42.83-1.47.67-2.29.5-11.82-2.46-23.77-1.84-35.71-1.5-3.56.11-4.14-1.08-2.3-4.13,4.13-6.82,6.69-14.3,8.78-22,5.12-18.79,6-38.14,7.47-57.41.25-3.32.67-6.85-1.23-10.12q-2,9-3.09,18.12c-2.62,19.87-5.72,39.67-13.53,58.29-8,19-19,22.57-37.22,12.64-.44-.24-.87-.51-1.31-.75-11.45-6.17-21.51-14.34-31.61-22.46-16.77-13.45-34.91-25.25-49.79-41a19.42,19.42,0,0,0-3.7-2.6c-.83-.55-1.84-1.35-2.73-.6-1.21,1-.17,2.16.32,3.17A12.11,12.11,0,0,0,104,48a350,350,0,0,1,25.57,39.31c6.55,11.56,12.76,23.45,16.47,36.21,5.12,17.66.13,25.94-15.43,31.68-10.48,3.86-21.43,4-32.32,4.67-16.92,1-33.53-1.57-50.09-4.74-2.06-.39-5.69-2.32-6.29.07-.66,2.63,3.34,3.05,5.55,3.82,19.81,7,40.31,9,61.16,7.7,9.73-.61,19.46-1.51,28.53-5.69,10.23-4.7,16.92-12.05,18-23.62.51-5.44-.64-10.75-2.37-15.85-5.23-15.56-12.78-30-21.39-43.92-.79-1.27-1.47-2.61-2.2-3.93,10.64,7.59,20.45,15.74,30.25,23.92,10.6,8.84,21,17.89,34.1,23.1,1.33.53,3.42.65,3.35,2.5s-2.13,1.94-3.44,2.55a119.32,119.32,0,0,0-30.92,20.65,128.26,128.26,0,0,0-33.22,49.37c-2.33,6.08-12,9.86-15.87,6C102,190.28,88,183.24,73.43,176.87c-11.27-4.93-23-8.7-34.57-12.65-1-.36-2.44-1.31-3.08.19s.93,2,1.95,2.46c2,1,3.94,1.89,6,2.74,11.48,4.84,22.82,10,33.76,15.93,9.31,5.06,18.62,10.19,26.58,17.3,5.33,4.77,5.3,5.14.24,10.17-10.11,10.05-13.08,22.79-13.64,36.38-.13,3.2,1.12,6.25,4.7,6.86s5.29-2.2,6.52-5.12c1.33-3.14,1.61-6.51,2.28-9.81,1.45-7.11,3.25-14.12,7.89-20,.81-1,1.69-2.33,3.25-2s1.6,2,1.94,3.23c1.79,6.61-.19,12.64-3,18.5-7.93,16.62-20.06,29.87-34.36,41-15,11.7-30.49,22.66-45.73,34-2.32,1.73-5,3.18-6.48,6.4,2.63.8,4.23-.67,5.9-1.55,15-8,29.14-17.44,43.24-26.93,17.11-11.52,31.8-25.31,42-43.48.58-1,.69-3,2.51-2.56,1.33.35,1,2,1.07,3.1a115.36,115.36,0,0,0,16.27,49.4c.54.89,1.7,1.82.57,3.3-4-1-7.63-3.25-11.85-3.78a108.6,108.6,0,0,0-51.66,5.6c-15.15,5.56-30.49,10.74-44,19.87-1.48,1-3.68,2.13-2.4,4.27,1,1.75,3,.65,4.6.08.95-.34,1.86-.8,2.78-1.21,14.31-6.35,28.86-12.09,44-16.21,13.56-3.7,27.34-5.42,41.42-4C135,309.68,143,317,145.48,329.69a75.45,75.45,0,0,1,1.25,11.51c.71,16.83-2.23,33.13-6.48,49.32-3.21,12.19-6,24.5-8.8,36.78-.38,1.65-1.07,4.1,1.42,4.69,2,.46,2.68-1.64,3.39-3.15a80.61,80.61,0,0,1,8.55-14.24c13.29-17.67,28.16-33.51,49.08-42.33,14.32-6,20.7-4,29.49,8.78,14.41,21,20.68,45.07,26.88,69.2,1.55,6,2.91,12.1,4.42,18.13.33,1.31,1,2.81,2.52,2.8,1.85,0,1.76-1.81,1.82-3.06.16-2.85.19-5.71.13-8.56-.43-21.44,1.86-42.48,11.81-61.8,9.84-19.11,24-33.76,46.09-38.26,12.65-2.59,25.73-2.92,38,1,16.11,5.12,33.26,6.57,48.65,14.06.25.12.64-.07,1.35-.17-.28-2.25-1.89-3.07-3.09-4.17-8.42-7.72-17.23-15.07-25.22-23.22-8.79-9-13.12-19.82-8.18-32.28,4.8-12.1,13.1-20.59,26.77-22.51a125.48,125.48,0,0,1,51,3.56,30,30,0,0,0,10.44,1.43c1.9-.16,3.86-.49,4.23-2.79S459.32,291.79,457.84,291.11ZM302,121.79c10.11-4.41,18.93-10.88,27.8-17.26,2.1-1.51,4.25-2.94,6.59-4.57.65,2.6-.72,3.87-1.42,5.29-5.5,11-8.56,22.6-7.8,35,.08,1.39.95,3.38-.71,4.12s-2.55-1.24-3.72-2.07A19.93,19.93,0,0,1,319,139c-4.5-5.45-9.79-9.6-16.81-11.4-1.65-.43-4.05-1.09-4.06-3.23S300.56,122.41,302,121.79ZM140.43,191.1A100.34,100.34,0,0,1,156.8,164c26-30.54,59.06-45.34,99.26-43.21,9.08.48,17.9,3,26.4,6.37,1.36.54,3.27.79,3.59,2.43.38,1.93-1.73,2.17-2.89,3-4.22,2.93-7.8,6.4-9.77,11.26-.63,1.57-1.45,3.48.14,4.66s2.67-.72,3.73-1.63a32.62,32.62,0,0,1,9.07-5.38c9.82-4,18.93-4,26.89,4.19,4,4.11,8.17,8,12.33,11.91,3.21,3,2.11,4.45-1.68,5-11,1.51-22,2.92-33,4.52-6.14.89-12.77.08-17.37,6.18-1.36,1.79-5,2.26-7.19-.4s-4.86-2.7-7.77-2.63a372.88,372.88,0,0,0-48.68,4.57l-9.61,1.8c-.38-1.43-.25-3.86.91-8-2.15,1.94-4,2.66-5.5,2.66-3.87,0-5.79-4.66-6.1-6.07-1.11,8-5.15,9.54-8.17,9.54a11.48,11.48,0,0,1-1.17-.07,8.37,8.37,0,0,1,2.44,5.23L177,181c-4.38,1.2-8.21,3-9.89,7.71-.5,1.41-2,1.78-3.27,2.1-6.7,1.64-13.39,3.28-20.11,4.84-1.4.33-3.17,1.34-4.2-.21S139.87,192.46,140.43,191.1Zm164.1,29.43c-4.44,1.51-9.06,2.49-13.82,1.68-2-.34-4.11-1-4.45-3.39s1.51-3.61,3.36-4.46a28.4,28.4,0,0,1,14.81-2.85c1.91.34,6.59-1.29,7.34,3C312.58,219,307.67,219.47,304.53,220.53ZM183.86,176.44c2.23-.57,4.74-2.1,6.35-5.83a7.21,7.21,0,0,0,5.46,2.66,7.73,7.73,0,0,0,2.52-.45c-.37,2.81-.05,4.75.95,6.07a5,5,0,0,0,.37.43,9.48,9.48,0,0,0-1.77,3,10.78,10.78,0,0,0-.57,4.4h0a14.44,14.44,0,0,0-9,3.54,7.42,7.42,0,0,0-4.49-4.33C184.43,183.61,185.49,180.08,183.86,176.44ZM172.52,372.88c-11.12,7.52-19.66,17.66-28.26,28.12,8.78-25.22,15.58-50.51,10.07-77.88a149.59,149.59,0,0,0,54.58,34.54C194.91,358.73,183.53,365.44,172.52,372.88Zm249.23-92.3c-10.42-.88-20.83-1.37-31.06,1.53-16.12,4.58-26.41,15.25-30.73,31.17-4,14.86,1.08,27.4,11.65,38.09,5.27,5.33,11.37,9.69,16.9,14.81-9-3.84-17.85-7.71-27.07-10.58-19.57-6.08-39.48-7.94-58.91-.31-22.57,8.86-36.14,26.59-44.36,48.84-2.62,7.08-3.85,14.53-6,21.93-7-24.8-13.64-49.65-35.48-66.44,63,10.31,111.39-10.68,141.34-67.81,15-28.65,16.27-59.26,4.74-89.84-1,4.29.57,8.39,1.3,12.51,10,56.38-19.88,110.57-72.73,131.63-60.28,24-129.19-5.73-152.73-66.33a114,114,0,0,1-5.43-65.46c.7-3.42,2.26-5.34,5.64-6.13,9.18-2.14,18.33-4.33,27.46-6.67,4.11-1.05,6.07.26,7.29,4.4,2.53,8.58,2.73,8.49-5.15,12.81s-14.34,10-18.08,18.34a26.65,26.65,0,0,0-1.37,3.78c-.31,1.12-.62,2.47.7,3.14s2.13-.56,2.78-1.49a48.66,48.66,0,0,1,10.8-11.2c15.26-11.48,32.11-11.4,49.58-7,2.12.54,4.38.82,6.31,1.77,15.07,7.38,24.77-1.86,34.11-11.24,6.44-6.48,9.87-14.78,11.27-23.81.47-3,1.79-4.86,4.94-5.45,3.41-.65,5.59.12,6.06,3.93.31,2.5.8,5,1.31,7.46.3,1.49.77,3.37,2.45,3.44,2.3.1,1.4-2.16,1.82-3.45a10.15,10.15,0,0,1,.57-1.26c.42.17.81.21,1,.43,6.27,7.83,6.28,7.86-2.61,12.12-3.82,1.84-7.43,3.93-10.13,7.32-6.28,7.9-3,18.74,6.93,20.41,13.26,2.25,26.19.87,37.54-7.47,3.8-2.8,6.58-6.37,7.31-11.08.48-3.11,2.16-4.6,4.92-5.66,14-5.38,21.88-16.08,25.69-30.13.48-1.8,1.19-2.24,2.76-1.78,15.15,4.43,30.31,2.43,45.48.13.12,0,.27.17.48.31,0,2-1.83,2.62-3,3.67-7.45,6.73-13.86,14.27-17.68,23.64-6.54,16-4.47,30.51,8,43.15,9.66,9.77,20.93,17.37,32.23,25,1.88,1.27,4.2,2.1,5.41,4.35-1.35,1.59-2.87.6-4.25.48Z" transform="translate(0.05 0)" style="fill:#6a374f"/><path d="M301.56,146.46c-8.08-2.22-27.8,4.51-13.94,11.69C296.4,162.7,314,149.89,301.56,146.46Z" transform="translate(0.05 0)" style="fill:#6a374f"/><path d="M332.85,289c-17.84-10.14-18.06,11.38-24.37,21-10.38,15.86-23,15.88-23,20.89,0,3.8,21.43-5.86,25.59-8.62C320.42,316,339.4,302.45,332.85,289Z" transform="translate(0.05 0)" style="fill:#6a374f"/><path d="M273.91,333.23a2.88,2.88,0,0,0-2.13-2.39,4.16,4.16,0,0,0-4.68,6,4.22,4.22,0,0,0,7.16-.09A3.21,3.21,0,0,0,273.91,333.23Z" transform="translate(0.05 0)" style="fill:#6a374f"/></g><g id="Layer_1-2" data-name="Layer 1-2"><path d="M449.78,284.05c-23-10.59-43.06-25.51-61.18-43-11.34-10.94-13.49-23-7.46-37.14l.24-.54c5.52-11.87,14.16-21.21,24.32-29.18,4.22-3.31,8.89-6,13.36-9,1.2-.81,3.15-1.49,3.22-2.86a1.64,1.64,0,0,0,.17-2.05c-1.11-2.1-3.27-.17-5,.17a2.72,2.72,0,0,0-.47.19c-18.43,8.8-37.84,9.93-57.71,7.38a35.59,35.59,0,0,1-12-3.59c-1-.51-1.93-1.1-2-1.85a4.64,4.64,0,0,1,.88-.71,6,6,0,0,0,2.77-3.19,3.87,3.87,0,0,0,.21-3.69c-1.13-2.81-3.71-3.15-6.33-3.11a22.07,22.07,0,0,0-4.52.29c-3.52.81-5.33-.83-6.54-3.9a55.23,55.23,0,0,1-3-28.26,64.53,64.53,0,0,1,4.83-17,111.27,111.27,0,0,1,8.23-14.89c4.19-6.5,8.42-13,13.57-18.81a5.48,5.48,0,0,0,1.47-2.26,1.86,1.86,0,0,0-.13-2.61l-.07-.06c-1.24-1.17-2.51.07-3.57.83-1.76,1.28-3.49,2.63-5.17,4a274.61,274.61,0,0,1-52.83,34.2c-12.25,6.19-19.31,4.78-28.88-5.13q-1.76-1.82-3.33-3.79c-11.77-14.76-18-31.75-20.23-50.34-.16-1.32.27-3.39-1.14-3.89,0-1.69,0-3.38,0-5.08a2.85,2.85,0,0,0-2.83-2.87,2.42,2.42,0,0,0-.71.08c.2-2.75.39-5.51.6-8.27.25-3.32.67-6.85-1.24-10.12-.1.44-.19.89-.28,1.33a3.24,3.24,0,0,0-.17-.32c-1.41,6-2.28,12.06-3.08,18.12C231.16,53,228.06,72.8,220.25,91.42l-.41.93c-7.89,17.28-18.79,20.28-36.36,10.7-.45-.24-.87-.51-1.32-.75-11.46-6.19-21.53-14.38-31.62-22.48-16.78-13.45-34.92-25.26-49.79-41A19.12,19.12,0,0,0,97,36.2c-.83-.55-1.83-1.35-2.73-.6a1.33,1.33,0,0,0-.55,1.13c-1,1,0,2.08.43,3a13.86,13.86,0,0,0,1.34,2.13,350,350,0,0,1,25.58,39.31c6.55,11.57,12.76,23.46,16.46,36.22,2.35,8.08,2.57,14.19.63,19-2.49,5.15-7.67,8.74-15.61,11.67-10.47,3.86-21.43,4-32.31,4.67-16.93,1-33.54-1.57-50.1-4.74-2-.37-5.33-2.13-6.17-.25a73.88,73.88,0,0,0-14.76-1.38c-2.94,0-4.19,4.15-1.53,5.63l.3.16a2.81,2.81,0,0,0,.57.67l.25.22a3.17,3.17,0,0,0,2.39,2,55.81,55.81,0,0,0,6,4.11c.14.86,1.24,1.29,2,1.69,2,1,3.94,1.89,5.95,2.73,11.48,4.84,22.81,10,33.76,15.93,9.31,5.06,18.61,10.19,26.58,17.31,3,2.7,4.32,4,4,5.52A23.87,23.87,0,0,1,96.21,206a41.89,41.89,0,0,0-8.94,13.11c-3.48,7.45-4.8,15.69-5.15,24.28-.13,3.2,1.11,6.24,4.7,6.85s5.29-2.19,6.52-5.11h0c.15-.33.3-.66.44-1,1.33-3.14,1.6-6.51,2.27-9.81a65.78,65.78,0,0,1,3.6-12.61,30.55,30.55,0,0,1,3.85-6.36c.81-1,1.69-2.32,3.25-2s1.6,2,1.94,3.22c1.56,5.77.25,11.1-2,16.25-.19.42-.38.83-.58,1.24-7.93,16.63-20.06,29.88-34.35,41.06-15,11.7-30.5,22.66-45.74,34-1.9,1.42-4.05,2.66-5.56,4.82-1.92,1.56-3.78,3.19-5.58,4.91-2.63,2.5.89,6.36,3.67,4.72a2.21,2.21,0,0,0,2.06,0c0,.08.07.16.12.25,1,1.75,3,.64,4.6.08,1-.35,1.85-.81,2.78-1.22,14.31-6.34,28.86-12.08,44-16.21,13.56-3.7,27.34-5.41,41.42-4,12.89,1.27,20.91,8.57,23.41,21.28a75.45,75.45,0,0,1,1.25,11.52c.71,16.82-2.23,33.13-6.48,49.31-3.21,12.19-6,24.5-8.8,36.79-.38,1.64-1.07,4.1,1.42,4.68,2,.47,2.68-1.63,3.39-3.14a80.09,80.09,0,0,1,8.55-14.25c13.29-17.67,28.16-33.51,49.08-42.32,14.32-6,20.7-4,29.49,8.77,14.41,21,20.68,45.07,26.88,69.21,1.55,6,2.9,12.09,4.42,18.13.33,1.31,1,2.8,2.52,2.8a1.6,1.6,0,0,0,1.7-1.5v0a4.26,4.26,0,0,0,.57-2.54c.15-2.85.18-5.71.13-8.56-.4-19.78,1.53-39.22,9.65-57.28q.81-1.77,1.71-3.51c9.84-19.12,24.05-33.74,46.09-38.26,12.65-2.6,25.73-2.92,38,1,16.11,5.12,33.26,6.56,48.65,14.05.25.12.64-.07,1.35-.17a4.34,4.34,0,0,0-.21-.88l.66-.12c-.29-2.25-1.9-3.07-3.09-4.17-8.43-7.72-17.24-15.07-25.23-23.23-8.78-9-13.12-19.81-8.17-32.27.21-.53.43-1,.66-1.56,4.93-10.72,13-18.16,25.66-20a125.49,125.49,0,0,1,51,3.57,30.27,30.27,0,0,0,10.44,1.42c1.78-.14,3.61-.47,4.13-2.42a3.14,3.14,0,0,0,.55-1.38C453.29,285.06,451.26,284.73,449.78,284.05Z" transform="translate(0.05 0)" style="fill:#fff;stroke:#fff;stroke-linecap:round;stroke-linejoin:round;stroke-width:28px"/><path d="M449.39,284.11c-23-10.58-43.06-25.5-61.18-43-11.75-11.34-13.64-23.92-6.77-38.69,5.52-11.87,14.15-21.21,24.31-29.18,4.22-3.31,8.9-6,13.36-9,1.48-1,4.07-1.79,2.95-3.9s-3.27-.17-5,.17a2.72,2.72,0,0,0-.47.19c-18.43,8.79-37.84,9.93-57.71,7.38a35.59,35.59,0,0,1-12-3.59c-1.61-.84-3.23-1.91-.68-3.57,2.19-1.42,3.61-3.21,2.54-5.87-1.13-2.82-3.71-3.15-6.33-3.12a22.81,22.81,0,0,0-4.52.3c-3.53.81-5.33-.83-6.54-3.9a55.23,55.23,0,0,1-3-28.26c1.64-12.15,7-22.74,13.51-32.85,4.19-6.5,8.41-13,13.56-18.81,1-1.08,2.36-2.48.83-3.92-1.24-1.17-2.52.07-3.57.83-1.77,1.28-3.49,2.63-5.17,4a275.08,275.08,0,0,1-52.83,34.2c-12.25,6.19-19.31,4.78-28.88-5.13q-1.76-1.81-3.33-3.79c-11.77-14.76-18-31.75-20.23-50.34-.14-1.16.17-2.9-.7-3.64,0-2.11,0-4.22.05-6.34.06-2.38-2.18-3.29-4-2.76.17-2.45.35-4.89.53-7.34.24-3.32.67-6.85-1.24-10.12a181.8,181.8,0,0,0-3.08,18.12c-2.62,19.87-5.73,39.67-13.54,58.29-8,19-19,22.56-37.21,12.64-.45-.24-.87-.51-1.32-.75C170.31,96.18,160.24,88,150.15,79.89c-16.78-13.45-34.92-25.26-49.79-41a19.54,19.54,0,0,0-3.71-2.61c-.83-.54-1.84-1.34-2.73-.59-1.21,1-.17,2.16.32,3.17A12.85,12.85,0,0,0,95.59,41a351.45,351.45,0,0,1,25.58,39.31c6.54,11.57,12.76,23.46,16.46,36.22,5.13,17.66.14,25.94-15.43,31.68-10.47,3.86-21.43,4-32.31,4.67-16.93,1-33.54-1.57-50.1-4.74-1.37-.26-3.43-1.2-4.83-1.1a74.77,74.77,0,0,0-15.65-1.54c-2.95,0-4.19,4.15-1.53,5.63l.29.16a3.32,3.32,0,0,0,.57.67l.26.22a3.13,3.13,0,0,0,2.34,1.94,55.81,55.81,0,0,0,6,4.11c.14.86,1.25,1.29,2.05,1.69,2,1,3.94,1.89,6,2.74,11.47,4.83,22.81,10,33.75,15.92,9.31,5.06,18.62,10.19,26.59,17.31,5.33,4.77,5.29,5.14.24,10.17-10.11,10-13.09,22.79-13.65,36.38-.13,3.2,1.12,6.25,4.71,6.85s5.28-2.19,6.52-5.11c1.33-3.14,1.6-6.52,2.27-9.81,1.45-7.11,3.25-14.12,7.89-20,.81-1,1.7-2.33,3.26-2s1.59,2,1.94,3.23c1.78,6.61-.19,12.63-3,18.49-8,16.61-20.1,29.91-34.39,41-14.52,11.36-29.59,22-44.41,33a93.92,93.92,0,0,0-12,9.7c-2.63,2.5.9,6.36,3.67,4.72a2.23,2.23,0,0,0,2.07-.05c0,.09.07.16.12.25,1.05,1.75,3,.64,4.6.08.94-.35,1.85-.8,2.77-1.21,14.32-6.35,28.86-12.09,44-16.21,13.57-3.7,27.34-5.42,41.42-4,12.89,1.27,20.92,8.57,23.42,21.28a75.43,75.43,0,0,1,1.24,11.52c.71,16.82-2.22,33.13-6.48,49.32-3.2,12.19-6,24.49-8.79,36.78-.38,1.64-1.08,4.1,1.41,4.68,2,.47,2.69-1.63,3.39-3.14a80.74,80.74,0,0,1,8.56-14.25c13.29-17.67,28.15-33.51,49.07-42.32,14.32-6,20.71-4,29.49,8.77,14.42,21,20.69,45.07,26.89,69.21,1.55,6,2.9,12.1,4.41,18.13.33,1.31,1,2.81,2.53,2.8,1.85,0,1.75-1.81,1.82-3.07.15-2.84.18-5.7.13-8.55-.44-21.44,1.86-42.49,11.8-61.8,9.85-19.12,24.06-33.74,46.09-38.26,12.66-2.59,25.74-2.92,38,1,16.1,5.12,33.26,6.57,48.65,14.06.24.11.63-.07,1.35-.18-.29-2.25-1.9-3.06-3.09-4.16-8.43-7.73-17.24-15.07-25.23-23.23-8.78-9-13.12-19.81-8.17-32.27,4.8-12.1,13.09-20.59,26.76-22.51a125.3,125.3,0,0,1,51,3.56,30.27,30.27,0,0,0,10.44,1.42c1.9-.15,3.86-.49,4.24-2.79S450.87,284.79,449.39,284.11Z" transform="translate(0.05 0)" style="fill:#f9ab6b"/><path d="M135,188.39c6.72-1.56,13.41-3.2,20.11-4.84,1.32-.32,2.77-.69,3.27-2.1,1.68-4.7,5.51-6.5,9.89-7.71l5.62-1.05a8.37,8.37,0,0,0-2.44-5.23,11.48,11.48,0,0,0,1.17.07c3,0,7-1.54,8.16-9.53.32,1.4,2.24,6.06,6.11,6.06,1.53,0,3.35-.72,5.5-2.66-1.16,4.14-1.29,6.57-.91,8l9.61-1.8a374.67,374.67,0,0,1,48.68-4.6c2.91-.07,5.67.06,7.77,2.63s5.83,2.19,7.19.4c4.6-6.1,11.23-5.29,17.37-6.18,11-1.6,22-3,33-4.52,3.79-.52,4.89-2,1.68-5-4.16-3.91-8.36-7.8-12.33-11.91-8-8.24-17.07-8.19-26.89-4.19a32.62,32.62,0,0,0-9.07,5.38c-1.06.91-2.12,2.84-3.73,1.63s-.77-3.09-.14-4.66c2-4.86,5.55-8.33,9.77-11.26,1.16-.81,3.27-1.06,2.89-3-.32-1.64-2.23-1.89-3.59-2.43-8.5-3.38-17.33-5.89-26.4-6.37-40.2-2.13-73.23,12.67-99.26,43.21a100.24,100.24,0,0,0-16.37,27.11c-.56,1.36-1.76,2.9-.85,4.27C131.83,189.73,133.6,188.72,135,188.39Z" transform="translate(0.05 0)" style="fill:#fcea81;stroke:#fcea81;stroke-miterlimit:10"/><path d="M295.65,204.32a28.4,28.4,0,0,0-14.81,2.85c-1.85.85-3.7,2-3.36,4.46s2.43,3.05,4.45,3.39c4.76.81,9.38-.17,13.82-1.68,3.14-1.06,8.05-1.5,7.24-6.07C302.24,203,297.55,204.66,295.65,204.32Z" transform="translate(0.05 0)" style="fill:#fcea81;stroke:#fcea81;stroke-miterlimit:10"/><path d="M282.53,338.92c52.85-21.06,82.7-75.25,72.73-131.63-.47-2.67-1.31-5.33-1.56-8a105.57,105.57,0,0,0-9.24-23.35,8.45,8.45,0,0,1-.8-2,5.18,5.18,0,0,0-.17.56c-3.81,14-11.71,24.75-25.69,30.13-2.76,1.06-4.44,2.55-4.92,5.66-.74,4.71-3.51,8.28-7.31,11.08-11.35,8.34-24.28,9.72-37.54,7.47-9.89-1.67-13.22-12.51-6.93-20.41,2.7-3.39,6.31-5.48,10.13-7.32,8.89-4.26,8.88-4.29,2.61-12.12-.17-.22-.56-.26-1-.43a10.15,10.15,0,0,0-.57,1.26c-.42,1.29.47,3.55-1.82,3.45-1.68-.07-2.15-2-2.45-3.44-.51-2.47-1-5-1.31-7.46-.47-3.81-2.65-4.58-6.06-3.93-3.15.59-4.47,2.41-4.94,5.45-1.4,9-4.83,17.33-11.27,23.81-9.34,9.38-19,18.62-34.11,11.24-1.93-1-4.19-1.23-6.31-1.77-17.47-4.42-34.32-4.5-49.58,7a48.66,48.66,0,0,0-10.8,11.2c-.65.94-1.35,2.22-2.78,1.49s-1-2-.7-3.14a26.65,26.65,0,0,1,1.37-3.78c3.73-8.37,10.24-14,18.08-18.34s7.68-4.23,5.15-12.81c-1.22-4.13-3.18-5.45-7.29-4.4-9.13,2.34-18.29,4.53-27.46,6.67-3.38.79-4.94,2.71-5.64,6.13a114,114,0,0,0,5.43,65.46C153.34,333.19,222.25,362.94,282.53,338.92Z" transform="translate(0.05 0)" style="fill:#fcea81;stroke:#fcea81;stroke-miterlimit:10"/><path d="M300.57,203.69A41.14,41.14,0,0,0,287.09,205c-2.95.79-6.84,2.1-6.92,5.75-.22,9.06,14.26,1.78,17.81.51a3,3,0,0,0,1.73-1.52l.86,0C304.46,210,304.44,204,300.57,203.69Z" transform="translate(0.05 0)" style="fill:#fff4bb"/><path d="M191.17,172.78a4.82,4.82,0,0,1-.36-.43c-1-1.32-1.32-3.26-.95-6.07a7.73,7.73,0,0,1-2.52.45,7.21,7.21,0,0,1-5.47-2.66,9.33,9.33,0,0,1-6.34,5.83c1.62,3.64.57,7.17-.28,9.51a7.45,7.45,0,0,1,4.49,4.33,14.42,14.42,0,0,1,9-3.54h0a10.61,10.61,0,0,1,.57-4.4A9.49,9.49,0,0,1,191.17,172.78Z" transform="translate(0.05 0)" style="fill:#fffbe9"/><path d="M344.45,220.81q-5.08,1.49-10.18,2.92a17.33,17.33,0,0,1-10.91-.17c-1.38-.5-3-1.4-4.14.24-1.22,1.84-.26,3.57,1,5,2.61,3.06,6.19,3.86,10,4.15,4,.31,4.56,2.15,2.37,5.25a77.48,77.48,0,0,1-17.19,17.62c-28.13,20.85-59.32,25.81-92.81,16.82-15.47-4.16-28.07-12.77-36.51-26.75-2.49-4.11-1.55-5.81,3.32-5.67a51.2,51.2,0,0,1,17.26,3.31c1.27.5,3,1.88,4,0,.82-1.65-.88-2.76-2-3.65a29.45,29.45,0,0,0-20.77-6.16c-2,0-4-.16-6,0-15.69,1.47-28.85,14.87-28.33,28.89.06,1.67-.72,4.27,1.88,4.49,2,.18,2.3-2.09,2.74-3.69,2-7.19,5.69-13.23,11.93-17.57,2.75-1.92,4.4-2.08,6.09,1.55,5.34,11.5,13.69,20.77,25,26.1,33.45,15.67,67.44,18.15,101.63,1.87,12.3-5.86,22.8-14.24,32.43-23.7a68.55,68.55,0,0,0,15.59-23.93c.82-2.07,1.52-4.24-.21-6.18S346.6,220.18,344.45,220.81Z" transform="translate(0.05 0)" style="fill:#474747"/><path d="M177,149.34c5.85-6.54,13.21-10.13,21.76-11.69a48.82,48.82,0,0,1,16,.07c1.81.26,3.91.52,5-1.46,1.18-2.21-.42-3.8-1.73-5.33-3.35-3.9-7.86-4.89-13.33-5.1-13.86,1.29-24.77,8-31.35,21.18-.64,1.27-2,3-.43,4.1C174.79,152.49,176,150.52,177,149.34Z" transform="translate(0.05 0)" style="fill:#474747"/><path d="M449.84,283.11c-23-10.59-43.06-25.51-61.18-43-11.75-11.34-13.64-23.92-6.78-38.69,5.52-11.87,14.16-21.21,24.32-29.18,4.22-3.31,8.89-6,13.36-9,1.47-1,4.07-1.79,2.95-3.9s-3.27-.16-5,.18a1.6,1.6,0,0,0-.47.19c-18.43,8.79-37.85,9.92-57.72,7.37a35.3,35.3,0,0,1-12-3.59c-1.6-.84-3.22-1.91-.67-3.56,2.19-1.43,3.6-3.21,2.53-5.88s-3.7-3.15-6.33-3.11a21.39,21.39,0,0,0-4.52.3c-3.52.81-5.32-.84-6.53-3.91a55.34,55.34,0,0,1-3-28.26c1.65-12.15,7-22.74,13.52-32.85,4.18-6.5,8.41-13,13.56-18.81.95-1.08,2.35-2.47.83-3.92-1.24-1.17-2.52.07-3.57.83-1.77,1.28-3.5,2.63-5.17,4a274.13,274.13,0,0,1-52.83,34.2c-12.25,6.19-19.31,4.78-28.89-5.13-1.16-1.21-2.28-2.47-3.33-3.78-11.76-14.77-18-31.75-20.22-50.35-.19-1.52.41-4-1.9-4s-2,2.38-1.88,4c.92,9.37,1.65,18.77,4.37,27.86,3.71,12.43,10.31,23.3,18,33.58.67.88,2,1.61,1.34,3-.42.83-1.47.67-2.29.5-11.82-2.46-23.77-1.84-35.71-1.5-3.56.11-4.14-1.08-2.3-4.13,4.13-6.82,6.69-14.3,8.78-22,5.12-18.79,6-38.14,7.47-57.41.25-3.32.67-6.85-1.23-10.12q-2,9-3.09,18.12c-2.62,19.87-5.72,39.67-13.53,58.29-8,19-19,22.57-37.22,12.64-.44-.24-.87-.51-1.31-.75C170.75,95.17,160.69,87,150.59,78.88c-16.77-13.45-34.91-25.25-49.79-41a19.42,19.42,0,0,0-3.7-2.6c-.83-.55-1.84-1.35-2.73-.6-1.21,1-.17,2.16.32,3.17A12.11,12.11,0,0,0,96,40a350,350,0,0,1,25.57,39.31c6.55,11.56,12.76,23.45,16.47,36.21,5.12,17.66.13,25.94-15.43,31.68-10.48,3.86-21.43,4-32.32,4.67-16.92,1-33.53-1.57-50.09-4.74-2.06-.39-5.69-2.32-6.29.07-.66,2.63,3.34,3.05,5.55,3.82,19.81,7,40.31,9,61.16,7.7,9.73-.61,19.46-1.51,28.53-5.69,10.23-4.7,16.92-12.05,18-23.62.51-5.44-.64-10.75-2.37-15.85C139.55,98,132,83.57,123.39,69.64c-.79-1.27-1.47-2.61-2.2-3.93,10.64,7.59,20.45,15.74,30.25,23.92,10.6,8.84,21,17.89,34.1,23.1,1.33.53,3.42.65,3.35,2.5s-2.13,1.94-3.44,2.55a119.32,119.32,0,0,0-30.92,20.65,128.26,128.26,0,0,0-33.22,49.37c-2.33,6.08-12,9.86-15.87,6C94,182.28,80,175.24,65.43,168.87c-11.27-4.93-23-8.7-34.57-12.65-1.05-.36-2.44-1.31-3.08.19s.93,2,1.95,2.46c2,1,3.94,1.89,5.95,2.74,11.48,4.84,22.82,10,33.76,15.93,9.31,5.06,18.62,10.19,26.58,17.3,5.33,4.77,5.3,5.14.24,10.17-10.11,10.05-13.08,22.79-13.64,36.38-.13,3.2,1.12,6.25,4.7,6.86s5.29-2.2,6.52-5.12c1.33-3.14,1.61-6.51,2.28-9.81,1.45-7.11,3.25-14.12,7.89-20,.81-1,1.69-2.33,3.25-2s1.6,2,1.94,3.23c1.79,6.61-.19,12.64-3,18.5-7.93,16.62-20.06,29.87-34.36,41-15,11.7-30.49,22.66-45.73,34-2.32,1.73-5,3.18-6.48,6.4,2.63.8,4.23-.67,5.9-1.55,15-8,29.14-17.44,43.24-26.93,17.11-11.52,31.8-25.31,42-43.48.58-1,.69-3,2.51-2.56,1.33.35,1,2,1.07,3.1a115.36,115.36,0,0,0,16.27,49.4c.54.89,1.7,1.82.57,3.3-4-1-7.63-3.25-11.85-3.78a108.6,108.6,0,0,0-51.66,5.6c-15.15,5.56-30.49,10.74-44,19.87-1.48,1-3.68,2.13-2.4,4.27,1,1.75,3,.65,4.6.08.95-.34,1.86-.8,2.78-1.21,14.31-6.35,28.86-12.09,44-16.21,13.56-3.7,27.34-5.42,41.42-4C127,301.68,135,309,137.48,321.69a75.45,75.45,0,0,1,1.25,11.51c.71,16.83-2.23,33.13-6.48,49.32-3.21,12.19-6,24.5-8.8,36.78-.38,1.65-1.07,4.1,1.42,4.69,2,.46,2.68-1.64,3.39-3.15a80.61,80.61,0,0,1,8.55-14.24c13.29-17.67,28.16-33.51,49.08-42.33,14.32-6,20.7-4,29.49,8.78,14.41,21,20.68,45.07,26.88,69.2,1.55,6,2.91,12.1,4.42,18.13.33,1.31,1,2.81,2.52,2.8,1.85,0,1.76-1.81,1.82-3.06.16-2.85.19-5.71.13-8.56-.43-21.44,1.86-42.48,11.81-61.8,9.84-19.11,24-33.76,46.09-38.26,12.65-2.59,25.73-2.92,38,1,16.11,5.12,33.26,6.57,48.65,14.06.25.12.64-.07,1.35-.17-.28-2.25-1.89-3.07-3.09-4.17-8.42-7.72-17.23-15.07-25.22-23.22-8.79-9-13.12-19.82-8.18-32.28,4.8-12.1,13.1-20.59,26.77-22.51a125.48,125.48,0,0,1,51,3.56,30,30,0,0,0,10.44,1.43c1.9-.16,3.86-.49,4.23-2.79S451.32,283.79,449.84,283.11ZM294,113.79c10.11-4.41,18.93-10.88,27.8-17.26,2.1-1.51,4.25-2.94,6.59-4.57.65,2.6-.72,3.87-1.42,5.29-5.5,11-8.56,22.6-7.8,35,.08,1.39.95,3.38-.71,4.12s-2.55-1.24-3.72-2.07A19.93,19.93,0,0,1,311,131c-4.5-5.45-9.79-9.6-16.81-11.4-1.65-.43-4.05-1.09-4.06-3.23S292.56,114.41,294,113.79ZM132.43,183.1A100.34,100.34,0,0,1,148.8,156c26-30.54,59.06-45.34,99.26-43.21,9.08.48,17.9,3,26.4,6.37,1.36.54,3.27.79,3.59,2.43.38,1.93-1.73,2.17-2.89,3-4.22,2.93-7.8,6.4-9.77,11.26-.63,1.57-1.45,3.48.14,4.66s2.67-.72,3.73-1.63a32.62,32.62,0,0,1,9.07-5.38c9.82-4,18.93-4,26.89,4.19,4,4.11,8.17,8,12.33,11.91,3.21,3,2.11,4.45-1.68,5-11,1.51-22,2.92-33,4.52-6.14.89-12.77.08-17.37,6.18-1.36,1.79-5,2.26-7.19-.4s-4.86-2.7-7.77-2.63a372.88,372.88,0,0,0-48.68,4.57l-9.61,1.8c-.38-1.43-.25-3.86.91-8-2.15,1.94-4,2.66-5.5,2.66-3.87,0-5.79-4.66-6.1-6.07-1.11,8-5.15,9.54-8.17,9.54a11.48,11.48,0,0,1-1.17-.07,8.37,8.37,0,0,1,2.44,5.23L169,173c-4.38,1.2-8.21,3-9.89,7.71-.5,1.41-2,1.78-3.27,2.1-6.7,1.64-13.39,3.28-20.11,4.84-1.4.33-3.17,1.34-4.2-.21S131.87,184.46,132.43,183.1Zm164.1,29.43c-4.44,1.51-9.06,2.49-13.82,1.68-2-.34-4.11-1-4.45-3.39s1.51-3.61,3.36-4.46a28.4,28.4,0,0,1,14.81-2.85c1.91.34,6.59-1.29,7.34,3C304.58,211,299.67,211.47,296.53,212.53ZM175.86,168.44c2.23-.57,4.74-2.1,6.35-5.83a7.21,7.21,0,0,0,5.46,2.66,7.73,7.73,0,0,0,2.52-.45c-.37,2.81-.05,4.75.95,6.07a5,5,0,0,0,.37.43,9.48,9.48,0,0,0-1.77,3,10.78,10.78,0,0,0-.57,4.4h0a14.44,14.44,0,0,0-9,3.54,7.42,7.42,0,0,0-4.49-4.33C176.43,175.61,177.49,172.08,175.86,168.44ZM164.52,364.88c-11.12,7.52-19.66,17.66-28.26,28.12,8.78-25.22,15.58-50.51,10.07-77.88a149.59,149.59,0,0,0,54.58,34.54C186.91,350.73,175.53,357.44,164.52,364.88Zm249.23-92.3c-10.42-.88-20.83-1.37-31.06,1.53-16.12,4.58-26.41,15.25-30.73,31.17-4,14.86,1.08,27.4,11.65,38.09,5.27,5.33,11.37,9.69,16.9,14.81-9-3.84-17.85-7.71-27.07-10.58-19.57-6.08-39.48-7.94-58.91-.31-22.57,8.86-36.14,26.59-44.36,48.84-2.62,7.08-3.85,14.53-6,21.93-7-24.8-13.64-49.65-35.48-66.44,63,10.31,111.39-10.68,141.34-67.81,15-28.65,16.27-59.26,4.74-89.84-1,4.29.57,8.39,1.3,12.51,10,56.38-19.88,110.57-72.73,131.63-60.28,24-129.19-5.73-152.73-66.33a114,114,0,0,1-5.43-65.46c.7-3.42,2.26-5.34,5.64-6.13,9.18-2.14,18.33-4.33,27.46-6.67,4.11-1.05,6.07.26,7.29,4.4,2.53,8.58,2.73,8.49-5.15,12.81s-14.34,10-18.08,18.34a26.65,26.65,0,0,0-1.37,3.78c-.31,1.12-.62,2.47.7,3.14s2.13-.56,2.78-1.49a48.66,48.66,0,0,1,10.8-11.2c15.26-11.48,32.11-11.4,49.58-7,2.12.54,4.38.82,6.31,1.77,15.07,7.38,24.77-1.86,34.11-11.24,6.44-6.48,9.87-14.78,11.27-23.81.47-3,1.79-4.86,4.94-5.45,3.41-.65,5.59.12,6.06,3.93.31,2.5.8,5,1.31,7.46.3,1.49.77,3.37,2.45,3.44,2.3.1,1.4-2.16,1.82-3.45a10.15,10.15,0,0,1,.57-1.26c.42.17.81.21,1,.43,6.27,7.83,6.28,7.86-2.61,12.12-3.82,1.84-7.43,3.93-10.13,7.32-6.28,7.9-3,18.74,6.93,20.41,13.26,2.25,26.19.87,37.54-7.47,3.8-2.8,6.58-6.37,7.31-11.08.48-3.11,2.16-4.6,4.92-5.66,14-5.38,21.88-16.08,25.69-30.13.48-1.8,1.19-2.24,2.76-1.78,15.15,4.43,30.31,2.43,45.48.13.12,0,.27.17.48.31,0,2-1.83,2.62-3,3.67-7.45,6.73-13.86,14.27-17.68,23.64-6.54,16-4.47,30.51,8,43.15,9.66,9.77,20.93,17.37,32.23,25,1.88,1.27,4.2,2.1,5.41,4.35-1.35,1.59-2.87.6-4.25.48Z" transform="translate(0.05 0)" style="fill:#474747"/><path d="M293.56,138.46c-8.08-2.22-27.8,4.51-13.94,11.69C288.4,154.7,306,141.89,293.56,138.46Z" transform="translate(0.05 0)" style="fill:#fffbe9"/><path d="M324.85,281c-17.84-10.14-18.06,11.38-24.37,21-10.38,15.86-23,15.88-23,20.89,0,3.8,21.43-5.86,25.59-8.62C312.42,308,331.4,294.45,324.85,281Z" transform="translate(0.05 0)" style="fill:#fffbe9"/><path d="M265.91,325.23a2.88,2.88,0,0,0-2.13-2.39,4.16,4.16,0,0,0-4.68,6,4.22,4.22,0,0,0,7.16-.09A3.21,3.21,0,0,0,265.91,325.23Z" transform="translate(0.05 0)" style="fill:#fffbe9"/></g></g></svg>