<svg id="Layer_1" data-name="Layer 1" xmlns="http://www.w3.org/2000/svg" viewBox="0 0 451 330"><title>sunglasses</title><g id="Layer_2" data-name="Layer 2"><g style="opacity:0.12"><path d="M413.41,32.17h0c-.41.21-1.58,10.19-1.77,10.88A43.31,43.31,0,0,1,405,57a42.71,42.71,0,0,1-9.24,9.26c-1,.78-10.11,6.59-11,6.59h0c2.17,2.47,21.7,4,26.67,28.41.18.89,2.26,11.75,2.37,11.75.47-.13,1.37-8,1.4-9.15.59-25.3,27.61-30.31,27.47-31.61-8.28-4.55-15.79-8-21.68-17.18a43.09,43.09,0,0,1-5.74-13.58C415,40.54,413.85,32.17,413.41,32.17Z" transform="translate(0.01)" style="fill:#6a374f;stroke:#6a374f;stroke-linecap:round;stroke-linejoin:round;stroke-width:16px"/><path d="M413.47,40.9h0c-.31.15-1.19,7.7-1.34,8.22a32.82,32.82,0,0,1-5,10.55,32.27,32.27,0,0,1-7,7c-.79.59-7.64,5-8.28,5h0c1.65,1.87,16.41,3,20.16,21.48.14.68,1.72,8.89,1.8,8.89.35-.1,1-6,1.05-6.92.45-19.13,20.89-22.92,20.78-23.9-6.27-3.44-11.94-6.08-16.39-13A32.34,32.34,0,0,1,414.91,48C414.67,47.23,413.81,40.9,413.47,40.9Z" transform="translate(0.01)" style="fill:#6a374f"/><path d="M413.41,59.27c.39.69.79,1.36,1.22,2a34.57,34.57,0,0,0,10.05,10.14A32,32,0,0,0,413,82.71,29.62,29.62,0,0,0,402.16,71.8l.41-.29A39,39,0,0,0,411,63.06a35.85,35.85,0,0,0,2.43-3.79m-.16-18.9h0c-.33.17-1.25,8-1.4,8.56a33.25,33.25,0,0,1-12.49,18.24c-.82.61-8,5.18-8.61,5.18h0c1.71,2,17.06,3.17,21,22.33.14.7,1.78,9.24,1.86,9.24.37-.11,1.08-6.29,1.1-7.19.47-19.89,21.7-23.82,21.59-24.84-6.51-3.58-12.41-6.33-17-13.5a34.13,34.13,0,0,1-4.51-10.68c-.32-.71-1.22-7.34-1.56-7.34Z" transform="translate(0.01)" style="fill:#6a374f;stroke:#6a374f;stroke-miterlimit:10;stroke-width:0.75px"/><path d="M394.59,168.54c0-6,.08-11.93.31-17.89.31-8,.69-15.91,4-23.37a11.18,11.18,0,0,0,.51-6.69c-1.69-9.39-4.81-18.39-7.56-27.48a5.21,5.21,0,0,0-4.16-3.77,40.5,40.5,0,0,0-8-.8,207.92,207.92,0,0,0-42.43,2.78c-16.53,2.66-33.06,5.15-48.61,12-13.9,6.12-27.91,12-41.6,18.58-9.84,4.74-19.4,10.07-29.6,14.07-6.57,2.57-13.33,4.12-20.37,3.56a206,206,0,0,1-26-4.27,159,159,0,0,0-53.38-1.73A375,375,0,0,0,55.4,147.3C46.46,150,37.66,152.73,29,156c-2.93,1.11-4.11,2.84-4,6.09a283.74,283.74,0,0,0,2.53,29.26,10.62,10.62,0,0,0,1.83,4.71,74.57,74.57,0,0,1,6.11,11.68c6,13.32,10.42,27.32,16.62,40.57,4.45,9.49,8.35,19.31,15,27.63,1.07,1.35.94,2.34,0,3.72-2.2,3.1-2.85,6.75-3.21,10A13,13,0,0,0,65,295.47a60.24,60.24,0,0,0,7.76,12.19,18,18,0,0,0,3.45,3.14c2.77,2,5.1,1.87,7.77-.25a11.56,11.56,0,0,0,3-3.56c2.81-5.09,6-10,8.27-15.35a2.37,2.37,0,0,1,2.45-1.81c11.76-.1,23-3.25,34.36-5.8,10.28-2.32,20-6.45,29.72-10.33a28.46,28.46,0,0,0,14-11.32A164.66,164.66,0,0,0,192,228.32c2.68-7.92,5.7-15.74,8.24-23.71,1.06-3.32,3.19-4.77,6.23-5.65,7.67-2.22,15.55-3.22,23.45-4.11a6,6,0,0,1,6.43,3c4.47,6.74,9.12,13.36,13.78,20,8.45,12,18.41,22.31,31.74,29a34.55,34.55,0,0,0,10.39,3.68,69.11,69.11,0,0,0,16.12.94c10.05-.9,20.13-1.52,30-3.43,11.65-2.24,23.75-3.09,34-10,1.09-.73,1.83-.13,2.56.64a64.49,64.49,0,0,0,5,5.19c5,4.16,9,3.36,13-1.79,6.32-8.12,4.2-23.7-.81-29.75-2.06-2.5-2.22-4.81-1.61-7.75A174.91,174.91,0,0,0,394.59,168.54Z" transform="translate(0.01)" style="fill:#6a374f;stroke:#6a374f;stroke-miterlimit:10;stroke-width:34px"/><path d="M395.6,168.54c0-6,.07-11.93.31-17.89.3-8,.68-15.91,3.95-23.37a11.18,11.18,0,0,0,.51-6.69c-1.69-9.39-4.81-18.39-7.56-27.48a5.21,5.21,0,0,0-4.16-3.77,40.5,40.5,0,0,0-8-.8,207.92,207.92,0,0,0-42.43,2.78c-16.53,2.66-33.05,5.15-48.61,12-13.9,6.12-27.91,12-41.6,18.58-9.84,4.74-19.4,10.07-29.6,14.07-6.57,2.57-13.33,4.12-20.37,3.56a206,206,0,0,1-26-4.27,159,159,0,0,0-53.38-1.73,375,375,0,0,0-62.3,13.77c-8.9,2.7-17.7,5.43-26.36,8.7-2.93,1.11-4.11,2.84-4,6.09a281,281,0,0,0,2.52,29.26,10.62,10.62,0,0,0,1.83,4.71,74.57,74.57,0,0,1,6.11,11.68c6,13.32,10.42,27.32,16.62,40.57,4.45,9.49,8.35,19.31,15,27.63,1.07,1.35.94,2.34,0,3.72-2.2,3.1-2.85,6.75-3.21,10a13,13,0,0,0,1.07,5.81,60.24,60.24,0,0,0,7.76,12.19,18,18,0,0,0,3.45,3.14c2.77,2,5.1,1.87,7.78-.25a11.56,11.56,0,0,0,3-3.56c2.81-5.09,6-10,8.27-15.35a2.37,2.37,0,0,1,2.45-1.81c11.76-.1,23-3.25,34.36-5.8,10.28-2.32,20-6.45,29.72-10.33a28.46,28.46,0,0,0,14-11.32A164.66,164.66,0,0,0,193,228.32c2.68-7.92,5.7-15.74,8.25-23.71,1.05-3.32,3.18-4.77,6.22-5.65,7.67-2.22,15.55-3.22,23.45-4.11a6,6,0,0,1,6.43,3c4.47,6.74,9.12,13.36,13.78,20,8.45,12,18.41,22.31,31.74,29a34.55,34.55,0,0,0,10.39,3.68,69.19,69.19,0,0,0,16.13.94c10-.9,20.13-1.52,30-3.43,11.65-2.24,23.76-3.09,34-10,1.09-.73,1.83-.13,2.56.64a64.49,64.49,0,0,0,5,5.19c5,4.16,9,3.36,13-1.79,6.32-8.12,4.2-23.7-.81-29.75-2.06-2.5-2.22-4.81-1.61-7.75A175.68,175.68,0,0,0,395.6,168.54Z" transform="translate(0.01)" style="fill:#6a374f"/><path d="M367.76,138.9a17.45,17.45,0,0,0-5.9-8.54A42.89,42.89,0,0,0,346.32,123c-6.44-1.57-13-1.39-19.53-1.58-14.63-.26-28.75,2.7-42.56,7.2a73.62,73.62,0,0,0-27.77,15.94c-6.46,6-9.14,13.29-6.87,22.15,1.32,5.15,2.36,10.4,3.95,15.46,3.27,10.39,6.33,21,12.28,30.16,8.47,13.11,20.22,21,35.71,23.09a82.69,82.69,0,0,0,22-.33c11.62-1.54,22.85-4.26,32.93-10.83a20.3,20.3,0,0,0,7.8-9,101.08,101.08,0,0,0,8.38-33.17C373.84,167.38,372.92,152.89,367.76,138.9Z" transform="translate(0.01)" style="fill:#6a374f"/><path d="M160.12,161.68A54.66,54.66,0,0,0,146.57,157c-23.34-4.45-45.45-.56-66.52,10a65.34,65.34,0,0,0-11.64,7.62c-1.31,1-3,2-2.93,4a8.69,8.69,0,0,0-3.4,3.8A34.53,34.53,0,0,0,58.82,199a118.82,118.82,0,0,0,7.94,35.28c3.79,9.86,8.49,19.15,15.82,26.94,3.71,4,7.93,7.12,13.4,8.21a77,77,0,0,0,24.47.95c10.51-1.3,20.78-3.53,30-9.07,7.61-4.58,14-10.26,18.13-18.36a94.58,94.58,0,0,0,8.14-22.59c3.29-14.94,2.55-29.69-3.09-44.08A26.41,26.41,0,0,0,160.12,161.68Z" transform="translate(0.01)" style="fill:#6a374f"/><path d="M63.82,290.74c.36-3.28,1-6.94,3.21-10,1-1.38,1.11-2.37,0-3.72-6.63-8.32-10.53-18.14-15-27.63-6.2-13.25-10.59-27.25-16.62-40.57a74.57,74.57,0,0,0-6.11-11.68,10.62,10.62,0,0,1-1.83-4.71A281.88,281.88,0,0,1,25,163.13c-.1-3.25,1.08-5,4-6.09,8.64-3.27,17.44-6,26.26-8.7a375,375,0,0,1,62.3-13.77,159.83,159.83,0,0,1,53.38,1.73,206,206,0,0,0,26,4.27c7,.57,13.8-1,20.37-3.56,10.2-4,19.76-9.33,29.6-14.07,13.69-6.59,27.7-12.45,41.6-18.57,15.55-6.86,32.08-9.35,48.61-12a207.22,207.22,0,0,1,42.43-2.79,40.5,40.5,0,0,1,8,.8,5.21,5.21,0,0,1,4.16,3.77c2.75,9.1,5.87,18.09,7.56,27.48a11.18,11.18,0,0,1-.51,6.69c-3.27,7.46-3.65,15.42-4,23.37-.23,6-.31,11.93-.31,17.89a174.88,174.88,0,0,1-3.95,35.92c-.61,2.94-.45,5.25,1.61,7.75,5,6.05,7.13,21.63.81,29.75-4,5.15-8,5.95-13,1.79a59.75,59.75,0,0,1-5-5.19c-.73-.77-1.47-1.37-2.56-.63-10.28,7-22.38,7.8-34,10.05-9.91,1.9-20,2.53-30,3.42a69.11,69.11,0,0,1-16.12-.94,34.53,34.53,0,0,1-10.39-3.67c-13.33-6.68-23.29-17-31.74-29-4.66-6.61-9.31-13.24-13.78-20a6,6,0,0,0-6.43-3c-7.9.89-15.78,1.89-23.45,4.12-3,.88-5.17,2.32-6.23,5.64-2.54,8-5.56,15.79-8.24,23.71a164.68,164.68,0,0,1-16.35,34.09,28.46,28.46,0,0,1-14,11.32c-9.75,3.89-19.44,8-29.72,10.33-11.35,2.55-22.6,5.7-34.36,5.8a2.37,2.37,0,0,0-2.45,1.81C92.87,298,89.64,302.91,86.83,308a11.56,11.56,0,0,1-3,3.56c-2.67,2.12-5,2.25-7.77.25a18,18,0,0,1-3.45-3.14,60.24,60.24,0,0,1-7.76-12.19A13,13,0,0,1,63.82,290.74Zm238.25-41.63c2.7,0,5.41.19,8.09,0,12.74-1.09,25.43-2.59,38-4.94,6-1.13,11.95-2.41,17.58-4.94,8.6-3.86,14.85-9.85,17.82-18.94,1-3,2-5.93,2.71-9A189.78,189.78,0,0,0,391.35,167c-.07-13.89-.54-27.9,4.83-41.19a6.88,6.88,0,0,0,.09-3.79c-1.62-9-4.53-17.59-7.28-26.24a2.91,2.91,0,0,0-2.66-2.33c-2.25-.27-4.49-1-6.73-1-6.67,0-13.34.31-20,.48s-13.27,1.39-19.9,2.13a182.08,182.08,0,0,0-40.29,8.71c-16.89,5.93-33,13.86-49.26,21.25-10.6,4.82-20.79,10.51-31.63,14.81-7,2.76-14.17,4.34-21.65,3.67a207.77,207.77,0,0,1-26.46-4.3c-10.9-2.42-21.92-3.1-33-3.24-14.85-.18-29.47,2.07-43.92,5.17A455.8,455.8,0,0,0,33,158.53c-4.85,1.77-4.91,1.77-5.08,6.95-.17,5.41.61,10.77,1.15,16.14.6,5.92,1.65,11.45,4.69,16.93,5.08,9.16,8.75,19.08,12.28,29,2.52,7.09,5.07,14.18,8.27,21,4,8.48,7.72,17.09,13.14,24.82a31.78,31.78,0,0,0,18.76,13.12,52.78,52.78,0,0,0,21.12,1.07c18.34-2.75,36.2-7.16,53.11-15a30.86,30.86,0,0,0,13.78-11.66,151.19,151.19,0,0,0,9.3-16.75c5-11,8.82-22.45,12.77-33.85,2.27-6.56,4.4-13.25,8.6-18.93C212,181.68,224.26,181,232.19,190a137.29,137.29,0,0,1,13.92,18.28,132.62,132.62,0,0,0,17,22.32c10.67,10.9,22.51,19.72,39,18.56ZM93.19,290.77c-8-1.77-15.23-3.6-21-8.86-.88-.8-1.77-1-2.36.31C68.11,286,66.6,290,68.08,294.09a44.23,44.23,0,0,0,8.67,14c2.55,2.91,4.28,2.58,6.34-.6a12,12,0,0,0,.63-1.1A85.13,85.13,0,0,1,93.19,290.77Zm281.72-53.46c1.89,1.53,3.26,2.54,4.52,3.67,6.25,5.64,10.27,4.6,13.09-3.41a7.59,7.59,0,0,0,.46-1.63c.9-6.7.73-13.3-2-19.63-.4-.93-.57-2.16-2.12-2.49C386.08,222.37,383.32,230.93,374.91,237.31ZM230.84,193c-3.52-5.75-6.81-7.73-11.66-7.19-7,.78-12.1,4.16-15,11.58C213.18,194.85,221.92,193.85,230.84,193Z" transform="translate(0.01)" style="fill:#6a374f;stroke:#6a374f;stroke-linecap:round;stroke-linejoin:round;stroke-width:4px"/><path d="M326.79,120.83c6.52.18,13.09,0,19.53,1.56a43.34,43.34,0,0,1,15.54,7.23,17.25,17.25,0,0,1,5.9,8.44c5.16,13.82,6.08,28.13,4.85,42.67a99.19,99.19,0,0,1-8.38,32.76,20.16,20.16,0,0,1-7.8,8.92c-10.08,6.49-21.31,9.17-32.93,10.7a83.11,83.11,0,0,1-22,.32c-15.49-2.05-27.24-9.85-35.71-22.8-6-9.1-9-19.53-12.28-29.8-1.59-5-2.63-10.18-3.95-15.26-2.27-8.76.41-16,6.87-21.88a73.9,73.9,0,0,1,27.77-15.75C298,123.5,312.16,120.57,326.79,120.83Zm43.12,52.06a66.54,66.54,0,0,0-.35-11.29c-.7-9.66-2.66-19-6.92-27.79a8.57,8.57,0,0,0-3.43-3.93,44.62,44.62,0,0,0-17.61-6.08,110.16,110.16,0,0,0-21.56-.09c-15,1.27-29.61,4-43.49,10-7.62,3.33-15.05,6.91-21.11,13-4.55,4.54-6.36,9.59-5.18,16a220.42,220.42,0,0,0,9.08,32.48,73.91,73.91,0,0,0,7,15.29c7,11.11,16.76,18.39,29.63,20.66,18,3.18,35.38.55,52.21-6.57,8.52-3.61,13.87-9.81,16.49-18.63.35-1.18.74-2.35,1.06-3.54C368.41,192.55,370.27,182.58,369.91,172.89Z" transform="translate(0.01)" style="fill:#6a374f;stroke:#6a374f;stroke-linecap:round;stroke-linejoin:round;stroke-width:4px"/><path d="M65.82,177.72c0-2,1.59-2.95,2.88-4a66.22,66.22,0,0,1,11.51-7.52C101,155.84,122.88,152,146,156.39A54.35,54.35,0,0,1,159.34,161a26.11,26.11,0,0,1,13.36,14.48c5.57,14.22,6.3,28.77,3.05,43.54a93.68,93.68,0,0,1-8,22.3c-4.07,8-10.39,13.61-17.92,18.12-9.12,5.48-19.26,7.68-29.65,9a75.8,75.8,0,0,1-24.18-1c-5.4-1.07-9.57-4.2-13.24-8.1-7.24-7.69-11.89-16.86-15.63-26.61a116.82,116.82,0,0,1-7.84-34.83,33.79,33.79,0,0,1,3.22-16.41A8.57,8.57,0,0,1,66,177.65a42.27,42.27,0,0,0-3.73,12.68c-1.46,10.24.27,20.07,3.32,29.79,2.14,6.81,5.15,13.27,8,19.82a68.26,68.26,0,0,0,10,16.06c6.61,8.17,15.17,11.74,25.67,11.14a110.77,110.77,0,0,0,40.62-10.35,33.74,33.74,0,0,0,18-19.75A98.52,98.52,0,0,0,174,210c.83-10.62.92-21.2-2.73-31.49-2.53-7.12-7.16-12.46-14-15.39a69.28,69.28,0,0,0-31.68-5.87c-19.37,1.2-37.46,6.7-53.84,17.3C69.85,175.77,68.26,177.56,65.82,177.72Z" transform="translate(0.01)" style="fill:#6a374f;stroke:#6a374f;stroke-linecap:round;stroke-linejoin:round;stroke-width:4px"/><path d="M369.24,112.52a3.8,3.8,0,0,1-3.74-3.74,3.62,3.62,0,0,1,3.41-3.83h.17a3.81,3.81,0,0,1,4,3.61v.27A4,4,0,0,1,369.24,112.52Z" transform="translate(0.01)" style="fill:#6a374f;stroke:#6a374f;stroke-linecap:round;stroke-linejoin:round;stroke-width:0.75px"/><path d="M45.22,171.42a3.77,3.77,0,0,1-3.78,3.76h0a3.93,3.93,0,0,1-3.75-3.88,3.75,3.75,0,0,1,3.81-3.69h.06a3.6,3.6,0,0,1,3.69,3.52A1.41,1.41,0,0,1,45.22,171.42Z" transform="translate(0.01)" style="fill:#6a374f;stroke:#6a374f;stroke-linecap:round;stroke-linejoin:round;stroke-width:0.75px"/><path d="M49.47,173.6a3.77,3.77,0,0,1,3.93,3.52,3.91,3.91,0,0,1-3.82,4H49.5a3.76,3.76,0,0,1-3.67-3.79,3.62,3.62,0,0,1,3.51-3.73Z" transform="translate(0.01)" style="fill:#6a374f;stroke:#6a374f;stroke-linecap:round;stroke-linejoin:round;stroke-width:0.75px"/><path d="M379.39,117.13a3.73,3.73,0,0,1-3.71,3.77h-.07a3.91,3.91,0,0,1-3.77-3.85,3.73,3.73,0,0,1,3.76-3.72h.07a3.65,3.65,0,0,1,3.72,3.58Z" transform="translate(0.01)" style="fill:#6a374f;stroke:#6a374f;stroke-linecap:round;stroke-linejoin:round;stroke-width:0.75px"/><path d="M382.79,107.68a3.6,3.6,0,0,1-3.73,3.47l-.27,0a3.69,3.69,0,0,1-3.5-3.87s0-.09,0-.13a3.86,3.86,0,0,1,4.06-3.52,3.73,3.73,0,0,1,3.43,4Z" transform="translate(0.01)" style="fill:#6a374f;stroke:#6a374f;stroke-linecap:round;stroke-linejoin:round;stroke-width:0.75px"/><path d="M57.76,168.56a3.34,3.34,0,0,1-3.28,3.25,3.87,3.87,0,0,1-3.69-3.9,3.34,3.34,0,0,1,3.27-3.27A3.92,3.92,0,0,1,57.76,168.56Z" transform="translate(0.01)" style="fill:#6a374f;stroke:#6a374f;stroke-linecap:round;stroke-linejoin:round;stroke-width:0.75px"/><path d="M355.5,165.61c-5.74-26.93-34.59-35.65-44-20.77-2.45,3.88-2.59,9.29-2,12.12,1.28,6,6.42,11.23,14,10.27,18.31-2.35,19.38,20.22,20.17,27,.65,5.57,2.31,7.66,5.86,6.78C354.18,199.8,359.34,183.66,355.5,165.61Z" transform="translate(0.01)" style="fill:#6a374f"/><path d="M135.9,246.13c6.94,4.7,16.48-3.56,19.11-7.72,6.36-10-10.86-17.33-13-4.8C140.36,243.42,133.85,242.63,135.9,246.13Z" transform="translate(0.01)" style="fill:#6a374f"/><circle cx="156.42" cy="211.75" r="6.17" style="fill:#6a374f"/><path d="M367.2,17h0c-.19.1-.75,4.85-.84,5.18a20.59,20.59,0,0,1-3.17,6.65,20.91,20.91,0,0,1-4.4,4.41,46,46,0,0,1-5.22,3.14h0c1,1.18,10.34,1.92,12.7,13.53.08.43,1.08,5.6,1.13,5.6h0a23,23,0,0,0,.66-4.36c.29-12,13.16-14.44,13.09-15C377.2,34,373.63,32.31,370.82,28a20.35,20.35,0,0,1-2.73-6.46C368,21,367.41,17,367.2,17Z" transform="translate(0.01)" style="fill:#6a374f;stroke:#6a374f;stroke-linecap:round;stroke-linejoin:round;stroke-width:18px"/><path d="M367.2,16.65h0c-.19.1-.75,4.85-.84,5.18a20.59,20.59,0,0,1-3.17,6.65,20.91,20.91,0,0,1-4.4,4.41A45.89,45.89,0,0,1,353.56,36h0c1,1.18,10.34,1.92,12.7,13.53.08.43,1.08,5.6,1.13,5.6h0a23,23,0,0,0,.66-4.36c.29-12,13.16-14.43,13.09-15-3.95-2.17-7.52-3.83-10.33-8.19a20.35,20.35,0,0,1-2.73-6.46C368,20.64,367.41,16.65,367.2,16.65Z" transform="translate(0.01)" style="fill:#6a374f"/><path d="M370.29,18h0m-3,10.43c.23.42.48.83.74,1.23a20.88,20.88,0,0,0,6.09,6.15A19.41,19.41,0,0,0,367,42.66a18,18,0,0,0-6.56-6.61l.25-.18a23.81,23.81,0,0,0,5.1-5.12,20.39,20.39,0,0,0,1.47-2.3M367.2,17h0c-.19.1-.75,4.85-.84,5.18a20.59,20.59,0,0,1-3.17,6.65,20.91,20.91,0,0,1-4.4,4.41,46,46,0,0,1-5.22,3.14h0c1,1.18,10.34,1.92,12.7,13.53.08.43,1.08,5.6,1.13,5.6h0a23,23,0,0,0,.66-4.36c.29-12,13.16-14.44,13.09-15C377.2,34,373.63,32.31,370.82,28a20.35,20.35,0,0,1-2.73-6.46C368,21,367.41,17,367.2,17Z" transform="translate(0.01)" style="fill:#6a374f;stroke:#6a374f;stroke-miterlimit:10;stroke-width:0.75px"/><polygon points="356.85 41.63 356.85 41.63 356.85 41.63 356.85 41.63" style="fill:#6a374f"/></g><g id="Layer_1-2" data-name="Layer 1-2"><path d="M405.41,24.17h0c-.41.21-1.58,10.19-1.77,10.88A43.31,43.31,0,0,1,397,49a42.71,42.71,0,0,1-9.24,9.26c-1,.78-10.11,6.59-11,6.59h0c2.17,2.47,21.7,4,26.67,28.41.18.89,2.26,11.75,2.37,11.75.47-.13,1.37-8,1.4-9.15.59-25.3,27.61-30.31,27.47-31.61-8.28-4.55-15.79-8-21.68-17.18a43.09,43.09,0,0,1-5.74-13.58C407,32.54,405.85,24.17,405.41,24.17Z" transform="translate(0.01)" style="fill:#fff;stroke:#fff;stroke-linecap:round;stroke-linejoin:round;stroke-width:16px"/><path d="M405.47,32.9h0c-.31.15-1.19,7.7-1.34,8.22a32.82,32.82,0,0,1-5,10.55,32.27,32.27,0,0,1-7,7c-.79.59-7.64,5-8.28,5h0c1.65,1.87,16.41,3,20.16,21.48.14.68,1.72,8.89,1.8,8.89.35-.1,1-6,1.05-6.92.45-19.13,20.89-22.92,20.78-23.9-6.27-3.44-11.94-6.08-16.39-13A32.34,32.34,0,0,1,406.91,40C406.67,39.23,405.81,32.9,405.47,32.9Z" transform="translate(0.01)" style="fill:#eab9e5"/><path d="M405.41,51.27c.39.69.79,1.36,1.22,2a34.57,34.57,0,0,0,10.05,10.14A32,32,0,0,0,405,74.71,29.62,29.62,0,0,0,394.16,63.8l.41-.29A39,39,0,0,0,403,55.06a35.85,35.85,0,0,0,2.43-3.79m-.16-18.9h0c-.33.17-1.25,8-1.4,8.56a33.25,33.25,0,0,1-12.49,18.24c-.82.61-8,5.18-8.61,5.18h0c1.71,2,17.06,3.17,21,22.33.14.7,1.78,9.24,1.86,9.24.37-.11,1.08-6.29,1.1-7.19.47-19.89,21.7-23.82,21.59-24.84-6.51-3.58-12.41-6.33-17-13.5a34.13,34.13,0,0,1-4.51-10.68c-.32-.71-1.22-7.34-1.56-7.34Z" transform="translate(0.01)" style="fill:#474747;stroke:#474747;stroke-miterlimit:10;stroke-width:0.75px"/><path d="M386.59,160.54c0-6,.08-11.93.31-17.89.31-8,.69-15.91,4-23.37a11.18,11.18,0,0,0,.51-6.69c-1.69-9.39-4.81-18.39-7.56-27.48a5.21,5.21,0,0,0-4.16-3.77,40.5,40.5,0,0,0-8-.8,207.92,207.92,0,0,0-42.43,2.78c-16.53,2.66-33.06,5.15-48.61,12-13.9,6.12-27.91,12-41.6,18.58-9.84,4.74-19.4,10.07-29.6,14.07-6.57,2.57-13.33,4.12-20.37,3.56a206,206,0,0,1-26-4.27,159,159,0,0,0-53.38-1.73A375,375,0,0,0,47.4,139.3C38.46,142,29.66,144.73,21,148c-2.93,1.11-4.11,2.84-4,6.09a283.74,283.74,0,0,0,2.53,29.26,10.62,10.62,0,0,0,1.83,4.71,74.57,74.57,0,0,1,6.11,11.68c6,13.32,10.42,27.32,16.62,40.57,4.45,9.49,8.35,19.31,15,27.63,1.07,1.35.94,2.34,0,3.72-2.2,3.1-2.85,6.75-3.21,10A13,13,0,0,0,57,287.47a60.24,60.24,0,0,0,7.76,12.19,18,18,0,0,0,3.45,3.14c2.77,2,5.1,1.87,7.77-.25a11.56,11.56,0,0,0,3-3.56c2.81-5.09,6-10,8.27-15.35a2.37,2.37,0,0,1,2.45-1.81c11.76-.1,23-3.25,34.36-5.8,10.28-2.32,20-6.45,29.72-10.33a28.46,28.46,0,0,0,14-11.32A164.66,164.66,0,0,0,184,220.32c2.68-7.92,5.7-15.74,8.24-23.71,1.06-3.32,3.19-4.77,6.23-5.65,7.67-2.22,15.55-3.22,23.45-4.11a6,6,0,0,1,6.43,3c4.47,6.74,9.12,13.36,13.78,20,8.45,12,18.41,22.31,31.74,29a34.55,34.55,0,0,0,10.39,3.68,69.11,69.11,0,0,0,16.12.94c10.05-.9,20.13-1.52,30-3.43,11.65-2.24,23.75-3.09,34-10,1.09-.73,1.83-.13,2.56.64a64.49,64.49,0,0,0,5,5.19c5,4.16,9,3.36,13-1.79,6.32-8.12,4.2-23.7-.81-29.75-2.06-2.5-2.22-4.81-1.61-7.75A174.91,174.91,0,0,0,386.59,160.54Z" transform="translate(0.01)" style="fill:#fff;stroke:#fff;stroke-miterlimit:10;stroke-width:34px"/><path d="M387.6,160.54c0-6,.07-11.93.31-17.89.3-8,.68-15.91,3.95-23.37a11.18,11.18,0,0,0,.51-6.69c-1.69-9.39-4.81-18.39-7.56-27.48a5.21,5.21,0,0,0-4.16-3.77,40.5,40.5,0,0,0-8-.8,207.92,207.92,0,0,0-42.43,2.78c-16.53,2.66-33.05,5.15-48.61,12-13.9,6.12-27.91,12-41.6,18.58-9.84,4.74-19.4,10.07-29.6,14.07-6.57,2.57-13.33,4.12-20.37,3.56a206,206,0,0,1-26-4.27,159,159,0,0,0-53.38-1.73,375,375,0,0,0-62.3,13.77c-8.9,2.7-17.7,5.43-26.36,8.7-2.93,1.11-4.11,2.84-4,6.09a281,281,0,0,0,2.52,29.26,10.62,10.62,0,0,0,1.83,4.71,74.57,74.57,0,0,1,6.11,11.68c6,13.32,10.42,27.32,16.62,40.57,4.45,9.49,8.35,19.31,15,27.63,1.07,1.35.94,2.34,0,3.72-2.2,3.1-2.85,6.75-3.21,10a13,13,0,0,0,1.07,5.81,60.24,60.24,0,0,0,7.76,12.19,18,18,0,0,0,3.45,3.14c2.77,2,5.1,1.87,7.78-.25a11.56,11.56,0,0,0,3-3.56c2.81-5.09,6-10,8.27-15.35a2.37,2.37,0,0,1,2.45-1.81c11.76-.1,23-3.25,34.36-5.8,10.28-2.32,20-6.45,29.72-10.33a28.46,28.46,0,0,0,14-11.32A164.66,164.66,0,0,0,185,220.32c2.68-7.92,5.7-15.74,8.25-23.71,1.05-3.32,3.18-4.77,6.22-5.65,7.67-2.22,15.55-3.22,23.45-4.11a6,6,0,0,1,6.43,3c4.47,6.74,9.12,13.36,13.78,20,8.45,12,18.41,22.31,31.74,29a34.55,34.55,0,0,0,10.39,3.68,69.19,69.19,0,0,0,16.13.94c10-.9,20.13-1.52,30-3.43,11.65-2.24,23.76-3.09,34-10,1.09-.73,1.83-.13,2.56.64a64.49,64.49,0,0,0,5,5.19c5,4.16,9,3.36,13-1.79,6.32-8.12,4.2-23.7-.81-29.75-2.06-2.5-2.22-4.81-1.61-7.75A175.68,175.68,0,0,0,387.6,160.54Z" transform="translate(0.01)" style="fill:#e077bd"/><path d="M359.76,130.9a17.45,17.45,0,0,0-5.9-8.54A42.89,42.89,0,0,0,338.32,115c-6.44-1.57-13-1.39-19.53-1.58-14.63-.26-28.75,2.7-42.56,7.2a73.62,73.62,0,0,0-27.77,15.94c-6.46,6-9.14,13.29-6.87,22.15,1.32,5.15,2.36,10.4,3.95,15.46,3.27,10.39,6.33,21,12.28,30.16,8.47,13.11,20.22,21,35.71,23.09a82.69,82.69,0,0,0,22-.33c11.62-1.54,22.85-4.26,32.93-10.83a20.3,20.3,0,0,0,7.8-9,101.08,101.08,0,0,0,8.38-33.17C365.84,159.38,364.92,144.89,359.76,130.9Z" transform="translate(0.01)" style="fill:#ace3fc"/><path d="M152.12,153.68A54.66,54.66,0,0,0,138.57,149c-23.34-4.45-45.45-.56-66.52,10a65.34,65.34,0,0,0-11.64,7.62c-1.31,1-3,2-2.93,4a8.69,8.69,0,0,0-3.4,3.8A34.53,34.53,0,0,0,50.82,191a118.82,118.82,0,0,0,7.94,35.28c3.79,9.86,8.49,19.15,15.82,26.94,3.71,4,7.93,7.12,13.4,8.21a77,77,0,0,0,24.47.95c10.51-1.3,20.78-3.53,30-9.07,7.61-4.58,14-10.26,18.13-18.36a94.58,94.58,0,0,0,8.14-22.59c3.29-14.94,2.55-29.69-3.09-44.08A26.41,26.41,0,0,0,152.12,153.68Z" transform="translate(0.01)" style="fill:#ace3fc"/><path d="M55.82,282.74c.36-3.28,1-6.94,3.21-10,1-1.38,1.11-2.37,0-3.72-6.63-8.32-10.53-18.14-15-27.63-6.2-13.25-10.59-27.25-16.62-40.57a74.57,74.57,0,0,0-6.11-11.68,10.62,10.62,0,0,1-1.83-4.71A281.88,281.88,0,0,1,17,155.13c-.1-3.25,1.08-5,4-6.09,8.64-3.27,17.44-6,26.26-8.7a375,375,0,0,1,62.3-13.77,159.83,159.83,0,0,1,53.38,1.73,206,206,0,0,0,26,4.27c7,.57,13.8-1,20.37-3.56,10.2-4,19.76-9.33,29.6-14.07,13.69-6.59,27.7-12.45,41.6-18.57,15.55-6.86,32.08-9.35,48.61-12a207.22,207.22,0,0,1,42.43-2.79,40.5,40.5,0,0,1,8,.8,5.21,5.21,0,0,1,4.16,3.77c2.75,9.1,5.87,18.09,7.56,27.48a11.18,11.18,0,0,1-.51,6.69c-3.27,7.46-3.65,15.42-4,23.37-.23,6-.31,11.93-.31,17.89a174.88,174.88,0,0,1-3.95,35.92c-.61,2.94-.45,5.25,1.61,7.75,5,6.05,7.13,21.63.81,29.75-4,5.15-8,5.95-13,1.79a59.75,59.75,0,0,1-5-5.19c-.73-.77-1.47-1.37-2.56-.63-10.28,7-22.38,7.8-34,10.05-9.91,1.9-20,2.53-30,3.42a69.11,69.11,0,0,1-16.12-.94,34.53,34.53,0,0,1-10.39-3.67c-13.33-6.68-23.29-17-31.74-29-4.66-6.61-9.31-13.24-13.78-20a6,6,0,0,0-6.43-3c-7.9.89-15.78,1.89-23.45,4.12-3,.88-5.17,2.32-6.23,5.64-2.54,8-5.56,15.79-8.24,23.71a164.68,164.68,0,0,1-16.35,34.09,28.46,28.46,0,0,1-14,11.32c-9.75,3.89-19.44,8-29.72,10.33-11.35,2.55-22.6,5.7-34.36,5.8a2.37,2.37,0,0,0-2.45,1.81C84.87,290,81.64,294.91,78.83,300a11.56,11.56,0,0,1-3,3.56c-2.67,2.12-5,2.25-7.77.25a18,18,0,0,1-3.45-3.14,60.24,60.24,0,0,1-7.76-12.19A13,13,0,0,1,55.82,282.74Zm238.25-41.63c2.7,0,5.41.19,8.09,0,12.74-1.09,25.43-2.59,38-4.94,6-1.13,11.95-2.41,17.58-4.94,8.6-3.86,14.85-9.85,17.82-18.94,1-3,2-5.93,2.71-9A189.78,189.78,0,0,0,383.35,159c-.07-13.89-.54-27.9,4.83-41.19a6.88,6.88,0,0,0,.09-3.79c-1.62-9-4.53-17.59-7.28-26.24a2.91,2.91,0,0,0-2.66-2.33c-2.25-.27-4.49-1-6.73-1-6.67,0-13.34.31-20,.48s-13.27,1.39-19.9,2.13a182.08,182.08,0,0,0-40.29,8.71c-16.89,5.93-33,13.86-49.26,21.25-10.6,4.82-20.79,10.51-31.63,14.81-7,2.76-14.17,4.34-21.65,3.67a207.77,207.77,0,0,1-26.46-4.3c-10.9-2.42-21.92-3.1-33-3.24-14.85-.18-29.47,2.07-43.92,5.17A455.8,455.8,0,0,0,25,150.53c-4.85,1.77-4.91,1.77-5.08,6.95-.17,5.41.61,10.77,1.15,16.14.6,5.92,1.65,11.45,4.69,16.93,5.08,9.16,8.75,19.08,12.28,29,2.52,7.09,5.07,14.18,8.27,21,4,8.48,7.72,17.09,13.14,24.82a31.78,31.78,0,0,0,18.76,13.12,52.78,52.78,0,0,0,21.12,1.07c18.34-2.75,36.2-7.16,53.11-15a30.86,30.86,0,0,0,13.78-11.66,151.19,151.19,0,0,0,9.3-16.75c5-11,8.82-22.45,12.77-33.85,2.27-6.56,4.4-13.25,8.6-18.93C204,173.68,216.26,173,224.19,182a137.29,137.29,0,0,1,13.92,18.28,132.62,132.62,0,0,0,17,22.32c10.67,10.9,22.51,19.72,39,18.56ZM85.19,282.77c-8-1.77-15.23-3.6-21-8.86-.88-.8-1.77-1-2.36.31C60.11,278,58.6,282,60.08,286.09a44.23,44.23,0,0,0,8.67,14c2.55,2.91,4.28,2.58,6.34-.6a12,12,0,0,0,.63-1.1A85.13,85.13,0,0,1,85.19,282.77Zm281.72-53.46c1.89,1.53,3.26,2.54,4.52,3.67,6.25,5.64,10.27,4.6,13.09-3.41a7.59,7.59,0,0,0,.46-1.63c.9-6.7.73-13.3-2-19.63-.4-.93-.57-2.16-2.12-2.49C378.08,214.37,375.32,222.93,366.91,229.31ZM222.84,185c-3.52-5.75-6.81-7.73-11.66-7.19-7,.78-12.1,4.16-15,11.58C205.18,186.85,213.92,185.85,222.84,185Z" transform="translate(0.01)" style="fill:#474747;stroke:#474747;stroke-linecap:round;stroke-linejoin:round;stroke-width:4px"/><path d="M318.79,112.83c6.52.18,13.09,0,19.53,1.56a43.34,43.34,0,0,1,15.54,7.23,17.25,17.25,0,0,1,5.9,8.44c5.16,13.82,6.08,28.13,4.85,42.67a99.19,99.19,0,0,1-8.38,32.76,20.16,20.16,0,0,1-7.8,8.92c-10.08,6.49-21.31,9.17-32.93,10.7a83.11,83.11,0,0,1-22,.32c-15.49-2.05-27.24-9.85-35.71-22.8-6-9.1-9-19.53-12.28-29.8-1.59-5-2.63-10.18-3.95-15.26-2.27-8.76.41-16,6.87-21.88a73.9,73.9,0,0,1,27.77-15.75C290,115.5,304.16,112.57,318.79,112.83Zm43.12,52.06a66.54,66.54,0,0,0-.35-11.29c-.7-9.66-2.66-19-6.92-27.79a8.57,8.57,0,0,0-3.43-3.93,44.62,44.62,0,0,0-17.61-6.08,110.16,110.16,0,0,0-21.56-.09c-15,1.27-29.61,4-43.49,10-7.62,3.33-15.05,6.91-21.11,13-4.55,4.54-6.36,9.59-5.18,16a220.42,220.42,0,0,0,9.08,32.48,73.91,73.91,0,0,0,7,15.29c7,11.11,16.76,18.39,29.63,20.66,18,3.18,35.38.55,52.21-6.57,8.52-3.61,13.87-9.81,16.49-18.63.35-1.18.74-2.35,1.06-3.54C360.41,184.55,362.27,174.58,361.91,164.89Z" transform="translate(0.01)" style="fill:#474747;stroke:#474747;stroke-linecap:round;stroke-linejoin:round;stroke-width:4px"/><path d="M57.82,169.72c0-2,1.59-2.95,2.88-4a66.22,66.22,0,0,1,11.51-7.52C93,147.84,114.88,144,138,148.39A54.35,54.35,0,0,1,151.34,153a26.11,26.11,0,0,1,13.36,14.48c5.57,14.22,6.3,28.77,3.05,43.54a93.68,93.68,0,0,1-8,22.3c-4.07,8-10.39,13.61-17.92,18.12-9.12,5.48-19.26,7.68-29.65,9a75.8,75.8,0,0,1-24.18-1c-5.4-1.07-9.57-4.2-13.24-8.1-7.24-7.69-11.89-16.86-15.63-26.61a116.82,116.82,0,0,1-7.84-34.83,33.79,33.79,0,0,1,3.22-16.41A8.57,8.57,0,0,1,58,169.65a42.27,42.27,0,0,0-3.73,12.68c-1.46,10.24.27,20.07,3.32,29.79,2.14,6.81,5.15,13.27,8,19.82a68.26,68.26,0,0,0,10,16.06c6.61,8.17,15.17,11.74,25.67,11.14a110.77,110.77,0,0,0,40.62-10.35,33.74,33.74,0,0,0,18-19.75A98.52,98.52,0,0,0,166,202c.83-10.62.92-21.2-2.73-31.49-2.53-7.12-7.16-12.46-14-15.39a69.28,69.28,0,0,0-31.68-5.87c-19.37,1.2-37.46,6.7-53.84,17.3C61.85,167.77,60.26,169.56,57.82,169.72Z" transform="translate(0.01)" style="fill:#474747;stroke:#474747;stroke-linecap:round;stroke-linejoin:round;stroke-width:4px"/><path d="M361.24,104.52a3.8,3.8,0,0,1-3.74-3.74A3.62,3.62,0,0,1,360.91,97h.17a3.81,3.81,0,0,1,4,3.61v.27A4,4,0,0,1,361.24,104.52Z" transform="translate(0.01)" style="fill:#474747;stroke:#474747;stroke-linecap:round;stroke-linejoin:round;stroke-width:0.75px"/><path d="M37.22,163.42a3.77,3.77,0,0,1-3.78,3.76h0a3.93,3.93,0,0,1-3.75-3.88,3.75,3.75,0,0,1,3.81-3.69h.06a3.6,3.6,0,0,1,3.69,3.52A1.41,1.41,0,0,1,37.22,163.42Z" transform="translate(0.01)" style="fill:#474747;stroke:#474747;stroke-linecap:round;stroke-linejoin:round;stroke-width:0.75px"/><path d="M41.47,165.6a3.77,3.77,0,0,1,3.93,3.52,3.91,3.91,0,0,1-3.82,4H41.5a3.76,3.76,0,0,1-3.67-3.79,3.62,3.62,0,0,1,3.51-3.73Z" transform="translate(0.01)" style="fill:#474747;stroke:#474747;stroke-linecap:round;stroke-linejoin:round;stroke-width:0.75px"/><path d="M371.39,109.13a3.73,3.73,0,0,1-3.71,3.77h-.07a3.91,3.91,0,0,1-3.77-3.85,3.73,3.73,0,0,1,3.76-3.72h.07a3.65,3.65,0,0,1,3.72,3.58Z" transform="translate(0.01)" style="fill:#474747;stroke:#474747;stroke-linecap:round;stroke-linejoin:round;stroke-width:0.75px"/><path d="M374.79,99.68a3.6,3.6,0,0,1-3.73,3.47l-.27,0a3.69,3.69,0,0,1-3.5-3.87s0-.09,0-.13a3.86,3.86,0,0,1,4.06-3.52,3.73,3.73,0,0,1,3.43,4Z" transform="translate(0.01)" style="fill:#474747;stroke:#474747;stroke-linecap:round;stroke-linejoin:round;stroke-width:0.75px"/><path d="M49.76,160.56a3.34,3.34,0,0,1-3.28,3.25,3.87,3.87,0,0,1-3.69-3.9,3.34,3.34,0,0,1,3.27-3.27A3.92,3.92,0,0,1,49.76,160.56Z" transform="translate(0.01)" style="fill:#474747;stroke:#474747;stroke-linecap:round;stroke-linejoin:round;stroke-width:0.75px"/><path d="M347.5,157.61c-5.74-26.93-34.59-35.65-44-20.77-2.45,3.88-2.59,9.29-2,12.12,1.28,6,6.42,11.23,14,10.27,18.31-2.35,19.38,20.22,20.17,27,.65,5.57,2.31,7.66,5.86,6.78C346.18,191.8,351.34,175.66,347.5,157.61Z" transform="translate(0.01)" style="fill:#e6fdff"/><path d="M127.9,238.13c6.94,4.7,16.48-3.56,19.11-7.72,6.36-10-10.86-17.33-13-4.8C132.36,235.42,125.85,234.63,127.9,238.13Z" transform="translate(0.01)" style="fill:#e6fdff"/><circle cx="148.42" cy="203.75" r="6.17" style="fill:#e6fdff"/><path d="M359.2,9h0c-.19.1-.75,4.85-.84,5.18a20.59,20.59,0,0,1-3.17,6.65,20.91,20.91,0,0,1-4.4,4.41,46,46,0,0,1-5.22,3.14h0c1,1.18,10.34,1.92,12.7,13.53.08.43,1.08,5.6,1.13,5.6h0a23,23,0,0,0,.66-4.36c.29-12,13.16-14.44,13.09-15C369.2,26,365.63,24.31,362.82,20a20.35,20.35,0,0,1-2.73-6.46C360,13,359.41,9,359.2,9Z" transform="translate(0.01)" style="fill:#fff;stroke:#fff;stroke-linecap:round;stroke-linejoin:round;stroke-width:18px"/><path d="M359.2,8.65h0c-.19.1-.75,4.85-.84,5.18a20.59,20.59,0,0,1-3.17,6.65,20.91,20.91,0,0,1-4.4,4.41A45.89,45.89,0,0,1,345.56,28h0c1,1.18,10.34,1.92,12.7,13.53.08.43,1.08,5.6,1.13,5.6h0a23,23,0,0,0,.66-4.36c.29-12,13.16-14.43,13.09-15-3.95-2.17-7.52-3.83-10.33-8.19a20.35,20.35,0,0,1-2.73-6.46C360,12.64,359.41,8.65,359.2,8.65Z" transform="translate(0.01)" style="fill:#eab9e5"/><path d="M362.29,10h0m-3,10.43c.23.42.48.83.74,1.23a20.88,20.88,0,0,0,6.09,6.15A19.41,19.41,0,0,0,359,34.66a18,18,0,0,0-6.56-6.61l.25-.18a23.81,23.81,0,0,0,5.1-5.12,20.39,20.39,0,0,0,1.47-2.3M359.2,9h0c-.19.1-.75,4.85-.84,5.18a20.59,20.59,0,0,1-3.17,6.65,20.91,20.91,0,0,1-4.4,4.41,46,46,0,0,1-5.22,3.14h0c1,1.18,10.34,1.92,12.7,13.53.08.43,1.08,5.6,1.13,5.6h0a23,23,0,0,0,.66-4.36c.29-12,13.16-14.44,13.09-15C369.2,26,365.63,24.31,362.82,20a20.35,20.35,0,0,1-2.73-6.46C360,13,359.41,9,359.2,9Z" transform="translate(0.01)" style="fill:#474747;stroke:#474747;stroke-miterlimit:10;stroke-width:0.75px"/><polygon points="348.85 33.63 348.85 33.63 348.85 33.63 348.85 33.63" style="fill:#474747"/></g></g></svg>