<svg id="Layer_1" data-name="Layer 1" xmlns="http://www.w3.org/2000/svg" viewBox="0 0 296 470"><title>teardrop</title><g id="Layer_2" data-name="Layer 2"><g style="opacity:0.12"><path d="M269.51,272.83c-9-26.26-21.25-51-35.32-74.88-22.58-38.27-45.44-76.38-63.47-117.12-6.9-15.58-13.22-31.34-16.39-48.19-.67-3.54-1.66-7-2.53-10.64-.84.49-.63,1-.67,1.44a114,114,0,0,1-5.83,28.12c-2.23,6.51-5.51,12.58-8.25,18.88-5.94,13.67-11.87,27.36-18.7,40.61-7,13.66-14.54,27.1-22,40.53-11.82,21.21-25,41.65-36.52,63-14.08,26.07-25.9,53-32.8,81.94-6,25.07-7.06,50.21-.63,75.39,9.81,38.39,33.31,64.15,71.17,76.23,20.35,6.5,41.4,8.15,62.7,7.43a172.72,172.72,0,0,0,43.15-6.68c30.47-9,53.2-27.25,66.49-56.48,7.85-17.26,11.24-35.55,11.42-54.42C281.51,315.57,276.73,294,269.51,272.83Z" transform="translate(-0.03 0)" style="fill:#6a374f;stroke:#6a374f;stroke-linecap:round;stroke-linejoin:round;stroke-width:28px"/><path d="M152.8,22c-.84.49-.63,1-.67,1.44a114,114,0,0,1-5.83,28.12c-2.23,6.51-5.51,12.58-8.25,18.88-5.94,13.67-11.87,27.36-18.7,40.61-7,13.66-14.54,27.1-22,40.53-11.83,21.21-25,41.65-36.53,63-14.08,26.07-25.89,53-32.8,81.94-6,25.07-7.06,50.21-.63,75.39,9.81,38.39,33.31,64.15,71.17,76.23,20.35,6.5,41.4,8.15,62.7,7.43a172.72,172.72,0,0,0,43.15-6.68c30.47-9,53.21-27.25,66.49-56.48,7.85-17.26,11.24-35.55,11.42-54.42.22-22.44-4.56-44.05-11.78-65.18-9-26.26-21.25-51-35.32-74.88-22.58-38.27-45.44-76.38-63.47-117.12-6.9-15.58-13.22-31.34-16.39-48.19C154.66,29.1,153.67,25.62,152.8,22Z" transform="translate(-0.03 0)" style="fill:#6a374f"/><path d="M151.8,22c.87,3.62,1.86,7.1,2.53,10.64,3.17,16.85,9.49,32.61,16.39,48.19,18,40.74,40.89,78.85,63.47,117.12,14.07,23.87,26.33,48.62,35.32,74.88,7.22,21.13,12,42.74,11.78,65.18-.18,18.87-3.57,37.16-11.42,54.42-13.29,29.23-36,47.51-66.49,56.48a172.72,172.72,0,0,1-43.15,6.68c-21.3.72-42.35-.93-62.7-7.43-37.86-12.08-61.36-37.84-71.17-76.23-6.43-25.18-5.35-50.32.63-75.39,6.91-28.92,18.72-55.87,32.8-81.94,11.55-21.37,24.7-41.81,36.52-63,7.5-13.43,15-26.87,22-40.53,6.83-13.25,12.76-26.94,18.7-40.61,2.74-6.3,6-12.37,8.25-18.88a114,114,0,0,0,5.83-28.12C151.17,23,151,22.49,151.8,22Zm.06,27.49c-1,2.84-1.83,5.4-2.66,8-4.57,14.18-11.6,27.3-17.6,40.86-8.44,19.09-19.2,37-29.22,55.28-12,21.85-25.6,42.76-37.43,64.7-13.06,24.22-24.06,49.25-30.92,76-6.46,25.13-8,50.36-1.65,75.81,7.51,30,24.31,52.59,52.28,66.33,16.37,8,34,11.17,52,12.42,7.3.51,14.68-.05,22,.07a144.62,144.62,0,0,0,41.62-5.68c26.61-7.48,47.43-22.55,60.73-47.21,8.74-16.18,12.71-33.69,13.71-51.88,1.33-24.15-3.72-47.34-11.51-70-9.38-27.31-22.52-52.82-37.18-77.58-22.48-38-45-75.87-62.68-116.43-4.09-9.38-8.51-18.6-10.48-28.73A3.17,3.17,0,0,0,151.86,49.49Z" transform="translate(-0.03 0)" style="fill:#6a374f;stroke:#6a374f;stroke-miterlimit:10;stroke-width:4px"/><path d="M152.86,49.49a3.1,3.1,0,0,1,1.07,1.88c2,10.13,6.39,19.35,10.48,28.73,17.66,40.56,40.21,78.47,62.68,116.43,14.66,24.76,27.81,50.27,37.18,77.58,7.79,22.7,12.84,45.89,11.51,70-1,18.19-5,35.7-13.71,51.88-13.3,24.66-34.12,39.73-60.73,47.21a144.62,144.62,0,0,1-41.62,5.68c-7.34-.12-14.71.44-22-.07-18-1.25-35.67-4.37-52-12.42C57.72,422.65,41,400,33.44,370.06,27,344.65,28.57,319.42,35,294.29c6.86-26.73,17.86-51.76,30.92-76,11.83-21.94,25.44-42.85,37.43-64.7,10-18.27,20.78-36.19,29.22-55.28,6-13.56,13-26.68,17.6-40.86C151,54.89,151.91,52.33,152.86,49.49ZM193.27,298.9c-.8,1.55-2.57,2.2-3.4,3.94,14-10.08,30.12-13.68,46.9-15.89-.34-.27-.56-.6-.79-.6-3.43-.07-6.73-1.31-10.19-1.13-1.92.1-4.48.82-5.6-.11s-.75-3.61-1.17-5.49a2.38,2.38,0,0,1,1.23-2.88c4.54-3,6.46-7.57,7.14-12.93a10.79,10.79,0,0,1-6.36,3.61,17.08,17.08,0,0,0,2.09-14.25c-.72,1.61-1.15,2.65-1.63,3.67a5.62,5.62,0,0,1-6.66,3.47,12,12,0,0,1-3.09-1,39.75,39.75,0,0,1-5.59-3.38c-7.42-5.5-18.5-4.14-26.13,3.12-8.84,8.4-10.67,19.2-10.32,30.68.05,1.67-.24,3.62,1.55,4.8,1.15,4.11,7.8,7.78,12.44,7.05C187,301,190,299.61,193.27,298.9Zm-62.22-6.75c1.36-1.63,1.16-3.69,1.4-5.57,1.28-10.06-.34-19.54-6.62-27.73-6.07-7.93-15.89-9.38-24.18-3.86a39.67,39.67,0,0,0-4,3.19A13.29,13.29,0,0,1,83,259.78c-.84-.46-1.3-1.54-2.6-1.64.26,4.37,1.3,8.23,5.17,11.25-4.1,1.05-7.32.65-10-2.83,0,6.57,3.5,11.77,8.81,13.65.75.27,1.15.5,1.16,1.41.09,4.07-.32,4.61-4.23,5.1a.89.89,0,0,0-.23,0c-2.93.69-5.94,1.06-8.71,2.42,2.09.16,4.16-.21,6.16,0,15.59,1.75,31,4.16,45.87,9.55.75.27,1.73,1.3,2.67.16,1.45.34,2.2-.25,2.73-1.66A19,19,0,0,0,131.05,292.15Zm-10.86,37.62c-4.42-.69-10.65,1.93-13.49,5.44-2.29,2.84-3.1,6.59-2,9.51a17.57,17.57,0,0,1,3-6.38c.91-1.14,1.46-1.62,2.46,0a20.59,20.59,0,0,0,9.73,7.79c6.29,2.66,10.27,7.33,13.11,13.35,3.05,6.45,7.23,11.89,14.55,14,9,2.55,19.12-2.35,23.73-11.55a71,71,0,0,0,4.46-12.06,23.79,23.79,0,0,1,8.89-13.12c.33-.25.92-.41.67-1.05a1.13,1.13,0,0,0-1.32-.08c-6.46,2.72-9-1-10.46-5.89-.57-1.94-1-3.93-1.71-5.83-1.2-3.23-3.1-5.81-6.87-6.24s-6.48,1.68-8.65,4.57c-.54.71-.72,1.74-1.68,2.14-4.47-9.73-13.76-6.51-17.13.42-1,2.11-2,4.22-2.9,6.39a52,52,0,0,1-2.4,5.33,9.51,9.51,0,0,1-7.35,5.21c-5,.72-9-1.06-12.39-4.61-1.3-1.35-1.18-2.17.28-3.3A39.91,39.91,0,0,1,120.19,329.77Zm87-93c1.83-7.87-5.76-16.74-14.47-17.12-10.84-.48-24.43,9-24.25,24.55,0,.58-.16,1.28.82,1.79,9.8-14.43,21.32-22.52,37.92-9.22ZM94.94,226.17c1.33-1.82,2.6-3.64,4-5.39,3.4-4.42,7.06-8.54,12.5-10.59,4.7-1.77,7.81-1,11.09,2.78q1.68,1.93,3.33,3.9c.91,1.1,1.63,1.16,2-.37a13.8,13.8,0,0,0,.54-5.78c-1.54-9.28-10.09-13.4-18.59-9-9.31,4.78-12.73,13.45-15.24,22.76A1.49,1.49,0,0,0,94.94,226.17Zm51.55,84.66c5.87,2.07,15.41-3.54,15.9-9.16-5.13,3.33-9.66,7.43-15.9,9.16Z" transform="translate(-0.03 0)" style="fill:#6a374f"/><path d="M126,298.89c-.94,1.14-1.92.11-2.67-.16-14.83-5.39-30.29-7.8-45.87-9.55-2-.23-4.07.14-6.16,0,2.77-1.36,5.78-1.73,8.71-2.42h.23c3.91-.49,4.32-1,4.23-5.1,0-.91-.41-1.14-1.16-1.41-5.31-1.88-8.79-7.08-8.81-13.65,2.67,3.48,5.89,3.88,10,2.83-3.87-3-4.91-6.88-5.17-11.25,1.3.1,1.76,1.18,2.6,1.64a13.29,13.29,0,0,0,14.67-1.6,38.31,38.31,0,0,1,4-3.19c8.29-5.52,18.11-4.07,24.18,3.86,6.27,8.19,7.9,17.67,6.62,27.73-.24,1.88,0,3.94-1.4,5.57-1.67-11-3-22.17-11-31.59-.68,2.42-1.19,4.2-1.69,6a16.71,16.71,0,0,1-5.45,8.28c-1.47,1.26-2.67,1.29-3.78-.56s-2.53-3.81-3.81-5.71a47.17,47.17,0,0,0-.49,10.35c.18,2.7-1.18,4.23-3.22,5.45a12.63,12.63,0,0,1-4.6,1.64,1.14,1.14,0,0,0-1.16.21H92.23c-1.18-.37-2.36-.72-3.52-1.11-.49-.17-.91-.27-1.09.37s0,1.09.69,1.18c1,.12,2,.2,3,.3,3.56.7,7.14,1.28,10.66,2.11A72.55,72.55,0,0,1,126,298.89Z" transform="translate(-0.03 0)" style="fill:#6a374f;stroke:#6a374f;stroke-miterlimit:10;stroke-width:2px"/><path d="M170.25,294.5c-1.79-1.18-1.5-3.13-1.55-4.8-.35-11.48,1.48-22.28,10.32-30.68,7.63-7.26,18.71-8.62,26.13-3.12a39.75,39.75,0,0,0,5.59,3.38,12,12,0,0,0,3.09,1,5.63,5.63,0,0,0,6.66-3.47c.48-1,.91-2.06,1.63-3.67A17.08,17.08,0,0,1,220,267.42a10.79,10.79,0,0,0,6.36-3.61c-.68,5.36-2.6,9.92-7.14,12.93a2.37,2.37,0,0,0-1.23,2.88c.42,1.88,0,4.55,1.16,5.49s3.69.21,5.61.11c3.46-.18,6.76,1.06,10.19,1.13.23,0,.45.33.78.6-16.77,2.21-32.89,5.81-46.89,15.89.82-1.74,2.6-2.39,3.4-3.94h0a.65.65,0,0,0,.65-.5c.93-.7,1.89-1.37,2.79-2.12a43.23,43.23,0,0,1,16-9c2.47-.71,3.11-1.71,2.52-4.26-.69-3-1.4-5.92-2.33-8.81a34.83,34.83,0,0,0-6-11.85c-3-3.56-6.6-5.59-11.72-5.21a23.43,23.43,0,0,1,1.37,11,16.74,16.74,0,0,1-2.59,7.68c-1.45,2.37-2.27,2.38-4.42.78-1.86-1.37-3.29-3.29-5.66-4.35.63,2.6,1.23,5,1.8,7.42,1.19,5,.63,6.2-4.05,8.39a12.51,12.51,0,0,1-3.31,1.1c-3.08.51-6.58.53-7,4.87C170.28,294.19,170.27,294.35,170.25,294.5Z" transform="translate(-0.03 0)" style="fill:#6a374f;stroke:#6a374f;stroke-miterlimit:10;stroke-width:2px"/><path d="M170.25,294.5a1.44,1.44,0,0,1,.05-.46c.47-4.34,4-4.36,7-4.87a12.51,12.51,0,0,0,3.31-1.1c4.68-2.19,5.24-3.36,4-8.39-.57-2.41-1.17-4.82-1.8-7.42,2.37,1.06,3.8,3,5.66,4.35,2.15,1.6,3,1.59,4.42-.78a16.74,16.74,0,0,0,2.59-7.68,23.43,23.43,0,0,0-1.37-11c5.12-.38,8.77,1.65,11.72,5.21a34.83,34.83,0,0,1,6,11.85c.93,2.89,1.64,5.85,2.33,8.81.59,2.55-.05,3.55-2.52,4.26a43.23,43.23,0,0,0-16,9c-.9.75-1.86,1.42-2.79,2.12-.37,0-.62.09-.65.5h0c-3.24.71-6.27,2.13-9.58,2.65C178.05,302.28,171.4,298.61,170.25,294.5Z" transform="translate(-0.03 0)" style="fill:#6a374f"/><path d="M119.19,329.77a40,40,0,0,0-7.4,4c-1.46,1.13-1.58,2-.28,3.3,3.41,3.55,7.43,5.33,12.39,4.61a9.51,9.51,0,0,0,7.35-5.21,52,52,0,0,0,2.4-5.33c.87-2.17,1.87-4.28,2.9-6.39,3.37-6.93,12.66-10.15,17.13-.42,1-.4,1.14-1.43,1.68-2.14,2.17-2.89,4.74-5,8.65-4.57s5.67,3,6.87,6.24c.7,1.9,1.14,3.89,1.71,5.83,1.46,4.94,4,8.61,10.46,5.89a1.11,1.11,0,0,1,1.31.08c.26.64-.33.8-.66,1a23.79,23.79,0,0,0-8.89,13.12,71,71,0,0,1-4.46,12.06c-4.61,9.2-14.7,14.1-23.73,11.55-7.32-2.07-11.5-7.51-14.55-14-2.85-6-6.82-10.69-13.11-13.35a20.59,20.59,0,0,1-9.73-7.79c-1-1.58-1.55-1.1-2.47,0a18,18,0,0,0-3,6.38c-1.14-2.92-.32-6.67,2-9.51C108.54,331.7,114.77,329.08,119.19,329.77Zm5.47,15.28c6.43,3.46,9.85,9,13.06,14.8,3,5.46,7.66,9,14.17,8.79,6.85-.25,11.51-4.14,14.13-10.3,2.73-6.41,5.23-12.9,10.14-18.07.37-.39,1-1.06-.08-1.39-4-1.2-5.59-4.5-6.9-8-.87-2.33-1.45-4.79-2.44-7.07-1.66-3.83-5-4.31-7.69-1.15-1.1,1.31-2,2.8-3,4.18-1.62,2.18-3.32,2.15-4.81-.13-.69-1-1.19-2.2-1.86-3.25a4.08,4.08,0,0,0-5.51-1.7l-.15.08a8.29,8.29,0,0,0-4,3.86,50.45,50.45,0,0,0-2.55,5.78C135,337.65,131.76,342.89,124.66,345.05Z" transform="translate(-0.03 0)" style="fill:#6a374f;stroke:#6a374f;stroke-miterlimit:10;stroke-width:2px"/><path d="M126,298.89A72.62,72.62,0,0,0,102,289c-3.52-.83-7.1-1.41-10.66-2.11.08-.52.56-.55.91-.74h2.56A1,1,0,0,0,96,286a12.63,12.63,0,0,0,4.6-1.64c2-1.22,3.4-2.75,3.22-5.45a47.17,47.17,0,0,1,.49-10.35c1.28,1.9,2.65,3.74,3.81,5.71s2.31,1.82,3.78.56a16.71,16.71,0,0,0,5.45-8.28l1.69-6c8,9.42,9.29,20.57,11,31.59a19,19,0,0,1-1.31,5.08C128.22,298.64,127.47,299.23,126,298.89Z" transform="translate(-0.03 0)" style="fill:#6a374f"/><path d="M206.21,236.77c-16.6-13.3-28.12-5.21-37.9,9.22-1-.51-.82-1.21-.83-1.79-.17-15.5,13.42-25,24.26-24.55C200.45,220,208,228.9,206.21,236.77Z" transform="translate(-0.03 0)" style="fill:#6a374f;stroke:#6a374f;stroke-miterlimit:10;stroke-width:2px"/><path d="M93.93,226.17a1.49,1.49,0,0,1-.38-1.71c2.51-9.31,5.93-18,15.24-22.76,8.5-4.38,17-.26,18.59,9a13.8,13.8,0,0,1-.54,5.78c-.4,1.53-1.12,1.47-2,.37q-1.65-2-3.33-3.9c-3.28-3.79-6.39-4.55-11.09-2.78-5.44,2.05-9.1,6.17-12.51,10.59C96.53,222.53,95.27,224.35,93.93,226.17Z" transform="translate(-0.03 0)" style="fill:#6a374f;stroke:#6a374f;stroke-miterlimit:10;stroke-width:2px"/><path d="M145.49,310.83c6.24-1.73,10.77-5.84,15.9-9.16C160.9,307.29,151.36,312.9,145.49,310.83Z" transform="translate(-0.03 0)" style="fill:#6a374f;stroke:#6a374f;stroke-miterlimit:10;stroke-width:2px"/><path d="M92.32,286.17c-.35.19-.83.22-.91.74-1-.1-2-.18-3-.3-.72-.09-.87-.55-.69-1.18s.6-.54,1.09-.37C90,285.45,91.14,285.8,92.32,286.17Z" transform="translate(-0.03 0)" style="fill:#6a374f"/><path d="M96.05,286a1,1,0,0,1-1.17.21A1.21,1.21,0,0,1,96.05,286Z" transform="translate(-0.03 0)" style="fill:#6a374f"/><path d="M192.27,298.9c0-.41.28-.53.65-.5A.65.65,0,0,1,192.27,298.9Z" transform="translate(-0.03 0)" style="fill:#6a374f"/><path d="M124.66,345.05c7.1-2.16,10.33-7.4,12.55-13.57a50.45,50.45,0,0,1,2.55-5.78,8.29,8.29,0,0,1,4-3.86,4.09,4.09,0,0,1,5.58,1.47l.08.15c.67,1.05,1.17,2.21,1.86,3.25,1.49,2.28,3.19,2.31,4.81.13,1-1.38,1.9-2.87,3-4.18,2.65-3.16,6-2.68,7.69,1.15,1,2.28,1.57,4.74,2.44,7.07,1.31,3.5,2.89,6.8,6.9,8,1.12.33.45,1,.08,1.39-4.91,5.17-7.41,11.66-10.14,18.07-2.62,6.16-7.28,10.05-14.13,10.3-6.51.24-11.17-3.33-14.17-8.79C134.51,354,131.09,348.51,124.66,345.05Zm13.1,1c2.85-.39,4,1.69,5.5,3.13a10.79,10.79,0,0,0,4.44,2.51c5.24,1.6,10.06.37,14.5-2.47,2.35-1.51,4.45-3.39,6.69-5.08.42-.31,1.17-.43,1.09-1s-.84-.48-1.34-.62c-2.23-.61-4.27-1.5-5.24-3.85-.31-.74,0-2-1-2.12s-1.07,1.2-1.62,1.83c-.31.35-.54.77-.83,1.13-2.42,3-5.1,3.28-8.16,1a18.75,18.75,0,0,1-3.22-3.38c-1.07-1.35-2.46-1.39-3.32-.05-2.09,3.18-4.18,6.41-7.49,9Z" transform="translate(-0.03 0)" style="fill:#6a374f"/><path d="M137.76,346.06c3.31-2.57,5.4-5.8,7.5-9.05.86-1.34,2.25-1.3,3.32.05a18.75,18.75,0,0,0,3.22,3.38c3.06,2.31,5.74,2,8.16-1,.29-.36.52-.78.83-1.13.55-.63.76-1.89,1.62-1.83s.68,1.38,1,2.12c1,2.35,3,3.24,5.24,3.85.5.14,1.25-.07,1.34.62s-.67.74-1.09,1c-2.24,1.69-4.34,3.57-6.69,5.08-4.44,2.84-9.26,4.07-14.5,2.47a10.79,10.79,0,0,1-4.44-2.51C141.74,347.75,140.61,345.67,137.76,346.06Zm9.21-6.23a15.33,15.33,0,0,1-3,4.15c-1.28,1.11-.88,1.54.42,2.2,7.23,3.64,13.46,1.42,19.4-3.06-1.54-1.58-1.54-1.58-3-.27a8.16,8.16,0,0,1-10.14.58,29.56,29.56,0,0,1-3.65-3.6Z" transform="translate(-0.03 0)" style="fill:#6a374f;stroke:#6a374f;stroke-miterlimit:10;stroke-width:2px"/><path d="M147,339.83a30.35,30.35,0,0,0,3.66,3.6,8.16,8.16,0,0,0,10.14-.58c1.44-1.31,1.44-1.31,3,.27-5.94,4.48-12.17,6.7-19.4,3.06-1.3-.66-1.7-1.09-.42-2.2A15.46,15.46,0,0,0,147,339.83Z" transform="translate(-0.03 0)" style="fill:#6a374f"/><ellipse cx="222.64" cy="316.05" rx="25.49" ry="16.24" transform="translate(-77.04 71.78) rotate(-15.65)" style="fill:#6a374f"/><path d="M93.84,334.08a40.05,40.05,0,0,1,21.62-17.29c-2-7.23-11-13.61-22.67-15.25-13.94-2-26.26,3.64-27.51,12.52s9,17.67,23,19.63A39.76,39.76,0,0,0,93.84,334.08Z" transform="translate(-0.03 0)" style="fill:#6a374f"/></g><g id="Layer_1-2" data-name="Layer 1-2"><path d="M261.51,264.83c-9-26.26-21.25-51-35.32-74.88-22.58-38.27-45.44-76.38-63.47-117.12-6.9-15.58-13.22-31.34-16.39-48.19-.67-3.54-1.66-7-2.53-10.64-.84.49-.63,1-.67,1.44a114,114,0,0,1-5.83,28.12c-2.23,6.51-5.51,12.58-8.25,18.88-5.94,13.67-11.87,27.36-18.7,40.61-7,13.66-14.54,27.1-22,40.53-11.82,21.21-25,41.65-36.52,63-14.08,26.07-25.9,53-32.8,81.94-6,25.07-7.06,50.21-.63,75.39,9.81,38.39,33.31,64.15,71.17,76.23,20.35,6.5,41.4,8.15,62.7,7.43a172.72,172.72,0,0,0,43.15-6.68c30.47-9,53.2-27.25,66.49-56.48,7.85-17.26,11.24-35.55,11.42-54.42C273.51,307.57,268.73,286,261.51,264.83Z" transform="translate(-0.03 0)" style="fill:#fff;stroke:#fff;stroke-linecap:round;stroke-linejoin:round;stroke-width:28px"/><g id="DX5LZZ.tif"><path d="M144.8,14c-.84.49-.63,1-.67,1.44a114,114,0,0,1-5.83,28.12c-2.23,6.51-5.51,12.58-8.25,18.88-5.94,13.67-11.87,27.36-18.7,40.61-7,13.66-14.54,27.1-22,40.53-11.83,21.21-25,41.65-36.53,63-14.08,26.07-25.89,53-32.8,81.94-6,25.07-7.06,50.21-.63,75.39,9.81,38.39,33.31,64.15,71.17,76.23,20.35,6.5,41.4,8.15,62.7,7.43a172.72,172.72,0,0,0,43.15-6.68c30.47-9,53.21-27.25,66.49-56.48,7.85-17.26,11.24-35.55,11.42-54.42.22-22.44-4.56-44.05-11.78-65.18-9-26.26-21.25-51-35.32-74.88-22.58-38.27-45.44-76.38-63.47-117.12-6.9-15.58-13.22-31.34-16.39-48.19C146.66,21.1,145.67,17.62,144.8,14Z" transform="translate(-0.03 0)" style="fill:#fff"/><path d="M143.8,14c.87,3.62,1.86,7.1,2.53,10.64,3.17,16.85,9.49,32.61,16.39,48.19,18,40.74,40.89,78.85,63.47,117.12,14.07,23.87,26.33,48.62,35.32,74.88,7.22,21.13,12,42.74,11.78,65.18-.18,18.87-3.57,37.16-11.42,54.42-13.29,29.23-36,47.51-66.49,56.48a172.72,172.72,0,0,1-43.15,6.68c-21.3.72-42.35-.93-62.7-7.43-37.86-12.08-61.36-37.84-71.17-76.23-6.43-25.18-5.35-50.32.63-75.39,6.91-28.92,18.72-55.87,32.8-81.94,11.55-21.37,24.7-41.81,36.52-63,7.5-13.43,15-26.87,22-40.53,6.83-13.25,12.76-26.94,18.7-40.61,2.74-6.3,6-12.37,8.25-18.88a114,114,0,0,0,5.83-28.12C143.17,15,143,14.49,143.8,14Zm.06,27.49c-1,2.84-1.83,5.4-2.66,8-4.57,14.18-11.6,27.3-17.6,40.86-8.44,19.09-19.2,37-29.22,55.28-12,21.85-25.6,42.76-37.43,64.7-13.06,24.22-24.06,49.25-30.92,76-6.46,25.13-8,50.36-1.65,75.81,7.51,30,24.31,52.59,52.28,66.33,16.37,8,34,11.17,52,12.42,7.3.51,14.68-.05,22,.07a144.62,144.62,0,0,0,41.62-5.68c26.61-7.48,47.43-22.55,60.73-47.21,8.74-16.18,12.71-33.69,13.71-51.88,1.33-24.15-3.72-47.34-11.51-70-9.38-27.31-22.52-52.82-37.18-77.58-22.48-38-45-75.87-62.68-116.43-4.09-9.38-8.51-18.6-10.48-28.73A3.17,3.17,0,0,0,143.86,41.49Z" transform="translate(-0.03 0)" style="fill:#474747;stroke:#474747;stroke-miterlimit:10;stroke-width:4px"/><path d="M144.86,41.49a3.1,3.1,0,0,1,1.07,1.88c2,10.13,6.39,19.35,10.48,28.73,17.66,40.56,40.21,78.47,62.68,116.43,14.66,24.76,27.81,50.27,37.18,77.58,7.79,22.7,12.84,45.89,11.51,70-1,18.19-5,35.7-13.71,51.88-13.3,24.66-34.12,39.73-60.73,47.21a144.62,144.62,0,0,1-41.62,5.68c-7.34-.12-14.71.44-22-.07-18-1.25-35.67-4.37-52-12.42C49.72,414.65,33,392,25.44,362.06,19,336.65,20.57,311.42,27,286.29c6.86-26.73,17.86-51.76,30.92-76,11.83-21.94,25.44-42.85,37.43-64.7,10-18.27,20.78-36.19,29.22-55.28,6-13.56,13-26.68,17.6-40.86C143,46.89,143.91,44.33,144.86,41.49ZM185.27,290.9c-.8,1.55-2.57,2.2-3.4,3.94,14-10.08,30.12-13.68,46.9-15.89-.34-.27-.56-.6-.79-.6-3.43-.07-6.73-1.31-10.19-1.13-1.92.1-4.48.82-5.6-.11s-.75-3.61-1.17-5.49a2.38,2.38,0,0,1,1.23-2.88c4.54-3,6.46-7.57,7.14-12.93a10.79,10.79,0,0,1-6.36,3.61,17.08,17.08,0,0,0,2.09-14.25c-.72,1.61-1.15,2.65-1.63,3.67a5.62,5.62,0,0,1-6.66,3.47,12,12,0,0,1-3.09-1,39.75,39.75,0,0,1-5.59-3.38c-7.42-5.5-18.5-4.14-26.13,3.12-8.84,8.4-10.67,19.2-10.32,30.68.05,1.67-.24,3.62,1.55,4.8,1.15,4.11,7.8,7.78,12.44,7.05C179,293,182,291.61,185.27,290.9Zm-62.22-6.75c1.36-1.63,1.16-3.69,1.4-5.57,1.28-10.06-.34-19.54-6.62-27.73-6.07-7.93-15.89-9.38-24.18-3.86a39.67,39.67,0,0,0-4,3.19A13.29,13.29,0,0,1,75,251.78c-.84-.46-1.3-1.54-2.6-1.64.26,4.37,1.3,8.23,5.17,11.25-4.1,1.05-7.32.65-10-2.83,0,6.57,3.5,11.77,8.81,13.65.75.27,1.15.5,1.16,1.41.09,4.07-.32,4.61-4.23,5.1a.89.89,0,0,0-.23,0c-2.93.69-5.94,1.06-8.71,2.42,2.09.16,4.16-.21,6.16,0,15.59,1.75,31,4.16,45.87,9.55.75.27,1.73,1.3,2.67.16,1.45.34,2.2-.25,2.73-1.66A19,19,0,0,0,123.05,284.15Zm-10.86,37.62c-4.42-.69-10.65,1.93-13.49,5.44-2.29,2.84-3.1,6.59-2,9.51a17.57,17.57,0,0,1,3-6.38c.91-1.14,1.46-1.62,2.46,0a20.59,20.59,0,0,0,9.73,7.79c6.29,2.66,10.27,7.33,13.11,13.35,3.05,6.45,7.23,11.89,14.55,14,9,2.55,19.12-2.35,23.73-11.55a71,71,0,0,0,4.46-12.06,23.79,23.79,0,0,1,8.89-13.12c.33-.25.92-.41.67-1.05a1.13,1.13,0,0,0-1.32-.08c-6.46,2.72-9-1-10.46-5.89-.57-1.94-1-3.93-1.71-5.83-1.2-3.23-3.1-5.81-6.87-6.24s-6.48,1.68-8.65,4.57c-.54.71-.72,1.74-1.68,2.14-4.47-9.73-13.76-6.51-17.13.42-1,2.11-2,4.22-2.9,6.39a52,52,0,0,1-2.4,5.33,9.51,9.51,0,0,1-7.35,5.21c-5,.72-9-1.06-12.39-4.61-1.3-1.35-1.18-2.17.28-3.3A39.91,39.91,0,0,1,112.19,321.77Zm87-93c1.83-7.87-5.76-16.74-14.47-17.12-10.84-.48-24.43,9-24.25,24.55,0,.58-.16,1.28.82,1.79,9.8-14.43,21.32-22.52,37.92-9.22ZM86.94,218.17c1.33-1.82,2.6-3.64,4-5.39,3.4-4.42,7.06-8.54,12.5-10.59,4.7-1.77,7.81-1,11.09,2.78q1.68,1.93,3.33,3.9c.91,1.1,1.63,1.16,2-.37a13.8,13.8,0,0,0,.54-5.78c-1.54-9.28-10.09-13.4-18.59-9-9.31,4.78-12.73,13.45-15.24,22.76A1.49,1.49,0,0,0,86.94,218.17Zm51.55,84.66c5.87,2.07,15.41-3.54,15.9-9.16-5.13,3.33-9.66,7.43-15.9,9.16Z" transform="translate(-0.03 0)" style="fill:#ace3fc"/><path d="M118,290.89c-.94,1.14-1.92.11-2.67-.16-14.83-5.39-30.29-7.8-45.87-9.55-2-.23-4.07.14-6.16,0,2.77-1.36,5.78-1.73,8.71-2.42h.23c3.91-.49,4.32-1,4.23-5.1,0-.91-.41-1.14-1.16-1.41-5.31-1.88-8.79-7.08-8.81-13.65,2.67,3.48,5.89,3.88,10,2.83-3.87-3-4.91-6.88-5.17-11.25,1.3.1,1.76,1.18,2.6,1.64a13.29,13.29,0,0,0,14.67-1.6,38.31,38.31,0,0,1,4-3.19c8.29-5.52,18.11-4.07,24.18,3.86,6.27,8.19,7.9,17.67,6.62,27.73-.24,1.88,0,3.94-1.4,5.57-1.67-11-3-22.17-11-31.59-.68,2.42-1.19,4.2-1.69,6a16.71,16.71,0,0,1-5.45,8.28c-1.47,1.26-2.67,1.29-3.78-.56s-2.53-3.81-3.81-5.71A47.17,47.17,0,0,0,95.78,271c.18,2.7-1.18,4.23-3.22,5.45a12.63,12.63,0,0,1-4.6,1.64,1.14,1.14,0,0,0-1.16.21H84.23c-1.18-.37-2.36-.72-3.52-1.11-.49-.17-.91-.27-1.09.37s0,1.09.69,1.18c1,.12,2,.2,3,.3,3.56.7,7.14,1.28,10.66,2.11A72.55,72.55,0,0,1,118,290.89Z" transform="translate(-0.03 0)" style="fill:#474747;stroke:#474747;stroke-miterlimit:10;stroke-width:2px"/><path d="M162.25,286.5c-1.79-1.18-1.5-3.13-1.55-4.8-.35-11.48,1.48-22.28,10.32-30.68,7.63-7.26,18.71-8.62,26.13-3.12a39.75,39.75,0,0,0,5.59,3.38,12,12,0,0,0,3.09,1,5.63,5.63,0,0,0,6.66-3.47c.48-1,.91-2.06,1.63-3.67A17.08,17.08,0,0,1,212,259.42a10.79,10.79,0,0,0,6.36-3.61c-.68,5.36-2.6,9.92-7.14,12.93a2.37,2.37,0,0,0-1.23,2.88c.42,1.88,0,4.55,1.16,5.49s3.69.21,5.61.11c3.46-.18,6.76,1.06,10.19,1.13.23,0,.45.33.78.6-16.77,2.21-32.89,5.81-46.89,15.89.82-1.74,2.6-2.39,3.4-3.94h0a.65.65,0,0,0,.65-.5c.93-.7,1.89-1.37,2.79-2.12a43.23,43.23,0,0,1,16-9c2.47-.71,3.11-1.71,2.52-4.26-.69-3-1.4-5.92-2.33-8.81a34.83,34.83,0,0,0-6-11.85c-3-3.56-6.6-5.59-11.72-5.21a23.43,23.43,0,0,1,1.37,11,16.74,16.74,0,0,1-2.59,7.68c-1.45,2.37-2.27,2.38-4.42.78-1.86-1.37-3.29-3.29-5.66-4.35.63,2.6,1.23,5,1.8,7.42,1.19,5,.63,6.2-4.05,8.39a12.51,12.51,0,0,1-3.31,1.1c-3.08.51-6.58.53-7,4.87C162.28,286.19,162.27,286.35,162.25,286.5Z" transform="translate(-0.03 0)" style="fill:#474747;stroke:#474747;stroke-miterlimit:10;stroke-width:2px"/><path d="M162.25,286.5a1.44,1.44,0,0,1,.05-.46c.47-4.34,4-4.36,7-4.87a12.51,12.51,0,0,0,3.31-1.1c4.68-2.19,5.24-3.36,4-8.39-.57-2.41-1.17-4.82-1.8-7.42,2.37,1.06,3.8,3,5.66,4.35,2.15,1.6,3,1.59,4.42-.78a16.74,16.74,0,0,0,2.59-7.68,23.43,23.43,0,0,0-1.37-11c5.12-.38,8.77,1.65,11.72,5.21a34.83,34.83,0,0,1,6,11.85c.93,2.89,1.64,5.85,2.33,8.81.59,2.55-.05,3.55-2.52,4.26a43.23,43.23,0,0,0-16,9c-.9.75-1.86,1.42-2.79,2.12-.37,0-.62.09-.65.5h0c-3.24.71-6.27,2.13-9.58,2.65C170.05,294.28,163.4,290.61,162.25,286.5Z" transform="translate(-0.03 0)" style="fill:#fff"/><path d="M111.19,321.77a40,40,0,0,0-7.4,4c-1.46,1.13-1.58,2-.28,3.3,3.41,3.55,7.43,5.33,12.39,4.61a9.51,9.51,0,0,0,7.35-5.21,52,52,0,0,0,2.4-5.33c.87-2.17,1.87-4.28,2.9-6.39,3.37-6.93,12.66-10.15,17.13-.42,1-.4,1.14-1.43,1.68-2.14,2.17-2.89,4.74-5,8.65-4.57s5.67,3,6.87,6.24c.7,1.9,1.14,3.89,1.71,5.83,1.46,4.94,4,8.61,10.46,5.89a1.11,1.11,0,0,1,1.31.08c.26.64-.33.8-.66,1a23.79,23.79,0,0,0-8.89,13.12,71,71,0,0,1-4.46,12.06c-4.61,9.2-14.7,14.1-23.73,11.55-7.32-2.07-11.5-7.51-14.55-14-2.85-6-6.82-10.69-13.11-13.35a20.59,20.59,0,0,1-9.73-7.79c-1-1.58-1.55-1.1-2.47,0a18,18,0,0,0-3,6.38c-1.14-2.92-.32-6.67,2-9.51C100.54,323.7,106.77,321.08,111.19,321.77Zm5.47,15.28c6.43,3.46,9.85,9,13.06,14.8,3,5.46,7.66,9,14.17,8.79,6.85-.25,11.51-4.14,14.13-10.3,2.73-6.41,5.23-12.9,10.14-18.07.37-.39,1-1.06-.08-1.39-4-1.2-5.59-4.5-6.9-8-.87-2.33-1.45-4.79-2.44-7.07-1.66-3.83-5-4.31-7.69-1.15-1.1,1.31-2,2.8-3,4.18-1.62,2.18-3.32,2.15-4.81-.13-.69-1-1.19-2.2-1.86-3.25a4.08,4.08,0,0,0-5.51-1.7l-.15.08a8.29,8.29,0,0,0-4,3.86,50.45,50.45,0,0,0-2.55,5.78C127,329.65,123.76,334.89,116.66,337.05Z" transform="translate(-0.03 0)" style="fill:#474747;stroke:#474747;stroke-miterlimit:10;stroke-width:2px"/><path d="M118,290.89A72.62,72.62,0,0,0,94,281c-3.52-.83-7.1-1.41-10.66-2.11.08-.52.56-.55.91-.74h2.56A1,1,0,0,0,88,278a12.63,12.63,0,0,0,4.6-1.64c2-1.22,3.4-2.75,3.22-5.45a47.17,47.17,0,0,1,.49-10.35c1.28,1.9,2.65,3.74,3.81,5.71s2.31,1.82,3.78.56a16.71,16.71,0,0,0,5.45-8.28l1.69-6c8,9.42,9.29,20.57,11,31.59a19,19,0,0,1-1.31,5.08C120.22,290.64,119.47,291.23,118,290.89Z" transform="translate(-0.03 0)" style="fill:#fff"/><path d="M198.21,228.77c-16.6-13.3-28.12-5.21-37.9,9.22-1-.51-.82-1.21-.83-1.79-.17-15.5,13.42-25,24.26-24.55C192.45,212,200,220.9,198.21,228.77Z" transform="translate(-0.03 0)" style="fill:#474747;stroke:#474747;stroke-miterlimit:10;stroke-width:2px"/><path d="M85.93,218.17a1.49,1.49,0,0,1-.38-1.71c2.51-9.31,5.93-18,15.24-22.76,8.5-4.38,17-.26,18.59,9a13.8,13.8,0,0,1-.54,5.78c-.4,1.53-1.12,1.47-2,.37q-1.65-2-3.33-3.9c-3.28-3.79-6.39-4.55-11.09-2.78-5.44,2.05-9.1,6.17-12.51,10.59C88.53,214.53,87.27,216.35,85.93,218.17Z" transform="translate(-0.03 0)" style="fill:#474747;stroke:#474747;stroke-miterlimit:10;stroke-width:2px"/><path d="M137.49,302.83c6.24-1.73,10.77-5.84,15.9-9.16C152.9,299.29,143.36,304.9,137.49,302.83Z" transform="translate(-0.03 0)" style="fill:#474747;stroke:#474747;stroke-miterlimit:10;stroke-width:2px"/><path d="M84.32,278.17c-.35.19-.83.22-.91.74-1-.1-2-.18-3-.3-.72-.09-.87-.55-.69-1.18s.6-.54,1.09-.37C82,277.45,83.14,277.8,84.32,278.17Z" transform="translate(-0.03 0)" style="fill:#86a8cf"/><path d="M88.05,278a1,1,0,0,1-1.17.21A1.21,1.21,0,0,1,88.05,278Z" transform="translate(-0.03 0)" style="fill:#86a8cf"/><path d="M184.27,290.9c0-.41.28-.53.65-.5A.65.65,0,0,1,184.27,290.9Z" transform="translate(-0.03 0)" style="fill:#86a8cf"/><path d="M116.66,337.05c7.1-2.16,10.33-7.4,12.55-13.57a50.45,50.45,0,0,1,2.55-5.78,8.29,8.29,0,0,1,4-3.86,4.09,4.09,0,0,1,5.58,1.47l.08.15c.67,1.05,1.17,2.21,1.86,3.25,1.49,2.28,3.19,2.31,4.81.13,1-1.38,1.9-2.87,3-4.18,2.65-3.16,6-2.68,7.69,1.15,1,2.28,1.57,4.74,2.44,7.07,1.31,3.5,2.89,6.8,6.9,8,1.12.33.45,1,.08,1.39-4.91,5.17-7.41,11.66-10.14,18.07-2.62,6.16-7.28,10.05-14.13,10.3-6.51.24-11.17-3.33-14.17-8.79C126.51,346,123.09,340.51,116.66,337.05Zm13.1,1c2.85-.39,4,1.69,5.5,3.13a10.79,10.79,0,0,0,4.44,2.51c5.24,1.6,10.06.37,14.5-2.47,2.35-1.51,4.45-3.39,6.69-5.08.42-.31,1.17-.43,1.09-1s-.84-.48-1.34-.62c-2.23-.61-4.27-1.5-5.24-3.85-.31-.74,0-2-1-2.12s-1.07,1.2-1.62,1.83c-.31.35-.54.77-.83,1.13-2.42,3-5.1,3.28-8.16,1a18.75,18.75,0,0,1-3.22-3.38c-1.07-1.35-2.46-1.39-3.32-.05-2.09,3.18-4.18,6.41-7.49,9Z" transform="translate(-0.03 0)" style="fill:#eab9e5"/><path d="M129.76,338.06c3.31-2.57,5.4-5.8,7.5-9.05.86-1.34,2.25-1.3,3.32.05a18.75,18.75,0,0,0,3.22,3.38c3.06,2.31,5.74,2,8.16-1,.29-.36.52-.78.83-1.13.55-.63.76-1.89,1.62-1.83s.68,1.38,1,2.12c1,2.35,3,3.24,5.24,3.85.5.14,1.25-.07,1.34.62s-.67.74-1.09,1c-2.24,1.69-4.34,3.57-6.69,5.08-4.44,2.84-9.26,4.07-14.5,2.47a10.79,10.79,0,0,1-4.44-2.51C133.74,339.75,132.61,337.67,129.76,338.06Zm9.21-6.23a15.33,15.33,0,0,1-3,4.15c-1.28,1.11-.88,1.54.42,2.2,7.23,3.64,13.46,1.42,19.4-3.06-1.54-1.58-1.54-1.58-3-.27a8.16,8.16,0,0,1-10.14.58,29.56,29.56,0,0,1-3.65-3.6Z" transform="translate(-0.03 0)" style="fill:#474747;stroke:#474747;stroke-miterlimit:10;stroke-width:2px"/><path d="M139,331.83a30.35,30.35,0,0,0,3.66,3.6,8.16,8.16,0,0,0,10.14-.58c1.44-1.31,1.44-1.31,3,.27-5.94,4.48-12.17,6.7-19.4,3.06-1.3-.66-1.7-1.09-.42-2.2A15.46,15.46,0,0,0,139,331.83Z" transform="translate(-0.03 0)" style="fill:#fff"/></g><ellipse cx="214.64" cy="308.05" rx="25.49" ry="16.24" transform="translate(-75.18 69.32) rotate(-15.65)" style="fill:#e6fdff"/><path d="M85.84,326.08a40.05,40.05,0,0,1,21.62-17.29c-2-7.23-11-13.61-22.67-15.25-13.94-2-26.26,3.64-27.51,12.52s9,17.67,23,19.63A39.76,39.76,0,0,0,85.84,326.08Z" transform="translate(-0.03 0)" style="fill:#e6fdff"/></g></g></svg>