<svg id="Layer_1" data-name="Layer 1" xmlns="http://www.w3.org/2000/svg" viewBox="0 0 412 386"><title>vegan</title><g id="Layer_2" data-name="Layer 2"><g style="opacity:0.12"><path d="M146.22,309.79q-13-34.68-25.93-69.35c-3.43-9.17-12.86-16.44-23.11-13.12-9,2.91-16.81,13.26-13.12,23.11L110,319.78c3.44,9.17,12.86,16.44,23.11,13.12C142.08,330,149.91,319.64,146.22,309.79Z" transform="translate(0 0.01)" style="fill:#6a374f"/><path d="M322.42,185.11c0-.21.05-1.05.09-1.8s.36-2.56.37-2.61c.26-1.29.54-2.58.83-3.87.6-2.69,1.22-5.38,1.83-8.07q4.13-18.25,8.27-36.5c2.17-9.57-2.92-20.79-13.12-23.11-9.55-2.18-20.78,2.87-23.11,13.12L289.93,156c-2.46,10.85-6.08,22.47-4.82,33.69a41.58,41.58,0,0,0,2.07,10.17c.32.85.65,1.72,1,2.58-.24.77-.45,1.54-.69,2.29-.69,2.15-1.4,4.3-2.16,6.44-.42,1.18-.86,2.36-1.31,3.53-.34.89-1.93,4.06-.11.38-1,2-1.9,4-3,6-1,1.75-2.09,3.39-3.19,5l-.19.2c-1,1.09-2,2.15-3.11,3.18-7.14,6.79-7.35,19.82,0,26.57,7.65,7,18.95,7.24,26.56,0,8.83-8.4,14.24-18.83,18.71-30,4.86-12.12,9.65-24.94,3.31-37.47l-.17-.34c-.08-.25-.15-.52-.22-.79C322.56,186.76,322.41,185.44,322.42,185.11Z" transform="translate(0 0.01)" style="fill:#6a374f"/><path d="M324.62,24.69,294,33.87c.65-4.66,1.13-8,1.67-11.87a18.25,18.25,0,0,0-3.54.2c-21.19,6-42.4,11.85-63.47,18.21-2.08.63-4.27,4-4.76,6.41C213.64,97.87,203.62,149,193.51,200.05c-2.27,11.48-4.66,22.94-7,34.41l-1.46-.15c-12.41-48.88-24.81-97.76-37.31-147L129.5,93.24l-4.42-13.1L64.87,100.35l82.66,249c5.14,0,11.8-2,15,.53,3.47,2.72,4.14,9.46,5.25,14.62,1.31,6.09,3.77,8.08,10.43,6.87q31-5.64,62.28-9.8c6.1-.83,8.4-3.38,9.71-9.16q30.8-136.1,62-272.09C316.33,62.22,320.3,44.07,324.62,24.69Z" transform="translate(0 0.01)" style="fill:#6a374f;stroke:#6a374f;stroke-linecap:round;stroke-linejoin:round;stroke-width:28px"/><path d="M335.4,186.44c-9.42-12.32-8.07-25.32,3.11-35.94,10.66-10.14,23.73-15.22,37.66-18.64,7.05-1.74,14.13-3.37,21.19-5-7.05-1.26-13.89-.94-20.69-1.35-7.05-.42-14.24-.81-21.05-2.49-22.16-5.46-28.73-19-19.58-39.75,2.67-6.06,6.16-11.76,9.27-17.62-10.19,11.81-21.56,24.08-16.69,40.84,6,20.56,25.15,20.38,40.95,22.26-9.24,4.64-19.75,8.58-28.77,14.71-19.92,13.55-21.39,32.85-4.19,49.83,6.18,6.1,13.76,10.78,21.16,16.46-15.06.22-31.57-2.92-39.9,12.83-7.63,14.41-.25,28.2,8.2,42.51-3.18-1.69-4.66-2.52-6.18-3.27-15.2-7.54-27.55-2.75-31.67,13.62-2.67,10.6-3,21.79-4.36,32.71,2.8-8.53,3.43-17.38,5.34-25.94,4.32-19.34,16.09-24,33-13.21,5.39,3.43,10.37,7.5,15.54,11.27-1-3.74-3-6.55-4.64-9.59-4.26-8-9.57-15.71-12.22-24.24-5.67-18.28,2.11-29.32,21.07-30.85,8-.65,16.16.15,24.22.71,7.19.51,14.34,1.6,21.5,2.43l.54-2-16.75-6C357.27,205.78,344.64,198.53,335.4,186.44Z" transform="translate(0 0.01)" style="fill:#6a374f;stroke:#6a374f;stroke-linecap:round;stroke-linejoin:round;stroke-width:28px"/><path d="M99,327.54c1.56-7.51,4.23-15.26,4.56-23.11.55-12.87-8.62-18.28-20.3-12.92-2.51,1.15-5,2.43-8.9,4.36,3.44-5.74,6.23-9.68,8.28-14a60.08,60.08,0,0,0,4.89-13.44c2.26-10.83-3.57-17.1-14.62-16.3-1.74.12-3.46.41-6.52.79,5.32-4.93,10-8.45,13.66-12.81,9.38-11.11,8.29-23.5-3-32.61-5.27-4.23-11.44-7.42-17.42-10.68-4.46-2.44-9.28-4.24-14.56-6.61,8.57-2.13,16.33-3.44,23.63-6C77.71,181,81,174.45,79.53,165c-1.63-10.87-16-29.11-26.86-33.39,1.45,1.74,3.5,2.94,4.87,4.67,5.65,7.1,12.16,13.78,16.34,21.69,6.33,12,2.44,20.17-10.62,23.55C55,183.62,46.33,184.17,37.8,185c-5.12.49-10.33.09-15.5.09l-.3,2c4.69,1.37,9.62,2.21,14,4.21,12.61,5.7,25.63,10.86,37.31,18.13s12.45,18.32,3.21,28.43c-5.2,5.69-11.72,10.37-18.22,14.65-6.9,4.53-14.46,8.05-21.73,12,3.26.53,6-.33,8.84-1,9.33-2.27,18.58-5.08,28.05-6.54,7.74-1.19,11.4,3.32,9.94,11.07-.74,3.94-1.74,8.08-3.74,11.48-5.89,10-12.35,19.67-18.57,29.48-1,1.49-1.82,3-3.12,5.18,8.51-6.39,15.81-12.74,24-17.64,3.6-2.16,10.29-3.35,13.13-1.41s4,8.39,3.85,12.81c-.12,5.15-1.89,10.44-3.8,15.34-4.08,10.48-8.71,20.74-13.76,32.6,6.44-8.14,11.44-15.42,17.41-21.79,11.37-12.16,20.22-10,25,5.84,2.06,6.89,3.33,14,5,21a61.11,61.11,0,0,0-.43-17.45C125.15,323.21,116.09,318.48,99,327.54Z" transform="translate(0 0.01)" style="fill:#6a374f;stroke:#6a374f;stroke-linecap:round;stroke-linejoin:round;stroke-width:28px"/><path d="M147.53,349.32l-82.66-249L125.09,80.1l4.42,13.1,18.24-5.93c12.5,49.25,24.9,98.13,37.31,147l1.46.15c2.33-11.47,4.72-22.93,7-34.41,10.1-51,20.12-102.14,30.4-153.19.49-2.43,2.68-5.78,4.76-6.41C249.75,34.05,271,28.17,292.15,22.2a18.25,18.25,0,0,1,3.54-.2c-.54,3.84-1,7.21-1.67,11.87l30.6-9.18c-4.32,19.38-8.29,37.53-12.42,55.63q-31,136-62,272.06c-1.31,5.78-3.61,8.33-9.71,9.16-20.82,2.84-41.61,6-62.28,9.8-6.66,1.21-9.12-.78-10.43-6.87-1.11-5.16-1.78-11.9-5.25-14.62C159.33,347.36,152.67,349.32,147.53,349.32ZM287.62,31.51a20.31,20.31,0,0,0-3.72,0c-16.31,4.61-32.67,9.08-48.83,14.16-2.28.72-4.65,4.32-5.17,6.94q-20.65,103-40.89,206c-2.66,13.44-5.43,26.86-8.16,40.29h-2Q149.86,194,120.7,88.84L73.91,104.67c.44,1.76.58,2.5.81,3.21q38,114.41,75.86,228.85c1.65,5,4.17,5.3,8.4,4.57,18.21-3.17,36.43-6.27,54.69-9.13,4.43-.69,6.41-2.65,7.35-7,4.15-19.27,8.63-38.47,13-57.69C251.82,189.08,269.62,110.72,287.62,31.51Z" transform="translate(0 0.01)" style="fill:#6a374f;stroke:#6a374f;stroke-miterlimit:10;stroke-width:0.75px"/><path d="M357.77,209.7c-7.4-5.68-15-10.36-21.16-16.46-17.2-17-15.73-36.28,4.19-49.83,9-6.13,19.53-10.07,28.77-14.71-15.8-1.88-35-1.7-40.95-22.26-4.87-16.76,6.5-29,16.69-40.84-3.11,5.86-6.6,11.56-9.27,17.62-9.15,20.78-2.58,34.29,19.58,39.78,6.81,1.68,14,2.07,21,2.49,6.81.41,13.65.09,20.7,1.35-7.06,1.68-14.14,3.31-21.19,5-13.93,3.42-27,8.5-37.66,18.64-11.18,10.62-12.53,23.62-3.11,35.94,9.24,12.09,21.87,19.34,36,24.24,5.6,2,11.17,4,16.75,6l-.54,2c-7.16-.83-14.31-1.92-21.5-2.43-8.06-.56-16.21-1.36-24.22-.71-19,1.53-26.74,12.57-21.07,30.85,2.65,8.53,8,16.24,12.22,24.24,1.61,3,3.65,5.85,4.64,9.59-5.17-3.77-10.15-7.84-15.54-11.27-16.87-10.74-28.64-6.13-33,13.21-1.91,8.56-2.54,17.41-5.34,25.94,1.37-10.92,1.69-22.11,4.36-32.71,4.12-16.37,16.47-21.16,31.67-13.62,1.52.75,3,1.58,6.18,3.27-8.45-14.31-15.83-28.1-8.21-42.51C326.2,206.78,342.71,209.92,357.77,209.7Z" transform="translate(0 0.01)" style="fill:#6a374f"/><path d="M66.43,252.94c3.06-.38,4.78-.67,6.52-.79,11-.8,16.88,5.47,14.62,16.3a60.08,60.08,0,0,1-4.89,13.44c-2.05,4.3-4.84,8.24-8.28,14,3.93-1.93,6.39-3.21,8.9-4.36,11.68-5.36,20.85.05,20.3,12.92-.33,7.85-3,15.6-4.56,23.11,17-9.06,26.11-4.33,29.28,15.93a61.11,61.11,0,0,1,.43,17.45c-1.64-7-2.91-14.15-5-21-4.75-15.84-13.6-18-25-5.84-6,6.37-11,13.65-17.41,21.79,5-11.86,9.68-22.12,13.76-32.6,1.91-4.9,3.68-10.19,3.8-15.34.11-4.42-.92-10.8-3.85-12.81s-9.53-.75-13.13,1.41c-8.17,4.9-15.47,11.25-24,17.64C59.22,312,60.09,310.5,61,309c6.22-9.81,12.67-19.48,18.57-29.49,2-3.39,3-7.53,3.74-11.47,1.46-7.75-2.2-12.26-9.94-11.07-9.47,1.46-18.72,4.27-28,6.54-2.81.69-5.58,1.55-8.84,1,7.27-4,14.83-7.48,21.73-12,6.5-4.28,13-9,18.22-14.65,9.24-10.11,8.38-21.22-3.21-28.43S48.64,197,36,191.26c-4.41-2-9.34-2.84-14-4.21l.3-2c5.17,0,10.38.4,15.5-.09,8.53-.81,17.22-1.36,25.46-3.49,13.06-3.38,16.95-11.58,10.62-23.55C69.7,150,63.19,143.35,57.54,136.25c-1.37-1.73-3.42-2.93-4.87-4.67C63.54,135.86,77.9,154.1,79.53,165c1.42,9.48-1.82,16-10.87,19.22-7.3,2.58-15.06,3.89-23.63,6,5.28,2.37,10.1,4.17,14.56,6.61,6,3.26,12.15,6.45,17.42,10.68,11.33,9.11,12.42,21.53,3.08,32.63C76.42,244.49,71.75,248,66.43,252.94Z" transform="translate(0 0.01)" style="fill:#6a374f"/><path d="M287.62,31.51c-18,79.21-35.8,157.57-53.6,235.93-4.37,19.22-8.85,38.42-13,57.69-.94,4.39-2.92,6.35-7.35,7-18.26,2.86-36.48,6-54.69,9.13-4.23.73-6.75.46-8.4-4.57Q112.87,222.24,74.72,107.88c-.23-.71-.37-1.45-.81-3.21l46.78-15.8q29.17,105.36,58.15,210.06h2c2.73-13.43,5.5-26.85,8.16-40.29q20.38-103,40.89-206c.52-2.62,2.89-6.22,5.17-6.94,16.16-5.08,32.52-9.55,48.83-14.16A17.49,17.49,0,0,1,287.62,31.51Z" transform="translate(0 0.01)" style="fill:#6a374f"/></g><g id="Layer_1-2" data-name="Layer 1-2"><path d="M138.22,301.79q-13-34.68-25.93-69.35c-3.43-9.17-12.86-16.44-23.11-13.12-9,2.91-16.81,13.26-13.12,23.11L102,311.78c3.44,9.17,12.86,16.44,23.11,13.12C134.08,322,141.91,311.64,138.22,301.79Z" transform="translate(0 0.01)" style="fill:#fff"/><path d="M314.42,177.11c0-.21.05-1.05.09-1.8s.36-2.56.37-2.61c.26-1.29.54-2.58.83-3.87.6-2.69,1.22-5.38,1.83-8.07q4.13-18.25,8.27-36.5c2.17-9.57-2.92-20.79-13.12-23.11-9.55-2.18-20.78,2.87-23.11,13.12L281.93,148c-2.46,10.85-6.08,22.47-4.82,33.69a41.58,41.58,0,0,0,2.07,10.17c.32.85.65,1.72,1,2.58-.24.77-.45,1.54-.69,2.29-.69,2.15-1.4,4.3-2.16,6.44-.42,1.18-.86,2.36-1.31,3.53-.34.89-1.93,4.06-.11.38-1,2-1.9,4-3,6-1,1.75-2.09,3.39-3.19,5l-.19.2c-1,1.09-2,2.15-3.11,3.18-7.14,6.79-7.35,19.82,0,26.57,7.65,7,18.95,7.24,26.56,0,8.83-8.4,14.24-18.83,18.71-30,4.86-12.12,9.65-24.94,3.31-37.47l-.17-.34c-.08-.25-.15-.52-.22-.79C314.56,178.76,314.41,177.44,314.42,177.11Z" transform="translate(0 0.01)" style="fill:#fff"/><path d="M316.62,16.69,286,25.87c.65-4.66,1.13-8,1.67-11.87a18.25,18.25,0,0,0-3.54.2c-21.19,6-42.4,11.85-63.47,18.21-2.08.63-4.27,4-4.76,6.41C205.64,89.87,195.62,141,185.51,192.05c-2.27,11.48-4.66,22.94-7,34.41l-1.46-.15c-12.41-48.88-24.81-97.76-37.31-147L121.5,85.24l-4.42-13.1L56.87,92.35l82.66,249c5.14,0,11.8-2,15,.53,3.47,2.72,4.14,9.46,5.25,14.62,1.31,6.09,3.77,8.08,10.43,6.87q31-5.64,62.28-9.8c6.1-.83,8.4-3.38,9.71-9.16q30.8-136.1,62-272.09C308.33,54.22,312.3,36.07,316.62,16.69Z" transform="translate(0 0.01)" style="fill:#fff;stroke:#fff;stroke-linecap:round;stroke-linejoin:round;stroke-width:28px"/><path d="M327.4,178.44c-9.42-12.32-8.07-25.32,3.11-35.94,10.66-10.14,23.73-15.22,37.66-18.64,7.05-1.74,14.13-3.37,21.19-5-7.05-1.26-13.89-.94-20.69-1.35-7.05-.42-14.24-.81-21.05-2.49-22.16-5.46-28.73-19-19.58-39.75,2.67-6.06,6.16-11.76,9.27-17.62-10.19,11.81-21.56,24.08-16.69,40.84,6,20.56,25.15,20.38,40.95,22.26-9.24,4.64-19.75,8.58-28.77,14.71-19.92,13.55-21.39,32.85-4.19,49.83,6.18,6.1,13.76,10.78,21.16,16.46-15.06.22-31.57-2.92-39.9,12.83-7.63,14.41-.25,28.2,8.2,42.51-3.18-1.69-4.66-2.52-6.18-3.27-15.2-7.54-27.55-2.75-31.67,13.62-2.67,10.6-3,21.79-4.36,32.71,2.8-8.53,3.43-17.38,5.34-25.94,4.32-19.34,16.09-24,33-13.21,5.39,3.43,10.37,7.5,15.54,11.27-1-3.74-3-6.55-4.64-9.59-4.26-8-9.57-15.71-12.22-24.24-5.67-18.28,2.11-29.32,21.07-30.85,8-.65,16.16.15,24.22.71,7.19.51,14.34,1.6,21.5,2.43l.54-2-16.75-6C349.27,197.78,336.64,190.53,327.4,178.44Z" transform="translate(0 0.01)" style="fill:#fff;stroke:#fff;stroke-linecap:round;stroke-linejoin:round;stroke-width:28px"/><path d="M91,319.54c1.56-7.51,4.23-15.26,4.56-23.11.55-12.87-8.62-18.28-20.3-12.92-2.51,1.15-5,2.43-8.9,4.36,3.44-5.74,6.23-9.68,8.28-14a60.08,60.08,0,0,0,4.89-13.44c2.26-10.83-3.57-17.1-14.62-16.3-1.74.12-3.46.41-6.52.79,5.32-4.93,10-8.45,13.66-12.81,9.38-11.11,8.29-23.5-3-32.61-5.27-4.23-11.44-7.42-17.42-10.68-4.46-2.44-9.28-4.24-14.56-6.61,8.57-2.13,16.33-3.44,23.63-6C69.71,173,73,166.45,71.53,157c-1.63-10.87-16-29.11-26.86-33.39,1.45,1.74,3.5,2.94,4.87,4.67,5.65,7.1,12.16,13.78,16.34,21.69,6.33,12,2.44,20.17-10.62,23.55C47,175.62,38.33,176.17,29.8,177c-5.12.49-10.33.09-15.5.09l-.3,2c4.69,1.37,9.62,2.21,14,4.21,12.61,5.7,25.63,10.86,37.31,18.13s12.45,18.32,3.21,28.43c-5.2,5.69-11.72,10.37-18.22,14.65-6.9,4.53-14.46,8.05-21.73,12,3.26.53,6-.33,8.84-1,9.33-2.27,18.58-5.08,28.05-6.54,7.74-1.19,11.4,3.32,9.94,11.07-.74,3.94-1.74,8.08-3.74,11.48-5.89,10-12.35,19.67-18.57,29.48-1,1.49-1.82,3-3.12,5.18,8.51-6.39,15.81-12.74,24-17.64,3.6-2.16,10.29-3.35,13.13-1.41s4,8.39,3.85,12.81c-.12,5.15-1.89,10.44-3.8,15.34-4.08,10.48-8.71,20.74-13.76,32.6,6.44-8.14,11.44-15.42,17.41-21.79,11.37-12.16,20.22-10,25,5.84,2.06,6.89,3.33,14,5,21a61.11,61.11,0,0,0-.43-17.45C117.15,315.21,108.09,310.48,91,319.54Z" transform="translate(0 0.01)" style="fill:#fff;stroke:#fff;stroke-linecap:round;stroke-linejoin:round;stroke-width:28px"/><path d="M139.53,341.32l-82.66-249L117.09,72.1l4.42,13.1,18.24-5.93c12.5,49.25,24.9,98.13,37.31,147l1.46.15c2.33-11.47,4.72-22.93,7-34.41,10.1-51,20.12-102.14,30.4-153.19.49-2.43,2.68-5.78,4.76-6.41C241.75,26.05,263,20.17,284.15,14.2a18.25,18.25,0,0,1,3.54-.2c-.54,3.84-1,7.21-1.67,11.87l30.6-9.18c-4.32,19.38-8.29,37.53-12.42,55.63q-31,136-62,272.06c-1.31,5.78-3.61,8.33-9.71,9.16-20.82,2.84-41.61,6-62.28,9.8-6.66,1.21-9.12-.78-10.43-6.87-1.11-5.16-1.78-11.9-5.25-14.62C151.33,339.36,144.67,341.32,139.53,341.32ZM279.62,23.51a20.31,20.31,0,0,0-3.72,0c-16.31,4.61-32.67,9.08-48.83,14.16-2.28.72-4.65,4.32-5.17,6.94q-20.65,103-40.89,206c-2.66,13.44-5.43,26.86-8.16,40.29h-2Q141.86,186,112.7,80.84L65.91,96.67c.44,1.76.58,2.5.81,3.21q38,114.41,75.86,228.85c1.65,5,4.17,5.3,8.4,4.57,18.21-3.17,36.43-6.27,54.69-9.13,4.43-.69,6.41-2.65,7.35-7,4.15-19.27,8.63-38.47,13-57.69C243.82,181.08,261.62,102.72,279.62,23.51Z" transform="translate(0 0.01)" style="fill:#474747;stroke:#474747;stroke-miterlimit:10;stroke-width:0.75px"/><path d="M349.77,201.7c-7.4-5.68-15-10.36-21.16-16.46-17.2-17-15.73-36.28,4.19-49.83,9-6.13,19.53-10.07,28.77-14.71-15.8-1.88-35-1.7-40.95-22.26-4.87-16.76,6.5-29,16.69-40.84-3.11,5.86-6.6,11.56-9.27,17.62C318.89,96,325.46,109.51,347.62,115c6.81,1.68,14,2.07,21,2.49,6.81.41,13.65.09,20.7,1.35-7.06,1.68-14.14,3.31-21.19,5-13.93,3.42-27,8.5-37.66,18.64-11.18,10.62-12.53,23.62-3.11,35.94,9.24,12.09,21.87,19.34,36,24.24,5.6,2,11.17,4,16.75,6l-.54,2c-7.16-.83-14.31-1.92-21.5-2.43-8.06-.56-16.21-1.36-24.22-.71-19,1.53-26.74,12.57-21.07,30.85,2.65,8.53,8,16.24,12.22,24.24,1.61,3,3.65,5.85,4.64,9.59-5.17-3.77-10.15-7.84-15.54-11.27-16.87-10.74-28.64-6.13-33,13.21-1.91,8.56-2.54,17.41-5.34,25.94,1.37-10.92,1.69-22.11,4.36-32.71,4.12-16.37,16.47-21.16,31.67-13.62,1.52.75,3,1.58,6.18,3.27-8.45-14.31-15.83-28.1-8.21-42.51C318.2,198.78,334.71,201.92,349.77,201.7Z" transform="translate(0 0.01)" style="fill:#474747"/><path d="M58.43,244.94c3.06-.38,4.78-.67,6.52-.79,11-.8,16.88,5.47,14.62,16.3a60.08,60.08,0,0,1-4.89,13.44c-2.05,4.3-4.84,8.24-8.28,14,3.93-1.93,6.39-3.21,8.9-4.36,11.68-5.36,20.85.05,20.3,12.92-.33,7.85-3,15.6-4.56,23.11,17-9.06,26.11-4.33,29.28,15.93a61.11,61.11,0,0,1,.43,17.45c-1.64-7-2.91-14.15-5-21-4.75-15.84-13.6-18-25-5.84-6,6.37-11,13.65-17.41,21.79,5-11.86,9.68-22.12,13.76-32.6,1.91-4.9,3.68-10.19,3.8-15.34.11-4.42-.92-10.8-3.85-12.81s-9.53-.75-13.13,1.41c-8.17,4.9-15.47,11.25-24,17.64C51.22,304,52.09,302.5,53,301c6.22-9.81,12.67-19.48,18.57-29.49,2-3.39,3-7.53,3.74-11.47,1.46-7.75-2.2-12.26-9.94-11.07-9.47,1.46-18.72,4.27-28,6.54-2.81.69-5.58,1.55-8.84,1,7.27-4,14.83-7.48,21.73-12,6.5-4.28,13-9,18.22-14.65,9.24-10.11,8.38-21.22-3.21-28.43S40.64,189,28,183.26c-4.41-2-9.34-2.84-14-4.21l.3-2c5.17,0,10.38.4,15.5-.09,8.53-.81,17.22-1.36,25.46-3.49,13.06-3.38,16.95-11.58,10.62-23.55C61.7,142,55.19,135.35,49.54,128.25c-1.37-1.73-3.42-2.93-4.87-4.67C55.54,127.86,69.9,146.1,71.53,157c1.42,9.48-1.82,16-10.87,19.22-7.3,2.58-15.06,3.89-23.63,6,5.28,2.37,10.1,4.17,14.56,6.61,6,3.26,12.15,6.45,17.42,10.68,11.33,9.11,12.42,21.53,3.08,32.63C68.42,236.49,63.75,240,58.43,244.94Z" transform="translate(0 0.01)" style="fill:#474747"/><path d="M279.62,23.51c-18,79.21-35.8,157.57-53.6,235.93-4.37,19.22-8.85,38.42-13,57.69-.94,4.39-2.92,6.35-7.35,7-18.26,2.86-36.48,6-54.69,9.13-4.23.73-6.75.46-8.4-4.57Q104.87,214.24,66.72,99.88c-.23-.71-.37-1.45-.81-3.21l46.78-15.8q29.17,105.36,58.15,210.06h2c2.73-13.43,5.5-26.85,8.16-40.29q20.38-103,40.89-206c.52-2.62,2.89-6.22,5.17-6.94,16.16-5.08,32.52-9.55,48.83-14.16A17.49,17.49,0,0,1,279.62,23.51Z" transform="translate(0 0.01)" style="fill:#9ecc6d"/></g></g></svg>